<svg xmlns="http://www.w3.org/2000/svg" viewBox="0 0 200 175" id="female-web-developer"><g data-name="Layer 1"><rect width="115.37" height="1.15" x="40.75" y="145.51" fill="#0e0e27"></rect><path fill="#fff" d="M64.17,44.62a8,8,0,1,1,0-16H132a8,8,0,1,1,0,16Z"></path><path d="M132,28.84a7.77,7.77,0,1,1,0,15.53H64.17a7.77,7.77,0,1,1,0-15.53Zm0-.5H64.17A8.26,8.26,0,0,0,55.9,36.6h0a8.27,8.27,0,0,0,8.27,8.27H132a8.27,8.27,0,0,0,8.27-8.27h0A8.26,8.26,0,0,0,132,28.34Z"></path><path d="M131.88,41.39l-4.5-3.28a4.81,4.81,0,1,0-.59.81l4.5,3.28ZM120.73,39.1a4.23,4.23,0,1,1,5.91-.9A4.22,4.22,0,0,1,120.73,39.1Z"></path><rect width="27.53" height="27.53" x="57.4" y="51.73" fill="#fff"></rect><path d="M84.67,52V79h-27V52Zm.5-.5h-28v28h28v-28Z"></path><polygon fill="#00a9ff" points="59.53 77.58 67.73 61.31 72.62 71.59 76.05 66.15 82.76 77.52 59.53 77.58"></polygon><path fill="#ffcf0b" d="M74.79,59.41A1.82,1.82,0,1,1,73,57.58,1.81,1.81,0,0,1,74.79,59.41Z"></path><rect width="34.23" height=".36" x="54.04" y="65.31" transform="rotate(-45.06 71.148 65.482)"></rect><polygon points="83.13 77.72 58.93 53.52 59.19 53.26 83.39 77.47 83.13 77.72"></polygon><path d="M82.77 78c-.6 0-.68-.13-.68-.27s.08-.27.68-.27.67.14.67.27S83.36 78 82.77 78zM80.78 78c-.59 0-.67-.13-.67-.27s.08-.27.67-.27.68.14.68.27S81.38 78 80.78 78zM78.8 78c-.59 0-.67-.13-.67-.27s.08-.27.67-.27.68.14.68.27S79.4 78 78.8 78zM76.82 78c-.59 0-.68-.13-.68-.27s.08-.27.68-.27.68.14.68.27S77.42 78 76.82 78zM74.84 78c-.6 0-.68-.13-.68-.27s.08-.27.68-.27.67.14.67.27S75.43 78 74.84 78zM72.86 78c-.6 0-.68-.13-.68-.27s.08-.27.68-.27.67.14.67.27S73.45 78 72.86 78zM70.87 78c-.59 0-.67-.13-.67-.27s.08-.27.67-.27.68.14.68.27S71.47 78 70.87 78zM68.89 78c-.59 0-.68-.13-.68-.27s.09-.27.68-.27.68.14.68.27S69.49 78 68.89 78zM66.91 78c-.59 0-.68-.13-.68-.27s.08-.27.68-.27.68.14.68.27S67.5 78 66.91 78zM64.93 78c-.6 0-.68-.13-.68-.27s.08-.27.68-.27.67.14.67.27S65.52 78 64.93 78zM63 78c-.6 0-.68-.13-.68-.27s.08-.27.68-.27.67.14.67.27S63.54 78 63 78zM61 78c-.59 0-.67-.13-.67-.27s.08-.27.67-.27.68.14.68.27S61.56 78 61 78zM59.32 78l-.13-.1h-.4v-.36l-.18-.19h.18c0-.42.15-.48.27-.48s.24.07.26.5c.19 0 .34.1.34.25s-.14.22-.34.25zM59.06 76.3c-.14 0-.27-.08-.27-.68s.13-.67.27-.67.26.08.26.67S59.19 76.3 59.06 76.3zM59.06 74.32c-.14 0-.27-.08-.27-.68s.13-.67.27-.67.26.08.26.67S59.19 74.32 59.06 74.32zM59.06 72.34c-.14 0-.27-.08-.27-.68s.13-.68.27-.68.26.09.26.68S59.19 72.34 59.06 72.34zM59.06 70.36c-.14 0-.27-.09-.27-.68s.13-.68.27-.68.26.08.26.68S59.19 70.36 59.06 70.36zM59.06 68.37c-.14 0-.27-.08-.27-.67s.13-.68.27-.68.26.08.26.68S59.19 68.37 59.06 68.37zM59.06 66.39c-.14 0-.27-.08-.27-.68s.13-.67.27-.67.26.08.26.67S59.19 66.39 59.06 66.39zM59.06 64.41c-.14 0-.27-.08-.27-.68s.13-.67.27-.67.26.08.26.67S59.19 64.41 59.06 64.41zM59.06 62.43c-.14 0-.27-.08-.27-.68s.13-.68.27-.68.26.09.26.68S59.19 62.43 59.06 62.43zM59.06 60.44c-.14 0-.27-.08-.27-.67s.13-.68.27-.68.26.08.26.68S59.19 60.44 59.06 60.44zM59.06 58.46c-.14 0-.27-.08-.27-.67s.13-.68.27-.68.26.08.26.68S59.19 58.46 59.06 58.46zM59.06 56.48c-.14 0-.27-.08-.27-.68s.13-.67.27-.67.26.08.26.67S59.19 56.48 59.06 56.48zM60.69 53.74c-.6 0-.68-.13-.68-.27s.09-.26.68-.26.68.13.68.26S61.29 53.74 60.69 53.74zM62.67 53.74c-.59 0-.67-.13-.67-.27s.08-.26.67-.26.68.13.68.26S63.27 53.74 62.67 53.74zM64.65 53.74c-.59 0-.67-.13-.67-.27s.08-.26.67-.26.68.13.68.26S65.25 53.74 64.65 53.74zM66.64 53.74c-.6 0-.68-.13-.68-.27s.08-.26.68-.26.67.13.67.26S67.23 53.74 66.64 53.74zM68.62 53.74c-.6 0-.68-.13-.68-.27s.08-.26.68-.26.68.13.68.26S69.21 53.74 68.62 53.74zM70.6 53.74c-.6 0-.68-.13-.68-.27s.09-.26.68-.26.68.13.68.26S71.2 53.74 70.6 53.74zM72.58 53.74c-.59 0-.67-.13-.67-.27s.08-.26.67-.26.68.13.68.26S73.18 53.74 72.58 53.74zM74.57 53.74c-.6 0-.68-.13-.68-.27s.08-.26.68-.26.67.13.67.26S75.16 53.74 74.57 53.74zM76.55 53.74c-.6 0-.68-.13-.68-.27s.08-.26.68-.26.67.13.67.26S77.14 53.74 76.55 53.74zM78.53 53.74c-.6 0-.68-.13-.68-.27s.08-.26.68-.26.68.13.68.26S79.13 53.74 78.53 53.74zM80.51 53.74c-.59 0-.68-.13-.68-.27s.09-.26.68-.26.68.13.68.26S81.11 53.74 80.51 53.74zM82.49 53.74c-.59 0-.67-.13-.67-.27s.08-.26.67-.26.68.13.68.26S83.09 53.74 82.49 53.74zM83.26 55.37c-.14 0-.26-.09-.26-.68s.12-.68.26-.68.27.08.27.68S83.39 55.37 83.26 55.37zM83.26 57.35c-.14 0-.26-.08-.26-.68s.12-.68.26-.68.27.08.27.68S83.39 57.35 83.26 57.35zM83.26 59.33c-.14 0-.26-.08-.26-.68s.12-.67.26-.67.27.08.27.67S83.39 59.33 83.26 59.33zM83.26 61.31c-.14 0-.26-.08-.26-.67s.12-.68.26-.68.27.08.27.68S83.39 61.31 83.26 61.31zM83.26 63.29c-.14 0-.26-.08-.26-.67s.12-.68.26-.68.27.08.27.68S83.39 63.29 83.26 63.29zM83.26 65.28c-.14 0-.26-.09-.26-.68s.12-.68.26-.68.27.08.27.68S83.39 65.28 83.26 65.28zM83.26 67.26c-.14 0-.26-.08-.26-.68s.12-.68.26-.68.27.08.27.68S83.39 67.26 83.26 67.26zM83.26 69.24c-.14 0-.26-.08-.26-.68s.12-.67.26-.67.27.08.27.67S83.39 69.24 83.26 69.24zM83.26 71.22c-.14 0-.26-.08-.26-.67s.12-.68.26-.68.27.08.27.68S83.39 71.22 83.26 71.22zM83.26 73.2c-.14 0-.26-.08-.26-.67s.12-.68.26-.68.27.08.27.68S83.39 73.2 83.26 73.2zM83.26 75.19c-.14 0-.26-.09-.26-.68s.12-.68.26-.68.27.08.27.68S83.39 75.19 83.26 75.19zM83.26 77.17c-.14 0-.26-.08-.26-.68s.12-.68.26-.68.27.09.27.68S83.39 77.17 83.26 77.17z"></path><rect width="1.79" height="1.79" x="82.37" y="76.54"></rect><path d="M84.34,78.51H82.18V76.36h2.16Zm-1.79-.36H84V76.72H82.55Z"></path><rect width="1.79" height="1.79" x="58.16" y="76.78"></rect><path d="M60.13,78.76H58V76.6h2.15Zm-1.79-.36h1.43V77H58.34Z"></path><rect width="1.79" height="1.79" x="82.37" y="52.4"></rect><path d="M84.34,54.38H82.18V52.22h2.16ZM82.55,54H84V52.59H82.55Z"></path><rect width="1.79" height="1.79" x="58.16" y="52.58"></rect><path d="M60.13,54.55H58V52.4h2.15Zm-1.79-.36h1.43V52.76H58.34Z"></path><polygon points="92.62 52.38 92.68 54.1 110.2 54.1 110.13 52.38 92.62 52.38"></polygon><polygon points="101.21 57.55 101.28 59.27 129.76 59.27 129.7 57.55 101.21 57.55"></polygon><polygon fill="#00a9ff" points="92.66 57.55 92.73 59.27 99.98 59.27 99.91 57.55 92.66 57.55"></polygon><polygon points="92.58 62.71 92.65 64.43 107.15 64.43 107.04 62.71 92.58 62.71"></polygon><polygon fill="#00a9ff" points="108.05 62.71 108.16 64.43 122.36 64.43 122.3 62.71 108.05 62.71"></polygon><polygon fill="#00a9ff" points="111.94 52.38 112 54.1 117.31 54.1 117.25 52.38 111.94 52.38"></polygon><polygon points="131.53 57.55 131.6 59.27 140.11 59.27 140.04 57.55 131.53 57.55"></polygon><polygon points="123.93 62.71 123.99 64.43 132.61 64.43 132.55 62.71 123.93 62.71"></polygon><polygon points="119.63 52.38 119.76 54.1 134.78 54.1 134.66 52.38 119.63 52.38"></polygon><polygon points="92.53 71.72 92.59 73.43 110.11 73.43 110.05 71.72 92.53 71.72"></polygon><polygon points="101.12 76.88 101.19 78.6 129.68 78.6 129.61 76.88 101.12 76.88"></polygon><polygon points="92.58 76.88 92.64 78.6 99.89 78.6 99.82 76.88 92.58 76.88"></polygon><polygon points="111.85 71.72 111.91 73.43 117.23 73.43 117.16 71.72 111.85 71.72"></polygon><polygon points="131.45 76.88 131.51 78.6 140.02 78.6 139.95 76.88 131.45 76.88"></polygon><polygon fill="#00a9ff" points="119.55 71.72 119.67 73.43 134.69 73.43 134.57 71.72 119.55 71.72"></polygon><path fill="#fff" d="M61.18,87.31h72.5a5,5,0,0,1,5,5v44.58a5,5,0,0,1-5,5H61.18a5,5,0,0,1-5-5V92.26A5,5,0,0,1,61.18,87.31Z"></path><path d="M133.68,87.56a4.71,4.71,0,0,1,4.7,4.7v44.59a4.71,4.71,0,0,1-4.7,4.7H61.18a4.71,4.71,0,0,1-4.7-4.7V92.26a4.71,4.71,0,0,1,4.7-4.7Zm0-.5H61.18a5.2,5.2,0,0,0-5.2,5.2v44.59a5.2,5.2,0,0,0,5.2,5.2h72.5a5.2,5.2,0,0,0,5.2-5.2V92.26a5.2,5.2,0,0,0-5.2-5.2Z"></path><polygon points="84.56 94.37 84.63 96.05 102.08 96.05 102.02 94.37 84.56 94.37"></polygon><polygon points="93.13 99.42 93.19 101.1 121.58 101.1 121.52 99.42 93.13 99.42"></polygon><polygon fill="#00a9ff" points="84.61 99.42 84.67 101.1 91.9 101.1 91.83 99.42 84.61 99.42"></polygon><polygon points="84.53 104.47 84.59 106.15 99.04 106.15 98.94 104.47 84.53 104.47"></polygon><polygon fill="#00a9ff" points="99.95 104.47 100.05 106.15 114.21 106.15 114.14 104.47 99.95 104.47"></polygon><polygon points="71.89 104.47 71.88 106.15 78.98 106.15 78.99 104.47 71.89 104.47"></polygon><polygon points="63.26 99.42 63.25 101.1 74.8 101.1 74.81 99.42 63.26 99.42"></polygon><polygon points="76.13 99.42 76.13 101.1 79.06 101.1 79.07 99.42 76.13 99.42"></polygon><polygon fill="#ffcf0b" points="73.32 94.37 73.33 96.05 79.19 96.05 79.2 94.37 73.32 94.37"></polygon><polygon fill="#ffcf0b" points="66.37 94.37 66.37 96.05 72.14 96.05 72.13 94.37 66.37 94.37"></polygon><polygon points="71.8 123.37 71.79 125.05 78.89 125.05 78.9 123.37 71.8 123.37"></polygon><polygon points="63.17 118.32 63.16 120 74.71 120 74.72 118.32 63.17 118.32"></polygon><polygon points="76.04 118.32 76.04 120 78.97 120 78.98 118.32 76.04 118.32"></polygon><polygon fill="#ffcf0b" points="73.23 113.27 73.24 114.95 79.11 114.95 79.11 113.27 73.23 113.27"></polygon><polygon fill="#ffcf0b" points="66.28 113.27 66.28 114.95 72.06 114.95 72.05 113.27 66.28 113.27"></polygon><polygon fill="#00a9ff" points="103.82 94.37 103.88 96.05 109.18 96.05 109.11 94.37 103.82 94.37"></polygon><polygon points="123.35 99.42 123.41 101.1 131.89 101.1 131.83 99.42 123.35 99.42"></polygon><polygon points="115.77 104.47 115.83 106.15 124.42 106.15 124.36 104.47 115.77 104.47"></polygon><polygon points="111.49 94.37 111.61 96.05 126.58 96.05 126.46 94.37 111.49 94.37"></polygon><polygon points="84.48 113.27 84.54 114.95 102 114.95 101.93 113.27 84.48 113.27"></polygon><polygon points="93.04 118.32 93.11 120 121.5 120 121.43 118.32 93.04 118.32"></polygon><polygon points="84.52 118.32 84.58 120 91.81 120 91.74 118.32 84.52 118.32"></polygon><polygon points="84.44 123.37 84.5 125.05 98.96 125.05 98.85 123.37 84.44 123.37"></polygon><polygon points="99.86 123.37 99.96 125.05 114.12 125.05 114.06 123.37 99.86 123.37"></polygon><polygon points="103.73 113.27 103.79 114.95 109.09 114.95 109.03 113.27 103.73 113.27"></polygon><polygon points="123.26 118.32 123.32 120 131.8 120 131.74 118.32 123.26 118.32"></polygon><polygon fill="#00a9ff" points="115.68 123.37 115.74 125.05 124.34 125.05 124.27 123.37 115.68 123.37"></polygon><polygon points="71.8 135.24 71.79 136.92 78.89 136.92 78.9 135.24 71.8 135.24"></polygon><polygon points="63.17 130.19 63.16 131.87 74.71 131.87 74.72 130.19 63.17 130.19"></polygon><polygon points="76.04 130.19 76.04 131.87 78.97 131.87 78.98 130.19 76.04 130.19"></polygon><polygon points="93.04 130.19 93.11 131.87 121.5 131.87 121.43 130.19 93.04 130.19"></polygon><polygon points="84.52 130.19 84.58 131.87 91.81 131.87 91.74 130.19 84.52 130.19"></polygon><polygon points="84.44 135.24 84.5 136.92 98.96 136.92 98.85 135.24 84.44 135.24"></polygon><polygon points="99.86 135.24 99.96 136.92 114.12 136.92 114.06 135.24 99.86 135.24"></polygon><polygon points="123.26 130.19 123.32 131.87 131.8 131.87 131.74 130.19 123.26 130.19"></polygon><polygon fill="#00a9ff" points="115.68 135.24 115.74 136.92 124.34 136.92 124.27 135.24 115.68 135.24"></polygon><polygon fill="#00a9ff" points="111.4 113.27 111.52 114.95 126.5 114.95 126.37 113.27 111.4 113.27"></polygon><path fill="#fff" d="M69,139.78c-7.23,0-11.38-11.34-12.67-34.66,0-.36,0-.7,0-1,0-1.18,0-2.2-1.15-2.56s-8.22-2.71-9.21-3.22c-.58-.3-.9-.61-.91-.87s.4-.55.4-.55l.56-.33-.63-.13c-2-.43-3.44-1.36-3.63-2a.34.34,0,0,1,0-.34c.18-.26.75-.33.94-.34l1.9-.06-1.85-.43c-.51-.12-1.37-.46-1.51-.86,0,0-.08-.2.11-.45s.51-.3,1-.3a17.09,17.09,0,0,1,4.34,1h.8a17.7,17.7,0,0,1,6.06.84l.06,0h.07a9.84,9.84,0,0,1,1.5-.1,19.11,19.11,0,0,1,3.58.37l.35.07,0-.35c-.32-2.41.11-5.18,1-6.17a.89.89,0,0,1,.68-.37.5.5,0,0,1,.17,0c.61.12.6,1.16.6,2.26a6.93,6.93,0,0,0,.24,2.29c.2.54.41,1.05.62,1.56a15.15,15.15,0,0,1,1.38,8.7C63.16,107.59,67,114.2,69.83,119a23.66,23.66,0,0,1,2.44,4.79l.14.59,4.71-7.5,9.35,8.37c-.47.46-1.28,1.46-2.34,2.76-3.18,3.9-8.49,10.42-11.78,11.23A14.2,14.2,0,0,1,69,139.78Z"></path><path d="M60.76,87.17h.12c.41.09.4,1.12.4,2a7.23,7.23,0,0,0,.25,2.38c.21.54.42,1.06.64,1.56a15,15,0,0,1,1.35,8.58c-.62,5.93,3.26,12.57,6.09,17.42A24.42,24.42,0,0,1,72,123.87L72.3,125l.64-1,4.24-6.73,8.93,8c-.46.49-1.14,1.33-2.18,2.6-3.15,3.87-8.43,10.34-11.64,11.13a13.35,13.35,0,0,1-3.31.52c-7.07,0-11.14-11.26-12.43-34.42,0-.36,0-.7,0-1,0-1.17,0-2.38-1.32-2.8C54.14,101,47,98.59,46,98.1c-.6-.31-.77-.56-.77-.66s.16-.26.27-.32l1.15-.66-1.29-.27c-2-.42-3.3-1.34-3.44-1.84a.17.17,0,0,1,0-.12A1.21,1.21,0,0,1,42.7,94l3.83-.1L42.8,93c-.56-.13-1.25-.46-1.34-.71,0,0,0-.12.08-.21s.18-.2.85-.2a16.54,16.54,0,0,1,4.25,1l.09,0h.79a17.52,17.52,0,0,1,6,.82l.13,0,.14,0a10.68,10.68,0,0,1,1.46-.09,20.18,20.18,0,0,1,3.53.36l.69.15-.09-.7c-.31-2.32.11-5.05.92-6a.62.62,0,0,1,.49-.28Zm0-.5c-1.6,0-2.3,3.92-1.91,6.82a20,20,0,0,0-3.63-.37,11.17,11.17,0,0,0-1.54.1,17.67,17.67,0,0,0-6.16-.86h-.71a17.13,17.13,0,0,0-4.42-1,1.54,1.54,0,0,0-1.25.4c-.86,1.15,1.54,1.7,1.54,1.7s-1.48.05-1.2,1,1.77,1.76,3.81,2.19c0,0-1.47.84.53,1.86,1,.53,8.25,2.93,9.25,3.24,1.25.39.89,1.69,1,3.35C57.74,135.38,63.94,140,69,140a14.18,14.18,0,0,0,3.43-.53c4.65-1.15,13-13.18,14.44-14.23l-9.78-8.75-4.55,7.24c-.77-3.33-9.38-13.62-8.51-22,.57-5.38-.89-7.39-2-10.38-.56-1.51.31-4.43-1-4.71l-.22,0Z"></path><path d="M49.46 97.19c-2.52-1.7-4.22-.76-4.29-.72l.24.42c.07 0 1.55-.83 3.84.74l.07.05h.08a8.7 8.7 0 013.14.51l.18-.45A9 9 0 0049.46 97.19zM46.71 94a8.43 8.43 0 00-4.06-.73l.07.48a8.22 8.22 0 013.86.72l.05 0h.06a10.36 10.36 0 015 1.24l.22-.43A10.71 10.71 0 0046.71 94zM46.8 92.61a21.29 21.29 0 016.26 1.63l.2-.45a21.67 21.67 0 00-6.43-1.67z"></path><path fill="#fff" d="M120.81,125.67l2.12-15.27,8.78.62v-.26c.17-4.07.22-7.48.26-10.78a146.66,146.66,0,0,1,.89-16.78c.4-3.27,2-6.09,3.51-8.57q.28-.51.57-1a7.77,7.77,0,0,0,.68-2,3.76,3.76,0,0,1,1-2.2.87.87,0,0,1,.49-.2.64.64,0,0,1,.53.39c.7,1.12.66,4.12-.43,6.3l-.21.42.46-.06s.3,0,.77,0a10.38,10.38,0,0,1,3.1.47l.07,0,.07,0a11.59,11.59,0,0,1,3-.33,15.29,15.29,0,0,1,4.56.7l.06,0h.06a19.84,19.84,0,0,1,3.17-.31c1.56,0,2,.32,2.06.52a.44.44,0,0,1,0,.44c-.21.36-1.07.54-1.57.57l-1.9.13,1.87.37c.17,0,.7.19.83.46a.33.33,0,0,1,0,.32c-.28.6-1.77,1.26-3.77,1.35l-.65,0,.51.42s.34.29.29.58-.41.49-1,.68c-1.1.35-8.3,1.57-9.26,1.61-1.79.08-1.75,1.38-1.71,2.64,0,.21,0,.43,0,.65,0,2.51.92,6.23,2,10.54,2.42,9.71,5.43,21.79-1.38,25.2-3.94,2-16.77,2.4-19.73,2.4Z"></path><path d="M139.08,69.45h0c.13,0,.25.15.32.27.66,1.07.61,4-.45,6.06l-.41.83.92-.11s.28,0,.74,0a10.14,10.14,0,0,1,3,.46l.14,0,.15,0a11.36,11.36,0,0,1,2.89-.32,14.92,14.92,0,0,1,4.49.69l.12,0,.12,0a21.18,21.18,0,0,1,3.12-.3c1.62,0,1.83.37,1.84.38s.07.16,0,.2a2.22,2.22,0,0,1-1.37.45L151,78.3l3.67.74a1.27,1.27,0,0,1,.66.33.16.16,0,0,1,0,.1c-.22.46-1.57,1.12-3.56,1.21l-1.27.06,1,.82c.09.08.22.25.2.34s-.06.24-.83.49c-1,.33-8.28,1.56-9.19,1.6-2,.09-2,1.65-1.95,2.9,0,.21,0,.42,0,.64,0,2.54.93,6.28,2,10.6,2.39,9.62,5.38,21.6-1.25,24.91-3.81,1.91-16.07,2.36-19.4,2.38l2.06-14.75,8.29.58.51,0,0-.51c.17-4.07.22-7.49.26-10.79a146,146,0,0,1,.89-16.75c.39-3.22,2-6,3.47-8.48.2-.33.39-.66.57-1a7.83,7.83,0,0,0,.71-2.11,3.66,3.66,0,0,1,.87-2.06.69.69,0,0,1,.34-.15Zm0-.5a1.13,1.13,0,0,0-.63.24c-1.07.77-.95,3-1.72,4.33-1.53,2.67-3.65,5.87-4.11,9.65-1.15,9.48-.67,16.25-1.15,27.58l-8.75-.61-2.2,15.78h.35c2.78,0,15.78-.39,19.85-2.43,10-5-.49-27.68-.49-36,0-1.61-.33-3,1.46-3,1,0,8.27-1.29,9.32-1.62,2.07-.66.8-1.69.8-1.69,2-.09,3.63-.77,4-1.49s-1-1.14-1-1.14,2.38-.15,1.74-1.38c-.26-.5-1.23-.65-2.28-.65a20.82,20.82,0,0,0-3.21.31,15.47,15.47,0,0,0-4.64-.71,12.11,12.11,0,0,0-3,.34A10.44,10.44,0,0,0,140.2,76c-.5,0-.8,0-.8,0,1.45-2.89,1.1-7-.32-7Z"></path><path d="M147.82 81c-.32-.16-1.28-.48-3.59-.17l.06.49c2.59-.35 3.35.14 3.35.14l.1.08.12 0c2.9-.92 3.76-.14 3.77-.13l.18-.17-.18.17.18-.17L152 81C151.88 80.9 150.93 80 147.82 81zM150.9 78.38a19.77 19.77 0 00-5.11.41l.12.48a19.73 19.73 0 015-.4h0a14.29 14.29 0 013.84-.07l.07-.49A15.1 15.1 0 00150.9 78.38zM144.68 77.16l.12.47a20.89 20.89 0 016.22-.56l0-.48A20.54 20.54 0 00144.68 77.16z"></path><path fill="#005fd7" d="M73.3,121.78s4,11.44,13.18,12.08c0,0-1.63-22.13-1.85-26.67C84.63,107.19,78.9,108.33,73.3,121.78Z"></path><path fill="#0e0e27" d="M84.78,107a.29.29,0,0,0-.2,0c-.24,0-5.92,1.32-11.5,14.74a.2.2,0,0,0,0,.17c0,.12,4.2,11.6,13.39,12.24h0a.25.25,0,0,0,.18-.08.23.23,0,0,0,.07-.19c0-.22-1.63-22.17-1.85-26.66A.24.24,0,0,0,84.78,107ZM73.57,121.78c4.76-11.4,9.64-13.82,10.83-14.26.26,4.79,1.63,23.53,1.81,26.07C78,132.8,74,122.82,73.57,121.78Z"></path><path fill="#005fd7" d="M101.54,103.12c-8.29,0-17.64,4.07-17.64,4.07s-6.48,15.37-4.07,21.55c1.39,3.55,2.72,11.13,3.61,16.94h38.78c-1.37-2.88-2.53-5.51-2.53-6.87,0-3.32,1.24-6.88,1.87-10.88l7.6.74c1.58-8.55.15-19.32.15-19.32S109.82,103.12,101.54,103.12Z"></path><path d="M121.56,127.93s-6.89,6.09-5.81,13.38a26,26,0,0,0,1,4.37h5.44c-1.37-2.88-2.53-5.51-2.53-6.87C119.69,135.52,120.92,131.92,121.56,127.93Z" style="mix-blend-mode:multiply" fill="#5b7896" opacity=".5"></path><path d="M116.79,103.47c-6.28-2.77-8-13.28-8-13.28L106,91.84s-.57,11.88,1.63,11.88c5.55,0,4.83,13.81,7.8,13.81s2.91-3.92,2.91-3.92C121.66,113.61,123.08,106.24,116.79,103.47Z"></path><path d="M116.89,103.25c-6.09-2.69-7.81-13-7.82-13.09L109,89.8l-3.24,1.89v.14c0,.41-.47,10.07,1.19,11.81a.93.93,0,0,0,.68.32c3,0,4.08,4.41,5,8.31.75,3.07,1.34,5.5,2.78,5.5a2.69,2.69,0,0,0,2-.8,5,5,0,0,0,1.15-3.13c1.29-.12,2.34-1.27,2.7-3C121.83,108.27,120.68,104.92,116.89,103.25Zm3.92,7.5c-.33,1.59-1.3,2.61-2.46,2.61h-.25v.25a4.88,4.88,0,0,1-1,3,2.22,2.22,0,0,1-1.65.65c-1.06,0-1.67-2.49-2.31-5.13-.93-3.86-2.1-8.68-5.49-8.68a.47.47,0,0,1-.33-.16c-1.23-1.3-1.19-8.49-1.06-11.33l2.4-1.4c.35,1.88,2.29,10.58,8,13.11C120.24,105.26,121.32,108.36,120.81,110.75Z"></path><path fill="#fff" d="M100.52,108.72c-2.19,0-3.74-.54-4.63-1.61a3.94,3.94,0,0,1-.77-3c0-.1,1.14-3.41,1.14-10.32v-.3l-.3,0a1.9,1.9,0,0,1-.48,0,3.74,3.74,0,0,1-3.55-2.43c-.86-2-.35-3.48,1.43-4.28l.25-.11-.14-.24c0-.07-3.62-6.69-1.24-10.23,1.17-1.75,4.6-3,8.34-3s6.53,1.18,7.59,3.15a9.12,9.12,0,0,1,.71,2.16,6.15,6.15,0,0,0,1.35,3.08c1.66,1.67,2.27,5.61,1.35,8.79a7.1,7.1,0,0,1-5.26,5.28l-.25.06.07.25a36.18,36.18,0,0,1,.83,7.35C106.69,104,104.28,108.72,100.52,108.72Z"></path><path d="M100.57,73.61c3.6,0,6.35,1.13,7.37,3a8.77,8.77,0,0,1,.68,2.1,6.3,6.3,0,0,0,1.43,3.2c1.6,1.61,2.18,5.44,1.28,8.54a6.83,6.83,0,0,1-5.08,5.11l-.5.11.13.5a35.27,35.27,0,0,1,.83,7.24c-.36.72-2.68,5-6.19,5-2.1,0-3.6-.51-4.43-1.51a3.61,3.61,0,0,1-.72-2.74c.13-.42,1.14-3.77,1.14-10.39v-.59l-.58.1a2.79,2.79,0,0,1-.44,0,3.49,3.49,0,0,1-3.32-2.28c-.56-1.28-.79-3,1.3-4l.49-.23-.26-.47c0-.06-3.55-6.56-1.26-10,1.14-1.69,4.48-2.86,8.14-2.86Zm0-.5c-3.59,0-7.26,1.15-8.55,3.08-2.49,3.71,1.24,10.49,1.24,10.49-2,.89-2.43,2.62-1.56,4.61a4,4,0,0,0,3.78,2.58,3,3,0,0,0,.53,0c0,7-1.13,10.27-1.13,10.27s-.94,4.87,5.64,4.87c4.19,0,6.69-5.43,6.69-5.43a35.75,35.75,0,0,0-.84-7.48c7-1.6,6.93-11.57,4-14.48-1.32-1.33-1.14-3.54-2-5.19-1.23-2.29-4.49-3.28-7.81-3.28Z"></path><path d="M106.38 84.2c-.44.06-.82.44-1.13 1.13l.44.2c.23-.52.49-.81.75-.84s.52.25.53.25l.37-.31A1.16 1.16 0 00106.38 84.2zM104.6 89.75s3.5 1.71 4.27-.85C109.26 87.61 108.4 86.14 104.6 89.75z"></path><path d="M108.19 87.24c-.86 0-2.12.78-3.76 2.33l-.25.25.31.15a6.32 6.32 0 002.38.58A2.13 2.13 0 00109.11 89a1.59 1.59 0 00-.12-1.36A1 1 0 00108.19 87.24zm.45 1.59a1.65 1.65 0 01-1.77 1.24 5.35 5.35 0 01-1.83-.4c1.84-1.68 2.76-2 3.15-2a.44.44 0 01.4.18A1.07 1.07 0 01108.64 88.83zM92.33 88.84a2.11 2.11 0 00.1 1.9l.44-.21a1.64 1.64 0 01-.11-1.46 1.55 1.55 0 011-.69l-.09-.48A2.06 2.06 0 0092.33 88.84z"></path><path d="M92.51 90l.21.45a1.54 1.54 0 011.86.14l.18-.16-.18.16.18-.16.19-.16A2 2 0 0092.51 90zM93.42 103.83a1.22 1.22 0 00-.75.26C93.29 103.92 93.6 103.83 93.42 103.83z"></path><path d="M94.73,69.24c-8.84,2.68-8.46,8.91-8.46,8.91-5.73,2.59-3.33,9.6-2.86,14.39.56,5.7-.69,7.93-7.6,10.23s-3.6,6-3.6,6c-3.45,4.75,3,8.78,3,8.78s3.61-6.54,7.33-9.44c2.54-2,8.08-3.44,10.15-4a1.22,1.22,0,0,1,.75-.26c.18,0-.13.09-.75.26-2.69,2-.64,15.4,3.94,15.4,3.58,0,3.92-3.72,3.92-3.72s5.51-2.2.58-7.73c-6.14-6.91-3-15.14-5.1-14.21-1,.43-2.2-.2-3.59-1.42-2.15-1.89-1.35-5.77,1.28-5.77,5.64,0,.28-9.9.28-9.9,9-4.54,13.46,2.63,17.46,2.05C111.44,70,102.73,66.82,94.73,69.24Z"></path><path d="M99.91,68.22a18,18,0,0,0-5.25.79C86.56,71.47,86.05,77,86,78c-4.74,2.25-3.9,7.59-3.23,11.89.15,1,.29,1.85.37,2.68.53,5.45-.47,7.66-7.43,10-2.59.86-4.09,2-4.47,3.45a3.31,3.31,0,0,0,.64,2.77,4.88,4.88,0,0,0-.88,3.78c.59,3,3.89,5.12,4,5.21l.22.14.12-.23c0-.06,3.63-6.53,7.27-9.37,2.23-1.74,6.89-3.09,9.29-3.75-1.17,2-.85,6.92.37,10.46,1,3,2.57,4.73,4.28,4.73,3.34,0,4-3.08,4.14-3.79a4.61,4.61,0,0,0,2.56-2.88c.36-1.53-.32-3.28-2-5.19-3.77-4.24-4-9-4.14-11.78-.07-1.6-.12-2.58-.86-2.58a.83.83,0,0,0-.38.1c-.78.35-1.9-.12-3.33-1.38a3.52,3.52,0,0,1-.94-3.82,2.17,2.17,0,0,1,2.06-1.53,2.6,2.6,0,0,0,2.41-1.15c1.41-2.38-1.19-7.71-1.79-8.88a12.23,12.23,0,0,1,5.46-1.38,15,15,0,0,1,7,2.14c1.74.89,3.22,1.64,4.68,1.42l.21,0v-.21C111.68,71.49,105.77,68.22,99.91,68.22Zm7.1,9A15.38,15.38,0,0,0,99.78,75a13.05,13.05,0,0,0-5.91,1.54l-.22.12.12.22c0,.06,3.34,6.23,1.92,8.62a2.12,2.12,0,0,1-2,.91,2.67,2.67,0,0,0-2.52,1.84,4,4,0,0,0,1.08,4.36c1.61,1.43,2.88,1.9,3.85,1.46a.48.48,0,0,1,.18,0c.27,0,.33,1.08.38,2.12.14,2.88.37,7.7,4.26,12.08,1.59,1.78,2.23,3.38,1.9,4.75a4.19,4.19,0,0,1-2.4,2.59l-.13.06,0,.15c0,.14-.35,3.49-3.67,3.49-1.46,0-2.86-1.6-3.82-4.4-1.43-4.16-1.45-9.33,0-10.52.92-.25,1-.27,1-.51l-.08-.22h-.21a1.48,1.48,0,0,0-.89.29l-.22.06c-2.24.61-7.48,2-9.94,4-3.36,2.62-6.58,8.08-7.26,9.28-.74-.51-3.13-2.35-3.6-4.74a4.46,4.46,0,0,1,.9-3.55l.11-.16-.13-.15a3,3,0,0,1-.65-2.47c.34-1.26,1.73-2.31,4.15-3.12,7.22-2.4,8.31-4.84,7.76-10.49-.08-.85-.22-1.75-.37-2.71-.69-4.39-1.46-9.37,3.09-11.43l.15-.07v-.17c0-.06-.26-6.06,8.29-8.65a17.37,17.37,0,0,1,5.11-.78c5.15,0,11.17,2.59,11.28,9.87C109.93,78.67,108.59,78,107,77.18Z"></path><path d="M97.47 82.17l.44.21a3.91 3.91 0 013.82-2.54v-.48A4.4 4.4 0 0097.47 82.17zM100.48 83.28a.8.8 0 10.5 1.51.8.8 0 10-.5-1.51z"></path><path d="M100.4 83a1 1 0 00.33 2 1.13 1.13 0 00.32 0 1 1 0 00.67-1.32A1.07 1.07 0 00100.4 83zm.5 1.52a.56.56 0 01-.7-.35.55.55 0 01.35-.7.57.57 0 01.18 0 .54.54 0 01.52.38A.55.55 0 01100.9 84.56zM105.46 78.44l.26.41c1.5-.94 2-.6 3.2.14l.18.11.26-.41-.18-.11C108 77.8 107.22 77.33 105.46 78.44zM107.54 81a.8.8 0 101 .51A.79.79 0 00107.54 81z"></path><path d="M107.47,80.72a1,1,0,0,0,.32,2,1.2,1.2,0,0,0,.33,0,1,1,0,0,0,.67-1.32A1.07,1.07,0,0,0,107.47,80.72Zm.5,1.52a.56.56,0,0,1-.7-.36.55.55,0,0,1,.35-.7l.17,0a.54.54,0,0,1,.53.38A.56.56,0,0,1,108,82.24Z"></path><path fill="#000100" d="M81.33,135.21c-1.93-7.48-.31-17.38-.29-17.48l.49.08c0,.1-1.62,9.89.29,17.28Z"></path><rect width="23.83" height="19.22" x="142.91" y="53.89" fill="#00a9ff" rx="4.11"></rect><path d="M150.16 59.56v2.25c0 .75-.34 1.13-1 1.13H149v1.12h.1c.69 0 1 .38 1 1.13v2.25c0 1.34.75 2.09 2.26 2.26V68.57c-.76 0-1.14-.43-1.14-1.13V65.19a2.25 2.25 0 00-.75-1.69 2.26 2.26 0 00.75-1.69V59.56c0-.7.38-1.07 1.14-1.14V57.29C150.91 57.47 150.16 58.22 150.16 59.56zM159.49 61.81V59.56c0-1.34-.75-2.09-2.25-2.27v1.13c.76.06 1.13.44 1.13 1.14v2.25a2.24 2.24 0 00.76 1.69 2.22 2.22 0 00-.76 1.69v2.25c0 .69-.37 1.07-1.13 1.13V69.7c1.5-.17 2.25-.93 2.25-2.26V65.19c0-.75.35-1.13 1-1.13h.1V62.94h-.1C159.84 62.94 159.49 62.56 159.49 61.81z"></path><path fill="#ffcf0b" d="M37.37,70.58H53a4.12,4.12,0,0,1,4.12,4.12v11A4.11,4.11,0,0,1,53,89.8H37.37a4.11,4.11,0,0,1-4.11-4.11v-11A4.11,4.11,0,0,1,37.37,70.58Z"></path><polygon points="37.79 80.97 42.74 83.33 42.74 81.96 39.04 80.26 42.74 78.57 42.74 77.2 37.79 79.55 37.79 80.97"></polygon><polygon points="43.1 86.18 44.31 86.18 47.85 73.79 46.65 73.79 43.1 86.18"></polygon><polygon points="48.11 78.57 51.81 80.26 48.11 81.96 48.11 83.33 53.05 80.97 53.05 79.55 48.11 77.2 48.11 78.57"></polygon></g></svg>