<?xml version="1.0" encoding="utf-8"?>
<svg viewBox="0 0 1456 1289" xmlns="http://www.w3.org/2000/svg">
  <path fill="#fff" d="M 548.956 766.183 C 548.956 772.084 546.582 777.425 542.718 781.271 C 538.878 785.148 533.553 787.528 527.67 787.528 L 324.346 787.528 C 312.609 787.528 303.088 777.979 303.088 766.183 C 303.088 760.282 305.463 754.964 309.326 751.112 C 313.167 747.236 318.492 744.855 324.352 744.855 L 527.681 744.855 C 539.437 744.86 548.956 754.41 548.956 766.183 Z" style=""/>
  <path d="M 527.67 788.643 L 324.346 788.643 C 312.009 788.643 301.977 778.57 301.977 766.183 C 301.977 760.176 304.31 754.544 308.541 750.323 C 312.743 746.081 318.358 743.745 324.346 743.745 L 527.67 743.745 C 540.018 743.745 550.063 753.809 550.063 766.183 C 550.063 772.201 547.729 777.845 543.498 782.065 C 539.297 786.303 533.675 788.643 527.67 788.643 Z M 324.346 745.969 C 318.952 745.969 313.895 748.071 310.105 751.9 C 306.295 755.699 304.193 760.772 304.193 766.183 C 304.193 777.337 313.231 786.414 324.346 786.414 L 527.67 786.414 C 533.076 786.414 538.144 784.313 541.927 780.489 C 545.739 776.684 547.84 771.605 547.84 766.183 C 547.84 755.04 538.79 745.969 527.664 745.969 L 324.346 745.969 Z" style=""/>
  <polygon points="532.913 1100.103 505.521 1100.103 481.21 787.616 483.42 787.441 507.57 1097.88 532.913 1097.88" style=""/>
  <polygon points="580.003 1100.103 552.611 1100.103 528.299 787.616 530.51 787.441 554.665 1097.88 580.003 1097.88" style=""/>
  <polygon points="368.327 1100.103 340.937 1100.103 340.937 1097.88 366.273 1097.88 390.429 787.441 392.641 787.616" style=""/>
  <polygon points="321.233 1100.103 293.848 1100.103 293.848 1097.88 319.184 1097.88 343.334 787.441 345.546 787.616" style=""/>
  <rect width="205.698" height="2.224" x="334.075" y="919.666" style=""/>
  <path d="M 423.615 327.244 C 425.816 331.803 426.38 337.762 423.016 341.551 C 419.298 345.718 412.385 345.59 408.626 349.715 C 405.303 353.341 405.617 359.044 407.194 363.713 C 408.771 368.359 411.389 372.708 412.175 377.565 C 413.211 384.02 410.615 390.937 405.594 395.099 C 400.572 399.266 393.304 400.515 387.2 398.262 C 381.45 396.162 377.067 391.392 371.61 388.643 C 366.128 385.894 358.01 386.163 355.497 391.765 C 354.105 394.889 354.996 398.513 354.851 401.928 C 354.477 410.735 346.337 418.236 337.556 418.733 C 328.752 419.234 320.22 413.339 316.67 405.261 C 313.137 397.182 314.284 387.435 318.806 379.853 C 321.902 374.623 326.657 368.732 323.956 363.298 C 322.129 359.593 317.543 358.239 313.429 357.923 C 309.321 357.631 304.98 357.945 301.285 356.073 C 295.907 353.346 293.604 346.453 294.662 340.494 C 295.721 334.539 299.479 329.415 303.67 325.061 C 307.843 320.707 312.596 316.854 316.332 312.127 C 326.4 299.425 328.129 282.224 329.827 266.078 C 331.534 249.939 334.146 232.657 345.336 220.929 C 358.045 216.517 377.249 204.376 390.662 204.726 C 404.093 205.1 418.216 211.328 424.215 223.387 C 428.888 232.779 427.934 244.026 425.007 254.106 C 422.08 264.164 417.326 273.619 414.439 283.7 C 411.577 293.781 410.761 305.07 415.563 314.374 C 417.884 318.868 421.412 322.662 423.615 327.244 Z M 745.431 1076.755 L 685.825 1046.158 L 669.612 1032.435 L 605.677 1043.572 L 606.858 1094.027 C 606.38 1096.671 608.418 1099.046 611.042 1098.988 L 752.56 1095.795 L 752.356 1086.602 C 752.251 1082.196 749.54 1078.331 745.431 1076.755 Z" style=""/>
  <path fill="#ffcfc5" d="M 669.607 1032.435 L 668.466 974.305 L 604.676 1001.02 L 605.671 1043.578 C 631.951 1053.991 655.391 1049.672 669.607 1032.435 Z" style=""/>
  <path fill="#fff" d="M 689.817 1065.829 L 687.838 1064.819 C 692.365 1055.865 700.972 1054.785 701.339 1054.744 L 701.594 1056.956 C 701.269 1056.996 693.785 1057.978 689.817 1065.829 Z M 702.816 1072.723 L 700.838 1071.712 C 705.366 1062.758 713.972 1061.678 714.339 1061.638 L 714.59 1063.85 C 714.275 1063.891 706.786 1064.865 702.816 1072.723 Z" style=""/>
  <path d="M 929.29 873.448 L 862.386 876.128 L 841.542 872.152 L 791.281 913.327 L 816.996 956.707 C 817.875 959.245 820.813 960.314 823.072 958.966 L 941.219 888.66 C 943.204 887.48 943.86 884.907 942.681 882.916 L 940.137 878.615 C 937.896 874.826 933.643 872.795 929.29 873.448 Z" style=""/>
  <path fill="#ffcfc5" d="M 841.542 872.152 L 812.108 822.06 L 769.598 876.734 L 791.287 913.327 C 819.278 909.469 837.584 894.164 841.542 872.152 Z" style=""/>
  <path fill="#fff" d="M 873.268 891.397 C 872.832 881.369 879.803 876.192 880.101 875.976 L 881.403 877.78 C 881.147 877.966 875.1 882.501 875.485 891.304 L 873.268 891.397 Z M 887.968 891 C 887.531 880.972 894.503 875.795 894.799 875.579 L 896.103 877.383 C 895.847 877.569 889.801 882.111 890.185 890.908 L 887.968 891 Z" style=""/>
  <path fill="#242b2b" d="M 628.843 698.994 L 687.383 1001.949 C 687.383 1015.292 590.145 1033.807 590.145 1020.463 L 529.683 746.425 L 338.644 745.357 L 513.261 674.805 L 615.54 665.629 L 628.843 698.994 Z" style=""/>
  <path fill="#242b2b" d="M 702.287 999.655 C 703.12 1004.179 702.077 1008.691 699.843 1012.116 C 697.801 1015.245 694.71 1017.528 691.121 1018.176 C 659.574 1023.866 628.04 1029.108 596.494 1033.913 C 589.97 1034.904 583.448 1030.72 581.346 1023.551 C 579.886 1018.579 580.758 1013.582 583.151 1009.922 C 585.129 1006.881 588.208 1004.71 591.815 1004.161 C 623.588 999.323 655.349 994.045 687.122 988.32 C 693.995 987.076 700.868 991.904 702.287 999.655 Z M 750.948 888.491 L 646.935 790.721 L 628.499 698.112 C 628.499 698.112 412.216 745.368 338.639 745.368 C 338.184 745.368 337.736 745.368 337.289 745.363 C 289.559 744.767 257.745 695.632 276.192 651.469 L 293.004 611.212 L 354.501 614.212 L 364.138 629.476 L 366.838 627.707 C 429.662 624.374 571.535 586.516 602.988 597.821 C 622.982 605.013 824.079 829.771 824.079 829.771 C 837.112 844.34 763.989 903.088 750.948 888.491 Z" style=""/>
  <path fill="#ffcfc5" d="M 753.345 333.186 C 752.989 344.65 698.755 377.5 698.755 377.5 L 698.731 377.523 C 697.202 379.614 598.647 513.256 567.34 518.264 C 537.405 523.098 466.59 454.939 466.59 454.939 L 517.543 406.568 L 557.202 439.559 L 659.318 342.753 L 659.366 342.706 C 659.609 341.346 668.263 298.054 681.513 294.248 C 694.652 290.488 685.418 319.533 685.039 320.783 C 686.081 319.382 714.286 283.012 723.452 288.06 C 730.575 292 721.631 299.548 716.73 305.91 C 723.586 299.121 739.566 291.463 742.452 294.446 C 749.976 302.215 731.913 314.993 726.164 319.685 C 731.867 315.523 749.307 307.952 751.215 311.204 C 754.835 317.368 739.455 329.369 733.065 335.199 C 738.832 330.267 753.432 329.824 753.345 333.186 Z" style=""/>
  <path fill="#ff4148" d="M 509.583 462.236 C 500.302 478.45 491.09 491.764 488.354 490.288 L 472.545 480.662 L 391.745 431.486 L 419.432 363.486 C 419.432 363.486 438.13 357.718 465.753 367.91 C 485.893 375.335 531.574 409.784 531.574 409.784 C 535.38 411.839 522.397 439.821 509.583 462.236 Z" style=""/>
  <path d="M 509.583 462.236 C 500.302 478.45 491.09 491.764 488.354 490.288 L 472.545 480.662 L 458.351 419.462 L 509.583 462.236 Z" style=""/>
  <path fill="#ff4148" d="M 460.295 372.877 C 443.419 349.629 336.525 371.178 303.53 395.834 C 263.488 425.754 267.038 648.084 267.038 648.084 C 346.954 648.095 399.996 653.757 467.343 614.557 C 467.348 614.557 496.211 422.352 460.295 372.877 Z" style=""/>
  <path d="M 356.736 463.554 L 346.168 549.339 L 431.111 561.89 L 315.856 582.027 C 315.856 582.027 308.233 567.405 307.371 566.285 C 306.51 565.158 326.69 492.891 326.69 492.891 L 356.736 463.554 Z" style=""/>
  <path fill="#fff" d="M 422.243 738.025 L 421.917 735.824 C 511.748 722.4 627.103 697.266 628.255 697.009 L 628.726 699.181 C 627.568 699.437 512.143 724.589 422.243 738.025 Z" style=""/>
  <rect width="2.217" height="93.492" x="547.245" y="891.667" fill="#fff" transform="matrix(0.980886, -0.194581, 0.193444, 0.981112, -81.463043, -69.150803)" style=""/>
  <path fill="#242b2b" d="M 839.9 826.415 C 842.811 829.963 844.09 834.417 843.788 838.497 C 843.514 842.228 841.914 845.723 839.092 848.034 C 814.261 868.359 789.215 888.286 763.953 907.834 C 758.728 911.874 751 911.388 745.693 906.147 C 742.015 902.511 740.357 897.713 740.676 893.352 C 740.938 889.728 742.579 886.336 745.466 884.096 C 770.908 864.408 796.135 844.34 821.151 823.875 C 826.569 819.451 834.913 820.327 839.9 826.415 Z" style=""/>
  <path fill="#ffcfc5" d="M 431.106 561.896 L 433.724 605.707 C 433.724 605.707 280.992 634.011 259.025 606.665 C 236.848 579.074 271.752 475.632 271.752 475.632 L 338.812 488.834 L 321.849 562.246 L 431.106 561.896 Z" style=""/>
  <path fill="#ff4148" d="M 321.425 386.255 C 273.289 396.283 253.595 505.645 253.595 505.645 C 280.632 524.504 319.283 527.994 346.163 518.485 C 346.163 518.485 357.498 468.369 360.931 431.796 C 363.923 399.948 334.355 383.565 321.425 386.255 Z" style=""/>
  <polygon points="808.873 813.287 768.267 865.814 821.158 823.882" style=""/>
  <polygon points="681.094 970.028 620.353 999.69 684.783 988.74" style=""/>
  <path fill="#f23243" d="M 434.725 406.924 C 424.914 414.518 413.165 397.766 413.165 397.766 L 404.407 365.675 L 406.95 355.623 L 413.357 354.59 L 430.424 367.286 C 430.424 367.292 444.536 399.337 434.725 406.924 Z M 413.165 397.772 C 413.165 397.772 402.905 421.552 391.995 419.316 C 381.084 417.074 349.829 375.789 349.829 375.789 L 361.235 360.981 L 390.237 358.338 L 399.501 378.411 L 413.165 397.772 Z" style=""/>
  <path fill="#ffcfc5" d="M 361.205 360.981 C 375.654 375.48 398.349 389.279 413.136 397.778 C 415.242 384.3 418.559 375.165 414.911 360.316 L 361.205 360.981 Z" style=""/>
  <polygon fill="#ffcfc5" points="414.91 360.316 361.205 360.981 359.912 298.077 364.708 303.849 366.315 305.764 367.036 306.633 367.786 306.867 406.525 319.084 406.607 319.585 411.657 348.233 411.71 348.543" style=""/>
  <path fill="#fc9b88" d="M 413.253 354.229 C 413.253 354.229 378.209 335.264 368.549 314.222 C 367.927 312.862 367.438 311.619 367.076 310.468 C 366.955 310.107 366.849 309.762 366.75 309.424 L 368.549 311.578 L 369.072 312.208 L 407.368 324.291 L 413.253 354.229 Z" style=""/>
  <path fill="#ffcfc5" d="M 424.512 337.423 C 405.361 344.58 378.017 332.854 363.271 307.761 C 358.859 308.798 351.784 308.047 347.017 304.673 C 339.447 299.297 336.508 290.325 340.546 284.693 C 342.81 281.453 346.546 278.797 351.027 279.177 C 345.696 252.571 356.928 228.319 374.915 221.105 C 388.352 215.717 410.046 216.055 423.266 228.628 C 431.403 236.363 438.519 246.822 443.419 259.202 C 456.396 291.633 443.437 330.314 424.512 337.423 Z" style=""/>
  <polygon fill="#fc9b88" points="421.301 267.637 436.098 291.311 423.855 296.944" style=""/>
  <path d="M 363.294 287.139 C 361.775 282.434 361.048 276.859 363.998 272.902 C 366.233 269.908 370.033 268.594 373.658 267.707 C 380.1 266.125 384.924 263.137 391.447 262.349 C 399.152 261.415 406.874 259.915 413.95 256.611 C 423.14 252.321 431.217 244.511 433.45 234.594 C 435.121 227.169 433.258 219.015 428.504 213.079 C 423.75 207.143 411.919 199.992 404.325 200.104 C 399.367 200.173 389.358 203.191 384.644 204.721 C 374.048 208.159 365.592 211.416 354.996 214.848 C 349.887 216.506 345.062 221.011 341.762 225.255 C 334.64 234.419 348.042 248.264 342.938 258.694 C 340.867 262.927 336.84 266.784 337.561 271.442 C 337.992 274.222 340.151 276.492 342.641 277.781 C 345.819 279.428 349.264 279.06 352.435 280.245 C 354.176 280.892 362.769 285.51 363.294 287.139 Z" style=""/>
  <path fill="#fff" d="M 539.36 628.43 L 539.384 628.454 L 411.425 642.452 C 405.052 643.158 399.32 638.534 398.617 632.12 C 398.285 629.079 399.158 626.206 400.816 623.936 C 402.521 621.643 405.012 619.979 407.997 619.395 L 476.949 606.315 L 547.479 592.943 L 539.36 628.43 Z" style=""/>
  <path fill="#242b2b" d="M 410.121 643.63 C 407.247 643.63 404.472 642.654 402.195 640.818 C 399.548 638.68 397.884 635.634 397.505 632.236 C 397.156 629.05 398.011 625.868 399.915 623.271 C 401.841 620.673 404.634 618.911 407.782 618.298 L 548.939 591.535 L 540.576 628.075 L 541.799 629.3 L 411.542 643.549 C 411.07 643.601 410.592 643.63 410.121 643.63 Z M 546.017 594.349 L 408.201 620.48 C 405.606 620.989 403.296 622.448 401.701 624.596 C 400.136 626.739 399.426 629.365 399.717 631.992 C 400.025 634.799 401.398 637.315 403.586 639.083 C 405.774 640.846 408.509 641.646 411.297 641.337 L 538.447 627.433 L 546.017 594.349 Z" style=""/>
  <polygon fill="#161c1c" points="552.739 592.329 544.621 627.818 480.801 634.805 482.204 605.701" style=""/>
  <path d="M 479.632 636.048 L 481.139 604.768 L 554.2 590.923 L 545.524 628.833 L 479.632 636.048 Z M 483.269 606.63 L 481.971 633.556 L 543.713 626.796 L 551.279 593.742 L 483.269 606.63 Z" style=""/>
  <path fill="#fff" d="M 651.904 616.109 L 488.954 633.953 L 495.699 494.66 C 496.071 486.966 501.966 480.691 509.595 479.856 L 657.567 463.654 C 667.105 462.608 675.315 470.366 674.849 479.98 L 669.147 597.74 C 668.687 607.283 661.373 615.07 651.904 616.109 Z" style=""/>
  <path fill="#242b2b" d="M 487.785 635.196 L 494.593 494.601 C 494.995 486.313 501.257 479.647 509.479 478.742 L 657.45 462.538 C 662.314 461.996 667.157 463.631 670.724 466.998 C 674.291 470.366 676.2 475.111 675.961 480.02 L 670.259 597.781 C 669.77 607.932 662.1 616.103 652.027 617.206 L 651.904 616.097 L 652.027 617.206 L 487.785 635.196 Z M 659.272 464.669 C 658.748 464.669 658.218 464.699 657.688 464.757 L 509.717 480.96 C 502.583 481.742 497.154 487.527 496.81 494.712 L 490.13 632.703 L 651.789 615.006 C 660.773 614.025 667.61 606.741 668.047 597.688 L 673.75 479.927 C 673.954 475.666 672.301 471.552 669.205 468.632 C 666.493 466.071 662.944 464.669 659.272 464.669 Z" style=""/>
  <path fill="#161c1c" d="M 511.51 479.624 C 507.698 482.483 505.19 486.937 504.934 491.969 L 498.114 632.93 L 488.949 633.941 L 495.699 494.665 C 496.065 486.966 501.966 480.686 509.589 479.845 L 511.51 479.624 Z" style=""/>
  <path d="M 487.778 635.189 L 494.593 494.612 C 494.989 486.324 501.245 479.647 509.468 478.742 L 515.461 478.053 L 512.173 480.516 C 508.507 483.26 506.273 487.457 506.04 492.027 L 499.178 633.935 L 487.778 635.189 Z M 508.17 481.205 C 501.809 482.6 497.13 488.058 496.81 494.723 L 490.118 632.698 L 497.048 631.939 L 503.817 491.922 C 504.032 487.912 505.574 484.153 508.17 481.205 Z" style=""/>
  <path fill="#e5e8ff" d="M 606.182 545.19 C 607.311 555.544 599.863 564.849 589.557 565.976 C 583.942 566.588 578.634 564.644 574.806 561.078 C 576.487 561.301 578.216 561.312 579.979 561.119 C 592.374 559.759 601.348 548.575 599.991 536.126 C 599.863 534.923 599.636 533.726 599.333 532.6 C 603.046 535.623 605.624 540.047 606.182 545.19 Z" style=""/>
  <path fill="#ffcfc5" d="M 494.744 568.147 C 495.815 573.452 488.693 575.606 483.373 575.84 C 489.747 576.428 500.489 581.251 500.226 584.011 C 499.523 591.36 484.503 587.257 480.091 586.476 C 484.357 587.351 496.362 593.239 495.524 595.662 C 493.971 600.151 481.284 597.524 475.582 596.759 C 480.551 597.565 486.79 604.511 485.328 606.192 C 480.034 612.315 426.748 605.515 426.066 604.079 C 418.501 603.56 421.324 562.467 428.888 562.987 C 428.888 562.987 459.567 547.274 467.307 552.446 C 475.046 557.618 455.395 565.642 455.395 565.642 C 455.395 565.642 493.336 561.166 494.744 568.147 Z" style=""/>
  <g transform="matrix(0.581923, 0, 0, 0.583696, 339.176025, 212.796036)" style="">
    <circle cx="909.9" cy="518.7" r="126.62" fill="#444ba1"/>
    <path d="M909.9,647.23c-70.87,0-128.53-57.66-128.53-128.53s57.66-128.53,128.53-128.53s128.53,57.66,128.53,128.53 S980.77,647.23,909.9,647.23z M909.9,393.99c-68.77,0-124.72,55.95-124.72,124.72s55.95,124.71,124.72,124.71 c68.77,0,124.72-55.95,124.72-124.71S978.67,393.99,909.9,393.99z"/>
  </g>
  <g transform="matrix(0.581923, 0, 0, 0.583696, 339.176025, 212.796036)" style="">
    <path fill="#fff" d="M950.57,527.9l-38.18,32.88c-11.78,10.15-30.09,3.18-32.16-12.21l-7.31-54.49 c-2.07-15.39,13.76-26.95,27.8-20.29l45.5,21.61C958.98,501.49,961.29,518.68,950.57,527.9z"/>
  </g>
  <g transform="matrix(0.581923, 0, 0, 0.583696, -120.455811, 63.714439)" style="">
    <circle cx="2096.37" cy="477.48" r="123.25" fill="#fff"/>
    <path fill="#242b2b" d="M2096.37,602.64c-69.01,0-125.15-56.14-125.15-125.15s56.14-125.15,125.15-125.15 c69.01,0,125.15,56.14,125.15,125.15S2165.38,602.64,2096.37,602.64z M2096.37,356.14c-66.91,0-121.34,54.43-121.34,121.34 s54.43,121.34,121.34,121.34s121.34-54.43,121.34-121.34S2163.27,356.14,2096.37,356.14z"/>
  </g>
  <g transform="matrix(0.581923, 0, 0, 0.583696, -120.455811, 63.714439)" style="">
    <circle cx="2096.37" cy="434.43" r="29.21" fill="#ff4148"/>
    <path fill="#ff4148" d="M2146.54,546.18h-100.36c-13.01,0-21.83-13.33-16.72-25.34c11.05-26.02,36.83-44.25,66.92-44.25 c30.05,0,55.83,18.24,66.88,44.25C2168.37,532.85,2159.55,546.18,2146.54,546.18z"/>
  </g>
  <g transform="matrix(0.581923, 0, 0, 0.583696, 89.598495, -193.663025)" style="">
    <path fill="#04b5a4" d="M1800.82,2092.72c0,0-60.38-165.85-17.52-219.84c42.86-54,89.69-3.32,89.69-3.32s7.22-115.9,65.76-176.64 c58.54-60.74,130.12-32.12,146.2,15.67c16.07,47.79-51.53,89.32-76.85,102.18c-25.32,12.87-63.27,47.85-48.8,60.42 c14.47,12.57,58.05-10.13,53.76,46.43S1800.82,2092.72,1800.82,2092.72z"/>
  </g>
  <g transform="matrix(0.581923, 0, 0, 0.583696, 89.598495, -193.663025)" style="">
    <path d="M1783.91,2149.13l-3.71-0.9c31.78-130.94,193.66-395.18,195.29-397.84l3.25,2 C1977.12,1755.04,1815.55,2018.77,1783.91,2149.13z"/>
  </g>
  <g transform="matrix(0.581923, 0, 0, 0.583696, 89.598495, -193.663025)" style="">
    <path d="M1838.19,2009.28l-3.15-2.14c2.3-3.4,56.95-83.17,107.86-87.84l0.35,3.8C1894.11,1927.61,1838.74,2008.47,1838.19,2009.28 z"/>
  </g>
  <g transform="matrix(0.581923, 0, 0, 0.583696, 89.598495, -193.663025)" style="">
    <path d="M1824.8,2037.7l-3.57-1.34c0.17-0.45,16.47-46.02-25.18-109.93l3.2-2.09C1842.03,1989.99,1825.53,2035.78,1824.8,2037.7z"/>
  </g>
  <g transform="matrix(0.581923, 0, 0, 0.583696, 89.598495, -193.663025)" style="">
    <path fill="#04b5a4" d="M1766.49,2063.8c0,0,120.61-128.85,102.38-195.34c-18.24-66.49-81.19-38.24-81.19-38.24 s38.83-109.44,8.83-188.28c-30.01-78.84-107.08-80.61-140.62-42.95s12.36,102.38,30.6,124.15s39.42,68.84,21.18,74.72 s-49.42-32.09-67.66,21.61S1766.49,2063.8,1766.49,2063.8z"/>
    <path d="M1763.67,2122.95l-3.76-0.63c22.05-132.32-23.08-438.3-23.54-441.37l3.77-0.56 C1740.6,1683.48,1785.82,1990.05,1763.67,2122.95z"/>
    <path d="M1764.86,1972.4c-0.19-0.97-19.4-97.07-62.81-120.49l1.81-3.36c44.99,24.27,63.96,119.09,64.74,123.12L1764.86,1972.4z"/>
    <path fill="#fff" d="M1700.67,2115.34l17.15,88.98c0.9,4.75,5.07,8.18,9.9,8.18h103.6c4.83,0,9-3.44,9.9-8.18l17.15-88.98 c1.19-6.23-3.58-12-9.9-12h-137.9C1704.25,2103.34,1699.47,2109.11,1700.67,2115.34z"/>
    <path fill="#e5e8ff" d="M1700.67,2115.34l17.15,88.98c0.9,4.75,5.07,8.18,9.9,8.18h103.6c4.83,0,9-3.44,9.9-8.18l0.29-1.57 c-0.35,0.03-0.67,0.06-1.02,0.06h-103.6c-4.83,0-9-3.44-9.9-8.18l-17.15-88.99c-0.15-0.76-0.2-1.51-0.15-2.24 C1703.81,2103.9,1699.53,2109.4,1700.67,2115.34z"/>
    <path d="M1831.32 2214.42h-103.6c-5.75 0-10.7-4.09-11.77-9.73l-17.15-88.99c-.68-3.53.25-7.14 2.54-9.91 2.28-2.77 5.65-4.35 9.23-4.35h137.9c3.58 0 6.95 1.59 9.24 4.35 2.29 2.77 3.21 6.38 2.54 9.91l-17.15 88.99C1842.02 2210.32 1837.07 2214.42 1831.32 2214.42zM1702.54 2114.98l17.15 88.99c.73 3.85 4.11 6.64 8.03 6.64h103.6c3.92 0 7.3-2.79 8.03-6.63l17.15-88.99c.46-2.41-.17-4.87-1.73-6.76-1.56-1.88-3.85-2.97-6.3-2.97h-137.9c-2.44 0-4.74 1.08-6.3 2.97C1702.71 2110.11 1702.08 2112.57 1702.54 2114.98L1702.54 2114.98zM1769.83 2003.95l-3.81-.16c.09-2.04 2.87-50.64 67.98-94.24l2.12 3.17C1772.74 1955.16 1769.85 2003.47 1769.83 2003.95z"/>
  </g>
</svg>