<svg xmlns="http://www.w3.org/2000/svg" xmlns:xlink="http://www.w3.org/1999/xlink" viewBox="0 0 1502.193 1227.83" id="software-and-hardware-solutions-for-bitcoin-mining"><defs><linearGradient id="a" x1="450.782" x2="796.699" y1="676.655" y2="676.655" gradientUnits="userSpaceOnUse"><stop offset="0" stop-color="#7f7ff4"></stop><stop offset=".277" stop-color="#6d6ddc"></stop><stop offset=".859" stop-color="#403d9f"></stop><stop offset="1" stop-color="#34318f"></stop></linearGradient><linearGradient id="u" x1="677.425" x2="1023.341" y1="807.258" y2="807.258" xlink:href="#a"></linearGradient><linearGradient id="v" x1="450.634" x2="796.55" y1="415.383" y2="415.383" xlink:href="#a"></linearGradient><linearGradient id="w" x1="903.919" x2="1249.835" y1="676.59" y2="676.59" xlink:href="#a"></linearGradient><linearGradient id="x" x1="677.128" x2="1023.044" y1="284.715" y2="284.715" xlink:href="#a"></linearGradient><linearGradient id="y" x1="1257.629" x2="1257.629" y1="848.787" y2="713.114" gradientUnits="userSpaceOnUse"><stop offset="0" stop-color="#34318f"></stop><stop offset=".141" stop-color="#403d9f"></stop><stop offset=".723" stop-color="#6d6ddc"></stop><stop offset="1" stop-color="#7f7ff4"></stop></linearGradient><linearGradient id="i" x1="443.748" x2="582.803" y1="942.747" y2="942.747" gradientUnits="userSpaceOnUse"><stop offset="0" stop-color="#d1d6f0"></stop><stop offset=".26" stop-color="#e1e4f5"></stop><stop offset=".711" stop-color="#f7f8fc"></stop><stop offset="1" stop-color="#fff"></stop></linearGradient><linearGradient id="z" x1="670.26" x2="733.42" y1="907.499" y2="907.499" gradientTransform="matrix(-1 0 0 1 1228.288 0)" gradientUnits="userSpaceOnUse"><stop offset="0" stop-color="#bdc1e4"></stop><stop offset="1" stop-color="#d0d4f6"></stop></linearGradient><linearGradient id="A" x1="659.433" x2="744.249" y1="920.714" y2="920.714" gradientTransform="matrix(-1 0 0 1 1228.288 0)" gradientUnits="userSpaceOnUse"><stop offset="0" stop-color="#d0d4f6"></stop><stop offset=".771" stop-color="#bdc1e4"></stop></linearGradient><linearGradient id="B" x1="740.398" x2="782.8" y1="899.657" y2="973.101" gradientTransform="matrix(-1 0 0 1 1228.288 0)" gradientUnits="userSpaceOnUse"><stop offset=".492" stop-color="#f3b378"></stop><stop offset="1" stop-color="#d67747"></stop></linearGradient><linearGradient id="b" x1="1220.861" x2="1262.145" y1="939.545" y2="939.545" gradientUnits="userSpaceOnUse"><stop offset="0" stop-color="#c6cbe7"></stop><stop offset=".81" stop-color="#f4f5fa"></stop><stop offset="1" stop-color="#fff"></stop></linearGradient><linearGradient id="C" x1="1223.274" x2="1247.929" y1="932.698" y2="932.698" gradientUnits="userSpaceOnUse"><stop offset=".595" stop-color="#bdc1e4"></stop><stop offset=".623" stop-color="#c0c4e7"></stop><stop offset=".821" stop-color="#d0d4f6"></stop></linearGradient><linearGradient id="D" x1="1214.958" x2="1256.242" y1="940.839" y2="940.839" gradientUnits="userSpaceOnUse"><stop offset=".179" stop-color="#d0d4f6"></stop><stop offset=".511" stop-color="#c0c4e7"></stop><stop offset=".558" stop-color="#bdc1e4"></stop></linearGradient><linearGradient id="E" x1="160.742" x2="202.772" y1="693.364" y2="693.364" xlink:href="#b"></linearGradient><linearGradient id="F" x1="-125.022" x2="-47.697" y1="716.256" y2="716.256" gradientTransform="translate(152.864)" gradientUnits="userSpaceOnUse"><stop offset="0" stop-color="#d3d7ef"></stop><stop offset=".142" stop-color="#dde0f3"></stop><stop offset=".562" stop-color="#f6f7fc"></stop><stop offset=".817" stop-color="#fff"></stop></linearGradient><linearGradient id="c" x1="448.613" x2="798.869" y1="622.61" y2="622.61" gradientUnits="userSpaceOnUse"><stop offset=".421" stop-color="#bdc1e4"></stop><stop offset=".577" stop-color="#dce1f4"></stop></linearGradient><linearGradient id="H" x1="675.255" x2="1025.512" y1="753.214" y2="753.214" xlink:href="#c"></linearGradient><linearGradient id="J" x1="448.464" x2="798.721" y1="361.339" y2="361.339" xlink:href="#c"></linearGradient><linearGradient id="L" x1="901.749" x2="1252.006" y1="622.546" y2="622.546" xlink:href="#c"></linearGradient><linearGradient id="N" x1="674.958" x2="1025.215" y1="230.671" y2="230.671" xlink:href="#c"></linearGradient><linearGradient id="P" x1="1128.09" x2="1387.168" y1="753.226" y2="753.226" xlink:href="#c"></linearGradient><linearGradient id="S" x1="1278.035" x2="1278.035" y1="920.808" y2="716.586" gradientUnits="userSpaceOnUse"><stop offset=".237" stop-color="#a5aace"></stop><stop offset=".833" stop-color="#c6caed"></stop><stop offset="1" stop-color="#d0d4f6"></stop></linearGradient><linearGradient id="T" x1="1264.789" x2="1264.789" y1="878.52" y2="760.508" gradientTransform="matrix(-1 0 0 1 2544.69 0)" gradientUnits="userSpaceOnUse"><stop offset="0" stop-color="#bdc0e0"></stop><stop offset="1" stop-color="#a7add2"></stop></linearGradient><linearGradient id="d" x1="852.479" x2="1049.056" y1="541.052" y2="541.052" gradientUnits="userSpaceOnUse"><stop offset="0" stop-color="#d3d8f2"></stop><stop offset=".52" stop-color="#e8ebf8"></stop><stop offset="1" stop-color="#fff"></stop></linearGradient><linearGradient id="e" x1="675.083" x2="1025.39" y1="582.618" y2="582.618" gradientUnits="userSpaceOnUse"><stop offset=".423" stop-color="#d0d4f6"></stop><stop offset=".592" stop-color="#bdc1e4"></stop></linearGradient><linearGradient id="U" x1="1078.973" x2="1275.551" y1="410.384" y2="410.384" xlink:href="#d"></linearGradient><linearGradient id="V" x1="901.577" x2="1251.884" y1="451.95" y2="451.95" xlink:href="#e"></linearGradient><linearGradient id="W" x1="1305.616" x2="1502.193" y1="540.988" y2="540.988" xlink:href="#d"></linearGradient><linearGradient id="X" x1="1128.22" x2="1478.527" y1="582.553" y2="582.553" xlink:href="#e"></linearGradient><linearGradient id="Y" x1="399.342" x2="595.92" y1="541.116" y2="541.116" xlink:href="#d"></linearGradient><linearGradient id="Z" x1="221.946" x2="572.253" y1="582.682" y2="582.682" xlink:href="#e"></linearGradient><linearGradient id="t" x1="738.128" x2="746.061" y1="756.927" y2="733.129" gradientUnits="userSpaceOnUse"><stop offset="0" stop-color="#d67747"></stop><stop offset=".007" stop-color="#cb6e41"></stop><stop offset=".018" stop-color="#be643a"></stop><stop offset=".029" stop-color="#ba6038"></stop><stop offset="1" stop-color="#f7c479"></stop></linearGradient><linearGradient id="f" x1="510.005" x2="516.633" y1="479.629" y2="459.745" gradientUnits="userSpaceOnUse"><stop offset="0" stop-color="#f7c479"></stop><stop offset=".86" stop-color="#ee9f5f"></stop><stop offset="1" stop-color="#ed995a"></stop></linearGradient><linearGradient id="aa" x1="106.336" x2="112.962" y1="350.161" y2="330.284" gradientTransform="matrix(-1 0 0 1 1067.94 0)" xlink:href="#f"></linearGradient><linearGradient id="g" x1="963.311" x2="975.327" y1="480.004" y2="459.192" gradientUnits="userSpaceOnUse"><stop offset="0" stop-color="#fff"></stop><stop offset=".242" stop-color="#f9fafd"></stop><stop offset=".55" stop-color="#eaecf6"></stop><stop offset=".893" stop-color="#d0d4eb"></stop><stop offset="1" stop-color="#c6cbe7"></stop></linearGradient><linearGradient id="ab" x1="336.587" x2="348.603" y1="351.459" y2="330.647" gradientTransform="matrix(-1 0 0 1 1296.527 0)" xlink:href="#g"></linearGradient><linearGradient id="ac" x1="332.83" x2="339.456" y1="480.829" y2="460.951" gradientTransform="matrix(-1 0 0 1 1067.94 0)" xlink:href="#f"></linearGradient><linearGradient id="ad" x1="563.081" x2="575.097" y1="482.127" y2="461.314" gradientTransform="matrix(-1 0 0 1 1296.527 0)" xlink:href="#g"></linearGradient><linearGradient id="ae" x1="563.356" x2="575.372" y1="743.643" y2="722.831" gradientTransform="matrix(-1 0 0 1 1296.527 0)" xlink:href="#g"></linearGradient><linearGradient id="af" x1="921.789" x2="933.805" y1="481.816" y2="461.003" gradientTransform="translate(-408.587)" xlink:href="#g"></linearGradient><linearGradient id="h" x1="948.007" x2="984.2" y1="464.477" y2="464.477" gradientUnits="userSpaceOnUse"><stop offset="0" stop-color="#ed995a"></stop><stop offset=".405" stop-color="#f0a568"></stop><stop offset="1" stop-color="#f3b378"></stop></linearGradient><linearGradient id="ag" x1="1169.258" x2="1205.451" y1="464.477" y2="464.477" xlink:href="#h"></linearGradient><linearGradient id="ah" x1="653.3" x2="724.73" y1="907.831" y2="907.831" xlink:href="#i"></linearGradient><linearGradient id="ai" x1="388.243" x2="452.502" y1="322.216" y2="322.216" xlink:href="#i"></linearGradient><linearGradient id="aj" x1="1288.941" x2="1348.538" y1="336.708" y2="336.708" xlink:href="#i"></linearGradient><linearGradient id="o" x1="1303.372" x2="1465.425" y1="521.982" y2="521.982" gradientUnits="userSpaceOnUse"><stop offset="0" stop-color="#d3d8f2"></stop><stop offset="1" stop-color="#fff"></stop></linearGradient><linearGradient id="ak" x1="1231.807" x2="1374.938" y1="500.864" y2="500.864" gradientUnits="userSpaceOnUse"><stop offset=".396" stop-color="#5555c6"></stop><stop offset=".508" stop-color="#4949b6"></stop><stop offset=".574" stop-color="#4141aa"></stop></linearGradient><linearGradient id="al" x1="1275.301" x2="1331.444" y1="437.967" y2="437.967" gradientUnits="userSpaceOnUse"><stop offset="0" stop-color="#1e1c6b"></stop><stop offset="1" stop-color="#4141aa"></stop></linearGradient><linearGradient id="m" x1="1004.799" x2="1238.552" y1="679.824" y2="679.824" gradientUnits="userSpaceOnUse"><stop offset="0" stop-color="#a5aace"></stop><stop offset="1" stop-color="#fff"></stop></linearGradient><linearGradient id="j" x1="1076.499" x2="1148.201" y1="657.973" y2="657.973" gradientUnits="userSpaceOnUse"><stop offset="0" stop-color="#c6cbe7"></stop><stop offset="1" stop-color="#fff"></stop></linearGradient><linearGradient id="k" x1="1010.661" x2="1142.335" y1="659.667" y2="659.667" gradientUnits="userSpaceOnUse"><stop offset=".396" stop-color="#ed995a"></stop><stop offset=".458" stop-color="#de8950"></stop><stop offset=".574" stop-color="#ba6038"></stop></linearGradient><linearGradient id="l" x1="1004.799" x2="1148.201" y1="687.371" y2="687.371" gradientUnits="userSpaceOnUse"><stop offset=".396" stop-color="#d0d4f6"></stop><stop offset=".552" stop-color="#c0c4e7"></stop><stop offset=".574" stop-color="#bdc1e4"></stop></linearGradient><linearGradient id="am" x1="1076.499" x2="1148.201" y1="622.665" y2="622.665" xlink:href="#j"></linearGradient><linearGradient id="an" x1="1010.661" x2="1142.335" y1="624.359" y2="624.359" xlink:href="#k"></linearGradient><linearGradient id="ao" x1="1004.799" x2="1148.201" y1="652.063" y2="652.063" xlink:href="#l"></linearGradient><linearGradient id="ap" x1="1004.799" x2="1148.201" y1="616.756" y2="616.756" xlink:href="#l"></linearGradient><linearGradient id="aq" x1="771.295" x2="1004.197" y1="805.955" y2="805.955" xlink:href="#m"></linearGradient><linearGradient id="n" x1="814.862" x2="834.433" y1="751.925" y2="785.821" gradientUnits="userSpaceOnUse"><stop offset=".38" stop-color="#f7f7fc"></stop><stop offset=".586" stop-color="#bdc1e4"></stop></linearGradient><linearGradient id="ar" x1="814.862" x2="834.432" y1="719.398" y2="753.294" xlink:href="#n"></linearGradient><linearGradient id="as" x1="843.032" x2="862.602" y1="768.189" y2="802.085" xlink:href="#n"></linearGradient><linearGradient id="at" x1="871.201" x2="890.771" y1="784.452" y2="818.35" xlink:href="#n"></linearGradient><linearGradient id="au" x1="843.031" x2="862.601" y1="735.661" y2="769.557" xlink:href="#n"></linearGradient><linearGradient id="av" x1="871.201" x2="890.771" y1="751.925" y2="785.821" xlink:href="#n"></linearGradient><linearGradient id="aw" x1="814.862" x2="834.432" y1="686.869" y2="720.766" xlink:href="#n"></linearGradient><linearGradient id="ax" x1="843.032" x2="862.601" y1="703.134" y2="737.03" xlink:href="#n"></linearGradient><linearGradient id="ay" x1="871.201" x2="890.771" y1="719.398" y2="753.294" xlink:href="#n"></linearGradient><linearGradient id="az" x1="1075.448" x2="1234.231" y1="398.56" y2="398.56" xlink:href="#o"></linearGradient><linearGradient id="aA" x1="-1005.719" x2="-934.153" y1="406.615" y2="282.659" gradientTransform="matrix(-1 0 0 1 131.747 0)" gradientUnits="userSpaceOnUse"><stop offset=".414" stop-color="#bdc1e4"></stop><stop offset=".62" stop-color="#f7f7fc"></stop></linearGradient><linearGradient id="aB" x1="850.234" x2="1012.286" y1="530.059" y2="530.059" xlink:href="#o"></linearGradient><linearGradient id="aC" x1="552.176" x2="785.792" y1="681.548" y2="681.548" xlink:href="#m"></linearGradient><linearGradient id="aD" x1="558.027" x2="689.452" y1="655.785" y2="655.785" gradientUnits="userSpaceOnUse"><stop offset=".396" stop-color="#d67747"></stop><stop offset=".508" stop-color="#c66a3e"></stop><stop offset=".574" stop-color="#ba6038"></stop></linearGradient><linearGradient id="aE" x1="587.916" x2="659.566" y1="689.244" y2="689.244" xlink:href="#l"></linearGradient><linearGradient id="aF" x1="587.916" x2="659.566" y1="642.96" y2="642.96" xlink:href="#l"></linearGradient><linearGradient id="aG" x1="778.729" x2="1012.347" y1="277.906" y2="277.906" xlink:href="#j"></linearGradient><linearGradient id="aH" x1="778.729" x2="921.86" y1="250.263" y2="250.263" xlink:href="#l"></linearGradient><linearGradient id="aI" x1="551.952" x2="785.792" y1="408.792" y2="408.792" xlink:href="#m"></linearGradient><linearGradient id="aJ" x1="551.952" x2="695.532" y1="387.818" y2="387.818" xlink:href="#l"></linearGradient><linearGradient id="p" x1="579.346" x2="609.998" y1="331.588" y2="331.588" gradientUnits="userSpaceOnUse"><stop offset="0" stop-color="#c6cbe7"></stop><stop offset=".969" stop-color="#fff"></stop></linearGradient><linearGradient id="aK" x1="623.731" x2="654.382" y1="305.959" y2="305.959" xlink:href="#p"></linearGradient><linearGradient id="aL" x1="668.131" x2="698.784" y1="331.588" y2="331.588" gradientUnits="userSpaceOnUse"><stop offset="0" stop-color="#c6cbe7"></stop><stop offset=".77" stop-color="#fff"></stop></linearGradient><linearGradient id="aM" x1="623.731" x2="654.382" y1="357.213" y2="357.213" xlink:href="#p"></linearGradient><linearGradient id="aN" x1="397.099" x2="559.151" y1="515.718" y2="515.718" xlink:href="#o"></linearGradient><linearGradient id="q" x1="325.671" x2="414.194" y1="463.994" y2="463.994" gradientUnits="userSpaceOnUse"><stop offset="0" stop-color="#d0d4f6"></stop><stop offset=".29" stop-color="#c0c4e7"></stop><stop offset=".331" stop-color="#bdc1e4"></stop></linearGradient><linearGradient id="aO" x1="353.446" x2="441.969" y1="480.09" y2="480.09" xlink:href="#q"></linearGradient><linearGradient id="aP" x1="381.221" x2="469.744" y1="496.188" y2="496.188" xlink:href="#q"></linearGradient><linearGradient id="aQ" x1="233.965" x2="475.695" y1="756.459" y2="756.459" gradientUnits="userSpaceOnUse"><stop offset=".624" stop-color="#d0d4f6"></stop><stop offset=".634" stop-color="#ced2f4"></stop><stop offset=".77" stop-color="#bdc1e4"></stop></linearGradient><linearGradient id="aR" x1="207.191" x2="37.863" y1="656.458" y2="604.393" gradientTransform="matrix(-1 0 0 1 521.543 0)" gradientUnits="userSpaceOnUse"><stop offset="0" stop-color="#338"></stop><stop offset="1" stop-color="#696cd9"></stop></linearGradient><linearGradient id="aS" x1="44.945" x2="44.945" y1="432.154" y2="320.101" gradientTransform="matrix(-.866 -.5 0 1.1547 437.053 229.438)" gradientUnits="userSpaceOnUse"><stop offset="0"></stop><stop offset=".227" stop-color="#3a241e"></stop><stop offset=".606" stop-color="#955d4e"></stop><stop offset=".872" stop-color="#ce806b"></stop><stop offset="1" stop-color="#e48e77"></stop></linearGradient><linearGradient id="aT" x1="18.172" x2="160.917" y1="734.759" y2="487.518" gradientTransform="matrix(-1 0 0 1 521.543 0)" gradientUnits="userSpaceOnUse"><stop offset=".396" stop-color="#338"></stop><stop offset=".479" stop-color="#4043a3"></stop></linearGradient><linearGradient id="aU" x1="-245.675" x2="-205.445" y1="880.844" y2="880.844" gradientTransform="matrix(-1 0 0 1 90.533 0)" gradientUnits="userSpaceOnUse"><stop offset="0" stop-color="#34318d"></stop><stop offset="1" stop-color="#34318d"></stop></linearGradient><linearGradient id="aV" x1="-276.669" x2="-236.436" y1="902.02" y2="902.02" gradientTransform="matrix(-1 0 0 1 90.533 0)" gradientUnits="userSpaceOnUse"><stop offset="0" stop-color="#4141a7"></stop><stop offset=".355" stop-color="#3c3a9c"></stop><stop offset="1" stop-color="#34318d"></stop></linearGradient><linearGradient id="r" x1="-261.627" x2="-105.966" y1="851.012" y2="851.012" gradientTransform="matrix(-1 0 0 1 90.533 0)" gradientUnits="userSpaceOnUse"><stop offset="0" stop-color="#5555c4"></stop><stop offset=".082" stop-color="#4d4cb7"></stop><stop offset=".261" stop-color="#3f3da0"></stop><stop offset=".43" stop-color="#373492"></stop><stop offset=".576" stop-color="#34318d"></stop></linearGradient><linearGradient id="s" x1="157.571" x2="382.962" y1="938.754" y2="938.754" gradientTransform="translate(68.483)" gradientUnits="userSpaceOnUse"><stop offset="0" stop-color="#d3d7ef"></stop><stop offset=".547" stop-color="#eeeff9"></stop><stop offset="1" stop-color="#fff"></stop></linearGradient><linearGradient id="aW" x1="223.309" x2="226.918" y1="740.427" y2="731.766" gradientTransform="matrix(-1 0 0 1 521.543 0)" gradientUnits="userSpaceOnUse"><stop offset="0" stop-color="#c4c9e5"></stop><stop offset=".292" stop-color="#d1d5eb"></stop><stop offset=".83" stop-color="#f3f4fa"></stop><stop offset="1" stop-color="#fff"></stop></linearGradient><linearGradient id="aX" x1="176.87" x2="183.011" y1="762.122" y2="747.385" gradientTransform="matrix(-1 0 0 1 521.543 0)" gradientUnits="userSpaceOnUse"><stop offset="0" stop-color="#c4c9e5"></stop><stop offset="1" stop-color="#fff"></stop></linearGradient><linearGradient id="aY" x1="811.345" x2="813.085" y1="761.623" y2="757.447" gradientTransform="translate(-559.669)" gradientUnits="userSpaceOnUse"><stop offset="0" stop-color="#d49333"></stop><stop offset=".575" stop-color="#e6ad3d"></stop><stop offset="1" stop-color="#f0bb42"></stop></linearGradient><linearGradient id="aZ" x1="-261.627" x2="-105.971" y1="832.644" y2="832.644" xlink:href="#r"></linearGradient><linearGradient id="ba" x1="830.138" x2="818.463" y1="753.86" y2="739.112" gradientTransform="translate(-559.669)" gradientUnits="userSpaceOnUse"><stop offset="0" stop-color="#d96e77"></stop><stop offset=".66" stop-color="#e08277"></stop><stop offset="1" stop-color="#e48e77"></stop></linearGradient><linearGradient id="bb" x1="-188.712" x2="-105.971" y1="774.6" y2="774.6" gradientTransform="matrix(-1 0 0 1 90.533 0)" gradientUnits="userSpaceOnUse"><stop offset="0" stop-color="#d96e77"></stop><stop offset=".212" stop-color="#da7478"></stop><stop offset=".49" stop-color="#de847a"></stop><stop offset=".803" stop-color="#e49f7d"></stop><stop offset="1" stop-color="#e8b480"></stop></linearGradient><linearGradient id="bc" x1="278.491" x2="187.536" y1="738.708" y2="763.261" gradientTransform="matrix(-1 0 0 1 521.543 0)" gradientUnits="userSpaceOnUse"><stop offset="0" stop-color="#e8b480"></stop><stop offset=".268" stop-color="#e5a67e"></stop><stop offset=".774" stop-color="#dd8179"></stop><stop offset="1" stop-color="#d96e77"></stop></linearGradient><linearGradient id="bd" x1="1076.002" x2="1167.945" y1="934.067" y2="934.067" xlink:href="#s"></linearGradient><linearGradient id="be" x1="1106.896" x2="1125.701" y1="890.548" y2="834.134" xlink:href="#f"></linearGradient><linearGradient id="bf" x1="1557.64" x2="1569.656" y1="848.43" y2="827.618" gradientTransform="translate(-408.587)" xlink:href="#g"></linearGradient><linearGradient id="bg" x1="1013.788" x2="1105.731" y1="898.147" y2="898.147" xlink:href="#s"></linearGradient><linearGradient id="bh" x1="1003.319" x2="1015.335" y1="926.82" y2="906.007" gradientUnits="userSpaceOnUse"><stop offset="0" stop-color="#fff"></stop><stop offset=".283" stop-color="#f9fafd"></stop><stop offset=".643" stop-color="#eaecf9"></stop><stop offset="1" stop-color="#d3d8f2"></stop></linearGradient><linearGradient id="bi" x1="994.983" x2="1005.275" y1="938.847" y2="907.972" xlink:href="#t"></linearGradient><clipPath id="G"><path fill="url(#a)" d="m458.632 683.744 140.761 81.271c13.392 7.73 35.307 7.73 48.696 0l140.76-81.267a22.538 22.538 0 0 0 7.85-7.09 22.472 22.472 0 0 0-7.85-7.094l-140.76-81.267c-13.391-7.734-35.306-7.734-48.697 0l-140.76 81.267a22.482 22.482 0 0 0-7.85 7.09 22.484 22.484 0 0 0 7.85 7.09Z"></path></clipPath><clipPath id="I"><path fill="url(#u)" d="m685.275 814.348 140.76 81.27c13.392 7.73 35.307 7.73 48.697 0l140.76-81.267a22.535 22.535 0 0 0 7.849-7.09 22.47 22.47 0 0 0-7.85-7.093L874.732 718.9c-13.391-7.733-35.306-7.733-48.698 0l-140.76 81.268a22.48 22.48 0 0 0-7.849 7.09 22.481 22.481 0 0 0 7.85 7.09Z"></path></clipPath><clipPath id="K"><path fill="url(#v)" d="m458.484 422.472 140.76 81.271c13.392 7.73 35.307 7.73 48.697 0l140.76-81.267a22.53 22.53 0 0 0 7.849-7.09 22.47 22.47 0 0 0-7.85-7.093l-140.759-81.268c-13.391-7.733-35.306-7.733-48.698 0l-140.76 81.268a22.48 22.48 0 0 0-7.849 7.09 22.479 22.479 0 0 0 7.85 7.09Z"></path></clipPath><clipPath id="M"><path fill="url(#w)" d="m911.769 683.68 140.761 81.27c13.392 7.73 35.307 7.73 48.696 0l140.76-81.267a22.532 22.532 0 0 0 7.85-7.09 22.472 22.472 0 0 0-7.85-7.093l-140.76-81.268c-13.391-7.733-35.306-7.733-48.698 0L911.77 669.5a22.485 22.485 0 0 0-7.85 7.09 22.484 22.484 0 0 0 7.85 7.09Z"></path></clipPath><clipPath id="O"><path fill="url(#x)" d="m684.978 291.804 140.761 81.271c13.391 7.73 35.307 7.73 48.696 0l140.76-81.267a22.53 22.53 0 0 0 7.85-7.09 22.47 22.47 0 0 0-7.85-7.093l-140.76-81.268c-13.391-7.733-35.306-7.733-48.698 0l-140.759 81.268a22.48 22.48 0 0 0-7.85 7.09 22.48 22.48 0 0 0 7.85 7.09Z"></path></clipPath><clipPath id="Q"><path fill="url(#y)" d="m1138.11 814.362 49.582 28.627c13.392 7.73 35.307 7.73 48.697 0l140.759-81.267a22.53 22.53 0 0 0 7.85-7.09 22.468 22.468 0 0 0-7.85-7.094l-49.581-28.624c-13.391-7.733-35.307-7.733-48.698 0l-140.76 81.268a22.48 22.48 0 0 0-7.849 7.09 22.483 22.483 0 0 0 7.85 7.09Z"></path></clipPath><clipPath id="R"><path fill="none" d="M1387.168 644.462H1128.09v157.245l.091-.019a13.242 13.242 0 0 0 2.079 5.584 22.483 22.483 0 0 0 7.85 7.09l49.582 28.627c13.392 7.73 35.307 7.73 48.697 0l140.759-81.267a22.532 22.532 0 0 0 7.85-7.09 12.954 12.954 0 0 0 2.147-6.547l.023-.005Z"></path></clipPath></defs><g style="isolation:isolate"><path d="M575.655 907.036c-6.148-3.548-14.78-4.794-22.693-3.763-7.914-1.031-16.547.215-22.694 3.763L494.305 927.8c-7.172 4.142-8.942 10.236-5.318 15.344a37.311 37.311 0 0 0-5.222 2.413l-35.964 20.764c-5.022 2.9-5.204 5.506-1.5 7.331l-.038.006 10.454 5.92c.081.049.169.097.254.143l.176.1.016-.007c3.252 1.704 9.793 2.757 19.011 2.757 19.059 0 42.316-4.475 51.847-9.977l35.962-20.762c5.004-2.89 5.202-5.488 1.54-7.312l.037-.005-9.396-5.109-.01.016a5.164 5.164 0 0 0-.85-.68l20.353-11.75c9.528-5.5 9.528-14.453-.002-19.956Zm-74.042 59.285c-4.845 2.798-16.06 5.113-26.055 5.495l34.595-19.973a42.19 42.19 0 0 0 6.847-.324 42.306 42.306 0 0 0 10.066.107Zm55.561-43.75-22.562 13.027c-1.981.02-4 .09-6.04.199-.61.003-1.32.033-2.185.112-4.874.442-11.794 1.18-17.562 2.072-.093-2.079 1.22-4.176 3.961-5.758l35.964-20.764a16.354 16.354 0 0 1 4.21-1.636 16.342 16.342 0 0 1 4.212 1.636c5.308 3.064 5.308 8.048.002 11.112Z" style="mix-blend-mode:multiply" fill="url(#i)"></path><path fill="#f7f7fc" d="M491.184 929.575c-9.528-5.5-9.528-14.453 0-19.953l35.964-20.764c9.528-5.503 25.033-5.503 34.563 0 9.528 5.502 9.528 14.453 0 19.954l-35.963 20.763c-9.53 5.503-25.034 5.503-34.564 0Zm7.658-15.533c-5.306 3.063-5.306 8.048 0 11.113 5.308 3.064 13.942 3.064 19.248 0l35.963-20.764c5.307-3.063 5.307-8.048 0-11.112-5.306-3.064-13.94-3.064-19.246 0Z"></path><path fill="#d6952d" d="M568.85 898.73h.004v.058c0-.02-.005-.04-.005-.059Z"></path><path fill="url(#z)" d="m498.842 914.042 35.965-20.763c5.305-3.064 13.94-3.064 19.246 0 4.694 2.71 5.227 6.921 1.62 9.978a10.944 10.944 0 0 0-1.62-1.137c-5.306-3.062-13.94-3.062-19.246 0l-35.965 20.764a10.959 10.959 0 0 0-1.62 1.134c-3.607-3.057-3.072-7.267 1.62-9.976Z"></path><path fill="url(#A)" d="M491.184 929.575c9.53 5.503 25.036 5.503 34.564 0l35.963-20.763c4.744-2.737 7.122-6.332 7.143-9.93v8.507h-.021c.132 3.709-2.231 7.442-7.122 10.266l-35.963 20.764c-9.528 5.5-25.034 5.5-34.564-.002-4.868-2.81-7.233-6.521-7.126-10.213h-.02v-8.606c0 3.613 2.382 7.226 7.146 9.977Z"></path><path fill="url(#B)" d="m451.235 928.263 35.964-20.763c4.855-2.804 9.24-3.004 12.383-1.082l.01-.005 6.97 4.04-.022.018c-3.08-1.498-7.176-1.154-11.684 1.45l-35.963 20.763c-9.528 5.501-17.281 18.93-17.281 29.933 0 5.365 1.852 9.162 4.844 11.023l-.001.018-7.292-4.209-.002-.01c-3.209-1.772-5.208-5.664-5.208-11.243 0-11.003 7.753-24.432 17.282-29.933Z"></path><path fill="#ed995a" d="M496.713 923.54a10.288 10.288 0 0 0 2.13 1.615 17.385 17.385 0 0 0 5.605 1.91c.013-.248.032-.498.032-.745 0-5.42-3.38-7.987-7.831-6.39a10.794 10.794 0 0 1 .173 1.97 14.354 14.354 0 0 1-.109 1.64Zm-47.271 36.619c.842 4.659 4.755 6.303 9.451 3.593l24.423-14.101 11.54-6.663a15.44 15.44 0 0 0 2.631-1.952 28.44 28.44 0 0 1-6.303-2.619 19.978 19.978 0 0 1-1.945-1.285 14.946 14.946 0 0 1-2.04 1.435l-35.964 20.764a10.806 10.806 0 0 1-1.793.828Z"></path><path fill="#ba6038" d="m458.893 932.684 35.963-20.764c9.53-5.5 17.281-1.024 17.281 9.98a27.453 27.453 0 0 1-.57 5.323 23.293 23.293 0 0 1-7.119-.157c.013-.249.032-.5.032-.746 0-6.128-4.318-8.62-9.624-5.556l-35.963 20.762c-5.306 3.064-9.623 10.542-9.623 16.67 0 6.126 4.317 8.62 9.623 5.556l35.963-20.764a15.44 15.44 0 0 0 2.631-1.952 38.253 38.253 0 0 0 7.351 1.337 33.111 33.111 0 0 1-9.982 9.459l-35.963 20.762c-9.528 5.502-17.281 1.026-17.281-9.977s7.753-24.432 17.281-29.933Z"></path><path d="M1225.387 948.85c-6.035-3.486-6.035-9.155 0-12.64l10.336-5.968c6.036-3.486 15.859-3.486 21.896 0 6.035 3.484 6.035 9.155 0 12.639l-10.338 5.969c-6.034 3.484-15.857 3.484-21.894 0Zm26.349-15.211a11.198 11.198 0 0 0-10.13 0l-10.337 5.965c-2.793 1.614-2.793 4.237 0 5.85a11.212 11.212 0 0 0 10.13 0l10.337-5.968c2.794-1.612 2.794-4.235 0-5.847Z" style="mix-blend-mode:multiply" fill="url(#b)"></path><path fill="#f7f7fc" d="M1219.486 942.493c-6.037-3.486-6.037-9.156 0-12.642l10.335-5.968c6.038-3.486 15.86-3.484 21.895 0 6.037 3.484 6.037 9.157 0 12.643l-10.335 5.967c-6.037 3.486-15.858 3.484-21.895 0Zm26.349-15.213a11.213 11.213 0 0 0-10.131 0l-10.335 5.967c-2.794 1.613-2.794 4.237 0 5.85a11.21 11.21 0 0 0 10.13 0l10.336-5.968c2.792-1.612 2.792-4.237 0-5.85Z"></path><path fill="url(#C)" d="M1245.835 927.28a11.213 11.213 0 0 0-10.131 0l-10.335 5.967c-2.794 1.613-2.794 4.237 0 5.85.15.085.324.15.485.228l9.85-5.686a11.28 11.28 0 0 1 9.644-.23l.487-.28c2.792-1.612 2.792-4.237 0-5.85Z"></path><path fill="url(#D)" d="m1251.716 936.526-10.335 5.967c-6.037 3.486-15.858 3.484-21.895 0-2.984-1.725-4.487-3.983-4.521-6.246l-.007 6.185.009-.007c-.047 2.324 1.455 4.655 4.52 6.425 6.036 3.484 15.857 3.484 21.894 0l10.335-5.967c3.009-1.736 4.516-4.015 4.526-6.296v-6.372c-.003 2.287-1.512 4.57-4.526 6.31Z"></path><path style="mix-blend-mode:multiply" fill="url(#E)" d="M196.89 682.711h-11.013l5.883 3.396-31.018 17.911h11.01l31.02-17.911-5.882-3.396z"></path><path fill="#f7f7fc" d="m160.742 697.659-5.883-3.396 25.136-14.513-4.249-2.452 5.881-3.397 10.133 5.849-31.018 17.909z"></path><path fill="#d0d4f6" d="m160.742 704.018-5.883-3.397v-6.358l5.883 3.396v6.359zM175.746 682.205v-4.907l4.249 2.452-4.249 2.455z"></path><path fill="#bdc1e4" d="m191.76 686.107-31.018 17.911v-6.359l31.018-17.909v6.357z"></path><g><path style="mix-blend-mode:multiply" fill="url(#F)" d="m27.841 700.182 27.84 16.074-27.84 16.075 77.326-16.075-77.326-16.074z"></path><path fill="#f7f7fc" d="M27.841 667.653v64.678L0 716.258l27.841-48.605z"></path><path fill="#d0d4f6" d="M27.841 667.653v64.678l27.84-16.073-27.84-48.605z"></path></g><g><path fill="url(#c)" d="m458.632 669.564 140.76-81.267c13.391-7.734 35.306-7.734 48.697 0l140.76 81.267a22.472 22.472 0 0 1 7.85 7.094c4.549-7.076 1.953-15.367-7.85-21.027l-140.76-81.27c-13.391-7.73-35.306-7.73-48.697 0l-140.76 81.27c-9.803 5.66-12.397 13.951-7.85 21.023a22.482 22.482 0 0 1 7.85-7.09Z"></path><path fill="url(#a)" d="m458.632 683.744 140.761 81.271c13.392 7.73 35.307 7.73 48.696 0l140.76-81.267a22.538 22.538 0 0 0 7.85-7.09 22.472 22.472 0 0 0-7.85-7.094l-140.76-81.267c-13.391-7.734-35.306-7.734-48.697 0l-140.76 81.267a22.482 22.482 0 0 0-7.85 7.09 22.484 22.484 0 0 0 7.85 7.09Z"></path><path fill="url(#H)" d="m685.275 800.168 140.76-81.268c13.39-7.733 35.306-7.733 48.697 0l140.76 81.268a22.47 22.47 0 0 1 7.849 7.093c4.55-7.075 1.954-15.367-7.85-21.026l-140.759-81.271c-13.391-7.73-35.306-7.73-48.698 0l-140.76 81.27c-9.803 5.66-12.397 13.952-7.849 21.024a22.48 22.48 0 0 1 7.85-7.09Z"></path><path fill="url(#u)" d="m685.275 814.348 140.76 81.27c13.392 7.73 35.307 7.73 48.697 0l140.76-81.267a22.535 22.535 0 0 0 7.849-7.09 22.47 22.47 0 0 0-7.85-7.093L874.732 718.9c-13.391-7.733-35.306-7.733-48.698 0l-140.76 81.268a22.48 22.48 0 0 0-7.849 7.09 22.481 22.481 0 0 0 7.85 7.09Z"></path><path fill="url(#J)" d="m458.484 408.293 140.759-81.268c13.392-7.733 35.307-7.733 48.698 0l140.76 81.268a22.47 22.47 0 0 1 7.849 7.093c4.55-7.075 1.954-15.367-7.85-21.026L647.941 313.09c-13.391-7.732-35.306-7.732-48.698 0l-140.76 81.269c-9.803 5.66-12.397 13.95-7.849 21.022a22.48 22.48 0 0 1 7.85-7.09Z"></path><path fill="url(#v)" d="m458.484 422.472 140.76 81.271c13.392 7.73 35.307 7.73 48.697 0l140.76-81.267a22.53 22.53 0 0 0 7.849-7.09 22.47 22.47 0 0 0-7.85-7.093l-140.759-81.268c-13.391-7.733-35.306-7.733-48.698 0l-140.76 81.268a22.48 22.48 0 0 0-7.849 7.09 22.479 22.479 0 0 0 7.85 7.09Z"></path><path fill="url(#L)" d="m911.769 669.5 140.76-81.268c13.39-7.733 35.306-7.733 48.697 0l140.76 81.268a22.472 22.472 0 0 1 7.85 7.093c4.549-7.075 1.953-15.366-7.85-21.026l-140.76-81.271c-13.391-7.73-35.306-7.73-48.698 0l-140.759 81.27c-9.804 5.66-12.397 13.952-7.85 21.024a22.485 22.485 0 0 1 7.85-7.09Z"></path><path fill="url(#w)" d="m911.769 683.68 140.761 81.27c13.392 7.73 35.307 7.73 48.696 0l140.76-81.267a22.532 22.532 0 0 0 7.85-7.09 22.472 22.472 0 0 0-7.85-7.093l-140.76-81.268c-13.391-7.733-35.306-7.733-48.698 0L911.77 669.5a22.485 22.485 0 0 0-7.85 7.09 22.484 22.484 0 0 0 7.85 7.09Z"></path><path fill="url(#N)" d="m684.978 277.625 140.76-81.268c13.39-7.733 35.306-7.733 48.697 0l140.76 81.268a22.47 22.47 0 0 1 7.85 7.093c4.549-7.076 1.953-15.367-7.85-21.027l-140.76-81.268c-13.391-7.731-35.306-7.731-48.698 0l-140.759 81.268c-9.804 5.66-12.398 13.951-7.85 21.024a22.48 22.48 0 0 1 7.85-7.09Z"></path><path fill="url(#x)" d="m684.978 291.804 140.761 81.271c13.391 7.73 35.307 7.73 48.696 0l140.76-81.267a22.53 22.53 0 0 0 7.85-7.09 22.47 22.47 0 0 0-7.85-7.093l-140.76-81.268c-13.391-7.733-35.306-7.733-48.698 0l-140.759 81.268a22.48 22.48 0 0 0-7.85 7.09 22.48 22.48 0 0 0 7.85 7.09Z"></path></g><g data-name="Shadow from laptop"><path fill="url(#P)" d="m1138.11 800.182 140.759-81.268c13.391-7.733 35.307-7.733 48.698 0l49.58 28.624a22.468 22.468 0 0 1 7.85 7.094c4.55-7.076 1.954-15.367-7.85-21.027l-49.58-28.628c-13.391-7.73-35.307-7.73-48.698 0l-140.76 81.272c-9.803 5.66-12.397 13.95-7.849 21.023a22.48 22.48 0 0 1 7.85-7.09Z"></path><path fill="url(#y)" d="m1138.11 814.362 49.582 28.627c13.392 7.73 35.307 7.73 48.697 0l140.759-81.267a22.53 22.53 0 0 0 7.85-7.09 22.468 22.468 0 0 0-7.85-7.094l-49.581-28.624c-13.391-7.733-35.307-7.733-48.698 0l-140.76 81.268a22.48 22.48 0 0 0-7.849 7.09 22.483 22.483 0 0 0 7.85 7.09Z"></path><g clip-path="url(#R)"><path fill="#5ec1c9" d="m1309.729 831.537 26.712 15.523.03.018-26.712-15.524Z"></path><path fill="#a7add2" d="m1312.97 877.407-26.712-15.524a5.481 5.481 0 0 1 1.632 1.505l26.712 15.524a5.478 5.478 0 0 0-1.632-1.505Z"></path><path fill="#f1f1f6" d="m1319.479 804.514 26.712 15.523a5.464 5.464 0 0 0 2.211.675l-26.712-15.523a5.464 5.464 0 0 1-2.211-.675Z"></path><path fill="#a7add2" d="m1292.969 894.904-26.712-15.523a5.73 5.73 0 0 1 2.128 3.327l26.712 15.523a5.73 5.73 0 0 0-2.128-3.327Z"></path><path fill="#f1f1f6" d="m1324.823 778.535 26.712 15.523a5.763 5.763 0 0 0 3.999.163l-26.712-15.523a5.763 5.763 0 0 1-4-.163Z"></path><path fill="#a7add2" d="m1273.05 907.293-26.711-15.524c1.045.947 1.374 3.245 1.379 4.83l26.712 15.523c-.005-1.585-.335-3.882-1.38-4.83Z"></path><path fill="#f1f1f6" d="m1357.386 769.395-26.712-15.523c-1.411.815-3.647 1.715-4.99 1.228l26.713 15.523c1.342.488 3.578-.413 4.99-1.228Z"></path><path fill="#a7add2" d="m1253.88 913.719-26.711-15.524c.739 1.393.488 4.137.13 5.923l26.712 15.523c.358-1.785.609-4.53-.13-5.922Z"></path><path fill="#f1f1f6" d="m1353.827 747.925-26.712-15.523a17.456 17.456 0 0 1-2.702 1.971 5.624 5.624 0 0 1-2.678.913l26.712 15.523a5.625 5.625 0 0 0 2.678-.913 17.45 17.45 0 0 0 2.702-1.97Z"></path><path fill="#a7add2" d="m1236.397 913.48-26.712-15.523c.441 1.778-.43 4.89-1.169 6.811l26.712 15.523c.738-1.92 1.61-5.032 1.169-6.81Z"></path><path fill="#f1f1f6" d="m1345.11 731.28-26.711-15.523a18.086 18.086 0 0 1-4.31 3.99 4.395 4.395 0 0 1-1.203.502l26.711 15.523a4.39 4.39 0 0 0 1.204-.502 18.085 18.085 0 0 0 4.31-3.99Z"></path><path fill="#e3e5f6" d="m1331.815 720.594-26.712-15.524c-1.064 1.842-3.065 4.68-4.897 5.737l26.712 15.524c1.832-1.058 3.833-3.895 4.897-5.737Z"></path><path fill="#bdc0e0" d="m1221.859 906.667-26.712-15.523c.143 2.09-1.39 5.426-2.5 7.348l26.712 15.523c1.11-1.922 2.643-5.258 2.5-7.348Z"></path><path fill="#f1f1f6" d="m1326.918 726.33-26.712-15.523c-2.546-.595-4.697-1.265-6.952-1.727l26.712 15.523c2.255.462 4.406 1.132 6.952 1.728Z"></path><path fill="#a7add2" d="m1216.601 901.607-26.712-15.523a37.97 37.97 0 0 0 5.258 5.06l26.712 15.523a37.97 37.97 0 0 1-5.258-5.06Z"></path><path fill="#f6f6fb" d="m1320.849 717.103-26.712-15.524-5.988-.516 26.712 15.523 5.988.517z"></path><path fill="#a7add2" d="m1207.495 901.239-26.712-15.523 3.472 4.874 26.712 15.524-3.472-4.875z"></path><path fill="#bdc0e0" d="m1211.287 893.749-26.712-15.524c-.179 2.387-2.359 5.707-3.792 7.49l26.712 15.524c1.433-1.784 3.613-5.103 3.792-7.49Z"></path><path fill="#e3e5f6" d="m1314.861 716.586-26.712-15.523c-.866 2.227-2.778 5.995-4.86 7.197l26.713 15.523c2.08-1.201 3.993-4.97 4.86-7.197Z"></path><path fill="#f1f1f6" d="m1310.002 723.783-26.712-15.523a53.192 53.192 0 0 0-6.906.71l26.712 15.523a53.224 53.224 0 0 1 6.906-.71Z"></path><path fill="#5ec1c9" d="m1276.113 708.85 26.712 15.523a1.322 1.322 0 0 0 .271.12l-26.712-15.523a1.337 1.337 0 0 1-.271-.12Z"></path><path fill="#a7add2" d="m1208.221 886.69-26.712-15.523a52.417 52.417 0 0 0 3.066 7.058l26.712 15.524a52.4 52.4 0 0 1-3.066-7.059Z"></path><path fill="#f1f1f6" d="m1302.067 717.753-26.712-15.523-6.676 1.793 26.712 15.524 6.676-1.794z"></path><path fill="#e3e5f6" d="m1295.39 719.547-26.711-15.524c-.478 2.356-1.888 6.66-4.186 8.21l26.712 15.524c2.298-1.55 3.707-5.855 4.186-8.21Z"></path><path fill="#a7add2" d="m1200.438 882.838-26.712-15.524 1.804 6.636 26.712 15.524-1.804-6.636z"></path><path fill="#d9dcf1" d="m1205.41 875.51-26.712-15.522c-.437 2.675-3.263 5.81-4.972 7.326l26.712 15.524c1.708-1.516 4.535-4.652 4.972-7.327Z"></path><path fill="#f1f1f6" d="m1291.205 727.757-26.712-15.524c-2.075.78-6.125 2.571-6.125 2.562l26.712 15.523c0 .01 4.05-1.782 6.125-2.561Z"></path><path fill="#bdc0e0" d="m1204.523 867.464-26.712-15.524a79.744 79.744 0 0 0 .887 8.048l26.712 15.523a79.687 79.687 0 0 1-.887-8.047Z"></path><path fill="#f1f1f6" d="m1256.614 714.82 26.712 15.523a1.83 1.83 0 0 0 1.754-.025l-26.712-15.523a1.83 1.83 0 0 1-1.754.025Z"></path><path fill="#a7add2" d="m1203.963 866.904-26.712-15.523a1.536 1.536 0 0 1 .56.56l26.712 15.523a1.537 1.537 0 0 0-.56-.56Z"></path><path fill="#f1f1f6" d="m1281.648 725.272-26.712-15.524-6.905 3.987 26.712 15.523 6.905-3.986z"></path><path fill="#e3e5f6" d="m1274.743 729.258-26.712-15.523c.007 2.354-.682 7.097-3.408 9.004l26.712 15.524c2.726-1.908 3.415-6.651 3.408-9.005Z"></path><path fill="#a7add2" d="m1198.661 860.079-26.712-15.523.022 7.924 26.712 15.524-.022-7.925z"></path><path fill="#d9dcf1" d="m1204.668 853.231-26.712-15.523c-.653 3.042-4.088 5.74-6.007 6.848l26.712 15.523c1.92-1.108 5.353-3.806 6.007-6.848Z"></path><path fill="#f1f1f6" d="m1271.335 738.263-26.712-15.524-5.458 3.848 26.711 15.523 5.459-3.847z"></path><path fill="#a7add2" d="m1205.599 845.211-26.712-15.523a116.15 116.15 0 0 0-.93 8.02l26.711 15.523c.211-2.647.527-5.326.931-8.02ZM1204.538 843.334l-26.712-15.523a2.131 2.131 0 0 1 1.061 1.877l26.712 15.523a2.132 2.132 0 0 0-1.061-1.877Z"></path><path fill="#f1f1f6" d="m1236.297 726.797 26.712 15.523a2.687 2.687 0 0 0 2.867-.21l-26.711-15.523a2.688 2.688 0 0 1-2.868.21Z"></path><path fill="#bdc0e0" d="m1211.268 821.533-26.712-15.523-2.186 7.055 26.712 15.523 2.186-7.055z"></path><path fill="#f1f1f6" d="M1252.612 753.863 1225.9 738.34l-5.116 5.265 26.712 15.523 5.116-5.265z"></path><path fill="#bdc0e0" d="m1254.315 745.072-26.711-15.524c.538 1.964.85 6.194-1.704 8.792l26.712 15.523c2.553-2.598 2.242-6.828 1.703-8.791Z"></path><path fill="#f1f1f6" d="m1260.98 739.163-26.712-15.523-6.665 5.908 26.712 15.524 6.665-5.909z"></path><path fill="#e3e5f6" d="m1209.082 828.588-26.712-15.523a8.312 8.312 0 0 1-4.056 4.736 11.726 11.726 0 0 1-2.721 1.154l26.712 15.523a11.73 11.73 0 0 0 2.72-1.153 8.312 8.312 0 0 0 4.057-4.737Z"></path><path fill="#bdc0e0" d="m1202.304 834.478-26.711-15.523-1.769 8.699 26.712 15.523 1.768-8.699z"></path><path fill="#a7add2" d="m1209.88 817.354-26.712-15.524c1.194.695 2.079 1.982 1.388 4.18l26.712 15.523c.69-2.197-.194-3.485-1.388-4.18Z"></path><path fill="#e3e5f6" d="m1216.406 744.476 26.712 15.523a3.09 3.09 0 0 0 3.246.062 4.844 4.844 0 0 0 1.132-.933l-26.712-15.523a4.83 4.83 0 0 1-1.132.933 3.089 3.089 0 0 1-3.246-.062Z"></path><path fill="#f1f1f6" d="m1221.524 796.97-26.712-15.523-3.422 6.915 26.712 15.523 3.422-6.915zM1235.621 773.894l-26.712-15.524-4.418 6.302 26.712 15.523 4.418-6.301zM1241.475 758.482l-26.712-15.523-5.965 7.418 26.712 15.523 5.965-7.418z"></path><path fill="#bdc0e0" d="m1235.51 765.9-26.712-15.523a7.006 7.006 0 0 1 .111 7.993l26.712 15.524a7.006 7.006 0 0 0-.111-7.994ZM1211.1 807.816l-26.712-15.523-3.433 8.861 26.712 15.523 3.433-8.861z"></path><path fill="#e3e5f6" d="m1218.102 803.885-26.712-15.523a6.476 6.476 0 0 1-2.678 2.945 7.745 7.745 0 0 1-4.324.986l26.712 15.523a7.747 7.747 0 0 0 4.323-.985 6.476 6.476 0 0 0 2.679-2.946Z"></path><path fill="#bdc0e0" d="m1219.647 790.349-26.712-15.524a4.845 4.845 0 0 1 1.877 6.622l26.712 15.523a4.845 4.845 0 0 0-1.877-6.621Z"></path><path fill="#e3e5f6" d="m1231.203 780.195-26.712-15.523a5.532 5.532 0 0 1-1.825 1.776 5.057 5.057 0 0 1-4.916-.075l26.712 15.523a5.057 5.057 0 0 0 4.916.075 5.53 5.53 0 0 0 1.825-1.776Z"></path><path fill="#f1f1f6" d="m1224.462 781.896-26.712-15.523-4.864 8.425 26.712 15.523 4.864-8.425z"></path><path fill="url(#S)" d="M1204.523 867.464a79.745 79.745 0 0 0 .887 8.047c-.437 2.675-3.263 5.811-4.972 7.327l1.804 6.636a17.366 17.366 0 0 1 2.713-1.984c1.202-.693 2.427-1.127 3.266-.8a52.403 52.403 0 0 0 3.066 7.059c-.18 2.387-2.359 5.706-3.792 7.49l3.472 4.875a17.979 17.979 0 0 1 4.296-3.977 4.164 4.164 0 0 1 1.338-.53 37.958 37.958 0 0 0 5.258 5.06c.143 2.09-1.39 5.426-2.5 7.348l4.896 2.79c1.061-1.838 3.049-4.648 4.872-5.719a36.215 36.215 0 0 0 7.27 2.394c.441 1.779-.431 4.89-1.169 6.811l5.988.517a20.215 20.215 0 0 1 3.796-6.37 49.87 49.87 0 0 0 8.869-.72c.739 1.393.488 4.138.13 5.923l6.668-1.79a19.48 19.48 0 0 1 2.55-6.494 78.082 78.082 0 0 0 9.822-4.064c1.044.947 1.374 3.244 1.379 4.83l6.904-3.987a16.052 16.052 0 0 1 1.243-6.186 118.491 118.491 0 0 0 10.046-7.21c1.286.482 2.123 2.208 2.474 3.491l6.657-5.904a11.51 11.51 0 0 1-.064-5.505q4.907-4.686 9.497-9.912a4.435 4.435 0 0 1 3.415 2.002l5.966-7.418a7.483 7.483 0 0 1-1.314-4.543 178.418 178.418 0 0 0 8.151-11.854 5.151 5.151 0 0 1 4.202.406l4.864-8.425a5.183 5.183 0 0 1-2.465-3.34 180.033 180.033 0 0 0 6.249-12.919 8.046 8.046 0 0 1 4.715-1.236l3.432-8.87a4.402 4.402 0 0 1-3.48-1.928 154.21 154.21 0 0 0 3.858-12.968 10.611 10.611 0 0 1 2.298-1.76 11.872 11.872 0 0 1 2.695-1.15l1.76-8.686c-1.307.347-3.262.51-4.323-.39a116.978 116.978 0 0 0 1.243-12.025 15.958 15.958 0 0 1 4.956-4.486l-.023-7.925c-1.411.815-3.647 1.716-4.99 1.228a80.7 80.7 0 0 0-1.28-10.224 18.921 18.921 0 0 1 4.524-5.852l-1.813-6.622a17.478 17.478 0 0 1-2.702 1.971 5.624 5.624 0 0 1-2.678.913 51.193 51.193 0 0 0-3.585-7.743c.446-2.319 2.392-5.271 3.713-6.906l-3.464-4.88a18.085 18.085 0 0 1-4.31 3.99 4.39 4.39 0 0 1-1.203.502 37.044 37.044 0 0 0-5.37-4.837c-.257-2.08 1.34-5.574 2.482-7.551l-4.895-2.79c-1.064 1.842-3.065 4.679-4.897 5.737-2.546-.595-4.697-1.266-6.952-1.728-.99-1.508.025-5.297.883-7.5l-5.988-.517c-.866 2.227-2.778 5.996-4.86 7.197a53.19 53.19 0 0 0-6.905.71c-1.77-.556-1.499-4.435-1.029-6.74l-6.676 1.794c-.479 2.355-1.888 6.66-4.186 8.21-2.075.78-6.125 2.57-6.125 2.561-2.72 1.236-3.425-2.692-3.432-5.046l-6.905 3.986c.007 2.354-.682 7.097-3.408 9.005l-5.458 3.847c-2.885 1.706-4.396-1.09-4.897-2.947l-6.665 5.909c.54 1.963.85 6.193-1.703 8.791l-5.116 5.265a4.844 4.844 0 0 1-1.132.933c-2.084 1.204-4.015-.36-4.889-1.579l-5.965 7.418a7.006 7.006 0 0 1 .111 7.994l-4.418 6.3a5.532 5.532 0 0 1-1.825 1.777 5.057 5.057 0 0 1-4.916-.075l-4.864 8.425a4.85 4.85 0 0 1 1.926 6.65l-3.422 6.914a6.476 6.476 0 0 1-2.679 2.946 7.745 7.745 0 0 1-4.323.985l-3.433 8.861c1.778.153 4.706 1.34 3.601 4.856l-2.186 7.055a8.31 8.31 0 0 1-4.056 4.737 11.72 11.72 0 0 1-2.721 1.153l-1.77 8.7c1.833-.493 4.943-.617 5.064 2.033a116.15 116.15 0 0 0-.93 8.02c-.655 3.042-4.089 5.74-6.008 6.848l.022 7.925c1.783-1.03 4.866-2.197 5.84-.54Zm28.045-21.47c-.083-29.128 20.385-64.579 45.72-79.206 25.335-14.627 45.95-2.895 46.032 26.232.083 29.105-20.398 64.586-45.733 79.213-25.335 14.628-45.936 2.865-46.019-26.24Z"></path><path fill="url(#T)" d="M1324.32 793.02c.083 29.105-20.398 64.586-45.733 79.213-19.718 11.384-36.564 6.779-43.106-9.542a45.488 45.488 0 0 0 16.394-5.981c25.335-14.627 45.816-50.109 45.733-79.213a45.239 45.239 0 0 0-2.91-16.696c17.257-2.367 29.558 9.737 29.622 32.22Z"></path></g></g><g><path fill="url(#d)" d="m1039.014 526.837-140.762-81.27a40.034 40.034 0 0 0-8.874-3.68l122.864 70.934c6.694 3.865 10.043 8.962 10.043 14.058h.001v13.934h-.001c0 5.096-3.349 10.193-10.043 14.058l-137.658 79.476c-6.098 3.522-13.967 5.42-21.992 5.735l-.113.064h21.61c9.77.474 19.832-1.426 27.269-5.719l137.656-79.474c13.391-7.733 13.39-20.386 0-28.116Z"></path><path fill="#f7f7fc" d="M685.126 511.03c-13.393 7.73-13.393 20.383 0 28.115l140.762 81.269c13.391 7.73 35.306 7.73 48.696 0l140.759-81.268c13.393-7.733 13.393-20.384 0-28.116l-140.76-81.268c-13.39-7.733-35.306-7.733-48.697 0Z"></path><path fill="url(#e)" d="M1025.388 525.088c0 5.095-3.348 10.192-10.045 14.058l-140.76 81.268c-13.389 7.73-35.304 7.73-48.695 0l-140.762-81.27c-6.677-3.853-10.021-8.932-10.04-14.013h-.003v13.933h.004c.018 5.083 3.362 10.161 10.04 14.015l140.76 81.268c13.392 7.734 35.307 7.734 48.697 0l140.759-81.268c6.697-3.864 10.045-8.961 10.045-14.058h.002v-13.933Z"></path><path fill="url(#U)" d="m1265.508 396.169-140.761-81.27a40.05 40.05 0 0 0-8.874-3.68l122.863 70.934c6.694 3.865 10.043 8.962 10.043 14.059h.002v13.933h-.002c0 5.096-3.349 10.193-10.043 14.058l-137.658 79.476c-6.098 3.522-13.967 5.42-21.992 5.735l-.113.064h21.61c9.771.474 19.832-1.426 27.269-5.718l137.656-79.475c13.391-7.733 13.39-20.387 0-28.116Z"></path><path fill="#f7f7fc" d="M911.62 380.362c-13.393 7.73-13.393 20.383 0 28.115l140.762 81.269c13.391 7.73 35.306 7.73 48.696 0l140.76-81.267c13.393-7.734 13.393-20.385 0-28.117l-140.76-81.267c-13.392-7.734-35.307-7.734-48.698 0Z"></path><path fill="url(#V)" d="M1251.882 394.42c0 5.095-3.348 10.192-10.045 14.059l-140.759 81.267c-13.39 7.73-35.305 7.73-48.696 0l-140.761-81.27c-6.677-3.854-10.022-8.932-10.04-14.013h-.004v13.933h.004c.018 5.083 3.363 10.161 10.04 14.016l140.76 81.267c13.392 7.733 35.307 7.733 48.697 0l140.76-81.267c6.696-3.865 10.044-8.962 10.044-14.059h.002V394.42Z"></path><path fill="url(#W)" d="m1492.15 526.772-140.76-81.27a40.05 40.05 0 0 0-8.875-3.68l122.863 70.935c6.695 3.865 10.044 8.961 10.044 14.058h.001v13.933h-.001c0 5.097-3.349 10.194-10.044 14.058l-137.657 79.477c-6.098 3.521-13.968 5.42-21.992 5.734l-.113.065h21.61c9.77.474 19.832-1.427 27.268-5.719l137.656-79.474c13.392-7.734 13.39-20.387 0-28.117Z"></path><path fill="#f7f7fc" d="M1138.263 510.966c-13.393 7.73-13.393 20.383 0 28.114l140.762 81.27c13.39 7.73 35.306 7.73 48.696 0l140.759-81.268c13.393-7.733 13.393-20.385 0-28.116l-140.76-81.268c-13.39-7.733-35.306-7.733-48.697 0Z"></path><path fill="url(#X)" d="M1478.525 525.024c0 5.095-3.348 10.191-10.045 14.058l-140.76 81.268c-13.389 7.73-35.304 7.73-48.695 0l-140.762-81.27c-6.677-3.854-10.021-8.933-10.04-14.013h-.003V539h.004c.018 5.082 3.362 10.161 10.04 14.015l140.76 81.268c13.392 7.733 35.307 7.733 48.697 0l140.759-81.268c6.697-3.865 10.045-8.961 10.045-14.058h.002v-13.933Z"></path><path fill="url(#Y)" d="m585.877 526.901-140.762-81.27a40.022 40.022 0 0 0-8.873-3.68l122.863 70.935c6.694 3.864 10.043 8.961 10.043 14.058h.002v13.933h-.002c0 5.097-3.349 10.193-10.043 14.058l-137.658 79.476c-6.098 3.522-13.967 5.42-21.992 5.735l-.113.065h21.61c9.771.473 19.832-1.427 27.269-5.72l137.656-79.474c13.391-7.733 13.39-20.386 0-28.116Z"></path><path fill="#f7f7fc" d="M231.99 511.094c-13.394 7.73-13.394 20.383 0 28.115l140.76 81.27c13.392 7.73 35.307 7.73 48.697 0l140.76-81.268c13.392-7.734 13.392-20.385 0-28.117l-140.76-81.267c-13.392-7.734-35.307-7.734-48.698 0Z"></path><path fill="url(#Z)" d="M572.251 525.153c0 5.094-3.348 10.191-10.045 14.058l-140.76 81.267c-13.389 7.73-35.304 7.73-48.695 0L231.99 539.21c-6.677-3.854-10.022-8.933-10.04-14.014h-.004v13.934h.004c.018 5.082 3.363 10.16 10.04 14.015l140.76 81.267c13.392 7.734 35.307 7.734 48.697 0l140.76-81.267c6.696-3.865 10.044-8.962 10.044-14.058h.002v-13.933Z"></path></g><g><path fill="url(#t)" d="m766.194 738.109-36.308-20.962a13.179 13.179 0 0 0-19.768 11.414v.642l5.744-3.317a7.896 7.896 0 0 1 11.39-4.175l36.305 20.962a14.98 14.98 0 0 1 7.469 12.937 3.134 3.134 0 0 1-4.702 2.714l-4.287-2.474-5.27 3.042 6.922 3.997a8.405 8.405 0 0 0 12.608-7.279 20.264 20.264 0 0 0-10.103-17.501Z"></path><path fill="url(#f)" d="M529.542 455.248a13.05 13.05 0 0 0-13.179 0l-25.194 14.834 5.27 3.042L519 459.812a7.896 7.896 0 0 1 11.389 4.175l5.743 3.317v-.642a13.044 13.044 0 0 0-6.589-11.414Z"></path><path fill="url(#aa)" d="M942.013 325.808a13.049 13.049 0 0 1 13.178 0l25.307 14.787-5.27 3.043-22.671-13.266a7.896 7.896 0 0 0-11.39 4.176l-5.744 3.316v-.642a13.044 13.044 0 0 1 6.59-11.414Z"></path><path style="mix-blend-mode:multiply" fill="#d3d8f2" d="m978.47 461.007 5.73 3.308v-6.967h-5.73v3.659z"></path><path style="mix-blend-mode:multiply" fill="url(#g)" d="m960.168 478.19-5.73-3.308 24.032-13.875 5.73 3.308-24.032 13.875z"></path><path style="mix-blend-mode:multiply" fill="url(#ab)" d="m963.589 349.352 4.719-2.724-24.032-13.875-4.719 2.724 24.032 13.875z"></path><path fill="url(#ac)" d="M715.518 456.475a13.049 13.049 0 0 1 13.179 0l25.306 14.788-5.27 3.043-22.67-13.267a7.896 7.896 0 0 0-11.39 4.176l-5.744 3.317v-.642a13.044 13.044 0 0 1 6.59-11.415Z"></path><path style="mix-blend-mode:multiply" fill="url(#ad)" d="m737.095 480.02 4.718-2.724-24.032-13.875-4.718 2.724 24.032 13.875z"></path><path style="mix-blend-mode:multiply" fill="url(#ae)" d="m736.819 741.536 4.719-2.724-24.032-13.875-4.719 2.725 24.032 13.874z"></path><path style="mix-blend-mode:multiply" fill="url(#af)" d="m509.554 479.709-4.719-2.724 24.032-13.875 4.719 2.724-24.032 13.875z"></path><path fill="url(#h)" d="M984.2 457.348a4.865 4.865 0 0 0-2.2-3.813 1.408 1.408 0 0 0-1.772.021l-.004-.005-32.217 18.602 6.169 3.563 29.279-16.906a1.136 1.136 0 0 0 .184-.105l.016-.009-.002-.004a1.6 1.6 0 0 0 .547-1.344Z"></path><path fill="url(#ag)" d="M1169.258 457.348a4.865 4.865 0 0 1 2.2-3.813 1.408 1.408 0 0 1 1.772.021l.004-.005 32.217 18.602-6.169 3.563-29.279-16.906a1.136 1.136 0 0 1-.184-.105l-.016-.009.002-.004a1.6 1.6 0 0 1-.547-1.344Z"></path></g><g data-name="Little blocks"><path style="mix-blend-mode:multiply" fill="url(#ah)" d="M696.998 891.816H653.3l27.738 16.02-27.738 16.01h43.698l27.732-16.01-27.732-16.02z"></path><path style="mix-blend-mode:multiply" fill="url(#ai)" d="M427.554 307.809h-39.311l24.577 14.627-24.577 14.187h39.311l24.948-14.403-24.948-14.411z"></path><path style="mix-blend-mode:multiply" fill="url(#aj)" d="M1325.4 323.346h-36.459l22.791 13.566-22.791 13.158h36.459l23.138-13.358-23.138-13.366z"></path><path fill="#5555c6" d="m1288.941 350.07 22.791-13.158v-26.72l-22.791 13.154v26.724z"></path><path fill="#7f7ff4" d="m1288.941 350.07-22.793-13.158v-26.72l22.793 13.154v26.724z"></path><path fill="#f3b378" d="m1288.941 323.346-22.793-13.154 22.793-13.158 22.791 13.158-22.791 13.154z"></path><path fill="#bbbfe2" d="m388.243 336.623 24.577-14.187v-28.812l-24.577 14.185v28.814z"></path><path fill="#ced2f4" d="m388.243 336.623-24.577-14.187v-28.812l24.577 14.185v28.814z"></path><path fill="#f5f5fa" d="m388.243 307.809-24.577-14.185 24.577-14.185 24.577 14.185-24.577 14.185z"></path><path fill="#bbbfe2" d="m653.3 923.846 27.738-16.01v-32.518L653.3 891.325v32.521z"></path><path fill="#ced2f4" d="m653.3 923.846-27.733-16.01v-32.518l27.733 16.007v32.521z"></path><path fill="#f5f5fa" d="m653.3 891.325-27.733-16.007 27.733-16.009 27.738 16.009-27.738 16.007z"></path></g><g data-name="Big blocks"><g data-name="Layer 28"><path style="mix-blend-mode:multiply" fill="url(#o)" d="M1465.425 540.846v-31.644l-50.227-28.999h-111.826v83.558h122.363l39.69-22.915z"></path><path fill="#7f7ff4" d="m1292.259 476.628-55.849-32.244c-3.068-1.772-4.603-4.094-4.603-6.418 0-2.322 1.533-4.644 4.603-6.416l55.849-32.242a24.548 24.548 0 0 1 22.227 0l55.849 32.242c3.07 1.772 4.603 4.094 4.603 6.418 0 2.322-1.533 4.644-4.603 6.416l-55.849 32.244a24.564 24.564 0 0 1-22.227 0Z"></path><path fill="url(#ak)" d="m1370.335 444.384-55.849 32.244a24.564 24.564 0 0 1-22.227 0l-55.849-32.244c-3.068-1.772-4.603-4.094-4.603-6.418v84.476c0 2.323 1.535 4.645 4.603 6.416l55.849 32.245a24.564 24.564 0 0 0 22.227 0l55.849-32.245c3.07-1.771 4.603-4.093 4.603-6.416v-84.476c0 2.324-1.533 4.646-4.603 6.418Z"></path><path fill="url(#al)" d="M1283.522 426.505c10.964-6.328 28.739-6.328 39.7 0 10.963 6.332 10.963 16.594 0 22.922-10.961 6.33-28.736 6.33-39.7 0-10.962-6.328-10.962-16.59 0-22.922Z"></path></g><g data-name="Layer 29"><path d="M1238.552 685.666v-18.149l-51.046-29.471-111.007.765a22.789 22.789 0 0 0-11.137 2.66l-55.952 32.305c-3.073 1.779-4.61 4.104-4.61 6.432 0 2.324 1.537 4.651 4.61 6.427l55.952 32.305a22.755 22.755 0 0 0 11.137 2.663h99.807Z" style="mix-blend-mode:multiply" fill="url(#m)"></path><path fill="#f7f7fc" d="m1065.362 698.396-55.952-32.3c-3.073-1.777-4.61-4.106-4.61-6.432 0-2.327 1.537-4.653 4.61-6.428l55.952-32.307a24.64 24.64 0 0 1 22.273 0l55.952 32.309c3.075 1.773 4.614 4.099 4.614 6.426 0 2.326-1.54 4.655-4.614 6.432l-55.952 32.3a24.584 24.584 0 0 1-22.273 0Z"></path><path d="m1088.884 697.677 54.703-31.58c3.075-1.778 4.614-4.107 4.614-6.433 0-2.327-1.54-4.653-4.614-6.426l-55.952-32.309a19.079 19.079 0 0 0-4.886-1.906l-6.25-.754v79.408Z" style="mix-blend-mode:multiply" fill="url(#j)"></path><path fill="url(#k)" d="M1123.086 645.093 1086.72 624.1a22.604 22.604 0 0 0-20.446 0l-36.362 20.993h-19.252v14.571c0 2.137 1.416 4.273 4.239 5.903l51.375 29.665a22.591 22.591 0 0 0 20.446 0l51.38-29.665c2.822-1.627 4.234-3.766 4.234-5.903v-14.571Z"></path><path fill="url(#l)" d="m1143.587 666.096-55.952 32.3a24.584 24.584 0 0 1-22.273 0l-55.952-32.3c-3.073-1.777-4.61-4.106-4.61-6.432v14.017c0 2.328 1.537 4.654 4.61 6.43l55.952 32.304a24.61 24.61 0 0 0 22.273 0l55.952-32.303c3.075-1.774 4.614-4.103 4.614-6.43v-14.018c0 2.326-1.54 4.655-4.614 6.432Z"></path><path fill="#f7f7fc" d="m1065.362 663.088-55.952-32.3c-3.073-1.777-4.61-4.106-4.61-6.432 0-2.328 1.537-4.653 4.61-6.428l55.952-32.307a24.64 24.64 0 0 1 22.273 0l55.952 32.308c3.075 1.774 4.614 4.1 4.614 6.427 0 2.326-1.54 4.655-4.614 6.432l-55.952 32.3a24.58 24.58 0 0 1-22.273 0Z"></path><path d="m1088.884 662.369 54.703-31.581c3.075-1.777 4.614-4.106 4.614-6.432 0-2.328-1.54-4.653-4.614-6.427l-55.952-32.308a19.093 19.093 0 0 0-4.886-1.906l-6.25-.754v79.408Z" style="mix-blend-mode:multiply" fill="url(#am)"></path><path fill="url(#an)" d="m1123.086 609.785-36.365-20.993a22.604 22.604 0 0 0-20.446 0l-36.362 20.993h-19.252v14.571c0 2.136 1.416 4.273 4.239 5.903l51.375 29.664a22.59 22.59 0 0 0 20.446 0l51.38-29.664c2.822-1.627 4.234-3.767 4.234-5.903v-14.571Z"></path><path fill="url(#ao)" d="m1143.587 630.788-55.952 32.3a24.58 24.58 0 0 1-22.273 0l-55.952-32.3c-3.073-1.777-4.61-4.106-4.61-6.432v14.017c0 2.328 1.537 4.653 4.61 6.43l55.952 32.304a24.612 24.612 0 0 0 22.273 0l55.952-32.304c3.075-1.773 4.614-4.102 4.614-6.43v-14.017c0 2.326-1.54 4.655-4.614 6.432Z"></path><path fill="#f7f7fc" d="m1065.362 627.781-55.952-32.305c-3.073-1.775-4.61-4.103-4.61-6.426 0-2.328 1.537-4.654 4.61-6.433l55.952-32.304a24.642 24.642 0 0 1 22.273 0l55.952 32.304c3.075 1.78 4.614 4.105 4.614 6.433 0 2.323-1.54 4.651-4.614 6.426l-55.952 32.305a24.612 24.612 0 0 1-22.273 0Z"></path><path fill="url(#ap)" d="m1143.587 595.476-55.952 32.305a24.612 24.612 0 0 1-22.273 0l-55.952-32.305c-3.073-1.775-4.61-4.103-4.61-6.426v14.017c0 2.327 1.537 4.651 4.61 6.426l55.952 32.305a24.61 24.61 0 0 0 22.273 0l55.952-32.305c3.075-1.775 4.614-4.099 4.614-6.426V589.05c0 2.323-1.54 4.651-4.614 6.426Z"></path></g><g data-name="Layer 30"><path d="M846.694 848.564c2.013 1.16 6.325 1.88 12.462 1.88h93.82l51.221-29.572v-27.225l-55.738-32.18H842.152l-69.197 39.949s-3.735 2.277 0 4.575c1.716 1.057 17.399 10.046 17.399 10.046 1.78 1.026 5.365 1.704 10.415 1.848 0 0-2.201 2.891 0 4.162l17.757 10.252c1.777 1.028 5.362 1.706 10.411 1.85 0 0-1.772 3.14 0 4.163l17.757 10.252Z" style="mix-blend-mode:multiply" fill="url(#aq)"></path><path fill="url(#n)" d="M866.119 744.929a7.553 7.553 0 0 0-2.605-2.755l-14.36-8.29a2.58 2.58 0 0 0-2.605-.253l-73.158 42.237a2.589 2.589 0 0 1 2.606.254l14.357 8.29a8.178 8.178 0 0 1 3.69 6.389v16.58a2.586 2.586 0 0 1-1.084 2.383l73.159-42.237a2.589 2.589 0 0 0 1.083-2.383v-16.58a7.552 7.552 0 0 0-1.083-3.635Z"></path><path fill="url(#ar)" d="M866.119 712.402a7.554 7.554 0 0 0-2.605-2.754l-14.36-8.292a2.584 2.584 0 0 0-2.605-.252l-73.158 42.237a2.588 2.588 0 0 1 2.606.253l14.357 8.29a8.178 8.178 0 0 1 3.69 6.39v16.58a2.59 2.59 0 0 1-1.084 2.383L866.12 735a2.594 2.594 0 0 0 1.083-2.384v-16.581a7.546 7.546 0 0 0-1.083-3.633Z"></path><path fill="url(#as)" d="M894.287 761.193a7.528 7.528 0 0 0-2.604-2.755l-14.36-8.29a2.588 2.588 0 0 0-2.605-.253l-73.157 42.238a2.588 2.588 0 0 1 2.605.252l14.36 8.29a8.182 8.182 0 0 1 3.688 6.39v16.58a2.587 2.587 0 0 1-1.084 2.384l73.157-42.238a2.592 2.592 0 0 0 1.086-2.383v-16.58a7.557 7.557 0 0 0-1.086-3.635Z"></path><path fill="url(#at)" d="M922.458 777.458a7.554 7.554 0 0 0-2.607-2.757l-14.357-8.29a2.589 2.589 0 0 0-2.606-.253l-73.159 42.239a2.585 2.585 0 0 1 2.605.252l14.36 8.291a8.178 8.178 0 0 1 3.69 6.387v16.581a2.595 2.595 0 0 1-1.083 2.385l73.157-42.24a2.589 2.589 0 0 0 1.083-2.382V781.09a7.547 7.547 0 0 0-1.083-3.632Z"></path><path fill="url(#au)" d="M894.287 728.666a7.548 7.548 0 0 0-2.604-2.756l-14.36-8.29a2.585 2.585 0 0 0-2.605-.253l-73.157 42.237a2.586 2.586 0 0 1 2.605.254l14.36 8.29a8.19 8.19 0 0 1 3.688 6.388v16.581a2.586 2.586 0 0 1-1.084 2.383l73.157-42.237a2.59 2.59 0 0 0 1.086-2.383v-16.581a7.546 7.546 0 0 0-1.086-3.633Z"></path><path fill="url(#au)" d="M894.287 728.666a7.548 7.548 0 0 0-2.604-2.756l-14.36-8.29a2.585 2.585 0 0 0-2.605-.253l-73.157 42.237a2.586 2.586 0 0 1 2.605.254l14.36 8.29a8.19 8.19 0 0 1 3.688 6.388v16.581a2.586 2.586 0 0 1-1.084 2.383l73.157-42.237a2.59 2.59 0 0 0 1.086-2.383v-16.581a7.546 7.546 0 0 0-1.086-3.633Z"></path><path fill="url(#av)" d="M922.458 744.929a7.531 7.531 0 0 0-2.607-2.755l-14.357-8.29a2.588 2.588 0 0 0-2.606-.253l-73.159 42.237a2.586 2.586 0 0 1 2.605.254l14.36 8.29a8.178 8.178 0 0 1 3.69 6.389v16.58a2.59 2.59 0 0 1-1.083 2.383l73.157-42.237a2.59 2.59 0 0 0 1.083-2.383v-16.58a7.554 7.554 0 0 0-1.083-3.635Z"></path><path fill="#d0d4f6" d="M794.044 758.274a8.178 8.178 0 0 0-3.69-6.39l-14.357-8.29a2.252 2.252 0 0 0-3.69 2.13v16.581a8.185 8.185 0 0 0 3.69 6.39l14.357 8.289a2.251 2.251 0 0 0 3.69-2.13ZM822.214 774.536a8.19 8.19 0 0 0-3.688-6.389l-14.36-8.29a2.252 2.252 0 0 0-3.69 2.13v16.58a8.188 8.188 0 0 0 3.69 6.39l14.36 8.29a2.251 2.251 0 0 0 3.688-2.13ZM850.384 790.8a8.178 8.178 0 0 0-3.69-6.388l-14.36-8.29a2.25 2.25 0 0 0-3.688 2.13v16.58a8.182 8.182 0 0 0 3.688 6.389l14.36 8.291a2.252 2.252 0 0 0 3.69-2.13ZM794.044 790.8a8.178 8.178 0 0 0-3.69-6.388l-14.357-8.29a2.251 2.251 0 0 0-3.69 2.13v16.58a8.178 8.178 0 0 0 3.69 6.389l14.357 8.291a2.252 2.252 0 0 0 3.69-2.13ZM822.214 807.065a8.182 8.182 0 0 0-3.688-6.39l-14.36-8.29a2.253 2.253 0 0 0-3.69 2.13v16.581a8.197 8.197 0 0 0 3.69 6.39l14.36 8.289a2.25 2.25 0 0 0 3.688-2.13ZM850.384 823.327a8.178 8.178 0 0 0-3.69-6.387l-14.36-8.291a2.251 2.251 0 0 0-3.688 2.13v16.581a8.19 8.19 0 0 0 3.688 6.39l14.36 8.289a2.252 2.252 0 0 0 3.69-2.131Z"></path><path fill="url(#aw)" d="M866.119 679.874a7.583 7.583 0 0 0-2.605-2.755l-14.36-8.29a2.585 2.585 0 0 0-2.605-.253l-73.158 42.237a2.589 2.589 0 0 1 2.606.254l14.357 8.29a8.178 8.178 0 0 1 3.69 6.388v16.581a2.587 2.587 0 0 1-1.084 2.383l73.159-42.237a2.589 2.589 0 0 0 1.083-2.383v-16.58a7.554 7.554 0 0 0-1.083-3.635Z"></path><path fill="#d0d4f6" d="M822.214 742.01a8.183 8.183 0 0 0-3.688-6.39l-14.36-8.29a2.253 2.253 0 0 0-3.69 2.13v16.581a8.19 8.19 0 0 0 3.69 6.389l14.36 8.29a2.25 2.25 0 0 0 3.688-2.13Z"></path><path fill="url(#ax)" d="M894.287 696.138a7.53 7.53 0 0 0-2.604-2.755l-14.36-8.291a2.589 2.589 0 0 0-2.605-.252l-73.157 42.237a2.588 2.588 0 0 1 2.605.252l14.36 8.292a8.182 8.182 0 0 1 3.688 6.39v16.58a2.587 2.587 0 0 1-1.084 2.382l73.157-42.237a2.59 2.59 0 0 0 1.086-2.383v-16.58a7.557 7.557 0 0 0-1.086-3.635Z"></path><path fill="#d0d4f6" d="M850.384 758.274a8.178 8.178 0 0 0-3.69-6.39l-14.36-8.29a2.251 2.251 0 0 0-3.688 2.13v16.581a8.19 8.19 0 0 0 3.688 6.39l14.36 8.289a2.251 2.251 0 0 0 3.69-2.13Z"></path><path fill="url(#ay)" d="M922.458 712.402a7.532 7.532 0 0 0-2.607-2.754l-14.357-8.292a2.588 2.588 0 0 0-2.606-.252l-73.159 42.237a2.585 2.585 0 0 1 2.605.253l14.36 8.29a8.178 8.178 0 0 1 3.69 6.39v16.58a2.592 2.592 0 0 1-1.083 2.383L922.458 735a2.594 2.594 0 0 0 1.083-2.384v-16.581a7.548 7.548 0 0 0-1.083-3.633Z"></path><path fill="#d0d4f6" d="M794.044 790.8a8.185 8.185 0 0 0-3.69-6.388l-14.357-8.29c-2.03-1.17-3.69-.214-3.69 2.13v16.58a8.18 8.18 0 0 0 3.69 6.389l14.357 8.291c2.029 1.171 3.69.213 3.69-2.13ZM794.044 758.274a8.182 8.182 0 0 0-3.69-6.39l-14.357-8.29c-2.03-1.171-3.69-.213-3.69 2.13v16.581a8.18 8.18 0 0 0 3.69 6.39l14.357 8.289c2.029 1.17 3.69.212 3.69-2.13ZM822.214 774.536a8.183 8.183 0 0 0-3.688-6.389l-14.36-8.29c-2.03-1.17-3.69-.212-3.69 2.13v16.58a8.185 8.185 0 0 0 3.69 6.39l14.36 8.29c2.029 1.172 3.688.214 3.688-2.13ZM794.044 725.745a8.178 8.178 0 0 0-3.69-6.389l-14.357-8.289a2.251 2.251 0 0 0-3.69 2.13v16.58a8.178 8.178 0 0 0 3.69 6.389l14.357 8.291a2.252 2.252 0 0 0 3.69-2.13ZM822.214 807.065a8.182 8.182 0 0 0-3.688-6.39l-14.36-8.29c-2.03-1.171-3.69-.213-3.69 2.13v16.581a8.185 8.185 0 0 0 3.69 6.39l14.36 8.289c2.029 1.17 3.688.214 3.688-2.13ZM822.214 742.01a8.183 8.183 0 0 0-3.688-6.39l-14.36-8.29c-2.03-1.172-3.69-.213-3.69 2.13v16.581a8.185 8.185 0 0 0 3.69 6.389l14.36 8.29c2.029 1.17 3.688.214 3.688-2.13ZM850.384 823.327a8.182 8.182 0 0 0-3.69-6.387l-14.36-8.291c-2.027-1.171-3.688-.213-3.688 2.13v16.581a8.188 8.188 0 0 0 3.688 6.39l14.36 8.289c2.03 1.17 3.69.213 3.69-2.131ZM850.384 790.8a8.185 8.185 0 0 0-3.69-6.388l-14.36-8.29c-2.027-1.17-3.688-.214-3.688 2.13v16.58a8.187 8.187 0 0 0 3.688 6.389l14.36 8.291c2.03 1.171 3.69.213 3.69-2.13ZM850.384 758.274a8.182 8.182 0 0 0-3.69-6.39l-14.36-8.29c-2.027-1.171-3.688-.213-3.688 2.13v16.581a8.188 8.188 0 0 0 3.688 6.39l14.36 8.289c2.03 1.172 3.69.212 3.69-2.13Z"></path></g><g data-name="Layer 31"><path d="m1187.339 439.943 46.892-27.073v-36.9l-32.513-18.771c-.274-.003-.56-.023-.83-.023h-111.696c-6.138 0-10.453.717-12.464 1.879-2.01 1.162-1.72 2.764 1.35 4.537v69.934c-3.07 1.773-3.36 3.376-1.35 4.537 2.011 1.162 6.326 1.88 12.464 1.88Z" style="mix-blend-mode:multiply" fill="url(#az)"></path><path fill="#d0d4f6" d="m1019.288 405.04 55.847 32.247c3.07 1.77 5.85 1.938 7.86.776 2.012-1.16 3.256-3.65 3.256-7.194v-64.488a24.564 24.564 0 0 0-11.116-19.25l-55.847-32.244c-3.069-1.772-5.847-1.94-7.858-.78-2.013 1.162-3.255 3.653-3.255 7.196v64.488a24.561 24.561 0 0 0 11.113 19.25Z"></path><path fill="url(#aA)" d="M1086.25 430.869v-64.488a24.564 24.564 0 0 0-11.115-19.25l-55.847-32.244c-3.069-1.772-5.847-1.94-7.858-.78l73.157-42.237c2.01-1.16 4.79-.992 7.858.778l55.85 32.244a24.583 24.583 0 0 1 11.115 19.251v64.489c0 3.543-1.246 6.033-3.258 7.193l-73.156 42.238c2.01-1.16 3.255-3.65 3.255-7.194Z"></path><g style="mix-blend-mode:multiply"><path fill="#dce1f4" d="M1094.553 348.754a22.754 22.754 0 0 0-7.86-8.296l-55.847-32.245c-3.07-1.771-5.848-1.94-7.859-.779l-3.506 2.026c2.012-1.16 4.79-.993 7.859.779l55.847 32.242a24.556 24.556 0 0 1 11.114 19.252v64.488c0 3.543-1.243 6.033-3.254 7.194l3.506-2.024c2.011-1.16 3.255-3.652 3.255-7.195v-64.489a22.722 22.722 0 0 0-3.255-10.953Z"></path><path fill="#dce1f4" d="M1103.944 343.332a22.718 22.718 0 0 0-7.859-8.295l-55.85-32.244c-3.068-1.773-5.848-1.941-7.859-.78l-3.504 2.026c2.01-1.164 4.788-.994 7.857.776l55.849 32.246a24.559 24.559 0 0 1 11.115 19.25v64.488c0 3.543-1.246 6.033-3.255 7.195l3.506-2.023c2.009-1.162 3.255-3.652 3.255-7.197v-64.487a22.742 22.742 0 0 0-3.255-10.955Z"></path><path fill="#dce1f4" d="M1113.332 337.912a22.709 22.709 0 0 0-7.856-8.298l-55.85-32.243c-3.069-1.771-5.848-1.94-7.86-.78l-3.505 2.024c2.011-1.16 4.791-.992 7.859.78l55.85 32.244a24.582 24.582 0 0 1 11.114 19.25v64.488c0 3.543-1.246 6.035-3.257 7.196l3.505-2.026c2.011-1.16 3.258-3.65 3.258-7.194v-64.488a22.72 22.72 0 0 0-3.258-10.953Z"></path><path fill="#dce1f4" d="M1122.723 332.49a22.708 22.708 0 0 0-7.859-8.297l-55.848-32.244c-3.068-1.771-5.846-1.94-7.859-.777l-3.505 2.023c2.012-1.162 4.79-.994 7.858.778l55.849 32.246a24.562 24.562 0 0 1 11.114 19.248v64.488c0 3.545-1.244 6.034-3.256 7.197l3.506-2.025c2.013-1.162 3.255-3.65 3.255-7.196v-64.488a22.7 22.7 0 0 0-3.255-10.953Z"></path><path fill="#dce1f4" d="M1132.114 327.068a22.74 22.74 0 0 0-7.859-8.297l-55.849-32.244c-3.069-1.771-5.847-1.94-7.858-.78l-3.506 2.026c2.011-1.16 4.79-.994 7.859.78l55.848 32.242a24.569 24.569 0 0 1 11.114 19.251v64.489c0 3.543-1.242 6.033-3.255 7.193l3.506-2.023c2.013-1.16 3.255-3.652 3.255-7.194v-64.49a22.697 22.697 0 0 0-3.255-10.953Z"></path><path fill="#dce1f4" d="M1141.506 321.646a22.722 22.722 0 0 0-7.86-8.295l-55.849-32.246c-3.07-1.771-5.847-1.94-7.859-.777l-3.507 2.025c2.013-1.164 4.791-.994 7.86.778l55.849 32.244a24.563 24.563 0 0 1 11.114 19.25v64.488c0 3.545-1.244 6.033-3.255 7.195l3.507-2.023c2.01-1.164 3.254-3.653 3.254-7.198v-64.486a22.738 22.738 0 0 0-3.254-10.955Z"></path><path fill="#dce1f4" d="M1150.895 316.226a22.707 22.707 0 0 0-7.859-8.297l-55.848-32.244c-3.07-1.772-5.848-1.94-7.859-.78l-3.505 2.024c2.01-1.16 4.789-.992 7.858.78l55.849 32.244a24.568 24.568 0 0 1 11.114 19.25v64.488c0 3.543-1.245 6.035-3.256 7.195l3.506-2.025c2.011-1.16 3.255-3.65 3.255-7.194V327.18a22.706 22.706 0 0 0-3.255-10.953Z"></path></g></g><g data-name="Layer 32"><path style="mix-blend-mode:multiply" fill="url(#aB)" d="M1012.286 540.911v-31.646l-36.347-20.985H850.234v83.558H958.72l53.566-30.927z"></path><path fill="#f7f7fc" d="m850.234 481.685-78.079-45.079 78.079-45.078 78.075 45.078-78.075 45.079z"></path><path fill="#d0d4f6" d="m850.234 571.838-78.079-45.078v-90.154l78.079 45.079v90.153z"></path><path fill="#bdc1e4" d="m850.234 571.838 78.076-45.078v-90.154l-78.076 45.079v90.153z"></path><path fill="#dce1f4" d="m850.234 406.628-6.245-3.604 6.245-3.605 6.242 3.605-6.242 3.604zM864.775 415.023l-6.245-3.604 6.245-3.604 6.242 3.604-6.242 3.604zM879.316 423.42l-6.245-3.604 6.245-3.606 6.242 3.606-6.242 3.604zM893.857 431.815l-6.243-3.604 6.243-3.606 6.242 3.606-6.242 3.604zM908.399 440.21l-6.244-3.604 6.244-3.604 6.243 3.604-6.243 3.604zM835.691 415.023l-6.244-3.604 6.244-3.604 6.243 3.604-6.243 3.604zM850.234 423.42l-6.245-3.604 6.245-3.606 6.242 3.606-6.242 3.604zM864.775 431.815l-6.245-3.604 6.245-3.606 6.242 3.606-6.242 3.604zM879.316 440.21l-6.245-3.604 6.245-3.604 6.242 3.604-6.242 3.604zM893.857 448.606l-6.243-3.604 6.243-3.605 6.242 3.605-6.242 3.604zM821.15 423.42l-6.244-3.604 6.244-3.606 6.243 3.606-6.243 3.604zM835.691 431.815l-6.244-3.604 6.244-3.606 6.243 3.606-6.243 3.604zM850.234 440.21l-6.245-3.604 6.245-3.604 6.242 3.604-6.242 3.604zM864.775 448.606l-6.245-3.604 6.245-3.605 6.242 3.605-6.242 3.604zM879.316 457.001l-6.245-3.604 6.245-3.605 6.242 3.605-6.242 3.604zM806.609 431.815l-6.244-3.604 6.244-3.606 6.243 3.606-6.243 3.604zM821.15 440.21l-6.244-3.604 6.244-3.604 6.243 3.604-6.243 3.604zM835.691 448.606l-6.244-3.604 6.244-3.605 6.243 3.605-6.243 3.604zM850.234 457.001l-6.245-3.604 6.245-3.605 6.242 3.605-6.242 3.604zM864.775 465.396l-6.245-3.604 6.245-3.604 6.242 3.604-6.242 3.604zM792.067 440.21l-6.243-3.604 6.243-3.604 6.242 3.604-6.242 3.604zM806.609 448.606l-6.244-3.604 6.244-3.605 6.243 3.605-6.243 3.604zM821.15 457.001l-6.244-3.604 6.244-3.605 6.243 3.605-6.243 3.604zM835.691 465.396l-6.244-3.604 6.244-3.604 6.243 3.604-6.243 3.604zM850.234 473.793l-6.245-3.604 6.245-3.606 6.242 3.606-6.242 3.604zM785.234 459.255l-6.244-3.603v-7.21l6.244 3.606v7.207zM799.775 467.65l-6.244-3.604v-7.207l6.244 3.604v7.207zM814.316 476.047l-6.244-3.606v-7.207l6.244 3.605v7.208zM828.857 484.442l-6.243-3.604v-7.21l6.243 3.606v7.208zM843.4 492.839l-6.243-3.606v-7.208l6.243 3.604v7.21zM785.234 476.045l-6.244-3.604v-7.207l6.244 3.605v7.206zM799.775 484.442l-6.244-3.604v-7.21l6.244 3.606v7.208zM814.316 492.839l-6.244-3.606v-7.208l6.244 3.604v7.21zM828.857 501.234l-6.243-3.606v-7.208l6.243 3.606v7.208zM843.4 509.628l-6.243-3.603v-7.21l6.243 3.606v7.207zM785.234 492.837l-6.244-3.604v-7.208l6.244 3.604v7.208zM799.775 501.234l-6.244-3.606v-7.208l6.244 3.606v7.208zM814.316 509.628l-6.244-3.603v-7.21l6.244 3.606v7.207zM828.857 518.025l-6.243-3.606v-7.207l6.243 3.604v7.209zM843.4 526.42l-6.243-3.606v-7.208l6.243 3.606v7.208zM785.234 509.628l-6.244-3.603v-7.21l6.244 3.606v7.207zM799.775 518.025l-6.244-3.606v-7.207l6.244 3.604v7.209zM814.316 526.42l-6.244-3.606v-7.208l6.244 3.606v7.208zM828.857 534.815l-6.243-3.604v-7.21l6.243 3.606v7.208zM843.4 543.212l-6.243-3.606v-7.21l6.243 3.606v7.21zM785.234 526.42l-6.244-3.606v-7.208l6.244 3.606v7.208zM799.775 534.815l-6.244-3.604v-7.21l6.244 3.606v7.208zM814.316 543.212l-6.244-3.606v-7.21l6.244 3.606v7.21zM828.857 551.607l-6.243-3.606v-7.208l6.243 3.604v7.21zM843.4 560.001l-6.243-3.604v-7.209l6.243 3.606v7.207zM915.232 459.255l6.244-3.603v-7.21l-6.244 3.606v7.207zM900.691 467.65l6.244-3.604v-7.207l-6.244 3.604v7.207zM886.15 476.047l6.243-3.606v-7.207l-6.243 3.605v7.208zM871.609 484.442l6.243-3.604v-7.21l-6.243 3.606v7.208zM857.066 492.839l6.243-3.606v-7.208l-6.243 3.604v7.21zM915.232 476.045l6.244-3.604v-7.207l-6.244 3.605v7.206zM900.691 484.442l6.244-3.604v-7.21l-6.244 3.606v7.208zM886.15 492.839l6.243-3.606v-7.208l-6.243 3.604v7.21zM871.609 501.234l6.243-3.606v-7.208l-6.243 3.606v7.208zM857.066 509.628l6.243-3.603v-7.21l-6.243 3.606v7.207zM915.232 492.837l6.244-3.604v-7.208l-6.244 3.604v7.208zM900.691 501.234l6.244-3.606v-7.208l-6.244 3.606v7.208zM886.15 509.628l6.243-3.603v-7.21l-6.243 3.606v7.207zM871.609 518.025l6.243-3.606v-7.207l-6.243 3.604v7.209zM857.066 526.42l6.243-3.606v-7.208l-6.243 3.606v7.208zM915.232 509.628l6.244-3.603v-7.21l-6.244 3.606v7.207zM900.691 518.025l6.244-3.606v-7.207l-6.244 3.604v7.209zM886.15 526.42l6.243-3.606v-7.208l-6.243 3.606v7.208zM871.609 534.815l6.243-3.604v-7.21l-6.243 3.606v7.208zM857.066 543.212l6.243-3.606v-7.21l-6.243 3.606v7.21zM915.232 526.42l6.244-3.606v-7.208l-6.244 3.606v7.208zM900.691 534.815l6.244-3.604v-7.21l-6.244 3.606v7.208zM886.15 543.212l6.243-3.606v-7.21l-6.243 3.606v7.21zM871.609 551.607l6.243-3.606v-7.208l-6.243 3.604v7.21zM857.066 560.001l6.243-3.604v-7.209l-6.243 3.606v7.207z"></path></g><g data-name="Layer 33"><path d="M785.792 685.512V667.8l-48.55-28.03-113.502.92a22.723 22.723 0 0 0-11.114 2.657l-24.711 14.268 3.21 1.853-6.423 3.71-3.214-1.856-24.71 14.268c-3.069 1.775-4.602 4.097-4.602 6.42 0 2.32 1.533 4.644 4.603 6.413l24.709 14.27 3.621-2.091 6.426 3.712-3.619 2.09 24.71 14.267a22.743 22.743 0 0 0 11.114 2.657h96.556Z" style="mix-blend-mode:multiply" fill="url(#aC)"></path><path fill="url(#aD)" d="m662.797 613.535-3.229 1.865c-2.817-1.627-68.834-1.622-71.652.003l-3.23-1.868-26.66 9.214v14.544c0 2.131 1.415 4.264 4.232 5.89l22.428 12.956v38.186l6.423 3.71v-38.192l22.428 12.95a22.527 22.527 0 0 0 20.408 0l22.43-12.95v38.188l6.418-3.706V656.14l22.432-12.955c2.819-1.622 4.227-3.76 4.227-5.89v-14.545Z"></path><path fill="#f7f7fc" d="m656.375 659.843-22.43 12.95a22.527 22.527 0 0 1-20.408 0l-22.428-12.95-3.193 1.843 24.71 14.267a24.55 24.55 0 0 0 22.23 0l24.71-14.267Z"></path><path fill="url(#aE)" d="M634.855 675.953a24.55 24.55 0 0 1-22.23 0l-24.709-14.267v38.192l24.71 14.267a24.58 24.58 0 0 0 22.23 0l24.71-14.267v-38.192Z"></path><path fill="#dce1f4" d="m659.566 661.686-3.19-1.843-22.43 12.95a20.866 20.866 0 0 1-10.206 2.444h12.358Z"></path><path fill="#f7f7fc" d="M558.027 637.293v-7.138l-1.248.722c-3.07 1.774-4.603 4.092-4.603 6.416 0 2.323 1.533 4.647 4.603 6.42l24.713 14.27 3.194-1.85-22.428-12.95c-2.817-1.626-4.231-3.759-4.231-5.89Z"></path><path fill="#d0d4f6" d="M552.176 637.293v38.192c0 2.322 1.533 4.643 4.603 6.418l24.713 14.265v-38.186l-24.713-14.27c-3.07-1.772-4.603-4.096-4.603-6.419Z"></path><path fill="#bdc1e4" d="m584.686 694.325-3.194 1.843v-38.186l3.194-1.848v38.191z"></path><path fill="#dce1f4" d="m685.225 643.184-22.432 12.95 3.195 1.848 24.716-14.27c3.068-1.772 4.601-4.096 4.601-6.419 0-2.324-1.533-4.642-4.601-6.416l-1.248-.722v7.138c0 2.131-1.414 4.264-4.231 5.89Z"></path><path fill="#bdc1e4" d="m690.704 643.713-24.716 14.27v38.185l24.716-14.265c3.068-1.775 4.601-4.096 4.601-6.418v-38.192c0 2.323-1.533 4.647-4.601 6.42Z"></path><path fill="#d0d4f6" d="m662.793 694.325 3.195 1.843v-38.186l-3.195-1.848v38.191z"></path><path fill="#ed995a" d="m667.003 574.596-7.435-4.294-35.828 20.687-35.825-20.687-7.437 4.294 35.827 20.685-31.619 18.254 7.437 4.296 31.617-18.256 31.62 18.256 7.437-4.296-31.617-18.255 35.823-20.684z"></path><path fill="#f7f7fc" d="m659.566 615.403-35.826-20.687-35.824 20.687 24.71 14.268a24.58 24.58 0 0 0 22.23 0l24.746-14.29Z"></path><path fill="url(#aF)" d="m659.566 615.403-24.71 14.268a24.58 24.58 0 0 1-22.23 0l-24.71-14.268v38.189l24.71 14.265a24.552 24.552 0 0 0 22.23 0l24.71-14.265Z"></path><path fill="#f7f7fc" d="m617.315 591.005-35.827-20.683-24.71 14.267c-3.069 1.775-4.602 4.098-4.602 6.42 0 2.32 1.533 4.644 4.603 6.414l24.709 14.27Z"></path><path fill="#d0d4f6" d="m581.492 611.692-24.713-14.269c-3.07-1.77-4.603-4.094-4.603-6.414v38.19c0 2.322 1.533 4.646 4.603 6.414l24.713 14.27Z"></path><path fill="#bdc1e4" d="m584.686 609.847-3.194 1.845v38.19l3.194-1.845v-34.502l32.629-18.836v-3.694l-32.629 18.842z"></path><path fill="#f7f7fc" d="m690.704 584.59-24.713-14.268-35.827 20.683 35.827 20.687 24.713-14.269c3.068-1.77 4.603-4.094 4.603-6.414 0-2.322-1.535-4.645-4.603-6.42Z"></path><path fill="#bdc1e4" d="m665.991 611.692 24.715-14.269c3.067-1.77 4.601-4.094 4.601-6.414v38.19c0 2.322-1.534 4.646-4.601 6.414l-24.715 14.27Z"></path><path fill="#d0d4f6" d="m662.797 609.847-32.633-18.842v3.694l32.633 18.836v34.502l3.194 1.845v-38.19l-3.194-1.845z"></path><path fill="#f7f7fc" d="m623.74 587.296 35.828-20.682-24.713-14.267a24.581 24.581 0 0 0-22.23 0l-24.71 14.267Z"></path><path fill="#bdc1e4" d="M623.74 590.986v-3.69l35.828-20.682v3.688l-35.828 20.684z"></path><path fill="#d0d4f6" d="M623.74 590.986v-3.69l-35.825-20.682v3.688l35.825 20.684z"></path></g><g data-name="Layer 34"><path d="m943.32 236.127-93.025.92a22.7 22.7 0 0 0-11.114 2.658l-55.849 32.244c-3.07 1.771-4.603 4.094-4.603 6.416 0 2.324 1.533 4.644 4.603 6.417l55.849 32.245a22.744 22.744 0 0 0 11.114 2.658H966.91l45.436-26.233v-17.471Z" style="mix-blend-mode:multiply" fill="url(#aG)"></path><path fill="#f7f7fc" d="m839.18 226.027-55.848-32.244c-3.07-1.773-4.603-4.094-4.603-6.418 0-2.322 1.534-4.644 4.603-6.415l55.849-32.245a24.563 24.563 0 0 1 22.228 0l55.848 32.245c3.07 1.771 4.603 4.093 4.603 6.415 0 2.324-1.533 4.645-4.603 6.418l-55.848 32.244a24.563 24.563 0 0 1-22.228 0Z"></path><path fill="url(#aH)" d="m917.257 193.783-55.848 32.244a24.556 24.556 0 0 1-22.228-.001l-55.849-32.243c-3.07-1.773-4.603-4.094-4.603-6.418v84.475c0 2.324 1.534 4.646 4.603 6.418l55.849 32.244a24.563 24.563 0 0 0 22.228 0l55.848-32.244c3.07-1.772 4.603-4.094 4.603-6.416v-84.477c0 2.324-1.533 4.645-4.603 6.418Z"></path><path fill="#dce1f4" d="m850.295 179.4 13.799 7.965-13.799 7.968-13.799-7.968 13.799-7.965zM872.601 192.278l13.799 7.966-13.799 7.967-13.799-7.967 13.799-7.966zM894.908 179.4l13.8 7.965-13.8 7.968-13.799-7.968 13.799-7.965zM850.295 205.156l13.799 7.966-13.799 7.97-13.799-7.97 13.799-7.966zM827.988 166.519l13.799 7.968-13.799 7.968-13.799-7.968 13.799-7.968zM872.601 166.519l13.799 7.968-13.799 7.968-13.799-7.968 13.799-7.968zM850.295 153.641l13.799 7.966-13.799 7.967-13.799-7.967 13.799-7.966zM805.682 179.4l13.799 7.965-13.799 7.968-13.8-7.968 13.8-7.965zM827.988 192.278l13.799 7.966-13.799 7.967-13.799-7.967 13.799-7.966z"></path></g><g data-name="Layer 26"><path d="M623.74 450.571h116.299l45.753-26.416v-17.542l-68.59-39.6-93.462.658a22.79 22.79 0 0 0-11.147 2.668l-56.023 32.346c-3.08 1.777-4.618 4.108-4.618 6.437 0 2.331 1.538 4.66 4.618 6.436l56.023 32.347a22.833 22.833 0 0 0 11.147 2.666Z" style="mix-blend-mode:multiply" fill="url(#aI)"></path><path fill="#f7f7fc" d="m612.593 370.373-56.023-32.348c-3.08-1.775-4.618-4.105-4.618-6.436 0-2.33 1.538-4.66 4.618-6.437l56.023-32.346a24.635 24.635 0 0 1 22.298 0l56.024 32.346c3.08 1.777 4.617 4.108 4.617 6.437 0 2.331-1.537 4.66-4.617 6.436l-56.024 32.348a24.65 24.65 0 0 1-22.298 0Z"></path><path fill="url(#aJ)" d="m690.915 338.025-56.024 32.348a24.65 24.65 0 0 1-22.298 0l-56.023-32.348c-3.08-1.775-4.618-4.105-4.618-6.436v71.006c0 2.334 1.538 4.663 4.618 6.44l56.023 32.346a24.65 24.65 0 0 0 22.298 0l56.024-32.346c3.08-1.777 4.617-4.106 4.617-6.438V331.59c0 2.331-1.537 4.66-4.617 6.436Z"></path><path style="mix-blend-mode:multiply" fill="url(#p)" d="M609.996 331.587h.002-.006l-14.542-8.4h-16.104l14.552 8.4v.002l-14.552 8.4h16.104l14.542-8.398h.006l-.002-.004z"></path><path fill="#ed995a" d="m564.796 318.72 14.556 8.402-.006 12.867-14.55-8.398V318.72z"></path><path fill="#d67747" d="m579.346 327.1 14.556-8.4-.006 12.887-14.55 8.402V327.1z"></path><path fill="#f3b378" d="m579.346 310.298 14.556 8.402-14.556 8.4-14.55-8.4 14.55-8.402z"></path><path style="mix-blend-mode:multiply" fill="url(#aK)" d="m654.38 305.958.002-.002h-.005l-14.543-8.399h-16.103l14.551 8.399v.003l-14.551 8.401h16.103l14.543-8.401h.005l-.002-.001z"></path><path fill="#ed995a" d="m609.181 293.09 14.555 8.402-.005 12.868-14.55-8.401V293.09z"></path><path fill="#d67747" d="m623.731 301.469 14.555-8.399-.006 12.888-14.549 8.402v-12.891z"></path><path fill="#f3b378" d="m623.731 284.668 14.555 8.402-14.555 8.399-14.55-8.399 14.55-8.402z"></path><path style="mix-blend-mode:multiply" fill="url(#aL)" d="M698.781 331.587h.003-.007l-14.543-8.4h-16.103l14.552 8.4v.002l-14.552 8.4h16.103l14.543-8.398h.007l-.003-.004z"></path><path fill="#ed995a" d="m653.581 318.72 14.555 8.402-.005 12.867-14.55-8.398V318.72z"></path><path fill="#d67747" d="m668.131 327.1 14.555-8.4-.005 12.887-14.55 8.402V327.1z"></path><path fill="#f3b378" d="m668.131 310.298 14.555 8.402-14.555 8.4-14.55-8.4 14.55-8.402z"></path><path style="mix-blend-mode:multiply" fill="url(#aM)" d="m654.38 357.212.002-.002h-.005l-14.543-8.398h-16.103l14.551 8.398v.004l-14.551 8.4h16.103l14.543-8.4h.005l-.002-.002z"></path><path fill="#ed995a" d="m609.181 344.344 14.555 8.402-.005 12.868-14.55-8.4v-12.87z"></path><path fill="#d67747" d="m623.731 352.723 14.555-8.398-.006 12.887-14.549 8.402v-12.891z"></path><path fill="#f3b378" d="m623.731 335.923 14.555 8.402-14.555 8.398-14.55-8.398 14.55-8.402z"></path></g><g data-name="Layer 27"><path style="mix-blend-mode:multiply" fill="url(#aN)" d="M559.151 540.975V509.33l-61.299-35.391H397.099v83.558h133.435l28.617-16.522z"></path><path fill="#e1e5f4" d="M367.637 534.815h13.584v6.584h-13.584z" transform="rotate(180 374.429 538.107)" style="mix-blend-mode:multiply"></path><path fill="#e1e5f4" d="M339.862 518.719h13.584v6.584h-13.584z" transform="rotate(180 346.654 522.01)" style="mix-blend-mode:multiply"></path><path fill="url(#q)" d="M325.67 435.46v80.676c0 2.345 1.55 4.692 4.649 6.482a24.818 24.818 0 0 0 22.456 0l56.768-32.774c3.1-1.789 4.651-4.136 4.651-6.484v-80.675Z"></path><path fill="#f7f7fc" d="M409.543 396.203a23.155 23.155 0 0 0-11.6-2.683 22.77 22.77 0 0 0-10.857 2.684l-56.767 32.774c-3.1 1.789-4.65 4.135-4.648 6.482 0 2.345 1.55 4.692 4.648 6.48a24.823 24.823 0 0 0 22.456.001l56.768-32.773c3.1-1.79 4.651-4.137 4.651-6.483 0-2.347-1.551-4.691-4.651-6.482Z"></path><path fill="url(#aO)" d="M353.446 451.558v80.676c0 2.345 1.55 4.692 4.648 6.48a24.818 24.818 0 0 0 22.456 0l56.768-32.772c3.1-1.791 4.651-4.136 4.651-6.484v-80.676Z"></path><path fill="#f7f7fc" d="M437.318 412.3a23.155 23.155 0 0 0-11.6-2.683 22.768 22.768 0 0 0-10.857 2.684l-56.767 32.775c-3.1 1.787-4.65 4.133-4.648 6.482 0 2.345 1.55 4.69 4.648 6.478a24.811 24.811 0 0 0 22.456.002l56.768-32.773c3.1-1.79 4.651-4.137 4.651-6.483 0-2.347-1.552-4.691-4.651-6.482Z"></path><path fill="url(#aP)" d="M381.22 467.654v80.678c0 2.345 1.55 4.69 4.649 6.478a24.814 24.814 0 0 0 22.456.002l56.768-32.774c3.1-1.789 4.651-4.136 4.651-6.482V434.88Z"></path><path fill="#f7f7fc" d="M465.093 428.397a23.155 23.155 0 0 0-11.6-2.683 22.767 22.767 0 0 0-10.857 2.685l-56.767 32.773c-3.1 1.79-4.65 4.135-4.648 6.482 0 2.345 1.55 4.69 4.648 6.48a24.814 24.814 0 0 0 22.456.002l56.768-32.774c3.1-1.79 4.651-4.137 4.651-6.483s-1.551-4.691-4.651-6.482Z"></path></g></g><g><path fill="#f6f6fa" d="M471.673 759.69c5.363-3.095 5.363-8.161 0-11.257l-147.086-84.92c-5.363-3.096-14.137-3.096-19.498 0l-67.102 38.74c-5.361 3.097-5.361 8.161 0 11.257l147.088 84.922c5.361 3.094 14.135 3.094 19.498 0Z"></path><path fill="#d0d3f2" d="M262.655 708.67c-.002.033-.005.064-.005.096a.577.577 0 0 1 .005-.096ZM320.83 687.466l-6.291-3.631 6.291-3.632 6.29 3.632-6.29 3.631zM331.423 693.585l-6.29-3.632 6.29-3.633 6.291 3.633-6.291 3.632zM342.019 699.701l-6.291-3.631 6.291-3.633 6.291 3.633-6.291 3.631zM352.614 705.818l-6.29-3.629 6.29-3.636 6.289 3.636-6.289 3.629zM363.21 711.935l-6.293-3.63 6.293-3.633 6.289 3.633-6.289 3.63zM373.804 718.053l-6.291-3.633 6.291-3.63 6.289 3.63-6.289 3.633zM384.399 724.172l-6.291-3.634 6.291-3.633 6.289 3.633-6.289 3.634zM394.993 730.288l-6.291-3.633 6.291-3.631 6.291 3.631-6.291 3.633zM405.588 736.403l-6.291-3.63 6.291-3.633 6.289 3.633-6.289 3.63zM416.184 742.519l-6.291-3.629 6.291-3.634 6.289 3.634-6.289 3.629zM426.776 748.638l-6.289-3.631 6.289-3.634 6.291 3.634-6.291 3.631zM437.373 754.756l-6.291-3.633 6.291-3.632 6.289 3.632-6.289 3.633zM315.254 696.481l-11.311-6.528 6.291-3.633 11.311 6.53-6.291 3.631zM309.401 704.831l-15.612-9.017 6.291-3.632 15.614 9.017-6.293 3.632zM303.112 713.434l-19.918-11.5 6.292-3.635 19.915 11.502-6.289 3.633zM281.683 715.865l-11.309-6.529 8.517-4.919 11.311 6.532-8.519 4.916zM297.297 724.88l-11.309-6.53 8.515-4.916 11.31 6.528-8.516 4.918zM312.91 733.894l-11.309-6.529 8.517-4.918 11.309 6.53-8.517 4.917zM366.746 764.976l-11.309-6.529 8.517-4.92 11.308 6.533-8.516 4.916zM393.207 780.253l-22.183-12.807 8.516-4.918 22.183 12.807-8.516 4.918zM351.159 755.976l-33.944-19.596 8.518-4.919 33.944 19.599-8.518 4.916zM328.813 704.311l-9.254-5.343 6.289-3.633 9.256 5.345-6.291 3.631zM322.962 712.66l-9.254-5.344 6.29-3.632 9.255 5.343-6.291 3.633zM316.961 721.094l-9.255-5.345 6.291-3.631 9.255 5.343-6.291 3.633zM330.522 728.922l-9.256-5.343 6.291-3.631 9.256 5.343-6.291 3.631zM344.082 736.75l-9.257-5.341 6.289-3.635 9.257 5.345-6.289 3.631zM357.639 744.58l-9.254-5.345 6.291-3.631 9.254 5.344-6.291 3.632zM371.199 752.407l-9.255-5.342 6.291-3.631 9.255 5.342-6.291 3.631zM384.76 760.237l-9.254-5.344 6.29-3.632 9.255 5.345-6.291 3.631zM406.318 772.682l-17.255-9.959 6.291-3.632 17.255 9.961-6.291 3.63zM336.522 720.488l-9.255-5.344 6.291-3.63 9.255 5.341-6.291 3.633zM350.083 728.316l-9.258-5.343 6.291-3.633 9.256 5.345-6.289 3.631zM363.641 736.146l-9.255-5.343 6.291-3.635 9.254 5.345-6.29 3.633zM377.2 743.974l-9.255-5.343 6.291-3.633 9.255 5.344-6.291 3.632zM390.762 751.802l-9.257-5.343 6.292-3.633 9.255 5.346-6.29 3.63zM416.622 766.733l-21.558-12.446 6.289-3.632 21.56 12.447-6.291 3.631zM342.373 712.141l-9.257-5.345 6.293-3.631 9.255 5.344-6.291 3.632zM355.93 719.969l-9.254-5.345 6.291-3.631 9.256 5.344-6.293 3.632zM369.492 727.798l-9.255-5.344 6.291-3.632 9.254 5.343-6.29 3.633zM383.051 735.627l-9.254-5.345 6.29-3.63 9.255 5.343-6.291 3.632zM396.611 743.454l-9.257-5.343 6.291-3.631 9.255 5.341-6.289 3.633zM410.17 751.282l-9.255-5.341 6.289-3.633 9.257 5.343-6.291 3.631zM426.778 760.871l-12.303-7.102 6.291-3.633 12.301 7.103-6.289 3.632z"></path><path fill="url(#aQ)" d="m237.987 713.51 147.088 84.922c5.361 3.094 14.135 3.094 19.498 0l67.1-38.742c2.68-1.547 4.02-3.585 4.022-5.624v4.256l-.001-.002c.01 2.049-1.329 4.101-4.02 5.655l-67.101 38.74c-5.363 3.097-14.137 3.097-19.498 0l-147.088-84.92c-2.731-1.578-4.065-3.666-4.011-5.745l-.011-.002v-4.167c0 2.042 1.34 4.081 4.022 5.63Z"></path><path fill="url(#aR)" d="M481.423 614.77c0-6.192-4.387-13.79-9.75-16.886l-147.087-84.922c-5.362-3.094-9.749-.563-9.749 5.63v128.033c0 6.192 4.387 13.79 9.749 16.886l147.087 84.922c5.363 3.096 9.75.563 9.75-5.628Z"></path><path d="M471.673 748.433 324.586 663.51c-5.362-3.096-9.749-10.694-9.749-16.886v-118.13c13.172 7.605 7.485 41.653 17.505 47.438 7.042 4.065 8.667-14.328 18.957-8.386 10.833 6.253 15.164 57.694 27.35 64.728 9.75 5.63 11.104-10.495 20.808-4.893 12.998 7.505 12.774 42.792 25.5 50.14 13.27 7.663 23.562-42.344 36.044-35.138 7.016 4.051 15.14 30.012 20.422 44.231v56.19c0 6.19-4.387 8.724-9.75 5.628Z" style="mix-blend-mode:screen" fill="url(#aS)"></path><path style="mix-blend-mode:screen" fill="#e48e77" d="m397.832 696.958 3.25 1.876v-70.515l-3.25-1.875v70.514z"></path><path fill="#fff" d="M404.017 630.016a10.083 10.083 0 0 0-4.56-7.902c-2.521-1.453-4.562-.275-4.562 2.633a10.079 10.079 0 0 0 4.562 7.902c2.518 1.455 4.56.275 4.56-2.633Z"></path><path fill="#4043a3" d="m447.706 600.564 18.281 10.554v-7.083l-18.281-10.554v7.083zM449.426 610.728l16.561 9.563v-4.53l-16.561-9.561v4.528z"></path><path fill="url(#aT)" d="M481.423 742.805V614.77c0-6.192-4.387-13.79-9.75-16.886l-147.087-84.922c-2.65-1.528-5.058-1.68-6.82-.698l5.102-2.947.007.011c1.78-1.142 4.288-1.06 7.065.544l147.087 84.921c5.363 3.096 9.75 10.694 9.75 16.886v128.033c0 3.241-1.208 5.465-3.121 6.42l-4.863 2.806c1.625-1.074 2.63-3.182 2.63-6.133Z"></path></g><g data-name="Man on block"><path fill="url(#aU)" d="M295.977 888.54c0-15.762 9.986-16.211 9.986-16.211s5.41 0 14.196-3.65c8.667-3.601 20.886-2.212 14.055 10.386a2.604 2.604 0 0 1-.23.463 6.151 6.151 0 0 1-2.212 1.947l-21.826 12.801c-3.325 1.899-13.893-2.494-13.969-5.736Z"></path><path fill="#1e1c6a" d="M296.033 887.127v-.007c.193 3.246 10.615 7.551 13.913 5.667l21.826-12.803a19.875 19.875 0 0 0 3.073-2.24c-.204.438-.374.852-.631 1.32a2.604 2.604 0 0 1-.23.464 6.151 6.151 0 0 1-2.212 1.947l-21.826 12.801c-3.114 1.779-12.58-1.96-13.831-5.107a3.625 3.625 0 0 1-.098-.64 11.419 11.419 0 0 1 .016-1.402Z"></path><path fill="#fff" d="M300.039 870.257c2.567 0 11.625 2.299 11.625 2.299a5 5 0 0 0 .806 2.34c.095.102.168.205.25.31l.008-.004c1.782 1.248 3.598 3.212-.638 5.869-3.472 2.18-6.295.797-7.632-.54a6.947 6.947 0 0 0-2.462-2.791 6.453 6.453 0 0 0-2.358-1 1.382 1.382 0 0 0-.028-.217s-.654-6.266.429-6.266Z"></path><path fill="#1e1c6a" d="M214.953 847.053c4.05-14.646 5.851-30.145 9.814-47.345 9.466-1.88 85.027-38.58 95.228-18.831a4.789 4.789 0 0 1 .493 2.335h.004C324.112 801.602 312 873.5 312 873.5h-.012a3.335 3.335 0 0 1-1.686 1.936 9.507 9.507 0 0 1-8.599-.002c-1.08-.622-1.97-1.423-2.07-2.236h-.023s-5.26-42.77-3.65-61.693c-25.97 20.147-65.33 40.775-81.007 35.548Z"></path><path fill="url(#aV)" d="M326.968 909.716c0-15.76 9.988-16.214 9.988-16.214s5.41 0 14.194-3.647c8.669-3.602 20.887-2.21 14.059 10.386a2.99 2.99 0 0 1-.235.465 6.125 6.125 0 0 1-2.215 1.942l-21.82 12.801c-3.327 1.902-13.892-2.49-13.97-5.733Z"></path><path fill="#1e1c6a" d="M327.027 908.304v-.009c.19 3.246 10.612 7.551 13.912 5.667l21.82-12.8a19.88 19.88 0 0 0 3.079-2.241c-.202.434-.376.85-.63 1.32a2.99 2.99 0 0 1-.234.465 6.125 6.125 0 0 1-2.215 1.942l-21.82 12.801c-3.114 1.78-12.583-1.957-13.831-5.107a3.604 3.604 0 0 1-.098-.64 10.387 10.387 0 0 1 .017-1.398Z"></path><path fill="#fff" d="M331.03 891.43c2.569 0 11.625 2.299 11.625 2.299a5.1 5.1 0 0 0 .806 2.346c.092.1.17.201.253.307 0-.005.005-.005.007-.005 1.78 1.247 3.598 3.21-.64 5.87-3.47 2.181-6.291.798-7.63-.54a6.995 6.995 0 0 0-2.46-2.795 6.353 6.353 0 0 0-2.361-.996 1.178 1.178 0 0 0-.024-.216s-.656-6.27.424-6.27Z"></path><path fill="url(#r)" d="M351.485 804.387c3.62 18.393-8.494 90.29-8.494 90.29h-.01a3.342 3.342 0 0 1-1.688 1.932 9.492 9.492 0 0 1-8.597-.002c-1.078-.62-1.972-1.42-2.074-2.232h-.016s-5.263-42.77-3.654-61.693c8.739-6.471 24.533-17.194 24.533-28.295Z"></path><path style="mix-blend-mode:multiply" fill="url(#s)" d="M339.847 874.315H226.055l111.609 64.435-111.609 64.444h113.792l111.599-64.444-111.599-64.435z"></path><path fill="#d0d4f6" d="m226.055 1003.194-111.61-64.444v-83.393l111.61 64.44v83.397z"></path><path fill="#bdc1e4" d="m226.055 1003.194 111.597-64.435v-83.393l-111.597 64.431v83.397z"></path><path fill="#f0f0f4" d="m226.055 919.797 111.597-64.431-111.597-64.432-111.61 64.423 111.61 64.44z"></path><path d="M281.118 742.692c2.555-2.186 2.267-1.82 5.147-4.042a5.51 5.51 0 0 0 .279-1.653 5.41 5.41 0 0 1 1.762-.526 14.81 14.81 0 0 0 5.278-.44v.002c1.934-.495 6.135-12.099 16.076-11.523-2.765 2.217-6.462 6.807-5.688 6.326a3.594 3.594 0 0 1 4.528.387c-1.587 1.312-7.108 5.046-11.788 6.242v-.001a14.77 14.77 0 0 1-5.277.44 5.42 5.42 0 0 0-1.761.525 5.528 5.528 0 0 1-.28 1.655 158.169 158.169 0 0 0-5.314 4.323 902.33 902.33 0 0 1-2.962-1.715Z" style="mix-blend-mode:multiply" fill="url(#aW)"></path><path d="M332.687 756.34a5.627 5.627 0 0 0 .256-1.316c9.358.574 11.865-5.739 14.7-8.585 2.839-2.85 3.49-3.85 6.668-3.85 3.177 0 5.602-2.532 2.569-4.437-.746-.469-1.58-.91-2.36-1.296a5.788 5.788 0 0 1 .583.237 45.3 45.3 0 0 1 4.907 2.49c3.034 1.906.608 4.438-2.569 4.438-3.178 0-3.83 1-6.668 3.852-2.833 2.844-5.341 9.158-14.7 8.584a5.643 5.643 0 0 1-.256 1.314c-5.654 4.362-6.895 6.012-11.798 9.695l-3.34-1.87c4.806-3.645 6.46-4.977 12.008-9.257Z" style="mix-blend-mode:multiply" fill="url(#aX)"></path><path fill="url(#aY)" d="M257.473 758.041a28.915 28.915 0 0 1-9.103.587 11.213 11.213 0 0 1-2.276-.447 12.442 12.442 0 0 0 5.406 1.879 29.068 29.068 0 0 0 8.002-.378c-.672-.538-1.346-1.076-2.03-1.64Z"></path><path fill="url(#aZ)" d="M255.76 820.885c9.468-1.88 85.027-38.578 95.228-18.831a4.782 4.782 0 0 1 .493 2.333h.004c0 11.101-15.794 21.824-24.533 28.295-25.971 20.147-65.332 40.775-81.008 35.548-25.385-8.47-38.158-15.158-46.234-32.421-2.657-5.667-3.206-21.544-3.206-28.335 28.076-13.908 50.02-1.375 59.256 13.411Z"></path><path fill="#f4d1ad" d="M309.217 720.978a45.313 45.313 0 0 0-4.907-2.492c-3.177-1.513-8.243-.303-9.648.675-1.405.976-10.136 6.338-11.797 9.797 0 0-3.275 1.694-4.552 2.35l4.797 7.334s4.206-2.235 5.196-2.17a14.81 14.81 0 0 0 5.278-.44v.001c4.678-1.196 10.198-4.932 11.786-6.244-2.331-2.106-4.913.229-6.661 1.162a8.843 8.843 0 0 1 1.271-1.686c2.839-2.851 3.49-3.85 6.668-3.85 3.179 0 5.603-2.534 2.569-4.437Z"></path><path fill="url(#ba)" d="M286.265 738.65c1.682-5.017-4.28-9.435-7.803-9.1-16.472 7.177-24.46 11.45-30.092 9.787-23.687-11.071-14.033 18.06 0 19.29 16.425 1.44 24.76-9.844 37.895-19.977Z"></path><path fill="#bf5461" d="M217.69 701.62c-11.913 2.609-26.844 10.223-16.911 30.99 6.78 14.174 16.91-30.99 16.91-30.99Z"></path><path fill="url(#bb)" d="M219.86 840.328c23.331 13.09 55.018 8.31 59.385-10.088-15.885-53.301-19.463-88.735-19.085-110.41-10.292-7.946-19.06-15.011-26.6-16.7-7.876-1.763-18.294-3.127-22.889 1.276-14.32 19.317-10.586 52.722-14.167 103.07 2.464 16.114 11.865 26.409 23.356 32.852Z"></path><path fill="#f4d1ad" d="M222.68 702.568c3.973-3.747 5.178-9.802 5.84-16.657a33.639 33.639 0 0 1 .861-11.9c3.717-14.697 16.052-24.25 27.559-21.34 11.504 2.91 17.821 17.18 14.108 31.872-3.445 13.617-15.395 21.14-26.114 22.257-.534 1.16 1.482 2.83 3.354 4.038-8.79 2.335-16.94-2.274-21.266-4.628-2.239-1.218-3.824-2.39-4.343-3.642ZM325.35 748.002a704.743 704.743 0 0 0 3.36-1.745c.033-.742 2.636-8.988 9.664-11.057 1.446 2.192-1.04 3.969-3.071 6.02 2.44-1.953 5.616-3.907 7.022-4.885 1.405-.976 6.471-2.186 9.648-.675a45.731 45.731 0 0 1 4.907 2.492c3.033 1.905.608 4.437-2.57 4.437s-3.828 1-6.667 3.85c-2.839 2.852-5.349 9.184-14.748 8.585a3.925 3.925 0 0 0-2.124.793Z"></path><path fill="url(#bc)" d="M332.687 756.34c1.682-5.018-4.28-9.438-7.803-9.103-16.47 7.179-24.46 11.45-30.092 9.787-23.687-11.07-28.754-31.754-34.632-37.194-13.217-9.405-29.127 11.407-11.795 30.16 18.291 17.13 32.394 25.095 46.427 26.325 16.425 1.439 24.76-9.843 37.895-19.976Z"></path><path fill="#1e1c6a" d="M226.407 671.168c.001-.015-.018-.008-.013-.025 2.469-7.346 6.066-13.683 12.194-17.752 16.085-10.68 22.689-9.623 24.228-7.176 17.272-2.104 21.118 7.058 9.3 20.14-3.368 4.486-1.85 16.883-7.836 18.694.696-2.814-3.629-10.816-6.786 1.671-.338 1.341.596 1.858-.736 3.413-1.336 1.554-8.134 4.603-12.825 7.394-6.545 3.906-8.429-1.559-17.296-2.798a14.231 14.231 0 0 0-.279-8.446 40.513 40.513 0 0 1 .049-15.115Z"></path></g><g data-name="Thin line blocks"><path fill="#dce1f4" d="M1047.212 1158.098a.995.995 0 0 1-.5-.135l-131.51-75.928a.999.999 0 0 1 0-1.73l131.51-75.926a.995.995 0 0 1 1 0l131.51 75.926a.999.999 0 0 1 0 1.73l-131.51 75.928a.995.995 0 0 1-.5.135Zm-129.51-76.928 129.51 74.773 129.51-74.773-129.51-74.771Z"></path><path fill="#dce1f4" d="M1177.726 1081.17h2v146.66h-2zM914.702 1081.17h2v146.66h-2zM1046.212 1157.098h2v70.732h-2zM1040.168 1005.244a7.045 7.045 0 1 1 7.045 7.042 7.045 7.045 0 0 1-7.045-7.042Z"></path><path fill="#dce1f4" d="M908.658 1081.171a7.045 7.045 0 1 1 7.045 7.045 7.045 7.045 0 0 1-7.045-7.045ZM1040.17 1157.098a7.044 7.044 0 1 1 7.043 7.045 7.044 7.044 0 0 1-7.042-7.045ZM1171.68 1081.171a7.043 7.043 0 1 1 7.046 7.045 7.045 7.045 0 0 1-7.045-7.045ZM648.077 78.836a1.005 1.005 0 0 1-.5-.134l-63.236-36.51a1 1 0 0 1 0-1.732l63.236-36.51a1.005 1.005 0 0 1 1 0l63.237 36.51a1 1 0 0 1 0 1.733l-63.237 36.51a1.005 1.005 0 0 1-.5.133Zm-61.236-37.51 61.236 35.356 61.237-35.356-61.237-35.355Z"></path><path fill="#dce1f4" d="M648.077 151.856a1.004 1.004 0 0 1-.5-.134l-63.236-36.51a1.002 1.002 0 0 1-.5-.866v-73.02a1 1 0 0 1 2 0v72.443l62.236 35.932 62.237-35.932V41.326a1 1 0 0 1 2 0v73.02a1.002 1.002 0 0 1-.5.866l-63.237 36.51a1.004 1.004 0 0 1-.5.134Z"></path><path fill="#dce1f4" d="M648.077 151.856a1 1 0 0 1-1-1v-73.02a1 1 0 1 1 2 0v73.02a1 1 0 0 1-1 1ZM643.261 4.817a4.815 4.815 0 1 1 4.817 4.816 4.816 4.816 0 0 1-4.817-4.816Z"></path><circle cx="584.841" cy="41.326" r="4.816" fill="#dce1f4" transform="rotate(-61.014 584.841 41.326)"></circle><circle cx="584.841" cy="114.346" r="4.816" fill="#dce1f4"></circle><path fill="#dce1f4" d="M643.263 150.856a4.816 4.816 0 1 1 4.815 4.816 4.816 4.816 0 0 1-4.815-4.816ZM643.263 77.836a4.816 4.816 0 1 1 4.815 4.816 4.816 4.816 0 0 1-4.815-4.816ZM706.5 41.326a4.815 4.815 0 1 1 4.814 4.817 4.816 4.816 0 0 1-4.814-4.817ZM706.5 114.346a4.815 4.815 0 1 1 4.814 4.816 4.816 4.816 0 0 1-4.814-4.816Z"></path><path fill="#5555c6" d="M83.744 952.842a.994.994 0 0 1-.5-.135l-53.226-30.73a.999.999 0 0 1 0-1.73l53.224-30.731a.995.995 0 0 1 1 0l53.227 30.73a.999.999 0 0 1 0 1.73l-53.225 30.731a.993.993 0 0 1-.5.135Zm-51.226-31.73 51.226 29.576 51.225-29.577-51.227-29.576Z"></path><path fill="#5555c6" d="M83.744 1014.3a.993.993 0 0 1-.5-.134l-53.226-30.73a.997.997 0 0 1-.5-.866v-61.459a1 1 0 0 1 2 0v60.881l52.226 30.155 52.225-30.155v-60.88a1 1 0 0 1 2 0v61.458a.997.997 0 0 1-.5.866l-53.225 30.73a.993.993 0 0 1-.5.135Z"></path><path fill="#5555c6" d="M83.744 1014.3a1 1 0 0 1-1-1v-61.458a1 1 0 0 1 2 0v61.459a1 1 0 0 1-1 1ZM78.928 890.38a4.815 4.815 0 1 1 4.814 4.817 4.816 4.816 0 0 1-4.814-4.817Z"></path><circle cx="30.518" cy="921.111" r="4.816" fill="#5555c6"></circle><path fill="#5555c6" d="M25.701 982.57a4.816 4.816 0 1 1 4.817 4.816 4.814 4.814 0 0 1-4.817-4.816ZM78.928 1013.3a4.815 4.815 0 1 1 4.816 4.815 4.816 4.816 0 0 1-4.816-4.815ZM78.928 951.841a4.815 4.815 0 1 1 4.816 4.815 4.816 4.816 0 0 1-4.816-4.815Z"></path><circle cx="136.969" cy="921.111" r="4.816" fill="#5555c6"></circle><path fill="#5555c6" d="M132.155 982.57a4.815 4.815 0 1 1 4.814 4.816 4.814 4.814 0 0 1-4.814-4.816Z"></path></g><g><path d="m1167.945 923.603-19.542-11.282h-22.668l-49.733 28.713 19.541 11.282h21.834l-6.057 3.498h21.102l6.304-3.64-6.984-4.032h13.968l6.304-3.64-6.983-4.033h13.967l6.305-3.64-10.134-5.85Z" style="mix-blend-mode:multiply" fill="url(#bd)"></path><path fill="#ed995a" d="M1081.227 926.257v4.738l-6.447-3.722v7.445l-4.104-2.37v-12.183l10.551 6.092z"></path><path fill="#f3b378" d="m1081.227 926.257 6.305-3.64-10.551-6.092-6.305 3.64 10.551 6.092z"></path><path fill="#ed995a" d="M1094.515 918.585v4.738l-6.447-3.722v7.445l-4.103-2.37v-12.183l10.55 6.092z"></path><path fill="#f3b378" d="m1094.515 918.585 6.305-3.64-10.551-6.092-6.304 3.64 10.55 6.092z"></path><path fill="#ed995a" d="M1107.804 910.913v4.738l-6.447-3.722v7.445l-4.104-2.37v-12.183l10.551 6.092z"></path><path fill="#f3b378" d="m1107.804 910.913 6.304-3.64-10.551-6.092-6.304 3.64 10.551 6.092z"></path><path fill="#dce1f4" d="m1072.801 924.126 49.733-28.714 19.542 11.282-49.733 28.714-19.542-11.282z"></path><path fill="#bdc1e4" d="m1092.343 935.408 49.733-28.714v13.088l-49.733 28.713v-13.087z"></path><path fill="#d0d4f6" d="m1072.801 924.126 19.542 11.282v13.087l-19.542-11.282v-13.087z"></path><path fill="#ed995a" d="M1100.769 937.539v4.738l6.447 3.723v7.444l4.104 2.37V943.63l-10.551-6.091z"></path><path fill="#f3b378" d="m1111.32 943.63 6.304-3.639-10.55-6.092-6.305 3.64 10.551 6.091z"></path><path fill="#d67747" d="m1111.32 955.814 6.304-3.64v-12.183l-6.304 3.639v12.184z"></path><path fill="#ed995a" d="M1114.057 929.867v4.738l6.447 3.723v7.444l4.104 2.37v-12.184l-10.551-6.091z"></path><path fill="#f3b378" d="m1124.608 935.958 6.305-3.639-10.551-6.092-6.305 3.64 10.551 6.091z"></path><path fill="#d67747" d="m1124.608 948.142 6.305-3.64v-12.183l-6.305 3.639v12.184z"></path><path fill="#ed995a" d="M1127.346 922.195v4.738l6.447 3.723v7.444l4.103 2.37v-12.184l-10.55-6.091z"></path><path fill="#f3b378" d="m1137.897 928.286 6.304-3.639-10.551-6.092-6.304 3.64 10.551 6.091z"></path><path fill="#d67747" d="m1137.896 940.47 6.305-3.64v-12.183l-6.304 3.639-.001 12.184z"></path><path fill="#d0d4f6" d="m1103.758 924.982-8.959 5.172-12.897-7.447 8.958-5.172 12.898 7.447z"></path><path d="m1107.074 933.899-6.305 3.64 2.614 1.509 6.304-3.64-2.613-1.509z" style="mix-blend-mode:multiply" fill="#f2f2f7"></path><path d="m1103.383 939.048 1.499 5.604-4.113-2.375v-4.738l2.614 1.509zM1120.362 926.227l-6.305 3.64 2.614 1.509 6.304-3.64-2.613-1.509z" style="mix-blend-mode:multiply" fill="#f2f2f7"></path><path d="m1116.671 931.376 1.5 5.604-4.114-2.375v-4.738l2.614 1.509zM1133.65 918.555l-6.304 3.64 2.613 1.509 6.305-3.64-2.614-1.509z" style="mix-blend-mode:multiply" fill="#f2f2f7"></path><path d="m1129.959 923.704 1.5 5.604-4.113-2.375v-4.738l2.613 1.509z" style="mix-blend-mode:multiply" fill="#f2f2f7"></path><path fill="url(#be)" d="M1165.392 821.862a13.05 13.05 0 0 0-13.178 0l-84.832 48.603 5.27 3.043 82.197-47.082a7.896 7.896 0 0 1 11.389 4.176l5.744 3.316v-.642a13.043 13.043 0 0 0-6.59-11.414Z"></path><path style="mix-blend-mode:multiply" fill="url(#bf)" d="m1145.404 846.323-4.718-2.724 24.032-13.875 4.718 2.725-24.032 13.874z"></path><path d="M1105.73 887.683 1086.19 876.4h-22.668l-49.733 28.714 19.541 11.282h21.834l-6.057 3.497h21.102l6.304-3.64-6.984-4.032h13.968l6.304-3.64-6.983-4.032h13.967l6.305-3.64-10.134-5.85Z" style="mix-blend-mode:multiply" fill="url(#bg)"></path><path style="mix-blend-mode:multiply" fill="url(#bh)" d="m999.309 924.505-3.996-2.307 24.032-13.875 3.996 2.307-24.032 13.875z"></path><path fill="#ed995a" d="M1019.013 890.337v4.738l-6.447-3.722v7.444l-4.104-2.369v-12.183l10.551 6.092z"></path><path fill="#f3b378" d="m1019.013 890.337 6.305-3.64-10.551-6.092-6.305 3.64 10.551 6.092z"></path><path fill="#ed995a" d="M1032.301 882.665v4.738l-6.447-3.722v7.444l-4.103-2.369v-12.183l10.55 6.092z"></path><path fill="#f3b378" d="m1032.301 882.665 6.305-3.64-10.551-6.092-6.304 3.64 10.55 6.092z"></path><path fill="#ed995a" d="M1045.59 874.993v4.738l-6.447-3.722v7.444l-4.104-2.369v-12.183l10.551 6.092z"></path><path fill="#f3b378" d="m1045.59 874.993 6.304-3.64-10.551-6.092-6.304 3.64 10.551 6.092z"></path><path fill="#dce1f4" d="m1010.587 888.205 49.733-28.713 19.542 11.282-49.733 28.714-19.542-11.283z"></path><path fill="#bdc1e4" d="m1030.129 899.488 49.733-28.714v13.088l-49.733 28.713v-13.087z"></path><path fill="#d0d4f6" d="m1010.587 888.205 19.542 11.283v13.087l-19.542-11.282v-13.088z"></path><path style="mix-blend-mode:multiply" fill="#dce1f4" d="m1016.008 904.402 5.73 3.308v-5.713h-5.73v2.405z"></path><path fill="#ed995a" d="M1038.555 901.619v4.738l6.447 3.723v7.444l4.104 2.369V907.71l-10.551-6.091z"></path><path fill="#f3b378" d="m1049.106 907.71 6.304-3.64-10.55-6.091-6.305 3.64 10.551 6.091z"></path><path fill="#d67747" d="m1049.106 919.893 6.304-3.64V904.07l-6.304 3.64v12.183z"></path><path fill="#ed995a" d="M1051.843 893.947v4.738l6.447 3.723v7.444l4.104 2.369v-12.183l-10.551-6.091z"></path><path fill="#f3b378" d="m1062.394 900.038 6.305-3.64-10.551-6.091-6.305 3.64 10.551 6.091z"></path><path fill="#d67747" d="m1062.394 912.221 6.305-3.64v-12.183l-6.305 3.64v12.183z"></path><path fill="#ed995a" d="M1065.132 886.275v4.738l6.447 3.723v7.444l4.104 2.369v-12.183l-10.551-6.091z"></path><path fill="#f3b378" d="m1075.683 892.366 6.304-3.64-10.551-6.091-6.304 3.64 10.551 6.091z"></path><path fill="#d67747" d="m1075.683 904.549 6.304-3.64v-12.183l-6.304 3.64v12.183z"></path><path fill="#d0d4f6" d="m1041.544 889.061-8.959 5.172-12.897-7.446 8.958-5.172 12.898 7.446z"></path><path d="m1044.86 897.979-6.305 3.64 2.614 1.509 6.304-3.64-2.613-1.509z" style="mix-blend-mode:multiply" fill="#f2f2f7"></path><path d="m1041.169 903.128 1.499 5.604-4.113-2.375v-4.738l2.614 1.509zM1058.148 890.307l-6.305 3.64 2.614 1.509 6.304-3.64-2.613-1.509z" style="mix-blend-mode:multiply" fill="#f2f2f7"></path><path d="m1054.457 895.456 1.5 5.604-4.114-2.375v-4.738l2.614 1.509zM1071.436 882.635l-6.304 3.64 2.613 1.509 6.305-3.64-2.614-1.509z" style="mix-blend-mode:multiply" fill="#f2f2f7"></path><path d="m1067.745 887.784 1.5 5.604-4.113-2.375v-4.738l2.613 1.509z" style="mix-blend-mode:multiply" fill="#f2f2f7"></path><path fill="#d0d4f6" d="M983.386 929.162a8.475 8.475 0 0 1 7.668 0c2.118 1.223 2.118 3.205 0 4.428a8.475 8.475 0 0 1-7.668 0c-2.118-1.223-2.118-3.205 0-4.428Z"></path><path fill="url(#bi)" d="M1021.738 901.997a4.119 4.119 0 0 0-1.863-3.228 1.285 1.285 0 0 0-1.334-.111l-.004-.007-23.993 13.852a20.263 20.263 0 0 0-10.104 17.501 8.566 8.566 0 0 0 .119 1.355h.01a1.299 1.299 0 0 0 .774 1.135 4.202 4.202 0 0 0 3.802 0 1.187 1.187 0 0 0 .717-1.306 7.49 7.49 0 0 1-.15-1.184 14.98 14.98 0 0 1 7.469-12.937l23.88-13.788-.024-.045a1.19 1.19 0 0 0 .701-1.237Z"></path></g></g></svg>