<svg xmlns="http://www.w3.org/2000/svg" data-name="Layer 1" viewBox="0 0 200 175" id="male-developer"><rect width="115.37" height="1.15" x="28.66" y="155" fill="#0e0e27"></rect><path d="M161.7,81.83l-9.13-9.13,9.19-9.2a15,15,0,1,0,9.28,9Z"></path><path d="M171.16,71.93l-9.46,9.45L153,72.7l9.33-9.33-.48-.16a15.39,15.39,0,0,0-4.9-.8,15.3,15.3,0,1,0,10.85,26.12,15.37,15.37,0,0,0,3.52-16.15Zm-3.79,16.16a14.69,14.69,0,1,1-6.19-24.44l-9.05,9.05,9.57,9.57,9.2-9.21A14.73,14.73,0,0,1,167.37,88.09Z"></path><rect width="58.83" height="10.97" x="99.34" y="100.45" transform="rotate(-45 128.752 105.94)"></rect><path d="M103.85,122.64l-.22.22,8.2,8.2,41.82-41.82.22-.22-8.2-8.2Zm8,7.54-7.31-7.32L145.67,81.7,153,89Z"></path><rect width="21.05" height="96.86" x="68.6" y="33.86" fill="#ffcf0b" transform="rotate(-53.22 79.131 82.293)"></rect><path d="M46.58,44.43l-13,17.36L111.42,120l.25.19,13-17.37L46.83,44.61Zm65,74.85L34.47,61.66,46.7,45.3l77.08,57.62Z"></path><rect width="5.13" height=".63" x="46.41" y="49.43" transform="rotate(-53.24 48.963 49.742)"></rect><rect width="5.13" height=".63" x="49.37" y="51.64" transform="rotate(-53.25 51.942 51.96)"></rect><rect width="9.68" height=".62" x="48.69" y="55.68" transform="rotate(-53.2 53.536 55.994)"></rect><rect width="5.13" height=".62" x="55.53" y="56.25" transform="rotate(-53.2 58.1 56.557)"></rect><rect width="5.13" height=".62" x="58.5" y="58.46" transform="rotate(-53.2 61.07 58.78)"></rect><rect width="9.68" height=".63" x="57.82" y="62.51" transform="rotate(-53.17 62.654 62.813)"></rect><rect width="5.13" height=".63" x="64.66" y="63.07" transform="rotate(-53.22 67.22 63.378)"></rect><rect width="5.13" height=".63" x="67.62" y="65.29" transform="rotate(-53.2 70.194 65.598)"></rect><rect width="9.68" height=".63" x="66.94" y="69.33" transform="rotate(-53.25 71.787 69.635)"></rect><rect width="5.13" height=".62" x="73.78" y="69.89" transform="rotate(-53.26 76.347 70.203)"></rect><rect width="5.13" height=".63" x="76.75" y="72.11" transform="rotate(-53.31 79.312 72.423)"></rect><rect width="9.68" height=".62" x="76.07" y="76.15" transform="rotate(-53.25 80.92 76.46)"></rect><rect width="5.13" height=".63" x="82.91" y="76.71" transform="rotate(-53.31 85.48 77.028)"></rect><rect width="5.13" height=".63" x="85.87" y="78.93" transform="rotate(-53.26 88.435 79.246)"></rect><rect width="9.68" height=".63" x="85.19" y="82.97" transform="rotate(-53.26 90.031 83.279)"></rect><rect width="5.13" height=".62" x="92.04" y="83.54" transform="rotate(-53.17 94.595 83.845)"></rect><rect width="5.13" height=".63" x="95" y="85.75" transform="rotate(-53.26 97.556 86.066)"></rect><rect width="9.68" height=".63" x="94.32" y="89.79" transform="rotate(-53.31 99.167 90.108)"></rect><rect width="5.13" height=".63" x="101.16" y="90.36" transform="rotate(-53.17 103.711 90.668)"></rect><rect width="5.13" height=".63" x="104.13" y="92.57" transform="rotate(-53.2 106.698 92.882)"></rect><rect width="9.68" height=".63" x="103.45" y="96.61" transform="rotate(-53.16 108.283 96.923)"></rect><rect width="5.13" height=".63" x="110.29" y="97.18" transform="rotate(-53.2 112.858 97.49)"></rect><polygon points="114.03 101.57 114.53 101.95 117.6 97.84 117.1 97.47 114.03 101.57"></polygon><rect width="9.68" height=".63" x="112.57" y="103.44" transform="rotate(-53.22 117.424 103.75)"></rect><path fill="#005fd7" d="M85.45,29.05l-6.2-9.56a.77.77,0,0,0-1.4.59l2.33,11,24.71,64.22a1.25,1.25,0,0,0,1.63.72l2.92-1.14a1.26,1.26,0,0,0,.72-1.63Z"></path><path d="M85.71,28.88l-6.2-9.56a1.12,1.12,0,0,0-1.76-.08,1.06,1.06,0,0,0-.2.9l2.34,11.07L104.6,95.44a1.57,1.57,0,0,0,1.46,1,1.38,1.38,0,0,0,.57-.11l2.93-1.13a1.59,1.59,0,0,0,.9-2Zm23.62,65.73-2.93,1.14a1,1,0,0,1-1.22-.54L80.48,31,78.16,20a.43.43,0,0,1,.08-.38.51.51,0,0,1,.38-.18.43.43,0,0,1,.37.21l6.17,9.5,24.71,64.23A.94.94,0,0,1,109.33,94.61Z"></path><polygon points="93.21 65.03 97.97 77.37 103.24 75.32 98.48 62.98 93.21 65.03"></polygon><path d="M92.81,64.85l5,12.93,5.86-2.28-5-12.93ZM98.15,77,93.62,65.21l4.69-1.83,4.53,11.76Z"></path><path fill="#ffcf0b" d="M93.5,50.06a1.43,1.43,0,0,0-1.86-.83l-2.59,1a1.44,1.44,0,0,0-.82,1.87l2,5.28a1.43,1.43,0,0,0,1.86.82l2.59-1a1.43,1.43,0,0,0,.82-1.86Z"></path><path fill="#20171f" d="M93.79,49.94a1.77,1.77,0,0,0-2.26-1l-2.59,1a1.76,1.76,0,0,0-1,2.27l2,5.28a1.75,1.75,0,0,0,1.63,1.12,1.72,1.72,0,0,0,.63-.12l2.59-1a1.74,1.74,0,0,0,1-2.26Zm.81,7-2.59,1a1.14,1.14,0,0,1-1.45-.64l-2-5.29a1.14,1.14,0,0,1,.65-1.46l2.59-1a1.14,1.14,0,0,1,1.45.65l2,5.28A1.13,1.13,0,0,1,94.6,56.91Z"></path><polygon fill="#fff" points="128.04 35.71 127.24 38.07 137.11 41.42 137.98 39.09 137.63 23.58 128.04 35.71"></polygon><path d="M137.73,23.29a.31.31,0,0,0-.35.1l-9.59,12.12a.31.31,0,0,0-.05.1l-.8,2.36a.31.31,0,0,0,.2.39L137,41.71a.18.18,0,0,0,.1,0,.3.3,0,0,0,.29-.2l.88-2.33a.5.5,0,0,0,0-.12l-.36-15.51A.3.3,0,0,0,137.73,23.29ZM136.93,41l-9.29-3.16.68-2,9-11.4L137.67,39Z"></path><polygon fill="#ffcf0b" points="134.52 27.51 137.74 28.61 137.63 23.58 134.52 27.51"></polygon><path d="M134,27.67l4.07,1.38-.15-6.34Zm1-.31,2.3-2.9.08,3.71Z"></path><path fill="#ffcf0b" d="M137.93,39.13l0-.07h0S137.93,39.11,137.93,39.13Z"></path><polygon points="137.64 39.01 137.63 39.03 137.93 39.13 137.86 39.36 137.93 39.13 138.23 39.22 138.2 39.21 138.23 39.22 138.24 39.16 138.25 39.16 138.34 38.86 137.69 38.65 137.64 39.01"></polygon><path fill="#ffcf0b" d="M136.28,39.94a1.3,1.3,0,0,1-.82-1.59h0a1.29,1.29,0,0,1-2.44-.83h0a1.29,1.29,0,0,1-2.44-.83h0a1.29,1.29,0,0,1-1.62.75,1.27,1.27,0,0,1-.82-1.58h0L117,68.36l9.9,3.36,11-32.53h0A1.3,1.3,0,0,1,136.28,39.94Z"></path><path d="M137.61,39.07a1,1,0,0,1-1.22.57,1,1,0,0,1-.63-1.2l0-.3-.56-.19-.11.28a1,1,0,0,1-1.23.57,1,1,0,0,1-.62-1.2l0-.3-.56-.19-.11.27a1,1,0,0,1-1.23.58,1,1,0,0,1-.62-1.2l0-.3-.56-.2-.11.28a1,1,0,0,1-1.23.58,1,1,0,0,1-.62-1.21l.07-.28-.57-.21L116.66,68.26l-.1.29,10.49,3.56L138.2,39.29l.1-.3-.58-.2Zm-11,32.25-9.3-3.16,10.56-31.09a1.59,1.59,0,0,0,.82.64,1.64,1.64,0,0,0,1.46-.23,1.58,1.58,0,0,0,1,1.07,1.63,1.63,0,0,0,1.46-.22,1.59,1.59,0,0,0,1,1.06,1.6,1.6,0,0,0,1.46-.22,1.57,1.57,0,0,0,1,1.06,1.55,1.55,0,0,0,1,0Z"></path><path fill="#ffcf0b" d="M128,35.77a.19.19,0,0,1,0-.07h0Z"></path><polygon points="127.73 35.68 128.03 35.76 127.96 36 128.04 35.76 128.33 35.85 128.23 35.82 128.33 35.84 128.5 35.51 127.85 35.31 127.73 35.68"></polygon><path fill="#ef005e" d="M115.26,73.35a5.05,5.05,0,0,0,3.16,6.4l.34.12a5.05,5.05,0,0,0,6.4-3.16l.77-2.25L116,71.1Z"></path><path fill="#20171f" d="M115,73.25A5.35,5.35,0,0,0,118.32,80l.34.12a5.35,5.35,0,0,0,6.8-3.34l.86-2.55-10.49-3.56Zm10.56,1.41-.67,2a4.72,4.72,0,0,1-4.47,3.21,4.61,4.61,0,0,1-1.52-.25l-.35-.12a4.74,4.74,0,0,1-3-6l.66-2Z"></path><rect width="2.95" height="10.45" x="119.96" y="66.22" fill="#fff" transform="rotate(-71.24 121.438 71.438)"></rect><path d="M127,71.43l-9.9-3.36a.32.32,0,0,0-.4.19l-1,2.8a.34.34,0,0,0,0,.24.3.3,0,0,0,.18.15l9.9,3.36a.16.16,0,0,0,.1,0,.3.3,0,0,0,.29-.21l1-2.79a.33.33,0,0,0,0-.24A.35.35,0,0,0,127,71.43Zm-1.25,2.69L116.4,71l.75-2.2,9.31,3.16Z"></path><rect width="20.76" height=".62" x="116.79" y="46.13" transform="rotate(-71.22 127.175 46.435)"></rect><rect width="20.76" height=".62" x="119.05" y="47.45" transform="rotate(-71.19 129.437 47.753)"></rect><rect width="20.76" height=".63" x="121.6" y="48.25" transform="rotate(-71.26 131.984 48.566)"></rect><path fill="#00a9ff" d="M129.4,73.91,134,71a33.58,33.58,0,0,0-3.11-6.27l-5.09,1.9a29.11,29.11,0,0,0-2.55-3.18,27.72,27.72,0,0,0-3-2.78l2.29-4.94a34,34,0,0,0-6-3.58l-3.24,4.34a28.61,28.61,0,0,0-7.89-2l-.72-5.31a33.46,33.46,0,0,0-7,.25l-.38,5.3a28.81,28.81,0,0,0-7.78,2.53l-3.4-4a34.61,34.61,0,0,0-5.75,4l2.47,4.53-.09.09a28.33,28.33,0,0,0-5.11,6.28L72.8,66.72a33.07,33.07,0,0,0-2.68,6.51l4.39,2.4a28.78,28.78,0,0,0-.93,8.2l-4.73,1.36a33,33,0,0,0,1.24,7L75,91.79a28.76,28.76,0,0,0,3.68,7.43l-3.21,3.66c.7.92,1.46,1.83,2.27,2.71a31,31,0,0,0,2.53,2.47l3.89-2.91a28.74,28.74,0,0,0,7.12,4.23l-.73,4.85A34,34,0,0,0,97.35,116l1.72-4.62a28.61,28.61,0,0,0,8.26-.29l2,4.57a33.76,33.76,0,0,0,6.7-2.16l-1.08-5a29,29,0,0,0,6.66-4.6.76.76,0,0,1,.09-.09l4.32,2.81a33.12,33.12,0,0,0,4.46-5.42l-3.7-3.69A28.32,28.32,0,0,0,130,90l5.31,0a33.31,33.31,0,0,0,.8-7l-5.24-1.14A28.67,28.67,0,0,0,129.4,73.91Z"></path><path d="M136.14,82.76l-5-1.08a28.65,28.65,0,0,0-1.36-7.63l4.37-2.77a.31.31,0,0,0,.13-.37,34.1,34.1,0,0,0-3.13-6.32.32.32,0,0,0-.38-.13l-4.86,1.82a28.26,28.26,0,0,0-2.44-3,28.55,28.55,0,0,0-2.82-2.66l2.19-4.72a.31.31,0,0,0-.1-.38,34.18,34.18,0,0,0-6-3.61.31.31,0,0,0-.39.09l-3.1,4.15a28.68,28.68,0,0,0-7.5-2L105,49.11a.31.31,0,0,0-.29-.27,33.27,33.27,0,0,0-7.06.26.31.31,0,0,0-.27.28L97,54.44a28.45,28.45,0,0,0-7.41,2.41l-3.24-3.79A.31.31,0,0,0,86,53a34.2,34.2,0,0,0-5.8,4.06.3.3,0,0,0-.07.38l2.35,4.32a28.8,28.8,0,0,0-4.95,6.06l-4.62-1.39a.33.33,0,0,0-.37.15,33.74,33.74,0,0,0-2.7,6.57.31.31,0,0,0,.15.36l4.18,2.29a29,29,0,0,0-.89,7.81l-4.5,1.29a.32.32,0,0,0-.23.32,33.36,33.36,0,0,0,1.26,7,.32.32,0,0,0,.32.22l4.64-.33a28.63,28.63,0,0,0,3.51,7.07l-3.05,3.48a.3.3,0,0,0,0,.39,34.75,34.75,0,0,0,2.29,2.75A35.14,35.14,0,0,0,80,108.29a.32.32,0,0,0,.4,0l3.7-2.77a29.24,29.24,0,0,0,6.77,4l-.69,4.6a.31.31,0,0,0,.2.34,34.2,34.2,0,0,0,6.89,1.8h0a.3.3,0,0,0,.29-.2l1.64-4.4a28.71,28.71,0,0,0,7.86-.27l2,4.35a.32.32,0,0,0,.35.18,33.79,33.79,0,0,0,6.76-2.19.31.31,0,0,0,.18-.35l-1-4.72a28.84,28.84,0,0,0,6.42-4.46l4.12,2.68a.32.32,0,0,0,.39,0,33.65,33.65,0,0,0,4.5-5.48.3.3,0,0,0,0-.39l-3.52-3.52a28.28,28.28,0,0,0,3-7.2l5.07,0h0a.31.31,0,0,0,.31-.25,33.65,33.65,0,0,0,.8-7A.32.32,0,0,0,136.14,82.76ZM135,89.71l-5.06,0h0a.32.32,0,0,0-.31.24,27.73,27.73,0,0,1-3.08,7.48.3.3,0,0,0,0,.38l3.52,3.51a33.57,33.57,0,0,1-4.1,5l-4.11-2.68a.35.35,0,0,0-.39,0,.73.73,0,0,0-.09.08,28.23,28.23,0,0,1-6.58,4.55.32.32,0,0,0-.17.35l1,4.7a33.29,33.29,0,0,1-6.16,2l-2-4.34a.32.32,0,0,0-.34-.18,28.29,28.29,0,0,1-8.17.29.3.3,0,0,0-.32.2l-1.63,4.38A33.29,33.29,0,0,1,90.87,114l.69-4.59a.33.33,0,0,0-.19-.34,28.08,28.08,0,0,1-7-4.19.3.3,0,0,0-.38,0l-3.7,2.76c-.8-.72-1.58-1.49-2.31-2.28a32.33,32.33,0,0,1-2.09-2.49l3-3.47a.3.3,0,0,0,0-.38,28.41,28.41,0,0,1-3.64-7.34.32.32,0,0,0-.32-.22l-4.63.33a32.8,32.8,0,0,1-1.14-6.39l4.49-1.29a.3.3,0,0,0,.23-.31,28.54,28.54,0,0,1,.91-8.11.3.3,0,0,0-.15-.35l-4.17-2.28a33.37,33.37,0,0,1,2.46-6l4.61,1.39a.32.32,0,0,0,.36-.14,28.36,28.36,0,0,1,5-6.2.74.74,0,0,0,.13-.12.32.32,0,0,0,0-.36l-2.35-4.3a33.9,33.9,0,0,1,5.28-3.7l3.24,3.78a.29.29,0,0,0,.37.07,28.23,28.23,0,0,1,7.7-2.5.3.3,0,0,0,.25-.28l.36-5a33.64,33.64,0,0,1,6.43-.24l.7,5.06a.32.32,0,0,0,.27.27,28.56,28.56,0,0,1,7.8,2,.31.31,0,0,0,.37-.1l3.09-4.14a34.52,34.52,0,0,1,5.52,3.29L120,60.55a.32.32,0,0,0,.08.38A26.63,26.63,0,0,1,123,63.69a27.07,27.07,0,0,1,2.52,3.14.32.32,0,0,0,.37.12l4.85-1.82a33.16,33.16,0,0,1,2.85,5.76l-4.36,2.76a.32.32,0,0,0-.13.36,28.14,28.14,0,0,1,1.42,7.93.31.31,0,0,0,.24.3l5,1.08A33.38,33.38,0,0,1,135,89.71Z"></path><path fill="#fff" d="M102.84,97.05a14.51,14.51,0,1,1,14.51-14.51A14.53,14.53,0,0,1,102.84,97.05Z"></path><path d="M102.84,68.28A14.26,14.26,0,1,1,88.58,82.54a14.28,14.28,0,0,1,14.26-14.26Zm0-.5A14.76,14.76,0,1,0,117.6,82.54a14.76,14.76,0,0,0-14.76-14.76Z"></path><polygon points="95.48 128.7 99.93 149.68 108.88 149.68 104.44 128.7 95.48 128.7"></polygon><path d="M104.44,128.47h-9a.25.25,0,0,0-.18.08.29.29,0,0,0,0,.2l4.45,21a.24.24,0,0,0,.23.18h8.95a.21.21,0,0,0,.18-.09.19.19,0,0,0,0-.19l-4.44-21A.25.25,0,0,0,104.44,128.47Zm-4.32,21-4.35-20.5h8.48l4.34,20.5Z"></path><path d="M137.08,86.09a599.75,599.75,0,0,1-62.32,0,1.4,1.4,0,0,0-1.36,1.49v44.63a1.4,1.4,0,0,0,1.36,1.49,599.75,599.75,0,0,1,62.32,0,1.4,1.4,0,0,0,1.36-1.49V87.58A1.4,1.4,0,0,0,137.08,86.09Z"></path><path d="M137.14,85.85h-.07c-10.33.54-20.81.82-31.15.82s-20.82-.28-31.15-.82H74.7a1.64,1.64,0,0,0-1.53,1.73v44.63a1.86,1.86,0,0,0,.43,1.21,1.42,1.42,0,0,0,1.09.52h.08c10.33-.54,20.81-.82,31.15-.82s20.82.28,31.15.82h.07a1.64,1.64,0,0,0,1.53-1.73V87.58A1.64,1.64,0,0,0,137.14,85.85Zm1.06,46.36a1.17,1.17,0,0,1-1.06,1.26h0c-10.34-.54-20.83-.81-31.18-.81s-20.84.27-31.23.81a1,1,0,0,1-.73-.36,1.37,1.37,0,0,1-.33-.9V87.58a1.18,1.18,0,0,1,1.11-1.26h0c10.34.54,20.83.81,31.18.81s20.84-.27,31.22-.81a1.17,1.17,0,0,1,1.06,1.26Z"></path><path fill="#fff" d="M135.1,86.09a600,600,0,0,1-62.33,0,1.39,1.39,0,0,0-1.35,1.49v44.63a1.39,1.39,0,0,0,1.35,1.49,600,600,0,0,1,62.33,0,1.39,1.39,0,0,0,1.35-1.49V87.58A1.39,1.39,0,0,0,135.1,86.09Z"></path><path d="M135.16,85.85h-.07c-10.33.54-20.81.82-31.15.82s-20.83-.28-31.16-.82h-.07a1.65,1.65,0,0,0-1.53,1.73v44.63a1.87,1.87,0,0,0,.44,1.21,1.42,1.42,0,0,0,1.09.52h.07c10.33-.54,20.81-.82,31.16-.82s20.82.28,31.15.82h.07a1.65,1.65,0,0,0,1.53-1.73V87.58A1.65,1.65,0,0,0,135.16,85.85Zm1.06,46.36a1.18,1.18,0,0,1-1.06,1.26h0c-10.34-.54-20.83-.81-31.17-.81s-20.84.27-31.23.81a1,1,0,0,1-.74-.36,1.36,1.36,0,0,1-.32-.9V87.58a1.18,1.18,0,0,1,1.11-1.26h0c10.34.54,20.83.81,31.18.81s20.83-.27,31.22-.81a1.18,1.18,0,0,1,1.06,1.26Z"></path><path d="M133.88,88c-9.94.51-20,.77-29.94.77S83.93,88.46,74,88a.72.72,0,0,0-.69.77v41.1a.71.71,0,0,0,.69.77c9.94-.51,20-.77,30-.77s20,.26,29.94.77h0a.71.71,0,0,0,.68-.77V88.72A.72.72,0,0,0,133.88,88Z"></path><path d="M133.87,87.72h0c-9.94.51-20,.77-29.93.77s-20-.26-30-.77a1,1,0,0,0-.9,1v41.1a1,1,0,0,0,.26.7.85.85,0,0,0,.68.3h0c9.94-.51,20-.77,29.94-.77s20,.26,29.94.78h0a1,1,0,0,0,.9-1V88.72A1,1,0,0,0,133.87,87.72Zm.47,42.1a.49.49,0,0,1-.43.54h0c-9.93-.51-20-.77-29.95-.77s-20,.26-30,.77a.36.36,0,0,1-.29-.15.58.58,0,0,1-.14-.39V88.72a.49.49,0,0,1,.45-.53h0c10,.51,20,.77,30,.77s20-.26,30-.77a.49.49,0,0,1,.43.53Z"></path><rect width="15.88" height=".62" x="114" y="99.88" fill="#005fd7" transform="rotate(-.08 128.845 100.358)"></rect><rect width="11.61" height=".62" x="100.6" y="105.76" fill="#005fd7" transform="rotate(-.08 107.355 107.505)"></rect><rect width="11.8" height=".62" x="111.42" y="118.89" fill="#005fd7" transform="rotate(-.08 121.669 121.839)"></rect><rect width="9.58" height=".62" x="120.3" y="109.07" fill="#fff" transform="rotate(-.09 127.234 114.692)"></rect><rect width="5.54" height=".62" x="120.07" y="112.38" fill="#fff" transform="rotate(-.08 128.835 114.682)"></rect><rect width="22.42" height=".62" x="86.19" y="114.87" fill="#fff" transform="rotate(-.17 100.935 118.112)"></rect><rect width="5.79" height=".62" x="124.09" y="114.82" fill="#005fd7" transform="rotate(-.09 127.234 114.692)"></rect><rect width="10.2" height=".62" x="119.68" y="102.79" fill="#fff" transform="rotate(-.17 127.918 104.67)"></rect><rect width="15.6" height=".62" x="114.28" y="105.74" fill="#fff"></rect><rect width="17.31" height=".62" x="86.44" y="109.11" fill="#fff" transform="rotate(-.09 95.403 114.667)"></rect><rect width="8.47" height=".62" x="107.6" y="109.09" fill="#fff" transform="rotate(-.09 114.502 114.682)"></rect><rect width="18.36" height=".62" x="86.4" y="102.76" fill="#fff" transform="rotate(-.08 100.193 107.5)"></rect><rect width="4.05" height=".62" x="113.38" y="112.3" fill="#fff" transform="rotate(-.09 120.868 114.687)"></rect><rect width="3.26" height=".62" x="126.62" y="118.78" fill="#fff" transform="rotate(-.17 131.263 121.527)"></rect><rect width="9.57" height=".62" x="108.38" y="102.81" fill="#fff" transform="rotate(-.18 114.426 105.222)"></rect><rect width="21.69" height=".62" x="87.02" y="118.94" fill="#005fd7" transform="rotate(-.08 100.183 121.824)"></rect><polygon fill="#005fd7" points="123.59 126.45 123.59 127.08 129.88 127.06 129.88 126.44 123.59 126.45"></polygon><rect width="12.15" height=".62" x="93.8" y="126.31" fill="#fff" transform="rotate(-.09 101.76 127.404)"></rect><rect width="6.32" height=".62" x="123.56" y="121.1" fill="#fff" transform="rotate(-.09 127.229 121.058)"></rect><rect width="16.98" height=".62" x="107.92" y="123.72" fill="#fff" transform="rotate(-.09 120.858 127.419)"></rect><rect width="13.1" height=".62" x="93.14" y="121.28" fill="#fff" transform="rotate(-.09 101.76 127.404)"></rect><polygon fill="#fff" points="80.1 123.67 80.1 124.29 105.78 124.25 105.78 123.63 80.1 123.67"></polygon><rect width="9.13" height=".62" x="80.11" y="126.34" fill="#fff" transform="rotate(-.17 87.434 131.573)"></rect><rect width="4.37" height=".62" x="116.35" y="121.03" fill="#fff" transform="rotate(-.08 121.664 129)"></rect><rect width="10.32" height=".62" x="80.08" y="121.3" fill="#fff" transform="rotate(-.17 87.444 124.832)"></rect><polygon fill="#ffcf0b" points="86.46 99.99 86.46 100.61 97.57 100.59 97.57 99.97 86.46 99.99"></polygon><rect width="11.11" height=".62" x="86.49" y="105.77" fill="#ffcf0b" transform="rotate(-.09 95.408 108.3)"></rect><rect width="11.11" height=".62" x="86.52" y="111.57" fill="#ffcf0b" transform="rotate(-.09 95.403 114.667)"></rect><rect width="3.87" height=".62" x="86.53" y="112.73" fill="#ffcf0b"></rect><rect width="9.58" height=".62" x="120.3" y="90.95" fill="#fff" transform="rotate(-.09 127.249 95.593)"></rect><rect width="5.54" height=".62" x="120.07" y="94.26" fill="#fff" transform="rotate(-.08 128.845 100.358)"></rect><rect width="22.42" height=".62" x="86.19" y="96.75" fill="#fff" transform="rotate(-.17 100.96 101.26)"></rect><rect width="5.79" height=".62" x="124.09" y="96.71" fill="#005fd7" transform="rotate(-.09 127.244 101.96)"></rect><rect width="17.31" height=".62" x="86.44" y="90.99" fill="#fff" transform="rotate(-.09 95.418 95.568)"></rect><rect width="8.47" height=".62" x="107.6" y="90.97" fill="#fff" transform="rotate(-.09 114.517 95.583)"></rect><rect width="4.05" height=".62" x="113.38" y="94.18" fill="#fff" transform="rotate(-.09 120.883 95.588)"></rect><rect width="11.11" height=".62" x="86.52" y="93.45" fill="#ffcf0b" transform="rotate(-.09 95.418 95.568)"></rect><rect width="3.87" height=".62" x="86.53" y="94.61" fill="#ffcf0b"></rect><path fill="#fff" d="M83.83,84.78c.57-1.62-.41-7.68-1.84-9.11s-11.46-3.37-17.55-.51S59.67,88,59.67,88s1.34,4.29.48,7a14,14,0,0,1-2.86,4.86l12.95,5.82,1.87-3.49s5.15,2.27,7.15.33A18.59,18.59,0,0,0,84.54,90.5C84.54,86.77,83.26,86.4,83.83,84.78Z"></path><path d="M84.05,84.85c.58-1.64-.33-7.77-1.9-9.34-1-1-5.25-2.05-9.83-2.05a19.07,19.07,0,0,0-8,1.49c-6.18,2.9-5,12.69-4.89,13.14,0,0,1.3,4.25.48,6.91a13.72,13.72,0,0,1-2.81,4.77.23.23,0,0,0,.08.37L70.14,106l.1,0a.26.26,0,0,0,.21-.13l1.77-3.3a13.73,13.73,0,0,0,4.62,1h0a3.6,3.6,0,0,0,2.58-.85A18.77,18.77,0,0,0,84.77,90.5a10.84,10.84,0,0,0-.6-3.78A2.53,2.53,0,0,1,84.05,84.85Zm-5,17.57a3.13,3.13,0,0,1-2.26.72h0a14,14,0,0,1-4.64-1.09.24.24,0,0,0-.3.1l-1.76,3.3-12.46-5.6a14,14,0,0,0,2.69-4.71c.87-2.8-.42-7-.47-7.15s-1.24-9.86,4.64-12.62a18.79,18.79,0,0,1,7.78-1.45c4.63,0,8.72,1.14,9.5,1.92,1.41,1.4,2.31,7.38,1.79,8.86a2.86,2.86,0,0,0,.12,2.16,10.59,10.59,0,0,1,.57,3.64A18.26,18.26,0,0,1,79.1,102.42Z"></path><path d="M83.49,71.92c-2.76-1.8-8.29-3.33-13.72-3.14s-9.37,3-10.52,6.09.34,14.84.44,17.79,2.37,2.47,4.32,3.1,4.36-1.8,6.92-4.06a3.35,3.35,0,1,1,4.16-5.08c0-1.38-.09-4.63,1.13-5.34a19.18,19.18,0,0,1,5.46-1.93l-4.3,3s8-1.12,9.44-3.22S86.25,73.73,83.49,71.92Z"></path><path d="M83.62,71.73c-2.88-1.88-8.19-3.2-12.92-3.2l-.93,0c-5.93.2-9.66,3.28-10.74,6.24-.87,2.4-.25,9.54.15,14.26.14,1.55.25,2.88.27,3.62.08,2.45,1.62,2.73,3.12,3a10.84,10.84,0,0,1,1.37.31,2.42,2.42,0,0,0,.76.12h0c1.69,0,3.53-1.66,5.47-3.41l.91-.82.25-.22L71,91.49a3.11,3.11,0,1,1,3.87-4.72l.4.48v-.63c0-.15,0-.32,0-.5,0-1.42,0-4.07,1-4.64a17,17,0,0,1,4.25-1.64l-4.14,2.91,1-.14c.33,0,8.14-1.16,9.61-3.31a3.27,3.27,0,0,0,.43-2.52A8.73,8.73,0,0,0,83.62,71.73Zm3,7.3c-1.06,1.56-6.12,2.58-8.29,3l4.32-3-1,.18a19,19,0,0,0-5.54,2c-1.19.69-1.22,3.34-1.24,5a3.58,3.58,0,1,0-4.33,5.68l-.67.61C68,94,66.21,95.63,64.7,95.63a2,2,0,0,1-.61-.09,11,11,0,0,0-1.44-.33c-1.49-.27-2.66-.49-2.73-2.55,0-.76-.13-2-.27-3.65-.41-4.68-1-11.76-.18-14.06,1-2.81,4.61-5.74,10.31-5.94h.92c5.42,0,10.37,1.62,12.66,3.12A8.22,8.22,0,0,1,87,76.87,2.72,2.72,0,0,1,86.63,79Z"></path><path fill="#005fd7" d="M54.43,101.84a111,111,0,0,0-8.75,11c-6.37,9.13-8.2,26.4-8.2,42.33H80.6c1.13-8.38-2.48-18.51-3.08-28.49C76.62,111.56,66.94,103.31,54.43,101.84Z"></path><path fill="#005fd7" d="M61.69,98.21a8.19,8.19,0,0,0-4.26-.74l-3.22,4.36s7.42,1.52,11.19,3.61a55.34,55.34,0,0,1,7.38,5.08,40.63,40.63,0,0,0-1.83-5.9C70.29,103.55,64.48,99.28,61.69,98.21Z"></path><path fill="#fff" d="M113.16,148.71c-4.75,0-8.6,2.59-8.6,5.79a3.75,3.75,0,0,0,.1.82h17a3.75,3.75,0,0,0,.09-.82C121.75,151.3,117.9,148.71,113.16,148.71Z"></path><path d="M113.16,148.48c-4.87,0-8.83,2.7-8.83,6a4.15,4.15,0,0,0,.1.87.24.24,0,0,0,.23.18h17a.25.25,0,0,0,.23-.18,4.84,4.84,0,0,0,.1-.87C122,151.18,118,148.48,113.16,148.48Zm8.31,6.6H104.85a3.09,3.09,0,0,1-.06-.58c0-3.07,3.75-5.56,8.37-5.56s8.36,2.49,8.36,5.56A4.13,4.13,0,0,1,121.47,155.08Z"></path><path fill="#fff" d="M110.3,142.93c-1.83.55-6,4.23-7,4.6S88.46,144,88.46,144l-3.7,11.09s28.46.61,29.68-.1c1.65-1,.81-2,.81-2,1.2-.79-.57-2.19-.57-2.19,2-1.36-1.16-3.19-1.16-3.19a10.53,10.53,0,0,1,2.21,1.52c1.43,1.57,3.43,1.61,3.71,1.24C120.25,149.35,112.14,142.38,110.3,142.93Z"></path><path d="M110.54,142.67a1,1,0,0,0-.3,0,20.92,20.92,0,0,0-4.62,3,17.61,17.61,0,0,1-2.38,1.64h-.13c-2,0-14.46-3.49-14.58-3.53a.24.24,0,0,0-.29.15L84.54,155a.24.24,0,0,0,0,.2.21.21,0,0,0,.19.1c.11,0,11.44.25,20,.25,9.14,0,9.61-.28,9.79-.38a2,2,0,0,0,1.12-1.32,1.28,1.28,0,0,0-.12-.8,1,1,0,0,0,.34-.69,2.33,2.33,0,0,0-.86-1.54,1.37,1.37,0,0,0,.52-1.08,1.57,1.57,0,0,0-.16-.6l.16.15a4.43,4.43,0,0,0,3.17,1.51,1.2,1.2,0,0,0,.9-.28c.23-.3,0-.72,0-.86C118.65,147.79,112.66,142.67,110.54,142.67Zm8.72,7.6a1,1,0,0,1-.53.1A4.09,4.09,0,0,1,115.9,149a10.78,10.78,0,0,0-2.27-1.57.23.23,0,0,0-.31.09.24.24,0,0,0,.08.32c.46.27,1.66,1.15,1.69,1.94a1,1,0,0,1-.55.86.22.22,0,0,0-.1.18.23.23,0,0,0,.09.19c.26.21.92.84.9,1.35a.58.58,0,0,1-.31.46.23.23,0,0,0-.1.16.22.22,0,0,0,0,.19.84.84,0,0,1,.15.62,1.67,1.67,0,0,1-.9,1c-.17.09-1.45.31-9.55.31-7.76,0-17.79-.2-19.69-.24l3.53-10.57c1.73.48,12.59,3.48,14.5,3.48a1.12,1.12,0,0,0,.29,0,16.57,16.57,0,0,0,2.5-1.71,21.67,21.67,0,0,1,4.47-2.89l.17,0c1.76,0,7.68,4.85,8.62,6.76C119.28,150.14,119.27,150.25,119.26,150.27Z"></path><path d="M111.34 146.26l.09-.45a.25.25 0 00-.19-.27.23.23 0 00-.27.19l-.12.63a.24.24 0 00.14.26 10.7 10.7 0 012.65 1.38.2.2 0 00.15.06.23.23 0 00.15-.41A9.88 9.88 0 00111.34 146.26zM110.76 149.47l0 .47c1.26-.11 3.79 1.11 3.82 1.12l.2-.42C114.71 150.59 112.15 149.37 110.76 149.47zM111.08 152.37l0 .46a20.81 20.81 0 014.1.45l.1-.46A22.28 22.28 0 00111.08 152.37zM70.83 89.37a1.69 1.69 0 01.43-2 1.86 1.86 0 012.16-.23l.23-.41A2.34 2.34 0 0071 87a2.16 2.16 0 00-.55 2.51A2.64 2.64 0 0073 91.09a4.34 4.34 0 00.79-.07l-.1-.45S71.52 91 70.83 89.37z"></path><path d="M71.87,88.27a1.29,1.29,0,0,1-.29-1l-.46,0a1.7,1.7,0,0,0,.42,1.41,1.77,1.77,0,0,0,1.24.45h.13l0-.47A1.34,1.34,0,0,1,71.87,88.27Z"></path><path fill="#005fd7" d="M78.16,140.36s-3.84-27.52-8.41-27.52L61,117.71c-5,4.28-5,14.34-5,14.34S61.44,151,68.49,155.19H98.94a36.49,36.49,0,0,0,.45-10.3C99,140.5,78.16,140.36,78.16,140.36Z"></path><path fill="#0e0e27" d="M61.86,135.43c-2.9-12-.43-18-.32-18.25l.46.19c0,.06-2.51,6.11.35,17.94Z"></path><path fill="#fff" d="M53.61,97.92c0-.9,3.22-1,3.22-3.57,0-2.93-1.57-11-3.38-14.6s-23.34-4-23.34,0c0,10.9,17,75.33,17,75.33H70.19c-2-8-13.49-37.2-13.49-53.33C56.7,99.58,53.61,98.91,53.61,97.92Z"></path><path d="M67.43,145.6c-4.18-12.64-10.5-31.74-10.5-43.8,0-1.45-1.21-2.3-2.1-2.91-.51-.36-1-.7-1-1s.45-.42.88-.64c.93-.47,2.34-1.18,2.34-2.93,0-3-1.59-11.09-3.41-14.71-1-2-7.45-3-13-3-5.21,0-10.78.82-10.78,3.12,0,10.81,16.83,74.74,17,75.39a.22.22,0,0,0,.22.17H70.19a.21.21,0,0,0,.18-.09.24.24,0,0,0,0-.2C69.9,153.06,68.81,149.77,67.43,145.6Zm-20.15,9.29c-1-3.73-16.94-64.62-16.94-75.09,0-1.56,4.25-2.66,10.32-2.66,6.4,0,11.8,1.17,12.58,2.71C55,83.41,56.6,91.41,56.6,94.35c0,1.46-1.16,2.05-2.09,2.52-.61.3-1.14.57-1.14,1s.55.9,1.2,1.35c.89.62,1.9,1.32,1.9,2.53,0,12.13,6.33,31.28,10.52,44,1.31,4,2.36,7.13,2.9,9.14Z"></path><path d="M50,80.18c-1.46-1.61-19.56-2.49-20.11,0S28,87.06,28,100.57c0,25.77,5,48.36,8.38,54.56H67.39c-1.81-6.56-15.74-41.37-16.86-53.73C49.32,87.89,51.47,81.8,50,80.18Z"></path><path d="M63.59,143.47c-4.79-13.28-12-33.34-12.82-42.09a96.18,96.18,0,0,1-.13-15.71c.19-3.11.29-4.82-.45-5.64-.92-1-7-1.64-12-1.64-3,0-8.14.23-8.47,1.74l-.19.81c-.61,2.61-1.76,7.45-1.76,19.63,0,25.49,4.89,48.13,8.42,54.67l.06.12H67.7l-.08-.3C67.09,153.16,65.55,148.88,63.59,143.47ZM36.48,154.89c-3.41-6.5-8.29-29.4-8.29-54.32,0-12.13,1.13-16.94,1.75-19.52.07-.29.13-.56.18-.82.14-.63,2.33-1.37,8-1.37,5.42,0,11,.71,11.7,1.48s.51,2.42.33,5.3a97,97,0,0,0,.13,15.78c.8,8.81,8.05,28.91,12.85,42.21,1.86,5.13,3.34,9.25,3.93,11.26Z"></path><path fill="#0e0e27" d="M72.63,110.72c-.09-.07-9.4-7-13.62-7.73l.08-.49c4.34.71,13.46,7.53,13.84,7.82Z"></path></svg>