<svg xmlns="http://www.w3.org/2000/svg" data-name="Layer 1" viewBox="0 0 24 24" id="email"><defs><linearGradient id="a" x1="1.601" x2="24.452" y1="11.768" y2="12.278" gradientUnits="userSpaceOnUse"><stop offset="0" stop-color="#cc2fa9"></stop><stop offset="1" stop-color="#823cde"></stop></linearGradient></defs><path fill="url(#a)" d="M21,3H3A3,3,0,0,0,0,6V18a3,3,0,0,0,3,3H21a3,3,0,0,0,3-3V6A3,3,0,0,0,21,3ZM19.5,8.868l-7,4a1.023,1.023,0,0,1-.992,0l-7-4A1,1,0,1,1,5.5,7.132L12,10.848l6.5-3.716A1,1,0,1,1,19.5,8.868Z"></path></svg>