<svg xmlns="http://www.w3.org/2000/svg" enable-background="new 0 0 2500 2500" viewBox="0 0 2500 2500" id="cloud-data-transfer"><path fill="#ffd24f" d="M2159.96,459.31l-104.21,210.83c-6.23,12.52-21.43,17.63-33.95,11.4l-186.4-92.69
				c-12.52-6.23-17.63-21.43-11.4-33.95l121.57-245.75c6.23-12.52,21.43-17.63,33.95-11.4l151.48,75.33L2159.96,459.31z"></path><path d="M2033.03,686.05c-4.06,0-8.18-0.91-12.06-2.84l-186.4-92.7c-6.5-3.23-11.36-8.8-13.67-15.69
				c-2.31-6.88-1.8-14.26,1.43-20.76l121.57-245.75c3.24-6.51,8.81-11.36,15.69-13.67c6.89-2.31,14.26-1.81,20.76,1.43l151.48,75.33
				c0.45,0.22,0.78,0.61,0.94,1.08l28.96,86.23c0.16,0.47,0.12,0.98-0.09,1.42l-104.21,210.83
				C2052.68,680.52,2043.04,686.05,2033.03,686.05z M1968.28,296.95c-2.51,0-5.04,0.41-7.49,1.23c-5.94,1.99-10.75,6.18-13.54,11.79
				l-121.57,245.75c-2.79,5.61-3.23,11.97-1.24,17.91c2,5.94,6.18,10.74,11.79,13.54l186.4,92.7c5.61,2.79,11.97,3.23,17.91,1.23
				c5.94-1.99,10.75-6.18,13.54-11.79l103.87-210.13l-28.46-84.77l-150.79-74.99C1975.4,297.78,1971.85,296.95,1968.28,296.95z"></path><polygon fill="#ffb902" points="2159.96 459.31 2102.37 430.67 2131.01 373.08"></polygon><path d="M2159.97,461.18c-0.28,0-0.57-0.07-0.83-0.2l-57.59-28.64c-0.92-0.46-1.3-1.58-0.84-2.5l28.64-57.59
				c0.34-0.68,1.03-1.08,1.8-1.03c0.76,0.05,1.4,0.55,1.64,1.27l28.96,86.23c0.24,0.72,0.03,1.51-0.54,2
				C2160.85,461.02,2160.41,461.18,2159.97,461.18z M2104.88,429.83l51.88,25.8l-26.08-77.68L2104.88,429.83z"></path><polygon fill="#ffb902" points="2049.49 608 1875.66 519.48 1883.16 504.77 2056.99 593.27"></polygon><polygon fill="#ffb902" points="2088.18 532.01 1914.34 443.48 1921.84 428.77 2095.69 517.28"></polygon><polygon fill="#ffb902" points="2068.85 570 1895 481.49 1902.5 466.76 2076.35 555.29"></polygon><polygon fill="#ffb902" points="2107.53 494 1933.7 405.5 1941.18 390.76 2115.04 479.27"></polygon><path fill="#242b2b" d="M1758.11,1338.01h-403.66v-11.21h403.66c32.65,0,59.21-26.56,59.21-59.21V941.23h11.21v326.35
			C1828.53,1306.42,1796.94,1338.01,1758.11,1338.01z"></path><path fill="#fff" d="M1141.21,745.33c0,109.8,86.82,198.78,193.87,198.78c21.91,0,42.96-3.71,62.61-10.58
			c0.16-0.08,0.33-0.13,0.45-0.17c30.46,19.64,66.6,31.02,105.36,31.02c49.21,0,94.22-18.34,128.67-48.68
			c0.21-0.21,0.45-0.38,0.66-0.59c39.22,30.69,90.61,49.27,146.8,49.27c40.86,0,79.18-9.82,112.06-26.93
			c15.95,4.34,32.68,6.66,49.95,6.66c107.09,0,193.87-88.98,193.87-198.78c0-84.34-51.22-156.42-123.53-185.29
			c-20.39-72.46-85.55-125.4-162.75-125.4c-14.06,0-27.71,1.73-40.74,5.06h-0.04c-46.21-79.58-130.93-132.86-227.79-132.86
			c-138.01,0-252.45,102.55-265.03,240.68l0,0C1217.72,557.54,1141.21,642.27,1141.21,745.33z"></path><path fill="#e5e8ff" d="M1141.21,745.32c0,109.82,86.82,198.8,193.86,198.8c21.92,0,42.97-3.72,62.62-10.58
			c0.17-0.1,0.34-0.14,0.44-0.17c30.48,19.63,66.62,31.01,105.38,31.01c49.52,0,94.79-18.58,129.34-49.27
			c19.62,15.35,42.25,27.66,67.03,36.16c24.74,8.49,51.66,13.12,79.76,13.12c40.86,0,79.18-9.81,112.07-26.93
			c15.95,4.35,32.68,6.68,49.96,6.68c107.08,0,193.86-88.98,193.86-198.8c0-5.29-0.2-10.51-0.58-15.66
			c-7.64,102.62-91.26,183.42-193.28,183.42c-12.39,0-30.92-1.18-46.29-3.45c-11.13-1.64-22.47,0.21-32.68,4.98
			c-25.73,12.04-49.25,18.76-83.05,18.76c-48.16,0-102.02-13.64-141.08-36.89c-11.68-6.92-26.17-6.61-37.71,0.49
			c-23.69,14.62-64.55,36.4-97.34,36.4c-32.65,0-72.36-8.07-102.26-22.38c-10.25-4.91-21.79-6.23-32.72-3.27
			c-9.88,2.68-22.5,5.36-33.46,5.36c-101.95,0-185.54-80.7-193.25-183.25C1141.42,734.94,1141.21,740.1,1141.21,745.32z"></path><path d="M1779.64,966.25c-53.93,0-105.97-17.29-146.72-48.71c-35.91,31.42-81.84,48.71-129.41,48.71
			c-37.5,0-73.99-10.66-105.6-30.82c-20.16,7-41.29,10.55-62.83,10.55c-107.93,0-195.74-90.01-195.74-200.65
			c0-103.02,74.94-188.51,174.58-199.51c13.28-137.42,127.7-240.85,266.75-240.85c93.13,0,180.63,50.77,228.7,132.58
			c12.88-3.17,26.28-4.78,39.87-4.78c75.58,0,143.01,51.71,164.3,125.87c75.27,30.46,123.86,103.64,123.86,186.69
			c0,110.64-87.81,200.65-195.74,200.65c-16.83,0-33.56-2.2-49.73-6.53C1857.95,956.98,1819.15,966.25,1779.64,966.25z
			 M1632.48,912.79l1.52,0.85c40.28,31.52,92.01,48.88,145.65,48.88c39.15,0,77.61-9.24,111.2-26.72l0.65-0.34l0.7,0.19
			c16.08,4.37,32.71,6.59,49.46,6.59c105.87,0,192-88.34,192-196.91c0-81.83-48.03-153.88-122.36-183.56l-0.85-0.34l-0.25-0.89
			c-20.55-73.03-86.73-124.03-160.95-124.03c-13.75,0-27.3,1.68-40.28,5l-0.46,0.06h-1.08l-0.58-0.93
			c-47.25-81.38-133.91-131.93-226.17-131.93c-137.62,0-250.77,102.74-263.17,238.98l-0.14,1.53l-1.53,0.16
			c-98.48,10.09-172.75,94.33-172.75,195.95c0,108.58,86.13,196.91,192,196.91c21.26,0,42.11-3.52,61.99-10.47
			c0.01-0.03,0.24-0.11,0.45-0.17l0.83-0.26l0.8,0.45c31.18,20.1,67.26,30.72,104.35,30.72c46.89,0,92.14-17.12,127.44-48.22
			c0.05-0.06,0.2-0.19,0.36-0.32L1632.48,912.79z"></path><path d="M2011.29 561.76c-23.55-9.4-48.68-13.86-74.03-13.3l-.08-3.74c1.49-.03 2.98-.05 4.48-.05 24.49 0 48.39 4.58 71.02 13.61L2011.29 561.76zM1386.49 555.55c-22.79-6.48-47-8.57-70.66-6.16l-.38-3.72c24.12-2.46 48.81-.32 72.06 6.28L1386.49 555.55zM1761.77 461.75l-1.99-3.16c15-9.44 31.23-16.4 48.25-20.71l.92 3.62C1792.31 445.71 1776.44 452.53 1761.77 461.75zM1631.04 916.09c-17.26-13.61-32.03-29.42-43.9-46.99l3.1-2.1c11.65 17.25 26.16 32.78 43.12 46.15L1631.04 916.09zM1397.14 934.93c-15.03-9.7-28.72-21.43-40.69-34.85l2.79-2.49c11.75 13.17 25.18 24.67 39.93 34.2L1397.14 934.93zM844.68 958.97c-3.35 10.96-11.34 20.41-21.55 25.57 6.33-3.35 13.84 4.33 13.48 11.51-.37 7.15-5.32 13.1-9.49 18.93-4.17 5.83-7.87 13.19-5.45 19.92 3.66 10.07 18.22 11.85 23.4 21.22 4.09 7.37.64 17.09-5.65 22.71-6.29 5.59-14.72 8.06-22.83 10.31-19.41 5.38-39.51 10.51-59.49 7.92-26.2-3.36-49.75-20.32-63.4-42.94-13.62-22.62-17.75-50.32-13.77-76.42 2.74-18.21 9.22-35.67 12-53.88 2.74-18.21 1.23-38.3-10.26-52.67-6.49-8.14-16.34-15.13-16.71-25.53-.31-8.16 5.57-15.13 11.59-20.65 14.13-12.97 32.11-20.68 50.3-26.73l9.74 1.91c23.86 6.81 42.26 26.23 50.85 49.49 3.83 10.36 5.5 21.61 11.07 31.18 10.4 17.94 32.43 26.77 42.57 44.85C846.68 935.72 848 948.02 844.68 958.97z"></path><path d="M631.53,828.15c-17.71,18.42-21.89,45.65-24.62,71.05c-2.73,25.41-5.49,52.48-21.42,72.46
			c-5.94,7.45-13.43,13.49-20.06,20.34c-6.63,6.85-12.58,14.9-14.27,24.28c-1.69,9.38,1.95,20.22,10.45,24.54
			c5.81,2.95,12.67,2.47,19.16,2.96c6.5,0.49,13.73,2.64,16.62,8.48c4.24,8.56-3.29,17.84-8.2,26.04c-7.14,11.93-9,27.27-3.42,40.01
			c5.58,12.74,19.04,22.04,32.93,21.28c13.88-0.76,26.75-12.55,27.36-26.44c0.24-5.38-1.15-11.07,1.07-15.98
			c3.97-8.81,16.8-9.23,25.43-4.89s15.53,11.85,24.6,15.18c9.66,3.55,21.13,1.6,29.08-4.94c7.94-6.54,12.06-17.42,10.44-27.58
			c-1.22-7.65-5.36-14.49-7.84-21.83s-2.95-16.31,2.29-22.02c5.95-6.48,16.89-6.28,22.76-12.83c5.33-5.94,4.43-15.34,0.97-22.53
			c-3.46-7.19-9.01-13.19-12.67-20.28c-7.57-14.67-6.25-32.44-1.69-48.3c4.57-15.86,12.12-30.74,16.76-46.58
			c4.65-15.84,6.16-33.56-1.18-48.35c-9.44-19.01-31.72-28.86-52.93-29.46C681.95,802.16,651.59,821.23,631.53,828.15"></path><rect width="549.96" height="3.74" x="134.19" y="1943.33" transform="rotate(-70.61 409.176 1945.16)"></rect><path d="M533.23,2204.83l-3.72-0.29c4.97-63.33,9.6-128.53,14.08-191.58c7.63-107.35,15.51-218.36,25.47-326.33l3.72,0.34
										c-9.95,107.93-17.84,218.92-25.46,326.25C542.84,2076.28,538.2,2141.48,533.23,2204.83z"></path><rect width="3.74" height="549.96" x="827.42" y="1670.22" transform="rotate(-19.323 829.286 1945.178)"></rect><path d="M705.22,2204.83c-4.97-63.35-9.6-128.55-14.08-191.61c-7.63-107.33-15.51-218.32-25.46-326.25l3.72-0.34
										c9.95,107.97,17.84,218.98,25.47,326.33c4.48,63.05,9.11,128.25,14.08,191.58L705.22,2204.83z"></path><path fill="#fff" d="M724.16,1725.97c0,0-18.05-29.66-69.75-37.63c-84.9-13.08-136.52-46.12-171.63-72.97
								c-35.34-27.02-135.93-322.76-132.48-325.37l-59.2,0l129.27,435.96H724.16z"></path><path d="M727.48,1727.84H418.97l-0.4-1.34l-129.98-438.36h67.27l-3.74,2.83c1.18,8.37,23.57,77.48,52.97,155.53
								c36.56,97.04,64.55,156.49,78.81,167.39c35.3,26.99,86.61,59.64,170.78,72.6c51.97,8.01,70.31,37.26,71.06,38.5
								L727.48,1727.84z M421.76,1724.1h298.71c-6.02-7.49-25.63-27.64-66.35-33.91c-85.01-13.1-136.83-46.07-172.48-73.33
								c-18.96-14.5-53.94-99.8-79.94-168.79c-26.17-69.46-50.87-143.2-53.18-156.19H293.6L421.76,1724.1z"></path><path fill="#242b2b" d="M513.45,1290c0,0,97.15,298.34,132.48,325.37c35.11,26.85,86.73,59.89,171.63,72.97
									c51.7,7.97,69.75,37.63,69.75,37.63H724.16c0,0-18.05-29.66-69.75-37.63c-84.9-13.08-136.52-46.12-171.63-72.97
									c-35.34-27.02-135.93-322.76-132.48-325.37H513.45z"></path><path d="M890.64 1727.84H723.11l-.55-.89c-.18-.29-18.31-29.03-68.44-36.76-85.01-13.1-136.83-46.07-172.48-73.33-18.96-14.5-53.94-99.8-79.94-168.79-27.51-72.99-53.38-150.71-53.36-157.7 0-.82.28-1.44.83-1.85l.5-.38h165.15l.42 1.29c.97 2.98 97.37 298.1 131.84 324.46 35.3 26.99 86.6 59.63 170.78 72.6 51.97 8.01 70.31 37.26 71.06 38.5L890.64 1727.84zM725.17 1724.1h158.46c-6.02-7.49-25.63-27.64-66.35-33.91-85.01-13.1-136.83-46.07-172.48-73.33-34.57-26.44-124.82-300.86-132.71-324.99H352.28c2.35 11.59 24.29 78.9 52.81 154.62 36.56 97.04 64.55 156.49 78.81 167.39 35.3 26.99 86.61 59.64 170.78 72.6C702.23 1693.81 721.63 1718.92 725.17 1724.1zM1094.62 2172.03l-73.56-89.77-16.28-32.97-109.27-26.67-32.98 80.73c-2.59 3.86-.99 9.03 3.22 10.76l220.33 90.27c3.7 1.52 7.93-.25 9.45-3.96l3.28-7.99C1101.71 2185.37 1100.07 2177.37 1094.62 2172.03z"></path><path fill="#ffcfc5" d="M1004.79,2049.28l38.35-92.86l-119.8-1.9l-27.82,68.09
												C930.07,2057.33,970.3,2066.73,1004.79,2049.28z"></path><path fill="#fff" d="M1013.79 2116.14l-2.38-2.88c13.35-11.02 27.75-6.78 28.35-6.59l-1.09 3.57C1038.13 2110.08 1025.54 2106.43 1013.79 2116.14zM1029.68 2136.06l-2.38-2.88c13.35-11.02 27.75-6.78 28.35-6.59l-1.09 3.57C1054.02 2130.01 1041.44 2126.35 1029.68 2136.06z"></path><path d="M1592.24,2047.17l-115.86,6.78l-36.25-6.2l-85.78,72.75l45.95,74.12c1.6,4.36,6.73,6.11,10.6,3.71l202.49-125.26
												c3.4-2.11,4.46-6.57,2.35-9.97l-4.55-7.35C1607.2,2049.28,1599.76,2045.9,1592.24,2047.17z"></path><path fill="#ffcfc5" d="M1440.14,2047.75l-52.61-85.59l-71.92,95.83l38.75,62.52
												C1402.75,2112.94,1433.99,2085.91,1440.14,2047.75z"></path><path fill="#fff" d="M1495.79 2079.98c-1.08-17.28 10.82-26.44 11.32-26.82l2.25 2.98c-.44.34-10.79 8.38-9.85 23.6L1495.79 2079.98zM1521.25 2078.83c-1.08-17.29 10.82-26.44 11.32-26.82l2.25 2.99c-.44.33-10.79 8.38-9.85 23.6L1521.25 2078.83z"></path><path fill="#444ba1" d="M1043.69,1520.63c0,0,103.89,30.89,131.97,52.64c67.97,52.65,235.5,378.64,235.5,378.64
											l-111.05,114.5l-207.91-340.44l-229.49-87.23L1043.69,1520.63z"></path><path fill="#444ba1" d="M1431.22,1945.51c7.12,7,8.37,17.14,3.34,23.73c-0.51,0.67-1.07,1.28-1.71,1.86l-116.8,108.09
											c-6.94,6.44-18.89,5.4-26.73-2.36c-7.12-7-8.39-17.12-3.36-23.7c0.51-0.67,1.07-1.28,1.71-1.86l116.82-108.12
											C1411.41,1936.74,1423.39,1937.81,1431.22,1945.51z"></path><polygon points="1387.24 1906.36 1315.61 2025.42 1407.34 1940.51"></polygon><path fill="#444ba1" d="M522.24,1554.34c0,0,32.12,92.7,95.45,114.72c63.33,22.03,322.34,39,322.34,39l-57.5,280.66
												l157.93,26.91c0,0,126.54-357.05,81.8-458.08c-24.55-55.44-409.57-79.85-409.57-79.85L522.24,1554.34z"></path><path fill="#ffcfc5" d="M799.76,1207.11c0,0,88.55,98.76,163.63,102.57c75.08,3.81,137.94-204.63,137.94-204.63
														s-45.36-33.93-48.9-34.71c-3.54-0.78-101.89,139.73-101.89,139.73l-72.96-69.77L799.76,1207.11z"></path><path fill="#04b5a4" d="M934.9,1160.08l-28.92,34.99l-27.35,33.14l-25.37,30.7l-108.19-136.51l-15.86-55.68
																				c0,0,53.51-22.14,98.67-1.13C860.83,1080.91,934.9,1160.08,934.9,1160.08z"></path><polygon points="905.97 1195.07 853.25 1258.92 837.43 1132.12"></polygon><path fill="#04b5a4" d="M842.47,1077.5c-25.27-41.46-208.65-20.04-267.75,16.86
																					c-71.72,44.78-74.57,474.15-74.57,474.15c134.87,11.12,241.73-14.25,334.99-86.65
																					C835.15,1481.85,896.24,1165.73,842.47,1077.5z"></path><path d="M664.72,1171.29l10.2,152.9l180.45,22.76c0,0-226.91,38.8-227.14,37.69
																					c-0.24-1.11-7.85-97.72-7.85-97.72L664.72,1171.29z"></path><path fill="#fff" d="M1119.9,1736.93l-3.67-0.71c14.98-77.51,17.72-133.76,8.14-167.2l3.59-1.03
												C1137.71,1602.01,1135,1658.85,1119.9,1736.93z"></path><polygon points="1056.67 1966.86 925.79 1977.87 1046.73 1997.36"></polygon><path fill="#444ba1" d="M1066.76,2020.77c-1.34,9.9-9.21,17.06-18.14,17.06c-0.91,0-1.79-0.08-2.71-0.23l-168.96-27.23
											c-10.05-1.61-16.98-11.74-15.47-22.68c1.34-9.9,9.17-17.06,18.1-17.06c0.91,0,1.79,0.08,2.71,0.23l168.99,27.23
											C1061.31,1999.7,1068.24,2009.87,1066.76,2020.77z"></path><path fill="#ffcfc5" d="M643.93,1258.92l5.83,85.65l250.67,2.91l12.95,68.97l-307.71,21.07c-56.57,5.98-87.28-33.44-74.77-88.93
							l16.44-114.55L643.93,1258.92z"></path><path fill="#04b5a4" d="M593.46,1084.82c-80.57,20.96-93.6,215.11-93.6,215.11c47.31,29.53,114.87,8.36,159.53-9.93
							c0,0,3.2-70.71,5.94-132.67C667.72,1103.38,615.11,1079.19,593.46,1084.82z"></path><path fill="#ffcfc5" d="M1023.24 1382.41c-7.7 1.56-17.91-7.36-21.96-11.3 1.41 2.48 2.24 5.03 1.57 7.21-1.81 5.93-11.97 2.77-12.62 2.59.52.35 7.08 4.58.45 7.07-6.55 2.47-14.63 2.03-15.43 2.01.64.27 5.99 2.62-2.26 7.62-8.75 5.29-36.41 7.22-36.41 7.22l.05-.04c-6.03.82-21.88 13.26-27.56 11.48l-8.62-68.8c0 0 64.66-41.64 71.92-34.22 7.25 7.42-8.73 31.74-8.73 31.74s49.32-7.13 52.79 6.86S1033.06 1380.42 1023.24 1382.41zM1052.43 1070.35c0 0 14.78-60.8 25.75-65.09 8.45-3.3 12.25 23.38 12.25 23.38s52.64-68.76 60.97-62.29c8.33 6.47-23.51 42.26-23.51 42.26s8.7-5.57 12.34.5c3.54 5.9-1.6 10.37-1.6 10.37s5.81-3.97 10.3-.19c4.55 3.83-.35 11.15-.35 11.15s7.08-.76 7.5 6.84c.58 10.49-37.11 52.94-42.89 57.83s-11.87 9.96-11.87 9.96L1052.43 1070.35z"></path><path fill="#ffb29f" d="M1113.48,1047.42c-1.33,0-2.22-0.57-2.75-1.08c-1.66-1.59-2.53-3.64-2.58-6.09
										c-0.16-8.95,11.34-20.84,11.83-21.34l2.68,2.61c-3.03,3.11-10.88,12.53-10.77,18.66c0.03,1.43,0.49,2.56,1.42,3.45
										c4.64-0.4,16.83-15.19,24.09-25.55l3.06,2.15c-3.08,4.4-18.85,26.39-26.5,27.15
										C1113.8,1047.41,1113.64,1047.42,1113.48,1047.42z"></path><path fill="#ffb29f" d="M1123.63,1057.26c-1.72,0-3.25-0.69-4.44-2.03c-5.08-5.7,1.54-16,1.83-16.44l3.13,2.04
										c-1.4,2.15-4.8,8.96-2.17,11.9c0.55,0.62,1.12,0.83,1.93,0.77c5.8-0.55,16.88-15.62,22.5-24.98l3.21,1.92
										c-1.58,2.65-15.77,25.88-25.35,26.78C1124.05,1057.25,1123.84,1057.26,1123.63,1057.26z"></path><path fill="#ffb29f" d="M1128.67 1067.65c-.07 0-.14 0-.2 0-1.53-.05-2.83-.64-3.76-1.7-1.49-1.72-2.18-3.68-2.02-5.85.35-4.92 5.08-9.04 5.28-9.21l2.44 2.83c-1.04.91-3.8 3.87-3.99 6.65-.08 1.15.28 2.17 1.11 3.11.16.19.43.4 1.06.42 4.43.27 14.07-8.01 19.2-13.17l2.65 2.64C1148.98 1054.85 1136.05 1067.65 1128.67 1067.65zM1085.52 1060.36l-2.18-3.04c11.58-8.33 5.38-27.91 5.31-28.11l3.56-1.16C1092.5 1028.97 1099.33 1050.42 1085.52 1060.36z"></path><path fill="#fff" d="M1152.87,1460.96l0.03,0.04l-219.66,0.45c-10.94,0.04-19.83-8.82-19.87-19.8
							c-0.01-5.2,1.99-9.91,5.22-13.45c3.3-3.57,7.83-5.93,13.01-6.38l119.37-9.61l122.1-9.82L1152.87,1460.96z"></path><path d="M933.17,1463.32c-5.76,0-11.18-2.24-15.27-6.31c-4.1-4.09-6.37-9.54-6.4-15.35c-0.01-5.45,2.02-10.67,5.71-14.71
							c3.74-4.04,8.79-6.52,14.23-6.98l241.48-19.43c0.61-0.06,1.24,0.22,1.63,0.72c0.39,0.5,0.49,1.16,0.29,1.76l-20.08,58.22
							c-0.03,0.21-0.09,0.42-0.19,0.62c-0.32,0.62-0.96,1.02-1.66,1.02l-219.66,0.45C933.22,1463.32,933.19,1463.32,933.17,1463.32z
							 M1170.37,1404.49l-238.62,19.2c-4.5,0.39-8.69,2.44-11.79,5.79c-3.05,3.34-4.73,7.66-4.72,12.17
							c0.02,4.81,1.9,9.33,5.3,12.71c3.39,3.38,7.9,5.08,12.7,5.22l218.29-0.45L1170.37,1404.49z"></path><polygon points="1182.1 1402.32 1161.91 1460.87 1052.36 1461.11 1060 1412.13"></polygon><path fill="#fff" d="M1346.07,1460.54l-279.73,0.61l36.64-234.42c2.02-12.94,13.16-22.49,26.26-22.52l254.02-0.55
							c16.38-0.04,28.91,14.57,26.38,30.75l-30.98,198.18C1376.15,1448.65,1362.33,1460.5,1346.07,1460.54z"></path><path d="M1066.34,1463.02c-0.54,0-1.06-0.24-1.42-0.65c-0.35-0.41-0.51-0.96-0.43-1.5l36.64-234.42
							c2.18-13.94,14-24.07,28.1-24.1l254.01-0.55c0.02,0,0.04,0,0.06,0c8.33,0,16.22,3.62,21.64,9.95
							c5.44,6.34,7.82,14.71,6.53,22.96l-30.98,198.18c-2.67,17.07-17.15,29.49-34.43,29.53l0,0L1066.34,1463.02L1066.34,1463.02z
							 M1346.07,1460.54h0.04H1346.07z M1383.32,1205.52c-0.02,0-0.04,0-0.05,0l-254.01,0.55c-12.25,0.03-22.52,8.83-24.42,20.94
							l-36.31,232.26l277.54-0.61c15.43-0.03,28.36-11.13,30.74-26.37l30.98-198.18c1.12-7.17-0.95-14.44-5.67-19.95
							C1397.41,1208.67,1390.56,1205.52,1383.32,1205.52z"></path><path d="M1132.53,1204.17c-6.99,4.14-12.05,11.22-13.39,19.69l-37.07,237.23l-15.73,0.04l36.66-234.39
							c2.02-12.96,13.16-22.51,26.25-22.55L1132.53,1204.17z"></path><path fill="#c5cde3" d="M1281.19,1335.23c-1.28,14.59-12.74,26.78-27.23,28.85c-11.46,1.63-21.99-2.84-28.76-10.63
							c2.81,0.68,5.74,1.02,8.77,1.01c21.28-0.05,38.53-17.34,38.48-38.65c0-2.06-0.17-4.12-0.48-6.08
							C1278.37,1316.16,1282.07,1325.26,1281.19,1335.23z"></path><path fill="#fff" d="M745.16,1476.67c0,4.29,1.75,8.2,4.55,11c2.8,2.8,6.72,4.56,11,4.56h673.71c8.57,0,15.56-6.95,15.56-15.56
						c0-4.28-1.75-8.2-4.55-11c-2.83-2.8-6.72-4.56-11-4.56H760.71C752.11,1461.11,745.16,1468.06,745.16,1476.67z"></path><path d="M1434.42,1494.09H760.71c-4.59,0-9.08-1.86-12.32-5.1s-5.1-7.74-5.1-12.32c0-9.61,7.82-17.42,17.43-17.42h673.71
						c4.61,0,8.99,1.81,12.31,5.1c3.3,3.29,5.11,7.67,5.11,12.33C1451.84,1486.27,1444.03,1494.09,1434.42,1494.09z M760.71,1462.98
						c-7.55,0-13.69,6.14-13.69,13.69c0,3.61,1.46,7.13,4.01,9.68c2.55,2.55,6.07,4.01,9.68,4.01h673.71
						c7.55,0,13.69-6.14,13.69-13.69c0-3.66-1.42-7.1-4.01-9.68c-2.61-2.58-6.05-4.01-9.68-4.01H760.71z"></path><line x1="1274.97" x2="1389.87" y1="1492.22" y2="2204.69" fill="#fff"></line><polygon points="1388.03 2204.99 1273.12 1492.52 1276.81 1491.92 1391.71 2204.39"></polygon><line x1="920.17" x2="805.26" y1="1492.22" y2="2204.69" fill="#fff"></line><polygon points="807.1 2204.99 803.42 2204.39 918.32 1491.92 922.01 1492.52"></polygon><path d="M793.26 886.96c2.49-1.61 4.96-3.24 7.32-5.05C797.33 881.82 793.98 883.78 793.26 886.96zM649.94 834.93c4.28 26.84-14.01 52.08-40.85 56.36-1.69.27-3.36.44-5.04.55-24.89 1.41-47.31-16.25-51.32-41.4-4.28-26.84 14.01-52.08 40.85-56.36 19.17-3.06 37.49 5.4 47.98 20.25C645.77 820.26 648.72 827.26 649.94 834.93z"></path><path fill="#e5443f" d="M649.94,834.93c4.28,26.84-14.01,52.08-40.85,56.36c-1.69,0.27-3.36,0.44-5.04,0.55
				c-4.22-5.93-7.16-12.94-8.39-20.6c-4.29-26.87,14.01-52.08,40.85-56.36c1.69-0.27,3.36-0.44,5.04-0.55
				C645.77,820.26,648.72,827.26,649.94,834.93z"></path><path fill="#00887d" d="M772.23 1121.24c-15.52 11.93-34.03-14.47-34.03-14.47l-13.75-50.55 4.04-15.82 10.12-1.61 26.93 20.03C765.54 1058.82 787.75 1109.31 772.23 1121.24zM738.2 1106.77c0 0-16.26 37.42-33.49 33.87-17.23-3.55-60.29-71.23-60.29-71.23l22.38-16.8 35.29-7.99 14.58 31.63L738.2 1106.77z"></path><path fill="#ffcfc5" d="M666.75,1052.61c22.79,22.86,48.07,40.74,71.4,54.16c3.36-21.21,8.63-35.59,2.9-58.98L666.75,1052.61z"></path><polygon fill="#ffcfc5" points="741.05 1047.79 666.75 1052.61 654.34 949.65 661.9 958.76 664.43 961.78 665.57 963.15 666.76 963.52 727.91 982.85 728.04 983.64 735.95 1028.77 736.02 1029.25"></polygon><path fill="#fc9b88" d="M738.44,1038.21c0,0-55.3-29.95-70.51-63.1c-0.98-2.14-1.75-4.1-2.32-5.91c-0.2-0.57-0.35-1.11-0.51-1.65
				l2.84,3.4l0.83,1l60.45,19.12L738.44,1038.21z"></path><path fill="#ffcfc5" d="M756.27,1011.78c-30.26,11.22-73.42-7.31-96.65-46.86c-6.97,1.63-18.14,0.42-25.66-4.9
				c-11.95-8.48-16.56-22.61-10.17-31.48c3.59-5.09,9.49-9.27,16.57-8.66c-8.35-41.9,9.45-80.06,37.88-91.38
				c21.24-8.45,55.49-7.86,76.35,11.97c12.83,12.19,24.04,28.69,31.75,48.19C806.74,939.75,786.18,1000.63,756.27,1011.78z"></path><polygon fill="#fc9b88" points="755.96 892.75 779.27 930.06 759.92 938.9"></polygon><path d="M638.44,919.61c10.95,6.11,19.15,7.16,24.29,16.52c52.44-25.69,75.18-89.76,75.18-89.76
				c9.81,2.56,28.49,7.15,39.46,23.56c0,0,1.35-48.9-28.42-64.77c-29.78-15.87-88.25-11.6-116.88,21.71
				C604.83,858.58,638.44,919.61,638.44,919.61z"></path><g><circle cx="1787.5" cy="1301.67" r="169.56" fill="#fff"></circle><path d="M1787.5,1473.09c-94.52,0-171.43-76.9-171.43-171.43c0-94.52,76.9-171.43,171.43-171.43s171.42,76.9,171.42,171.43
			C1958.92,1396.19,1882.02,1473.09,1787.5,1473.09z M1787.5,1133.98c-92.47,0-167.69,75.22-167.69,167.69
			c0,92.47,75.22,167.69,167.69,167.69c92.46,0,167.69-75.22,167.69-167.69C1955.19,1209.2,1879.96,1133.98,1787.5,1133.98z"></path></g><g><path fill="#ffb902" d="M1887.4,1319.54l-36.87,44.46c-4.27,5.15-12.17,5.15-16.44,0l-36.87-44.46c-5.78-6.95-0.84-17.48,8.2-17.48
				h13.32v-68.3c0-4.11,3.34-7.45,7.45-7.45h32.24c4.11,0,7.45,3.34,7.45,7.45v68.3h13.32
				C1888.24,1302.06,1893.18,1312.59,1887.4,1319.54z"></path><path d="M1842.31,1369.73c-3.75,0-7.27-1.65-9.66-4.54l-36.87-44.46c-3.14-3.78-3.8-8.89-1.71-13.33
				c2.08-4.45,6.43-7.21,11.35-7.21h11.45v-66.43c0-5.14,4.18-9.32,9.32-9.32h32.24c5.14,0,9.32,4.18,9.32,9.32v66.43h11.45
				c4.91,0,9.26,2.76,11.35,7.21c2.08,4.44,1.43,9.55-1.71,13.33l-36.87,44.46C1849.58,1368.08,1846.06,1369.73,1842.31,1369.73z
				 M1805.42,1303.93c-3.5,0-6.48,1.89-7.96,5.06c-1.49,3.16-1.04,6.66,1.2,9.36l36.87,44.46c3.36,4.05,10.2,4.06,13.56,0
				l36.87-44.46c2.24-2.69,2.69-6.19,1.2-9.36c-1.49-3.17-4.46-5.06-7.96-5.06h-15.19v-70.17c0-3.08-2.5-5.58-5.58-5.58h-32.24
				c-3.08,0-5.58,2.5-5.58,5.58v70.17H1805.42z"></path></g><g><path fill="#007afd" d="M1687.59,1274.63l36.87-44.46c4.27-5.15,12.17-5.15,16.44,0l36.87,44.46c5.78,6.95,0.84,17.48-8.2,17.48
				h-13.32v68.3c0,4.11-3.34,7.45-7.45,7.45h-32.24c-4.11,0-7.45-3.34-7.45-7.45v-68.3h-13.32
				C1686.76,1292.11,1681.81,1281.58,1687.59,1274.63z"></path><path d="M1748.81,1369.73h-32.24c-5.14,0-9.32-4.18-9.32-9.32v-66.43h-11.46c-4.91,0-9.26-2.76-11.34-7.21
				c-2.09-4.45-1.43-9.56,1.71-13.33l36.87-44.46c2.39-2.88,5.91-4.53,9.66-4.53c3.75,0,7.26,1.65,9.66,4.53l36.87,44.46
				c3.14,3.78,3.8,8.89,1.71,13.33c-2.08,4.45-6.43,7.21-11.35,7.21h-11.45v66.43C1758.13,1365.55,1753.95,1369.73,1748.81,1369.73z
				 M1732.69,1228.18c-2.63,0-5.1,1.16-6.78,3.18l-36.87,44.46c-2.24,2.69-2.69,6.19-1.2,9.36c1.49,3.16,4.46,5.06,7.96,5.06h15.19
				v70.17c0,3.08,2.5,5.58,5.58,5.58h32.24c3.08,0,5.58-2.5,5.58-5.58v-70.17h15.19c3.5,0,6.48-1.89,7.96-5.06
				c1.49-3.16,1.04-6.66-1.2-9.36l-36.87-44.46C1737.79,1229.34,1735.32,1228.18,1732.69,1228.18z"></path></g><g><path fill="#fff" d="M1619.69,826.42h-36.06c-8.68,0-16.2-5.92-18.23-14.34l-3.67-15.25c-1.49-6.17-6.06-11.15-12.06-13.29
			c-4.79-1.71-9.44-3.63-14.02-5.81c-5.74-2.72-12.49-2.47-17.94,0.87l-13.36,8.17c-7.37,4.54-16.92,3.41-23.02-2.72l-25.56-25.53
			c-6.1-6.14-7.23-15.65-2.72-23.02l8.21-13.36c3.34-5.45,3.59-12.2,0.87-17.97c-2.18-4.54-4.1-9.22-5.85-13.98
			c-2.14-6.03-7.08-10.57-13.29-12.06l-15.22-3.67c-8.42-2.03-14.34-9.55-14.34-18.23v-36.1c0-8.64,5.92-16.2,14.34-18.19
			l15.22-3.67c6.21-1.49,11.15-6.06,13.29-12.06c1.74-4.79,3.67-9.48,5.85-14.02c2.72-5.77,2.47-12.49-0.87-17.94l-8.21-13.36
			c-4.5-7.41-3.38-16.92,2.72-23.06l25.56-25.53c6.1-6.14,15.65-7.26,23.02-2.72l13.36,8.17c5.45,3.34,12.2,3.63,17.94,0.87
			c4.58-2.14,9.22-4.1,14.02-5.81c5.99-2.14,10.57-7.08,12.06-13.29l3.67-15.22c2.03-8.42,9.55-14.38,18.23-14.38l36.06,0
			c8.68,0,16.2,5.96,18.23,14.38l3.67,15.22c1.49,6.21,6.06,11.15,12.06,13.29c4.79,1.71,9.44,3.67,14.02,5.81
			c5.74,2.76,12.49,2.47,17.94-0.87l13.36-8.17c7.37-4.54,16.92-3.41,23.02,2.72l25.56,25.53c6.1,6.14,7.23,15.65,2.72,23.06
			l-8.21,13.36c-3.34,5.45-3.59,12.16-0.87,17.94c2.18,4.54,4.1,9.22,5.85,14.02c2.14,5.99,7.08,10.57,13.29,12.06l15.22,3.67
			c8.42,2,14.38,9.55,14.38,18.19v36.1c0,8.68-5.96,16.2-14.38,18.23l-15.22,3.67c-6.21,1.49-11.15,6.03-13.29,12.06
			c-1.74,4.76-3.67,9.44-5.85,13.98c-2.72,5.77-2.47,12.53,0.87,17.97l8.21,13.36c4.5,7.37,3.38,16.89-2.72,23.02l-25.56,25.53
			c-6.1,6.14-15.65,7.26-23.02,2.72l-13.36-8.17c-5.45-3.34-12.16-3.59-17.94-0.87c-4.58,2.18-9.22,4.1-14.02,5.81
			c-5.99,2.14-10.57,7.12-12.06,13.29l-3.67,15.25C1635.89,820.51,1628.37,826.42,1619.69,826.42z"></path><path fill="#242b2b" d="M1619.69,828.29h-36.06c-9.56,0-17.81-6.49-20.05-15.77l-3.66-15.25c-1.34-5.54-5.4-10.01-10.87-11.97
			c-4.91-1.75-9.55-3.67-14.19-5.88c-5.26-2.49-11.29-2.2-16.16,0.78l-13.37,8.17c-8.15,5.02-18.57,3.79-25.32-3l-25.56-25.52
			c-6.73-6.78-7.97-17.18-3-25.32l8.21-13.37c2.98-4.85,3.27-10.91,0.77-16.2c-2.08-4.32-4.01-8.95-5.91-14.13
			c-1.95-5.49-6.42-9.55-11.97-10.88l-15.22-3.67c-9.29-2.24-15.78-10.49-15.78-20.05v-36.1c0-9.58,6.49-17.81,15.78-20.01
			l15.21-3.67c5.54-1.33,10.01-5.39,11.97-10.87c1.88-5.16,3.81-9.8,5.92-14.2c2.49-5.26,2.19-11.31-0.78-16.15l-8.21-13.36
			c-4.96-8.17-3.73-18.59,2.99-25.36l25.57-25.53c6.75-6.79,17.16-8.02,25.32-2.99l13.36,8.17c4.89,3.01,10.93,3.29,16.15,0.78
			c4.99-2.34,9.63-4.26,14.2-5.88c5.48-1.96,9.54-6.44,10.87-11.97l3.66-15.22c2.25-9.31,10.49-15.81,20.05-15.81h36.06
			c9.56,0,17.8,6.5,20.05,15.81l3.67,15.21c1.33,5.54,5.39,10.01,10.86,11.97c4.57,1.62,9.21,3.55,14.18,5.87
			c5.24,2.52,11.28,2.23,16.17-0.77l13.37-8.17c8.16-5.01,18.57-3.79,25.32,3l25.56,25.52c6.73,6.77,7.96,17.2,3,25.35l-8.21,13.37
			c-2.97,4.84-3.26,10.89-0.77,16.16c2.1,4.37,4.03,9.01,5.91,14.17c1.96,5.49,6.44,9.55,11.97,10.88l15.22,3.67
			c9.3,2.2,15.81,10.43,15.81,20.01v36.1c0,9.56-6.5,17.8-15.81,20.05l-15.21,3.67c-5.55,1.33-10.02,5.39-11.97,10.86
			c-1.91,5.2-3.84,9.83-5.92,14.16c-2.49,5.27-2.2,11.33,0.78,16.19l8.21,13.36c4.98,8.14,3.74,18.55-2.99,25.32l-25.57,25.53
			c-6.75,6.79-17.16,8.02-25.32,2.99l-13.36-8.17c-4.85-2.97-10.89-3.26-16.17-0.78c-4.62,2.2-9.26,4.13-14.19,5.88
			c-5.46,1.96-9.53,6.43-10.86,11.97l-3.67,15.25C1637.5,821.81,1629.25,828.29,1619.69,828.29z M1527.44,773.99
			c3.06,0,6.14,0.68,9.02,2.04c4.53,2.16,9.05,4.03,13.84,5.74c6.66,2.38,11.61,7.84,13.25,14.61l3.67,15.25
			c1.83,7.6,8.58,12.91,16.41,12.91h36.06c7.83,0,14.58-5.31,16.41-12.91l3.67-15.25c1.64-6.77,6.59-12.23,13.24-14.61
			c4.8-1.71,9.33-3.59,13.84-5.74c6.42-3.03,13.79-2.67,19.72,0.97l13.36,8.17c6.69,4.12,15.2,3.1,20.72-2.45l25.57-25.53
			c5.51-5.54,6.52-14.07,2.45-20.73l-8.2-13.36c-3.64-5.94-4-13.32-0.97-19.75c2.03-4.24,3.92-8.76,5.78-13.83
			c2.37-6.65,7.83-11.6,14.61-13.23l15.21-3.67c7.62-1.84,12.95-8.59,12.95-16.41v-36.1c0-7.84-5.32-14.57-12.94-16.37l-15.22-3.67
			c-6.76-1.62-12.23-6.57-14.61-13.25c-1.84-5.04-3.72-9.57-5.78-13.84c-3.03-6.43-2.67-13.8,0.97-19.73l8.21-13.36
			c4.06-6.68,3.05-15.22-2.46-20.76l-25.56-25.52c-5.52-5.56-14.05-6.56-20.72-2.45l-13.37,8.17c-5.97,3.66-13.34,4.03-19.72,0.96
			c-4.84-2.27-9.37-4.14-13.83-5.73c-6.67-2.38-11.62-7.85-13.25-14.62l-3.67-15.21c-1.84-7.63-8.59-12.95-16.41-12.95h-36.06
			c-7.82,0-14.57,5.33-16.41,12.95l-3.67,15.21c-1.62,6.76-6.57,12.23-13.25,14.61c-4.46,1.58-8.99,3.46-13.85,5.74
			c-6.35,3.05-13.73,2.7-19.71-0.97l-13.36-8.17c-6.68-4.11-15.2-3.11-20.72,2.45l-25.57,25.53c-5.5,5.54-6.51,14.08-2.45,20.77
			l8.2,13.36c3.64,5.92,4,13.29,0.97,19.71c-2.06,4.3-3.95,8.82-5.78,13.86c-2.38,6.66-7.84,11.61-14.61,13.24l-15.21,3.67
			c-7.61,1.8-12.92,8.53-12.92,16.38v36.1c0,7.83,5.31,14.58,12.92,16.41l15.21,3.67c6.78,1.63,12.24,6.58,14.61,13.24
			c1.85,5.06,3.74,9.58,5.77,13.8c3.04,6.45,2.68,13.83-0.97,19.76l-8.21,13.36c-4.06,6.66-3.06,15.18,2.46,20.73l25.56,25.52
			c5.53,5.56,14.05,6.57,20.72,2.45l13.37-8.17C1520.01,775,1523.71,773.99,1527.44,773.99z"></path></g><g><circle cx="1601.66" cy="638.18" r="100.91" fill="#c5cde3"></circle></g><g><circle cx="1601.66" cy="638.18" r="83.38" fill="#fff"></circle><path fill="#242b2b" d="M1601.66,723.44c-47.01,0-85.25-38.25-85.25-85.26c0-47.01,38.25-85.25,85.25-85.25
			c47.01,0,85.25,38.25,85.25,85.25C1686.91,685.19,1648.67,723.44,1601.66,723.44z M1601.66,556.67
			c-44.95,0-81.51,36.57-81.51,81.51s36.57,81.52,81.51,81.52c44.95,0,81.51-36.57,81.51-81.52S1646.61,556.67,1601.66,556.67z"></path></g><g><path fill="#ff4148" d="M1068.72,563.8l16.94,126.19c2.98,22.18-12.63,42.64-34.86,45.62l-146.62,19.68
				c-22.23,2.98-42.68-12.63-45.66-34.81l-16.94-126.19c-2.98-22.18,12.63-42.64,34.86-45.62l146.62-19.68
				C1045.29,526,1065.74,541.61,1068.72,563.8z"></path><path d="M898.69,757.52c-9.25,0-18.2-3.01-25.69-8.72c-9.02-6.88-14.82-16.86-16.33-28.08l-16.94-126.19
				c-3.12-23.19,13.24-44.6,36.46-47.72l146.62-19.68c11.25-1.52,22.4,1.45,31.43,8.33c9.02,6.88,14.82,16.86,16.33,28.08
				l16.94,126.19c3.12,23.19-13.24,44.6-36.46,47.72l-146.62,19.68C902.5,757.39,900.59,757.52,898.69,757.52z M1028.55,530.48
				c-1.74,0-3.48,0.12-5.23,0.35l-146.62,19.68c-21.18,2.85-36.1,22.37-33.26,43.52l16.94,126.19c1.38,10.24,6.67,19.33,14.89,25.61
				c8.23,6.28,18.4,8.98,28.66,7.6l146.62-19.68c21.18-2.85,36.1-22.37,33.26-43.52l-16.94-126.19
				c-1.38-10.24-6.67-19.33-14.89-25.61C1045.15,533.23,1036.98,530.48,1028.55,530.48z"></path></g><g><path fill="#fff" d="M1002.73,653.07L965.3,685.3c-11.54,9.95-29.5,3.12-31.52-11.97l-7.17-53.41
			c-2.03-15.09,13.49-26.41,27.25-19.88l44.6,21.18C1010.98,627.19,1013.24,644.04,1002.73,653.07z"></path></g><g><path fill="#04b5a4" d="M1992.72,1106.9c-6.24-0.92-10.47-7.33-9.45-14.28l18.45-124.84c1.03-6.95,6.94-11.86,13.17-10.94
				l185.05,27.34c6.24,0.92,10.47,7.33,9.45,14.28l-18.45,124.84c-1.03,6.95-6.94,11.86-13.17,10.94L1992.72,1106.9z"></path><path fill="#242b2b" d="M2179.3,1136.23c-0.6,0-1.2-0.04-1.8-0.14l-185.05-27.35v0c-3.55-0.53-6.65-2.55-8.73-5.7
				c-2.04-3.08-2.85-6.89-2.29-10.71l18.45-124.84c0.56-3.82,2.44-7.22,5.29-9.59c2.9-2.41,6.45-3.46,10.01-2.92l185.05,27.34
				c7.25,1.08,12.2,8.43,11.02,16.4l-18.45,124.84c-0.57,3.82-2.44,7.22-5.29,9.59C2185.09,1135.17,2182.23,1136.23,2179.3,1136.23z
				 M2013.38,958.6c-2.07,0-4.1,0.76-5.83,2.2c-2.14,1.77-3.55,4.35-3.98,7.26l-18.45,124.84c-0.43,2.91,0.18,5.78,1.71,8.1
				c1.49,2.25,3.68,3.69,6.16,4.06l185.05,27.35c2.48,0.38,5-0.38,7.07-2.1c2.14-1.77,3.55-4.35,3.98-7.26l18.45-124.84
				c0.87-5.93-2.66-11.39-7.87-12.16l-185.05-27.34C2014.21,958.63,2013.79,958.6,2013.38,958.6z"></path></g><g><polygon fill="#fff" points="2175.35 1106.17 2007.25 1081.33 2057.02 1034.47 2075.69 1066.92 2125.69 1019.82"></polygon></g><g><circle cx="2079.72" cy="1014.64" r="15.43" fill="#fff"></circle></g><g><path fill="#00887d" d="M1882.27,1557.35c0,0,50.3,140.16,50.3,221.97c0,81.81-40.35,228.45-40.35,228.45l-34.09-3.13
			c0,0-27.55-162.95-28.24-235.38C1829.39,1716.28,1881.23,1666.66,1882.27,1557.35z"></path></g><g><path fill="#00887d" d="M1866.85,2007.77h-21.57c0,0-7.71-64.38-31.85-85.84c-24.14-21.46-48.21-54.02-59.91-112.22
			c-13.41-66.61-8.94-121.16-8.94-121.16s-34.42-25.93-20.57-105.51c0,0,17.18,51.75,47.39,80.47
			c57.49,54.62,68.1,115.94,77.68,167.65h0.04c0.89,5.03,1.83,9.95,2.76,14.75C1862.6,1900.48,1866.85,2007.77,1866.85,2007.77z"></path></g><g><path fill="#04b5a4" d="M1849.08,1831.18c0,0-37-75.56-65.61-97.01c-28.61-21.46-38.9-45.6-38.9-45.6s-34.42-25.93-20.57-105.51
			c0,0,17.18,51.75,47.39,80.47C1828.89,1718.15,1839.5,1779.47,1849.08,1831.18z"></path></g><g><path fill="#04b5a4" d="M2019.07,1765.46c-5.36,52.75-94.78,181.51-104.61,242.31h-22.24l7.79-162.18c0,0,0.34-15.65,6.15-35.95
					c4.36-15.16,11.77-32.93,24.4-48.66c29.51-36.66,75.11-74.21,77.79-106.4C2008.34,1654.59,2024.43,1712.71,2019.07,1765.46z"></path><path fill="#00887d" d="M1914.45,2007.77h-22.24l7.79-162.18c0,0,0.34-15.65,6.15-35.95
					C1925.3,1892.5,1914.45,2007.77,1914.45,2007.77z"></path></g><g><path fill="#04b5a4" d="M1901.94,2007.77c0,0,18.55-197.61-35.77-261.31c0,0-24.06,63-24.14,122.05
			c-0.11,79.13,20.79,81.81,24.81,139.26H1901.94z"></path></g><g><polygon fill="#fff" points="1975.96 2004.81 1937.22 2204.92 1810.04 2204.92 1807.12 2185.6 1771.3 2004.81"></polygon></g><g><path fill="#e5e8ff" d="M1975.96,2004.81l-38.74,200.11h-115.31c90.65-68.35,133.29-199.62,133.29-199.62l1.37-0.49H1975.96z"></path></g><g><path fill="#242b2b" d="M1938.76,2206.78h-130.33l-3.17-20.91l-36.24-182.94h209.21L1938.76,2206.78z M1811.65,2203.05h124.03
			l38.02-196.37h-200.13l35.38,178.55L1811.65,2203.05z"></path></g><g><polygon fill="none" points="1975.97 2004.81 1937.22 2204.92 1810.04 2204.92 1807.11 2185.6 1771.3 2004.81"></polygon></g></svg>