<svg xmlns="http://www.w3.org/2000/svg" enable-background="new 0 0 2500 2500" viewBox="0 0 2500 2500" id="cloud-hosting"><path d="M547.66,1604.13h-11.44v-240.57c0-26.62,10.37-51.65,29.19-70.47l50.58-50.58c16.66-16.66,25.84-38.82,25.84-62.39V910.44
			h11.44v269.68c0,26.62-10.37,51.65-29.19,70.47l-50.58,50.58c-16.66,16.67-25.84,38.82-25.84,62.39V1604.13z"></path><path fill="#242b2b" d="M685.65,925.51h-76.2c-10.21,0-18.49-8.28-18.49-18.49v-76.2c0-10.21,8.28-18.49,18.49-18.49h76.2
				c10.21,0,18.49,8.28,18.49,18.49v76.2C704.14,917.23,695.86,925.51,685.65,925.51z"></path><path d="M685.65 927.41h-76.2c-11.25 0-20.4-9.15-20.4-20.4v-76.2c0-11.25 9.15-20.4 20.4-20.4h76.2c11.25 0 20.4 9.15 20.4 20.4v76.2C706.05 918.26 696.9 927.41 685.65 927.41zM609.45 814.24c-9.14 0-16.58 7.44-16.58 16.58v76.2c0 9.14 7.44 16.58 16.58 16.58h76.2c9.14 0 16.58-7.44 16.58-16.58v-76.2c0-9.14-7.44-16.58-16.58-16.58H609.45zM757.77 1604.13h-11.44v-240.57c0-26.62 10.37-51.65 29.19-70.47l50.58-50.58c16.66-16.66 25.84-38.82 25.84-62.39V910.44h11.44v269.68c0 26.62-10.37 51.65-29.19 70.47l-50.58 50.58c-16.67 16.67-25.84 38.82-25.84 62.39V1604.13z"></path><path fill="#242b2b" d="M895.76,925.51h-76.2c-10.21,0-18.49-8.28-18.49-18.49v-76.2c0-10.21,8.28-18.49,18.49-18.49h76.2
				c10.21,0,18.49,8.28,18.49,18.49v76.2C914.25,917.23,905.97,925.51,895.76,925.51z"></path><path d="M895.76 927.41h-76.2c-11.25 0-20.4-9.15-20.4-20.4v-76.2c0-11.25 9.15-20.4 20.4-20.4h76.2c11.25 0 20.4 9.15 20.4 20.4v76.2C916.16 918.26 907.01 927.41 895.76 927.41zM819.57 814.24c-9.14 0-16.58 7.44-16.58 16.58v76.2c0 9.14 7.44 16.58 16.58 16.58h76.2c9.14 0 16.58-7.44 16.58-16.58v-76.2c0-9.14-7.44-16.58-16.58-16.58H819.57zM930.17 1604.13h-11.44v-240.57c0-26.62 10.37-51.65 29.19-70.47l50.58-50.58c16.67-16.67 25.84-38.82 25.84-62.39V910.44h11.44v269.68c0 26.62-10.37 51.65-29.19 70.47l-50.58 50.58c-16.66 16.66-25.84 38.82-25.84 62.39V1604.13z"></path><path fill="#242b2b" d="M1068.16,925.51h-76.2c-10.21,0-18.49-8.28-18.49-18.49v-76.2c0-10.21,8.28-18.49,18.49-18.49h76.2
				c10.21,0,18.49,8.28,18.49,18.49v76.2C1086.65,917.23,1078.37,925.51,1068.16,925.51z"></path><path d="M1068.16,927.41h-76.19c-11.25,0-20.4-9.15-20.4-20.4v-76.2c0-11.25,9.15-20.4,20.4-20.4h76.19
				c11.25,0,20.4,9.15,20.4,20.4v76.2C1088.56,918.26,1079.41,927.41,1068.16,927.41z M991.97,814.24
				c-9.14,0-16.58,7.44-16.58,16.58v76.2c0,9.14,7.44,16.58,16.58,16.58h76.19c9.14,0,16.58-7.44,16.58-16.58v-76.2
				c0-9.14-7.44-16.58-16.58-16.58H991.97z"></path><path fill="#ff4148" d="M962.26,1885.36c-5.98,0-11.95-0.52-17.85-1.61l1.38-7.5c47.49,8.71,100.48-21.61,120.57-69.06
			c17.34-40.94,12.42-92.23-13.51-140.7c-23.14-43.29-58.84-79.53-96.48-115.91l-6.99-6.75c-34.29-33.08-69.76-67.29-95.36-107.61
			c-26.73-42.12-31.93-82.91-14.24-111.92c13.4-21.99,38.12-35.08,62.3-46.59c61.52-29.31,125.46-55.7,190.03-78.45l2.53,7.19
			c-64.32,22.66-128,48.95-189.28,78.13c-23.13,11.02-46.75,23.47-59.06,43.68c-22.88,37.54,2.29,85.14,14.18,103.86
			c25.11,39.56,60.24,73.45,94.21,106.21l7,6.76c38.09,36.82,74.24,73.54,97.91,117.8c27.01,50.52,32.05,104.2,13.8,147.27
			C1054.44,1854.9,1007.95,1885.36,962.26,1885.36z"></path><path fill="#ffb902" d="M1013.34,1626.37c-18.18,0-36.21-5-52.34-9.48l2.04-7.35c18.55,5.15,37.75,10.49,57,8.94
			c16.3-1.29,36.76-9.11,45.31-27.16c11.06-23.34-3.79-49.89-10.7-60.22c-19.16-28.69-48.2-49.65-76.27-69.93
			c-7.16-5.17-14.55-10.51-21.68-15.9c-46.6-35.26-71.54-70.34-76.26-107.24c-4.19-32.78,8.19-69.09,33.96-99.63
			c23.6-27.96,55.31-48.54,83.17-65.62l3.98,6.5c-27.35,16.78-58.46,36.94-81.32,64.03c-24.4,28.91-36.14,63.08-32.22,93.75
			c4.45,34.76,28.42,68.17,73.3,102.13c7.06,5.34,14.42,10.66,21.54,15.8c28.62,20.68,58.22,42.05,78.14,71.88
			c7.63,11.41,23.99,40.86,11.25,67.73c-9.95,20.99-33.18,30.03-51.6,31.49C1018.21,1626.28,1015.77,1626.37,1013.34,1626.37z"></path><path fill="#fff" d="M1305.01,679.29c0,106.73-84.4,193.22-188.45,193.22c-21.3,0-41.76-3.61-60.86-10.28
			c-0.16-0.08-0.32-0.12-0.44-0.16c-29.61,19.09-64.74,30.16-102.42,30.16c-47.83,0-91.59-17.82-125.07-47.32
			c-0.2-0.2-0.44-0.37-0.64-0.57c-38.12,29.83-88.07,47.9-142.7,47.9c-39.72,0-76.96-9.55-108.93-26.18
			c-15.5,4.22-31.77,6.47-48.55,6.47c-104.1,0-188.45-86.49-188.45-193.22c0-81.99,49.79-152.05,120.08-180.11
			c19.82-70.43,83.16-121.89,158.2-121.89c13.67,0,26.93,1.68,39.6,4.92h0.04c44.91-77.36,127.27-129.14,221.42-129.14
			c134.15,0,245.39,99.68,257.62,233.95l0,0C1230.64,496.76,1305.01,579.11,1305.01,679.29z"></path><path fill="#e5e8ff" d="M1305,679.27c0,106.75-84.39,193.24-188.44,193.24c-21.31,0-41.77-3.62-60.87-10.28
			c-0.16-0.1-0.33-0.14-0.43-0.17c-29.62,19.08-64.76,30.14-102.43,30.14c-48.13,0-92.14-18.06-125.72-47.9
			c-19.07,14.92-41.07,26.89-65.15,35.14c-24.05,8.25-50.21,12.75-77.53,12.75c-39.72,0-76.97-9.54-108.93-26.18
			c-15.51,4.23-31.77,6.49-48.56,6.49c-104.08,0-188.44-86.49-188.44-193.24c0-5.14,0.2-10.22,0.56-15.22
			c7.42,99.75,88.71,178.29,187.88,178.29c12.04,0,30.05-1.15,45-3.35c10.82-1.59,21.84,0.2,31.77,4.84
			c25.01,11.7,47.87,18.23,80.73,18.23c46.81,0,99.17-13.26,137.14-35.86c11.35-6.73,25.44-6.43,36.65,0.47
			c23.03,14.21,62.75,35.38,94.61,35.38c31.74,0,70.33-7.85,99.4-21.75c9.96-4.77,21.18-6.05,31.8-3.18
			c9.6,2.6,21.87,5.21,32.53,5.21c99.1,0,180.36-78.44,187.84-178.12C1304.81,669.19,1305,674.2,1305,679.27z"></path><path d="M952.84,894.13c-46.24,0-90.89-16.8-125.79-47.33c-39.63,30.53-90.2,47.33-142.62,47.33c-38.39,0-76.12-9.01-109.15-26.06
			c-15.72,4.21-31.97,6.35-48.33,6.35c-104.96,0-190.36-87.54-190.36-195.13c0-80.75,47.23-151.9,120.41-181.53
			c20.72-72.1,86.28-122.38,159.78-122.38c13.19,0,26.21,1.56,38.71,4.63c46.75-79.52,131.82-128.86,222.35-128.86
			c135.19,0,246.43,100.53,259.38,234.13c96.86,10.72,169.7,93.85,169.7,194.01c0,107.6-85.4,195.13-190.36,195.13
			c-20.93,0-41.47-3.44-61.06-10.24C1024.77,883.77,989.3,894.13,952.84,894.13z M827.31,841.76l1.2,1.24
			c0.33,0.28,0.49,0.42,0.64,0.57c34.18,30.1,78.15,46.74,123.7,46.74c36.04,0,71.1-10.32,101.39-29.85l0.77-0.5l0.88,0.3
			c0.24,0.07,0.47,0.15,0.69,0.27c19.07,6.65,39.34,10.08,59.99,10.08c102.86,0,186.54-85.82,186.54-191.32
			c0-98.74-72.16-180.58-167.84-190.38l-1.56-0.16l-0.14-1.56c-12.05-132.39-121.99-232.22-255.72-232.22
			c-89.64,0-173.85,49.12-219.77,128.19l-0.55,0.95l-1.61-0.06c-12.61-3.22-25.77-4.86-39.13-4.86c-72.1,0-136.4,49.55-156.36,120.5
			l-0.26,0.9l-0.87,0.35c-72.22,28.84-118.88,98.84-118.88,178.34c0,105.49,83.68,191.32,186.55,191.32
			c16.27,0,32.43-2.16,48.05-6.41l0.72-0.2l0.66,0.35c32.65,16.99,70.01,25.97,108.05,25.97c52.12,0,102.38-16.87,141.52-47.49
			L827.31,841.76z M827.4,844.67l0.01,0.01l0.04-0.07L827.4,844.67z"></path><path d="M459.3 500.94l-1.42-3.54c23.34-9.32 48.25-13.76 73.43-13.19l-.09 3.81C506.52 487.4 482.16 491.81 459.3 500.94zM1066.61 494.9l-1.04-3.67c22.61-6.42 46.65-8.5 70.08-6.1l-.39 3.79C1112.33 486.59 1088.76 488.61 1066.61 494.9zM701.75 403.72c-14.24-8.96-29.66-15.58-45.83-19.68l.94-3.69c16.56 4.19 32.35 10.97 46.93 20.15L701.75 403.72zM574.6 867.73c-21.58-11.22-40.73-25.57-56.91-42.63l2.77-2.62c15.89 16.75 34.71 30.84 55.91 41.87L574.6 867.73zM828.94 845.34l-2.36-2.99c16.48-13 30.57-28.08 41.89-44.84l3.16 2.14C860.09 816.73 845.73 832.1 828.94 845.34zM1056.28 863.66l-2.07-3.2c14.34-9.26 27.39-20.44 38.8-33.23l2.85 2.54C1084.22 842.82 1070.91 854.22 1056.28 863.66z"></path><rect width="532.72" height="332.12" x="349.03" y="1714.23"></rect><path fill="#161c1c" d="M861.34,1544.63v143.83c0,14.23-11.54,25.77-25.77,25.77H334.64c-14.23,0-25.77-11.54-25.77-25.77
								v-143.83c0-14.23,11.54-25.77,25.77-25.77h500.92C849.8,1518.86,861.34,1530.4,861.34,1544.63z"></path><path d="M835.57,1716.14H334.64c-15.26,0-27.68-12.42-27.68-27.67v-143.83c0-15.26,12.41-27.67,27.68-27.67h500.92
								c15.26,0,27.67,12.42,27.67,27.67v143.83C863.24,1703.72,850.82,1716.14,835.57,1716.14z M334.64,1520.77
								c-13.16,0-23.86,10.7-23.86,23.86v143.83c0,13.16,10.7,23.86,23.86,23.86h500.92c13.16,0,23.86-10.7,23.86-23.86v-143.83
								c0-13.16-10.7-23.86-23.86-23.86H334.64z"></path><path fill="#161c1c" d="M861.34,1808.38v143.83c0,14.23-11.54,25.77-25.77,25.77H334.64c-14.23,0-25.77-11.54-25.77-25.77
								v-143.83c0-14.23,11.54-25.77,25.77-25.77h500.92C849.8,1782.61,861.34,1794.15,861.34,1808.38z"></path><path d="M835.57,1979.89H334.64c-15.26,0-27.68-12.42-27.68-27.67v-143.83c0-15.26,12.41-27.68,27.68-27.68h500.92
								c15.26,0,27.67,12.42,27.67,27.68v143.83C863.24,1967.47,850.82,1979.89,835.57,1979.89z M334.64,1784.52
								c-13.16,0-23.86,10.71-23.86,23.86v143.83c0,13.16,10.7,23.86,23.86,23.86h500.92c13.16,0,23.86-10.7,23.86-23.86v-143.83
								c0-13.16-10.7-23.86-23.86-23.86H334.64z"></path><path fill="#161c1c" d="M861.34,2072.13v143.83c0,14.23-11.54,25.77-25.77,25.77H334.64c-14.23,0-25.77-11.54-25.77-25.77
								v-143.83c0-14.23,11.54-25.77,25.77-25.77h500.92C849.8,2046.36,861.34,2057.9,861.34,2072.13z"></path><path d="M835.57,2243.64H334.64c-15.26,0-27.68-12.42-27.68-27.67v-143.83c0-15.26,12.41-27.68,27.68-27.68h500.92
								c15.26,0,27.67,12.42,27.67,27.68v143.83C863.24,2231.22,850.82,2243.64,835.57,2243.64z M334.64,2048.26
								c-13.16,0-23.86,10.71-23.86,23.86v143.83c0,13.16,10.7,23.86,23.86,23.86h500.92c13.16,0,23.86-10.7,23.86-23.86v-143.83
								c0-13.16-10.7-23.86-23.86-23.86H334.64z"></path><path fill="#fff" d="M982.16,1544.63v143.83c0,14.23-11.54,25.77-25.77,25.77H547.3c-14.23,0-25.77-11.54-25.77-25.77
								v-143.83c0-14.23,11.54-25.77,25.77-25.77h409.09C970.62,1518.86,982.16,1530.4,982.16,1544.63z"></path><path d="M956.39,1716.14H547.3c-15.26,0-27.68-12.42-27.68-27.67v-143.83c0-15.26,12.42-27.67,27.68-27.67h409.09
								c15.26,0,27.67,12.42,27.67,27.67v143.83C984.06,1703.72,971.65,1716.14,956.39,1716.14z M547.3,1520.77
								c-13.16,0-23.86,10.7-23.86,23.86v143.83c0,13.16,10.7,23.86,23.86,23.86h409.09c13.16,0,23.86-10.7,23.86-23.86v-143.83
								c0-13.16-10.7-23.86-23.86-23.86H547.3z"></path><path fill="#161c1c" d="M823.98,1714.23c-5.62-15.59-20.47-26.27-37.39-26.27H717.1c-16.92,0-31.76,10.69-37.39,26.27H823.98z"></path><path d="M826.69,1716.14H677l0.92-2.55c5.94-16.47,21.69-27.53,39.18-27.53h69.49c17.5,0,33.24,11.06,39.18,27.53
							L826.69,1716.14z M682.54,1712.33h138.62c-6.03-13.54-19.6-22.46-34.57-22.46H717.1
							C702.13,1689.87,688.57,1698.79,682.54,1712.33z"></path><path fill="#242b2b" d="M579.31 1573.83v7.4c0 2.74-2.24 4.98-4.98 4.98h-7.4c-2.74 0-4.98-2.24-4.98-4.98v-7.4c0-2.74 2.24-4.98 4.98-4.98h7.4C577.07 1568.85 579.31 1571.1 579.31 1573.83zM628.56 1573.83v7.4c0 2.74-2.24 4.98-4.98 4.98h-7.4c-2.74 0-4.98-2.24-4.98-4.98v-7.4c0-2.74 2.24-4.98 4.98-4.98h7.4C626.32 1568.85 628.56 1571.1 628.56 1573.83zM677.81 1573.83v7.4c0 2.74-2.24 4.98-4.98 4.98h-7.4c-2.74 0-4.98-2.24-4.98-4.98v-7.4c0-2.74 2.24-4.98 4.98-4.98h7.4C675.56 1568.85 677.81 1571.1 677.81 1573.83zM727.05 1573.83v7.4c0 2.74-2.24 4.98-4.98 4.98h-7.4c-2.74 0-4.98-2.24-4.98-4.98v-7.4c0-2.74 2.24-4.98 4.98-4.98h7.4C724.81 1568.85 727.05 1571.1 727.05 1573.83zM606.98 1596.11v7.4c0 2.74-2.24 4.98-4.98 4.98h-7.4c-2.74 0-4.98-2.24-4.98-4.98v-7.4c0-2.74 2.24-4.98 4.98-4.98h7.4C604.74 1591.13 606.98 1593.37 606.98 1596.11zM656.23 1596.11v7.4c0 2.74-2.24 4.98-4.98 4.98h-7.4c-2.74 0-4.98-2.24-4.98-4.98v-7.4c0-2.74 2.24-4.98 4.98-4.98h7.4C653.99 1591.13 656.23 1593.37 656.23 1596.11zM705.48 1596.11v7.4c0 2.74-2.24 4.98-4.98 4.98h-7.4c-2.74 0-4.98-2.24-4.98-4.98v-7.4c0-2.74 2.24-4.98 4.98-4.98h7.4C703.24 1591.13 705.48 1593.37 705.48 1596.11zM754.73 1596.11v7.4c0 2.74-2.24 4.98-4.98 4.98h-7.4c-2.74 0-4.98-2.24-4.98-4.98v-7.4c0-2.74 2.24-4.98 4.98-4.98h7.4C752.49 1591.13 754.73 1593.37 754.73 1596.11zM579.31 1616.24v7.4c0 2.74-2.24 4.98-4.98 4.98h-7.4c-2.74 0-4.98-2.24-4.98-4.98v-7.4c0-2.74 2.24-4.98 4.98-4.98h7.4C577.07 1611.26 579.31 1613.5 579.31 1616.24zM628.56 1616.24v7.4c0 2.74-2.24 4.98-4.98 4.98h-7.4c-2.74 0-4.98-2.24-4.98-4.98v-7.4c0-2.74 2.24-4.98 4.98-4.98h7.4C626.32 1611.26 628.56 1613.5 628.56 1616.24zM677.81 1616.24v7.4c0 2.74-2.24 4.98-4.98 4.98h-7.4c-2.74 0-4.98-2.24-4.98-4.98v-7.4c0-2.74 2.24-4.98 4.98-4.98h7.4C675.56 1611.26 677.81 1613.5 677.81 1616.24zM727.05 1616.24v7.4c0 2.74-2.24 4.98-4.98 4.98h-7.4c-2.74 0-4.98-2.24-4.98-4.98v-7.4c0-2.74 2.24-4.98 4.98-4.98h7.4C724.81 1611.26 727.05 1613.5 727.05 1616.24zM606.98 1638.52v7.4c0 2.74-2.24 4.98-4.98 4.98h-7.4c-2.74 0-4.98-2.24-4.98-4.98v-7.4c0-2.74 2.24-4.98 4.98-4.98h7.4C604.74 1633.54 606.98 1635.78 606.98 1638.52zM656.23 1638.52v7.4c0 2.74-2.24 4.98-4.98 4.98h-7.4c-2.74 0-4.98-2.24-4.98-4.98v-7.4c0-2.74 2.24-4.98 4.98-4.98h7.4C653.99 1633.54 656.23 1635.78 656.23 1638.52zM705.48 1638.52v7.4c0 2.74-2.24 4.98-4.98 4.98h-7.4c-2.74 0-4.98-2.24-4.98-4.98v-7.4c0-2.74 2.24-4.98 4.98-4.98h7.4C703.24 1633.54 705.48 1635.78 705.48 1638.52zM754.73 1638.52v7.4c0 2.74-2.24 4.98-4.98 4.98h-7.4c-2.74 0-4.98-2.24-4.98-4.98v-7.4c0-2.74 2.24-4.98 4.98-4.98h7.4C752.49 1633.54 754.73 1635.78 754.73 1638.52z"></path><path fill="#ff4148" d="M829.71,1606.13c0,6.21-2.52,11.83-6.58,15.91c-4.08,4.06-9.7,6.58-15.91,6.58
								c-12.42,0-22.48-10.06-22.48-22.48c0-6.21,2.52-11.83,6.58-15.91c4.08-4.06,9.7-6.58,15.91-6.58s11.83,2.52,15.91,6.58
								C827.19,1594.31,829.71,1599.92,829.71,1606.13z"></path><path d="M807.23,1630.52c-13.45,0-24.39-10.94-24.39-24.39c0-6.49,2.53-12.62,7.13-17.25c4.64-4.61,10.76-7.14,17.26-7.14
								c6.49,0,12.62,2.53,17.25,7.13c4.61,4.64,7.14,10.76,7.14,17.26c0,6.5-2.53,12.62-7.13,17.25
								C819.85,1627.99,813.73,1630.52,807.23,1630.52z M807.23,1585.56c-5.49,0-10.66,2.14-14.56,6.02
								c-3.88,3.9-6.01,9.07-6.01,14.55c0,11.35,9.23,20.58,20.58,20.58c5.48,0,10.65-2.14,14.56-6.02
								c3.88-3.9,6.01-9.07,6.01-14.56c0-5.48-2.14-10.65-6.02-14.56C817.89,1587.69,812.71,1585.56,807.23,1585.56z"></path><path fill="#ffb902" d="M888.32,1606.13c0,6.21-2.52,11.83-6.58,15.91c-4.08,4.06-9.7,6.58-15.91,6.58
								c-12.42,0-22.48-10.06-22.48-22.48c0-6.21,2.52-11.83,6.58-15.91c4.08-4.06,9.7-6.58,15.91-6.58s11.83,2.52,15.91,6.58
								C885.8,1594.31,888.32,1599.92,888.32,1606.13z"></path><path d="M865.84,1630.52c-13.45,0-24.39-10.94-24.39-24.39c0-6.5,2.53-12.62,7.14-17.25c4.63-4.61,10.76-7.14,17.26-7.14
								s12.62,2.53,17.25,7.13c4.61,4.63,7.14,10.76,7.14,17.26c0,6.5-2.53,12.63-7.14,17.25
								C878.46,1627.99,872.34,1630.52,865.84,1630.52z M865.84,1585.56c-5.49,0-10.65,2.14-14.56,6.02
								c-3.88,3.9-6.02,9.07-6.02,14.55c0,11.35,9.23,20.58,20.58,20.58c5.49,0,10.65-2.14,14.56-6.02
								c3.88-3.9,6.02-9.07,6.02-14.56c0-5.48-2.14-10.65-6.03-14.56C876.49,1587.69,871.33,1585.56,865.84,1585.56z"></path><path fill="#007afd" d="M946.94,1606.13c0,6.21-2.52,11.83-6.58,15.91c-4.08,4.06-9.7,6.58-15.91,6.58
								c-12.42,0-22.48-10.06-22.48-22.48c0-6.21,2.52-11.83,6.58-15.91c4.08-4.06,9.7-6.58,15.91-6.58
								c6.21,0,11.83,2.52,15.91,6.58C944.41,1594.31,946.94,1599.92,946.94,1606.13z"></path><path fill="#242b2b" d="M924.45,1630.52c-13.45,0-24.39-10.94-24.39-24.39c0-6.49,2.53-12.62,7.13-17.25
								c4.64-4.61,10.76-7.14,17.26-7.14c6.49,0,12.62,2.53,17.25,7.13c4.61,4.64,7.14,10.76,7.14,17.26
								c0,6.5-2.53,12.62-7.13,17.25C937.07,1627.99,930.95,1630.52,924.45,1630.52z M924.45,1585.56c-5.49,0-10.66,2.14-14.56,6.02
								c-3.88,3.9-6.01,9.07-6.01,14.55c0,11.35,9.23,20.58,20.58,20.58c5.48,0,10.65-2.14,14.56-6.02
								c3.88-3.9,6.01-9.07,6.01-14.56c0-5.48-2.14-10.65-6.02-14.56C935.11,1587.69,929.93,1585.56,924.45,1585.56z"></path><path fill="#fff" d="M982.16,1808.38v143.83c0,14.23-11.54,25.77-25.77,25.77H547.3c-14.23,0-25.77-11.54-25.77-25.77
								v-143.83c0-14.23,11.54-25.77,25.77-25.77h409.09C970.62,1782.61,982.16,1794.15,982.16,1808.38z"></path><path d="M956.39,1979.89H547.3c-15.26,0-27.68-12.42-27.68-27.67v-143.83c0-15.26,12.42-27.68,27.68-27.68h409.09
								c15.26,0,27.67,12.42,27.67,27.68v143.83C984.06,1967.47,971.65,1979.89,956.39,1979.89z M547.3,1784.52
								c-13.16,0-23.86,10.71-23.86,23.86v143.83c0,13.16,10.7,23.86,23.86,23.86h409.09c13.16,0,23.86-10.7,23.86-23.86v-143.83
								c0-13.16-10.7-23.86-23.86-23.86H547.3z"></path><path fill="#161c1c" d="M823.98,1977.98c-5.62-15.59-20.47-26.27-37.39-26.27H717.1c-16.92,0-31.76,10.69-37.39,26.27H823.98z"></path><path d="M826.69,1979.89H677l0.92-2.55c5.94-16.47,21.69-27.53,39.18-27.53h69.49c17.5,0,33.24,11.06,39.18,27.53
							L826.69,1979.89z M682.54,1976.07h138.62c-6.03-13.54-19.6-22.46-34.57-22.46H717.1
							C702.13,1953.61,688.57,1962.53,682.54,1976.07z"></path><path fill="#242b2b" d="M579.31 1837.58v7.4c0 2.74-2.24 4.98-4.98 4.98h-7.4c-2.74 0-4.98-2.24-4.98-4.98v-7.4c0-2.74 2.24-4.98 4.98-4.98h7.4C577.07 1832.6 579.31 1834.84 579.31 1837.58zM628.56 1837.58v7.4c0 2.74-2.24 4.98-4.98 4.98h-7.4c-2.74 0-4.98-2.24-4.98-4.98v-7.4c0-2.74 2.24-4.98 4.98-4.98h7.4C626.32 1832.6 628.56 1834.84 628.56 1837.58zM677.81 1837.58v7.4c0 2.74-2.24 4.98-4.98 4.98h-7.4c-2.74 0-4.98-2.24-4.98-4.98v-7.4c0-2.74 2.24-4.98 4.98-4.98h7.4C675.56 1832.6 677.81 1834.84 677.81 1837.58zM727.05 1837.58v7.4c0 2.74-2.24 4.98-4.98 4.98h-7.4c-2.74 0-4.98-2.24-4.98-4.98v-7.4c0-2.74 2.24-4.98 4.98-4.98h7.4C724.81 1832.6 727.05 1834.84 727.05 1837.58zM606.98 1859.86v7.4c0 2.74-2.24 4.98-4.98 4.98h-7.4c-2.74 0-4.98-2.24-4.98-4.98v-7.4c0-2.74 2.24-4.98 4.98-4.98h7.4C604.74 1854.88 606.98 1857.12 606.98 1859.86zM656.23 1859.86v7.4c0 2.74-2.24 4.98-4.98 4.98h-7.4c-2.74 0-4.98-2.24-4.98-4.98v-7.4c0-2.74 2.24-4.98 4.98-4.98h7.4C653.99 1854.88 656.23 1857.12 656.23 1859.86zM705.48 1859.86v7.4c0 2.74-2.24 4.98-4.98 4.98h-7.4c-2.74 0-4.98-2.24-4.98-4.98v-7.4c0-2.74 2.24-4.98 4.98-4.98h7.4C703.24 1854.88 705.48 1857.12 705.48 1859.86zM754.73 1859.86v7.4c0 2.74-2.24 4.98-4.98 4.98h-7.4c-2.74 0-4.98-2.24-4.98-4.98v-7.4c0-2.74 2.24-4.98 4.98-4.98h7.4C752.49 1854.88 754.73 1857.12 754.73 1859.86zM579.31 1879.99v7.4c0 2.74-2.24 4.98-4.98 4.98h-7.4c-2.74 0-4.98-2.24-4.98-4.98v-7.4c0-2.74 2.24-4.98 4.98-4.98h7.4C577.07 1875.01 579.31 1877.25 579.31 1879.99zM628.56 1879.99v7.4c0 2.74-2.24 4.98-4.98 4.98h-7.4c-2.74 0-4.98-2.24-4.98-4.98v-7.4c0-2.74 2.24-4.98 4.98-4.98h7.4C626.32 1875.01 628.56 1877.25 628.56 1879.99zM677.81 1879.99v7.4c0 2.74-2.24 4.98-4.98 4.98h-7.4c-2.74 0-4.98-2.24-4.98-4.98v-7.4c0-2.74 2.24-4.98 4.98-4.98h7.4C675.56 1875.01 677.81 1877.25 677.81 1879.99zM727.05 1879.99v7.4c0 2.74-2.24 4.98-4.98 4.98h-7.4c-2.74 0-4.98-2.24-4.98-4.98v-7.4c0-2.74 2.24-4.98 4.98-4.98h7.4C724.81 1875.01 727.05 1877.25 727.05 1879.99zM606.98 1902.27v7.4c0 2.74-2.24 4.98-4.98 4.98h-7.4c-2.74 0-4.98-2.24-4.98-4.98v-7.4c0-2.74 2.24-4.98 4.98-4.98h7.4C604.74 1897.29 606.98 1899.53 606.98 1902.27zM656.23 1902.27v7.4c0 2.74-2.24 4.98-4.98 4.98h-7.4c-2.74 0-4.98-2.24-4.98-4.98v-7.4c0-2.74 2.24-4.98 4.98-4.98h7.4C653.99 1897.29 656.23 1899.53 656.23 1902.27zM705.48 1902.27v7.4c0 2.74-2.24 4.98-4.98 4.98h-7.4c-2.74 0-4.98-2.24-4.98-4.98v-7.4c0-2.74 2.24-4.98 4.98-4.98h7.4C703.24 1897.29 705.48 1899.53 705.48 1902.27zM754.73 1902.27v7.4c0 2.74-2.24 4.98-4.98 4.98h-7.4c-2.74 0-4.98-2.24-4.98-4.98v-7.4c0-2.74 2.24-4.98 4.98-4.98h7.4C752.49 1897.29 754.73 1899.53 754.73 1902.27z"></path><g><path fill="#ff4148" d="M829.71,1869.88c0,6.21-2.52,11.83-6.58,15.91c-4.08,4.06-9.7,6.58-15.91,6.58
								c-12.42,0-22.48-10.06-22.48-22.48c0-6.21,2.52-11.83,6.58-15.91c4.08-4.06,9.7-6.58,15.91-6.58s11.83,2.52,15.91,6.58
								C827.19,1858.05,829.71,1863.67,829.71,1869.88z"></path><path d="M807.23,1894.27c-13.45,0-24.39-10.94-24.39-24.39c0-6.5,2.53-12.62,7.13-17.25c4.64-4.61,10.76-7.14,17.26-7.14
								c6.49,0,12.62,2.53,17.25,7.13c4.61,4.63,7.14,10.76,7.14,17.26c0,6.5-2.53,12.62-7.13,17.25
								C819.86,1891.74,813.73,1894.27,807.23,1894.27z M807.23,1849.3c-5.49,0-10.66,2.14-14.56,6.02
								c-3.88,3.9-6.01,9.07-6.01,14.55c0,11.35,9.23,20.58,20.58,20.58c5.48,0,10.65-2.14,14.56-6.03
								c3.88-3.9,6.01-9.07,6.01-14.55c0-5.49-2.14-10.65-6.02-14.56C817.89,1851.44,812.71,1849.3,807.23,1849.3z"></path></g><g><path fill="#ffb902" d="M888.32,1869.88c0,6.21-2.52,11.83-6.58,15.91c-4.08,4.06-9.7,6.58-15.91,6.58
								c-12.42,0-22.48-10.06-22.48-22.48c0-6.21,2.52-11.83,6.58-15.91c4.08-4.06,9.7-6.58,15.91-6.58s11.83,2.52,15.91,6.58
								C885.8,1858.05,888.32,1863.67,888.32,1869.88z"></path><path d="M865.84,1894.27c-13.45,0-24.39-10.94-24.39-24.39c0-6.5,2.53-12.63,7.14-17.25c4.63-4.61,10.76-7.14,17.26-7.14
								s12.62,2.53,17.25,7.13c4.61,4.63,7.14,10.76,7.14,17.26s-2.53,12.63-7.14,17.25
								C878.47,1891.74,872.34,1894.27,865.84,1894.27z M865.84,1849.3c-5.49,0-10.65,2.14-14.56,6.02
								c-3.88,3.9-6.02,9.07-6.02,14.55c0,11.35,9.23,20.58,20.58,20.58c5.49,0,10.66-2.14,14.56-6.03
								c3.88-3.9,6.02-9.07,6.02-14.55c0-5.49-2.14-10.66-6.03-14.56C876.49,1851.44,871.33,1849.3,865.84,1849.3z"></path></g><g><path fill="#007afd" d="M946.94,1869.88c0,6.21-2.52,11.83-6.58,15.91c-4.08,4.06-9.7,6.58-15.91,6.58
								c-12.42,0-22.48-10.06-22.48-22.48c0-6.21,2.52-11.83,6.58-15.91c4.08-4.06,9.7-6.58,15.91-6.58
								c6.21,0,11.83,2.52,15.91,6.58C944.41,1858.05,946.94,1863.67,946.94,1869.88z"></path><path fill="#242b2b" d="M924.45,1894.27c-13.45,0-24.39-10.94-24.39-24.39c0-6.5,2.53-12.62,7.13-17.25
								c4.64-4.61,10.76-7.14,17.26-7.14c6.49,0,12.62,2.53,17.25,7.13c4.61,4.63,7.14,10.76,7.14,17.26
								c0,6.5-2.53,12.62-7.13,17.25C937.08,1891.74,930.95,1894.27,924.45,1894.27z M924.45,1849.3c-5.49,0-10.66,2.14-14.56,6.02
								c-3.88,3.9-6.01,9.07-6.01,14.55c0,11.35,9.23,20.58,20.58,20.58c5.48,0,10.65-2.14,14.56-6.03
								c3.88-3.9,6.01-9.07,6.01-14.55c0-5.49-2.14-10.65-6.02-14.56C935.11,1851.44,929.93,1849.3,924.45,1849.3z"></path></g><g><path fill="#fff" d="M982.16,2072.13v143.83c0,14.23-11.54,25.77-25.77,25.77H547.3c-14.23,0-25.77-11.54-25.77-25.77
								v-143.83c0-14.23,11.54-25.77,25.77-25.77h409.09C970.62,2046.36,982.16,2057.9,982.16,2072.13z"></path><path d="M956.39,2243.64H547.3c-15.26,0-27.68-12.42-27.68-27.67v-143.83c0-15.26,12.42-27.68,27.68-27.68h409.09
								c15.26,0,27.67,12.42,27.67,27.68v143.83C984.06,2231.22,971.65,2243.64,956.39,2243.64z M547.3,2048.26
								c-13.16,0-23.86,10.71-23.86,23.86v143.83c0,13.16,10.7,23.86,23.86,23.86h409.09c13.16,0,23.86-10.7,23.86-23.86v-143.83
								c0-13.16-10.7-23.86-23.86-23.86H547.3z"></path><path fill="#161c1c" d="M823.98,2241.73c-5.62-15.59-20.47-26.27-37.39-26.27H717.1c-16.92,0-31.76,10.69-37.39,26.27H823.98z"></path><path d="M826.69,2243.64H677l0.92-2.55c5.94-16.47,21.69-27.53,39.18-27.53h69.49c17.5,0,33.24,11.06,39.18,27.53
							L826.69,2243.64z M682.54,2239.82h138.62c-6.03-13.54-19.6-22.46-34.57-22.46H717.1
							C702.13,2217.36,688.57,2226.28,682.54,2239.82z"></path><path fill="#242b2b" d="M579.31 2101.33v7.4c0 2.74-2.24 4.98-4.98 4.98h-7.4c-2.74 0-4.98-2.24-4.98-4.98v-7.4c0-2.74 2.24-4.98 4.98-4.98h7.4C577.07 2096.35 579.31 2098.59 579.31 2101.33zM628.56 2101.33v7.4c0 2.74-2.24 4.98-4.98 4.98h-7.4c-2.74 0-4.98-2.24-4.98-4.98v-7.4c0-2.74 2.24-4.98 4.98-4.98h7.4C626.32 2096.35 628.56 2098.59 628.56 2101.33zM677.81 2101.33v7.4c0 2.74-2.24 4.98-4.98 4.98h-7.4c-2.74 0-4.98-2.24-4.98-4.98v-7.4c0-2.74 2.24-4.98 4.98-4.98h7.4C675.56 2096.35 677.81 2098.59 677.81 2101.33zM727.05 2101.33v7.4c0 2.74-2.24 4.98-4.98 4.98h-7.4c-2.74 0-4.98-2.24-4.98-4.98v-7.4c0-2.74 2.24-4.98 4.98-4.98h7.4C724.81 2096.35 727.05 2098.59 727.05 2101.33zM606.98 2123.61v7.4c0 2.74-2.24 4.98-4.98 4.98h-7.4c-2.74 0-4.98-2.24-4.98-4.98v-7.4c0-2.74 2.24-4.98 4.98-4.98h7.4C604.74 2118.63 606.98 2120.87 606.98 2123.61zM656.23 2123.61v7.4c0 2.74-2.24 4.98-4.98 4.98h-7.4c-2.74 0-4.98-2.24-4.98-4.98v-7.4c0-2.74 2.24-4.98 4.98-4.98h7.4C653.99 2118.63 656.23 2120.87 656.23 2123.61zM705.48 2123.61v7.4c0 2.74-2.24 4.98-4.98 4.98h-7.4c-2.74 0-4.98-2.24-4.98-4.98v-7.4c0-2.74 2.24-4.98 4.98-4.98h7.4C703.24 2118.63 705.48 2120.87 705.48 2123.61zM754.73 2123.61v7.4c0 2.74-2.24 4.98-4.98 4.98h-7.4c-2.74 0-4.98-2.24-4.98-4.98v-7.4c0-2.74 2.24-4.98 4.98-4.98h7.4C752.49 2118.63 754.73 2120.87 754.73 2123.61zM579.31 2143.73v7.4c0 2.74-2.24 4.98-4.98 4.98h-7.4c-2.74 0-4.98-2.24-4.98-4.98v-7.4c0-2.74 2.24-4.98 4.98-4.98h7.4C577.07 2138.76 579.31 2141 579.31 2143.73zM628.56 2143.73v7.4c0 2.74-2.24 4.98-4.98 4.98h-7.4c-2.74 0-4.98-2.24-4.98-4.98v-7.4c0-2.74 2.24-4.98 4.98-4.98h7.4C626.32 2138.76 628.56 2141 628.56 2143.73zM677.81 2143.73v7.4c0 2.74-2.24 4.98-4.98 4.98h-7.4c-2.74 0-4.98-2.24-4.98-4.98v-7.4c0-2.74 2.24-4.98 4.98-4.98h7.4C675.56 2138.76 677.81 2141 677.81 2143.73zM727.05 2143.73v7.4c0 2.74-2.24 4.98-4.98 4.98h-7.4c-2.74 0-4.98-2.24-4.98-4.98v-7.4c0-2.74 2.24-4.98 4.98-4.98h7.4C724.81 2138.76 727.05 2141 727.05 2143.73zM606.98 2166.01v7.4c0 2.74-2.24 4.98-4.98 4.98h-7.4c-2.74 0-4.98-2.24-4.98-4.98v-7.4c0-2.74 2.24-4.98 4.98-4.98h7.4C604.74 2161.04 606.98 2163.28 606.98 2166.01zM656.23 2166.01v7.4c0 2.74-2.24 4.98-4.98 4.98h-7.4c-2.74 0-4.98-2.24-4.98-4.98v-7.4c0-2.74 2.24-4.98 4.98-4.98h7.4C653.99 2161.04 656.23 2163.28 656.23 2166.01zM705.48 2166.01v7.4c0 2.74-2.24 4.98-4.98 4.98h-7.4c-2.74 0-4.98-2.24-4.98-4.98v-7.4c0-2.74 2.24-4.98 4.98-4.98h7.4C703.24 2161.04 705.48 2163.28 705.48 2166.01zM754.73 2166.01v7.4c0 2.74-2.24 4.98-4.98 4.98h-7.4c-2.74 0-4.98-2.24-4.98-4.98v-7.4c0-2.74 2.24-4.98 4.98-4.98h7.4C752.49 2161.04 754.73 2163.28 754.73 2166.01z"></path><g><path fill="#ff4148" d="M829.71,2133.63c0,6.21-2.52,11.83-6.58,15.91c-4.08,4.06-9.7,6.58-15.91,6.58
								c-12.42,0-22.48-10.06-22.48-22.48c0-6.21,2.52-11.83,6.58-15.91c4.08-4.06,9.7-6.58,15.91-6.58s11.83,2.52,15.91,6.58
								C827.19,2121.8,829.71,2127.42,829.71,2133.63z"></path><path d="M807.23,2158.02c-13.45,0-24.39-10.94-24.39-24.39c0-6.5,2.53-12.62,7.13-17.25c4.63-4.61,10.76-7.14,17.26-7.14
								c6.5,0,12.62,2.53,17.25,7.14c4.61,4.63,7.14,10.76,7.14,17.26s-2.53,12.62-7.13,17.25
								C819.86,2155.49,813.73,2158.02,807.23,2158.02z M807.23,2113.05c-5.49,0-10.66,2.14-14.56,6.03
								c-3.88,3.9-6.01,9.07-6.01,14.55c0,11.35,9.23,20.58,20.58,20.58c5.48,0,10.65-2.14,14.56-6.03
								c3.88-3.9,6.01-9.07,6.01-14.55s-2.14-10.65-6.02-14.56C817.89,2115.19,812.71,2113.05,807.23,2113.05z"></path></g><g><path fill="#ffb902" d="M888.32,2133.63c0,6.21-2.52,11.83-6.58,15.91c-4.08,4.06-9.7,6.58-15.91,6.58
								c-12.42,0-22.48-10.06-22.48-22.48c0-6.21,2.52-11.83,6.58-15.91c4.08-4.06,9.7-6.58,15.91-6.58s11.83,2.52,15.91,6.58
								C885.8,2121.8,888.32,2127.42,888.32,2133.63z"></path><path d="M865.84,2158.02c-13.45,0-24.39-10.94-24.39-24.39c0-6.5,2.53-12.63,7.14-17.25c4.63-4.61,10.76-7.14,17.26-7.14
								s12.63,2.53,17.25,7.14c4.61,4.63,7.14,10.76,7.14,17.26s-2.53,12.63-7.14,17.25
								C878.47,2155.49,872.34,2158.02,865.84,2158.02z M865.84,2113.05c-5.49,0-10.66,2.14-14.56,6.03
								c-3.88,3.9-6.02,9.07-6.02,14.55c0,11.35,9.23,20.58,20.58,20.58c5.49,0,10.66-2.14,14.56-6.03
								c3.88-3.9,6.02-9.07,6.02-14.55s-2.14-10.66-6.03-14.56C876.5,2115.19,871.33,2113.05,865.84,2113.05z"></path></g><g><path fill="#007afd" d="M946.94,2133.63c0,6.21-2.52,11.83-6.58,15.91c-4.08,4.06-9.7,6.58-15.91,6.58
								c-12.42,0-22.48-10.06-22.48-22.48c0-6.21,2.52-11.83,6.58-15.91c4.08-4.06,9.7-6.58,15.91-6.58
								c6.21,0,11.83,2.52,15.91,6.58C944.41,2121.8,946.94,2127.42,946.94,2133.63z"></path><path fill="#242b2b" d="M924.45,2158.02c-13.45,0-24.39-10.94-24.39-24.39c0-6.5,2.53-12.62,7.13-17.25
								c4.63-4.61,10.76-7.14,17.26-7.14s12.62,2.53,17.25,7.14c4.61,4.63,7.14,10.76,7.14,17.26s-2.53,12.62-7.13,17.25
								C937.08,2155.49,930.95,2158.02,924.45,2158.02z M924.45,2113.05c-5.49,0-10.66,2.14-14.56,6.03
								c-3.88,3.9-6.01,9.07-6.01,14.55c0,11.35,9.23,20.58,20.58,20.58c5.48,0,10.65-2.14,14.56-6.03
								c3.88-3.9,6.01-9.07,6.01-14.55s-2.14-10.65-6.02-14.56C935.11,2115.19,929.93,2113.05,924.45,2113.05z"></path></g></g><g><path d="M378.92 1584.2c0 11.01-8.92 19.93-19.93 19.93s-19.93-8.92-19.93-19.93c0-11.01 8.92-19.93 19.93-19.93S378.92 1573.2 378.92 1584.2zM434.78 1584.2c0 11.01-8.92 19.93-19.93 19.93s-19.93-8.92-19.93-19.93c0-11.01 8.92-19.93 19.93-19.93S434.78 1573.2 434.78 1584.2zM490.63 1584.2c0 11.01-8.92 19.93-19.93 19.93-11.01 0-19.93-8.92-19.93-19.93 0-11.01 8.92-19.93 19.93-19.93C481.72 1564.28 490.63 1573.2 490.63 1584.2zM378.92 1648.89c0 11.01-8.92 19.93-19.93 19.93s-19.93-8.92-19.93-19.93c0-11.01 8.92-19.93 19.93-19.93S378.92 1637.89 378.92 1648.89zM434.78 1648.89c0 11.01-8.92 19.93-19.93 19.93s-19.93-8.92-19.93-19.93c0-11.01 8.92-19.93 19.93-19.93S434.78 1637.89 434.78 1648.89zM490.63 1648.89c0 11.01-8.92 19.93-19.93 19.93-11.01 0-19.93-8.92-19.93-19.93 0-11.01 8.92-19.93 19.93-19.93C481.72 1628.97 490.63 1637.89 490.63 1648.89z"></path></g><g><path d="M378.92 1851.34c0 11.01-8.92 19.93-19.93 19.93s-19.93-8.92-19.93-19.93c0-11.01 8.92-19.93 19.93-19.93S378.92 1840.34 378.92 1851.34zM434.78 1851.34c0 11.01-8.92 19.93-19.93 19.93s-19.93-8.92-19.93-19.93c0-11.01 8.92-19.93 19.93-19.93S434.78 1840.34 434.78 1851.34zM490.63 1851.34c0 11.01-8.92 19.93-19.93 19.93-11.01 0-19.93-8.92-19.93-19.93 0-11.01 8.92-19.93 19.93-19.93C481.72 1831.42 490.63 1840.34 490.63 1851.34zM378.92 1916.03c0 11.01-8.92 19.93-19.93 19.93s-19.93-8.92-19.93-19.93c0-11.01 8.92-19.93 19.93-19.93S378.92 1905.02 378.92 1916.03zM434.78 1916.03c0 11.01-8.92 19.93-19.93 19.93s-19.93-8.92-19.93-19.93c0-11.01 8.92-19.93 19.93-19.93S434.78 1905.02 434.78 1916.03zM490.63 1916.03c0 11.01-8.92 19.93-19.93 19.93-11.01 0-19.93-8.92-19.93-19.93 0-11.01 8.92-19.93 19.93-19.93C481.72 1896.1 490.63 1905.02 490.63 1916.03z"></path></g><g><path d="M378.92 2118.48c0 11.01-8.92 19.93-19.93 19.93s-19.93-8.92-19.93-19.93c0-11.01 8.92-19.93 19.93-19.93S378.92 2107.47 378.92 2118.48zM434.78 2118.48c0 11.01-8.92 19.93-19.93 19.93s-19.93-8.92-19.93-19.93c0-11.01 8.92-19.93 19.93-19.93S434.78 2107.47 434.78 2118.48zM490.63 2118.48c0 11.01-8.92 19.93-19.93 19.93-11.01 0-19.93-8.92-19.93-19.93 0-11.01 8.92-19.93 19.93-19.93C481.72 2098.56 490.63 2107.47 490.63 2118.48zM378.92 2183.17c0 11.01-8.92 19.93-19.93 19.93s-19.93-8.92-19.93-19.93c0-11.01 8.92-19.93 19.93-19.93S378.92 2172.16 378.92 2183.17zM434.78 2183.17c0 11.01-8.92 19.93-19.93 19.93s-19.93-8.92-19.93-19.93c0-11.01 8.92-19.93 19.93-19.93S434.78 2172.16 434.78 2183.17zM490.63 2183.17c0 11.01-8.92 19.93-19.93 19.93-11.01 0-19.93-8.92-19.93-19.93 0-11.01 8.92-19.93 19.93-19.93C481.72 2163.24 490.63 2172.16 490.63 2183.17z"></path></g><g><path fill="#fff" d="M470.71,1919.85h-3.14c-11.36,0-20.6-9.24-20.6-20.6v-233.57c0-11.35,9.24-20.59,20.6-20.59h3.14
					c2.11,0,3.81,1.71,3.81,3.81c0,2.11-1.71,3.81-3.81,3.81h-3.14c-7.15,0-12.97,5.82-12.97,12.97v233.57
					c0,7.15,5.82,12.97,12.97,12.97h3.14c2.11,0,3.81,1.71,3.81,3.81S472.81,1919.85,470.71,1919.85z"></path></g><g><path fill="#fff" d="M358.99,1857.12h-3.14c-11.36,0-20.6-9.24-20.6-20.6v-233.57c0-11.35,9.24-20.59,20.6-20.59h3.14
					c2.11,0,3.81,1.71,3.81,3.81s-1.71,3.81-3.81,3.81h-3.14c-7.15,0-12.97,5.82-12.97,12.97v233.57c0,7.15,5.82,12.97,12.97,12.97
					h3.14c2.11,0,3.81,1.71,3.81,3.81S361.1,1857.12,358.99,1857.12z"></path></g><g><path fill="#fff" d="M414.85,2186.98h-3.14c-11.36,0-20.6-9.24-20.6-20.59v-233.57c0-11.36,9.24-20.6,20.6-20.6h3.14
					c2.11,0,3.81,1.71,3.81,3.81s-1.71,3.81-3.81,3.81h-3.14c-7.15,0-12.97,5.82-12.97,12.97v233.57c0,7.15,5.82,12.97,12.97,12.97
					h3.14c2.11,0,3.81,1.71,3.81,3.81C418.66,2185.28,416.96,2186.98,414.85,2186.98z"></path></g><g><path d="M2260.14 2248.85c-4.56-13.02-150.27-507.27-156.47-528.31l3.66-1.08c1.52 5.15 151.88 515.2 156.41 528.13L2260.14 2248.85zM2071.84 2248.37c-5.06-64.46-9.77-130.81-14.33-194.97-7.76-109.26-15.78-222.24-25.92-332.11l3.8-.35c10.13 109.91 18.16 222.91 25.92 332.19 4.56 64.16 9.27 130.5 14.32 194.94L2071.84 2248.37z"></path><rect width="559.75" height="3.81" x="1490.64" y="1982.21" transform="rotate(-70.664 1770.439 1984.084)"></rect><path d="M1896.8,2248.37l-3.8-0.3c5.06-64.49,9.78-130.87,14.33-195.07c7.76-109.24,15.79-222.19,25.92-332.06l3.8,0.35
											c-10.13,109.83-18.15,222.76-25.91,331.98C1906.58,2117.47,1901.86,2183.86,1896.8,2248.37z"></path><path fill="#fff" d="M1877.54,1760.99h250.6c33.97,0,63.16-24.19,69.44-57.57l61.8-326.95c0.59-3.16,0.88-6.29,0.88-9.37
									c0-26.95-21.87-49.85-49.96-49.85c3.49,2.65-51.39,337.43-87.34,364.93c-35.73,27.31-88.04,27.2-174.43,40.51
									C1895.88,1730.78,1877.54,1760.99,1877.54,1760.99z"></path><path d="M2128.14,1762.9h-253.99l1.76-2.9c0.77-1.26,19.42-31.07,72.33-39.2c20.17-3.11,38.75-5.52,55.15-7.65
									c55.05-7.14,91.42-11.86,118.41-32.5c14.33-10.96,34.58-77.39,57.02-187.06c18-87.95,29.95-167.02,29.75-175.28l-3.94-2.98
									h5.67c28.6,0,51.86,23.22,51.86,51.76c0,3.19-0.31,6.46-0.92,9.72l-61.8,326.96C2193,1738.03,2163.01,1762.9,2128.14,1762.9
									z M1881.29,1759.09h246.84c33.04,0,61.46-23.56,67.57-56.02l61.8-326.95c0.56-3.03,0.85-6.06,0.85-9.02
									c0-25.76-20.46-46.83-46.01-47.9c-1.32,24.28-52.06,336.83-88.23,364.5c-27.8,21.25-64.58,26.02-120.24,33.25
									c-16.37,2.12-34.94,4.53-55.06,7.63C1907.36,1730.94,1887.42,1751.45,1881.29,1759.09z"></path><path fill="#242b2b" d="M1943.44,1317.26c0,0-12.5,303.66-48.46,331.16c-35.73,27.32-27.05,36.99-113.46,50.3
										c-52.63,8.11-70.06,62.26-70.06,62.26h166.07c0,0,18.37-30.19,70.99-38.3c86.41-13.31,138.71-13.18,174.44-40.5
										c35.97-27.5,90.85-362.27,87.34-364.92L1943.44,1317.26z"></path><path d="M1878.59 1762.89h-169.76l.8-2.49c.18-.55 18.42-55.37 71.59-63.56 67.38-10.38 76.37-18.45 94.29-34.53 4.97-4.46 10.61-9.51 18.3-15.4 34.85-26.65 47.59-326.69 47.72-329.72l.08-1.83h269.33l.51.39c.91.69.91 1.86.92 2.64.04 16.54-51.55 337.25-88.26 365.31-27.79 21.25-64.55 26.02-120.18 33.23-16.39 2.12-34.97 4.53-55.13 7.64-51.16 7.88-69.48 37.11-69.66 37.41L1878.59 1762.89zM1714.19 1759.07h162.3c3.61-5.27 23.36-30.83 71.74-38.28 20.2-3.11 38.8-5.52 55.22-7.65 55.02-7.14 91.37-11.85 118.35-32.48 14.34-10.96 34.59-77.39 57.03-187.05 17.51-85.56 29.29-162.72 29.73-174.45h-263.29c-1.19 27.69-13.95 303.86-49.14 330.77-7.57 5.79-13.15 10.8-18.07 15.21-18.48 16.59-27.75 24.91-96.26 35.46C1737.4 1707.44 1718.4 1748.48 1714.19 1759.07zM1546.38 2214.98l74.86-91.37 16.57-33.56 111.21-27.15 33.57 82.17c2.63 3.93 1.01 9.19-3.28 10.95l-224.25 91.88c-3.77 1.54-8.08-.26-9.62-4.03l-3.33-8.14C1539.17 2228.56 1540.84 2220.42 1546.38 2214.98z"></path><path fill="#ffcfc5" d="M1637.81,2090.05l-39.04-94.52l121.93-1.93l28.32,69.3
													C1713.86,2098.24,1672.92,2107.81,1637.81,2090.05z"></path><path fill="#fff" d="M1628.65 2158.1c-12.04-9.93-25.18-6.04-25.32-6.01l-1.12-3.64c.61-.2 15.26-4.52 28.86 6.71L1628.65 2158.1zM1612.48 2178.38c-12.03-9.94-25.18-6.04-25.32-6.01l-1.12-3.64c.61-.2 15.26-4.52 28.86 6.71L1612.48 2178.38z"></path><path d="M1251.65,2188.75l109.41-44.53l30.58-21.58l110.68,29.25l-9.74,88.23c0.44,4.71-3.5,8.56-8.11,8.05
													l-240.91-26.35c-4.05-0.44-6.97-4.08-6.53-8.13l0.96-8.74C1238.83,2197.24,1244.19,2190.88,1251.65,2188.75z"></path><path fill="#ffcfc5" d="M1391.64,2122.64l10.83-101.68l108.05,56.52l-8.21,74.41
													C1454.55,2166.15,1414.01,2155.01,1391.64,2122.64z"></path><path fill="#fff" d="M1351.1 2178.06c-5.8-14.39-18.83-17.25-19.38-17.36l.76-3.74c.63.13 15.57 3.32 22.15 19.68L1351.1 2178.06zM1327.2 2188.15c-5.8-14.39-18.83-17.25-19.38-17.36l.76-3.74c.63.13 15.57 3.32 22.15 19.68L1327.2 2188.15z"></path><path fill="#007afd" d="M1378.2,2030.91l162.49,52.59l14.15-57.68l67.64-275.56l15.11-61.46l315.96-83.38l10.59-127.08
													l-145.58,5.33l-82.09,55.44c0,0-177.19,4.89-220.97,38.53C1455.26,1623.95,1378.2,2030.91,1378.2,2030.91z"></path><polygon points="1549.66 2036.78 1554.85 2025.82 1622.49 1750.26 1596.57 1621.04"></polygon><path fill="#007afd" d="M2088.1,1491.75c0,0,36.71,182.56-27.75,204.98c-64.46,22.42-309.68,17.2-309.68,17.2l11.58,314.47
													l-160.74,27.39c0,0-33.07-414.65,2.66-451.71c37.33-38.71,148.55-41.28,219.69-47.64
													c27.33-2.44,32.28-91.04,32.28-91.04L2088.1,1491.75z"></path><path fill="#ffcfc5" d="M1800.57,1232.89c0,0-90.13,100.51-166.55,104.4c-76.42,3.88-159.39-236.93-159.39-236.93
															s59.55-44.03,63.15-44.82c3.6-0.79,105.78,156.09,105.78,156.09l62.74-59.66L1800.57,1232.89z"></path><path fill="#444ba1" d="M1663.03,1185.02l29.44,35.62l27.84,33.73l25.82,31.25l110.12-138.94l16.14-56.67
																					c0,0-64.19-24.32-110.16-2.93C1728.69,1102.66,1663.03,1185.02,1663.03,1185.02z"></path><polygon points="1692.46 1220.63 1746.13 1285.62 1762.22 1156.57"></polygon><path fill="#444ba1" d="M1757.1,1100.97c19.53-45.39,212.36-20.4,272.51,17.16
																						c43.31,27.04,44.28,208.31,51,278.86c3.54,37.19,23.71,147.52,23.71,147.52
																						c-137.27,11.32-235.46,13.42-369.75-37.26C1734.57,1507.24,1736.5,1148.84,1757.1,1100.97z"></path><path d="M1938.02,1196.43l-24.53,145.52l-176.67,25.88c0,0,238.1,46.88,238.34,45.76
																						c0.24-1.13,7.99-99.46,7.99-99.46L1938.02,1196.43z"></path><g><polygon points="1596.55 1984.91 1718.21 2017.37 1597.75 2036.78"></polygon></g><g><path fill="#007afd" d="M1574.74,2061.03c1.36,10.08,9.37,17.36,18.46,17.36c0.93,0,1.82-0.08,2.75-0.23l171.97-27.71
												c10.23-1.63,17.28-11.95,15.74-23.08c-1.36-10.08-9.34-17.36-18.42-17.36c-0.93,0-1.82,0.08-2.75,0.23l-172,27.71
												C1580.28,2039.58,1573.23,2049.94,1574.74,2061.03z"></path></g><g><path fill="#007afd" d="M1350.41,2043.23c-3.38,9.59,0.44,19.72,8.53,23.86c0.83,0.42,1.66,0.76,2.56,1.05l165.72,53.64
												c9.85,3.2,20.82-2.77,24.52-13.38c3.38-9.59-0.41-19.71-8.5-23.84c-0.83-0.42-1.66-0.76-2.56-1.05l-165.75-53.66
												C1365.12,2026.66,1354.13,2032.67,1350.41,2043.23z"></path></g><g><path fill="#ffcfc5" d="M1945.61,1279.42l7.62,93.37l-253.11-5.8l6.3,73.3l292.06,37.6c57.58,6.09,98.83-46.25,86.09-102.73
								l-14.41-121.4L1945.61,1279.42z"></path></g><g><path fill="#444ba1" d="M2010.54,1108.42c67.86,10.2,85.29,197.24,85.29,197.24c-48.15,30.06-106.93,30.21-152.39,11.59
								c0,0-3.26-71.96-6.05-135.03C1934.96,1127.31,1988.02,1105.04,2010.54,1108.42z"></path></g><g><path fill="#ffcfc5" d="M1564.38,1440.49c9.21,0,18.88-12.64,22.62-18.12c-1.04,3.18-1.41,6.31-0.12,8.66
							c3.46,6.4,14.42,0.4,15.12,0.03c-0.52,0.52-7.79,10.93,0.42,12.24c8.11,1.32,18.01-5.08,18.93-5.3
							c-0.67,0.46-10.39,8.97,0.26,12.79c11.29,4.04,47.67-4.74,47.67-4.74l-0.06-0.03c7.13-0.46,31.09-2.38,37.22-5.74l-6.3-73.3
							c0,0-86.74-28.12-93.35-17.89c-6.61,10.22,17.45,34.47,17.45,34.47s-44.54,5.63-48.5,12.32
							C1567.12,1410.44,1552.63,1440.49,1564.38,1440.49z"></path></g><g><path fill="#ffcfc5" d="M1537.79,1055.53c0,0-19.08-78.53-33.26-84.06c-10.91-4.26-15.82,30.19-15.82,30.19
											s-67.98-88.8-78.74-80.45c-10.76,8.35,30.36,54.58,30.36,54.58s-11.24-7.2-15.94,0.64c-4.57,7.62,2.07,13.39,2.07,13.39
											s-7.5-5.13-13.3-0.24c-5.87,4.94,0.46,14.4,0.46,14.4s-9.14-0.98-9.69,8.84c-0.75,13.55,47.92,68.37,55.39,74.69
											c7.47,6.32,15.33,12.86,15.33,12.86L1537.79,1055.53z"></path><path fill="#ffb29f" d="M1458.92,1025.4c-0.19,0-0.37-0.01-0.57-0.03c-9.86-0.98-31.43-31.39-33.86-34.85l3.12-2.19
											c8.79,12.54,25,32.64,31.12,33.25c0.53,0.05,0.68-0.1,0.77-0.18c1.3-1.25,1.96-2.82,1.99-4.82
											c0.18-9.76-13.91-24.32-14.05-24.47l2.73-2.66c0.63,0.64,15.34,15.85,15.13,27.19c-0.06,3.02-1.12,5.55-3.18,7.51
											C1461.27,1024.98,1460.17,1025.4,1458.92,1025.4z"></path><path fill="#ffb29f" d="M1445.82,1038.12c-0.25,0-0.5-0.01-0.76-0.03c-12.12-1.15-30.32-30.95-32.35-34.35l3.27-1.96
											c5.26,8.77,20.8,31.7,29.45,32.51c1.15,0.12,2.1-0.26,2.92-1.16c3.63-4.07-0.76-12.93-2.76-15.99l3.2-2.09
											c0.36,0.55,8.72,13.55,2.41,20.62C1449.74,1037.28,1447.9,1038.12,1445.82,1038.12z"></path><path fill="#ffb29f" d="M1439.31 1051.54c-9.32 0-25.88-16.4-27.75-18.29l2.7-2.69c4.82 4.84 18.56 17.28 25.17 17.16 1.02-.03 1.48-.42 1.73-.72 1.16-1.33 1.67-2.77 1.56-4.39-.32-4.55-5.28-8.9-5.33-8.94l2.49-2.89c.25.22 6.2 5.4 6.64 11.54.19 2.66-.64 5.08-2.48 7.19-1.1 1.26-2.65 1.96-4.48 2.02C1439.48 1051.54 1439.39 1051.54 1439.31 1051.54zM1495.34 1042.22c-17.54-12.62-8.82-40-8.45-41.15l3.63 1.18c-.09.26-8.22 25.89 7.05 36.87L1495.34 1042.22z"></path></g><g><path fill="#fff" d="M1856.14,1507.24c0,4.36-1.79,8.35-4.64,11.2c-2.85,2.85-6.84,4.64-11.2,4.64h-795.98
							c-8.72,0-15.83-7.07-15.83-15.83c0-4.36,1.79-8.35,4.64-11.2c2.89-2.85,6.83-4.64,11.2-4.64h795.98
							C1849.07,1491.41,1856.14,1498.48,1856.14,1507.24z"></path><path d="M1840.31,1524.98h-795.98c-9.78,0-17.74-7.96-17.74-17.74c0-4.67,1.89-9.24,5.2-12.54c3.39-3.35,7.85-5.19,12.55-5.19
							h795.98c9.78,0,17.74,7.96,17.74,17.74c0,4.74-1.84,9.19-5.19,12.55C1849.56,1523.09,1844.98,1524.98,1840.31,1524.98z
							 M1044.33,1493.32c-3.69,0-7.19,1.45-9.86,4.09c-2.58,2.58-4.07,6.17-4.07,9.84c0,7.68,6.25,13.93,13.93,13.93h795.98
							c3.67,0,7.26-1.49,9.85-4.08c2.63-2.63,4.08-6.13,4.08-9.85c0-7.68-6.25-13.92-13.93-13.92H1044.33z"></path></g><g><line x1="1164.59" x2="1047.64" y1="1523.07" y2="2248.22" fill="#fff"></line><polygon points="1049.52 2248.53 1045.76 2247.91 1162.71 1522.77 1166.47 1523.38"></polygon><line x1="1788.3" x2="1905.26" y1="1523.07" y2="2248.22" fill="#fff"></line><polygon points="1903.38 2248.53 1786.42 1523.38 1790.18 1522.77 1907.14 2247.91"></polygon></g><g><path fill="#ffcfc5" d="M1947,1051.34l-16.98,38.1l-51.79,6.9l-28.41,7.35l6.98-45.39l-1.03-11.2l-2.79-29.61l86.09-58.93
					c-0.21,3.9-0.35,7.77-0.4,11.57C1937.88,1015.33,1947,1051.34,1947,1051.34z"></path></g><g><path fill="#fc9b88" d="M1939.07,958.56c-0.21,3.9-0.35,7.77-0.4,11.57c-0.56,0.11-1.09,0.19-1.62,0.24
					c-0.9,2.36-1.51,5.07-1.86,8.07c-10.61,40.33-48.84,67.28-79.43,68.66l-2.79-29.61L1939.07,958.56z"></path></g><g><path fill="#212676" d="M1946.93 1052.05c-8.35 21.42-41.71 34.4-68.77 44.98 0 0 6.28 47.53 7.68 48 7.2 2.42 84.69-13.7 82.71-51.34C1962.19 1086.9 1952.46 1069 1946.93 1052.05zM1878.24 1096.33c0 0-27.19 27.81-30.99 40.31 0 0-24.7-24.85-15.91-60.1l25.47-18.25C1854.86 1070.9 1859.82 1081.13 1878.24 1096.33z"></path></g><g><path fill="#ffcfc5" d="M1853.54,1022.06c30.53,5.74,75.26-14.48,93.15-53.86c0.83-2.89,1.87-5.46,3.17-7.64
						c7.31,0.45,15.72-2.93,22.39-9.61c10.57-10.61,12.79-25.66,4.83-33.49c-4.53-4.51-11.22-5.75-18.23-3.91
						c1.18-43.72-18.1-80.01-48.71-86.52c-20.43-4.34-41.59,5.43-58.42,24.37c-2.03,2.27-4.01,4.69-5.89,7.24
						c-10.83,14.5-19.29,33.08-23.69,54.07C1810.36,967.78,1821.45,1016,1853.54,1022.06z"></path><path d="M2006.86,975.46c-6.59,11.21-18.88,18.27-31.62,20.81c-13.64,2.7-26.18,8.88-38.52,2.47l1.69-2.05
						c1.3-10.55,5.82-20.24,8.29-28.51c0.8-2.86,1.87-5.46,3.14-7.62c7.33,0.44,15.74-2.94,22.41-9.61
						c10.56-10.63,12.78-25.68,4.83-33.5c-4.54-4.52-11.23-5.75-18.23-3.92c0,0-16,5.77-16.93,19.48l-10.76,2.48l-2.31-25.28
						c0,0-15.72-14.2-6.25-27.11c-11.07,2.67-22.87,3.16-34.19,2.17c-4.95-0.44-10.13-1.38-13.86-4.64
						c-3.23-2.86-4.72-8.05-2.75-11.71c2.75-1.47,5.47-2.97,8.2-4.51c-2.36,1-4.71,2.01-7.1,3.01c-0.45,0.45-0.82,0.95-1.1,1.5
						c-7.25,3.86-14.67,7.28-22.63,9.1c-10.99,2.56-23.28,1.75-32.48-4.78c-3.62-2.55-6.77-6.12-7.85-10.39
						c-1.08-4.31,0.29-9.41,4.02-11.84c0.81-0.55,1.74-0.89,2.71-1.07c2.77,1.5,5.64,2.8,8.52,4.07c-1.29-3.22-5.13-4.72-8.52-4.07
						c-2.72-1.46-5.3-3.15-7.57-5.23c-4.62-4.22-7.92-10.34-7.12-16.51c0.94-7.15,7.77-12.98,14.98-12.94
						c7.2,0.07,13.91,5.8,15.23,12.9c3.01-11.79,9.16-22.77,17.63-31.47c4.39-4.53,9.57-8.49,15.56-10.34
						c6.03-1.85,13.05-1.24,17.97,2.66c4.96,3.9,7.08,11.45,3.9,16.87c11.33-7.13,24.25-12.55,37.63-12.26
						c13.38,0.28,27.18,7.25,32.8,19.39c2.76,5.97,3.35,12.41,2.8,18.93c13.65,15.41,11.12,30.62,11.12,30.62
						c8.76-6.35,23.68-2.24,30.71,5.98c7.03,8.25,6.49,21.87-1.16,29.53c4.77-5.09,13.62-4.58,18.94-0.08
						c5.29,4.49,7.44,11.89,7.22,18.84c-0.42,12.7-8.3,24.91-19.69,30.5C2015.23,957,2013.42,964.28,2006.86,975.46z"></path><path d="M1824.09 854.02c-2.88-1.27-5.75-2.57-8.52-4.07C1818.96 849.3 1822.8 850.8 1824.09 854.02zM1880 864.41c-2.73 1.53-5.45 3.04-8.2 4.51.28-.55.65-1.05 1.1-1.5C1875.29 866.42 1877.65 865.42 1880 864.41z"></path><polygon fill="#fc9b88" points="1845.33 923.77 1831.67 957.13 1848.51 961.59"></polygon></g></g><g><polygon points="1387.44 1984.91 1467.95 2059.96 1378.2 2030.91"></polygon></g><g><path d="M1164.59,1478.42c0,5.65,4.91,10.3,10.88,10.3h179.61c5.97,0,10.88-4.64,10.88-10.3c0-5.65-4.91-10.3-10.88-10.3h-179.61
			C1169.5,1468.12,1164.59,1472.77,1164.59,1478.42z"></path><path d="M1355.09,1490.63h-179.61c-7.05,0-12.78-5.48-12.78-12.21s5.74-12.2,12.78-12.2h179.61c7.05,0,12.79,5.47,12.79,12.2
			S1362.14,1490.63,1355.09,1490.63z M1175.47,1470.03c-4.95,0-8.97,3.77-8.97,8.39c0,4.63,4.03,8.39,8.97,8.39h179.61
			c4.95,0,8.97-3.77,8.97-8.39c0-4.63-4.03-8.39-8.97-8.39H1175.47z"></path></g><g><path d="M1404.34,1474.25c0,7.94,6.89,14.47,15.29,14.47h252.42c8.39,0,15.29-6.53,15.29-14.47s-6.9-14.47-15.29-14.47h-252.42
			C1411.24,1459.78,1404.34,1466.3,1404.34,1474.25z"></path><path d="M1672.05,1490.63h-252.42c-9.48,0-17.2-7.35-17.2-16.38c0-9.03,7.72-16.38,17.2-16.38h252.42
			c9.48,0,17.19,7.35,17.19,16.38C1689.25,1483.28,1681.54,1490.63,1672.05,1490.63z M1419.63,1461.68
			c-7.38,0-13.38,5.64-13.38,12.56c0,6.93,6,12.56,13.38,12.56h252.42c7.38,0,13.38-5.64,13.38-12.56c0-6.93-6-12.56-13.38-12.56
			H1419.63z"></path></g><g><line x1="1303.72" x2="1144.62" y1="1254.5" y2="1254.5" fill="#fff"></line><rect width="159.11" height="3.81" x="1144.62" y="1252.59" fill="#242b2b"></rect></g><g><path fill="#fff" d="M962.22,1134.43l114.69,269.62c2.96,7,9.89,11.58,17.5,11.58h374.14c13.66,0,22.88-13.93,17.57-26.52
					l-114.69-269.62c-2.96-7-9.89-11.58-17.5-11.58H979.79C966.13,1107.91,956.91,1121.84,962.22,1134.43z"></path><path d="M1468.55,1417.53h-374.14c-8.42,0-15.98-5-19.26-12.74l-114.69-269.62c0,0,0,0,0,0c-2.75-6.51-2.06-13.9,1.84-19.78
					c3.9-5.88,10.43-9.38,17.48-9.38h374.14c8.42,0,15.98,5,19.26,12.74l114.69,269.62c2.75,6.51,2.06,13.9-1.84,19.78
					C1482.14,1414.02,1475.61,1417.53,1468.55,1417.53z M963.98,1133.69l114.69,269.62c2.68,6.33,8.86,10.41,15.75,10.41h374.14
					c5.77,0,11.12-2.87,14.31-7.68c3.19-4.81,3.75-10.86,1.5-16.19l-114.68-269.62c-2.68-6.33-8.86-10.42-15.75-10.42H979.79
					c-5.77,0-11.12,2.87-14.3,7.68C962.29,1122.31,961.73,1128.36,963.98,1133.69L963.98,1133.69z"></path><path fill="#e5e8ff" d="M1001.64,1078.68l377.17,5.52c7.61,0,14.54,4.58,17.5,11.58l125.14,293.33
						c5.32,12.59-3.9,26.52-17.57,26.52h-35.33c13.66,0,22.88-13.93,17.57-26.52l-114.69-269.62c-2.96-7-9.89-11.58-17.5-11.58
						H979.79c-13.66,0-22.88,13.93-17.57,26.52C951.87,1102.03,965.82,1080.28,1001.64,1078.68z"></path><path d="M1503.88,1417.53h-35.33c-1.05,0-1.91-0.85-1.91-1.91c0-1.05,0.85-1.91,1.91-1.91c5.77,0,11.12-2.87,14.31-7.68
						c3.19-4.81,3.75-10.86,1.5-16.19l-114.68-269.62c-2.68-6.33-8.86-10.42-15.75-10.42H979.79c-5.77,0-11.12,2.87-14.3,7.68
						c-2.42,3.64-3.33,8-2.65,12.2c0.35,1.36,0.76,2.74,1.21,4.15c0.31,0.97-0.2,2.01-1.15,2.37c-0.96,0.36-2.02-0.11-2.42-1.05
						c-0.64-1.52-1.1-3.1-1.37-4.69c-3.81-14.78-2.44-27.4,4.05-36.7c7.19-10.32,20.47-16.2,38.4-17c0.04,0,0.06,0,0.12,0
						l377.17,5.52c8.4,0,15.96,5,19.23,12.74l125.14,293.33c2.75,6.51,2.06,13.91-1.84,19.79
						C1517.47,1414.02,1510.94,1417.53,1503.88,1417.53z M1480.63,1413.72h23.26c5.77,0,11.12-2.87,14.31-7.68
						c3.19-4.81,3.75-10.86,1.5-16.19l-125.14-293.32c-2.68-6.33-8.86-10.42-15.75-10.42l-377.14-5.52
						c-16.67,0.75-28.91,6.07-35.39,15.37c-4.09,5.86-5.89,13.29-5.38,21.92c0.41-0.85,0.88-1.69,1.42-2.49
						c3.9-5.88,10.43-9.38,17.48-9.38h374.14c8.42,0,15.98,5,19.26,12.74l114.69,269.62c2.75,6.51,2.06,13.9-1.84,19.78
						C1484.57,1410.36,1482.73,1412.24,1480.63,1413.72z"></path><g><path d="M1341,1488.72h-25.48c-23.14-16.92-59.98-51.35-72.06-105.4c-11.36-50.79,15.84-107.09,26.17-126h15.45
					c-0.12,0.26-0.14,0.55-0.3,0.8c-0.41,0.66-40.55,66.86-28.2,122.08C1272.72,1452.39,1339.42,1487.9,1341,1488.72z"></path><path d="M1341,1490.63h-25.48c-0.41,0-0.8-0.13-1.12-0.37c-21.87-15.99-60.4-51.09-72.8-106.52
					c-11.33-50.65,14.66-105.92,26.36-127.33c0.33-0.61,0.98-0.99,1.67-0.99h15.44c0.65,0,1.26,0.33,1.6,0.88
					c0.35,0.55,0.4,1.23,0.13,1.82c-0.08,0.3-0.18,0.63-0.4,1c-0.41,0.66-40.16,66.2-27.97,120.67
					c15.97,71.43,82.77,106.89,83.44,107.24c0.78,0.41,1.18,1.29,0.97,2.15C1342.64,1490.03,1341.88,1490.63,1341,1490.63z
					 M1316.14,1486.81h17.87c-17.23-10.82-65.85-46.05-79.3-106.19c-11.26-50.37,20.46-109.57,27.21-121.39h-11.16
					c-11.73,21.71-36.32,75.05-25.44,123.67C1257.34,1436.7,1294.63,1470.98,1316.14,1486.81z"></path><path fill="#fff" d="M1161.91,1257.33h107.72c-10.33,18.91-37.53,75.21-26.17,126c12.09,54.05,48.92,88.48,72.06,105.4h-107.72
					c-23.14-16.92-59.97-51.35-72.06-105.4C1124.37,1332.54,1151.57,1276.24,1161.91,1257.33z"></path><path d="M1315.52,1490.63h-107.73c-0.41,0-0.8-0.13-1.12-0.37c-21.87-15.99-60.4-51.09-72.8-106.52
					c-11.32-50.63,14.66-105.91,26.36-127.32c0.33-0.61,0.98-0.99,1.67-0.99h107.73c0.67,0,1.3,0.35,1.64,0.93
					c0.35,0.58,0.36,1.3,0.03,1.89c-11.49,21.03-37.03,75.28-25.98,124.66c12.12,54.21,49.89,88.6,71.32,104.28
					c0.67,0.48,0.94,1.34,0.69,2.13C1317.07,1490.1,1316.34,1490.63,1315.52,1490.63z M1208.42,1486.81h101.4
					c-22.31-17.31-56.65-51.33-68.22-103.07c-10.86-48.56,12.58-101.36,24.84-124.51h-103.4c-11.73,21.71-36.32,75.07-25.45,123.67
					C1149.63,1436.7,1186.9,1470.98,1208.42,1486.81z"></path></g></g><g><path fill="#fff" d="M846.13,795.92h-36.79c-8.85,0-16.52-6.04-18.6-14.63l-3.74-15.56c-1.52-6.3-6.19-11.37-12.3-13.56
			c-4.89-1.74-9.63-3.7-14.3-5.93c-5.85-2.78-12.74-2.52-18.3,0.89l-13.63,8.34c-7.52,4.63-17.26,3.48-23.49-2.78l-26.08-26.04
			c-6.22-6.26-7.37-15.97-2.78-23.49l8.37-13.63c3.41-5.56,3.67-12.45,0.89-18.34c-2.22-4.63-4.19-9.41-5.96-14.26
			c-2.19-6.15-7.22-10.78-13.56-12.3l-15.52-3.74c-8.59-2.07-14.63-9.74-14.63-18.6l0-36.82c0-8.82,6.04-16.52,14.63-18.56
			l15.52-3.74c6.33-1.52,11.37-6.19,13.56-12.3c1.78-4.89,3.74-9.67,5.96-14.3c2.78-5.89,2.52-12.74-0.89-18.3l-8.37-13.63
			c-4.59-7.56-3.45-17.26,2.78-23.52l26.08-26.04c6.22-6.26,15.97-7.41,23.49-2.78l13.63,8.34c5.56,3.41,12.45,3.7,18.3,0.89
			c4.67-2.19,9.41-4.19,14.3-5.93c6.11-2.19,10.78-7.22,12.3-13.56l3.74-15.52c2.07-8.59,9.74-14.67,18.6-14.67l36.79,0
			c8.85,0,16.52,6.08,18.6,14.67l3.74,15.52c1.52,6.34,6.19,11.37,12.3,13.56c4.89,1.74,9.63,3.74,14.3,5.93
			c5.85,2.82,12.74,2.52,18.3-0.89l13.63-8.34c7.52-4.63,17.26-3.48,23.49,2.78l26.08,26.04c6.22,6.26,7.37,15.97,2.78,23.52
			l-8.37,13.63c-3.41,5.56-3.67,12.41-0.89,18.3c2.22,4.63,4.19,9.41,5.96,14.3c2.19,6.11,7.22,10.78,13.56,12.3l15.52,3.74
			c8.59,2.04,14.67,9.74,14.67,18.56v36.82c0,8.85-6.08,16.52-14.67,18.6l-15.52,3.74c-6.33,1.52-11.37,6.15-13.56,12.3
			c-1.78,4.85-3.74,9.63-5.96,14.26c-2.78,5.89-2.52,12.78,0.89,18.34l8.37,13.63c4.59,7.52,3.45,17.23-2.78,23.49l-26.08,26.04
			c-6.22,6.26-15.97,7.41-23.49,2.78l-13.63-8.34c-5.56-3.41-12.41-3.67-18.3-0.89c-4.67,2.22-9.41,4.19-14.3,5.93
			c-6.11,2.19-10.78,7.26-12.3,13.56l-3.74,15.56C862.66,789.88,854.99,795.92,846.13,795.92z"></path><path fill="#242b2b" d="M846.13,797.83h-36.79c-9.75,0-18.17-6.62-20.45-16.09l-3.74-15.56c-1.36-5.65-5.51-10.22-11.09-12.21
			c-5.01-1.78-9.74-3.75-14.48-6c-5.36-2.54-11.52-2.25-16.48,0.79l-13.64,8.34c-8.32,5.12-18.94,3.87-25.83-3.06L677.56,728
			c-6.87-6.91-8.13-17.53-3.06-25.83l8.38-13.64c3.04-4.95,3.33-11.13,0.79-16.53c-2.11-4.39-4.09-9.11-6.03-14.42
			c-1.99-5.6-6.55-9.74-12.21-11.1l-15.53-3.74c-9.47-2.29-16.09-10.7-16.09-20.45v-36.82c0-9.77,6.62-18.17,16.1-20.42l15.52-3.74
			c5.65-1.35,10.21-5.49,12.21-11.08c1.93-5.3,3.9-10.03,6.04-14.49c2.53-5.37,2.24-11.53-0.79-16.48l-8.37-13.63
			c-5.06-8.33-3.81-18.97,3.05-25.87l26.08-26.05c6.89-6.93,17.51-8.19,25.84-3.05l13.63,8.33c5,3.06,11.16,3.36,16.48,0.8
			c5.08-2.38,9.82-4.34,14.49-6.01c5.59-2,9.73-6.57,11.09-12.21l3.74-15.53c2.29-9.5,10.7-16.13,20.45-16.13h36.79
			c9.75,0,18.16,6.63,20.45,16.13l3.74,15.52c1.35,5.65,5.5,10.21,11.08,12.21c4.68,1.67,9.42,3.63,14.47,6
			c5.35,2.57,11.5,2.28,16.49-0.79l13.64-8.34c8.32-5.12,18.95-3.87,25.83,3.06l26.08,26.04c6.86,6.9,8.12,17.54,3.06,25.86
			l-8.38,13.64c-3.03,4.94-3.33,11.11-0.79,16.49c2.13,4.44,4.11,9.18,6.03,14.46c2,5.6,6.57,9.74,12.21,11.09l15.53,3.74
			c9.49,2.25,16.13,10.65,16.13,20.42v36.82c0,9.75-6.63,18.16-16.13,20.45l-15.52,3.74c-5.66,1.35-10.22,5.5-12.21,11.08
			c-1.95,5.32-3.93,10.04-6.04,14.45c-2.54,5.38-2.25,11.56,0.79,16.51l8.37,13.63c5.08,8.3,3.82,18.92-3.05,25.83l-26.08,26.05
			c-6.89,6.92-17.5,8.18-25.84,3.05l-13.63-8.33c-4.95-3.03-11.11-3.33-16.49-0.79c-4.71,2.25-9.45,4.21-14.47,6
			c-5.58,2-9.72,6.56-11.08,12.21l-3.74,15.56C864.3,791.21,855.89,797.83,846.13,797.83z M752.02,742.43
			c3.12,0,6.26,0.69,9.21,2.09c4.62,2.2,9.24,4.12,14.12,5.86c6.8,2.43,11.85,8,13.51,14.91l3.74,15.56
			c1.87,7.75,8.76,13.17,16.74,13.17h36.79c7.99,0,14.87-5.42,16.74-13.17l3.74-15.56c1.66-6.9,6.71-12.48,13.51-14.91
			c4.9-1.75,9.52-3.66,14.12-5.85c6.55-3.09,14.07-2.73,20.12,0.99l13.63,8.33c6.82,4.2,15.51,3.17,21.14-2.5l26.08-26.05
			c5.62-5.66,6.65-14.35,2.5-21.15l-8.37-13.63c-3.72-6.06-4.09-13.59-0.99-20.15c2.07-4.31,4-8.92,5.9-14.11
			c2.41-6.79,7.99-11.84,14.91-13.5l15.52-3.74c7.78-1.88,13.21-8.76,13.21-16.74v-36.82c0-7.99-5.43-14.86-13.2-16.71l-15.53-3.74
			c-6.9-1.65-12.47-6.7-14.91-13.51c-1.88-5.15-3.81-9.77-5.89-14.11c-3.09-6.56-2.72-14.08,0.99-20.12l8.37-13.63
			c4.14-6.82,3.11-15.53-2.51-21.18l-26.08-26.04c-5.63-5.67-14.32-6.7-21.14-2.5l-13.64,8.34c-6.09,3.74-13.61,4.11-20.12,0.98
			c-4.92-2.31-9.54-4.22-14.11-5.85c-6.81-2.43-11.86-8.01-13.51-14.91l-3.74-15.52c-1.88-7.78-8.76-13.21-16.74-13.21h-36.79
			c-7.98,0-14.87,5.43-16.74,13.21l-3.74,15.52c-1.65,6.9-6.71,12.47-13.51,14.91c-4.55,1.62-9.18,3.54-14.13,5.86
			c-6.48,3.12-14,2.76-20.11-0.99l-13.63-8.33c-6.81-4.2-15.5-3.17-21.14,2.5l-26.08,26.05c-5.62,5.65-6.64,14.36-2.5,21.19
			l8.36,13.63c3.71,6.04,4.08,13.56,0.99,20.11c-2.09,4.36-4.02,8.97-5.9,14.14c-2.43,6.8-8,11.85-14.9,13.5l-15.52,3.74
			c-7.76,1.84-13.17,8.71-13.17,16.71v36.82c0,7.99,5.42,14.87,13.17,16.74l15.53,3.74c6.92,1.66,12.49,6.71,14.91,13.51
			c1.9,5.17,3.82,9.78,5.89,14.07c3.1,6.57,2.73,14.11-0.99,20.16l-8.37,13.63c-4.14,6.79-3.12,15.49,2.51,21.15l26.08,26.04
			c5.64,5.67,14.33,6.7,21.14,2.5l13.64-8.34C744.44,743.47,748.22,742.43,752.02,742.43z"></path></g><g><circle cx="827.74" cy="603.89" r="127.88" fill="#c5cde3"></circle></g><g><circle cx="827.74" cy="603.89" r="111.98" fill="#fff"></circle><path fill="#242b2b" d="M827.74,717.77c-62.79,0-113.88-51.09-113.88-113.88S764.94,490,827.74,490s113.88,51.09,113.88,113.88
			S890.53,717.77,827.74,717.77z M827.74,493.81c-60.69,0-110.07,49.38-110.07,110.07c0,60.69,49.38,110.07,110.07,110.07
			c60.69,0,110.07-49.38,110.07-110.07C937.81,543.19,888.43,493.81,827.74,493.81z"></path></g><g><path fill="#fff" d="M1501.34,690.81l-30.03,0c-7.23,0-13.49-4.93-15.18-11.94l-3.05-12.7c-1.24-5.14-5.05-9.28-10.04-11.07
			c-3.99-1.42-7.86-3.02-11.67-4.84c-4.78-2.27-10.4-2.06-14.94,0.73l-11.13,6.8c-6.14,3.78-14.09,2.84-19.17-2.27l-21.29-21.26
			c-5.08-5.11-6.02-13.03-2.27-19.17l6.83-11.13c2.78-4.54,2.99-10.16,0.73-14.97c-1.81-3.78-3.42-7.68-4.87-11.64
			c-1.78-5.02-5.9-8.8-11.07-10.04l-12.67-3.05c-7.02-1.69-11.94-7.95-11.94-15.18v-30.06c0-7.2,4.93-13.49,11.94-15.15l12.67-3.05
			c5.17-1.24,9.28-5.05,11.07-10.04c1.45-3.99,3.05-7.89,4.87-11.67c2.27-4.81,2.06-10.4-0.73-14.94l-6.83-11.13
			c-3.75-6.17-2.81-14.09,2.27-19.2l21.29-21.26c5.08-5.11,13.03-6.05,19.17-2.27l11.13,6.8c4.54,2.78,10.16,3.02,14.94,0.73
			c3.81-1.78,7.68-3.42,11.67-4.84c4.99-1.78,8.8-5.9,10.04-11.07l3.05-12.67c1.69-7.02,7.95-11.97,15.18-11.97h30.03
			c7.23,0,13.49,4.96,15.18,11.97l3.05,12.67c1.24,5.17,5.05,9.28,10.04,11.07c3.99,1.42,7.86,3.05,11.67,4.84
			c4.78,2.3,10.4,2.06,14.94-0.73l11.13-6.8c6.14-3.78,14.09-2.84,19.17,2.27l21.29,21.26c5.08,5.11,6.02,13.03,2.27,19.2
			l-6.83,11.13c-2.78,4.54-2.99,10.13-0.73,14.94c1.81,3.78,3.42,7.68,4.87,11.67c1.78,4.99,5.9,8.8,11.07,10.04l12.67,3.05
			c7.02,1.66,11.97,7.95,11.97,15.15v30.06c0,7.23-4.96,13.49-11.97,15.18l-12.67,3.05c-5.17,1.24-9.28,5.02-11.07,10.04
			c-1.45,3.96-3.05,7.86-4.87,11.64c-2.27,4.81-2.06,10.43,0.73,14.97l6.83,11.13c3.75,6.14,2.81,14.06-2.27,19.17l-21.29,21.26
			c-5.08,5.11-13.03,6.05-19.17,2.27l-11.13-6.8c-4.54-2.78-10.13-2.99-14.94-0.73c-3.81,1.81-7.68,3.42-11.67,4.84
			c-4.99,1.78-8.8,5.93-10.04,11.07l-3.05,12.7C1514.83,685.88,1508.57,690.81,1501.34,690.81z"></path><path fill="#242b2b" d="M1501.34,692.71h-30.03c-8.12,0-15.13-5.51-17.03-13.4l-3.05-12.7c-1.08-4.5-4.38-8.13-8.83-9.72
			c-4.11-1.47-7.99-3.07-11.85-4.91c-4.27-2.03-9.18-1.78-13.12,0.63l-11.13,6.81c-6.93,4.27-15.78,3.22-21.52-2.55l-21.28-21.25
			c-5.72-5.76-6.77-14.6-2.55-21.51l6.84-11.13c2.42-3.94,2.65-8.86,0.63-13.16c-1.73-3.6-3.34-7.46-4.93-11.8
			c-1.59-4.46-5.22-7.76-9.72-8.84l-12.67-3.05c-7.89-1.91-13.4-8.91-13.4-17.03v-30.06c0-8.14,5.52-15.13,13.41-17l12.66-3.05
			c4.49-1.08,8.13-4.38,9.72-8.83c1.57-4.32,3.19-8.19,4.94-11.85c2.02-4.28,1.78-9.18-0.63-13.12l-6.83-11.13
			c-4.22-6.94-3.17-15.8,2.54-21.54l21.29-21.26c5.74-5.77,14.58-6.81,21.52-2.54l11.12,6.8c3.97,2.43,8.87,2.67,13.12,0.64
			c4.17-1.96,8.04-3.56,11.86-4.92c4.45-1.59,7.75-5.22,8.82-9.71l3.05-12.67c1.91-7.91,8.92-13.44,17.03-13.44h30.03
			c8.12,0,15.13,5.53,17.03,13.44l3.05,12.67c1.08,4.49,4.38,8.13,8.83,9.72c3.79,1.35,7.67,2.95,11.83,4.9
			c4.26,2.05,9.16,1.81,13.13-0.62l11.13-6.81c6.93-4.27,15.79-3.22,21.52,2.55l21.28,21.25c5.72,5.75,6.76,14.61,2.55,21.54
			l-6.84,11.13c-2.41,3.93-2.65,8.84-0.63,13.13c1.75,3.64,3.37,7.51,4.94,11.83c1.59,4.46,5.22,7.76,9.72,8.84l12.68,3.05
			c7.91,1.87,13.43,8.87,13.43,17v30.06c0,8.12-5.52,15.12-13.43,17.03l-12.67,3.05c-4.5,1.08-8.13,4.38-9.72,8.82
			c-1.6,4.37-3.22,8.23-4.95,11.83c-2.02,4.28-1.78,9.2,0.63,13.14l6.83,11.13c4.23,6.92,3.18,15.76-2.54,21.51l-21.29,21.26
			c-5.73,5.77-14.59,6.81-21.52,2.54l-11.12-6.8c-3.94-2.42-8.84-2.65-13.13-0.63c-3.87,1.84-7.74,3.45-11.84,4.91
			c-4.44,1.59-7.74,5.22-8.83,9.72l-3.05,12.7C1516.47,687.2,1509.47,692.71,1501.34,692.71z M1424.53,646.79
			c2.6,0,5.21,0.58,7.66,1.74c3.75,1.78,7.5,3.34,11.49,4.77c5.66,2.02,9.86,6.66,11.25,12.42l3.05,12.7
			c1.49,6.17,6.97,10.48,13.32,10.48h30.03c6.36,0,11.84-4.31,13.32-10.48l3.05-12.7c1.39-5.75,5.59-10.39,11.25-12.42
			c3.98-1.42,7.74-2.98,11.49-4.76c5.46-2.57,11.72-2.26,16.75,0.82l11.12,6.8c5.43,3.34,12.34,2.52,16.83-1.98l21.29-21.26
			c4.47-4.5,5.29-11.42,1.99-16.83l-6.83-11.12c-3.09-5.05-3.4-11.32-0.83-16.78c1.68-3.5,3.25-7.25,4.8-11.48
			c2.01-5.65,6.65-9.86,12.41-11.24l12.67-3.05c6.19-1.49,10.51-6.98,10.51-13.32v-30.06c0-6.36-4.32-11.83-10.51-13.29l-12.68-3.05
			c-5.75-1.38-10.39-5.59-12.41-11.25c-1.52-4.19-3.09-7.95-4.79-11.48c-2.58-5.46-2.27-11.73,0.82-16.76l6.83-11.13
			c3.3-5.42,2.48-12.36-2-16.86l-21.28-21.25c-4.48-4.51-11.4-5.33-16.83-1.99l-11.13,6.81c-5.08,3.11-11.34,3.42-16.76,0.82
			c-4.04-1.89-7.8-3.45-11.48-4.76c-5.67-2.03-9.88-6.67-11.26-12.42l-3.05-12.67c-1.49-6.19-6.97-10.52-13.32-10.52h-30.03
			c-6.35,0-11.83,4.32-13.32,10.52l-3.05,12.67c-1.38,5.75-5.59,10.39-11.25,12.41c-3.7,1.32-7.47,2.88-11.51,4.77
			c-5.4,2.6-11.67,2.28-16.74-0.83l-11.12-6.8c-5.43-3.35-12.35-2.52-16.83,1.98l-21.29,21.26c-4.47,4.49-5.29,11.43-1.98,16.86
			l6.83,11.12c3.09,5.03,3.4,11.3,0.83,16.75c-1.71,3.56-3.28,7.32-4.8,11.51c-2.02,5.66-6.66,9.86-12.42,11.24l-12.67,3.05
			c-6.17,1.46-10.48,6.93-10.48,13.29v30.06c0,6.36,4.31,11.83,10.48,13.32l12.67,3.05c5.76,1.38,10.41,5.59,12.42,11.26
			c1.55,4.2,3.11,7.95,4.79,11.46c2.58,5.47,2.27,11.74-0.82,16.79l-6.83,11.13c-3.3,5.4-2.48,12.33,2,16.83l21.28,21.25
			c4.49,4.51,11.4,5.32,16.82,1.99l11.13-6.81C1418.22,647.65,1421.36,646.79,1424.53,646.79z"></path></g><g><circle cx="1486.33" cy="534.06" r="99.15" fill="#c5cde3"></circle></g><g><circle cx="1486.33" cy="534.06" r="86.82" fill="#fff"></circle><path fill="#242b2b" d="M1486.33,622.79c-48.93,0-88.73-39.8-88.73-88.73c0-48.92,39.8-88.73,88.73-88.73
			c48.92,0,88.73,39.8,88.73,88.73C1575.06,582.99,1535.26,622.79,1486.33,622.79z M1486.33,449.15
			c-46.82,0-84.92,38.09-84.92,84.91c0,46.82,38.09,84.92,84.92,84.92s84.91-38.09,84.91-84.92
			C1571.24,487.24,1533.15,449.15,1486.33,449.15z"></path></g><g><path fill="#fff" d="M409.92,1233.29h-30.03c-7.23,0-13.49-4.93-15.18-11.94l-3.05-12.7c-1.24-5.14-5.05-9.28-10.04-11.07
			c-3.99-1.42-7.86-3.02-11.67-4.84c-4.78-2.27-10.4-2.06-14.94,0.73l-11.13,6.8c-6.14,3.78-14.09,2.84-19.17-2.27l-21.29-21.26
			c-5.08-5.11-6.02-13.03-2.27-19.17l6.83-11.13c2.78-4.54,2.99-10.16,0.73-14.97c-1.81-3.78-3.42-7.68-4.87-11.64
			c-1.78-5.02-5.9-8.8-11.07-10.04l-12.67-3.05c-7.02-1.69-11.94-7.95-11.94-15.18l0-30.06c0-7.2,4.93-13.49,11.94-15.15l12.67-3.05
			c5.17-1.24,9.28-5.05,11.07-10.04c1.45-3.99,3.05-7.89,4.87-11.67c2.27-4.81,2.06-10.4-0.73-14.94l-6.83-11.13
			c-3.75-6.17-2.81-14.09,2.27-19.2l21.29-21.26c5.08-5.11,13.03-6.05,19.17-2.27l11.13,6.8c4.54,2.78,10.16,3.02,14.94,0.73
			c3.81-1.78,7.68-3.42,11.67-4.84c4.99-1.78,8.8-5.9,10.04-11.07l3.05-12.67c1.69-7.02,7.95-11.97,15.18-11.97h30.03
			c7.23,0,13.49,4.96,15.18,11.97l3.05,12.67c1.24,5.17,5.05,9.28,10.04,11.07c3.99,1.42,7.86,3.05,11.67,4.84
			c4.78,2.3,10.4,2.06,14.94-0.73l11.13-6.8c6.14-3.78,14.09-2.84,19.17,2.27l21.29,21.26c5.08,5.11,6.02,13.03,2.27,19.2
			l-6.83,11.13c-2.78,4.54-2.99,10.13-0.73,14.94c1.81,3.78,3.42,7.68,4.87,11.67c1.78,4.99,5.9,8.8,11.07,10.04l12.67,3.05
			c7.02,1.66,11.97,7.95,11.97,15.15v30.06c0,7.23-4.96,13.49-11.97,15.18l-12.67,3.05c-5.17,1.24-9.28,5.02-11.07,10.04
			c-1.45,3.96-3.05,7.86-4.87,11.64c-2.27,4.81-2.06,10.43,0.73,14.97l6.83,11.13c3.75,6.14,2.81,14.06-2.27,19.17L495.1,1198
			c-5.08,5.11-13.03,6.05-19.17,2.27l-11.13-6.8c-4.54-2.78-10.13-2.99-14.94-0.73c-3.81,1.81-7.68,3.42-11.67,4.84
			c-4.99,1.78-8.8,5.93-10.04,11.07l-3.05,12.7C423.41,1228.36,417.15,1233.29,409.92,1233.29z"></path><path fill="#242b2b" d="M409.92,1235.2h-30.03c-8.12,0-15.13-5.51-17.03-13.4l-3.06-12.7c-1.08-4.49-4.38-8.13-8.83-9.72
			c-4.1-1.46-7.97-3.06-11.85-4.91c-4.27-2.03-9.18-1.79-13.12,0.63l-11.13,6.81c-6.93,4.27-15.78,3.22-21.52-2.55l-21.28-21.25
			c-5.72-5.75-6.77-14.6-2.55-21.51l6.84-11.13c2.42-3.94,2.65-8.86,0.63-13.16c-1.74-3.63-3.36-7.49-4.93-11.8
			c-1.59-4.46-5.22-7.76-9.72-8.84l-12.67-3.05c-7.89-1.9-13.4-8.91-13.4-17.03v-30.06c0-8.14,5.52-15.13,13.41-17l12.66-3.05
			c4.49-1.08,8.13-4.38,9.72-8.83c1.57-4.31,3.18-8.19,4.94-11.85c2.01-4.28,1.78-9.18-0.63-13.12l-6.83-11.13
			c-4.22-6.94-3.17-15.8,2.54-21.54l21.29-21.26c5.73-5.76,14.58-6.82,21.52-2.54l11.12,6.8c3.97,2.44,8.88,2.67,13.12,0.64
			c4.15-1.95,8.03-3.55,11.86-4.92c4.45-1.59,7.75-5.22,8.82-9.72l3.06-12.67c1.91-7.91,8.91-13.43,17.03-13.43h30.03
			c8.12,0,15.13,5.52,17.03,13.43l3.05,12.67c1.08,4.49,4.38,8.13,8.83,9.72c3.83,1.37,7.71,2.97,11.84,4.9
			c4.26,2.05,9.16,1.81,13.13-0.62l11.13-6.81c6.93-4.27,15.78-3.22,21.52,2.55l21.28,21.25c5.71,5.75,6.76,14.61,2.55,21.54
			l-6.84,11.13c-2.41,3.93-2.65,8.84-0.63,13.13c1.76,3.66,3.37,7.53,4.93,11.84c1.6,4.46,5.23,7.76,9.72,8.83l12.67,3.06
			c7.91,1.87,13.43,8.86,13.43,17v30.06c0,8.12-5.52,15.13-13.43,17.03l-12.67,3.05c-4.51,1.08-8.14,4.38-9.72,8.82
			c-1.58,4.33-3.2,8.19-4.95,11.83c-2.02,4.29-1.79,9.21,0.63,13.15l6.83,11.13c4.22,6.92,3.18,15.76-2.54,21.51l-21.29,21.26
			c-5.73,5.76-14.58,6.82-21.52,2.54l-11.12-6.8c-3.94-2.42-8.84-2.64-13.13-0.63c-3.86,1.84-7.74,3.44-11.84,4.91
			c-4.44,1.59-7.74,5.22-8.83,9.72l-3.05,12.7C425.05,1229.68,418.04,1235.2,409.92,1235.2z M333.1,1189.28
			c2.6,0,5.22,0.58,7.67,1.74c3.76,1.79,7.52,3.35,11.5,4.77c5.66,2.02,9.86,6.66,11.25,12.41l3.06,12.7
			c1.49,6.17,6.97,10.48,13.32,10.48h30.03c6.36,0,11.83-4.31,13.33-10.48l3.05-12.7c1.39-5.75,5.6-10.39,11.25-12.41
			c3.98-1.42,7.74-2.98,11.49-4.76c5.46-2.58,11.72-2.27,16.75,0.82l11.13,6.8c5.43,3.34,12.34,2.52,16.83-1.98l21.29-21.26
			c4.47-4.5,5.29-11.42,1.99-16.83l-6.83-11.12c-3.09-5.04-3.4-11.32-0.82-16.78c1.7-3.54,3.27-7.3,4.8-11.48
			c2.01-5.65,6.65-9.86,12.41-11.24l12.67-3.05c6.19-1.49,10.51-6.97,10.51-13.32v-30.06c0-6.36-4.32-11.83-10.51-13.29l-12.68-3.06
			c-5.75-1.38-10.39-5.59-12.42-11.25c-1.52-4.17-3.09-7.94-4.79-11.49c-2.58-5.46-2.27-11.72,0.82-16.76l6.84-11.13
			c3.3-5.42,2.48-12.36-1.99-16.86l-21.28-21.25c-4.49-4.52-11.41-5.33-16.82-1.99l-11.13,6.81c-5.07,3.11-11.34,3.43-16.76,0.82
			c-4-1.87-7.76-3.43-11.48-4.76c-5.67-2.03-9.87-6.67-11.25-12.42l-3.05-12.67c-1.49-6.19-6.97-10.51-13.33-10.51H379.9
			c-6.35,0-11.83,4.32-13.33,10.51l-3.06,12.67c-1.38,5.75-5.58,10.39-11.25,12.42c-3.72,1.33-7.48,2.89-11.51,4.77
			c-5.4,2.6-11.66,2.28-16.74-0.83l-11.13-6.8c-5.43-3.35-12.34-2.52-16.82,1.98l-21.29,21.26c-4.47,4.49-5.29,11.43-1.99,16.86
			l6.83,11.12c3.09,5.03,3.4,11.3,0.82,16.75c-1.71,3.57-3.28,7.33-4.8,11.51c-2.02,5.66-6.67,9.86-12.41,11.24l-12.67,3.05
			c-6.18,1.46-10.49,6.93-10.49,13.29v30.06c0,6.36,4.31,11.84,10.49,13.32l12.67,3.05c5.76,1.38,10.4,5.59,12.42,11.25
			c1.53,4.17,3.1,7.93,4.79,11.46c2.58,5.47,2.27,11.74-0.82,16.79l-6.83,11.13c-3.3,5.4-2.48,12.33,1.99,16.83l21.28,21.25
			c4.48,4.51,11.4,5.34,16.82,1.99l11.13-6.81C326.79,1190.14,329.93,1189.28,333.1,1189.28z"></path></g><g><circle cx="394.91" cy="1076.54" r="99.15" fill="#c5cde3"></circle></g><g><circle cx="394.91" cy="1076.54" r="86.82" fill="#fff"></circle><path fill="#242b2b" d="M394.91,1165.27c-48.92,0-88.73-39.8-88.73-88.73c0-48.93,39.8-88.73,88.73-88.73s88.73,39.8,88.73,88.73
			C483.63,1125.47,443.83,1165.27,394.91,1165.27z M394.91,991.63c-46.82,0-84.91,38.09-84.91,84.92s38.09,84.91,84.91,84.91
			c46.82,0,84.91-38.09,84.92-84.91C479.82,1029.72,441.73,991.63,394.91,991.63z"></path></g><g><path fill="#007afd" d="M787.19 625.61c-.13.51-.3.92-.53 1.22-.22.31-.55.54-.99.7-.45.16-1.01.26-1.71.32-.69.05-1.58.08-2.66.08-1.2 0-2.17-.03-2.89-.08-.73-.05-1.3-.16-1.72-.32-.42-.16-.73-.39-.92-.7-.19-.31-.34-.71-.44-1.22l-6.55-25.96h-.06l-6.2 25.96c-.11.49-.25.88-.45 1.19-.19.31-.49.54-.9.71-.41.17-.97.28-1.68.34-.71.05-1.64.08-2.8.08-1.23 0-2.2-.03-2.93-.08-.73-.05-1.3-.16-1.72-.32-.42-.16-.73-.39-.92-.7-.19-.31-.35-.71-.48-1.22l-9.31-35.74c-.19-.76-.29-1.36-.32-1.79-.02-.43.1-.77.36-1s.7-.38 1.3-.43c.6-.05 1.44-.08 2.52-.08.99 0 1.78.01 2.36.05.58.03 1.02.1 1.31.22.29.12.5.29.6.51.1.22.19.53.25.93l7.18 31.37h.03l7.47-31.15c.08-.4.19-.73.33-.98.14-.25.37-.45.7-.58.33-.14.77-.23 1.34-.29s1.33-.08 2.28-.08c1.01 0 1.82.02 2.42.06.6.04 1.07.13 1.39.27.33.14.57.33.71.58.15.25.26.59.35 1.01l7.72 31.15h.06l7.18-31.27c.07-.34.15-.63.25-.87.11-.24.31-.43.6-.57.29-.14.72-.23 1.27-.29s1.32-.08 2.31-.08c.93 0 1.65.03 2.17.08.52.05.89.2 1.12.43.23.23.34.57.3 1.03-.03.45-.14 1.07-.33 1.85L787.19 625.61zM845.94 625.61c-.13.51-.3.92-.53 1.22-.22.31-.55.54-.99.7-.45.16-1.01.26-1.71.32-.69.05-1.58.08-2.66.08-1.2 0-2.17-.03-2.89-.08-.73-.05-1.3-.16-1.72-.32-.42-.16-.73-.39-.92-.7-.19-.31-.34-.71-.44-1.22l-6.55-25.96h-.06l-6.2 25.96c-.11.49-.25.88-.45 1.19-.19.31-.49.54-.9.71-.41.17-.97.28-1.68.34-.71.05-1.64.08-2.8.08-1.23 0-2.2-.03-2.93-.08-.73-.05-1.3-.16-1.72-.32-.42-.16-.73-.39-.92-.7-.19-.31-.35-.71-.48-1.22l-9.31-35.74c-.19-.76-.29-1.36-.32-1.79-.02-.43.1-.77.36-1s.7-.38 1.3-.43c.6-.05 1.44-.08 2.52-.08.99 0 1.78.01 2.36.05.58.03 1.02.1 1.31.22.29.12.5.29.6.51.1.22.19.53.25.93l7.18 31.37h.03l7.47-31.15c.08-.4.19-.73.33-.98.14-.25.37-.45.7-.58.33-.14.77-.23 1.34-.29s1.33-.08 2.28-.08c1.01 0 1.82.02 2.42.06.6.04 1.07.13 1.39.27.33.14.57.33.71.58.15.25.26.59.35 1.01l7.72 31.15h.06l7.18-31.27c.07-.34.15-.63.25-.87.11-.24.31-.43.6-.57.29-.14.72-.23 1.27-.29.55-.05 1.32-.08 2.31-.08.93 0 1.65.03 2.17.08s.89.2 1.12.43c.23.23.34.57.3 1.03-.03.45-.14 1.07-.33 1.85L845.94 625.61zM904.69 625.61c-.13.51-.3.92-.53 1.22-.22.31-.55.54-.99.7-.45.16-1.01.26-1.71.32-.69.05-1.58.08-2.66.08-1.2 0-2.17-.03-2.89-.08-.73-.05-1.3-.16-1.72-.32-.42-.16-.73-.39-.92-.7-.19-.31-.34-.71-.44-1.22l-6.55-25.96h-.06l-6.2 25.96c-.11.49-.25.88-.45 1.19-.19.31-.49.54-.9.71-.41.17-.97.28-1.68.34-.71.05-1.64.08-2.8.08-1.23 0-2.2-.03-2.93-.08-.73-.05-1.3-.16-1.72-.32-.42-.16-.73-.39-.92-.7-.19-.31-.35-.71-.48-1.22l-9.31-35.74c-.19-.76-.29-1.36-.32-1.79-.02-.43.1-.77.36-1s.7-.38 1.3-.43c.6-.05 1.44-.08 2.52-.08.99 0 1.78.01 2.36.05.58.03 1.02.1 1.31.22.29.12.5.29.6.51.1.22.19.53.25.93l7.18 31.37h.03l7.47-31.15c.08-.4.19-.73.33-.98.14-.25.37-.45.7-.58.33-.14.77-.23 1.34-.29.57-.05 1.33-.08 2.28-.08 1.01 0 1.82.02 2.42.06.6.04 1.07.13 1.39.27.33.14.57.33.71.58.15.25.26.59.35 1.01l7.72 31.15h.06l7.18-31.27c.07-.34.15-.63.25-.87.11-.24.31-.43.6-.57.29-.14.72-.23 1.27-.29s1.32-.08 2.31-.08c.93 0 1.65.03 2.17.08s.89.2 1.12.43c.23.23.34.57.3 1.03-.03.45-.14 1.07-.33 1.85L904.69 625.61z"></path></g><g><circle cx="1488.64" cy="495.68" r="22.03" fill="#007afd"></circle><path d="M1488.63,519.62c-13.2,0-23.94-10.74-23.94-23.94c0-13.2,10.74-23.94,23.94-23.94c13.2,0,23.94,10.74,23.94,23.94
				C1512.58,508.88,1501.84,519.62,1488.63,519.62z M1488.63,475.55c-11.1,0-20.12,9.03-20.12,20.12c0,11.1,9.03,20.13,20.12,20.13
				s20.13-9.03,20.13-20.13C1508.76,484.58,1499.73,475.55,1488.63,475.55z"></path></g><g><path fill="#007afd" d="M1526.49,579.98l-75.7,0c-9.81,0-16.46-10.05-12.61-19.11c8.34-19.63,27.78-33.38,50.48-33.38
				c22.67,0,42.11,13.76,50.45,33.38C1542.95,569.92,1536.3,579.98,1526.49,579.98z"></path><path d="M1526.48,581.88h-75.7c-5.25,0-10.11-2.62-13.02-7c-2.91-4.39-3.41-9.91-1.35-14.76c8.92-20.98,29.42-34.54,52.23-34.54
				c22.8,0,43.29,13.56,52.2,34.54c2.06,4.84,1.56,10.36-1.35,14.76C1536.6,579.26,1531.74,581.88,1526.48,581.88z M1488.65,529.39
				c-21.28,0-40.41,12.65-48.73,32.22c-1.56,3.67-1.17,7.84,1.02,11.17c2.19,3.31,5.87,5.3,9.84,5.3h75.7c3.97,0,7.64-1.98,9.84-5.3
				c2.2-3.33,2.58-7.5,1.02-11.16C1529.03,542.04,1509.91,529.39,1488.65,529.39z"></path></g><g><path fill="#ffd24f" d="M436.69,1087.88l-38.18,32.88c-11.78,10.15-30.09,3.18-32.16-12.21l-7.31-54.49
			c-2.07-15.39,13.76-26.95,27.8-20.29l45.5,21.61C445.1,1061.47,447.41,1078.66,436.69,1087.88z"></path><path d="M385.83,1127.45c-2.58,0-5.18-0.47-7.72-1.44c-7.48-2.84-12.59-9.28-13.65-17.21l-7.31-54.49
			c-1.07-7.93,2.16-15.48,8.62-20.2c6.47-4.72,14.65-5.49,21.88-2.06l45.5,21.62c6.59,3.14,11.1,9.33,12.07,16.56
			c0.96,7.21-1.76,14.35-7.28,19.1l-38.18,32.88C395.74,1125.65,390.85,1127.45,385.83,1127.45z M378.39,1033.75
			c-3.65,0-7.25,1.16-10.37,3.44c-5.32,3.88-7.97,10.09-7.09,16.62l7.31,54.49c0.88,6.52,5.07,11.82,11.23,14.16
			c6.15,2.33,12.81,1.16,17.79-3.14l38.19-32.88c4.54-3.9,6.78-9.77,5.99-15.7c-0.79-5.94-4.5-11.04-9.93-13.62l-45.49-21.61
			C383.55,1034.32,380.96,1033.75,378.39,1033.75z"></path></g></svg>