<svg xmlns="http://www.w3.org/2000/svg" enable-background="new 0 0 1440 1080" viewBox="0 0 1440 1080" id="business-people-working-together-and-helping-eachother"><path fill="#05304b" fill-rule="evenodd" d="M1215.1 839.3s99.4-60.4 93.3-186.5S1189.8 375 1004 301.4 308.9 33.3 178.2 272.3s-123.7 641 304.9 693.5 732-126.5 732-126.5z" clip-rule="evenodd"></path><linearGradient id="a" x1="390.676" x2="877.825" y1="60.106" y2="914.915" gradientUnits="userSpaceOnUse"><stop offset="0" stop-color="#b9d5ae"></stop><stop offset="1" stop-color="#0076bd"></stop></linearGradient><path fill="url(#a)" fill-rule="evenodd" d="M1223.5 830.4s99.4-60.4 93.3-186.5c-6.1-126.2-118.6-277.8-304.4-351.4S317.3 24.4 186.6 263.4 62.9 904.3 491.4 956.9s732.1-126.5 732.1-126.5z" clip-rule="evenodd"></path><g opacity=".46"><path fill="#f9d05e" d="m128.7 678.6.9.9-.3-.9h-.6z"></path><path fill="#fff" d="M858.4 233.6c19.7 6.8 38.5 13.5 56.4 20-15.2-12.5-34.6-20-55.9-20h-.5zM848.1 229.7c-.3.1-.6.1-.8.2.3-.1.6-.2.8-.2z"></path><path fill="#e4eaea" d="m929.4 253.1.1.1-.1-.1zM937.2 262c-.9-1.2-1.8-2.3-2.8-3.4 1 1 1.9 2.2 2.8 3.4zM848.4 229.6c2.3-.5 4.7-.9 7.1-1.3-2.4.4-4.8.8-7.1 1.3zM929.5 253.2c1.7 1.7 3.4 3.5 4.9 5.3-1.6-1.8-3.2-3.6-4.9-5.3zM926.5 250.3c1 .9 1.9 1.8 2.9 2.7-1-.9-1.9-1.8-2.9-2.7zM922.5 246.9c1.4 1.1 2.7 2.2 4 3.4-1.3-1.1-2.6-2.3-4-3.4z"></path><path fill="none" d="M1316.7 642.4c-6.1-126.2-118.6-277.8-304.4-351.4-15.8-6.2-33.9-13.3-53.9-21 6.8 13.7 10.7 29.1 10.7 45.4 0 39.4-22.4 73.5-55.1 90.4-.2.1-.4.2-.7.3-1 .5-2.1 1-3.1 1.5-.5.2-.9.4-1.4.6-.6.3-1.2.5-1.8.8-.7.3-1.4.6-2.2.9-.6.3-1.3.5-1.9.7-.8.3-1.5.6-2.3.8-.4.1-.8.3-1.2.4-1.1.4-2.2.7-3.3 1-.4.1-.7.2-1.1.3-1.2.3-2.3.6-3.5.9-.3.1-.5.1-.8.2-1.3.3-2.6.6-3.8.8-.1 0-.3.1-.5.1-.9.2-1.7.3-2.6.5-.2 0-.4.1-.5.1-2 .3-4 .6-6.1.8-.2 0-.4 0-.6.1-.8.1-1.6.1-2.4.2-.3 0-.6 0-.9.1-.7 0-1.5.1-2.2.1H867.2c-43.8 0-81.1-27.7-95.4-66.4-.5-1.4-1-2.8-1.4-4.2-.9-2.8-1.7-5.7-2.3-8.6-.3-1.5-.6-2.9-.9-4.4-1-5.8-1.6-11.9-1.6-18v-.1c0-1.1 0-2.2.1-3.3v-1.1c0-.8.1-1.6.1-2.4 0-.7.1-1.5.2-2.2 0-.5.1-.9.1-1.4.1-.7.2-1.4.2-2.1v-.2c4.5-35.7 27.5-65.7 59.1-79.9-228-74.9-540.7-140.6-639.1 39.3-2.9 5.3-5.7 10.7-8.5 16.1 4.2 5 8.6 11 12.5 17.9 2.9-24.8 13.6-43.3 13.6-43.3s10.7 18.6 13.6 43.3c12.3-21.7 29.5-34.6 29.5-34.6s3.5 28.3-8.4 56.3c-2.7 6.3-6 12.1-9.4 17.3h12.5l-9.7 82h94V219h320.4v198h68.2v31.3H121.4c-13.2 73.5-13 149.9 5.2 220.6h187.2v118.7h-9.4v9.8H186.8c59.1 80.3 156.8 140 304.6 158.1 428.5 52.6 732-126.5 732-126.5s99.5-60.5 93.3-186.6z"></path><path fill="none" d="M166.4 334.9h12.5c-3.4-5.2-6.7-10.9-9.4-17.3-1.8-4.2-3.2-8.3-4.3-12.4-15.6 35.2-28.3 72.8-37.3 111.6h48.3l-9.8-81.9z"></path><path fill="#c7d2d3" d="M304.5 787.5H179.8c2.3 3.3 4.6 6.6 7 9.8h117.8v-9.8z"></path><path fill="#f9d05e" d="M304.5 678.6v99.5l9.4 9.4V668.8H126.7c.8 3.3 1.7 6.6 2.6 9.8h175.2z"></path><path fill="#f9d05e" d="M294.9 687.8v80.7l9.6 9.6v-99.5H129.3l.3.9 8.3 8.3h157z"></path><path fill="#e8bb4b" d="M304.5 787.5h9.4l-9.4-9.4zM294.9 768.5H167.7c3.8 6.4 7.8 12.8 12.1 19h124.7v-9.4l-9.6-9.6zM129.6 679.5c2.5 8.7 5.3 17.2 8.3 25.7v-17.4l-8.3-8.3z"></path><path fill="#d0f4f3" d="m294.9 768.5-157-80.7v17.4c7.9 21.9 17.8 43.1 29.8 63.3h127.2z"></path><path fill="#e4f9f8" d="m137.9 687.8 157 80.7v-80.7z"></path><path fill="#77a5b7" d="M714.6 416.9h-68.2v.2H326v-.2h-93.6v.2h-56.1v-.2H128c-2.4 10.4-4.6 20.8-6.5 31.3h593.1v-31.3z"></path><path fill="#e84f40" d="M596.1 233.9h36.4v112.7h-28.7c3 7.8 6.1 14.9 9.2 21.3.4 0 .8-.1 1.3-.1 7.6 0 13.7 6.1 13.7 13.7 0 3.1-1.1 6-2.8 8.3 10.7 17 19.5 25.6 20.9 27h.2v-198h-64.1c0 42 5.8 76.6 13.8 104.5v-89.4zM646.3 417.1h-64.1 64.1v-.2h-.2c.2.1.2.2.2.2z"></path><path fill="#c94039" d="M646.1 416.9c-1.4-1.4-10.3-10-20.9-27-2.5 3.3-6.4 5.4-10.9 5.4-7.6 0-13.7-6.1-13.7-13.7 0-7.2 5.5-13 12.5-13.7-3.1-6.4-6.2-13.5-9.2-21.3h-7.8v-23.3c-8.1-27.9-13.8-62.5-13.8-104.5v198h63.8zM646.3 417.1l-.2-.2h-63.9v.2h64.1z"></path><path fill="#fff" d="M632.5 233.9h-36.4v89.5c2.4 8.3 5 16.1 7.8 23.3h28.7V233.9z"></path><path fill="#fff" d="M596.1 346.6h7.8c-2.7-7.2-5.3-14.9-7.8-23.3v23.3z"></path><path fill="#1f2f35" d="M614.3 367.8c-.4 0-.8 0-1.3.1 4.1 8.5 8.3 15.8 12.1 22 1.8-2.3 2.8-5.2 2.8-8.3.1-7.6-6-13.8-13.6-13.8z"></path><path fill="#1f2f35" d="M600.6 381.6c0 7.6 6.1 13.7 13.7 13.7 4.4 0 8.4-2.1 10.9-5.4-3.9-6.2-8-13.5-12.1-22-7.1.6-12.5 6.5-12.5 13.7z"></path><path fill="#3c5665" d="M532 233.9h36.4v112.7h-28.7c3 7.8 6.1 14.9 9.2 21.3.4 0 .8-.1 1.3-.1 7.6 0 13.7 6.1 13.7 13.7 0 3.1-1.1 6-2.8 8.3 10.7 17 19.5 25.6 20.9 27h.2v-198h-64.1c0 42 5.8 76.6 13.8 104.5v-89.4zM582.3 416.9h-.3l.2.2h-64.1 64.1v-.2z"></path><path fill="#314854" d="M582 416.9c-1.4-1.4-10.3-10-20.9-27-2.5 3.3-6.4 5.4-10.9 5.4-7.6 0-13.7-6.1-13.7-13.7 0-7.2 5.5-13 12.5-13.7-3.1-6.4-6.2-13.5-9.2-21.3H532v-23.3c-8.1-27.9-13.8-62.5-13.8-104.5v198H582zM582.3 417.1l-.2-.2h-63.9v.2h64.1z"></path><path fill="#fff" d="M568.4 233.9H532v89.5c2.4 8.3 5 16.1 7.8 23.3h28.7V233.9z"></path><path fill="#fff" d="M532 346.6h7.8c-2.7-7.2-5.3-14.9-7.8-23.3v23.3z"></path><path fill="#1f2f35" d="M550.2 367.8c-.4 0-.8 0-1.3.1 4.1 8.5 8.3 15.8 12.1 22 1.8-2.3 2.8-5.2 2.8-8.3.1-7.6-6-13.8-13.6-13.8z"></path><path fill="#1f2f35" d="M536.5 381.6c0 7.6 6.1 13.7 13.7 13.7 4.4 0 8.4-2.1 10.9-5.4-3.9-6.2-8-13.5-12.1-22-7 .6-12.5 6.5-12.5 13.7z"></path><path fill="#a19ea0" d="M467.9 233.9h36.4v112.7h-28.7c3 7.8 6.1 14.9 9.2 21.3.4 0 .8-.1 1.3-.1 7.6 0 13.7 6.1 13.7 13.7 0 3.1-1.1 6-2.8 8.3 10.7 17 19.5 25.6 20.9 27h.2v-198H454c0 42 5.8 76.6 13.8 104.5v-89.4zM518.2 416.9h-.2l.2.2v-.2z"></path><path fill="#898989" d="M518 416.9c-1.4-1.4-10.3-10-20.9-27-2.5 3.3-6.4 5.4-10.9 5.4-7.6 0-13.7-6.1-13.7-13.7 0-7.2 5.5-13 12.5-13.7-3.1-6.4-6.2-13.5-9.2-21.3H468v-23.3c-8.1-27.9-13.8-62.5-13.8-104.5v198H518zM518.2 417.1l-.2-.2h-63.9v.2h64.1z"></path><path fill="#fff" d="M504.4 233.9H468v89.5c2.4 8.3 5 16.1 7.8 23.3h28.7V233.9z"></path><path fill="#fff" d="M467.9 346.6h7.8c-2.7-7.2-5.3-14.9-7.8-23.3v23.3z"></path><path fill="#1f2f35" d="M486.2 367.8c-.4 0-.8 0-1.3.1 4.1 8.5 8.3 15.8 12.1 22 1.8-2.3 2.8-5.2 2.8-8.3.1-7.6-6.1-13.8-13.6-13.8z"></path><path fill="#1f2f35" d="M472.4 381.6c0 7.6 6.1 13.7 13.7 13.7 4.4 0 8.4-2.1 10.9-5.4-3.9-6.2-8-13.5-12.1-22-7 .6-12.5 6.5-12.5 13.7z"></path><path fill="#f9d05e" d="M403.9 233.9h36.4v112.7h-28.7c3 7.8 6.1 14.9 9.2 21.3.4 0 .8-.1 1.3-.1 7.6 0 13.7 6.1 13.7 13.7 0 3.1-1.1 6-2.8 8.3 10.7 17 19.5 25.6 20.9 27h.2v-198H390c0 42 5.8 76.6 13.8 104.5v-89.4zM454.1 416.9h-.2l.2.2v-.2z"></path><path fill="#e8bb4b" d="M453.9 416.9c-1.4-1.4-10.3-10-20.9-27-2.5 3.3-6.4 5.4-10.9 5.4-7.6 0-13.7-6.1-13.7-13.7 0-7.2 5.5-13 12.5-13.7-3.1-6.4-6.2-13.5-9.2-21.3h-7.8v-23.3c-8.1-27.9-13.8-62.5-13.8-104.5v198h63.8zM453.9 416.9H390v.2h64.1l-.2-.2z"></path><path fill="#fff" d="M440.3 233.9h-36.4v89.5c2.4 8.3 5 16.1 7.8 23.3h28.7V233.9z"></path><path fill="#fff" d="M403.9 346.6h7.8c-2.7-7.2-5.3-14.9-7.8-23.3v23.3z"></path><path fill="#1f2f35" d="M422.1 367.8c-.4 0-.8 0-1.3.1 4.1 8.5 8.3 15.8 12.1 22 1.8-2.3 2.8-5.2 2.8-8.3.1-7.6-6-13.8-13.6-13.8z"></path><path fill="#1f2f35" d="M408.4 381.6c0 7.6 6.1 13.7 13.7 13.7 4.4 0 8.4-2.1 10.9-5.4-3.9-6.2-8-13.5-12.1-22-7.1.6-12.5 6.5-12.5 13.7z"></path><path fill="#3c5665" d="M339.8 233.9h36.4v112.7h-28.7c3 7.8 6.1 14.9 9.2 21.3.4 0 .8-.1 1.3-.1 7.6 0 13.7 6.1 13.7 13.7 0 3.1-1.1 6-2.8 8.3 10.7 17 19.5 25.6 20.9 27h.2v-198h-64c0 42 5.8 76.6 13.8 104.5v-89.4zM389.8 416.9l.2.2v-.2h-.2z"></path><path fill="#314854" d="M368.9 389.9c-2.5 3.3-6.4 5.4-10.9 5.4-7.6 0-13.7-6.1-13.7-13.7 0-7.2 5.5-13 12.5-13.7-3.1-6.4-6.2-13.5-9.2-21.3h-7.8v-23.3c-8.1-27.9-13.8-62.5-13.8-104.5v198h63.9c-1.5-1.3-10.3-9.9-21-26.9zM390 417.1l-.2-.2H326v.2h64z"></path><path fill="#fff" d="M376.2 233.9h-36.4v89.5c2.4 8.3 5 16.1 7.8 23.3h28.7V233.9z"></path><path fill="#fff" d="M339.8 346.6h7.8c-2.7-7.2-5.3-14.9-7.8-23.3v23.3z"></path><path fill="#1f2f35" d="M358 367.8c-.4 0-.8 0-1.3.1 4.1 8.5 8.3 15.8 12.1 22 1.8-2.3 2.8-5.2 2.8-8.3.1-7.6-6-13.8-13.6-13.8z"></path><path fill="#1f2f35" d="M344.3 381.6c0 7.6 6.1 13.7 13.7 13.7 4.4 0 8.4-2.1 10.9-5.4-3.9-6.2-8-13.5-12.1-22-7 .6-12.5 6.5-12.5 13.7z"></path><path fill="#327079" d="M178.9 334.9h50.6c3.4-5.2 6.7-10.9 9.4-17.3 11.9-28 8.4-56.3 8.4-56.3s-17.1 12.9-29.5 34.6c-2.9-24.8-13.6-43.3-13.6-43.3s-10.7 18.6-13.6 43.3c-3.9-6.9-8.3-12.9-12.5-17.9-4.5 8.9-8.8 18-12.9 27.2 1.1 4.1 2.6 8.2 4.3 12.4 2.8 6.4 6 12.2 9.4 17.3z"></path><path fill="#1f2f35" d="M204.2 362.8s-13.6-10.2-25.3-27.8h-12.5c11.3 22.6 62.3 78.3 65.7 82h.2l9.7-82h-12.5c-11.6 17.5-25.3 27.8-25.3 27.8z"></path><path fill="#1f2f35" d="M232.3 417.1h-56.1 56.1v-.2h-.2l.2.2zM204.2 362.8s13.6-10.2 25.3-27.8h-50.6c11.7 17.5 25.3 27.8 25.3 27.8z"></path><path fill="#182428" d="m166.4 334.9 9.8 82zM176.2 416.9v.2-.2zM232.1 416.9c-3.4-3.7-54.4-59.4-65.7-82l9.7 82h56z"></path><path fill="#182428" d="M232.1 416.9h-56v.2h56.1c.1 0 0-.1-.1-.2z"></path><path fill="#e84f40" d="M765.7 315.4c0 6.1.5 12.2 1.6 18-1-5.9-1.6-11.9-1.6-18zM772 350.6c14.3 38.8 51.7 66.4 95.4 66.4h3.1-3.1c-43.7.1-81.1-27.6-95.4-66.4zM770.6 346.5c-.9-2.8-1.7-5.7-2.3-8.6.6 2.8 1.3 5.7 2.3 8.6zM896.3 412.9c-.4.1-.7.2-1.1.3.4-.1.8-.2 1.1-.3zM955.3 315.4v3.5c0 .6-.1 1.3-.1 1.9 0 .3 0 .5-.1.8-.1.7-.1 1.5-.2 2.2v.4l-.3 2.7v.2c-.1.8-.2 1.7-.4 2.5 0 .1 0 .2-.1.4-.1.9-.3 1.7-.5 2.6-3.4 17-11.6 32.3-23.3 44.3 8.3-1.5 15.8-3.6 22.1-5.6-9.6 14.6-22.8 26.6-38.4 34.7 32.7-16.9 55.1-51 55.1-90.4 0-16.3-3.8-31.7-10.7-45.4-6.9-2.6-14-5.3-21.3-8.1 11.4 14.7 18.2 33.2 18.2 53.3zM909 408.2c-.6.3-1.2.5-1.8.8.6-.2 1.2-.5 1.8-.8zM891.8 414.1c-.3.1-.5.1-.8.2.2 0 .5-.1.8-.2zM900.8 411.5c-.4.1-.8.3-1.2.4.4-.1.8-.3 1.2-.4zM905 409.9c-.6.3-1.3.5-1.9.7.6-.2 1.3-.4 1.9-.7zM913.4 406.1c-1 .5-2.1 1-3.1 1.5 1-.5 2.1-1 3.1-1.5zM766.5 302.6c.3-2.4.7-4.8 1.2-7.2 3.9 6.4 7.8 12.4 11.9 17.9.6-26.6 13.1-50.2 32.3-65.9.2-.1.3-.3.5-.4.8-.6 1.6-1.3 2.4-1.9.3-.2.5-.4.8-.6.5-.3.9-.7 1.4-1 .3-.2.6-.5 1-.7.7-.5 1.4-1 2.2-1.4.4-.3.8-.5 1.2-.8.4-.3.9-.5 1.4-.8.4-.3.9-.5 1.3-.7.6-.3 1.2-.7 1.8-1 .6-.3 1.1-.6 1.7-.9l1.2-.6c.6-.3 1.2-.6 1.7-.8.4-.2.8-.4 1.3-.6.7-.3 1.5-.6 2.2-1 .4-.1.7-.3 1.1-.4.8-.3 1.5-.6 2.3-.9.2-.1.4-.2.7-.2l2.7-.9.9-.3 3-.9c.1 0 .1 0 .2-.1.9-.2 1.8-.5 2.7-.7-7.1-2.4-14.3-4.8-21.6-7.2-32 14.3-55 44.2-59.5 80zM765.8 312v-1.1 1.1zM766.3 304.9c.1-.7.2-1.4.2-2.1-.1.6-.2 1.4-.2 2.1zM766 308.5c.1-.7.1-1.5.2-2.2-.1.7-.2 1.4-.2 2.2z"></path><path fill="#c94039" d="M765.7 315.4s0-.1 0 0c0-.1 0 0 0 0zM952.5 371.1c-6.4 2.1-13.8 4.1-22.1 5.6-16 16.4-38.2 26.5-62.9 26.5-48.5 0-87.9-39.3-87.9-87.9v-2.2c-4-5.5-8-11.5-11.9-17.9-.5 2.4-.9 4.8-1.2 7.2v.2c-.1.7-.2 1.4-.2 2.1 0 .5-.1.9-.1 1.4-.1.7-.1 1.5-.2 2.2-.1.8-.1 1.6-.1 2.4v1.1c0 1.1-.1 2.2-.1 3.3v.1c0 6.1.5 12.2 1.6 18 .3 1.5.6 3 .9 4.4.7 2.9 1.4 5.8 2.3 8.6.5 1.4.9 2.8 1.4 4.2 14.3 38.8 51.7 66.4 95.4 66.4H871.3c.7 0 1.5-.1 2.2-.1.3 0 .6 0 .9-.1.8-.1 1.6-.1 2.4-.2.2 0 .4 0 .6-.1 2-.2 4.1-.5 6.1-.8.2 0 .4-.1.5-.1.9-.1 1.7-.3 2.6-.5.2 0 .3-.1.5-.1 1.3-.3 2.6-.5 3.8-.8.3-.1.5-.1.8-.2 1.2-.3 2.3-.6 3.5-.9.4-.1.7-.2 1.1-.3 1.1-.3 2.2-.7 3.3-1 .4-.1.8-.3 1.2-.4.8-.3 1.5-.5 2.3-.8.6-.2 1.3-.5 1.9-.7.7-.3 1.5-.6 2.2-.9.6-.3 1.2-.5 1.8-.8.5-.2.9-.4 1.4-.6 1-.5 2.1-1 3.1-1.5.2-.1.4-.2.7-.3 15.4-7.9 28.7-19.9 38.3-34.5zM899.6 411.9c-1.1.4-2.2.7-3.3 1 1.1-.3 2.2-.7 3.3-1zM907.2 409c-.7.3-1.4.6-2.2.9.7-.3 1.4-.6 2.2-.9zM914.1 405.8c-.2.1-.4.2-.7.3.2-.1.4-.2.7-.3zM903.1 410.6c-.8.3-1.5.6-2.3.8.8-.2 1.5-.5 2.3-.8zM891 414.3c-1.3.3-2.6.6-3.8.8 1.2-.2 2.5-.5 3.8-.8zM910.3 407.6c-.5.2-.9.4-1.4.6.5-.2 1-.4 1.4-.6zM895.3 413.2c-1.2.3-2.3.6-3.5.9 1.1-.2 2.3-.5 3.5-.9zM883.6 415.8c-2 .3-4 .6-6.1.8 2-.2 4.1-.5 6.1-.8z"></path><path fill="#c94039" d="M765.8 310.9c0-.8.1-1.6.1-2.4 0 .8 0 1.6-.1 2.4zM765.7 315.3c0-1.1 0-2.2.1-3.3 0 1.1-.1 2.2-.1 3.3zM766.5 302.7v-.2.2zM766.1 306.3c0-.5.1-.9.1-1.4 0 .4 0 .9-.1 1.4z"></path><path fill="#fff" d="M830.4 235.7c.4-.2.8-.4 1.3-.6-.4.2-.9.4-1.3.6zM833.9 234.2c.4-.1.7-.3 1.1-.4-.4.1-.8.2-1.1.4zM817.9 242.8c.7-.5 1.4-1 2.2-1.4-.7.4-1.5.9-2.2 1.4zM827.4 237.1l1.2-.6c-.3.2-.7.4-1.2.6zM837.2 232.9c.2-.1.4-.2.7-.2-.2 0-.4.1-.7.2zM821.3 240.6c.4-.3.9-.5 1.4-.8-.5.3-.9.5-1.4.8zM812.3 247c.8-.6 1.6-1.3 2.4-1.9-.8.6-1.6 1.3-2.4 1.9zM824 239c.6-.3 1.2-.7 1.8-1-.7.4-1.3.7-1.8 1zM815.5 244.5c.5-.3.9-.7 1.4-1-.4.3-.9.7-1.4 1zM840.6 231.7l.9-.3-.9.3zM793.4 317.5s0 .1 0 0c-1.3 0-2.2-1-2.2-2.2 0-1.2 1-2.2 2.2-2.2h.1c.5-18.8 8.1-35.9 20.2-48.7-.8-.8-.8-2.2 0-3.1.8-.8 2.2-.8 3.1 0 12.8-12.1 29.8-19.6 48.7-20.2v-.1c0-1.2 1-2.2 2.2-2.2s2.2 1 2.2 2.2v.1c18.8.5 35.9 8.1 48.7 20.2.8-.8 2.2-.8 3.1 0 .8.8.8 2.2 0 3.1 12.1 12.8 19.6 29.8 20.2 48.7h.1c1.2 0 2.2 1 2.2 2.2 0 1.2-1 2.2-2.2 2.2h-.1c-.5 18.8-8.1 35.9-20.2 48.7.8.8.8 2.2 0 3.1-.8.8-2.2.8-3.1 0-4.1 3.9-8.7 7.3-13.6 10.2 7.8-.2 15.2-1 22.1-2.1 12.5-15.2 20.1-34.7 20.1-55.9 0-27.3-12.5-51.7-32-67.8-17.8-6.5-36.7-13.3-56.4-20-17.1.1-33.1 5.2-46.6 13.7-19.2 15.7-31.6 39.3-32.3 65.9 5.1 7 10.3 13.3 15.7 18.9-1.4-4.8-2.1-9.6-2.2-14.7zM955.3 315.4v2.7-2.7zM847.3 229.8c-.9.2-1.8.4-2.7.7.9-.2 1.8-.4 2.7-.7z"></path><path fill="#fff" d="M930.3 376.7c11.7-12 19.9-27.2 23.3-44.3-3.4 17.1-11.7 32.3-23.4 44.3 0 .1.1 0 .1 0zM867.4 403.3c24.7 0 46.9-10.2 62.9-26.5h-.1c-4.7 4.8-10 9.1-15.7 12.7 4.4-3.6 8.5-7.7 12.2-12.1-6.9 1.1-14.3 1.9-22.1 2.1-10.3 6-22.3 9.6-35 10v.1c0 1.2-1 2.2-2.2 2.2s-2.2-1-2.2-2.2v-.1c-18.8-.5-35.9-8.1-48.7-20.2-.8.8-2.2.8-3.1 0-.8-.8-.8-2.2 0-3.1-8.9-9.4-15.3-21.1-18.3-34.1-5.3-5.7-10.6-12-15.7-18.9v2.2c.2 48.5 39.5 87.9 88 87.9z"></path><path fill="#e4eaea" d="M955.3 315.4c0-20.1-6.8-38.6-18.1-53.4 11.3 14.8 18.1 33.3 18.1 53.4zM847.3 229.8c-.9.2-1.8.4-2.7.7-.1 0-.1 0-.2.1l-3 .9-.9.3-2.7.9c-.2.1-.5.2-.7.2-.8.3-1.5.6-2.3.9-.4.1-.7.3-1.1.4-.7.3-1.5.6-2.2 1-.4.2-.8.4-1.3.6-.6.3-1.2.5-1.7.8l-1.2.6c-.6.3-1.1.6-1.7.9-.6.3-1.2.7-1.8 1-.4.2-.9.5-1.3.7-.5.3-.9.5-1.4.8-.4.3-.8.5-1.2.8-.7.5-1.5.9-2.2 1.4-.3.2-.7.4-1 .7-.5.3-.9.7-1.4 1-.3.2-.5.4-.8.6-.8.6-1.6 1.3-2.4 1.9-.1.1-.3.2-.4.4 13.5-8.6 29.4-13.6 46.6-13.7-3.6-1.3-7.2-2.6-11-3.9zM837.9 232.6l2.7-.9-2.7.9z"></path><path fill="#e4eaea" d="M814.7 245.1c.3-.2.5-.4.8-.6-.2.2-.5.4-.8.6zM834.9 233.7c.8-.3 1.5-.6 2.3-.9-.7.3-1.5.6-2.3.9zM811.8 247.4c.2-.1.3-.3.5-.4-.2.1-.3.3-.5.4zM841.5 231.4l3-.9-3 .9zM822.7 239.8c.4-.3.9-.5 1.3-.7-.5.2-.9.4-1.3.7zM825.7 238.1c.6-.3 1.1-.6 1.7-.9-.5.2-1.1.5-1.7.9zM828.7 236.5c.6-.3 1.2-.6 1.7-.8-.6.3-1.1.5-1.7.8zM820.1 241.4c.4-.3.8-.5 1.2-.8-.4.3-.8.5-1.2.8zM831.7 235.1c.7-.3 1.5-.6 2.2-1-.8.4-1.5.7-2.2 1zM816.9 243.5c.3-.2.6-.5 1-.7-.3.2-.6.5-1 .7zM914.8 253.6c19.5 16.1 32 40.5 32 67.8 0 21.2-7.5 40.7-20.1 55.9 1.2-.2 2.4-.4 3.5-.6 11.7-12 20.1-27.2 23.4-44.3.2-.9.3-1.7.5-2.6 0-.1 0-.2.1-.4.1-.8.3-1.7.4-2.5v-.2l.3-2.7v-.4c.1-.7.1-1.5.2-2.2 0-.3 0-.5.1-.8 0-.6.1-1.3.1-1.9v-3.5c0-20.1-6.8-38.6-18.1-53.4-7.3-2.6-14.8-5.3-22.4-8.2zM914.5 389.5c5.7-3.6 11-7.9 15.7-12.7-1.2.2-2.3.4-3.5.6-3.7 4.4-7.7 8.5-12.2 12.1z"></path><path fill="#fff" d="M918.3 366.2c.8-.8 2.2-.8 3 0 12.1-12.8 19.6-29.8 20.2-48.7-1.2 0-2.1-1-2.1-2.2 0-1.2.9-2.1 2.1-2.2-.5-18.8-8.1-35.9-20.2-48.7-.8.8-2.2.8-3 0-.8-.8-.8-2.2 0-3-12.8-12.1-29.8-19.6-48.7-20.2 0 1.2-1 2.1-2.2 2.1s-2.1-.9-2.2-2.1c-18.8.5-35.9 8.1-48.7 20.2.8.8.8 2.2 0 3-.8.8-2.2.8-3 0-12.1 12.8-19.6 29.8-20.2 48.7 1.2 0 2.1 1 2.1 2.2 0 1.2-.9 2.1-2.1 2.2.1 5 .8 9.9 1.9 14.6 36 38.3 76.1 48.1 109.3 47.3 4.9-2.9 9.5-6.3 13.6-10.2-.6-.8-.6-2.1.2-3zm-50.9-44.5c-3.5 0-6.3-2.8-6.3-6.3 0-1.1.3-2.1.7-2.9l-38.4-20c-.7 1-1.8 1.6-3 1.6-2 0-3.7-1.7-3.7-3.7s1.7-3.7 3.7-3.7 3.7 1.7 3.7 3.7c0 .8-.3 1.5-.7 2.1l38.4 20c1.1-2 3.2-3.4 5.6-3.4v-52.2c-2 0-3.7-1.7-3.7-3.7s1.7-3.7 3.7-3.7 3.7 1.7 3.7 3.7-1.7 3.7-3.7 3.7V309c3.5 0 6.3 2.8 6.3 6.3.1 3.6-2.8 6.4-6.3 6.4z"></path><path fill="#fff" d="M795.3 332.1c3 13 9.4 24.7 18.3 34.1.8-.8 2.2-.8 3 0 .8.8.8 2.2 0 3 12.8 12.1 29.8 19.6 48.7 20.2 0-1.2 1-2.1 2.2-2.1s2.1.9 2.2 2.1c12.7-.4 24.7-3.9 35-10-33.3.9-73.4-8.9-109.4-47.3z"></path><path fill="#262626" d="M867.4 309c-2.4 0-4.6 1.4-5.6 3.4l5.6 2.9V309z"></path><path fill="#262626" d="M867.4 309v6.3l-5.6-2.9c-.5.9-.7 1.9-.7 2.9 0 3.5 2.8 6.3 6.3 6.3s6.3-2.8 6.3-6.3c.1-3.4-2.8-6.3-6.3-6.3zM871.1 253.1c0-2-1.7-3.7-3.7-3.7s-3.7 1.7-3.7 3.7 1.7 3.7 3.7 3.7v-3.7 3.7c2.1 0 3.7-1.7 3.7-3.7zM869.6 241.3c0-1.3-1-2.2-2.2-2.2s-2.2 1-2.2 2.2v.1c.7 0 1.4-.1 2.2-.1h2.2z"></path><path fill="#262626" d="M867.4 243.5c1.2 0 2.1-.9 2.2-2.1-.7 0-1.4-.1-2.2-.1-.7 0-1.4 0-2.2.1.1 1.1 1.1 2.1 2.2 2.1zM816.6 261.5c-.8-.8-2.2-.8-3.1 0-.8.8-.8 2.2 0 3.1 1-1.1 2.1-2.1 3.1-3.1z"></path><path fill="#262626" d="M816.6 264.5c.8-.8.8-2.2 0-3-1 1-2.1 2-3.1 3.1.9.8 2.2.8 3.1-.1zM793.4 313.2c-1.3 0-2.2 1-2.2 2.2 0 1.2 1 2.2 2.2 2.2h.1c0-.7-.1-1.4-.1-2.2-.1-.7 0-1.5 0-2.2z"></path><path fill="#262626" d="M795.5 315.4c0-1.2-.9-2.1-2.1-2.2 0 .7-.1 1.4-.1 2.2 0 .7 0 1.4.1 2.2 1.2-.1 2.1-1 2.1-2.2zM813.5 366.2c-.8.8-.8 2.2 0 3.1.8.8 2.2.8 3.1 0-1-1-2.1-2-3.1-3.1zM816.6 366.2c-.8-.8-2.2-.8-3 0 1 1 2 2.1 3.1 3.1.7-.9.7-2.2-.1-3.1zM865.3 389.4s0 .1 0 0c0 1.3 1 2.2 2.2 2.2s2.2-1 2.2-2.2v-.1c-.7 0-1.4.1-2.2.1-.8.1-1.5 0-2.2 0z"></path><path fill="#262626" d="M867.4 387.3c-1.2 0-2.1.9-2.2 2.1.7 0 1.4.1 2.2.1.7 0 1.4 0 2.2-.1 0-1.1-1-2.1-2.2-2.1zM918.3 369.3c.8.8 2.2.8 3.1 0 .8-.8.8-2.2 0-3.1l-3.1 3.1zM918.3 366.2c-.8.8-.8 2.2 0 3 1-1 2.1-2 3.1-3.1-.9-.7-2.3-.7-3.1.1zM941.5 317.5s0 .1 0 0c1.3 0 2.2-1 2.2-2.2 0-1.2-1-2.2-2.2-2.2h-.1c0 .7.1 1.4.1 2.2v2.2z"></path><path fill="#262626" d="M939.4 315.4c0 1.2.9 2.1 2.1 2.2 0-.7.1-1.4.1-2.2 0-.7 0-1.4-.1-2.2-1.2.1-2.1 1-2.1 2.2zM921.4 264.5c.8-.8.8-2.2 0-3.1-.8-.8-2.2-.8-3.1 0 1 1.1 2 2.1 3.1 3.1-.1 0-.1 0 0 0z"></path><path fill="#262626" d="M918.3 264.5c.8.8 2.2.8 3 0-1-1-2-2.1-3.1-3.1-.7.9-.7 2.3.1 3.1zM820.4 286.6c-2 0-3.7 1.7-3.7 3.7s1.7 3.7 3.7 3.7c1.3 0 2.4-.6 3-1.6l-3-1.6 3 1.6c.4-.6.7-1.3.7-2.1 0-2-1.7-3.7-3.7-3.7z"></path></g><path fill="#111a35" fill-rule="evenodd" d="m700.4 663.1-69.9 21.6s-27.8 39.1-50.8 97.3-28.6 97.5-25.5 104.7 24.9 38.4 24.9 38.4l68.4 2.3-36.2-47.5 29.1-60 10.8 107.6 88.3 1.6L721 701.4l-20.6-38.3z" clip-rule="evenodd"></path><path fill="#e6e7e8" d="M788.1 664.7s-53.6-1.1-63.2 0c-6 .7-12 3.6-15.7 5.6L739.5 929H808l-9.7-130.7 3.1-130.3-13.3-3.3z"></path><path fill="#bcbec0" d="m788.1 664.7 13.4 3.3.3-11-13.6-1.9-63.5 1.4-12.5 2.5-3.7 4.7.8 6.7c3.7-2.1 9.7-5 15.7-5.6 9.5-1.1 63.1-.1 63.1-.1z"></path><path fill="#111a35" fill-rule="evenodd" d="M988.7 853.4c-5.2-10.3-100.5-179.5-100.5-179.5L815 660.4l-4.4 9.2-12.3 128.7L808 929l73.7 1.9-.2.3 28.5.5 37.1.6s46.8-68.6 41.6-78.9zm-81 34.8-3.1-59.9 24.9 24.2-21.8 35.7z" clip-rule="evenodd"></path><path fill="#0a101e" fill-rule="evenodd" d="m700.4 663.1 12.4 32.9-3.6 50 15.8 59.3-31.7-51.9 12.8-38-28.1-12.3 1.8-18.3-37.8 13.4v44.4s-2.6-53.1-11.5-58l69.9-21.5zM888.2 673.9l-3.8 29.6-51.4-17 3.6 13-25.6 11 3.5-51.5zM929.5 852.4s22.3-1.5 33.5 2.2c0 0-8.3-11.2-16.8-14S930.4 825 929.5 822c-.9-3.1-33.9-57.5-33.9-57.5l9 63.8 24.9 24.1zM929.5 852.4s-.8 50.3 3.6 62.6c4.3 12.3 14 17.3 14 17.3l-75.8-1.6 36.4-42.5 21.8-35.8zM640.5 819.8l1.6-57.5s-16 8.2-19.4 25.9-36.8 81.4-36.8 81.4l-23.5 8.9s34 .7 39.8 5.1 11.9 42.6 11.9 42.6l33.5 1.1-36.2-47.5 29.1-60z" clip-rule="evenodd"></path><path fill="#2c3b5e" fill-rule="evenodd" d="M616.6 708.8s-36.4 72.2-43.2 96.9c-6.8 24.7-16.3 46.1-11.2 40.7 5.1-5.4 37.8-66.4 37.8-74.9-.1-8.5 16.6-62.7 16.6-62.7zM952.2 917.8s31.9-55.6 31.7-59.6c-.3-4-8.4-.4-13.8 10.8-5.4 11.2-22.3 45.7-23 48.8s5.1 0 5.1 0zM967.8 821s-70.6-118.2-72.2-123.1c-1.6-4.9-5.4-15.8-5.4-15.8s-1.3 9.2 0 15.8 11.2 29.6 14.4 32.9 63.2 90.2 63.2 90.2z" clip-rule="evenodd"></path><path fill="#a7a9ac" d="m725 805.2-12.1-136.8s-12.7 10-14.6 15.2c-1.9 5.2-14.9 15.8-14.9 15.8l21.7 14.6-8.7 29.5 28.6 61.7z"></path><path fill="#808285" d="M698.3 683.7c1.9-5.2 14.6-15.2 14.6-15.2l-.8-9.5 4.2-.8s-1-.7-2.6-1.5-12.6 5.1-12.6 5.1l-17.7 37.8c0-.1 13-10.7 14.9-15.9z"></path><path fill="#a7a9ac" d="M827.4 693.9s-9.4-18.4-14.6-21.8c-4.9-3.2-10.6-4-11.3-4.1l-2.4 133.1 21.4-65.4-9.4-25.3 16.3-16.5z"></path><path fill="#808285" d="M827.4 693.9 814.5 659s-8.7-2.4-10.7-3.4-4.6 1-4.6 1l2.6.4-.2 11c.7.1 6.4.9 11.3 4.1 5.1 3.4 14.5 21.8 14.5 21.8z"></path><path fill="#c2865f" fill-rule="evenodd" d="M788.1 616.6s.1 42.6 0 48.1-17.6 15.2-36.1 14.2-27.1-14.2-27.1-14.2l-6.8-40 70-8.1z" clip-rule="evenodd"></path><path fill="#804320" d="M788.1 635.5s-23 20.6-39.6 22.8c-16.6 2.2-25.9-6.9-25.9-6.9l-4.5-26.7 70-8.2v19z"></path><path fill="#edc19f" d="M816.5 557.7c-1-9.9-11.4-6.1-15-4.4.5-14.9.4-27.5-.4-30.8-2.2-8.3-38-22-69.7-15.8-5.5 1.1-10.8 2.4-15.8 4.3 0 0 2.8 25.5 0 33.6-2.8 8.2-13 19.4-13 25 0 5.6 9.7 59.7 16.8 62.9 9.8 4.7 26.6 10.6 36.8 10.2 0 0 37.2-16.5 40.5-29 1.2-4.4 2.3-15.9 3.2-29.3 9.8-3 17.9-15 16.6-26.7z"></path><path fill="#c2865f" d="M702.6 569.8c0-5.6 10.2-16.9 13-25 2.8-8.2 0-33.6 0-33.6-21.6 8.1-36.8 25.1-28.4 62.5s-13.3-7.9-13.3 5.7 10.8 19.2 22.2 18.6c5.8 11.2 14.4 27.7 15.6 30 .6 1 3.5 2.8 7.6 4.8-6.9-3.3-16.7-57.4-16.7-63z"></path><path fill="#c2865f" d="M715.2 527.5s5.7 9.4 12.3 9.4c6.5 0 57.8 4.9 60.7 6.4 2.9 1.5 11 29.4 11 29.4s5-10.6 5-11 7.3-.1 6.3 7c0 0 2.8-11.1-3.7-12.6s-5.2-2.7-5.2-2.7-9.6-28.2-15.6-28.7c-6.1-.5-70.8 2.8-70.8 2.8zM740.5 569.3l.5 34.2 14.6 1.7s-14.1 3.7-15.1 3.9c-.9.2-6.8-4.1-6.8-4.1l6.8-35.7z"></path><path fill="#804320" d="M687.4 579.8s-8.7-4-9.2 1.4 4.6 8.9 4.6 8.9-5-8.8 4.6-10.3z"></path><path fill="#6d1818" d="M753.6 622.3s-.8-3-2.4-3.6c0 0 12.7-3.3 15.5-.2 1.6-4.4 1.4-8.4 1.4-8.4-2.2 2.3-34.5 6.5-34.5 6.5s.5 2 1.8 4.5c3.7-1.1 16.1-4.4 18.2 1.2z"></path><path fill="#da4646" d="M753.1 629.6c8.2-1.3 12-6.5 13.7-11.1-2.8-3-15.5.2-15.5.2 1.6.6 2.4 3.6 2.4 3.6-2.1-5.6-14.5-2.3-18.1-1.2 2.2 4.4 7.3 10.1 17.5 8.5z"></path><path fill="#3a3939" d="M724 566.5c-.2-1.1-1.5-1.8-2.9-1.6-1.4.3-2.3 1.4-2.1 2.5.2 1.1 1.4 1.4 2.8 1.1s2.4-.9 2.2-2zM771 563.3c0-1.1-1.1-2.1-2.5-2.1s-2.6.8-2.6 2c0 1.1 1.1 1.7 2.5 1.7 1.4-.1 2.5-.5 2.6-1.6zM726.6 555.3s.4 3.7-3.4 3.9c-3.8.2-8.9 1.7-10.7 2.9-1.8 1.3-4.3 2.7-4.3 2.7s.8-3.4 1.2-4.8c.5-1.2 16.3-5.9 17.2-4.7zM759.2 552.5c.4.9 3.7 2.8 6.4 2.6 2.7-.1 17.3 2.5 17.3 2.5s0-1.4-1.2-3.1c-1.2-1.7-6.1-2.6-8.3-2.6s-14.2.6-14.2.6z"></path><path fill="#f8d9c4" d="M741.6 576.8v25.4s12.4 2.8 11.5 1.6c-.9-1.2-5.6-1.6-7-3.3-1.4-1.7-4.5-23.7-4.5-23.7zM796.2 599.3s-.1 14.1-2.4 17.3c-2.3 3.2-19.1 15.1-21.3 16.1-2.2 1 10.9-5.4 14.8-11.9s7.5-26 8.9-21.5z"></path><path fill="#3a3939" d="M792.2 524.6c-.9-5.3-14.3-12.4-31-16.6-16.7-4.3-47.7 4.3-47.7 4.3s-3.1-9.4-15.5-7.6-30.1 27.2-32 32.7c-1.9 5.4 11.9 34.4 11.9 34.4 7.2 9 13.4 16.2 13.4 16.2l2-16.7c6.8-4.5 6-20.7 6-20.7s3.4-1.3 8.2-4.8c4.9-3.4 7.6-20 7.6-20 .5 2.7 3.3 6.3 6.8 8.7 3.4 2.4 18.8 2.2 29 2.2s34.1.2 34.1.2c2.6 8 13.8 15.2 13.8 15.2l.8 21.3s5.2-13.7 7.5-18.4c2.2-4.8 5.9-2.9 5.9-2.9.7-22.2-20-22.2-20.8-27.5z"></path><path fill="#0f0f10" d="M805.4 482.8c-8.7-7.1-65.9-21.4-65.9-21.4l-20.9-5.2c-11.1 2-17.5 22-17.5 22s-8.6 5.2-18.3 7.3c-9.3 1.9-25.1 49-26.6 53.5 1.2 6.1 12.3 21 21.8 32.8s-13.8-28.9-11.9-34.4c1.9-5.4 19.6-31 32-32.7s15.5 7.6 15.5 7.6 31-8.5 47.7-4.3c16.7 4.3 30.1 11.3 31 16.6.9 5.3 21.6 5.3 21 27.3 0 0 3.2-8.7 5.2-21.5-.1-.3-4.4-40.5-13.1-47.6zM718.6 456.1s.8-.1 2.2-.2c-.9 0-1.6.1-2.2.2z"></path><path fill="#767575" d="M818.2 491.1c-5.8-29-80.5-36.3-97.4-35.3-1.4.1-2.2.2-2.2.2l20.9 5.2s57.2 14.3 65.9 21.4c8.6 7.1 12.9 47.3 13 47.6 1.8-10.9 2.6-24.9-.2-39.1zM682.8 485.3c9.8-2 18.3-7.3 18.3-7.3s-8.3-6.1-18.8-3.7-26.3 54.4-26.3 63.5c0 .3 0 .6.1 1 1.6-4.5 17.4-51.5 26.7-53.5zM717.4 524.6s-3.6 6.6 8.4 8.4 54.3 1.5 54.3 1.5-26.2-6.6-34.9-8.3c-8.7-1.7-27.8-1.6-27.8-1.6zM712.8 527.9s-2.8 13.5-7.3 16.3-8.8 3.5-8.8 3.5.1-4.9 2.4-7.2c2.3-2.5 13.7-12.6 13.7-12.6z"></path><path fill="#dd1032" d="m539.9 708.3-3.4-2.3s-11.9 9-22.8 11.4-32.7-2-34 12.3c-1.4 14.3 11.1 87.1 12.3 91.2 1.3 4.1 47.2 6.5 47.2 6.5s-39.7 17-47.2 23.5c-7.6 6.5-16.5 37.8-17.1 45.3-.6 7.5 35.1 36.1 35.1 36.1l39.7-118.5c3.9-22.8-9.8-105.5-9.8-105.5z"></path><path fill="#b71336" d="M474.8 896.2c.6-7.5 9.6-38.8 17.1-45.3 7.6-6.5 47.2-23.5 47.2-23.5s-46-2.4-47.2-6.5c-1.3-4.1-13.7-76.9-12.3-91.2 1.4-14.3 23.1-9.9 34-12.3s22.8-11.4 22.8-11.4l-9.9-6.6-50.3-16.7v7.5L452.9 704v30.2l26.7 89.6s-16.4 47.2-15.8 66.9 11 41.6 11 41.6h35.1s-35.7-28.6-35.1-36.1z"></path><path fill="#a00d33" d="m479.6 823.8-26.7-89.6V704l23.4-13.7v-7.5l-1.3-.4-30.4.5s8.8 55.7 12.5 76.1c2.9 15.9-22.7 112.3-34.1 154.1 3.6 10.8 6.8 19.3 6.8 19.3h45s-10.5-21.9-11-41.6 15.8-67 15.8-67z"></path><path fill="#152344" d="M583.7 808.5c-1.1-6.6-16.6-81.1-16.6-81.1l-18.8-12.2 1.3 98.5h29.6s-16.3 17.4-22.2 25.4c-5.9 7.9-30.1 79.9-15.6 93.2-1-16.6 17.2-71.5 17.2-71.5s26.2-45.7 25.1-52.3z"></path><path fill="#0e1b33" d="M557 839.1c5.9-7.9 22.2-25.4 22.2-25.4h-29.6l-39.7 118.5h31.5c-14.5-13.2 9.7-85.1 15.6-93.1z"></path><path fill="#2c3b5e" d="M565.1 732.4s12.6 71.6 12.4 75.1c-.2 3.5-6.5 1-7.2-.2-.7-1.2-5.3-75.8-5.3-75.8"></path><path fill="#0e1b33" d="M434.7 849.1c-7.1-.8-15.1-55.9-15.1-55.9l5.1-51.8s-9.1 80.4-9.1 91.3 4.1 37 6.3 40.4c2.2 3.4 7.9 59.3 7.9 59.3s8.7-15 19.7-30.9 30.1-79.1 30.1-79.1-37.7 27.5-44.9 26.7zM423 708.8c9.4-.1 25.8-4.1 29.8-5.1-2.3-11.9-4-20.9-4-20.9s-42 2.6-47.1 2.6-16 7.8-23.8 17.4c-7.3 8.9-20.7 96.4-22.6 119.5.1-1 6.3-46.9 17.5-85.4 11.2-39 39.4-28 50.2-28.1z"></path><path fill="#152344" d="M465 763.2c-1.4-5-7.8-37.4-12.1-59.5-4.1 1-20.4 5.1-29.8 5.1-10.8.1-39-10.9-50.3 28-11.2 38.5-17.3 84.5-17.5 85.4-.1 1.8-.2 3.2-.2 4.1 0 13.3 10.2 104.5 10.2 104.5l64.6 1.4-15.3-.3-7.4-75.2s5.6-26.6 5.9-40.6c.3-14 11.7-74.8 11.7-74.8l-5.1 51.8s7.9 55.1 15.1 55.9c7.1.8 44.9-26.8 44.9-26.8s-12.6-51.4-14.7-59z"></path><path fill="#081221" d="M415.6 832.7c0-10.9 9.1-91.3 9.1-91.3s-11.5 60.8-11.7 74.8c-.3 14-5.9 40.6-5.9 40.6l7.4 75.2 15.3.3s-5.7-55.9-7.9-59.3c-2.2-3.3-6.3-29.4-6.3-40.3z"></path><path fill="#2c3b5e" d="M410.9 765.8s-9.2 78.3-9.9 90.2c-.7 11.9 9.9 76.3 9.9 76.3l-16-.8s-2-42.5-4.1-56.5c-2-13.9 20.1-109.2 20.1-109.2z"></path><path fill="#081221" d="m479.6 822.3-42.9-72.8 10-9.6-8.8-6.1s8-12.3 8-12.6c0-.4 33.7 101.1 33.7 101.1z"></path><path fill="#a7a9ac" d="M536.5 706.1s-.5 34 4.1 54.4 9.2 46.3 9 53.3c0 0 3.6-19.1 5.1-30.8 1.5-11.7 3.9-36.3 3.9-36.3l-6.3-6 4.9-5.1-9.7-22.1s-11.1-9.2-11.5-9.2c-.4 0-1.5.4-1.5.4l2 1.4zM452.9 704c-.9 4.1-16.2 25.6-16.2 25.6l12.3 2.8s-.7 10.4-1.2 12.3c-.5 1.9 31.8 77.6 31.8 77.6s-16.3-108.2-18.8-123.7c-2.8.8-7.3 2.6-7.9 5.4z"></path><path fill="#818589" d="M447.8 744.7c.5-1.9 1.2-12.3 1.2-12.3-.8 3.3-8.4 11.5-8.4 11.5l39.1 78.4c-.1 0-32.4-75.7-31.9-77.6zM462.2 682.6h2.8s-.4-.9-1.4-1.7c-1.1-.8-14.7 1.9-14.7 1.9s-1.2 3-2 6.5-10.1 40.3-10.1 40.3 15.3-21.5 16.2-25.6c.6-2.8 5-4.5 7.9-5.4-.1-.5-.2-1-.2-1.3-1.6-9.2 1.5-14.7 1.5-14.7z"></path><path fill="#e5e5e5" d="m460.1 713.6 13.1 82.5s-6.3-11.4-8.2-21.5c-2-10-4.9-61-4.9-61zM550.1 801.7s6.9-53.2 6.9-53.6c0-.4-3.4-4.2-3.4-4.2l-3.5 57.8zM555.2 735l-8.3-19.2 5.4 22z"></path><path fill="#3a3939" d="M559.3 667.6c-2.8-6.6-.7-22.7 2.7-37.9-5.1 8.7-10.7 21.4-11.4 41 4.8-1.4 8.7-3.1 8.7-3.1z"></path><path fill="#0f0f10" d="M463.8 583.1c-28.9 4.5-13.4 38-15.3 46.8-1.9 8.8-9.4 22.8-9.4 22.8 5.4-.5 13.3-17.1 13.3-17.1-1.3 7.8-10.2 19.2-10.2 19.2s17.9 5.7 30.7 10.4 66.8 7.4 66.8 7.4l2.3-8.8-.5 8.8c2.8-.2 6.1-1 9.1-1.9.7-19.6 6.3-32.3 11.4-41 1.7-7.6 3.7-15 5.6-20.8 1.3-4 3.5-8.4 6-13 .7-6.2 1.2-11.2 1.2-11.2l-111-1.6zM561.5 513.9c1.9 3.1 10.5 3.6 15.6 4.1 5.1.5 14.3 14 14.3 14.1-3-7.9-6.2-15.1-7.9-17.8-7.7-12-29.7-8-29.7-8s5.8 4.5 7.7 7.6z"></path><path fill="#3a3939" d="M591.4 532.1c0-.1-9.2-13.6-14.3-14.1-5.1-.5-13.7-1-15.6-4.1-1.9-3.1-7.7-7.6-7.7-7.6-5.3-10.6-10.3-17.3-15.8-21.3-6.6-4.8-13.7-5.8-22.4-5.1-23.4 7-49.2 27.3-51.7 29.2-3.2 2.4 2 6 8 2.4 5.1-3.1 27.3-14.7 33.6-18 .7-.4 1.3-.8 1.7-.9 0 0-.6.3-1.7.9-6.8 4.2-25.7 20.1-28.3 22.4-2.9 2.6-16.8 11.9-25.5 13.1-8.7 1.2-9 5.4-10 14.1s-5.1 33.7-5.1 33.7c0 6.2.1 11.6.2 15.4.5 16.7-21.8 42.9-21.8 42.9l24.2 17.5s7.5-14 9.4-22.8c1.9-8.8-13.5-42.4 15.3-46.8l111 1.8s-.4 5-1.2 11.2c8.6-15.3 21.8-32.2 23.7-37.6 1.3-4.1-2.1-15.8-6-26.3z"></path><path fill="#0f0f10" d="M505.4 493.5c1.1-.6 1.7-.9 1.7-.9-.4.1-1 .5-1.7.9z"></path><path fill="#0f0f10" d="M451.6 529c8.7-1.2 22.6-10.6 25.5-13.1 2.6-2.3 21.5-18.3 28.3-22.4-6.4 3.3-28.5 14.9-33.6 18-5.9 3.6-11.2 0-8-2.4 2.6-1.9 28.4-22.2 51.7-29.2-1.7.1-3.5.3-5.4.6-19.1 2.6-61.1 30.9-67.6 39.6-4.4 5.9-5.7 29-6 48.5 0 2.8-.1 5.6-.1 8.2 0 0 4-25 5.1-33.7 1-8.6 1.4-12.9 10.1-14.1zM463.8 583.1s-3.6-27.9 0-36.9c0 0-9.5 17.9-10 25.1s-3.5 16.6-3.5 16.6 3.5-8.9 13.5-4.8z"></path><path fill="#767575" d="M578.9 584.3s15-22.9 15-28-6.5-21.8-6.5-21.8 2.6 12.4.7 19.1c-1.9 6.6-10.8 22.8-9.2 30.7zM418.4 634s19-26.1 19.4-34.9c.4-8.8 1.8-19.7 1.8-19.7s-.9 35.1-9.8 48.4c-9 13.3-11.4 6.2-11.4 6.2z"></path><path fill="#edc19f" d="M492.3 708.3c2.5 1.5 5.2 2.8 8.3 3.8 20.2 6.8 26-12.7 26-12.7-1.3-10 .8-25.2 2.1-32.5 0 0-11.2 9-20.7 11.1-9.5 2.1-17.7 25.1-15.7 30.3z"></path><path fill="#c2865f" d="M502.2 673.7c-13.1-2.6-25.8 16.6-25.8 16.6 2.3 5.7 7.4 12.9 15.9 18.1-1.9-5.2 6.3-28.2 15.7-30.3 9.4-2.1 20.7-11.1 20.7-11.1s-13.4 9.3-26.5 6.7z"></path><path fill="#804320" d="M528.4 659.6c-6.8-9.9-45-26.3-45-13.2 0 14.6-8.4 36-8.4 36-.5 1.5-.1 4.4 1.3 7.9 0 0 12.6-19.1 25.8-16.6 13.1 2.6 26.5-6.8 26.5-6.8.4-2.6.8-4.2.8-4.2.2-.9-.2-2-1-3.1z"></path><path fill="#edc19f" d="M575.9 569.8s-34.4-8.2-42.9-11.6c-8.5-3.4-14.1-7.3-14.1-7.3s-23 32.3-29.8 34.6c-6.8 2.2-14.8 28.2-10.9 38 3.9 9.8-3.6 24.5 16.6 40.9 8.7 5.6 16.9 9.2 18.9 9.2 4.1 0 18.9-6.9 31.4-17.2 12.5-10.3 29.1-70.9 29.1-70.9 1.6-5.7 2.1-10.9 1.7-15.7z"></path><path fill="#c2865f" d="M458.3 589.7c-3.2 1.2-3.6 7.7-3.6 7.7s-2.7-8.9 1.4-10.6c4.1-1.7 7.7-1.8 10.5-.1l-2.7-3.6s-11.2-5.9-14.8 8.7c-3.6 14.6 12.8 18.3 12.8 18.3l2.6-17.2c-.1-.1-3-4.4-6.2-3.2zM478.1 623.5c-3.9-9.8 4.1-35.8 10.9-38 6.8-2.2 29.8-34.6 29.8-34.6s5.6 3.9 14.1 7.3 42.9 11.5 42.9 11.6c-2.4-24.1-30.3-34-54-36.1 0 0-18 38-26.9 43.4-8.9 5.4-19.7 12.3-20.9 15.8-1.2 3.6-8.5 32.5-8.5 32.6 1.6 5.3 3.8 11.4 6.7 17.3 3.9 8 13.5 15.8 22.5 21.6-20.1-16.3-12.7-31-16.6-40.9z"></path><path fill="#804320" d="M495 577.2c8.9-5.4 26.9-43.4 26.9-43.4-9-.8-17.4-.4-23.6.7-25.5 4.8-34.5 48.6-34.5 48.6l2.7 3.6c-2.7-1.7-6.4-1.6-10.5.1-4.1 1.7-1.4 10.6-1.4 10.6s.3-6.6 3.6-7.7c3.2-1.2 6.1 3.1 6.1 3.1l-2.6 17.2s1.1 6.7 3.8 15.5c0 0 7.3-29 8.5-32.6 1.2-3.5 12.1-10.3 21-15.7z"></path><path fill="#c2865f" d="m538 587.9-3 35.9h-15.5l7.1 3.9h12.3z"></path><path fill="#6d1818" d="M519.5 648.5s-.1-3.8-1.6-4.5c0 0 11.3-.4 15 3.5 3-4.3 4.8-8.4 4.8-8.4-7.7 1.5-35.1-3.4-35.6-3.3 0 0 .5 3.2 2 7.2 3.6-.5 13.6-1.3 15.4 5.5z"></path><path fill="#da4646" d="M517.2 656.8c6.5 1.3 12-4.1 15.7-9.3-3.8-3.9-15-3.5-15-3.5 1.5.7 1.6 4.5 1.6 4.5-1.7-6.8-11.8-6-15.3-5.6 2.1 5.6 6 12.5 13 13.9z"></path><path fill="#3a3939" d="M559.6 587.4c.2-1.1-.7-2.2-2.1-2.5-1.4-.3-2.7.4-2.9 1.5-.2 1.1.8 1.8 2.2 2.1 1.4.3 2.6 0 2.8-1.1zM512.2 580.7c-.1-1.1-1.2-2-2.6-2-1.4.1-2.5 1-2.4 2.2.1 1.1 1.2 1.6 2.6 1.5 1.3-.1 2.4-.6 2.4-1.7zM518.6 570.7s-10.3-1.4-13.5.3c-3.2 1.6-8.3 3.9-8.3 3.9s.6-3.1 3.1-4.7 14.8-3 17.7-2.3c3 .7 1 2.8 1 2.8zM551.3 571.2c-.4 0-1.3 2.3 0 3s15.1 3.1 16 6.9c0 0-.8-4.3-3-5.6-2.2-1.4-7.7-4.3-13-4.3z"></path><path fill="#f8d9c4" d="M526.6 679.1s-2.5 15.2-2 18.5-2.1 5.9-3.9 7.7c-1.7 1.8-6.2.5-3.8-1.7 2.4-2.2 4.4-10.6 4.9-15.2.6-4.6 5-18.8 4.8-9.3zM535.3 607s-.8 15.3-1.1 15.6c-.3.3-16.6.9-13.1 0 3.5-.9 8.3-1.4 9.5-3.4s4.7-12.2 4.7-12.2zM566.1 606.4s-12.6 41.2-19 46.9c-6.4 5.6-11.7 6.8-11.7 6.8s11.2-9.4 13-14.2c1.7-4.8 17.7-39.5 17.7-39.5z"></path><g><path fill="#3a3939" d="M582.6 553c-7.3-15.7-58.7-33-65-34.9-4.6-1.4-8 5.5-5.8 14.8-11.3-8.5-38 8.9-45.3 14.5-9 7-2.7 35.7-2.7 35.7l-2.9 34 13.9-32.2c33.8-10.9 42-40.9 42-40.9s12 6.6 23.4 10.3c11.4 3.7 26.6 14.4 26.6 14.4s8.9 11.6 7.4 17c-.1-.1 15.7-17 8.4-32.7z"></path><path fill="#0f0f10" d="M516.8 543.9s8.4 10.2 20.9 14.9c12.5 4.6 29 9.8 29 9.8s-15.2-10.7-26.6-14.4c-11.3-3.7-23.3-10.3-23.3-10.3zM460.9 617l13.9-32.2s-7.1 3.7-8.3 8.8c-1.2 5.2-5.6 23.4-5.6 23.4z"></path><path fill="#767575" d="M514.9 543.9s-17 24.2-22.5 28.5-5.4 4.3-5.4 4.3-11.5 4.8-12.1 5.2c-.6.4 7.4-12.5 13-15.8 5.5-3.2 27-22.2 27-22.2z"></path></g><g><path fill="#0e1632" fill-rule="evenodd" d="m213.8 622.8 87.2.4c1.1 0 2.1.9 2.1 2.1v9.1c0 1.1-.9 2.1-2.1 2.1l-87.2-.4c-1.1 0-2.1-.9-2.1-2.1v-9.1c.1-1.1 1-2.1 2.1-2.1zm85.2 4.6-83.1-.4v5l83.1.4v-5z" clip-rule="evenodd"></path><path fill="#0e1632" fill-rule="evenodd" d="m99.2 753.2 115.3-131.4c.8-.9 2.1-1 2.9-.2l6.9 6c.9.8 1 2.1.2 2.9L109.2 761.9c-.8.9-2.1 1-2.9.2l-6.9-6c-.9-.7-.9-2.1-.2-2.9zm117-127.1L103.7 754.4l3.7 3.3L220 629.4l-3.8-3.3z" clip-rule="evenodd"></path><path fill="#383d5d" fill-rule="evenodd" d="M215 618.1c6.4-.8 12.2 3.7 13 10.1.8 6.4-3.7 12.2-10.1 13-6.4.8-12.2-3.7-13-10.1-.8-6.4 3.7-12.2 10.1-13z" clip-rule="evenodd"></path><path fill="#0e1632" fill-rule="evenodd" d="m99.1 753.8 81 154.8c.5 1 1.8 1.4 2.8.9l8.1-4.2c1-.5 1.4-1.8.9-2.8l-81-154.8c-.5-1-1.8-1.4-2.8-.9L100 751c-1 .5-1.4 1.8-.9 2.8zm83.8 151-79.1-151.1 4.4-2.3 79.1 151.1-4.4 2.3z" clip-rule="evenodd"></path><path fill="#383d5d" fill-rule="evenodd" d="M179.8 912.4c6 2.3 12.7-.7 15-6.7 2.3-6-.7-12.7-6.7-15-6-2.3-12.7.7-15 6.7-2.3 6 .7 12.7 6.7 15zM105.8 742.6c6.4-.8 12.2 3.7 13 10.1.8 6.4-3.7 12.2-10.1 13-6.4.8-12.2-3.7-13-10.1-.8-6.4 3.7-12.2 10.1-13z" clip-rule="evenodd"></path><path fill="#383d5d" fill-rule="evenodd" d="M79.6 931.9h161.9c8.1 0 14.7-6.6 14.7-14.7s-6.6-14.7-14.7-14.7H79.6c-8.1 0-14.7 6.6-14.7 14.7s6.6 14.7 14.7 14.7z" clip-rule="evenodd"></path><path fill="#0e1632" fill-rule="evenodd" d="M137.3 931.9h161.9c8.1 0 14.7-6.6 14.7-14.7s-6.6-14.7-14.7-14.7H137.3c-8.1 0-14.7 6.6-14.7 14.7s6.6 14.7 14.7 14.7z" clip-rule="evenodd"></path><path fill="#fff" fill-rule="evenodd" d="M282.3 652.6H325c12.4 0 22.5-10.1 22.5-22.5h-87.7c0 12.4 10.1 22.5 22.5 22.5z" clip-rule="evenodd"></path><path fill="#dff0f2" fill-rule="evenodd" d="M283.1 648.1h25.6c7.4 0 13.5-6.1 13.5-13.5h-52.7c.1 7.4 6.2 13.5 13.6 13.5z" clip-rule="evenodd"></path><path fill="#383d5d" fill-rule="evenodd" d="M268 619.8h71.4c9.5 0 17.2 7.7 17.2 17.2H250.7c0-9.5 7.8-17.2 17.3-17.2z" clip-rule="evenodd"></path><path fill="#01020e" fill-rule="evenodd" d="M268 619.8h32.6c9.5 0 17.2 7.7 17.2 17.2h-67.1c0-9.5 7.8-17.2 17.3-17.2z" clip-rule="evenodd"></path></g><g><path fill="#0076bd" fill-rule="evenodd" d="M389 908.8h-79.1c-3.3 0-6.2 1.3-8.3 3.5-2.1 2.1-3.5 5.1-3.5 8.3 0 3.3 1.3 6.2 3.5 8.3 2.1 2.1 5.1 3.5 8.3 3.5H389c3.3 0 6.2-1.3 8.3-3.5 2.1-2.1 3.5-5.1 3.5-8.3 0-3.2-1.3-6.2-3.5-8.3-2.1-2.2-5.1-3.5-8.3-3.5z" clip-rule="evenodd"></path><path fill="#fff" fill-rule="evenodd" d="M212.1 910.2h101.1c5.7 0 10.4 4.7 10.4 10.4s-4.7 10.4-10.4 10.4H212.1v-20.8z" clip-rule="evenodd"></path><path fill="#004a82" fill-rule="evenodd" d="M212.1 908.8c-.8 0-1.4.6-1.4 1.4 0 .8.6 1.4 1.4 1.4h101.1c2.5 0 4.8 1 6.4 2.7 1.6 1.6 2.7 3.9 2.7 6.4 0 2.5-1 4.8-2.7 6.4-1.6 1.6-3.9 2.7-6.4 2.7H212.1c-.8 0-1.4.6-1.4 1.4 0 .8.6 1.4 1.4 1.4h101.1c3.3 0 6.2-1.3 8.3-3.5 2.1-2.1 3.5-5.1 3.5-8.3 0-3.2-1.3-6.2-3.5-8.3-2.1-2.1-5.1-3.5-8.3-3.5H212.1zM385.3 920.6c0-3.2-1.3-6.2-3.5-8.3-2.1-2.1-5.1-3.5-8.3-3.5h10.3c3.3 0 6.2 1.3 8.3 3.5 2.1 2.1 3.5 5.1 3.5 8.3 0 3.3-1.3 6.2-3.5 8.3-2.1 2.1-5.1 3.5-8.3 3.5h-10.3c3.2 0 6.2-1.3 8.3-3.5 2.2-2.1 3.5-5 3.5-8.3z" clip-rule="evenodd"></path><path fill="#004a82" fill-rule="evenodd" d="M370.4 920.6c0-3.2-1.3-6.2-3.5-8.3-2.1-2.1-5.1-3.5-8.3-3.5h10.3c3.3 0 6.2 1.3 8.3 3.5 2.1 2.1 3.5 5.1 3.5 8.3 0 3.3-1.3 6.2-3.5 8.3-2.1 2.1-5.1 3.5-8.3 3.5h-10.3c3.3 0 6.2-1.3 8.3-3.5 2.2-2.1 3.5-5 3.5-8.3z" clip-rule="evenodd"></path><path fill="#e74d91" fill-rule="evenodd" d="M232.9 888.1h69.2c2.8 0 5.4 1.2 7.3 3 1.9 1.9 3 4.5 3 7.3s-1.2 5.4-3 7.3c-1.9 1.9-4.5 3-7.3 3h-69.2c-2.8 0-5.4-1.2-7.3-3-1.9-1.9-3-4.5-3-7.3s1.2-5.4 3-7.3c1.9-1.8 4.5-3 7.3-3z" clip-rule="evenodd"></path><path fill="#fff" fill-rule="evenodd" d="M387.8 889.3h-88.5c-5 0-9.1 4.1-9.1 9.1s4.1 9.1 9.1 9.1h88.5v-18.2z" clip-rule="evenodd"></path><path fill="#b92f6d" fill-rule="evenodd" d="M387.8 888.1c.7 0 1.2.5 1.2 1.2s-.5 1.2-1.2 1.2h-88.5c-2.2 0-4.2.9-5.6 2.3-1.4 1.4-2.3 3.4-2.3 5.6s.9 4.2 2.3 5.6c1.4 1.4 3.4 2.3 5.6 2.3h88.5c.7 0 1.2.5 1.2 1.2s-.5 1.2-1.2 1.2h-88.5c-2.8 0-5.4-1.2-7.3-3-1.9-1.9-3-4.5-3-7.3s1.2-5.4 3-7.3c1.9-1.9 4.5-3 7.3-3h88.5zM236.1 898.4c0-2.8 1.2-5.4 3-7.3 1.9-1.9 4.5-3 7.3-3h-9c-2.8 0-5.4 1.2-7.3 3-1.9 1.9-3 4.5-3 7.3s1.2 5.4 3 7.3c1.9 1.9 4.5 3 7.3 3h9c-2.8 0-5.4-1.2-7.3-3-1.8-1.8-3-4.4-3-7.3z" clip-rule="evenodd"></path><path fill="#b92f6d" fill-rule="evenodd" d="M249.1 898.4c0-2.8 1.2-5.4 3-7.3 1.9-1.9 4.5-3 7.3-3h-9c-2.8 0-5.4 1.2-7.3 3-1.9 1.9-3 4.5-3 7.3s1.2 5.4 3 7.3c1.9 1.9 4.5 3 7.3 3h9c-2.8 0-5.4-1.2-7.3-3-1.8-1.8-3-4.4-3-7.3z" clip-rule="evenodd"></path></g><path fill="#c64e27" d="M1282.6 599c1.2 12.5 26.4 16.4 42.9 17.6 36.7-52.8 63.6-109.9 55.1-141.8-12-45-54-20.3-71.9 18.3-5.4 11.6-12.9 33.4-21.8 59.2-2.9 21.1-5 39.9-4.3 46.7zM1207.3 734.2l-1.7-1.7c-.3 1.3.3 1.8 1.7 1.7z"></path><path fill="#aa3d24" d="M1325.5 616.6c-16.5-1.2-41.7-5-42.9-17.6-.7-6.8 1.4-25.6 4.3-46.7-20.5 59.8-48 141.4-72.9 168.6-5.4 5.9-8 9.7-8.5 11.7.5.6 1.1 1.1 1.7 1.7 1.9-.2 5.4-1.7 9.9-4.3 30.7-17.9 73.9-63.8 108.4-113.4z"></path><path fill="#892919" fill-rule="evenodd" d="M1205.6 732.6c-.4 2 1.5 2.1 5.1.6 95.8-81 146.7-262.2 146.9-262.8.3-1-.3-2-1.3-2.3-1-.3-2 .3-2.3 1.3-.2.6-51.8 184.2-148.4 263.2z" clip-rule="evenodd"></path><path fill="#fab15a" d="M1325.5 682.2c14.2-3.2 36.8-13.9 56.5-21.1 21-19.3 28.1-47.2-3.8-50.5-23.8-2.5-60.5 21.1-94.6 52.3-14.8 32.9 25.7 22.9 41.9 19.3z"></path><path fill="#db9040" d="M1201.4 767.7c-4.1 10.7-2.6 13.8 7.3 1.3 25.7-32.2 136.6-82.2 164.2-100.8 3.2-2.2 6.3-4.6 9.1-7.2-19.7 7.2-42.3 17.9-56.5 21.1-16.2 3.7-56.7 13.6-41.9-19.4-37.3 34.1-71.4 77.2-82.2 105z"></path><path fill="#892919" fill-rule="evenodd" d="M1200.7 777c-1.5.6-1.8-.9-1.1-3.8 50.8-83.8 184.4-145.1 184.8-145.3.7-.3 1.6 0 1.9.7.3.7 0 1.6-.7 1.9-.4.1-135.7 62.3-184.9 146.5z" clip-rule="evenodd"></path><path fill="#f28331" d="M1272 545.5c.5-11 4.8-22.3 8.6-30.5-1.3-6.3-3.4-11.7-6.2-16.1-20.9-32.8-48.1-2.5-52.7 32.7-2.8 21.3-1.9 77.2-4.9 126.9 12-6.9 54.2-93.5 55.2-113z"></path><path fill="#d86e27" d="M1208.7 743.3c37.1-40.8 84.2-170.3 71.9-228.4-3.9 8.2-8.1 19.5-8.6 30.5-1 19.5-43.2 106.1-55.1 113-2 32.6-5.6 62.6-12.9 78.5-7.2 15.5-3.5 15.4 4.7 6.4z"></path><path fill="#892919" fill-rule="evenodd" d="M1200.2 748.4c.2 1.7 1.7 1.3 4.2-.8 55.8-88.8 50.6-245.9 50.6-246.4 0-.9-.7-1.5-1.6-1.5-.9 0-1.5.7-1.5 1.6-.1.5 5.2 159.8-51.7 247.1z" clip-rule="evenodd"></path><g><path fill="#152344" d="m1094.5 726.8 12.2 224.1-187.4-6.1 7.5-262 39.2-35z"></path><path fill="#0a101e" d="M963.7 688.7l7.4 257.8-51.8-1.7 7.5-262 39.2-35zM909.1 546.1l28.6-49.6-6.3-118.7s-32.9 146-35.7 151.8c-2.9 5.8-21.8 8.2-21.8 8.2s16.7 10.3 19.8 14.1c3.1 3.9 24.6 85.7 24.6 85.7s4.3 20.3 5.3 38.4c5.8-24.7 7.8-76.9 7.8-76.9l-22.3-53z"></path><path fill="#152344" d="M893.7 551.9c-3.1-3.9-19.8-14.1-19.8-14.1s18.9-2.5 21.8-8.2c2.9-5.8 35.7-151.8 35.7-151.8s-30 37-66.7 126.6c-6.3 15.3-11.7 38.1-11.7 38.1s50.6 135.8 62.6 145.5c3.3 2.6 5.9-2.8 8.1-12-1-18.1-5.3-38.4-5.3-38.4s-21.6-81.9-24.7-85.7z"></path><path fill="#2c3b5e" d="M864.7 555.3s46.8 132.2 49.2 120.7-11.9-47.2-14-55.9-35.2-64.8-35.2-64.8zM859.8 529.6s23.9-62.7 29.6-70.8c5.7-8.2-15.5 47.7-15.5 51.4 0 3.7-14.1 19.4-14.1 19.4z"></path><path fill="none" d="M1168.2 606.3 1119 519s2 129.2 1.9 131.2c-.1 1.1-.1 29.2-.1 56.1 9.7-22.5 35.7-82.9 38.8-87.5 3.8-5.6 8.6-12.5 8.6-12.5z"></path><path fill="#152344" d="M931.4 377.9c0-.1 0-.1 0 0zM1214.5 551.9c-8.2-19.2-60.3-143-66.6-144.9-.3-.1-.7-.3-1.3-.6 0 0-15.8 17.6-17.1 20.3-1.4 2.7-.7-13.6 0-15 .7-1.4-48.5-32.9-48.5-32.9s-12.6-12-16.2-23.3c-22.2-1.6-55.3.4-73.9 1.8-7.5 8.7-17.3 18.5-22.7 18.7-9.3.3-43.8 28.5-43.8 28.5-3.3 12.4-6.8 25.4-7.9 29.5-2.4 8.7 1.4 69.2 1.7 76.1.3 6.8 6.1 39.8 7.1 53.5 1 13.7-.7 22.7-8.2 62.9s0 92.3 0 92.3c-5.3-36.6 24.2-72.7 26.2-86.2s15.8-94.9 15.8-94.9-6.1 47.1-6.6 66.3c-.5 19.3 3.6 72.8 3.6 72.8s3.3 21.8 10.4 45.6 25.2 25.9 49.7 32c12.9 3.2 37.4-1.1 57.5-5.9 0 0 3.9-116.8.9-125.1-3-8.3-15.7-13.5-15.7-13.5s2.4-.2 12.6-6c10.2-5.7 25-79.5 23.5-85.1-1.5-5.6 19.9-54.1 19.9-54.1-3.6 14.3 4.1 54.1 4.1 54.1l49.3 87.3s-4.9 6.9-8.6 12.5c-3.1 4.6-29.2 65-38.8 87.5v12.3c7.5 7.5 26 21.2 45.4.8 25.3-26.6 67.4-116.9 67.4-116.9s-11.1-31.2-19.2-50.4z"></path><path fill="#0a101e" d="M1117.2 714.6s1.3 1.7 3.6 4v-12.3c-2.2 5.2-3.6 8.3-3.6 8.3zM1114.9 464.8s-21.4 48.5-19.9 54.1c1.5 5.6-13.3 79.4-23.5 85.1-10.2 5.7-12.6 6-12.6 6s12.8 5.2 15.7 13.5c3 8.3-.9 125.1-.9 125.1 18-4.3 32.7-9 32.7-9s-12.9-112.8-14-124.4c-1-11.6 26.6-96.3 26.6-96.3s-7.7-39.8-4.1-54.1zM952.5 604.1c.5-19.3 6.6-66.3 6.6-66.3s-13.8 81.4-15.8 94.9-31.5 49.6-26.2 86.2c22.1-6.1 39-41.9 39-41.9s-4.1-53.6-3.6-72.9zM1081 378.8s49.2 31.5 48.5 32.9c-.7 1.4-1.4 17.7 0 15 1.4-2.7 17.1-20.3 17.1-20.3-10.4-5.6-61-46.1-61-46.1-3.3-2.6-11-4.1-20.9-4.8 3.7 11.3 16.3 23.3 16.3 23.3zM924.3 404.5c3.5-13.2 6.9-25.9 7.1-26.7l-7.1 26.7z"></path><path fill="#0a101e" d="M990.8 357.3c-8.5.7-14.1 1.2-14.1 1.2l-45.4 19.3c-.2.8-3.6 13.5-7.1 26.7 0 0 34.5-28.2 43.8-28.5 5.5-.2 15.3-10 22.8-18.7zM1137.5 551.9c1.9 3.4 43 49.3 43 49.3s22.7-3.6 27.8 0c0 0-33.5 8.2-35.4 17.9-1.9 9.7-43.8 108.8-43.8 108.8s-18.4 11.7-17.4-17.4c1-29.1 32.4-75.8 31.8-77.7-.6-1.9 5-29.5 5-31 .1-1.6-11-49.9-11-49.9zM969.8 524.2c-2.5-.6-5.2 1.3-5.9 4.3 0 .1 0 .3-.1.4.6-2.3 2.6-3.8 4.6-3.3 2 .5 3.2 2.8 2.6 5.1s-2.6 3.8-4.6 3.3c-1-.2-1.7-.9-2.2-1.7.6 1.3 1.6 2.3 3 2.6 2.5.6 5.2-1.3 5.9-4.3.7-2.9-.7-5.8-3.3-6.4z"></path><path fill="#0a101e" d="M963.9 528.9c-.3 1.3-.1 2.5.4 3.4-.5-1-.6-2.2-.4-3.4zM967.6 546.2c-2.5-.6-5.2 1.3-5.9 4.3 0 .1 0 .3-.1.4.6-2.3 2.6-3.8 4.6-3.3 2 .5 3.2 2.8 2.6 5.1s-2.6 3.8-4.6 3.3c-1-.2-1.7-.9-2.2-1.7.6 1.3 1.6 2.3 3 2.6 2.5.6 5.2-1.3 5.9-4.3.7-2.9-.8-5.8-3.3-6.4z"></path><path fill="#0a101e" d="M961.6 550.9s0 .1 0 0c-.3 1.3-.1 2.5.4 3.4-.4-1-.6-2.2-.4-3.4zM963.7 571.5c-2.5-.6-5.2 1.3-5.9 4.3 0 .1 0 .3-.1.4.6-2.3 2.6-3.8 4.6-3.3 2 .5 3.2 2.8 2.6 5.1s-2.6 3.8-4.6 3.3c-1-.2-1.7-.9-2.2-1.7.6 1.3 1.6 2.3 3 2.6 2.5.6 5.2-1.3 5.9-4.3.7-2.9-.8-5.8-3.3-6.4zM957.7 576.2c-.3 1.3-.1 2.5.4 3.4-.4-1-.6-2.2-.4-3.4z"></path><path fill="#2c3b5e" d="M958.1 606.8s-.3 91.4 10.5 106.3c10.8 14.9 18.6 28.2 31.6 30.6 12.9 2.4 29.6 5 29.6 5s-25.2-9.8-28.9-18.5-14.3-65.5-16-69.8-26.8-53.6-26.8-53.6zM1120.9 485.3c-.5 5.8 1.8 23.1 5.9 33.7 4.1 10.6 22.5 40.2 22.5 40.2l28.9 31s-9.5-25.7-16.7-37.5c-7.1-11.9-40.6-67.4-40.6-67.4zM922.5 416.5s-4.1 24.5-3.1 33c1 8.5 4.5 65.4 4.8 75.1s3.5 29.7 3.5 29.7 7.6-74.6 6.3-80.5-11.5-57.3-11.5-57.3z"></path><path fill="#0a101e" d="m1085.6 374.9-12 46.1-21.6 1.4v16.2s-38.9 37.5-45.1 43.9c-6.2 6.4-44.6 36.5-44.6 36.5s57.8-83.8 65.4-91.8c7.8-8.1 44-64.2 57.9-52.3z"></path><path fill="#ed9906" d="m1024.8 408.7-15-30.9-17.3 23.2-4.3-2.7s-12 1.2-12.8 10.4c-.8 9.2-13.1 110.3-13.1 110.3l62.5-110.3z"></path><path fill="#cc820d" d="m988.2 398.3 4.3 2.7 17.4-23.2 15 30.9 46.6-57.9-76.4-.2s-23.1 36.3-29.6 51.6c-6.5 15.3-3.1 116.8-3.1 116.8s12.3-101.1 13.1-110.3c.7-9.2 12.7-10.4 12.7-10.4z"></path><path fill="#fff" d="M1006.9 368.6s-14.2 4.1-22.4 2.6c-2.7 6.8 3.7 27.1 3.7 27.1l21.6-20.5-1.4-10.2-1.5 1z"></path><path fill="#dddad7" d="m1006.9 368.6 1.5-1-2.8-20.6-10.6 3.6s-7.8 13.8-10.5 20.6c8.3 1.6 22.4-2.6 22.4-2.6z"></path><path fill="none" d="M1061.1 363.7c-2.4-1.6-4.2-2.7-4.8-2.7-1.9 0-52.8 7.5-73 10.5-8.6 15.4-18.9 34-19.2 35.6-2.7 17.1-1.8 111.9-1.8 111.9l62.5-110.3 36.3-45z"></path><path fill="#a7a9ac" d="M1024.8 408.7 962.4 519c9.9-4.2 39.4-34.7 44.6-42.1 5.2-7.4 47.8-46.3 46.5-48-1.3-1.7-1.8-10.7-1.8-10.7s2.9.3 6.1 0c3.2-.3 13.7-1.4 13.7-1.4l9.5-37.9s-12.7-10.1-19.9-15.1l-36.3 44.9zM964.1 407.1c.3-1.6 10.5-20.2 19.2-35.6-5 .7-8.2 1.2-8.2 1.2l-7.8 3.1c-6.5 11.6-14.3 24.9-16.3 25.4-3.6.8 0 11.4 4.9 13.4l-7.3 11 13.7 93.4c.1 0-.8-94.8 1.8-111.9z"></path><path fill="#87898c" d="M1072.2 349.2h-2.1l1.4 1.6-10.4 12.9c7.3 5 19.9 15.1 19.9 15.1l4.7-18.5-13.5-11.1zM983.3 371.5c6.3-11.3 11.8-20.8 11.8-20.8l1.2-.4s-1.1-.7-1.8-.3c-.7.4-17.7 8.6-17.7 8.6s-4.3 8.1-9.4 17.3l7.8-3.1c-.1-.1 3.1-.6 8.1-1.3z"></path><path fill="#d1d3d4" d="m951.1 430.5 8.2 61.1s-1.8-37.8-1.7-41.5c0-3.7-3.5-29.1-3.5-29.1s-3.8 3.1-3 9.5zM969.9 510.1s50-90.9 54.1-93.6c4.1-2.7 37.1-43.8 37.1-43.8s-28.4 44.2-32.2 52.6c-3.9 8.4-59 84.8-59 84.8z"></path><path fill="#fff" d="m1046.7 355.5-36.9 22.3s14.3 30.9 15 30.9c.5 0 22.8-27.9 36.4-45h-.1l-14.4-8.2z"></path><path fill="#dddad7" d="m1063.1 341.1-.5 4.8-15.9 9.6 14.3 8.2h.1c6-7.5 10.3-12.9 10.3-12.9l-8.3-9.7z"></path><g><path fill="#edc19f" d="M1062.8 309.2c-3.5 14.5-35.3 38.3-45.1 42.5-6.6 2.8-9.5 11.2-10.7 16.9 1.2 5.1 2.5 8.9 4 9.2 5.1 1 51.6-31.1 51.6-31.1l4.1-39.1-3.9 1.6z"></path><path fill="#c2865f" d="M1017.6 351.7c9.8-4.2 41.6-28 45.1-42.5 0 0-10.9 12.1-22.9 24.4-8.5 8.7-26.4 13.3-36.1 15.2.8 6.4 1.9 14 3.2 19.8 1.2-5.6 4.1-14.1 10.7-16.9z"></path><path fill="#804320" d="m1062.8 309.2-60.5 26.2s.5 6 1.4 13.4c9.7-1.9 27.6-6.5 36.1-15.2 12-12.2 23-24.4 23-24.4z"></path><path fill="#edc19f" d="M1071 255s-14.3-44.9-26-46.7c-2.7-.4-8.3-.4-15.3 0 1 1.4 2 3 2.9 4.8 0 0-49.6 8.9-50.7 15.8-1 6.9 6.5 21.3 6.5 21.3l.3 40.3 12.5-.8s-6.1 12-4.6 16.1c1.5 4.1.1 15.2 5.7 15.7 5.6.5-15.5 9.4-7.9 17.3 1.2.8 1.9.6 2.3.6 1 0 52.6-4.9 70-31.9l6.1-22.7s20.7-4.9 22-24.5c1.2-19.6-19.8-10.9-23.8-5.3z"></path><path fill="#c2865f" d="M1002.3 321.6c-5.6-.5-4.2-11.6-5.7-15.7s4.6-16.1 4.6-16.1l-12.5.8-.3-40.3s-7.5-14.4-6.5-21.3 50.7-15.8 50.7-15.8c-.9-1.8-1.8-3.4-2.9-4.8-23.2 1.4-62 7.2-61.6 15.8 0 0 2.3 71.2 13.3 94.2 7 14.7 10.9 19.3 13.1 20.6-7.7-8 13.4-16.9 7.8-17.4zM1083.1 267.7s7.3-13.3.8-12.9-7.3 2.8-7.3 2.8 8.2.2 6.5 10.1z"></path><path fill="#804320" d="m988.4 250.3-3.9 41.2 5.9 2.4 10.7-4.1-12.5.8z"></path><path fill="#6d1818" d="M1002.3 315.4c1.1-6 8.4-5.8 11.8-5.3 1.4-4.8 2.7-9.6 2.7-9.6l-27.2 7.1s1 3.1 2.8 6.7c4.3-2.7 12-3.5 12-3.5-3.9 2.6-2.1 4.6-2.1 4.6z"></path><path fill="#da4646" d="M998.6 322.1c5.5 4 11.2.1 12.6-3.1.6-1.4 1.8-5.2 2.9-9-3.5-.4-10.7-.6-11.8 5.3 0 0-1.8-2 2.2-4.7 0 0-7.7.8-12 3.5 1.5 3.1 3.6 6.2 6.1 8z"></path><path fill="#3a3939" d="M1021.7 250.5c-.4-1.4-1.8-2.2-3.1-1.8-1.3.4-2.1 1.8-1.8 3.1.4 1.4 1.6 1.6 3 1.3 1.3-.4 2.3-1.3 1.9-2.6zM982.5 253.1c-.7-1.2-2.2-1.7-3.4-1.1s-1.7 2.2-1 3.4c.7 1.2 1.9 1.2 3.2.6s1.9-1.7 1.2-2.9zM1031.5 240c.8 1.8-1.9-2.2-8.2-2.9s-12.9 1.2-12.9 1.2-.1-2.5 3.7-3.6c3.9-1.2 13.9-2.7 17.4 5.3zM972 241.5c-.1.2 6.8-3.1 8.2-3 1.4 0 1.8-1 .6-1.7-1.3-.6-6.6.3-8.8 4.7z"></path><path fill="#f8d9c4" d="M989.6 267.7v21.4h6.6c0 .1-7.4-7.1-6.6-21.4zM1068.2 285.4c0 .5-4.6 20.5-7.7 26.4S1046 321 1046 321s6.5-8.8 12.1-13.4c5.7-4.7 10-27.4 10.1-22.2zM1062.8 319.8s-1.8 23-2.2 24.5-3.6 4-4.1 4.5-.2-6.8 2.4-14.5l3.9-14.5zM1048.5 273.6s3.3-16.7-4.6-17.2c-7.9-.5-14.3 2.7-9.4 4.8s13.1-1.5 11.7 8.2c-1.5 9.8 2.3 4.2 2.3 4.2z"></path><g><path fill="#0f0f10" d="M1062.8 171.7c-8 1.8-33.4-3.8-33.4-3.8s-17.6-5.6-44.8-3.6c-27.2 2-36.6 32.6-36.6 32.6l10.4 12.5-3.6-9.5s9.9 7.8 15.8 11.6c6 3.7 9.7 1.4 9.7 1.4-3.7-3.4-8.3-15.8-8.3-15.8s13.4 15.7 25.6 15.8 46-.8 46-.8 16.3-2.7 19.8-2.9c3.4-.3 27.6 4.9 27.6 4.9 20.1-41.2-20.3-44.1-28.2-42.4z"></path><path fill="#767575" d="M997.6 212.8C985.3 212.6 972 197 972 197s4.5 12.5 8.3 15.8c0 0-3.7 2.4-9.7-1.4-6-3.7-15.8-11.6-15.8-11.6l3.6 9.5-10.4-12.5s3.3 8.9 6.8 12.9c3.4 4 13.4 15.2 13.4 15.2s27.9-2.4 34.1-3.5c6.1-1 41.5-9.6 41.5-9.6s-33.9 1.1-46.2 1z"></path><path fill="#3a3939" d="M1062.6 262.3c1.6-.5 3.9-1.1 6-1.1.6-1.5 1.1-2.9 1.5-4l-9 1.6c.6 1.1 1 2.4 1.5 3.5zM1090.2 218.9l.9-4.9s-23.9-7.9-30-6c-6.1 2-17.4 4-17.4 4s.3 1.9.9 4.7c5-.5 14.3-1.4 19.9-1.4 6.9-.1 21.9 2.8 25.7 3.6zM1061.1 258.5c2.2-.7 5.9-1.7 9.3-2l.5-1.5s1.4-1.8 4.6-3.6l-16.3 2.1c.5 1.4 1.2 3.1 1.9 5zM1059 252.4c.1.3.2.5.3.8 3.9-.9 12.6-2.9 19.2-3.3 1.8-.7 4-1.4 6.6-1.8l.4-2-28.6 1.9c.9 1.6 1.7 3.1 2.1 4.4zM1056.8 247.9c3.4-.6 12.6-2.1 18.2-2.6 4.1-.4 8.1 0 10.6.3l1-5.5-34.7.4c1.5 2.3 3.4 4.9 4.9 7.4zM1090.2 219l-45.6-1.9c.3 1.4.6 3 .9 4.7 8.2.5 32.4 1.9 43.5 3.7l1.2-6.5zM1049.2 236c.5 1.2 1.4 2.5 2.3 4 5-.6 13.3-1.5 18.2-1.5 5.5 0 13.4.9 16.9 1.4l1.1-6.5h-39.4c.3 1 .6 1.9.9 2.6zM1088.4 229l.5-2.9-43.4-4.1c.4 2 .8 4 1.3 5.9 4.7-.2 13.7-.7 19.2-1 6.4-.4 18.4 1.4 22.4 2.1zM1063.8 265.3c1-.3 2.3-.7 3.5-.6l.9-2.4-5.5.6c.4.8.8 1.6 1.1 2.4zM1065.4 269.2c.1 0 .8-1.6 1.6-3.9l-3.1.3c.9 2.1 1.5 3.6 1.5 3.6zM1046.9 228.1c.4 1.8.8 3.5 1.3 4.9 7.5-.5 23.1-1.6 26.6-1.4 3.3.2 9.7 1 13 1.4l.7-3.8-41.6-1.1z"></path><path fill="#767575" d="M1090.2 218.9c-3.7-.7-18.8-3.7-25.8-3.7-5.6 0-14.9.9-19.9 1.4 0 .2.1.4.1.5l45.6 1.9v-.1zM1089 225.5c-11.1-1.8-35.3-3.2-43.5-3.7v.1l43.4 4.1.1-.5zM1088.4 229c-4-.6-16-2.4-22.4-2.1-5.5.3-14.4.7-19.2 1 0 .1 0 .2.1.2l41.5 1.1v-.2zM1048.2 233c0 .1.1.2.1.3h39.4v-.3c-3.3-.4-9.7-1.2-13-1.4-3.4-.2-19 .8-26.5 1.4zM1051.5 239.9c.1.2.2.3.3.5l34.7-.4v-.2c-3.5-.4-11.4-1.3-16.9-1.4-4.8 0-13.1.9-18.1 1.5zM1075 245.3c-5.5.5-14.8 2-18.2 2.6l.1.1 28.6-1.9.1-.6c-2.6-.3-6.5-.6-10.6-.2zM1057.3 253.7h-.2.2zM1059.3 253.4l16.3-2.1c.8-.5 1.8-.9 2.9-1.4-6.6.4-15.3 2.4-19.2 3.3-.1.1 0 .2 0 .2zM1061.2 258.8l9-1.6c.1-.3.2-.5.3-.7-3.4.4-7.1 1.4-9.3 2-.1.1 0 .2 0 .3zM1062.6 262.3c.1.2.1.3.2.5l5.5-.6c.1-.3.3-.7.4-1-2.2 0-4.5.6-6.1 1.1zM1063.8 265.3c.1.1.1.3.2.4l3.1-.3c.1-.2.2-.5.3-.7-1.3-.1-2.6.2-3.6.6zM1056.3 202.9s-31.9 4.6-42.2 2-33.9-8-33.9-8 11.2 9.9 23 11.4 47.4.5 53.1-5.4z"></path></g></g></g><g><path fill="#a8bde2" d="M1319.6 932.4H40l6.4 12.4h1266.7z"></path><path fill="#81a2d5" d="m1306.6 957.1 6.5-12.3H46.4l6.4 12.3z"></path><path fill="#203863" d="M1223.6 957.1H136l5.4 12.3h1076.7z"></path><path fill="#306ba9" d="m1212.6 981.8 5.5-12.4H141.4l5.4 12.4z"></path></g><g><path fill="#306ba9" fill-rule="evenodd" d="M922.8 933.2h-340c-5.9 0-11.1-4.9-11.4-10.8-.4-5.9 4.2-10.8 10.2-10.8h340c5.9 0 11.1 4.9 11.4 10.8.3 6-4.3 10.8-10.2 10.8z" clip-rule="evenodd"></path><path fill="#203863" fill-rule="evenodd" d="M922.8 933.2h-340c-3.8 0-7.4-2-9.5-5.1 1.7-3.1 5-5.1 8.9-5.1h340c3.8 0 7.4 2 9.5 5.1-1.8 3.1-5.1 5.1-8.9 5.1zM927.2 917H644.3c-3 0-5.5-2.4-5.7-5.4-.2-3 2.1-5.4 5.1-5.4h282.9c3 0 5.5 2.4 5.7 5.4.1 3-2.1 5.4-5.1 5.4z" clip-rule="evenodd"></path><path fill="#203863" fill-rule="evenodd" d="M929.9 911.6h-272c-7.8 0-13.7-6.4-13.2-14.1l11.1-176.1c.5-7.8 7.2-14.1 15-14.1h271.9c7.8 0 13.7 6.4 13.2 14.1l-11.1 176.1c-.4 7.8-7.2 14.1-14.9 14.1z" clip-rule="evenodd"></path><path fill="#4e81c2" d="M945.2 891.9 956 721.4c.5-7.8-5.5-14.1-13.2-14.1H678.9c-7.8 0-14.5 6.4-15 14.1l-1.1 17.8c16.8 17.1 37.9 41.8 45.4 59.9 9.9 24.1 176.5 75 237 92.8z"></path><path fill="#3a6da0" d="M665.9 911.6h263.9c7.8 0 14.5-6.4 15-14.1l.4-5.6C884.7 874.1 718.1 823.2 708 799c-7.5-18.1-28.6-42.8-45.4-59.9l-10 158.4c-.4 7.8 5.6 14.1 13.3 14.1z"></path><path fill="#f0eef0" fill-rule="evenodd" d="M915.5 911.6h-27.2L663.2 731.7l.7-10.3c.2-3.1 1.4-5.9 3.2-8.3l248.4 198.5zM697.6 707.2l245.6 196.3c1-1.8 1.6-3.9 1.7-6l1.7-27.4-203.8-162.9h-45.2z" clip-rule="evenodd" opacity=".3"></path><path fill="#d0e3f7" d="M808.3 786.1V785c-6.3.6-11.3 6.9-11.3 14.5 0 8 5.5 14.6 12.3 14.6 6.5 0 11.8-5.9 12.3-13.5-.3 0-.7.1-1 .1-6.8 0-12.3-6.5-12.3-14.6z"></path><path fill="#bdd2ed" fill-rule="evenodd" d="M644.6 933.2h-61.8c-5.9 0-11.1-4.9-11.4-10.8-.4-5.9 4.2-10.8 10.2-10.8h61.8c5.9 0 11.1 4.9 11.4 10.8.3 6-4.3 10.8-10.2 10.8z" clip-rule="evenodd"></path></g><path fill="#d3be90" fill-rule="evenodd" d="M1093.5 912.5h105.4c5.1 0 9.3-4.6 9.3-10.1V704c0-5.6-4.2-10.1-9.3-10.1h-105.4c-5.1 0-9.3 4.6-9.3 10.1v198.4c0 5.5 4.2 10.1 9.3 10.1z" clip-rule="evenodd"></path><path fill="#a00d33" fill-rule="evenodd" d="M1084.2 877.3h113c3.4 0 6.1 3 6.1 6.7v43.4c0 3.7-2.7 6.7-6.1 6.7h-113c-3.4 0-6.1-3-6.1-6.7V884c0-3.7 2.7-6.7 6.1-6.7z" clip-rule="evenodd"></path><path fill="#f4d7a4" d="M1260.9 776.9c-1.6-14.2 16.1-58.7 26.4-83h-86.1c-4.3 0-7.8 3.8-7.8 8.5V904c0 4.7 3.5 8.5 7.8 8.5h8.3c24.1-55.4 52.7-124 51.4-135.6z"></path><path fill="#fce6c3" d="M1294.3 904V702.4c0-4.4-3.1-8.1-7-8.5-10.3 24.3-28 68.8-26.4 83 1.3 11.6-27.2 80.2-51.3 135.6h76.9c4.3 0 7.8-3.8 7.8-8.5z"></path><path fill="#d3be90" fill-rule="evenodd" d="M1209.2 717.6h76.1c1.8 0 3.4 1.7 3.4 3.7s-1.5 3.7-3.4 3.7h-76.1c-1.8 0-3.4-1.7-3.4-3.7.1-2 1.6-3.7 3.4-3.7zM1209.2 758.1h76.1c1.8 0 3.4 1.7 3.4 3.7s-1.5 3.7-3.4 3.7h-76.1c-1.8 0-3.4-1.7-3.4-3.7.1-2.1 1.6-3.7 3.4-3.7zM1209.2 842.6h76.1c1.8 0 3.4 1.7 3.4 3.7s-1.5 3.7-3.4 3.7h-76.1c-1.8 0-3.4-1.7-3.4-3.7.1-2 1.6-3.7 3.4-3.7z" clip-rule="evenodd"></path><path fill="#a0895d" fill-rule="evenodd" d="M1100.3 714.6h73.5c1.8 0 3.4 1.7 3.4 3.7s-1.5 3.7-3.4 3.7h-73.5c-1.8 0-3.4-1.7-3.4-3.7.1-2 1.6-3.7 3.4-3.7zM1100.3 805.8h73.5c1.8 0 3.4 1.7 3.4 3.7s-1.5 3.7-3.4 3.7h-73.5c-1.8 0-3.4-1.7-3.4-3.7.1-2 1.6-3.7 3.4-3.7zM1100.3 864.1h73.5c1.8 0 3.4 1.7 3.4 3.7s-1.5 3.7-3.4 3.7h-73.5c-1.8 0-3.4-1.7-3.4-3.7.1-2 1.6-3.7 3.4-3.7z" clip-rule="evenodd"></path><path fill="#dd1032" d="M1279.1 909.4c2.5-5.6 12.6-16.9 21-25.8-.2-3.5-2.8-6.4-6.1-6.4h-23.5c-.6 0-6.5.1-10 8.3-3.5 8.3-3.2 17-13.7 17h-4.5c-10.5 0-10.2-8.5-13.7-17-3.4-8.1-9.4-8.3-10-8.3h-24.8c-3.4 0-6.1 3-6.1 6.7v43.4c0 3.7 2.7 6.7 6.1 6.7h35.7c17.3-6.2 46.5-17.7 49.6-24.6z"></path><path fill="#ed2450" d="M1300.1 927.4V883.7c-8.4 8.8-18.5 20.2-21 25.8-3.1 6.9-32.3 18.3-49.7 24.6h64.6c3.4 0 6.1-3 6.1-6.7z"></path><path fill="#e6e7e8" d="M1312 816.1c0-21.4-19.3-23.8-19.3-23.8h-99.3c38.9 3.7 62.2 11.3 71.3 13.5s47.3 10.3 47.3 10.3z"></path><path fill="#ccc" d="M1212.7 816.1h99.3s-38.1-8.1-47.3-10.3-32.4-9.8-71.3-13.5c0 0 19.3 2.4 19.3 23.8z"></path><path fill="#e6e7e8" d="M1064.6 777.3c0-21.4 21-23.8 21-23.8h107.8c-42.3 3.7-67.5 11.3-77.5 13.5s-51.3 10.3-51.3 10.3z"></path><path fill="#ccc" d="M1172.4 777.3h-107.8s41.4-8.1 51.3-10.3 35.2-9.8 77.5-13.5c0 0-21 2.4-21 23.8z"></path><path fill="#e6e7e8" d="M1064.6 848.3c0-21.4 21-23.8 21-23.8h107.8c-42.3 3.7-67.5 11.3-77.5 13.5s-51.3 10.3-51.3 10.3z"></path><path fill="#ccc" d="M1172.4 848.3h-107.8s41.4-8.1 51.3-10.3 35.2-9.8 77.5-13.5c0 .1-21 2.4-21 23.8z"></path><path fill="#d3be90" fill-rule="evenodd" d="M987.5 920.6h63.3c3.1 0 5.6-2.7 5.6-6.1V795.3c0-3.4-2.5-6.1-5.6-6.1h-63.3c-3.1 0-5.6 2.7-5.6 6.1v119.2c.1 3.3 2.6 6.1 5.6 6.1z" clip-rule="evenodd"></path><path fill="#a00d33" fill-rule="evenodd" d="M982 899.4h67.9c2 0 3.7 1.8 3.7 4v26.1c0 2.2-1.6 4-3.7 4H982c-2 0-3.7-1.8-3.7-4v-26.1c0-2.2 1.7-4 3.7-4z" clip-rule="evenodd"></path><path fill="#f4d7a4" d="M1088.1 839.1c-1-8.5 9.7-35.3 15.8-49.9h-51.7c-2.6 0-4.7 2.3-4.7 5.1v121.1c0 2.8 2.1 5.1 4.7 5.1h5c14.6-33.2 31.7-74.5 30.9-81.4z"></path><path fill="#fce6c3" d="M1108.2 915.4V794.3c0-2.6-1.9-4.8-4.2-5.1-6.2 14.6-16.8 41.4-15.8 49.9.8 6.9-16.4 48.2-30.8 81.5h46.2c2.5 0 4.6-2.3 4.6-5.2z"></path><path fill="#d3be90" fill-rule="evenodd" d="M1057.1 803.4h45.7c1.1 0 2 1 2 2.2 0 1.2-.9 2.2-2 2.2h-45.7c-1.1 0-2-1-2-2.2 0-1.2.9-2.2 2-2.2zM1057.1 827.8h45.7c1.1 0 2 1 2 2.2 0 1.2-.9 2.2-2 2.2h-45.7c-1.1 0-2-1-2-2.2 0-1.2.9-2.2 2-2.2zM1057.1 878.6h45.7c1.1 0 2 1 2 2.2 0 1.2-.9 2.2-2 2.2h-45.7c-1.1 0-2-1-2-2.2 0-1.3.9-2.2 2-2.2z" clip-rule="evenodd"></path><path fill="#a0895d" fill-rule="evenodd" d="M991.7 801.7h44.2c1.1 0 2 1 2 2.2 0 1.2-.9 2.2-2 2.2h-44.2c-1.1 0-2-1-2-2.2 0-1.3.9-2.2 2-2.2zM991.7 856.4h44.2c1.1 0 2 1 2 2.2 0 1.2-.9 2.2-2 2.2h-44.2c-1.1 0-2-1-2-2.2 0-1.2.9-2.2 2-2.2zM991.7 891.5h44.2c1.1 0 2 1 2 2.2 0 1.2-.9 2.2-2 2.2h-44.2c-1.1 0-2-1-2-2.2 0-1.2.9-2.2 2-2.2z" clip-rule="evenodd"></path><path fill="#dd1032" d="M1099.1 918.7c1.5-3.3 7.6-10.2 12.6-15.5-.1-2.1-1.7-3.8-3.7-3.8h-14.1c-.3 0-3.9 0-6 5s-1.9 10.2-8.2 10.2h-2.8c-6.3 0-6.1-5.1-8.2-10.2-2-4.9-5.7-5-6-5h-14.9c-2 0-3.7 1.8-3.7 4v26.1c0 2.2 1.6 4 3.7 4h21.5c10.4-3.8 27.9-10.7 29.8-14.8z"></path><path fill="#ed2450" d="M1111.7 929.5v-26.3c-5 5.3-11.1 12.1-12.6 15.5-1.9 4.1-19.4 11-29.9 14.8h38.8c2.1 0 3.7-1.8 3.7-4z"></path><path fill="#e6e7e8" d="M1118.9 862.6c0-12.9-11.6-14.3-11.6-14.3h-59.7c23.4 2.2 37.4 6.8 42.9 8.1s28.4 6.2 28.4 6.2z"></path><path fill="#ccc" d="M1059.2 862.6h59.7s-22.9-4.9-28.4-6.2-19.5-5.9-42.9-8.1c0 0 11.6 1.5 11.6 14.3z"></path><path fill="#e6e7e8" d="M970.2 839.3c0-12.9 12.6-14.3 12.6-14.3h64.8c-25.4 2.2-40.6 6.8-46.6 8.1s-30.8 6.2-30.8 6.2z"></path><path fill="#ccc" d="M1035 839.3h-64.8s24.9-4.9 30.8-6.2 21.2-5.9 46.6-8.1c0 0-12.6 1.5-12.6 14.3z"></path><path fill="#e6e7e8" d="M970.2 882c0-12.9 12.6-14.3 12.6-14.3h64.8c-25.4 2.2-40.6 6.8-46.6 8.1-5.9 1.4-30.8 6.2-30.8 6.2z"></path><path fill="#ccc" d="M1035 882h-64.8s24.9-4.9 30.8-6.2c6-1.3 21.2-5.9 46.6-8.1 0 0-12.6 1.4-12.6 14.3z"></path><path fill="#1a293d" fill-rule="evenodd" d="M315.1 496.8c-4.4 0-8.4 1.8-11.3 4.7-2.9 2.9-4.7 6.9-4.7 11.3v42c0 4.4 1.8 8.4 4.7 11.3 2.9 2.9 6.9 4.7 11.3 4.7h77.5l23.6 23.6c.5.5 1.1.8 1.8 1 .6.1 1.3.1 2-.2.6-.3 1.2-.7 1.5-1.3.4-.6.6-1.2.6-1.9v-79.2c0-4.4-1.8-8.4-4.7-11.3-2.9-2.9-6.9-4.7-11.3-4.7h-91zm99.6 7.3c2.2 2.2 3.6 5.3 3.6 8.7v78.5l-24.2-24.2h-79c-3.4 0-6.5-1.4-8.7-3.6-2.2-2.2-3.6-5.3-3.6-8.7v-42c0-3.4 1.4-6.5 3.6-8.7 2.2-2.2 5.3-3.6 8.7-3.6H406c3.4 0 6.5 1.4 8.7 3.6z" clip-rule="evenodd"></path><path fill="#1a293d" fill-rule="evenodd" d="M314.4 512.4c-.6 0-1-.5-1-1 0-.6.5-1 1-1h92.4c.6 0 1 .5 1 1 0 .6-.5 1-1 1h-92.4zM314.4 522.4h9.8c.6 0 1-.5 1-1 0-.6-.5-1-1-1h-9.8c-.6 0-1 .5-1 1 0 .6.4 1 1 1zm92.4 0c.6 0 1-.5 1-1 0-.6-.5-1-1-1h-69.6c-.6 0-1 .5-1 1 0 .6.5 1 1 1h69.6zM314.4 532.4c-.6 0-1-.5-1-1 0-.6.5-1 1-1h92.4c.6 0 1 .5 1 1 0 .6-.5 1-1 1h-92.4zM340.1 546c-.6 0-1-.5-1-1 0-.6.5-1 1-1h66.7c.6 0 1 .5 1 1 0 .6-.5 1-1 1h-66.7zM369.9 556.8c-.6 0-1-.5-1-1 0-.6.5-1 1-1h36.9c.6 0 1 .5 1 1 0 .6-.5 1-1 1h-36.9zM348.7 556.8c-.6 0-1-.5-1-1 0-.6.5-1 1-1h13.2c.6 0 1 .5 1 1 0 .6-.5 1-1 1h-13.2z" clip-rule="evenodd"></path><path fill="#4e81c2" fill-rule="evenodd" d="M1242.3 246.3h-90.9c-7.8 0-14.2 6.4-14.2 14.2v79.2c0 .7.4 1.2 1 1.5.6.3 1.3.1 1.7-.3l24.1-24.1h78.2c7.8 0 14.2-6.4 14.2-14.2v-42c.1-7.9-6.3-14.3-14.1-14.3z" clip-rule="evenodd"></path><path fill="#fff" fill-rule="evenodd" d="M1253.1 237.1c4.4 0 8.4 1.8 11.3 4.7 2.9 2.9 4.7 6.9 4.7 11.3v42c0 4.4-1.8 8.4-4.7 11.3-2.9 2.9-6.9 4.7-11.3 4.7h-77.5l-23.6 23.6c-.5.5-1.1.8-1.8 1-.6.1-1.3.1-2-.2-.6-.3-1.2-.7-1.5-1.3-.4-.6-.6-1.2-.6-1.9v-79.2c0-4.4 1.8-8.4 4.7-11.3 2.9-2.9 6.9-4.7 11.3-4.7h91zm-99.6 7.4c-2.2 2.2-3.6 5.3-3.6 8.7v78.5l24.2-24.2h79c3.4 0 6.5-1.4 8.7-3.6 2.2-2.2 3.6-5.3 3.6-8.7v-42c0-3.4-1.4-6.5-3.6-8.7-2.2-2.2-5.3-3.6-8.7-3.6h-90.9c-3.4 0-6.5 1.3-8.7 3.6z" clip-rule="evenodd"></path><path fill="#fff" fill-rule="evenodd" d="M1253.8 252.8c.6 0 1-.5 1-1 0-.6-.5-1-1-1h-92.4c-.6 0-1 .5-1 1 0 .6.5 1 1 1h92.4zM1253.8 262.8h-9.8c-.6 0-1-.5-1-1 0-.6.5-1 1-1h9.8c.6 0 1 .5 1 1 .1.5-.4 1-1 1zm-92.4 0c-.6 0-1-.5-1-1 0-.6.5-1 1-1h69.6c.6 0 1 .5 1 1 0 .6-.5 1-1 1h-69.6zM1253.8 272.7c.6 0 1-.5 1-1 0-.6-.5-1-1-1h-92.4c-.6 0-1 .5-1 1 0 .6.5 1 1 1h92.4zM1228.1 286.3c.6 0 1-.5 1-1 0-.6-.5-1-1-1h-66.7c-.6 0-1 .5-1 1 0 .6.5 1 1 1h66.7zM1198.3 297.1c.6 0 1-.5 1-1 0-.6-.5-1-1-1h-36.9c-.6 0-1 .5-1 1 0 .6.5 1 1 1h36.9zM1219.5 297.1c.6 0 1-.5 1-1 0-.6-.5-1-1-1h-13.2c-.6 0-1 .5-1 1 0 .6.5 1 1 1h13.2z" clip-rule="evenodd"></path></svg>