<svg xmlns="http://www.w3.org/2000/svg" data-name="Layer 1" viewBox="0 0 200 175" id="male-ui-ux-designer"><path d="M99.28,23.36a1.69,1.69,0,0,0-1.2-.48,1.69,1.69,0,0,0-1.68,1.7,1.54,1.54,0,0,0,.1.56l-4.82,3.08a.11.11,0,0,0-.05.09l.14,13.17-4.51,2.75a.12.12,0,0,0-.05.1V48l-2.41-3.77.07-15.62a1,1,0,0,0,.66-1,1.07,1.07,0,0,0-.14-.5.72.72,0,0,0-.17-.22,1,1,0,0,0-.73-.3,1,1,0,0,0-.73.31,1,1,0,0,0,.38,1.68l-.07,15.9a.14.14,0,0,0,0,.06l3,4.62a.1.1,0,0,0,.14,0h0L87.13,72.4h.73l.08-27.73,4.5-2.75a.12.12,0,0,0,.06-.1l-.14-13.17,4.53-2.89h0a1.69,1.69,0,0,0,2.39,0,1.7,1.7,0,0,0,.49-1.2,1.62,1.62,0,0,0-.22-.82A2.07,2.07,0,0,0,99.28,23.36Z"></path><path d="M99.4 23.24a1.86 1.86 0 00-1.33-.54 1.81 1.81 0 00-1.31.56 1.85 1.85 0 00-.54 1.32 1.51 1.51 0 00.07.48l-4.7 3a.3.3 0 00-.14.25l.14 13.07-4.42 2.7a.29.29 0 00-.14.25v3.08L85 44.2 85 28.75a1.19 1.19 0 00.65-1.08 1.23 1.23 0 00-.15-.59 1.71 1.71 0 00-.21-.26 1.15 1.15 0 00-.85-.35 1.2 1.2 0 00-1.2 1.22A1.21 1.21 0 0084 28.76l-.06 15.77a.2.2 0 000 .16l2.95 4.63a.28.28 0 00.13.11L87 72.58H88l.07-27.81 4.43-2.7a.32.32 0 00.14-.25l-.14-13.08L96.87 26a1.84 1.84 0 001.23.46A1.88 1.88 0 00100 24.55a1.89 1.89 0 00-.24-.9A1.81 1.81 0 0099.4 23.24zm-.24 2.39a1.47 1.47 0 01-1.07.45A1.51 1.51 0 0197 25.63l-.1-.1-4.74 3 .14 13.23-4.56 2.79-.08 27.65h-.37l.06-23 0-.3-.24.12-2.91-4.56.07-16-.12 0a.88.88 0 01-.56-.79.86.86 0 01.25-.61.85.85 0 01.61-.25.87.87 0 01.59.24.9.9 0 01.15.19 1 1 0 01.11.41.85.85 0 01-.54.8l-.12 0-.07 15.74v0l2.76 4.33 0-4.27 4.55-2.78-.13-13.23 4.9-3.13 0-.14a1.43 1.43 0 01-.09-.5A1.47 1.47 0 0197 23.51a1.52 1.52 0 012.14 0 1.31 1.31 0 01.25.33 1.5 1.5 0 01-.24 1.81zM99.84 55.76a1 1 0 00-.73-.3 1 1 0 00-.35 2l0 9.38L94.08 70a.12.12 0 000 .09l0 4.25h.72l0-3.92 4.73-3.16a.12.12 0 00.05-.1l-.05-9.7a1 1 0 00.66-1A1 1 0 00100 56 .76.76 0 0099.84 55.76z"></path><path d="M100 55.63a1.24 1.24 0 00-.86-.35 1.21 1.21 0 00-1.2 1.22 1.2 1.2 0 00.67 1.07l0 9.16L94 69.84a.29.29 0 00-.13.24l0 4.43H95l0-4 4.65-3.11a.31.31 0 00.13-.25l-.06-9.59a1.17 1.17 0 00.66-1.07 1.2 1.2 0 00-.15-.59A1.05 1.05 0 00100 55.63zm-.55 1.65l-.11 0 0 9.79-4.78 3.2 0 3.83h-.38l0-4L99 66.92l0-9.59-.12 0a.85.85 0 01-.55-.79.83.83 0 01.24-.61.89.89 0 011.35.18.88.88 0 01.11.42A.84.84 0 0199.42 57.28zM122.13 51.29a1 1 0 00-.38 2l0 8L120 63a.08.08 0 000 .08L120.07 76l-1.61 1.62a.11.11 0 000 .08l0 5.56a.11.11 0 000 .09l1.73 1.31 0 10.21H121L121 84.31a.1.1 0 000-.09l-1.74-1.31 0-5 1.62-1.62a.19.19 0 000-.08l-.07-12.85 1.76-1.77a.11.11 0 000-.08l0-8.23a1 1 0 00.69-1 1.06 1.06 0 00-.13-.5A1 1 0 00122.13 51.29z"></path><path d="M122.13 51.11a1.21 1.21 0 00-1.2 1.21 1.18 1.18 0 00.65 1.06l0 7.8-1.7 1.72a.26.26 0 00-.08.21l.06 12.77-1.56 1.58a.28.28 0 00-.08.2l0 5.56a.31.31 0 00.12.23l1.67 1.26 0 10.3h1.08l0-10.7a.3.3 0 00-.11-.23l-1.67-1.26 0-4.83 1.56-1.57a.29.29 0 00.09-.21l-.07-12.78 1.71-1.72a.3.3 0 00.08-.2l0-8.11a1.2 1.2 0 00-.53-2.29zm.29 2l-.12 0 0 8.32-1.78 1.81.06 12.89L119 77.84 119 83l1.78 1.34 0 10.31h-.37l0-10.12-1.78-1.35 0-5.49L120.25 76l-.07-12.9 1.79-1.8 0-8.18-.11 0a.84.84 0 01-.53-.78.86.86 0 01.85-.86.85.85 0 01.28 1.66zM110 44.27l0-9a1 1 0 00.65-.94 1 1 0 00-1.93-.51 1.06 1.06 0 00-.13.5 1 1 0 00.68 1l0 9.18a.11.11 0 000 .08l1.75 1.77L111 57.79s-3.84 2.42-3.84 2.42l0 5.71-1.74 1.31a.14.14 0 00-.05.09l0 10.53H106l0-10.21 1.74-1.31a.1.1 0 000-.09l0-5.56 3.84-2.43.06-12.12a.11.11 0 000-.08z"></path><path d="M110.18 44.2l0-8.76a1.23 1.23 0 00.65-1.06 1.21 1.21 0 10-1.74 1.08l0 9.06a.25.25 0 00.08.21l1.7 1.72-.06 11.25c-.39.26-2.4 1.52-3.75 2.36l-.09 0 0 5.72-1.68 1.26a.3.3 0 00-.11.23l0 10.7h1.09l.05-10.3 1.67-1.26a.28.28 0 00.11-.23l0-5.46 3.84-2.43L112 46.12a.28.28 0 00-.08-.2zm1.37 13.95l-3.84 2.42 0 5.63-1.78 1.34-.05 10.13h-.37l0-10.31L107.31 66l0-5.7c3.84-2.39 3.84-2.39 3.84-2.52l.06-11.49-1.79-1.81 0-9.27-.12 0a.83.83 0 01-.56-.8.92.92 0 01.1-.41.87.87 0 01.75-.44.86.86 0 01.85.86.85.85 0 01-.53.78l-.12 0 0 9.14 1.78 1.81zM117.12 55.76a1 1 0 00-.91.52.91.91 0 00-.14.49 1 1 0 00.64 1l-.1 15.62-2.17 3.31 0-2a.08.08 0 000-.07L112 71l.07-3.84a1.66 1.66 0 00.88-.45 1.67 1.67 0 00.52-1.19 1.71 1.71 0 00-1.66-1.72 1.71 1.71 0 00-1.21.47 2.06 2.06 0 00-.29.37 1.68 1.68 0 00-.22.82 1.71 1.71 0 00.47 1.21 1.62 1.62 0 00.78.45l-.07 4.07a.07.07 0 000 .07l2.49 3.56 0 3-.08.11a.13.13 0 000 .06l-2.53 2.94a.19.19 0 000 .08l.07 15.13h.72l-.07-14.9 2.46-2.88.07 0 3-4.6a.11.11 0 000-.06l.11-15.89a1 1 0 00.69-.95 1 1 0 00-.29-.73A1 1 0 00117.12 55.76z"></path><path d="M117.1 55.58a1.2 1.2 0 00-1 .6 1.22 1.22 0 00-.17.59 1.2 1.2 0 00.64 1.09l-.1 15.44-1.79 2.75 0-1.41a.34.34 0 000-.17L112.15 71l.06-3.65a1.84 1.84 0 00.83-.46 1.86 1.86 0 000-2.65 1.9 1.9 0 00-1.34-.57 1.86 1.86 0 00-1.3.53 1.76 1.76 0 00-.32.4 1.8 1.8 0 00-.25.91 1.83 1.83 0 00.52 1.33 2 2 0 00.73.47l-.07 3.92a.25.25 0 000 .18l2.46 3.52 0 2.88 0 0a.25.25 0 000 .09L111 80.81a.26.26 0 00-.07.19L111 96.3H112l-.07-15 2.39-2.79a.26.26 0 00.11-.1l3-4.58a.25.25 0 00.06-.17l.11-15.77a1.22 1.22 0 00.69-1.07A1.18 1.18 0 00118 56 1.22 1.22 0 00117.1 55.58zm.28 2l-.11 0-.12 16-3 4.55-2.58 3L111.67 96h-.37L111.24 81l2.5-2.93.13-.22.06-3.1-2.52-3.58.08-4.2-.13 0a1.47 1.47 0 01-.7-.41 1.49 1.49 0 01-.42-1.08 1.46 1.46 0 01.2-.73 1.64 1.64 0 01.26-.33 1.52 1.52 0 011.08-.42h0a1.5 1.5 0 011 .46 1.5 1.5 0 010 2.14 1.43 1.43 0 01-.78.4l-.15 0-.07 4 2.51 3.57 0 2.65 2.53-3.87.11-15.79-.11 0a.84.84 0 01-.53-.8.84.84 0 01.87-.84h0a.83.83 0 01.59.26.81.81 0 01.24.61A.84.84 0 01117.38 57.59zM81.1 46.75a1.64 1.64 0 00-1.2-.48 1.74 1.74 0 00-1.19.52A1.69 1.69 0 0078.24 48a1.65 1.65 0 00.52 1.18 1.62 1.62 0 00.88.45l.07 3.84L77.21 57a.14.14 0 000 .07l0 2-2.16-3.31L75 40.21a1 1 0 00.65-1 1.12 1.12 0 00-.14-.49 1.06 1.06 0 00-.92-.52 1 1 0 00-.72.32 1.05 1.05 0 00-.29.73 1 1 0 00.69.95l.12 15.89s0 .05 0 .06l3 4.6a.13.13 0 00.07 0l2.46 2.88-.07 14.9h.73l.07-15.13a.09.09 0 000-.07l-2.52-2.95a.07.07 0 000-.06L78 60.28l0-3 2.49-3.56a.19.19 0 000-.07l-.07-4.06a1.78 1.78 0 00.78-.46 1.71 1.71 0 00.47-1.21 1.8 1.8 0 00-.23-.82A1.64 1.64 0 0081.1 46.75z"></path><path d="M81.22 46.62a1.85 1.85 0 00-1.32-.53h0A1.88 1.88 0 0078.06 48a1.84 1.84 0 00.57 1.31 1.89 1.89 0 00.83.46l.07 3.65-2.46 3.52a.27.27 0 00-.06.17l0 1.41-1.79-2.74-.11-15.45a1.2 1.2 0 00.64-1.09 1.15 1.15 0 00-.16-.58 1.24 1.24 0 00-1.07-.61h0a1.25 1.25 0 00-.85.37 1.27 1.27 0 00-.34.87 1.22 1.22 0 00.7 1.06l.11 15.77a.34.34 0 000 .16l3 4.59a.23.23 0 00.12.1l2.38 2.79-.07 15h1.09l.07-15.3a.34.34 0 00-.07-.19l-2.49-2.91s0-.06 0-.07l0-.07 0-2.88 2.46-3.52a.34.34 0 00.05-.17l-.07-3.93a1.91 1.91 0 00.72-.47 1.84 1.84 0 00.53-1.33 2 2 0 00-.25-.9A1.86 1.86 0 0081.22 46.62zM81 49a1.57 1.57 0 01-.7.41l-.14 0 .09 4.16-2.52 3.62 0 3.1.09.13v.05l2.55 3-.07 14.93H80l.07-14.72v-.07l-2.54-3h0l-3-4.55-.12-16-.12 0A.85.85 0 0174 38.67a.9.9 0 01.61-.26.84.84 0 01.74.43.93.93 0 01.12.41.86.86 0 01-.54.8l-.11 0 .11 15.74v.05l2.53 3.88-.06-2.62 2.53-3.61-.08-4.05-.14 0A1.5 1.5 0 0178.42 48a1.52 1.52 0 01.42-1.08 1.52 1.52 0 012.14 0 1.46 1.46 0 01.26.34 1.62 1.62 0 01.2.72A1.49 1.49 0 0181 49zM68.11 45.36a1 1 0 00-.91.51 1 1 0 00-.14.5 1 1 0 00.64 1L67.6 72.5l-2.17 3.31 0-2a.14.14 0 000-.07L58.9 68.17l0-3.86a1.7 1.7 0 001.4-1.63 1.69 1.69 0 00-2.86-1.25 1.48 1.48 0 00-.29.37 1.53 1.53 0 00-.23.82 1.67 1.67 0 00.47 1.2 1.78 1.78 0 00.78.46l0 4.08a.14.14 0 000 .06L64.74 74l-.06 3-.07.11a.13.13 0 000 .06l-2.53 2.95a.14.14 0 000 .07l.06 15.13h.73l-.07-14.9 2.46-2.88a.1.1 0 00.07 0l3-4.6a.08.08 0 000 0l.11-25.44a1 1 0 00-.32-2z"></path><path d="M68.09,45.18a1.23,1.23,0,0,0-1,.6,1.33,1.33,0,0,0-.16.59,1.18,1.18,0,0,0,.65,1.08l-.11,25-1.8,2.74,0-1.41a.34.34,0,0,0-.05-.17l-6.52-5.53,0-3.62a1.78,1.78,0,0,0,.82-.47,1.81,1.81,0,0,0,.58-1.31,1.87,1.87,0,0,0-3.17-1.38,2.15,2.15,0,0,0-.32.41,1.87,1.87,0,0,0,.27,2.23,1.8,1.8,0,0,0,.73.47l0,3.94a.34.34,0,0,0,0,.17l6.52,5.53,0,2.85,0,0a.36.36,0,0,0,0,.09L61.94,80a.26.26,0,0,0-.07.19l.07,15.3H63l-.07-15,2.39-2.79a.31.31,0,0,0,.11-.09l3-4.59a.23.23,0,0,0,.06-.16l.11-25.32a1.22,1.22,0,0,0,.69-1.07,1.16,1.16,0,0,0-.34-.86A1.22,1.22,0,0,0,68.09,45.18Zm.28,2-.12,0-.11,25.54-3,4.56-2.58,3,.07,14.79h-.37l-.06-14.93,2.5-2.93.13-.22.06-3.13-6.57-5.56,0-4.18-.13,0a1.47,1.47,0,0,1-.7-.41,1.52,1.52,0,0,1-.42-1.08,1.43,1.43,0,0,1,.2-.73,1.64,1.64,0,0,1,.26-.33,1.54,1.54,0,0,1,1.08-.42h0a1.5,1.5,0,0,1,1.48,1.54,1.52,1.52,0,0,1-.46,1.06,1.48,1.48,0,0,1-.79.39l-.15,0,0,4.09,6.56,5.56-.05,2.62,2.5-3.83,0,0,.11-25.33-.11,0a.85.85,0,0,1-.53-.81.78.78,0,0,1,.12-.41.85.85,0,0,1,.75-.42h0a.79.79,0,0,1,.59.26.81.81,0,0,1,.24.61A.84.84,0,0,1,68.37,47.19Z"></path><path fill="#fff" d="M62.21,60.77a3.62,3.62,0,1,1-3.62-3.62A3.62,3.62,0,0,1,62.21,60.77Z"></path><path d="M63.07,59.52l.77-.45a5.49,5.49,0,0,0-.48-1l-.84.29a4.19,4.19,0,0,0-.4-.54,5.21,5.21,0,0,0-.47-.47l.4-.8a5.81,5.81,0,0,0-1-.62l-.56.69a4.49,4.49,0,0,0-1.28-.38l-.09-.88a5.53,5.53,0,0,0-1.15,0l-.09.87a4.53,4.53,0,0,0-1.29.37l-.54-.67a5.81,5.81,0,0,0-1,.62l.37.76h0a4.66,4.66,0,0,0-.88,1L53.83,58a5,5,0,0,0-.48,1.05l.71.42a4.68,4.68,0,0,0-.2,1.34l-.79.19a5.59,5.59,0,0,0,.16,1.15l.81,0a4.6,4.6,0,0,0,.56,1.24l-.55.58c.11.16.23.31.35.46a5.44,5.44,0,0,0,.41.42l.65-.45a4.79,4.79,0,0,0,1.14.73l-.14.79a5.44,5.44,0,0,0,1.11.33l.3-.74a5.16,5.16,0,0,0,1.36,0l.31.76a5.41,5.41,0,0,0,1.11-.32l-.15-.82a4.42,4.42,0,0,0,1.12-.71l0,0,.69.49a5.15,5.15,0,0,0,.76-.86l-.58-.63a4.65,4.65,0,0,0,.56-1.22l.87,0a6.17,6.17,0,0,0,.17-1.13l-.85-.22A5,5,0,0,0,63.07,59.52Zm-4.58,4.42a3.17,3.17,0,1,1,3.27-3A3.16,3.16,0,0,1,58.49,63.94Z"></path><path fill="#fff" d="M102.65,54.77A3.62,3.62,0,1,1,99,51.15,3.61,3.61,0,0,1,102.65,54.77Z"></path><path d="M103.51,53.52l.77-.45a5.45,5.45,0,0,0-.47-1l-.85.29a3.43,3.43,0,0,0-.4-.54,3.48,3.48,0,0,0-.47-.47l.41-.8a5.89,5.89,0,0,0-1-.62l-.55.69a4.55,4.55,0,0,0-1.29-.38l-.08-.88a5.53,5.53,0,0,0-1.15,0l-.1.87a4.63,4.63,0,0,0-1.29.37l-.53-.67a5.89,5.89,0,0,0-1,.62l.38.76h0a4.66,4.66,0,0,0-.88,1L94.27,52a5.51,5.51,0,0,0-.47,1.05l.7.42a4.68,4.68,0,0,0-.2,1.34l-.78.19a5,5,0,0,0,.16,1.15l.8,0A4.93,4.93,0,0,0,95,57.37L94.5,58a5.07,5.07,0,0,0,.35.46,5.33,5.33,0,0,0,.4.42l.66-.45a4.6,4.6,0,0,0,1.14.73l-.15.79a5.44,5.44,0,0,0,1.11.33l.31-.74a5.16,5.16,0,0,0,1.36,0l.31.76a5.6,5.6,0,0,0,1.11-.32l-.15-.82a4.6,4.6,0,0,0,1.12-.71v0l.7.49a5.15,5.15,0,0,0,.76-.86l-.59-.63a4.35,4.35,0,0,0,.56-1.22l.87,0a4.83,4.83,0,0,0,.17-1.13l-.85-.22A4.58,4.58,0,0,0,103.51,53.52Zm-4.58,4.42a3.17,3.17,0,1,1,3.28-3A3.17,3.17,0,0,1,98.93,57.94Z"></path><path fill="#fff" d="M113.5,31.52a3.62,3.62,0,1,1-3.62-3.62A3.62,3.62,0,0,1,113.5,31.52Z"></path><path d="M114.36,30.27l.76-.45a5.45,5.45,0,0,0-.47-1.05l-.85.29a3.43,3.43,0,0,0-.4-.54,3.48,3.48,0,0,0-.47-.47l.41-.8a5.89,5.89,0,0,0-1-.62l-.55.69a4.49,4.49,0,0,0-1.28-.38l-.09-.88a5.53,5.53,0,0,0-1.15,0l-.09.87a4.53,4.53,0,0,0-1.29.37l-.54-.67a5.89,5.89,0,0,0-1,.62l.38.76h0a4.66,4.66,0,0,0-.88,1l-.79-.27a5.51,5.51,0,0,0-.47,1l.7.42a5.05,5.05,0,0,0-.2,1.34l-.78.19a5.59,5.59,0,0,0,.16,1.15l.8,0a4.63,4.63,0,0,0,.57,1.24l-.55.58a5.07,5.07,0,0,0,.35.46,5.33,5.33,0,0,0,.4.42l.66-.45a4.6,4.6,0,0,0,1.14.73l-.15.79a5.63,5.63,0,0,0,1.11.33l.31-.74a5.16,5.16,0,0,0,1.36,0l.31.76a5.6,5.6,0,0,0,1.11-.32l-.15-.82a4.6,4.6,0,0,0,1.12-.71l0,0,.69.49a5.15,5.15,0,0,0,.76-.86l-.58-.63a4.62,4.62,0,0,0,.55-1.22l.87,0a5.43,5.43,0,0,0,.18-1.13l-.86-.22A4.94,4.94,0,0,0,114.36,30.27Zm-4.59,4.42a3.17,3.17,0,1,1,3.28-3A3.17,3.17,0,0,1,109.77,34.69Z"></path><path fill="#fff" d="M78.26,37a3.62,3.62,0,1,1-3.62-3.62A3.62,3.62,0,0,1,78.26,37Z"></path><path d="M79.12,35.75l.77-.45a5.15,5.15,0,0,0-.48-1l-.84.28a5,5,0,0,0-.4-.54,5.21,5.21,0,0,0-.47-.47l.4-.8a5.81,5.81,0,0,0-1-.62l-.56.69a4.83,4.83,0,0,0-1.28-.38l-.09-.87a5.53,5.53,0,0,0-1.15,0l-.09.86a4.88,4.88,0,0,0-1.29.37l-.54-.67a5.29,5.29,0,0,0-1,.63l.38.75,0,0a4.61,4.61,0,0,0-.88,1l-.78-.27a5.49,5.49,0,0,0-.48,1l.71.42a4.73,4.73,0,0,0-.2,1.34l-.79.2a6.26,6.26,0,0,0,.16,1.14l.81,0a4.54,4.54,0,0,0,.56,1.23l-.55.59.35.46c.13.14.27.28.41.41l.65-.45a5.17,5.17,0,0,0,1.14.74l-.14.79a5.44,5.44,0,0,0,1.11.33l.31-.75a4.37,4.37,0,0,0,1.35,0l.31.76a5.39,5.39,0,0,0,1.11-.31l-.15-.82a4.45,4.45,0,0,0,1.12-.72h0l.69.49a5.15,5.15,0,0,0,.76-.87l-.58-.63a4.65,4.65,0,0,0,.56-1.22l.87,0a6.15,6.15,0,0,0,.17-1.14l-.85-.21A5,5,0,0,0,79.12,35.75Zm-4.58,4.42a3.16,3.16,0,1,1,3.27-3.05A3.16,3.16,0,0,1,74.54,40.17Z"></path><polygon fill="#fff" points="88.28 148.99 82.36 121.03 94 121.03 99.92 148.99 88.28 148.99"></polygon><path d="M93.79,121.28l5.82,27.46H88.48l-5.81-27.46Zm.41-.5H82.05l6,28.46h12.15l-6-28.46Z"></path><path d="M142.44,70.52q-48.9,2.2-97.85,0a2,2,0,0,0-2.13,2v60.53a2,2,0,0,0,2.13,2q48.9-2.22,97.85,0a2,2,0,0,0,2.13-2V72.55A2,2,0,0,0,142.44,70.52Z"></path><path fill="#fff" d="M141.69,72.32c-16,.71-32.19,1.07-48.17,1.07S61.33,73,45.34,72.32a1.06,1.06,0,0,0-1.11,1.06v58.87a1.05,1.05,0,0,0,1.11,1.06c16-.71,32.19-1.07,48.18-1.07s32.17.36,48.17,1.08h0a1.08,1.08,0,0,0,1.12-1.07V73.38A1.07,1.07,0,0,0,141.69,72.32Z"></path><path fill="#fff" d="M51,98.14q0-10.5,0-21,42.33,2,84.71,0,0,10.5-.05,21Q93.33,98.53,51,98.14Z"></path><path d="M135.46,77.41q0,10.25-.05,20.49-42.07.39-84.21,0,0-10.23,0-20.48,42.09,1.92,84.22,0Zm.5-.53-.5,0q-42.09,2-84.22,0l-.49,0c0,.16,0,.33,0,.49q0,10.26,0,20.51c0,.17,0,.33,0,.5h.51q42.08.38,84.21,0h.5v-.5q0-10.24.05-20.51v-.5Z"></path><path fill="#00a9ff" d="M135.42,95.44c-6.36-2.17-12.72-4.29-19.07-6.41Q108,91.91,99.58,94.65c-10.17-3.39-20.33-6.81-30.49-10.47-6,1.74-11.92,3.47-17.87,5.23q0,4.25,0,8.48,42.08.4,84.21,0C135.42,97.08,135.42,96.26,135.42,95.44Z"></path><path fill="#ffcf0b" d="M132.27,79.37q-9.39.38-18.77.56a1.32,1.32,0,0,0-1.31,1.29,1.25,1.25,0,0,0,1.3,1.24q9.39-.17,18.77-.5a1.35,1.35,0,0,0,1.3-1.34A1.24,1.24,0,0,0,132.27,79.37Z"></path><path d="M114 81.46a.21.21 0 00-.21.21.2.2 0 00.21.19.2.2 0 00.21-.2A.21.21 0 00114 81.46zM116 81.42a.2.2 0 00-.2.21.18.18 0 00.2.19.21.21 0 00.21-.2A.2.2 0 00116 81.42zM117.92 81.38a.2.2 0 00-.2.21.19.19 0 00.2.19.22.22 0 00.22-.2A.2.2 0 00117.92 81.38zM131.67 80a.51.51 0 00-.48.5.47.47 0 00.76.36h0a.4.4 0 00.14-.15.51.51 0 00.07-.24A.47.47 0 00131.67 80zm0 .76a.27.27 0 01-.28-.27.29.29 0 01.28-.28.26.26 0 01.28.26A.28.28 0 01131.67 80.77z"></path><path d="M131.88 80.8c.14.14.28.28.43.41l.14-.15-.43-.41zM82.08 123.43V124q4.14 0 8.26 0c0-.18 0-.35 0-.53C87.59 123.39 84.84 123.4 82.08 123.43zM82.08 125v.53q8.76-.1 17.52 0c0-.17 0-.35 0-.52Q90.85 124.92 82.08 125zM82.08 126.6v.53q6.93-.07 13.85-.06c0-.18 0-.35 0-.53Q89 126.53 82.08 126.6zM91.2 123.9h2.55c0-.17 0-.35 0-.52H91.21C91.21 123.55 91.2 123.73 91.2 123.9z"></path><path fill="#ffcf0b" d="M106.81,85.94A3.13,3.13,0,0,1,103.66,89a3.06,3.06,0,0,1-3.14-3,3.12,3.12,0,0,1,3.15-3A3,3,0,0,1,106.81,85.94Z"></path><path d="M76.39,126.1l.25-.24c-7.78-7.39-15.55-14.83-23.32-22.57l-.25.25C60.84,111.28,68.61,118.71,76.39,126.1Z"></path><path d="M53.32,126.75c7.77-8,15.54-15.69,23.32-23.22l-.25-.24c-7.77,7.53-15.55,15.18-23.32,23.23Z"></path><path d="M53.68 127c.56 0 .65-.15.65-.29s-.08-.25-.65-.23-.66.16-.66.28S53.1 127 53.68 127zM55.58 126.88c.58 0 .65-.15.65-.28s-.07-.25-.65-.23-.65.15-.65.28S55 126.9 55.58 126.88zM57.49 126.81c.57 0 .65-.14.65-.28s-.07-.25-.65-.23-.65.15-.65.28S56.92 126.83 57.49 126.81zM59.4 126.75c.57 0 .65-.15.65-.28s-.08-.25-.65-.23-.65.15-.65.27S58.83 126.76 59.4 126.75zM61.31 126.68c.57 0 .65-.14.65-.27s-.08-.25-.65-.23-.65.14-.65.27S60.74 126.7 61.31 126.68zM63.22 126.62c.57 0 .65-.14.65-.27s-.08-.25-.65-.23-.65.15-.65.27S62.65 126.64 63.22 126.62zM65.13 126.57c.57 0 .65-.14.65-.27s-.08-.25-.65-.24-.65.15-.65.27S64.56 126.58 65.13 126.57zM67 126.52c.57 0 .65-.14.65-.27S67.61 126 67 126s-.66.15-.65.27S66.46 126.53 67 126.52zM69 126.47c.57 0 .65-.14.65-.27S69.52 126 69 126s-.66.14-.66.26S68.37 126.48 69 126.47zM70.86 126.42c.57 0 .65-.13.65-.26s-.08-.25-.65-.24-.66.14-.66.27S70.28 126.44 70.86 126.42zM72.77 126.38c.57 0 .65-.13.65-.26s-.08-.25-.65-.24-.66.14-.66.27S72.19 126.39 72.77 126.38zM74.68 126.35c.57 0 .65-.14.65-.27s-.08-.24-.65-.23-.66.13-.66.26S74.1 126.36 74.68 126.35zM76.26 126.41l.13-.1h.38V126l.18-.17h-.18c0-.38-.15-.44-.26-.44s-.23.07-.25.48c-.19 0-.33.09-.33.23s.14.21.33.23zM76.51 124.78c.13 0 .26-.08.26-.64s-.13-.63-.26-.63-.26.09-.25.64S76.38 124.78 76.51 124.78zM76.51 122.93c.13 0 .26-.08.26-.63s-.13-.63-.26-.63-.26.08-.25.63S76.38 122.93 76.51 122.93zM76.51 121.08c.13 0 .26-.08.26-.63s-.13-.63-.26-.63-.25.08-.25.63S76.38 121.08 76.51 121.08zM76.51 119.23c.13 0 .26-.07.26-.63s-.13-.63-.26-.63-.25.08-.25.64S76.38 119.23 76.51 119.23zM76.51 117.39c.13 0 .26-.08.26-.64s-.13-.63-.26-.63-.25.08-.25.64S76.38 117.39 76.51 117.39zM76.51 115.54c.13 0 .26-.08.26-.64s-.13-.63-.26-.62-.25.07-.25.63S76.38 115.54 76.51 115.54zM76.51 113.69c.13 0 .26-.08.26-.63s-.13-.63-.26-.63-.25.08-.25.63S76.38 113.69 76.51 113.69zM76.51 111.84c.13 0 .26-.08.26-.63s-.13-.63-.26-.63-.26.08-.25.63S76.38 111.84 76.51 111.84zM76.51 110c.13 0 .26-.07.26-.63s-.13-.63-.26-.63-.26.08-.25.63S76.38 110 76.51 110zM76.51 108.15c.13 0 .26-.08.26-.64s-.13-.63-.26-.63-.25.08-.25.63S76.38 108.15 76.51 108.15zM76.51 106.3c.13 0 .26-.08.26-.63s-.13-.63-.26-.63-.25.07-.25.63S76.38 106.3 76.51 106.3zM76.51 104.45c.13 0 .26-.08.26-.63v0l.25 0c-.09-.09-.18-.17-.26-.26s0-.06 0-.08l0-.23-.22 0h0l-.13-.13 0 .18a.21.21 0 00-.12.17.19.19 0 00.07.14 1.21 1.21 0 000 .19C76.26 104.37 76.38 104.45 76.51 104.45zM74.94 103.74c.57 0 .65-.12.65-.25s-.08-.24-.65-.24-.66.12-.65.25S74.36 103.75 74.94 103.74zM73 103.75c.57 0 .65-.13.65-.25s-.08-.25-.65-.25-.65.12-.65.25S72.45 103.75 73 103.75zM71.12 103.75c.57 0 .65-.13.65-.25s-.08-.25-.65-.25-.65.12-.65.25S70.54 103.75 71.12 103.75zM69.21 103.75c.57 0 .65-.13.65-.25s-.08-.25-.65-.25-.65.12-.65.25S68.64 103.75 69.21 103.75zM67.3 103.75c.57 0 .65-.13.65-.25s-.08-.25-.65-.25-.65.12-.65.25S66.73 103.75 67.3 103.75zM65.39 103.75c.58 0 .65-.13.65-.25s-.08-.25-.65-.25-.65.12-.65.25S64.82 103.75 65.39 103.75zM63.48 103.75c.58 0 .65-.13.65-.25s-.08-.25-.65-.25-.65.12-.65.25S62.91 103.75 63.48 103.75zM61.57 103.75c.58 0 .66-.13.65-.25s-.08-.25-.65-.25-.65.12-.65.25S61 103.75 61.57 103.75zM59.66 103.75c.58 0 .65-.13.66-.25s-.08-.26-.66-.25-.65.12-.65.25S59.09 103.75 59.66 103.75zM57.75 103.75c.58 0 .66-.13.66-.25s-.08-.26-.66-.26-.65.13-.65.26S57.18 103.75 57.75 103.75zM55.85 103.76c.57 0 .65-.13.65-.26s-.08-.26-.65-.26-.66.13-.66.26S55.27 103.76 55.85 103.76zM53.94 103.76c.57 0 .65-.13.65-.26s-.08-.26-.65-.26-.65.13-.66.26S53.37 103.76 53.94 103.76zM53.2 105.31c.13 0 .25-.08.25-.65s-.12-.65-.25-.64-.26.07-.26.65S53.07 105.31 53.2 105.31zM53.2 107.22c.13 0 .25-.09.25-.66s-.12-.64-.25-.64-.26.08-.26.65S53.07 107.22 53.2 107.22zM53.2 109.12c.13 0 .25-.09.25-.65s-.12-.65-.25-.65-.26.08-.26.65S53.07 109.12 53.2 109.12zM53.2 111c.13 0 .25-.09.25-.66s-.12-.64-.25-.64-.26.08-.26.65S53.07 111 53.2 111zM53.2 112.92c.13 0 .25-.08.25-.66s-.12-.64-.25-.64-.26.08-.26.65S53.07 112.92 53.2 112.92zM53.2 114.82c.13 0 .25-.08.25-.65s-.12-.65-.25-.65-.26.08-.26.66S53.07 114.82 53.2 114.82zM53.2 116.72c.13 0 .25-.08.25-.65s-.12-.65-.25-.65-.26.08-.26.66S53.07 116.72 53.2 116.72zM53.2 118.62c.13 0 .25-.08.25-.65s-.12-.65-.25-.65-.26.09-.26.66S53.07 118.63 53.2 118.62zM53.2 120.52c.13 0 .25-.08.25-.65s-.12-.65-.25-.65-.26.09-.26.66S53.07 120.53 53.2 120.52zM53.2 122.42c.13 0 .25-.08.25-.65s-.12-.65-.25-.64-.26.08-.26.65S53.07 122.43 53.2 122.42zM53.2 124.32c.13 0 .25-.08.25-.65s-.12-.65-.25-.64-.26.08-.26.65S53.07 124.33 53.2 124.32zM53.2 126.22c.13 0 .25-.08.25-.65s-.12-.65-.25-.64-.26.08-.26.66S53.07 126.23 53.2 126.22z"></path><path fill="#fff" d="M52.33,127.38l1.73-.07v-1.72l-1.73.07Z"></path><path d="M52.16,125.49v2.07l2.08-.09v-2.06Zm1.72,1.65-1.37.06v-1.38l1.37,0Z"></path><path fill="#fff" d="M75.65,126.91l1.73,0v-1.67l-1.73,0Z"></path><path d="M75.47,125.08v2l2.08,0v-2Zm1.73,1.64-1.38,0v-1.33l1.38,0Z"></path><path fill="#fff" d="M52.33,104.19h1.73v-1.72H52.33Z"></path><path d="M53.24,104h0a.05.05,0,0,1,0,0v0Zm0,0h.05a.05.05,0,0,1,0,0v0Zm-1.06-1.72v2.07h2.08V102.3ZM53.88,104H52.51v-1.37h1.37Zm-.64,0h0a.05.05,0,0,1,0,0v0Zm0,0h0a.05.05,0,0,1,0,0v0Z"></path><path fill="#fff" d="M75.65,104.33h1.73v-1.67H75.65Z"></path><path d="M75.47,102.49v2h2.08v-2Zm1.73,1.67H75.82v-1.33H77.2Z"></path><path fill="#fff" d="M82,121.3q8.82-.08,17.64,0v-17H82Z"></path><path fill="#00a9ff" d="M98.11,120.1q-2.58-4.95-5.16-9.86c-1,2.07-2,4.15-3.08,6.22l-2.16-3.29-4.22,6.91Q90.8,120.05,98.11,120.1Z"></path><path fill="#ffcf0b" d="M88.5,109.09A1.15,1.15,0,1,0,89.63,108,1.13,1.13,0,0,0,88.5,109.09Z"></path><path d="M98.33,120.18l.16-.15c-5.08-4.91-10.16-9.77-15.24-14.66l-.16.16C88.17,110.42,93.25,115.28,98.33,120.18Z"></path><path d="M83.25,120.21c5.08-4.93,10.16-9.8,15.24-14.69l-.16-.15c-5.08,4.88-10.16,9.75-15.24,14.68Z"></path><path d="M83.48 120.35c.38 0 .43-.09.43-.17s0-.16-.43-.16-.42.09-.42.17S83.11 120.35 83.48 120.35zM84.73 120.34c.38 0 .43-.08.43-.17s-.06-.16-.43-.16-.42.09-.42.17S84.36 120.34 84.73 120.34zM86 120.33c.37 0 .42-.08.42-.17s0-.16-.42-.15-.43.08-.43.16S85.6 120.33 86 120.33zM87.23 120.32c.37 0 .42-.08.42-.16s-.05-.16-.42-.16-.43.08-.43.16S86.85 120.32 87.23 120.32zM88.47 120.32c.38 0 .43-.08.43-.17s-.05-.16-.43-.16-.42.09-.42.17S88.1 120.32 88.47 120.32zM89.72 120.31c.37 0 .43-.07.43-.16s-.05-.16-.43-.16-.42.08-.42.16S89.35 120.31 89.72 120.31zM91 120.31c.37 0 .43-.08.43-.16S91.34 120 91 120s-.43.08-.43.16S90.59 120.31 91 120.31zM92.22 120.31c.37 0 .42-.08.42-.16s0-.16-.42-.16-.43.08-.43.16S91.84 120.31 92.22 120.31zM93.46 120.31c.38 0 .43-.08.43-.16s0-.16-.43-.16-.42.08-.42.16S93.09 120.31 93.46 120.31zM94.71 120.31c.38 0 .43-.08.43-.16s0-.16-.43-.16-.43.08-.43.16S94.34 120.31 94.71 120.31zM96 120.31c.37 0 .42-.08.42-.16s0-.16-.42-.16-.43.08-.43.16S95.58 120.31 96 120.31zM97.21 120.31c.37 0 .42-.07.42-.16s0-.16-.42-.16-.43.08-.43.16S96.83 120.31 97.21 120.31zM98.24 120.38l.08-.07h.25a1.48 1.48 0 010-.21h0l.11-.11h-.12c0-.25-.09-.29-.16-.29s-.15 0-.17.31c-.12 0-.21 0-.21.15s.09.13.21.15zM98.41 119.32c.08 0 .17 0 .17-.41s-.09-.41-.17-.41-.17 0-.17.41S98.32 119.32 98.41 119.32zM98.41 118.12c.08 0 .17-.05.17-.41s-.09-.41-.17-.41-.17 0-.17.41S98.32 118.12 98.41 118.12zM98.41 116.92c.08 0 .17 0 .17-.41s-.09-.41-.17-.41-.17.05-.17.41S98.32 116.92 98.41 116.92zM98.41 115.72c.08 0 .17 0 .17-.41s-.09-.41-.17-.41-.17 0-.17.41S98.32 115.72 98.41 115.72zM98.41 114.52c.08 0 .17 0 .17-.41s-.09-.41-.17-.41-.17 0-.17.41S98.32 114.52 98.41 114.52zM98.41 113.32c.08 0 .17 0 .17-.41s-.09-.41-.17-.41-.17 0-.17.41S98.32 113.32 98.41 113.32zM98.41 112.12c.08 0 .17-.05.17-.41s-.09-.41-.17-.41-.17 0-.17.41S98.32 112.12 98.41 112.12zM98.41 110.92c.08 0 .17 0 .17-.41s-.09-.41-.17-.41-.17.05-.17.41S98.32 110.92 98.41 110.92zM98.41 109.72c.08 0 .17 0 .17-.41s-.09-.41-.17-.41-.17 0-.17.41S98.32 109.72 98.41 109.72zM98.41 108.52c.08 0 .17 0 .17-.41s-.09-.41-.17-.41-.17 0-.17.41S98.32 108.52 98.41 108.52zM98.41 107.32c.08 0 .17 0 .17-.41s-.09-.41-.17-.41-.17 0-.17.41S98.32 107.32 98.41 107.32zM97.38 105.66c.37 0 .43-.08.42-.16s0-.16-.42-.17-.43.08-.43.17S97 105.66 97.38 105.66zM96.13 105.66c.38 0 .43-.08.43-.16s0-.17-.43-.17-.43.08-.43.17S95.76 105.66 96.13 105.66zM94.88 105.66c.38 0 .43-.08.43-.16s0-.17-.43-.17-.42.08-.42.17S94.51 105.66 94.88 105.66zM93.64 105.66c.37 0 .42-.08.42-.16s0-.17-.42-.17-.43.08-.43.17S93.26 105.66 93.64 105.66zM92.39 105.66c.37 0 .42-.08.42-.16s0-.17-.42-.17-.43.08-.43.17S92 105.66 92.39 105.66zM91.14 105.66c.38 0 .43-.08.43-.16s-.06-.17-.43-.17-.43.08-.43.17S90.76 105.66 91.14 105.66zM89.89 105.66c.38 0 .43-.08.43-.16s0-.17-.43-.17-.42.08-.42.17S89.52 105.66 89.89 105.66zM88.65 105.66c.37 0 .42-.08.42-.16s0-.17-.42-.16-.43.07-.43.16S88.27 105.66 88.65 105.66zM87.4 105.66c.37 0 .43-.08.42-.16s0-.16-.42-.16-.43.07-.43.16S87 105.66 87.4 105.66zM86.15 105.66c.38 0 .43-.08.43-.16s-.06-.16-.43-.16-.43.07-.43.16S85.78 105.66 86.15 105.66zM84.9 105.66c.38 0 .43-.08.43-.16s0-.16-.43-.16-.42.08-.42.16S84.53 105.66 84.9 105.66zM83.66 105.66c.37 0 .42-.08.42-.16s0-.16-.42-.16-.43.08-.43.16S83.28 105.66 83.66 105.66zM83.17 106.65c.09 0 .17-.05.17-.41s-.08-.41-.17-.41-.17 0-.17.41S83.09 106.65 83.17 106.65zM83.17 107.85c.09 0 .17 0 .17-.41s-.08-.41-.17-.41-.17 0-.17.41S83.09 107.85 83.17 107.85zM83.17 109.05c.09 0 .17 0 .17-.41s-.08-.41-.17-.41-.17 0-.17.41S83.09 109.05 83.17 109.05zM83.17 110.25c.09 0 .17 0 .17-.41s-.08-.41-.17-.41-.17 0-.17.41S83.09 110.26 83.17 110.25zM83.17 111.46c.09 0 .17 0 .17-.41s-.08-.42-.17-.41-.17 0-.17.41S83.09 111.46 83.17 111.46zM83.17 112.66c.09 0 .17 0 .17-.41s-.08-.41-.17-.41-.17 0-.17.41S83.09 112.66 83.17 112.66zM83.17 113.86c.09 0 .17 0 .17-.41s-.08-.41-.17-.41-.17 0-.17.41S83.09 113.86 83.17 113.86zM83.17 115.06c.09 0 .17 0 .17-.41s-.08-.41-.17-.41-.17.05-.17.41S83.09 115.06 83.17 115.06zM83.17 116.27c.09 0 .17 0 .17-.42s-.08-.41-.17-.4-.17 0-.17.41S83.09 116.27 83.17 116.27zM83.17 117.47c.09 0 .17 0 .17-.41s-.08-.41-.17-.41-.17 0-.17.41S83.09 117.47 83.17 117.47zM83.17 118.67c.09 0 .17 0 .17-.41s-.08-.41-.17-.41-.17.05-.17.41S83.09 118.67 83.17 118.67zM83.17 119.87c.09 0 .17-.05.17-.41s-.08-.41-.17-.41-.17 0-.17.41S83.09 119.87 83.17 119.87z"></path><path d="M82.61,120.58h1.13v-1.09H82.61Z"></path><path d="M82.5 119.39v1.3h1.35v-1.3zm1.12 1.08h-.9v-.86h.9zM97.84 120.7H99v-1.08H97.84z"></path><path d="M97.73 119.5v1.3h1.36v-1.3zm1.13 1.09H98v-.87h.9zM82.61 105.94h1.13v-1.09H82.61z"></path><path d="M82.5 104.74v1.31h1.35v-1.31zm1.12 1.09h-.9V105h.9zM97.84 106H99V105H97.84z"></path><path d="M97.73 104.85v1.3h1.36v-1.3zm1.13 1.08H98v-.87h.9zM133.76 128.76l-.71 0v-.47h.23V128l.48 0zM131.13 128.18v.48l1 0v-.48zm-1.92-.07v.47l1 0v-.48zm-1.92-.07v.47l1 0v-.47zm-1.92-.07v.47l1 0V128zm-1.92-.06v.47l1 0v-.47zm-1.91-.06v.47l1 0v-.47zm-1.93 0v.46l1 0v-.47zm-1.91-.06v.47l1 0v-.46zm-1.92 0v.46l1 0v-.46zm-1.92 0v.47l1 0v-.46zm-1.92 0v.47l1 0v-.47zm-1.92 0V128l1 0v-.46zm-1.92 0V128h1v-.46zM107.14 128h-.71v-.69h.47v.23h.24zM106.43 125.44v.93h.47v-.92zm0-1.85v.92h.47v-.93zm0-1.86v.93h.47v-.93zm0-1.85v.93h.47v-.93zm0-1.85V119h.47V118zm0-1.86v.93h.47v-.93zm0-1.85v.93h.47v-.92zm0-1.85v.93h.47v-.93zm0-1.85v.92h.47v-.92zm0-1.86v.93h.47v-.93zm0-1.85v.93h.47v-.93zm0-1.85V106h.47v-.92zm0-1.86v.93h.47v-.93zM106.9 102.28h-.47v-.69h.71v.46h-.24zM131.13 101.54V102h1v-.47zm-1.92 0V102h1v-.47zm-1.92 0V102h1v-.47zm-1.92 0V102h1v-.46zm-1.92 0V102h1v-.47zm-1.91 0V102h1v-.46zm-1.93 0V102h1v-.46zm-1.91 0V102h1v-.47zm-1.92 0V102h1v-.46zm-1.92 0V102h1v-.46zm-1.92 0V102h1v-.46zm-1.92 0v.46h1v-.45zm-1.92 0v.46h1v-.46zM133.76 102.24h-.48V102h-.23v-.47h.71zM133.28 126.12v1l.48 0v-1zm0-1.9v1l.48 0v-1zm0-1.92v1l.48 0v-1zm0-1.91v1h.48v-1zm0-1.91v1h.48v-1zm0-1.91v1h.48v-1zm0-1.91v1h.48v-1zm0-1.9v.95h.48v-1zm0-1.92v1h.48v-1zm0-1.91v1h.48v-1zm0-1.91v1h.48v-1zm0-1.91v1h.48v-1zm0-1.91v1h.48v-1z"></path><path fill="#ffcf0b" d="M128.08,122.93q-2.49-6-5-11.87c-.32-.76-.63-1.51-1-2.26l-.9-2.12H119q-3.45,8-6.9,15.9l-1.27,0V123l4.14.07v-.44l-2,0,2.08-5,5.36.08,2,5.09-1.92,0v.44q4.42.1,8.84.24V123Zm-12.78-5.84c.85-2,1.7-4,2.55-6.06.78,2,1.57,4.08,2.35,6.14Z"></path><path fill="#fff" d="M105.73,128.65v-1.81l1.87,0v1.81Z"></path><path d="M105.59,126.7v2.08l2.15,0v-2.08Zm1.87,1.84-1.59,0V127l1.59,0C107.47,127.51,107.47,128,107.46,128.54Z"></path><path fill="#fff" d="M105.73,115.68v-1.8h1.87v1.81Z"></path><path d="M105.59,113.74v2.08h2.15v-2.07Zm1.87,1.82h-1.59V114h1.59C107.47,114.53,107.47,115.05,107.46,115.56Z"></path><path fill="#fff" d="M105.73,102.72v-1.8h1.87v1.81Z"></path><path d="M105.59,100.78v2.08h2.15v-2.08Zm1.87,1.81h-1.59v-1.54h1.59C107.47,101.56,107.47,102.08,107.46,102.59Z"></path><path fill="#fff" d="M132.59,129.41v-1.86l1.87.07v1.87Z"></path><path d="M132.45,127.4v2.14l2.15.09v-2.14Zm1.87,1.95-1.6-.07v-1.59l1.6.06Z"></path><path fill="#fff" d="M132.59,116.06v-1.87l1.87,0v1.87Z"></path><path d="M132.45,114.06v2.13l2.15,0V114.1Zm1.87,1.9-1.6,0v-1.59l1.6,0Z"></path><path fill="#fff" d="M132.59,102.71v-1.87h1.87v1.87Z"></path><path d="M132.45,100.71v2.14h2.15V100.7Zm1.87,1.86h-1.6V101h1.6Z"></path><path fill="#fff" d="M119.16,102.72v-1.83H121v1.84Z"></path><path d="M119,100.76v2.09h2.14v-2.1Zm1.87,1.82h-1.6V101h1.6Z"></path><path fill="#fff" d="M119.16,128.93V127.1l1.87.05V129Z"></path><path d="M119,127v2.1l2.14.06V127Zm1.87,1.88-1.6,0v-1.56l1.6,0Z"></path><rect width="115.37" height="1.15" x="41.09" y="151.15" fill="#0e0e27"></rect><path fill="#fff" d="M71.39,140.89c-4.62,0-8.37,2.53-8.37,5.64a4.26,4.26,0,0,0,.09.8H79.67a3.58,3.58,0,0,0,.1-.8C79.77,143.42,76,140.89,71.39,140.89Z"></path><path d="M71.39,140.66c-4.74,0-8.6,2.63-8.6,5.87a4.56,4.56,0,0,0,.09.85.23.23,0,0,0,.23.18H79.67a.23.23,0,0,0,.23-.18,3.9,3.9,0,0,0,.1-.85C80,143.29,76.14,140.66,71.39,140.66Zm8.09,6.44H63.31a3,3,0,0,1-.06-.57c0-3,3.65-5.4,8.14-5.4s8.15,2.42,8.15,5.4A3,3,0,0,1,79.48,147.1Z"></path><path fill="#fff" d="M125.11,83.07c-.45,1.05-1,4.37-.5,5.52s-2.13,4.94-2.13,6.34c0,.73,1.87.83,1.87.83s.75,8.58,5.8,6.64a28.77,28.77,0,0,1-1.15,4.11l11.14.09s-1.54-4.08-.54-5.7,4.12-2.25,4.12-8S129.74,72.27,125.11,83.07Z"></path><path d="M130,79c-2.29,0-4,1.33-5.14,4-.46,1.08-1,4.48-.51,5.71.22.55-.49,2.07-1.07,3.29a9.26,9.26,0,0,0-1.07,3c0,.79,1.32,1,1.89,1,.13,1.17,1,6.94,4.6,6.94a4.11,4.11,0,0,0,1.11-.17,34.8,34.8,0,0,1-1.07,3.68.2.2,0,0,0,0,.21.22.22,0,0,0,.18.1l11.15.09h0a.26.26,0,0,0,.19-.1.28.28,0,0,0,0-.22s-1.49-4-.56-5.48a5.57,5.57,0,0,1,1.1-1.15c1.29-1.11,3-2.65,3-6.94,0-2.12-1.88-5.58-4.69-8.6C136.11,81,132.76,79,130,79ZM140.6,99.53a6.11,6.11,0,0,0-1.2,1.25c-.89,1.44.06,4.57.41,5.58l-10.49-.08a28.09,28.09,0,0,0,1.07-3.84.23.23,0,0,0-.09-.22.24.24,0,0,0-.23,0,3.71,3.71,0,0,1-1.33.27c-3.53,0-4.15-6.64-4.15-6.71a.25.25,0,0,0-.22-.22c-.7,0-1.66-.26-1.66-.59a9.54,9.54,0,0,1,1-2.76c.71-1.51,1.38-2.93,1.09-3.66-.43-1.08.07-4.35.5-5.35,1-2.44,2.63-3.67,4.71-3.67,5.78,0,13.44,9.23,13.44,13.45S141.88,98.41,140.6,99.53Z"></path><path d="M134.31,87.9a2.91,2.91,0,0,0-1.83,2.54H133a2.41,2.41,0,0,1,1.51-2.1,1.28,1.28,0,0,1,1.49.42c1.13,1.36-.22,3.3-.24,3.32l.39.27c.06-.09,1.57-2.24.21-3.88A1.75,1.75,0,0,0,134.31,87.9Z"></path><path d="M134,88.2l-.17.44a1.13,1.13,0,0,1,.73.64,1.71,1.71,0,0,1-.14,1.19l.4.22a2.06,2.06,0,0,0,.18-1.57A1.56,1.56,0,0,0,134,88.2Z"></path><path fill="#fff" d="M81,139.74c-1-.36-5-3.94-6.81-4.48s-9.69,6.26-8.9,7.29c.43.56,5-1.94,5-1.94s-1.86,2.3-1,3.42c0,0-.9,1.8.08,2.77s26.76.32,26.76.32l-3.61-10.8S82,140.1,81,139.74Z"></path><path d="M92.8 136.25a.28.28 0 00-.12-.14.23.23 0 00-.18 0c-.1 0-9.66 3.43-11.33 3.43h-.11a16.1 16.1 0 01-2.32-1.59 20.64 20.64 0 00-4.5-2.89 1 1 0 00-.3 0c-2.07 0-7.9 5-8.81 6.84-.06.14-.27.56 0 .85a.5.5 0 00.43.18 14.86 14.86 0 004-1.61c-.47.79-1 2-.49 2.79-.19.46-.75 2 .18 2.91.18.18.61.6 11.11.6h0c7.31 0 15.73-.21 15.82-.21a.22.22 0 00.18-.1.24.24 0 000-.2zM80.37 147.1h0c-9.17 0-10.59-.33-10.78-.47-.84-.84 0-2.48 0-2.5a.23.23 0 000-.25c-.64-.79.47-2.52 1-3.12a.24.24 0 000-.3.25.25 0 00-.18-.08.2.2 0 00-.11 0c-1 .55-3.84 2-4.66 2h-.07a.77.77 0 01.1-.35c.92-1.86 6.68-6.58 8.39-6.58a.44.44 0 01.17 0 21.05 21.05 0 014.35 2.81A15.26 15.26 0 0080.9 140a.7.7 0 00.27 0c1.62 0 9.76-2.85 11.26-3.38l3.43 10.27C94.26 146.93 86.87 147.1 80.37 147.1zM142.84 76.43C140.85 70 129.26 74 129.26 74c-.32-.83.84-2.31.84-2.31a8.39 8.39 0 00-2.7 2.51 4.51 4.51 0 01.38-3.73 9.48 9.48 0 00-6.3 8.1c-.9 6.63 6.3 5.28 6.3 5.28 0 4.67 3.28 5.45 3.28 5.45s0-.54 1.57-2 6.2-.74 5.51 3.57c-.74 4.53-4.12 3.74-4.12 3.74-.38 7.27 5.15 4.7 5.15 4.7a6.69 6.69 0 00.77 2.83c2.32-4 8.76-6 8.76-16.7C148.7 77.57 142.84 76.43 142.84 76.43z"></path><path d="M143,76.23c-.83-2.47-3.09-3.72-6.72-3.72a25.33,25.33,0,0,0-6.87,1.15,3.89,3.89,0,0,1,.84-1.87l.59-.75-.87.4a7.78,7.78,0,0,0-2.52,2.22,4.46,4.46,0,0,1,.5-3.11l.31-.51-.57.16a9.82,9.82,0,0,0-6.47,8.3,5,5,0,0,0,.9,4.12,5.5,5.5,0,0,0,4.19,1.53,10.62,10.62,0,0,0,1.21-.07c.14,4.56,3.42,5.4,3.45,5.41l.31.09,0-.31s.07-.53,1.5-1.79a3,3,0,0,1,1.91-.61A3.43,3.43,0,0,1,137.29,88a3.48,3.48,0,0,1,.62,2.87c-.51,3.14-2.29,3.6-3.31,3.6a2.92,2.92,0,0,1-.52,0l-.28-.07v.28c-.11,2.1.26,3.61,1.09,4.49a3,3,0,0,0,2.25.9,6.08,6.08,0,0,0,1.83-.34,6.8,6.8,0,0,0,.78,2.61l.2.35.2-.35a15.89,15.89,0,0,1,2.76-3.21c2.69-2.64,6-5.92,6-13.61C148.94,78.15,143.93,76.48,143,76.23Zm-.46,22.48a18.55,18.55,0,0,0-2.61,2.94,6.7,6.7,0,0,1-.56-2.35V99l-.32.15a5.28,5.28,0,0,1-1.94.42h0a2.52,2.52,0,0,1-1.91-.75c-.71-.75-1-2.06-1-3.89l.36,0c.94,0,3.19-.39,3.77-4a3.89,3.89,0,0,0-.73-3.24,3.81,3.81,0,0,0-2.94-1.26,3.38,3.38,0,0,0-2.22.73A5.93,5.93,0,0,0,130.9,89c-.71-.27-2.88-1.38-2.88-5.16v-.29l-.28.06a8.76,8.76,0,0,1-1.4.11,5.07,5.07,0,0,1-3.83-1.37,4.6,4.6,0,0,1-.8-3.76,9.43,9.43,0,0,1,5.6-7.71,4.42,4.42,0,0,0-.13,3.4l.17.39.24-.35a10.35,10.35,0,0,1,1.75-1.89,2.17,2.17,0,0,0-.3,1.65l.09.21.21-.08a25.07,25.07,0,0,1,7-1.2c3.46,0,5.59,1.18,6.31,3.52l0,.13.14,0c.23,0,5.67,1.21,5.67,8.78S145.34,96,142.57,98.71Z"></path><path fill="#005fd7" d="M140.11,105.59c-2.94,0-10.06.3-11,.7s-8.45,0-12.06,1.43c-4.57,1.8-13.59,26.77-13.59,26.77l-18.75,2.3a1.3,1.3,0,0,0-1.12,1,45,45,0,0,0-1.3,9.5h43.42l28.16-33.44S148.12,105.59,140.11,105.59Z"></path><path fill="#005fd7" d="M139.62,105.53c-2.94,0-9.57.36-10.5.76s-8.45,0-12.06,1.43h0a13.27,13.27,0,0,1,7.2,11.37,10.94,10.94,0,0,1-.49,3.66h22.61l7.51-8.92S147.63,105.53,139.62,105.53Z"></path><path d="M72.76,138.18a.22.22,0,0,0-.18.27l.09.43a9.22,9.22,0,0,0-2.86,1.88.24.24,0,0,0,0,.33.27.27,0,0,0,.17.06.2.2,0,0,0,.16-.07A9.52,9.52,0,0,1,73,139.23a.24.24,0,0,0,.14-.26l-.13-.61A.24.24,0,0,0,72.76,138.18Z"></path><path fill="#fff" d="M125.58,87.39a3.41,3.41,0,0,0-2-1.06Z"></path><path d="M125 86.14a1.24 1.24 0 00-.66-.13 1.06 1.06 0 00-.7.32 2.71 2.71 0 00.39.6 1.33 1.33 0 00.38.31 1.37 1.37 0 00.47.15 4.13 4.13 0 00.71 0 1.06 1.06 0 00-.11-.78A1.2 1.2 0 00125 86.14zM124.13 96l.46 0a12.54 12.54 0 01.11-3.18l-.46-.11A12.74 12.74 0 00124.13 96z"></path><rect width="56.79" height="3.75" x="63.9" y="147.72"></rect><path d="M120.68,147.49H63.9a.24.24,0,0,0-.24.23v3.75a.23.23,0,0,0,.24.23h56.78a.23.23,0,0,0,.24-.23v-3.75A.24.24,0,0,0,120.68,147.49Zm-.23,3.75H64.13V148h56.32Z"></path><rect width="16.01" height="3.75" x="47.89" y="147.72" fill="#fff"></rect><path d="M63.9 147.49h-16a.24.24 0 00-.24.23v3.75a.23.23 0 00.24.23h16a.23.23 0 00.23-.23v-3.75A.23.23 0 0063.9 147.49zm-.24 3.75H48.12V148H63.66zM151 131.59c-.24 0-32.3 0-32.3 0L114 151.49h31.37a2.65 2.65 0 002.49-1.75c5.49-15.25 5.22-14.47 5.32-15.14A2.65 2.65 0 00151 131.59z"></path><path d="M151,131.36s-.12,0-8.51,0H118.69a.25.25,0,0,0-.23.18l-4.65,19.91a.24.24,0,0,0,.23.29h31.37a2.89,2.89,0,0,0,2.71-1.91l.24-.67c5-13.87,5-13.87,5.08-14.43v-.09a2.88,2.88,0,0,0-.54-2.14A2.82,2.82,0,0,0,151,131.36Zm2,3.2v.1c-.07.51-.11.64-5.05,14.33l-.24.67a2.42,2.42,0,0,1-2.27,1.6H114.33l4.54-19.44,23.64,0c6.79,0,8.35,0,8.44,0a2.4,2.4,0,0,1,2,2.74Z"></path><path fill="#fff" d="M119.33,131.59a2.64,2.64,0,0,0-3,2.22c0,.16.25-.6-5.06,14.13a2.66,2.66,0,0,0,1.6,3.4,2.77,2.77,0,0,0,.89.15,2.65,2.65,0,0,0,2.5-1.75c5.49-15.25,5.21-14.47,5.31-15.14A2.64,2.64,0,0,0,119.33,131.59Z"></path><path d="M119.37,131.36a2.87,2.87,0,0,0-3.28,2.45c0,.11-.43,1.25-3.63,10.12L111,147.87a2.85,2.85,0,0,0,.11,2.2,2.8,2.8,0,0,0,1.63,1.48,2.69,2.69,0,0,0,1,.18,2.9,2.9,0,0,0,2.72-1.91l.24-.67c5-13.87,5-13.87,5.07-14.43v-.09A2.87,2.87,0,0,0,119.37,131.36Zm2,3.2v.1c-.07.51-.12.64-5,14.33l-.24.67a2.43,2.43,0,0,1-2.28,1.6,2.51,2.51,0,0,1-.81-.14,2.41,2.41,0,0,1-1.37-1.25,2.38,2.38,0,0,1-.09-1.85l1.42-3.94c3.64-10.1,3.64-10.1,3.65-10.23a2.41,2.41,0,0,1,2.39-2.06l.36,0A2.41,2.41,0,0,1,121.33,134.56Z"></path><path d="M156.42,112.55c-.24,0-32.3,0-32.3,0l-4.65,19.9h31.37a2.65,2.65,0,0,0,2.49-1.75c5.5-15.25,5.22-14.47,5.32-15.14A2.65,2.65,0,0,0,156.42,112.55Z"></path><path d="M156.45,112.32s-.12,0-8.51,0H124.12a.24.24,0,0,0-.23.19l-4.65,19.9a.24.24,0,0,0,.23.29h31.37a2.89,2.89,0,0,0,2.71-1.91l.22-.6c5-13.94,5-13.94,5.1-14.5v-.08A2.88,2.88,0,0,0,156.45,112.32Zm2,3.21,0,.09c-.07.51-.11.64-5.07,14.4l-.22.6a2.42,2.42,0,0,1-2.27,1.6H119.77l4.54-19.44h32.08A2.43,2.43,0,0,1,158.42,115.53Z"></path><path fill="#fff" d="M124.77,112.55a2.65,2.65,0,0,0-3,2.23c0,.16.25-.61-5.06,14.13a2.66,2.66,0,0,0,1.6,3.39,2.79,2.79,0,0,0,.9.15,2.65,2.65,0,0,0,2.49-1.75c5.49-15.25,5.21-14.47,5.31-15.14A2.64,2.64,0,0,0,124.77,112.55Z"></path><path d="M124.8,112.32a2.86,2.86,0,0,0-3.28,2.45c0,.11-.42,1.23-3.56,9.93l-1.49,4.13a2.9,2.9,0,0,0,1.74,3.69,3,3,0,0,0,1,.17,2.89,2.89,0,0,0,2.71-1.91l.22-.6c5-13.94,5-13.94,5.09-14.5l0-.08A2.89,2.89,0,0,0,124.8,112.32Zm2,3.21v.09c-.07.51-.12.64-5.07,14.4l-.22.6a2.43,2.43,0,0,1-2.27,1.6,2.52,2.52,0,0,1-.82-.14,2.42,2.42,0,0,1-1.46-3.1l1.49-4.12c3.58-9.92,3.58-9.92,3.59-10a2.39,2.39,0,0,1,2.38-2.06,2.19,2.19,0,0,1,.36,0A2.42,2.42,0,0,1,126.76,115.53Z"></path></svg>