<svg xmlns="http://www.w3.org/2000/svg" enable-background="new 0 0 1500 1500" viewBox="0 0 1500 1500" id="order-checkout"><switch><g><path fill="#97d8f4" stroke="#000" stroke-linecap="round" stroke-linejoin="round" stroke-miterlimit="10" stroke-width="3" d="M162.14 971.37c.11.17.23.34.35.51.12-.17.24-.34.35-.51H162.14zM340.18 966.37c.11.17.23.34.35.51.13-.17.25-.34.36-.51H340.18zM509.23 966.37c.11.17.23.34.35.51.12-.17.24-.34.35-.51H509.23zM678.27 966.37c.11.17.23.34.35.51.12-.17.24-.34.35-.51H678.27z"></path><path fill="#97d8f4" stroke="#000" stroke-linecap="round" stroke-linejoin="round" stroke-miterlimit="10" stroke-width="3" d="M678.27,966.37c0.11,0.17,0.23,0.34,0.35,0.51c0.12-0.17,0.24-0.34,0.35-0.51H678.27z"></path><path fill="#97d8f4" stroke="#000" stroke-linecap="round" stroke-linejoin="round" stroke-miterlimit="10" stroke-width="3" d="M678.27 966.37c.11.17.23.34.35.51.12-.17.24-.34.35-.51H678.27zM509.23 966.37c.11.17.23.34.35.51.12-.17.24-.34.35-.51H509.23z"></path><path fill="#97d8f4" stroke="#000" stroke-linecap="round" stroke-linejoin="round" stroke-miterlimit="10" stroke-width="3" d="M509.23 966.37c.11.17.23.34.35.51.12-.17.24-.34.35-.51H509.23zM340.18 966.37c.11.17.23.34.35.51.13-.17.25-.34.36-.51H340.18z"></path><path fill="#97d8f4" stroke="#000" stroke-linecap="round" stroke-linejoin="round" stroke-miterlimit="10" stroke-width="3" d="M340.18 966.37c.11.17.23.34.35.51.13-.17.25-.34.36-.51H340.18zM162.14 971.37c.11.17.23.34.35.51.12-.17.24-.34.35-.51H162.14z"></path><path fill="#97d8f4" stroke="#000" stroke-linecap="round" stroke-linejoin="round" stroke-miterlimit="10" stroke-width="3" d="M162.14,971.37c0.11,0.17,0.23,0.34,0.35,0.51c0.12-0.17,0.24-0.34,0.35-0.51H162.14z"></path><path d="M628.04,1272.15l-457.06-2.54c-13.78-0.08-24.88-11.68-24.81-25.92l4.86-878.91c0.08-14.24,11.31-25.72,25.09-25.64
					l457.06,2.54c13.78,0.08,24.88,11.68,24.81,25.92l-4.86,878.91C653.05,1260.74,641.82,1272.22,628.04,1272.15z"></path><path fill="#97d8f4" stroke="#000" stroke-linecap="round" stroke-linejoin="round" stroke-miterlimit="10" stroke-width="3" d="M653.93,1272.3l-457.06-2.54c-13.78-0.08-24.88-11.68-24.81-25.92l4.86-878.91
					c0.08-14.24,11.31-25.72,25.09-25.64l457.06,2.54c13.78,0.08,24.88,11.68,24.81,25.92l-4.86,878.91
					C678.95,1260.89,667.71,1272.37,653.93,1272.3z"></path><path fill="#fff" stroke="#000" stroke-miterlimit="10" stroke-width="3" d="M651.71,398.68l-4.49,811.94c-0.07,12.79-10.15,23.09-22.52,23.02l-398.17-2.22
					c-12.37-0.07-22.34-10.48-22.27-23.27l4.49-811.94c0.07-12.79,10.15-23.09,22.53-23.02l111.9,0.62l1.68,14.36
					c-0.04,7.8,6.04,14.15,13.58,14.19l143.53,0.8c7.54,0.04,13.69-6.24,13.73-14.04l1.84-14.34l111.91,0.62
					C641.81,375.48,651.78,385.9,651.71,398.68z"></path><path fill="#fff" stroke="#000" stroke-linecap="round" stroke-linejoin="round" stroke-miterlimit="10" stroke-width="3" d="M517.57,461.13h748.81c15.39,0,27.86-12.47,27.86-27.86V255.56c0-15.39-12.47-27.86-27.86-27.86H517.57
				c-15.39,0-27.86,12.47-27.86,27.86v177.72C489.71,448.66,502.18,461.13,517.57,461.13z"></path><path fill="#010101" stroke="#000" stroke-linecap="round" stroke-linejoin="round" stroke-miterlimit="10" stroke-width="3" d="M357.7,795.87h748.81c15.39,0,27.86-12.47,27.86-27.86V590.29c0-15.39-12.47-27.86-27.86-27.86H357.7
				c-15.39,0-27.86,12.47-27.86,27.86v177.72C329.84,783.4,342.31,795.87,357.7,795.87z"></path><path fill="#fbbc3c" stroke="#000" stroke-linecap="round" stroke-linejoin="round" stroke-miterlimit="10" stroke-width="3" d="M577.17,1139.66h748.81c15.39,0,27.86-12.47,27.86-27.86V934.08c0-15.39-12.47-27.86-27.86-27.86H577.17
				c-15.39,0-27.86,12.47-27.86,27.86v177.72C549.31,1127.18,561.78,1139.66,577.17,1139.66z"></path><rect width="141.86" height="127.69" x="1105.55" y="280.57" fill="#fff" stroke="#000" stroke-linecap="round" stroke-linejoin="round" stroke-miterlimit="10" stroke-width="3" transform="rotate(-180 1176.478 344.419)"></rect><rect width="84.23" height="127.69" x="1021.32" y="280.57" fill="#fff" stroke="#000" stroke-linecap="round" stroke-linejoin="round" stroke-miterlimit="10" stroke-width="3" transform="rotate(-180 1063.431 344.419)"></rect><line x1="1105.55" x2="1105.55" y1="280.57" y2="408.27" fill="none" stroke="#010101" stroke-linecap="round" stroke-linejoin="round" stroke-miterlimit="10" stroke-width="4"></line><rect width="47.88" height="30.57" x="1153.43" y="280.62" fill="#010101" stroke="#000" stroke-linecap="round" stroke-linejoin="round" stroke-miterlimit="10" stroke-width="3" transform="rotate(-180 1177.365 295.902)"></rect><rect width="22.69" height="14.95" x="1033.73" y="373.74" fill="#010101" stroke="#000" stroke-linecap="round" stroke-linejoin="round" stroke-miterlimit="10" stroke-width="3" transform="rotate(-180 1045.075 381.21)"></rect><rect width="141.86" height="127.69" x="949.24" y="615.31" fill="#fff" stroke="#000" stroke-linecap="round" stroke-linejoin="round" stroke-miterlimit="10" stroke-width="3" transform="rotate(-180 1020.174 679.153)"></rect><rect width="84.23" height="127.69" x="865.01" y="615.31" fill="#fff" stroke="#000" stroke-linecap="round" stroke-linejoin="round" stroke-miterlimit="10" stroke-width="3" transform="rotate(-180 907.127 679.153)"></rect><line x1="949.24" x2="949.24" y1="615.31" y2="743" fill="none" stroke="#010101" stroke-linecap="round" stroke-linejoin="round" stroke-miterlimit="10" stroke-width="4"></line><rect width="47.88" height="30.57" x="997.12" y="615.35" fill="#010101" stroke="#000" stroke-linecap="round" stroke-linejoin="round" stroke-miterlimit="10" stroke-width="3" transform="rotate(-180 1021.06 630.636)"></rect><rect width="22.69" height="14.95" x="877.42" y="708.47" fill="#010101" stroke="#000" stroke-linecap="round" stroke-linejoin="round" stroke-miterlimit="10" stroke-width="3" transform="rotate(-180 888.77 715.944)"></rect><rect width="141.86" height="127.69" x="1162.07" y="959.09" fill="#fff" stroke="#000" stroke-linecap="round" stroke-linejoin="round" stroke-miterlimit="10" stroke-width="3" transform="rotate(-180 1233 1022.941)"></rect><rect width="84.23" height="127.69" x="1077.84" y="959.09" fill="#fff" stroke="#000" stroke-linecap="round" stroke-linejoin="round" stroke-miterlimit="10" stroke-width="3" transform="rotate(-180 1119.953 1022.941)"></rect><line x1="1162.07" x2="1162.07" y1="959.09" y2="1086.79" fill="none" stroke="#010101" stroke-linecap="round" stroke-linejoin="round" stroke-miterlimit="10" stroke-width="4"></line><rect width="47.88" height="30.57" x="1209.95" y="959.14" fill="#010101" stroke="#000" stroke-linecap="round" stroke-linejoin="round" stroke-miterlimit="10" stroke-width="3" transform="rotate(-180 1233.887 974.424)"></rect><rect width="22.69" height="14.95" x="1090.25" y="1052.26" fill="#010101" stroke="#000" stroke-linecap="round" stroke-linejoin="round" stroke-miterlimit="10" stroke-width="3" transform="rotate(-180 1101.597 1059.733)"></rect><rect width="145.07" height="30.61" x="549.31" y="286.57" fill="#fbbc3c" stroke="#000" stroke-linecap="round" stroke-linejoin="round" stroke-miterlimit="10" stroke-width="3" transform="rotate(-180 621.842 301.88)"></rect><line x1="949.24" x2="549.31" y1="357.2" y2="357.2" fill="#fff" stroke="#000" stroke-linecap="round" stroke-linejoin="round" stroke-miterlimit="10" stroke-width="3"></line><line x1="949.24" x2="549.31" y1="393.35" y2="393.35" fill="#fff" stroke="#000" stroke-linecap="round" stroke-linejoin="round" stroke-miterlimit="10" stroke-width="3"></line><rect width="145.07" height="30.61" x="387.76" y="621.31" fill="#fff" stroke="#000" stroke-linecap="round" stroke-linejoin="round" stroke-miterlimit="10" stroke-width="3" transform="rotate(-180 460.298 636.613)"></rect><line x1="786.99" x2="387.05" y1="691.93" y2="691.93" fill="none" stroke="#fff" stroke-miterlimit="10" stroke-width="4"></line><line x1="786.99" x2="387.05" y1="728.08" y2="728.08" fill="none" stroke="#fff" stroke-miterlimit="10" stroke-width="4"></line><g><rect width="145.07" height="30.61" x="606.63" y="967.39" fill="#010101" stroke="#000" stroke-linecap="round" stroke-linejoin="round" stroke-miterlimit="10" stroke-width="3" transform="rotate(-180 679.161 982.696)"></rect><line x1="1006.56" x2="606.63" y1="1038.01" y2="1038.01" fill="#fff" stroke="#000" stroke-linecap="round" stroke-linejoin="round" stroke-miterlimit="10" stroke-width="3"></line><line x1="1006.56" x2="606.63" y1="1074.17" y2="1074.17" fill="#fff" stroke="#000" stroke-linecap="round" stroke-linejoin="round" stroke-miterlimit="10" stroke-width="3"></line></g><polyline fill="none" stroke="#010101" stroke-linecap="round" stroke-linejoin="round" stroke-miterlimit="10" stroke-width="4" points="1338.5 372.29 1338.5 689.68 1177.36 689.68"></polyline><circle cx="1338.96" cy="362.61" r="10.59" fill="#fbbc3c" stroke="#000" stroke-linecap="round" stroke-linejoin="round" stroke-miterlimit="10" stroke-width="3"></circle><circle cx="1172.66" cy="689.68" r="10.59" fill="#97d8f4" stroke="#000" stroke-linecap="round" stroke-linejoin="round" stroke-miterlimit="10" stroke-width="3"></circle><polyline fill="none" stroke="#010101" stroke-linecap="round" stroke-linejoin="round" stroke-miterlimit="10" stroke-width="4" points="433.12 822.16 433.12 1025.78 517.64 1025.78"></polyline><circle cx="433.12" cy="822.16" r="10.59" fill="#fbbc3c" stroke="#000" stroke-linecap="round" stroke-linejoin="round" stroke-miterlimit="10" stroke-width="3"></circle><circle cx="517.64" cy="1025.78" r="10.59" fill="#010101" stroke="#000" stroke-linecap="round" stroke-linejoin="round" stroke-miterlimit="10" stroke-width="3"></circle></g></switch></svg>