<svg xmlns="http://www.w3.org/2000/svg" enable-background="new 0 0 1500 1500" viewBox="0 0 1500 1500" id="smart-drone-delivery"><switch><g><path fill="#fff" stroke="#000" stroke-linecap="round" stroke-linejoin="round" stroke-miterlimit="10" stroke-width="3" d="M861.29,280.09h154.48c1.52-3.18,2.37-6.73,2.37-10.48c0-13.39-10.85-24.24-24.24-24.24
			c-2.25,0-4.42,0.3-6.48,0.88c-4.42-17.45-20.23-30.36-39.07-30.36c-18.8,0-34.6,12.88-39.04,30.3c-2.62-0.54-5.34-0.82-8.12-0.82
			C880.84,245.37,864,260.46,861.29,280.09z"></path><rect width="37.66" height="47.74" x="130.61" y="1278.39" fill="#fff"></rect><path fill="#fff" stroke="#000" stroke-linecap="round" stroke-linejoin="round" stroke-miterlimit="10" stroke-width="3" d="M149.44,1302.26v-612.9h237.08v605.28h69.99V956.17h376.72v346.09h205.99V472.68h0.82
			c155.15,0,280.92,125.77,280.92,280.92v548.66"></path><line x1="227" x2="227" y1="750" y2="1224.85" fill="#fff" stroke="#000" stroke-linecap="round" stroke-linejoin="round" stroke-miterlimit="10" stroke-width="3"></line><line x1="313.87" x2="313.87" y1="750" y2="1224.85" fill="#fff" stroke="#000" stroke-linecap="round" stroke-linejoin="round" stroke-miterlimit="10" stroke-width="3"></line><path fill="#fff" stroke="#000" stroke-linecap="round" stroke-linejoin="round" stroke-miterlimit="10" stroke-width="3" d="M290.09 281.39l131.81-23.94-73.46 34.17c-11.37 5.29-24.24 6.42-36.37 3.2l-20.54-5.46L290.09 281.39zM265.6 286.59l-131.81 23.94 80.78 6.15c12.51.95 24.95-2.51 35.17-9.79l17.31-12.33L265.6 286.59zM715.43 204.13l131.81-23.94-73.46 34.17c-11.37 5.29-24.24 6.42-36.37 3.2l-20.54-5.46L715.43 204.13zM690.93 209.33l-131.81 23.94 80.78 6.15c12.51.95 24.95-2.51 35.17-9.79l17.31-12.33L690.93 209.33z"></path><polyline fill="none" stroke="#010101" stroke-linecap="round" stroke-linejoin="round" stroke-miterlimit="10" stroke-width="4" points="432.1 313.58 462.38 336.13 544.22 321.27 561.74 290.03"></polyline><polyline fill="none" stroke="#010101" stroke-linecap="round" stroke-linejoin="round" stroke-miterlimit="10" stroke-width="4" points="402.13 420.4 462.38 336.13 544.22 321.27 631.65 378.33"></polyline><rect width="396.02" height="12.15" x="299.05" y="269.71" fill="#97d8f4" stroke="#000" stroke-linecap="round" stroke-linejoin="round" stroke-miterlimit="10" stroke-width="3" transform="rotate(-10.295 497.135 275.828)"></rect><rect width="39.01" height="16.19" x="257.91" y="275.6" fill="#fff" stroke="#000" stroke-linecap="round" stroke-linejoin="round" stroke-miterlimit="10" stroke-width="3" transform="rotate(-10.295 277.46 283.743)"></rect><rect width="47.85" height="34.6" x="258.03" y="291.38" fill="#97d8f4" stroke="#000" stroke-linecap="round" stroke-linejoin="round" stroke-miterlimit="10" stroke-width="3" transform="rotate(-10.295 282 308.734)"></rect><rect width="39.01" height="16.19" x="683.25" y="198.33" fill="#fff" stroke="#000" stroke-linecap="round" stroke-linejoin="round" stroke-miterlimit="10" stroke-width="3" transform="rotate(-10.295 702.865 206.47)"></rect><rect width="47.85" height="34.6" x="683.37" y="214.12" fill="#97d8f4" stroke="#000" stroke-linecap="round" stroke-linejoin="round" stroke-miterlimit="10" stroke-width="3" transform="rotate(-10.295 707.404 231.46)"></rect><path fill="#97d8f4" stroke="#000" stroke-linecap="round" stroke-linejoin="round" stroke-miterlimit="10" stroke-width="3" d="M542.13,252.11l-102.12,18.55l0,0c-2.69-14.8,7.13-28.98,21.93-31.67l48.52-8.81
				C525.27,227.49,539.45,237.31,542.13,252.11L542.13,252.11z"></path><path fill="#fff" stroke="#000" stroke-linecap="round" stroke-linejoin="round" stroke-miterlimit="10" stroke-width="3" d="M504.24,323.29L504.24,323.29c-9.62,1.75-18.84-4.64-20.59-14.26l-4.86-26.75l34.85-6.33l4.86,26.75
				C520.25,312.32,513.86,321.54,504.24,323.29z"></path><rect width="134.71" height="27.24" x="426.02" y="260.4" fill="#97d8f4" stroke="#000" stroke-linecap="round" stroke-linejoin="round" stroke-miterlimit="10" stroke-width="3" transform="rotate(-10.295 493.448 274.066)"></rect><path fill="#fff" stroke="#000" stroke-linecap="round" stroke-linejoin="round" stroke-miterlimit="10" stroke-width="3" d="M567.4,292.37L429.07,317.5c-4.8,0.87-9.4-2.31-10.27-7.11l0,0c-0.87-4.8,2.31-9.4,7.11-10.27l138.33-25.13
				c4.8-0.87,9.4,2.31,10.27,7.11l0,0C575.39,286.9,572.2,291.49,567.4,292.37z"></path><rect width="254.33" height="228.92" x="338.43" y="410.74" fill="#fbbc3c" transform="rotate(-10.295 465.665 525.29)"></rect><rect width="254.33" height="228.92" x="338.43" y="410.74" fill="none" stroke="#000" stroke-linecap="round" stroke-linejoin="round" stroke-miterlimit="10" stroke-width="3" transform="rotate(-10.295 465.665 525.29)"></rect><rect width="151.01" height="228.92" x="589.49" y="374.52" fill="#fbbc3c" transform="rotate(-10.295 665.1 489.063)"></rect><rect width="151.01" height="228.92" x="589.49" y="374.52" fill="none" stroke="#000" stroke-linecap="round" stroke-linejoin="round" stroke-miterlimit="10" stroke-width="3" transform="rotate(-10.295 665.1 489.063)"></rect><line x1="570.25" x2="611.17" y1="389.86" y2="615.09" fill="#fff"></line><line x1="570.25" x2="611.17" y1="389.86" y2="615.09" fill="none" stroke="#000" stroke-linecap="round" stroke-linejoin="round" stroke-miterlimit="10" stroke-width="3"></line><rect width="85.83" height="54.8" x="405.57" y="412.51" fill="#010101" transform="rotate(-10.295 448.553 439.982)"></rect><rect width="85.83" height="54.8" x="405.57" y="412.51" fill="none" stroke="#000" stroke-linecap="round" stroke-linejoin="round" stroke-miterlimit="10" stroke-width="3" transform="rotate(-10.295 448.553 439.982)"></rect><rect width="40.68" height="26.8" x="688.82" y="534.59" fill="#010101" transform="rotate(-10.295 709.275 548.087)"></rect><rect width="40.68" height="26.8" x="688.82" y="534.59" fill="none" stroke="#000" stroke-linecap="round" stroke-linejoin="round" stroke-miterlimit="10" stroke-width="3" transform="rotate(-10.295 709.275 548.087)"></rect><path fill="#fff" stroke="#000" stroke-linecap="round" stroke-linejoin="round" stroke-miterlimit="10" stroke-width="3" d="M583.37 760.57H436.18c-1.45-3.03-2.26-6.41-2.26-9.99 0-12.75 10.34-23.09 23.09-23.09 2.14 0 4.21.29 6.17.84 4.21-16.63 19.27-28.93 37.22-28.93 17.91 0 32.96 12.28 37.2 28.87 2.5-.51 5.08-.78 7.74-.78C564.74 727.49 580.78 741.87 583.37 760.57zM622.58 1043H499.83c-1.75 0-3.17-1.42-3.17-3.17v-29.74c0-1.75 1.42-3.17 3.17-3.17h122.75c1.75 0 3.17 1.42 3.17 3.17v29.74C625.75 1041.58 624.33 1043 622.58 1043zM792.57 1043H669.83c-1.75 0-3.17-1.42-3.17-3.17v-29.74c0-1.75 1.42-3.17 3.17-3.17h122.75c1.75 0 3.17 1.42 3.17 3.17v29.74C795.74 1041.58 794.32 1043 792.57 1043zM622.58 1118.47H499.83c-1.75 0-3.17-1.42-3.17-3.17v-29.74c0-1.75 1.42-3.17 3.17-3.17h122.75c1.75 0 3.17 1.42 3.17 3.17v29.74C625.75 1117.05 624.33 1118.47 622.58 1118.47zM792.57 1118.47H669.83c-1.75 0-3.17-1.42-3.17-3.17v-29.74c0-1.75 1.42-3.17 3.17-3.17h122.75c1.75 0 3.17 1.42 3.17 3.17v29.74C795.74 1117.05 794.32 1118.47 792.57 1118.47zM622.58 1192.82H499.83c-1.75 0-3.17-1.42-3.17-3.17v-29.74c0-1.75 1.42-3.17 3.17-3.17h122.75c1.75 0 3.17 1.42 3.17 3.17v29.74C625.75 1191.4 624.33 1192.82 622.58 1192.82zM792.57 1192.82H669.83c-1.75 0-3.17-1.42-3.17-3.17v-29.74c0-1.75 1.42-3.17 3.17-3.17h122.75c1.75 0 3.17 1.42 3.17 3.17v29.74C795.74 1191.4 794.32 1192.82 792.57 1192.82z"></path><polyline fill="#fff" stroke="#000" stroke-linecap="round" stroke-linejoin="round" stroke-miterlimit="10" stroke-width="3" points="1109.34 1302.26 1109.34 664.85 1138.92 664.85 1138.92 1302.26"></polyline><polyline fill="#fff" stroke="#000" stroke-linecap="round" stroke-linejoin="round" stroke-miterlimit="10" stroke-width="3" points="1210.24 1302.26 1210.24 664.85 1239.82 664.85 1239.82 1302.26"></polyline><g><path fill="#fff" stroke="#000" stroke-linecap="round" stroke-linejoin="round" stroke-miterlimit="10" stroke-width="3" d="M809.77 724.21l89.51 21.09-55.6 1.35c-8.61.21-17.02-2.61-23.76-7.96l-11.43-9.07L809.77 724.21zM792.93 720.77l-89.51-21.09 49.15 26.03c7.61 4.03 16.39 5.26 24.82 3.48l14.27-3.01L792.93 720.77zM1098.62 792.26l89.51 21.09-55.6 1.35c-8.61.21-17.02-2.61-23.76-7.96l-11.43-9.07L1098.62 792.26zM1081.78 788.81l-89.51-21.09 49.15 26.03c7.61 4.03 16.39 5.26 24.82 3.48l14.27-3.01L1081.78 788.81z"></path><polyline fill="none" stroke="#010101" stroke-linecap="round" stroke-linejoin="round" stroke-miterlimit="10" stroke-width="4" points="890.31 783.42 903.18 805.92 958.75 819.01 978.35 804.16"></polyline><polyline fill="none" stroke="#010101" stroke-linecap="round" stroke-linejoin="round" stroke-miterlimit="10" stroke-width="4" points="842.15 842.41 903.18 805.92 958.75 819.01 998.12 878.9"></polyline><rect width="271.85" height="8.34" x="805.62" y="773.28" fill="#97d8f4" stroke="#000" stroke-linecap="round" stroke-linejoin="round" stroke-miterlimit="10" stroke-width="3" transform="rotate(13.255 941.518 777.424)"></rect><rect width="26.78" height="11.12" x="787.78" y="716.63" fill="#fff" stroke="#000" stroke-linecap="round" stroke-linejoin="round" stroke-miterlimit="10" stroke-width="3" transform="rotate(13.255 801.14 722.163)"></rect><rect width="32.84" height="23.75" x="780.75" y="727.28" fill="#97d8f4" stroke="#000" stroke-linecap="round" stroke-linejoin="round" stroke-miterlimit="10" stroke-width="3" transform="rotate(13.255 797.142 739.13)"></rect><rect width="26.78" height="11.12" x="1076.62" y="784.67" fill="#fff" stroke="#000" stroke-linecap="round" stroke-linejoin="round" stroke-miterlimit="10" stroke-width="3" transform="rotate(13.255 1089.973 790.204)"></rect><rect width="32.84" height="23.75" x="1069.59" y="795.32" fill="#97d8f4" stroke="#000" stroke-linecap="round" stroke-linejoin="round" stroke-miterlimit="10" stroke-width="3" transform="rotate(13.255 1085.976 807.171)"></rect><path fill="#97d8f4" stroke="#000" stroke-linecap="round" stroke-linejoin="round" stroke-miterlimit="10" stroke-width="3" d="M976.41,774.92l-69.35-16.34l0,0c2.37-10.05,12.43-16.28,22.48-13.91l32.95,7.76
				C972.55,754.8,978.78,764.87,976.41,774.92L976.41,774.92z"></path><path fill="#fff" stroke="#000" stroke-linecap="round" stroke-linejoin="round" stroke-miterlimit="10" stroke-width="3" d="M933.04,809.32L933.04,809.32c-6.54-1.54-10.59-8.09-9.05-14.62l4.28-18.17l23.67,5.58l-4.28,18.17
				C946.12,806.81,939.57,810.86,933.04,809.32z"></path><rect width="92.47" height="18.7" x="893.48" y="765.98" fill="#97d8f4" stroke="#000" stroke-linecap="round" stroke-linejoin="round" stroke-miterlimit="10" stroke-width="3" transform="rotate(13.255 939.682 775.305)"></rect><path fill="#fff" stroke="#000" stroke-linecap="round" stroke-linejoin="round" stroke-miterlimit="10" stroke-width="3" d="M981.27,807.18l-93.94-22.13c-3.26-0.77-5.28-4.03-4.51-7.29l0,0c0.77-3.26,4.03-5.28,7.29-4.51l93.94,22.13
				c3.26,0.77,5.28,4.03,4.51,7.29l0,0C987.79,805.93,984.53,807.95,981.27,807.18z"></path><rect width="157.14" height="174.58" x="774.77" y="838.48" fill="#fbbc3c" transform="rotate(-76.745 853.299 925.732)"></rect><rect width="157.14" height="174.58" x="774.77" y="838.48" fill="none" stroke="#000" stroke-linecap="round" stroke-linejoin="round" stroke-miterlimit="10" stroke-width="3" transform="rotate(-76.745 853.299 925.732)"></rect><rect width="157.14" height="103.66" x="910.18" y="905.84" fill="#fbbc3c" transform="rotate(-76.745 988.706 957.63)"></rect><rect width="157.14" height="103.66" x="910.18" y="905.84" fill="none" stroke="#000" stroke-linecap="round" stroke-linejoin="round" stroke-miterlimit="10" stroke-width="3" transform="rotate(-76.745 988.706 957.63)"></rect><line x1="956.32" x2="920.29" y1="869.31" y2="1022.27" fill="#fff"></line><line x1="956.32" x2="920.29" y1="869.31" y2="1022.27" fill="none" stroke="#000" stroke-linecap="round" stroke-linejoin="round" stroke-miterlimit="10" stroke-width="3"></line><rect width="37.62" height="58.92" x="847.16" y="837.95" fill="#010101" transform="rotate(-76.745 865.927 867.368)"></rect><rect width="37.62" height="58.92" x="847.16" y="837.95" fill="none" stroke="#000" stroke-linecap="round" stroke-linejoin="round" stroke-miterlimit="10" stroke-width="3" transform="rotate(-76.745 865.927 867.368)"></rect><g><rect width="18.4" height="27.92" x="991.16" y="992.96" fill="#010101" transform="rotate(-76.745 1000.312 1006.878)"></rect><rect width="18.4" height="27.92" x="991.16" y="992.96" fill="none" stroke="#000" stroke-linecap="round" stroke-linejoin="round" stroke-miterlimit="10" stroke-width="3" transform="rotate(-76.745 1000.312 1006.878)"></rect></g></g><path fill="#97d8f4" stroke="#000" stroke-linecap="round" stroke-linejoin="round" stroke-miterlimit="10" stroke-width="3" d="M1174.85,336.13c-20.81,0-36.2,17.06-36.2,36.13c0,4.67,0.93,9.47,2.92,14.16l33.28,78.35l33.28-78.35
			C1218.26,362.57,1200.76,336.13,1174.85,336.13z M1174.85,389.7c-8.28,0-15-6.71-15-14.99c0-8.29,6.72-15,15-15s15,6.71,15,15
			C1189.85,382.99,1183.13,389.7,1174.85,389.7z"></path><path fill="#010101" stroke="#000" stroke-linecap="round" stroke-linejoin="round" stroke-miterlimit="10" stroke-width="3" d="M650.68,799.7c-20.81,0-36.2,17.06-36.2,36.13c0,4.67,0.93,9.47,2.92,14.16l33.28,78.35l33.28-78.35
			C694.09,826.14,676.59,799.7,650.68,799.7z M650.68,853.27c-8.28,0-15-6.71-15-14.99c0-8.29,6.72-15,15-15s15,6.71,15,15
			C665.68,846.56,658.96,853.27,650.68,853.27z"></path></g></switch></svg>