<svg xmlns="http://www.w3.org/2000/svg" width="3000" height="3000" fill="none" viewBox="0 0 3000 3000" id="software-upgrade"><path fill="#E7E8FF" d="M1855.87 2605.73H1146.57H704.692C506.771 2605.73 324.631 2497.62 229.715 2323.8L211.956 2291.28C98.8065 2084.07 147.168 1825.76 327.6 1673.61C459.593 1562.3 524.278 1390.32 498.389 1219.54L488.699 1155.61C450.71 905.008 571.052 656.91 791.299 531.772L923.694 456.548C1165.9 318.934 1473.4 395.99 1622.23 631.595L1643.6 665.41C1701.62 757.26 1792.78 823.192 1898.13 849.497L2129.21 907.197C2266.51 941.481 2338.61 1092.47 2279.02 1220.93C2238.27 1308.79 2258.53 1412.47 2333.61 1473.6C2390.13 1519.61 2454.15 1569.74 2514.99 1617.09C2667.08 1735.46 2705.52 1919.2 2614.31 2089.04C2582.75 2147.81 2549.24 2207.56 2513.22 2267.26C2376.72 2493.52 2119.96 2605.73 1855.87 2605.73Z"></path><path fill="#fff" fill-rule="evenodd" d="M2036.49 984.895C2042.63 974.661 2055.73 971.295 2065.77 977.377L2125.29 1013.46C2135.32 1019.54 2138.48 1032.77 2132.35 1043 2127.32 1051.39 2128.53 1062 2134.61 1069.48 2151.66 1090.45 2164.42 1114.33 2172.57 1139.71 2175.54 1148.96 2183.71 1155.66 2193.36 1155.78 2205.13 1155.93 2214.44 1165.72 2214.14 1177.65L2212.38 1248.22C2212.08 1260.13 2202.31 1269.66 2190.54 1269.51 2180.92 1269.39 2172.43 1275.86 2168.99 1285.01 2164.31 1297.47 2158.45 1309.69 2151.35 1321.52 2144.26 1333.35 2136.26 1344.27 2127.48 1354.25 2121.04 1361.58 2119.31 1372.15 2123.92 1380.65 2129.54 1391.04 2125.72 1404.19 2115.38 1410.02L2054.15 1444.53C2043.8 1450.36 2030.84 1446.66 2025.21 1436.25 2020.6 1427.74 2010.89 1423.59 2001.37 1425.27 1975.25 1429.88 1948.29 1429.67 1921.89 1424.31 1912.47 1422.39 1902.57 1426.27 1897.54 1434.65 1891.41 1444.89 1878.3 1448.25 1868.27 1442.17L1808.75 1406.09C1798.72 1400.01 1795.56 1386.78 1801.69 1376.55 1806.72 1368.16 1805.51 1357.55 1799.43 1350.06 1782.38 1329.09 1769.62 1305.22 1761.47 1279.84 1758.5 1270.59 1750.33 1263.89 1740.68 1263.77 1728.91 1263.62 1719.6 1253.83 1719.9 1241.9L1721.66 1171.33C1721.95 1159.42 1731.73 1149.89 1743.5 1150.04 1753.12 1150.16 1761.61 1143.69 1765.05 1134.54 1769.73 1122.08 1775.6 1109.86 1782.69 1098.03 1789.78 1086.2 1797.78 1075.28 1806.56 1065.3 1813 1057.97 1814.73 1047.4 1810.13 1038.9 1804.5 1028.5 1808.32 1015.36 1818.66 1009.53L1879.89 975.019C1890.24 969.186 1903.2 972.892 1908.83 983.296 1913.44 991.813 1923.15 995.955 1932.67 994.277 1958.79 989.673 1985.75 989.877 2012.15 995.244 2021.57 997.16 2031.47 993.278 2036.49 984.895zM2071.27 1272.97C2036.06 1331.7 1960.85 1351.02 1903.27 1316.12 1845.7 1281.21 1827.57 1205.31 1862.78 1146.58 1897.99 1087.85 1973.2 1068.54 2030.77 1103.44 2088.35 1138.34 2106.48 1214.24 2071.27 1272.97zM2027.15 568.182C2030.18 563.122 2036.66 561.457 2041.62 564.465L2071.05 582.309C2076.01 585.316 2077.57 591.856 2074.54 596.917 2072.05 601.062 2072.65 606.311 2075.66 610.011 2084.09 620.382 2090.4 632.189 2094.42 644.738 2095.89 649.313 2099.93 652.625 2104.7 652.686 2110.52 652.76 2115.12 657.601 2114.98 663.499L2114.11 698.397C2113.96 704.287 2109.13 709.002 2103.31 708.927 2098.55 708.866 2094.35 712.067 2092.66 716.591 2090.34 722.754 2087.44 728.798 2083.94 734.646 2080.43 740.494 2076.47 745.896 2072.13 750.831 2068.95 754.455 2068.09 759.682 2070.37 763.887 2073.15 769.026 2071.26 775.526 2066.15 778.407L2035.88 795.475C2030.76 798.359 2024.36 796.527 2021.57 791.382 2019.29 787.17 2014.49 785.122 2009.79 785.952 1996.87 788.229 1983.55 788.128 1970.49 785.473 1965.83 784.526 1960.94 786.446 1958.46 790.591 1955.42 795.652 1948.94 797.316 1943.98 794.309L1914.56 776.465C1909.6 773.457 1908.03 766.917 1911.07 761.856 1913.55 757.71 1912.96 752.461 1909.95 748.76 1901.52 738.39 1895.21 726.584 1891.18 714.037 1889.72 709.461 1885.67 706.149 1880.91 706.088 1875.08 706.013 1870.48 701.172 1870.63 695.274L1871.5 660.378C1871.65 654.487 1876.48 649.772 1882.3 649.846 1887.06 649.907 1891.25 646.707 1892.95 642.182 1895.27 636.019 1898.17 629.976 1901.67 624.128 1905.18 618.279 1909.14 612.878 1913.47 607.942 1916.66 604.319 1917.51 599.091 1915.24 594.886 1912.46 589.748 1914.35 583.247 1919.46 580.366L1949.73 563.299C1954.85 560.414 1961.25 562.247 1964.04 567.391 1966.32 571.603 1971.12 573.652 1975.82 572.822 1988.74 570.545 2002.06 570.646 2015.11 573.3 2019.77 574.247 2024.66 572.328 2027.15 568.182zM2044.34 710.638C2026.94 739.68 1989.75 749.232 1961.29 731.972 1932.83 714.713 1923.86 677.179 1941.27 648.138 1958.67 619.096 1995.86 609.544 2024.32 626.804 2052.79 644.063 2061.75 681.597 2044.34 710.638z" clip-rule="evenodd"></path><path fill="#fff" d="M342.705 673.286C342.705 646.143 364.709 624.139 391.852 624.139H1892.09C1919.23 624.139 1941.24 646.143 1941.24 673.286V2284.02C1941.24 2311.17 1919.23 2333.17 1892.09 2333.17H391.852C364.709 2333.17 342.705 2311.17 342.705 2284.02V673.286Z"></path><path fill="#032068" fill-rule="evenodd" d="M335.338 673.286C335.338 642.074 360.64 616.772 391.851 616.772H1892.09C1923.3 616.772 1948.6 642.074 1948.6 673.286V2284.02C1948.6 2315.23 1923.3 2340.54 1892.09 2340.54H391.852C360.64 2340.54 335.338 2315.23 335.338 2284.02V673.286ZM391.851 631.505C368.777 631.505 350.071 650.211 350.071 673.286V2284.02C350.071 2307.1 368.777 2325.8 391.852 2325.8H1892.09C1915.16 2325.8 1933.87 2307.1 1933.87 2284.02V673.286C1933.87 650.211 1915.16 631.505 1892.09 631.505H391.851Z" clip-rule="evenodd"></path><path fill="#032068" d="M342.705 673.286C342.705 646.143 364.709 624.139 391.852 624.139H1892.09C1919.23 624.139 1941.24 646.143 1941.24 673.286V771.469H342.705V673.286Z"></path><path fill="#fff" d="M477.954 698.873C477.954 716.563 463.614 730.903 445.924 730.903 428.235 730.903 413.895 716.563 413.895 698.873 413.895 681.184 428.235 666.843 445.924 666.843 463.614 666.843 477.954 681.184 477.954 698.873zM584.726 698.873C584.726 716.563 570.386 730.903 552.696 730.903 535.006 730.903 520.666 716.563 520.666 698.873 520.666 681.184 535.006 666.843 552.696 666.843 570.386 666.843 584.726 681.184 584.726 698.873zM691.47 698.873C691.47 716.563 677.13 730.903 659.44 730.903 641.75 730.903 627.41 716.563 627.41 698.873 627.41 681.184 641.75 666.843 659.44 666.843 677.13 666.843 691.47 681.184 691.47 698.873z"></path><path fill="#F4AD5E" d="M528.521 901.578C528.521 893.441 535.118 886.845 543.255 886.845H673.976C682.112 886.845 688.709 893.441 688.709 901.578V910.557C688.709 918.693 682.112 925.29 673.976 925.29H543.255C535.118 925.29 528.521 918.693 528.521 910.557V901.578Z"></path><path fill="#E7E8FF" d="M526.867 1021.93C526.867 1013.79 533.463 1007.2 541.6 1007.2H887.826C895.963 1007.2 902.559 1013.79 902.559 1021.93V1029.3C902.559 1037.43 895.963 1044.03 887.826 1044.03H541.6C533.463 1044.03 526.867 1037.43 526.867 1029.3V1021.93Z"></path><path fill="#F4AD5E" d="M526.867 2134.27C526.867 2126.14 533.463 2119.54 541.6 2119.54H1749.71C1757.84 2119.54 1764.44 2126.14 1764.44 2134.27V2156.37C1764.44 2164.51 1757.84 2171.11 1749.71 2171.11H541.6C533.463 2171.11 526.867 2164.51 526.867 2156.37V2134.27Z"></path><path fill="#E7E8FF" d="M526.867 2134.27C526.867 2126.14 533.463 2119.54 541.6 2119.54H1749.71C1757.84 2119.54 1764.44 2126.14 1764.44 2134.27V2156.37C1764.44 2164.51 1757.84 2171.11 1749.71 2171.11H541.6C533.463 2171.11 526.867 2164.51 526.867 2156.37V2134.27Z"></path><path fill="#F4AD5E" d="M526.867 2134.27C526.867 2126.14 533.463 2119.54 541.6 2119.54H1292.98C1301.12 2119.54 1307.72 2126.14 1307.72 2134.27V2156.37C1307.72 2164.51 1301.12 2171.11 1292.98 2171.11H541.6C533.463 2171.11 526.867 2164.51 526.867 2156.37V2134.27Z"></path><path fill="#F4AD5E" fill-rule="evenodd" d="M1221.17 1322.34C1227.59 1311.68 1241.44 1308.25 1252.1 1314.67L1315.33 1352.79C1325.99 1359.22 1329.42 1373.07 1323 1383.72C1317.73 1392.45 1319.08 1403.56 1325.57 1411.42C1343.75 1433.46 1357.42 1458.51 1366.21 1485.09C1369.41 1494.78 1378.11 1501.84 1388.31 1502.03C1400.78 1502.27 1410.69 1512.56 1410.46 1525.03L1409.06 1598.8C1408.83 1611.25 1398.54 1621.15 1386.09 1620.91C1375.9 1620.72 1366.96 1627.43 1363.39 1636.97C1358.52 1649.97 1352.39 1662.71 1344.96 1675.02C1337.54 1687.34 1329.13 1698.71 1319.91 1709.08C1313.15 1716.7 1311.39 1727.74 1316.31 1736.66C1322.34 1747.56 1318.38 1761.28 1307.48 1767.3L1242.9 1802.97C1231.99 1809 1218.25 1805.04 1212.22 1794.13C1207.29 1785.19 1196.99 1780.8 1186.92 1782.49C1159.31 1787.13 1130.78 1786.73 1102.8 1780.95C1092.81 1778.88 1082.36 1782.87 1077.1 1791.6C1070.68 1802.26 1056.83 1805.69 1046.17 1799.27L982.937 1761.15C972.279 1754.72 968.847 1740.87 975.273 1730.21C980.536 1721.48 979.188 1710.38 972.7 1702.51C954.521 1680.48 940.855 1655.43 932.067 1628.85C928.862 1619.16 920.166 1612.1 909.959 1611.91C897.493 1611.67 887.578 1601.37 887.813 1588.91L889.209 1515.15C889.444 1502.69 899.729 1492.79 912.18 1493.03C922.369 1493.22 931.312 1486.51 934.888 1476.97C939.758 1463.97 945.886 1451.23 953.311 1438.92C960.736 1426.6 969.139 1415.23 978.359 1404.86C985.129 1397.24 986.887 1386.2 981.96 1377.28C975.938 1366.38 979.893 1352.66 990.794 1346.64L1055.37 1310.97C1066.29 1304.94 1080.02 1308.9 1086.05 1319.81C1090.99 1328.75 1101.29 1333.14 1111.36 1331.45C1138.97 1326.81 1167.49 1327.2 1195.47 1332.99C1205.45 1335.06 1215.9 1331.07 1221.17 1322.34ZM1259.88 1623.73C1223.01 1684.9 1143.54 1704.59 1082.38 1667.72C1021.22 1630.84 1001.52 1551.37 1038.4 1490.21C1075.27 1429.05 1154.74 1409.36 1215.9 1446.23C1277.06 1483.1 1296.75 1562.57 1259.88 1623.73Z" clip-rule="evenodd"></path><path fill="#E7E8FF" d="M1793.91 911.433C1793.91 899.227 1784.01 889.333 1771.81 889.333 1759.6 889.333 1749.71 899.227 1749.71 911.433 1749.71 923.638 1759.6 933.532 1771.81 933.532 1784.01 933.532 1793.91 923.638 1793.91 911.433zM1793.91 1021.93C1793.91 1009.73 1784.01 999.831 1771.81 999.831 1759.6 999.831 1749.71 1009.73 1749.71 1021.93 1749.71 1034.14 1759.6 1044.03 1771.81 1044.03 1784.01 1044.03 1793.91 1034.14 1793.91 1021.93zM1793.91 1132.43C1793.91 1120.22 1784.01 1110.33 1771.81 1110.33 1759.6 1110.33 1749.71 1120.22 1749.71 1132.43 1749.71 1144.63 1759.6 1154.53 1771.81 1154.53 1784.01 1154.53 1793.91 1144.63 1793.91 1132.43z"></path><path fill="#032068" fill-rule="evenodd" d="M1145.65 1147.16C1095.98 1147.16 1048.4 1155.93 1004.35 1171.99L1012.07 1190.94C1014.18 1196.11 1009.99 1201.66 1004.43 1201.04L929.323 1192.7C923.837 1192.09 920.945 1185.88 924.007 1181.29L968.517 1114.52C971.796 1109.61 979.239 1110.36 981.469 1115.83L987.662 1131.03C1036.92 1112.87 1090.16 1102.96 1145.65 1102.96C1397.9 1102.96 1602.38 1307.44 1602.38 1559.69C1602.38 1655.02 1573.14 1743.59 1523.15 1816.85C1520.86 1820.21 1516.26 1820.99 1512.93 1818.65L1488.86 1801.65C1485.54 1799.3 1484.76 1794.71 1487.04 1791.34C1531.94 1725.31 1558.18 1645.59 1558.18 1559.69C1558.18 1331.85 1373.49 1147.16 1145.65 1147.16ZM814.341 1313.86C816.768 1310.59 816.176 1305.97 812.955 1303.49L789.622 1285.49C786.4 1283.01 781.77 1283.6 779.337 1286.86C722.555 1362.99 688.932 1457.44 688.932 1559.69C688.932 1811.93 893.414 2016.41 1145.66 2016.41C1200.67 2016.41 1253.45 2006.67 1302.35 1988.81L1306.79 2001.58C1308.73 2007.16 1316.12 2008.3 1319.65 2003.56L1367.59 1939.22C1370.89 1934.79 1368.33 1928.44 1362.88 1927.55L1288.31 1915.29C1282.8 1914.38 1278.32 1919.7 1280.16 1924.97L1287.83 1947.06C1243.54 1963.32 1195.66 1972.21 1145.66 1972.21C917.824 1972.21 733.131 1787.52 733.131 1559.69C733.131 1467.55 763.313 1382.51 814.341 1313.86Z" clip-rule="evenodd"></path><path fill="#032068" d="M256.805 2345.14C245.102 2449.31 277.272 2555.84 296.296 2595.88H358.014C355.837 2469.62 310.952 2380.14 277.983 2338.51C270.926 2329.6 258.074 2333.85 256.805 2345.14Z"></path><path fill="#fff" d="M440.106 1940.4C290.691 2121.98 296.741 2447.06 319.046 2589.39H471.711C586.906 2192.33 516.584 1997.17 459.164 1939.03C453.746 1933.55 445.005 1934.45 440.106 1940.4Z"></path><path fill="#032068" fill-rule="evenodd" d="M453.922 1944.21C451.941 1942.2 448.261 1942.08 445.793 1945.08C372.387 2034.29 336.802 2159.32 322.496 2280.48C308.619 2398.01 314.874 2510.97 325.376 2582.02H466.17C522.237 2386.84 532.99 2241.44 522.836 2137.84C512.572 2033.11 481.023 1971.65 453.922 1944.21ZM434.417 1935.72C441.748 1926.81 455.549 1924.89 464.405 1933.86C494.724 1964.55 527.046 2029.74 537.499 2136.4C547.97 2243.24 536.575 2392.25 478.785 2591.44L477.244 2596.75H312.744L311.768 2590.53C300.522 2518.77 293.402 2401.24 307.865 2278.75C322.311 2156.4 358.408 2028.09 434.417 1935.72Z" clip-rule="evenodd"></path><path fill="#032068" d="M612.33 2201.18C489.438 2308.8 443.542 2508.7 435.971 2595.88H539.037C636.364 2450.46 644.116 2288.8 634.013 2209.33C632.656 2198.66 620.427 2194.09 612.33 2201.18Z"></path><path fill="#032068" fill-rule="evenodd" d="M445.694 2135.37L456.288 2034.72L441.636 2033.18L417.485 2262.61L373.934 2195.59L361.58 2203.62L415.035 2285.88L394.744 2478.65L350.69 2425.52L339.35 2434.93L392.589 2499.13L383.169 2588.62L397.821 2590.16L416.97 2408.24L476.069 2364.7L467.33 2352.84L419.058 2388.4L443.632 2154.95L495.472 2117.9L486.905 2105.91L445.694 2135.37Z" clip-rule="evenodd"></path><path fill="#fff" fill-rule="evenodd" d="M579.932 2345.22L605.296 2276.88L591.484 2271.75L536.055 2421.1L524.169 2385.66L510.201 2390.34L527.892 2443.09L474.549 2586.82L488.361 2591.95L514.449 2521.66L562.595 2498.59L556.228 2485.3L521.824 2501.79L572.854 2364.29L607.792 2349.29L601.981 2335.76L579.932 2345.22Z" clip-rule="evenodd"></path><path fill="#F4AD5E" d="M2488.89 898.253L2519.38 872.034C2524.81 867.364 2533.04 872.407 2531.34 879.365L2522.03 917.521C2521.47 919.829 2522.05 922.268 2523.6 924.069L2551.62 956.659C2556.14 961.907 2551.57 969.918 2544.76 968.716L2501.97 961.17C2499.89 960.803 2497.76 961.346 2496.1 962.662L2458.77 992.4C2453.23 996.817 2445.26 991.621 2447.06 984.766L2458.43 941.488C2458.99 939.38 2458.58 937.134 2457.32 935.356L2429.17 895.639C2425.03 889.797 2430.82 882.08 2437.59 884.416L2481.68 899.631C2484.16 900.486 2486.9 899.961 2488.89 898.253zM2619.85 1376.98L2632.38 1373.57C2639.29 1371.68 2644.55 1379.77 2640.03 1385.32L2632.07 1395.1C2630.57 1396.94 2630.05 1399.39 2630.67 1401.69L2634.81 1416.88C2636.63 1423.56 2629.07 1428.83 2623.43 1424.82L2610.22 1415.42C2608.5 1414.19 2606.34 1413.76 2604.28 1414.24L2586.62 1418.35C2579.72 1419.96 2574.75 1411.84 2579.32 1406.43L2589.84 1393.96C2591.25 1392.3 2591.85 1390.09 2591.47 1387.95L2588.32 1369.86C2587.09 1362.8 2595.63 1358.32 2600.74 1363.34L2612.75 1375.13C2614.62 1376.96 2617.32 1377.67 2619.85 1376.98z"></path><path fill="#fff" d="M1401.57 1809.84L1445.8 2600.98H1655.89L1607.97 1798.8C1642.37 1771.81 1721.5 1692.82 1703.81 1578.01C1683.97 1449.26 1603.79 1414.1 1562.44 1400.72C1557.96 1399.27 1553.63 1403.15 1554.43 1407.78L1589.55 1611.13L1497.4 1692.08L1386.83 1647.93L1351.9 1449.15C1351.05 1444.31 1345.2 1442.32 1341.59 1445.67C1194.58 1582.14 1278.53 1791.77 1401.57 1809.84Z"></path><path fill="#032068" fill-rule="evenodd" d="M1560.7 1406.81L1596.4 1613.54L1498.67 1699.41L1381.2 1652.5L1345.7 1450.5C1274.19 1517.02 1259.01 1601.03 1276.46 1670.62C1294.04 1740.7 1344.28 1795.02 1402.5 1803.57L1407.62 1804.32L1451.8 2594.65H1649.16L1601.45 1795.87L1604.06 1793.82C1637.97 1767.21 1714.69 1690.25 1697.54 1578.97C1687.81 1515.88 1663.42 1476.2 1636.8 1450.67C1610.19 1425.15 1580.95 1413.38 1560.7 1406.81ZM1548.18 1408.86C1546.6 1399.73 1555.19 1391.72 1564.4 1394.7C1585.49 1401.52 1616.9 1414.03 1645.58 1441.54C1674.35 1469.12 1699.96 1511.39 1710.07 1577.05C1727.87 1692.53 1650.66 1772.47 1614.5 1801.7L1662.62 2607.31H1439.81L1395.52 1815.24C1333.02 1803.42 1282.07 1745.11 1264.16 1673.69C1245.65 1599.9 1261.95 1510.95 1337.28 1441.03C1344.6 1434.23 1356.44 1438.33 1358.15 1448.06L1392.47 1643.36L1496.14 1684.76L1582.7 1608.72L1548.18 1408.86Z" clip-rule="evenodd"></path><path fill="#EFCB96" d="M1602.39 2071.1C1608.79 2069.5 1623.28 2071.1 1628.19 2063.74L1624.5 1993.82C1634.33 1997.5 1642.34 2008.72 1653.99 2023.26 1668.73 2041.66 1698.22 2053.93 1712.96 2063.74L1687.16 2137.33C1661.36 2141.01 1642.93 2143.47 1631.87 2141.01V2115.25C1620.82 2118.93 1598.7 2116.59 1580.28 2111.58 1539.73 2100.54 1550.8 2063.74 1558.17 2063.74 1565.54 2063.74 1587.65 2074.78 1602.39 2071.1zM2307.12 1505.26L2332.14 1614.57C2329.15 1634.17 2306.98 1655.52 2262.55 1675.36 2218.12 1695.21 2156.3 1663.04 2136.42 1653.65L2145.15 1546.29C2117.89 1546.72 2073.02 1472.82 2077.91 1396.26 2084.48 1293.59 2128.38 1228.87 2221.06 1234.46 2290.56 1238.65 2338.24 1303.47 2347.1 1358.23 2357.23 1420.89 2331.3 1489.24 2307.12 1505.26z"></path><path fill="#032068" d="M2269.89 1439.68C2282.68 1465.29 2305.81 1518.85 2311.93 1525.51 2334.17 1505.14 2386.85 1446.94 2403.84 1379.85 2420.82 1312.76 2372.22 1283.06 2345.8 1276.6 2350.87 1270.42 2339.75 1238.59 2254.67 1160.72 2148.31 1063.39 2034.83 1168.88 2065.18 1245.36 2089.46 1306.54 2184.66 1310.73 2229.22 1305.18 2237.65 1332.73 2223.73 1432.9 2249.43 1394.02 2275.14 1355.13 2302.73 1346.72 2311.93 1393.5 2319.29 1430.92 2286.97 1439.88 2269.89 1439.68zM2225.8 1533.75C2180.2 1550.99 2153.04 1549.29 2145.16 1546.29L2140.77 1579.83C2174.47 1571.04 2216.14 1547.2 2225.8 1533.75z"></path><path fill="#F4AD5E" d="M2239.72 1625.62C2190.67 1625.62 2148.53 1593.26 2131.21 1574.73C2129.66 1573.07 2127.38 1572.29 2125.15 1572.75C2039.64 1590.47 1983.84 1641.06 1949.07 1692.08C1923.96 1728.92 1875.35 1824.56 1827.44 2015.9C1779.52 2015.9 1727.92 2015.9 1702.12 2026.94C1681.51 2035.76 1661.58 2126.29 1668.95 2163.09C1674.85 2192.53 1772.15 2204.58 1794.26 2219.81C1774.82 2384.75 1770.63 2560.28 1792.59 2601.83C1793.57 2603.69 1795.46 2604.68 1797.56 2604.7C1828.2 2604.96 2064.72 2606.9 2171.72 2604.67H2804.61C2807.14 2604.67 2809.4 2603.23 2810.4 2600.91C2841.91 2527.76 2901.83 2372.72 2901.83 2308.1C2901.83 2225.92 2762.25 1900.76 2669.2 1754.26C2595.96 1638.96 2424.36 1585.68 2343.84 1572.64C2341.41 1572.24 2339.08 1573.33 2337.6 1575.3C2323.68 1593.92 2288.26 1625.62 2239.72 1625.62Z"></path><path fill="#032068" d="M2604.78 2333.11C2607.64 2378.85 2574.95 2533.21 2558.25 2604.67H2518.88C2539.16 2532.02 2579 2378.13 2576.14 2343.83 2573.28 2309.53 2515.3 2155.64 2486.67 2082.99 2524.84 2147.31 2601.92 2287.37 2604.78 2333.11zM2833.83 2308.1C2828.1 2239.49 2843.37 2162.79 2851.72 2133.01 2867.23 2169.93 2899.68 2256.64 2905.41 2308.1 2911.13 2359.55 2886.32 2422.44 2873.2 2447.45 2862.46 2429.59 2839.55 2376.7 2833.83 2308.1zM1772.15 2210.93L1794.26 2218.29C1800.16 2180.02 1811.46 2109.12 1816.38 2078.46L1772.15 2210.93z"></path><path fill="#F4AD5E" d="M585.799 1353.42C585.799 1487.68 476.962 1596.52 342.704 1596.52C208.447 1596.52 99.6094 1487.68 99.6094 1353.42C99.6094 1219.17 208.447 1110.33 342.704 1110.33C476.962 1110.33 585.799 1219.17 585.799 1353.42Z"></path><path fill="#fff" fill-rule="evenodd" d="M397.953 1340.88C397.953 1337.75 400.484 1335.22 403.606 1335.22H441.352C446.107 1335.22 448.738 1329.71 445.746 1326.01L347.098 1204.15C344.836 1201.36 340.573 1201.36 338.31 1204.15L239.663 1326.01C236.67 1329.71 239.301 1335.22 244.057 1335.22H281.802C284.924 1335.22 287.455 1337.75 287.455 1340.88V1502.47C287.455 1505.59 289.986 1508.12 293.109 1508.12H392.3C395.422 1508.12 397.953 1505.59 397.953 1502.47V1340.88Z" clip-rule="evenodd"></path></svg>