<svg xmlns="http://www.w3.org/2000/svg" xmlns:xlink="http://www.w3.org/1999/xlink" viewBox="0 0 4680 3120" id="website-programming"><defs><linearGradient id="c" x1="1840.16" x2="1809.333" y1="1123.245" y2="1303.801" gradientUnits="userSpaceOnUse"><stop offset="0" stop-color="gray"></stop><stop offset="1" stop-color="#fff"></stop></linearGradient><linearGradient id="m" x1="1939.082" x2="1909.535" y1="1074.315" y2="1247.378" xlink:href="#c"></linearGradient><linearGradient id="f" x1="2629.622" x2="2898.161" y1="2086.659" y2="2266.757" gradientUnits="userSpaceOnUse"><stop offset="0" stop-color="#fff"></stop><stop offset=".996" stop-color="#999"></stop></linearGradient><linearGradient id="s" x1="2411.502" x2="2654.593" y1="2236.776" y2="2399.807" xlink:href="#f"></linearGradient><linearGradient id="w" x1="2669.936" x2="2731.693" y1="2199.908" y2="2241.326" xlink:href="#f"></linearGradient><linearGradient id="y" x1="2260.503" x2="2382.755" y1="538.262" y2="2611.207" gradientUnits="userSpaceOnUse"><stop offset="0" stop-color="#fff"></stop><stop offset="1" stop-color="#87c5f5"></stop></linearGradient><linearGradient id="h" x1="2839.812" x2="3713.648" y1="2589.732" y2="2589.732" gradientTransform="rotate(-20.757 2787.526 1903.946)" gradientUnits="userSpaceOnUse"><stop offset="0" stop-color="#00b488"></stop><stop offset=".92" stop-color="#007bc0"></stop></linearGradient><linearGradient id="B" x1="535.985" x2="1648.926" y1="2294.153" y2="2294.153" xlink:href="#h"></linearGradient><linearGradient id="C" x1="1377.292" x2="1320.596" y1="2033.719" y2="1890.207" gradientUnits="userSpaceOnUse"><stop offset="0" stop-color="#f45b5b"></stop><stop offset="1" stop-color="#f43856"></stop></linearGradient><linearGradient id="n" x1="1840.16" x2="1809.333" y1="1123.245" y2="1303.801" gradientUnits="userSpaceOnUse"><stop offset="0" stop-color="#fff"></stop><stop offset="1"></stop></linearGradient><linearGradient id="F" x1="1939.082" x2="1909.535" y1="1074.315" y2="1247.378" xlink:href="#n"></linearGradient><linearGradient id="t" x1="2629.622" x2="2898.161" y1="2086.659" y2="2266.757" gradientUnits="userSpaceOnUse"><stop offset="0" stop-color="#f85254"></stop><stop offset=".996" stop-color="#f79865"></stop></linearGradient><linearGradient id="I" x1="2411.502" x2="2654.593" y1="2236.776" y2="2399.807" xlink:href="#t"></linearGradient><linearGradient id="K" x1="2669.936" x2="2731.693" y1="2199.908" y2="2241.326" xlink:href="#t"></linearGradient><linearGradient id="L" x1="2873.517" x2="3444.787" y1="2143.902" y2="2143.902" gradientUnits="userSpaceOnUse"><stop offset="0" stop-color="#664bb2"></stop><stop offset=".996" stop-color="#0c2bcd"></stop></linearGradient><linearGradient id="x" x1="1727.543" x2="1673.808" y1="2156.373" y2="2106.443" gradientUnits="userSpaceOnUse"><stop offset="0" stop-color="#6663b2"></stop><stop offset=".996" stop-color="#372bcd"></stop></linearGradient><linearGradient id="M" x1="2103.198" x2="1950.41" y1="2221.914" y2="2079.942" xlink:href="#x"></linearGradient><linearGradient id="N" x1="1878.201" x2="1880.463" y1="1624.945" y2="1868.076" xlink:href="#x"></linearGradient><filter id="a" width="223.217" height="32766" x="1711.758" y="-9752" color-interpolation-filters="sRGB" filterUnits="userSpaceOnUse"><feFlood flood-color="#fff" result="bg"></feFlood><feBlend in="SourceGraphic" in2="bg"></feBlend></filter><filter id="b" width="56.474" height="32766" x="1902.822" y="-9752" color-interpolation-filters="sRGB" filterUnits="userSpaceOnUse"><feFlood flood-color="#fff" result="bg"></feFlood><feBlend in="SourceGraphic" in2="bg"></feBlend></filter><filter id="d" width="164.018" height="32766" x="2681.906" y="-9752" color-interpolation-filters="sRGB" filterUnits="userSpaceOnUse"><feFlood flood-color="#fff" result="bg"></feFlood><feBlend in="SourceGraphic" in2="bg"></feBlend></filter><filter id="e" width="289.732" height="32766" x="2381.078" y="-9752" color-interpolation-filters="sRGB" filterUnits="userSpaceOnUse"><feFlood flood-color="#fff" result="bg"></feFlood><feBlend in="SourceGraphic" in2="bg"></feBlend></filter><filter id="g" width="39.123" height="32766" x="2680.145" y="-9752" color-interpolation-filters="sRGB" filterUnits="userSpaceOnUse"><feFlood flood-color="#fff" result="bg"></feFlood><feBlend in="SourceGraphic" in2="bg"></feBlend></filter><filter id="j" width="223.217" height="157.061" x="1711.758" y="1123.191" color-interpolation-filters="sRGB" filterUnits="userSpaceOnUse"><feFlood flood-color="#fff" result="bg"></feFlood><feBlend in="SourceGraphic" in2="bg"></feBlend></filter><filter id="l" width="56.474" height="183.481" x="1902.822" y="1060.808" color-interpolation-filters="sRGB" filterUnits="userSpaceOnUse"><feFlood flood-color="#fff" result="bg"></feFlood><feBlend in="SourceGraphic" in2="bg"></feBlend></filter><filter id="p" width="164.018" height="262.911" x="2681.906" y="2052.245" color-interpolation-filters="sRGB" filterUnits="userSpaceOnUse"><feFlood flood-color="#fff" result="bg"></feFlood><feBlend in="SourceGraphic" in2="bg"></feBlend></filter><filter id="r" width="289.732" height="152.802" x="2381.078" y="2237.127" color-interpolation-filters="sRGB" filterUnits="userSpaceOnUse"><feFlood flood-color="#fff" result="bg"></feFlood><feBlend in="SourceGraphic" in2="bg"></feBlend></filter><filter id="v" width="39.123" height="58.516" x="2680.145" y="2194.555" color-interpolation-filters="sRGB" filterUnits="userSpaceOnUse"><feFlood flood-color="#fff" result="bg"></feFlood><feBlend in="SourceGraphic" in2="bg"></feBlend></filter><mask id="D" width="223.217" height="157.061" x="1711.758" y="1123.191" maskUnits="userSpaceOnUse"><g filter="url(#j)" mask="url(#i)"><path d="M1934.9744,1166.3569a90.7541,90.7541,0,0,1-15.2682-4.1486s-28.9443-21.7082-41.0044-4.824-45.8284,120.6012-161.6056,120.6012l-.8441,2.2673c-8.5868-3.6422-6.0061-6.4161,17.7283-7.0914,84.4208-2.412,115.7771-113.3651,144.7214-139.8974s52.3651,7.7426,52.3651,7.7426Z" style="mix-blend-mode:multiply" fill="url(#c)"></path></g></mask><mask id="E" width="56.474" height="183.481" x="1902.822" y="1060.808" maskUnits="userSpaceOnUse"><g filter="url(#l)" mask="url(#k)"><path d="M1941.4144,1236.9811c-1.2784,2.5809-2.605,5.0169-3.9557,7.3083-5.0652-.5788-9.6722-1.206-13.7486-1.8331-10.0581-1.5436-16.3293-9.6963-13.459-17.5836a140.71268,140.71268,0,0,0,5.1135-18.9585,209.07575,209.07575,0,0,0-.9166-86.3264l-11.6259-53.8604c2.8703-3.2081,6.9225.7958,9.4069-1.1337,5.5718-4.3175,10.0098-5.21,12.7837-1.2783,0,0,.0482.0722.1447.1928C1928.6066,1067.7293,1988.2801,1143.2499,1941.4144,1236.9811Z" style="mix-blend-mode:multiply" fill="url(#m)"></path></g></mask><mask id="G" width="164.018" height="262.911" x="2681.906" y="2052.245" maskUnits="userSpaceOnUse"><g filter="url(#p)" mask="url(#o)"><path d="M2845.9234,2221.90692v93.2489c-90.2336-26.1223-161.7504-94.3102-163.9693-96.4328l-.0483-.0482,50.6525-166.42962C2769.824,2129.8641,2803.8337,2174.366,2845.9234,2221.90692Z" style="mix-blend-mode:multiply" fill="url(#f)"></path></g></mask><mask id="H" width="289.732" height="152.802" x="2381.078" y="2237.127" maskUnits="userSpaceOnUse"><g filter="url(#r)" mask="url(#q)"><path d="M2670.8106,2237.12672c-5.5717,16.73948-14.1345,43.2959-22.6731,73.205-11.9394,41.8003-4.8241,79.5968-4.8241,79.5968H2381.0782C2559.785,2364.77112,2638.2721,2286.62152,2670.8106,2237.12672Z" style="mix-blend-mode:multiply" fill="url(#s)"></path></g></mask><mask id="J" width="39.123" height="58.516" x="2680.145" y="2194.555" maskUnits="userSpaceOnUse"><g filter="url(#v)" mask="url(#u)"><path d="M2719.268,2253.07032a455.01485,455.01485,0,0,1-39.1229-31.5493c8.9002-16.3776,11.7465-26.9664,11.7465-26.9664Z" style="mix-blend-mode:multiply" fill="url(#w)"></path></g></mask><clipPath id="z"><rect width="1129.645" height="908.204" x="2803.167" y="1816.539" fill="none" transform="rotate(180 3367.99 2270.641)"></rect></clipPath><clipPath id="A"><rect width="1129.645" height="1185.299" x="535.985" y="1537.489" fill="none"></rect></clipPath></defs><g data-name="2"><path fill="#fff" d="M3801.2221,1266.947c-142.3413-234.4687-396.8299-391.1666-688.1073-391.1666-78.8445,0-154.7038,12.6473-227.18,33.2548C2713.1385,629.34,2407.1826,442.5491,2057.1982,442.5491c-475.5029,0-872.1132,344.8502-959.9542,801.4783-14.2049-.9542-28.1629-2.6535-42.7864-2.6535-403.68142,0-731.09971,332.4711-731.09971,741.8321,0,409.86942,327.41829,742.23951,731.09971,742.23951h2560.899c403.9976,0,731.4633-332.37009,731.4633-742.23951C4346.8199,1638.8642,4115.3853,1349.9865,3801.2221,1266.947Z"></path><path fill="url(#y)" d="M3811.8526,1266.947c-142.3413-234.4687-396.8299-391.1666-688.1073-391.1666-78.8445,0-154.7038,12.6473-227.1801,33.2548C2723.769,629.34,2417.8131,442.5491,2067.8287,442.5491c-475.5029,0-872.1132,344.8502-959.9542,801.4783-14.2049-.9542-28.1629-2.6535-42.7864-2.6535-403.68142,0-731.0997,332.4711-731.0997,741.8321,0,409.86942,327.41828,742.23951,731.0997,742.23951h2560.899c403.9976,0,731.4633-332.37009,731.4633-742.23951C4357.4504,1638.8642,4126.0157,1349.9865,3811.8526,1266.947Z"></path><g clip-path="url(#z)"><path fill="url(#h)" d="M3869.5917,2208.12442c13.8096-5.2343,22.5492-28.1521-3.6952-55.7258-26.2922-27.55592-79.9001-131.34662-79.9001-131.34662-16.6188,6.2991-112.7198-25.8375-130.0203-33.9837-17.3313-8.08-21.0958,123.9371-39.1428,130.7776-17.9993,6.8224,13.6682-122.7009,4.4634-146.9858-9.2048-24.2845-61.5926-28.8792-97.5912-15.2343s2.5662,282.48122-14.0521,288.78022-37.9686-275.59752-53.3478-282.83832c-15.4261-7.2226-53.7797-12.2903-116.4148,22.8871-62.6829,35.1952,84.522,310.7764,70.2036,343.977-14.3177,33.2005-116.3231-306.89122-119.5718-315.46222s-77.6291,45.7617-95.3705,86.7403c-17.7233,41.0263,138.167,301.879,125.5279,331.17582s-138.5596-252.77252-149.9121-282.7234c-11.3706-29.99862-38.7382-22.893-76.6955,102.5342-10.5228,34.594-3.0057,65.3455,13.0501,92.0433-97.4519,98.2032-.3027,283.67769,70.7042,316.994a115.55037,115.55037,0,0,0,38.6414,10.5676,117.37211,117.37211,0,0,0,34.8527-2.1553,129.58614,129.58614,0,0,0,20.8031-6.0338c-1.317,1.6975-2.6045,3.32889-3.8739,5.0083l29.0012-1.7892-3.589,35.07c2.2328,14.51079,6.9267,32.5,15.3914,54.832,39.5084,104.2336,312.6419,40.0792,258.9353,14.9089-53.6576-25.1887-143.4609-132.0873-122.7-139.9564s104.5971,108.861,170.2633,115.0122c65.6661,6.1509,103.1619-91.3276,103.1619-91.3276s-224.8859-69.0396-214.3685-93.4478c10.5638-24.42589,229.2061,99.2598,277.2074,100.6161,48.067,1.3856,92.82-110.2797,92.82-110.2797s-346.6061-49.80539-348.8469-79.99719c-2.222-30.1444,329.8924,67.6311,365.16,39.5596,35.2677-28.0711,38.4988-123.9984,38.4988-123.9984s-329.1091,8.8577-327.2664-19.6142c1.9084-28.4426,284.2474,14.7357,314.7766-5.00472s-23.4315-111.96088-29.911-129.05548c-6.4975-17.142-195.2509,25.8121-219.2854,14.5548C3643.3972,2235.91712,3855.7355,2213.37642,3869.5917,2208.12442ZM3245.8674,2467.4112c-7.1594,16.60072-95.3163-25.89908-103.5723-68.51458a109.368,109.368,0,0,0-5.5205-18.8738C3184.3808,2428.03592,3250.0824,2457.69932,3245.8674,2467.4112Z"></path></g><rect width="262.103" height="27.945" x="3157.698" y="1604.662" fill="#fff"></rect><rect width="184.163" height="27.716" x="3157.698" y="1661.696" fill="#fff"></rect><rect width="337.976" height="27.944" x="3157.698" y="1718.501" fill="#fff"></rect><rect width="472.822" height="27.716" x="3157.698" y="1775.535" fill="#fff"></rect><rect width="280.727" height="40.084" x="3157.698" y="1401.95" fill="#fff"></rect><rect width="381.429" height="12.598" x="3157.698" y="1453.029" fill="#fff"></rect><path d="M3815.2815,871.6689H2844.7288a31.90578,31.90578,0,0,0-31.9057,31.9059v597.0067a62.34222,62.34222,0,0,0,62.3425,62.3423h909.6791a62.34222,62.34222,0,0,0,62.3425-62.3423V903.5748A31.90578,31.90578,0,0,0,3815.2815,871.6689Z" style="mix-blend-mode:multiply" fill="#c9c9c9" fill-rule="evenodd" opacity=".55"></path><path fill="#9570ee" fill-rule="evenodd" d="M2823.468,850.4081h970.5524a31.90578,31.90578,0,0,1,31.9058,31.9058v58.1907H2791.5621V882.3139A31.9058,31.9058,0,0,1,2823.468,850.4081Z"></path><path fill="#fff" fill-rule="evenodd" d="M2791.5621,940.5046H3825.9262v538.816a62.34241,62.34241,0,0,1-62.3424,62.3424H2853.9045a62.34247,62.34247,0,0,1-62.3424-62.3424Z"></path><path fill="#baa3d4" fill-rule="evenodd" d="M3201.6916,1081.0362h357.7953a27.69631,27.69631,0,0,1,27.6155,27.6154v227.3118a27.697,27.697,0,0,1-27.6155,27.6162H3201.6916a27.69674,27.69674,0,0,1-27.6152-27.6162V1108.6516a27.69605,27.69605,0,0,1,27.6152-27.6154Z"></path><path fill="#592ba3" fill-rule="evenodd" d="M3177.8359,1058.3888h375.0553a29.0236,29.0236,0,0,1,28.8239,28.9965v238.185a28.87566,28.87566,0,0,1-28.8239,28.8239H3177.8359a28.91231,28.91231,0,0,1-28.9965-28.8239v-238.185a29.05909,29.05909,0,0,1,28.9965-28.9965Z"></path><rect width="131.174" height="21.057" x="2828.153" y="1116.554" fill="#baa3d4"></rect><rect width="92.168" height="20.885" x="2828.153" y="1159.531" fill="#683ba4"></rect><rect width="169.146" height="21.057" x="2828.153" y="1202.335" fill="#baa3d4"></rect><rect width="236.632" height="20.885" x="2828.153" y="1245.313" fill="#683ba4"></rect><rect width="140.495" height="30.205" x="2828.153" y="963.805" fill="#683ba4"></rect><rect width="190.893" height="9.493" x="2828.153" y="1002.294" fill="#baa3d4"></rect><path fill="#fff" fill-rule="evenodd" d="M3604.8287 882.6839a25.71135 25.71135 0 1144.53 25.7171 25.71135 25.71135 0 01-44.53-25.7171zM3739.4549 882.6839a25.71135 25.71135 0 1144.53 25.7171 25.84754 25.84754 0 01-35.2093 9.32 25.49653 25.49653 0 01-9.3207-35.0371zM3672.1423 882.6839a25.71135 25.71135 0 1144.53 25.7171 25.71135 25.71135 0 01-44.53-25.7171z"></path><path fill="#fff" d="M3193.7149,1219.0773v-22.9558l121.5091-55.9217v24.6817l-96.3101,42.8045,96.3101,43.4946v24.5087Zm136.0072,90.7869,53.5052-206.7731h18.2955l-53.6781,206.7731Zm207.4623-90.7869-121.5091,56.612v-24.5087l95.9649-43.4946-95.9649-42.8045v-24.6817l121.5091,55.9217Z"></path><path fill="#fff" fill-rule="evenodd" d="M2917.0199,1505.5975s16.7884,57.8843-10.6305,124.9082l188.8855-118.8151Z"></path><path d="M796.207,690.1703H2207.3971a74.8277,74.8277,0,0,1,74.8277,74.8277v934.5673a74.8277,74.8277,0,0,1-74.8277,74.8277h-1411.19a74.8278,74.8278,0,0,1-74.8278-74.8278V764.998A74.8277,74.8277,0,0,1,796.207,690.1703Z" style="mix-blend-mode:multiply" fill="#c9c9c9" opacity=".55"></path><path fill="#f0f4ff" d="M814.93,664.058H2199.5687a55.7516,55.7516,0,0,1,55.7516,55.7516v972.7213a55.7513,55.7513,0,0,1-55.7513,55.7513H814.9297a55.7513,55.7513,0,0,1-55.7513-55.7513V719.8096A55.7516,55.7516,0,0,1,814.93,664.058Z"></path><path fill="#cfddff" d="M875.22458,894.1944H1365.9478a11.0425,11.0425,0,0,1,11.0425,11.0425v725.8468a11.0425,11.0425,0,0,1-11.0425,11.0425H875.22428a11.0421,11.0421,0,0,1-11.0421-11.0421V905.2368A11.0424,11.0424,0,0,1,875.22458,894.1944Z"></path><path fill="#6db8ff" d="M962.44538 963.7906h311.398a10.3535 10.3535 0 0110.3535 10.3535v52.55068a10.35332 10.35332 0 01-10.35332 10.35332H962.44568a10.3536 10.3536 0 01-10.3536-10.3536V974.1439a10.3533 10.3533 0 0110.3533-10.3533zM1063.2105 1444.2333H997.2587a28.07209 28.07209 0 01-28.07252-28.0725h0a28.07209 28.07209 0 0128.07252-28.0725h65.9518a28.07211 28.07211 0 0128.0727 28.0725h0A28.07211 28.07211 0 011063.2105 1444.2333z"></path><path fill="#9570ee" d="M1253.6826,1444.2333h-65.9519a28.07192,28.07192,0,0,1-28.0724-28.0725h0a28.07192,28.07192,0,0,1,28.0724-28.0725h65.9519a28.07192,28.07192,0,0,1,28.0724,28.0725h0A28.07192,28.07192,0,0,1,1253.6826,1444.2333Z"></path><rect width="356.524" height="56.165" x="944.767" y="1110.307" fill="#f9fbfc" rx="7.598"></rect><rect width="356.524" height="56.165" x="944.767" y="1205.542" fill="#f9fbfc" rx="7.598"></rect><path fill="#cdd4ff" d="M1220.4014,1309.9359H1028.0982a6.40984,6.40984,0,0,1-6.4098-6.4098h0a6.40984,6.40984,0,0,1,6.4098-6.4098h192.3032a6.40984,6.40984,0,0,1,6.4098,6.4098h0A6.40984,6.40984,0,0,1,1220.4014,1309.9359Z"></path><path fill="#cfddff" d="M1220.4784,874.7967H909.24628a45.68546,45.68546,0,0,1-45.6854-45.6854h0a45.6857,45.6857,0,0,1,45.6854-45.6865H1220.4784a45.68557,45.68557,0,0,1,45.6854,45.6865h0A45.68534,45.68534,0,0,1,1220.4784,874.7967Z"></path><path fill="#ffc240" d="M994.3352,829.1117a25.1269,25.1269,0,1,1-25.126-25.128A25.12509,25.12509,0,0,1,994.3352,829.1117Z"></path><path fill="#90c240" d="M1092.3693,829.1117a25.12705,25.12705,0,1,1-25.128-25.128A25.12678,25.12678,0,0,1,1092.3693,829.1117Z"></path><path fill="#eb4f24" d="M1182.7883,829.1117a25.127,25.127,0,1,1-25.128-25.128A25.12678,25.12678,0,0,1,1182.7883,829.1117Z"></path><path fill="#cfddff" d="M1430.2082,979.3084h333.1553a5.4341,5.4341,0,0,1,5.4341,5.4341v215.1093a5.4335,5.4335,0,0,1-5.4335,5.4335H1430.2076a5.4335,5.4335,0,0,1-5.4335-5.4335V984.7425A5.4341,5.4341,0,0,1,1430.2082,979.3084Z"></path><path fill="#fd4940" d="M1597.1199,1090.553h-.6681a9.05207,9.05207,0,0,1-4.3919-1.1382l-132.6105-73.6732a9.04136,9.04136,0,1,1,8.7838-15.806l128.5526,71.4191,128.5539-71.4191a9.04107,9.04107,0,1,1,8.7826,15.806l-132.6105,73.6732A9.04922,9.04922,0,0,1,1597.1199,1090.553Z"></path><path fill="#4a4ac6" d="M1885.2937,611.8296h441.7209a22.7232,22.7232,0,0,1,22.7232,22.7232v584.5746a22.7235,22.7235,0,0,1-22.7235,22.7235H1885.2937a22.7235,22.7235,0,0,1-22.7235-22.7235V634.5531A22.7235,22.7235,0,0,1,1885.2937,611.8296Z"></path><path fill="#0cf" d="M1971.4108 696.2802H1938.952c-1.7253 0-3.1243-2.8106-3.1243-6.2769h0c0-3.4664 1.399-6.2756 3.1243-6.2756h32.4588c1.7253 0 3.1243 2.8092 3.1243 6.2756h0C1974.5351 693.4696 1973.1361 696.2802 1971.4108 696.2802zM2172.3651 696.2802H1986.6919c-1.7254 0-3.1257-2.8106-3.1257-6.2769h0c0-3.4664 1.4003-6.2756 3.1257-6.2756h185.6732c1.7254 0 3.1258 2.8092 3.1258 6.2756h0C2175.4909 693.4696 2174.0905 696.2802 2172.3651 696.2802z"></path><path fill="#ff56a9" d="M2045.9217,722.2217h-59.2298c-1.7254,0-3.1257-2.8106-3.1257-6.2769h0c0-3.4663,1.4003-6.2755,3.1257-6.2755h59.2298c1.7254,0,3.1243,2.8092,3.1243,6.2755h0C2049.046,719.4111,2047.6471,722.2217,2045.9217,722.2217Z"></path><path fill="#e3eaff" d="M2143.3345 722.2217h-85.3578c-1.7253 0-3.1243-2.8106-3.1243-6.2769h0c0-3.4663 1.399-6.2755 3.1243-6.2755h85.3578c1.7256 0 3.1258 2.8092 3.1258 6.2755h0C2146.4603 719.4111 2145.0601 722.2217 2143.3345 722.2217zM2172.3651 848.5267H1986.6919c-1.7254 0-3.1257-2.8092-3.1257-6.2755h0c0-3.4664 1.4003-6.277 3.1257-6.277h185.6732c1.7254 0 3.1258 2.8106 3.1258 6.277h0C2175.4909 845.7175 2174.0905 848.5267 2172.3651 848.5267z"></path><path fill="#0cf" d="M1971.4108,874.4682H1938.952c-1.7253,0-3.1243-2.8092-3.1243-6.2755h0c0-3.4663,1.399-6.277,3.1243-6.277h32.4588c1.7253,0,3.1243,2.8107,3.1243,6.277h0C1974.5351,871.659,1973.1361,874.4682,1971.4108,874.4682Z"></path><path fill="#e3eaff" d="M2045.9217,874.4682h-59.2298c-1.7254,0-3.1257-2.8092-3.1257-6.2755h0c0-3.4663,1.4003-6.277,3.1257-6.277h59.2298c1.7254,0,3.1243,2.8107,3.1243,6.277h0C2049.046,871.659,2047.6471,874.4682,2045.9217,874.4682Z"></path><path fill="#ff56a9" d="M2143.3345 874.4682h-85.3578c-1.7253 0-3.1243-2.8092-3.1243-6.2755h0c0-3.4663 1.399-6.277 3.1243-6.277h85.3578c1.7256 0 3.1258 2.8107 3.1258 6.277h0C2146.4603 871.659 2145.0601 874.4682 2143.3345 874.4682zM2218.4107 748.1619H1986.6919c-1.7254 0-3.1257-2.8093-3.1257-6.2756h0c0-3.4663 1.4003-6.2769 3.1257-6.2769h231.7188c1.7254 0 3.1243 2.8106 3.1243 6.2769h0C2221.535 745.3526 2220.1361 748.1619 2218.4107 748.1619z"></path><path fill="#0cf" d="M2113.2129,761.5509h59.3179a.6216.6216,0,0,1,.6216.6216v11.309a.6219.6219,0,0,1-.6219.6219h-59.3173a.6219.6219,0,0,1-.6219-.6219v-11.309A.6216.6216,0,0,1,2113.2129,761.5509Z"></path><path fill="#e3eaff" d="M2063.663,774.1034h-76.9711c-1.7254,0-3.1257-2.8092-3.1257-6.2755h0c0-3.4663,1.4003-6.277,3.1257-6.277h76.9711c1.7254,0,3.1244,2.8107,3.1244,6.277h0C2066.7874,771.2942,2065.3884,774.1034,2063.663,774.1034Z"></path><path fill="#0cf" d="M2104.6271,774.1034h-30.5213c-1.7268,0-3.1258-2.8092-3.1258-6.2755h0c0-3.4663,1.399-6.277,3.1258-6.277h30.5213c1.7268,0,3.1258,2.8107,3.1258,6.277h0C2107.7529,771.2942,2106.3539,774.1034,2104.6271,774.1034Z"></path><path fill="#e3eaff" d="M1971.4108 799.1815H1938.952c-1.7253 0-3.1243-2.8092-3.1243-6.2755h0c0-3.4677 1.399-6.277 3.1243-6.277h32.4588c1.7253 0 3.1243 2.8093 3.1243 6.277h0C1974.5351 796.3723 1973.1361 799.1815 1971.4108 799.1815zM2218.4107 799.1815H1986.6919c-1.7254 0-3.1257-2.8092-3.1257-6.2755h0c0-3.4677 1.4003-6.277 3.1257-6.277h231.7188c1.7254 0 3.1243 2.8093 3.1243 6.277h0C2221.535 796.3723 2220.1361 799.1815 2218.4107 799.1815zM1971.4108 898.4936H1938.952c-1.7253 0-3.1243-2.8092-3.1243-6.2755h0c0-3.4663 1.399-6.277 3.1243-6.277h32.4588c1.7253 0 3.1243 2.8107 3.1243 6.277h0C1974.5351 895.6844 1973.1361 898.4936 1971.4108 898.4936zM2113.3224 885.9411h82.3229a.7311.7311 0 01.7311.7311v11.09a.7314.7314 0 01-.7314.7314h-82.3223a.7314.7314 0 01-.7314-.7314v-11.09A.7311.7311 0 012113.3224 885.9411zM2063.663 898.4936h-76.9711c-1.7254 0-3.1257-2.8092-3.1257-6.2755h0c0-3.4663 1.4003-6.277 3.1257-6.277h76.9711c1.7254 0 3.1244 2.8107 3.1244 6.277h0C2066.7874 895.6844 2065.3884 898.4936 2063.663 898.4936zM2104.6271 898.4936h-30.5213c-1.7268 0-3.1258-2.8092-3.1258-6.2755h0c0-3.4663 1.399-6.277 3.1258-6.277h30.5213c1.7268 0 3.1258 2.8107 3.1258 6.277h0C2107.7529 895.6844 2106.3539 898.4936 2104.6271 898.4936z"></path><path fill="#ffc359" d="M1971.4108,923.5718H1938.952c-1.7253,0-3.1243-2.8093-3.1243-6.277h0c0-3.4663,1.399-6.2755,3.1243-6.2755h32.4588c1.7253,0,3.1243,2.8092,3.1243,6.2755h0C1974.5351,920.7625,1973.1361,923.5718,1971.4108,923.5718Z"></path><path fill="#0cf" d="M2026.8096 923.5718h-40.1177c-1.7254 0-3.1257-2.8093-3.1257-6.277h0c0-3.4663 1.4003-6.2755 3.1257-6.2755h40.1177c1.727 0 3.126 2.8092 3.126 6.2755h0C2029.9356 920.7625 2028.5366 923.5718 2026.8096 923.5718zM1938.952 825.1231c-1.7253 0-3.1243-2.8092-3.1243-6.2756h0c0-3.4663 1.399-6.2769 3.1243-6.2769h32.4588c1.7253 0 3.1243 2.8106 3.1243 6.2769h0c0 3.4664-1.399 6.2756-3.1243 6.2756"></path><path fill="#e3eaff" d="M2113.3687,812.5706h93.117a.7771.7771,0,0,1,.7771.7771v10.9981a.7773.7773,0,0,1-.7773.7773h-93.1169a.7773.7773,0,0,1-.7773-.7773V813.348A.7774.7774,0,0,1,2113.3687,812.5706Z"></path><path fill="#ffc359" d="M2063.663 825.1231h-76.9711c-1.7254 0-3.1257-2.8092-3.1257-6.2756h0c0-3.4663 1.4003-6.2769 3.1257-6.2769h76.9711c1.7254 0 3.1244 2.8106 3.1244 6.2769h0C2066.7874 822.3139 2065.3884 825.1231 2063.663 825.1231zM2104.6271 825.1231h-30.5213c-1.7268 0-3.1258-2.8092-3.1258-6.2756h0c0-3.4663 1.399-6.2769 3.1258-6.2769h30.5213c1.7268 0 3.1258 2.8106 3.1258 6.2769h0C2107.7529 822.3139 2106.3539 825.1231 2104.6271 825.1231z"></path><path fill="#e3eaff" d="M2172.3651 950.2424H1986.6919c-1.7254 0-3.1257-2.8106-3.1257-6.2769h0c0-3.4663 1.4003-6.2755 3.1257-6.2755h185.6732c1.7254 0 3.1258 2.8092 3.1258 6.2755h0C2175.4909 947.4318 2174.0905 950.2424 2172.3651 950.2424zM2045.9217 976.184h-59.2298c-1.7254 0-3.1257-2.8107-3.1257-6.277h0c0-3.4663 1.4003-6.2755 3.1257-6.2755h59.2298c1.7254 0 3.1243 2.8092 3.1243 6.2755h0C2049.046 973.3733 2047.6471 976.184 2045.9217 976.184zM2143.3345 976.184h-85.3578c-1.7253 0-3.1243-2.8107-3.1243-6.277h0c0-3.4663 1.399-6.2755 3.1243-6.2755h85.3578c1.7256 0 3.1258 2.8092 3.1258 6.2755h0C2146.4603 973.3733 2145.0601 976.184 2143.3345 976.184zM2172.3651 1102.4904H1986.6919c-1.7254 0-3.1257-2.8107-3.1257-6.277h0c0-3.4663 1.4003-6.2755 3.1257-6.2755h185.6732c1.7254 0 3.1258 2.8092 3.1258 6.2755h0C2175.4909 1099.6797 2174.0905 1102.4904 2172.3651 1102.4904z"></path><path fill="#ff56a9" d="M1971.4108,1128.4319H1938.952c-1.7253,0-3.1243-2.8107-3.1243-6.277h0c0-3.4663,1.399-6.2755,3.1243-6.2755h32.4588c1.7253,0,3.1243,2.8092,3.1243,6.2755h0C1974.5351,1125.6212,1973.1361,1128.4319,1971.4108,1128.4319Z"></path><path fill="#0cf" d="M2045.9217,1128.4319h-59.2298c-1.7254,0-3.1257-2.8107-3.1257-6.277h0c0-3.4663,1.4003-6.2755,3.1257-6.2755h59.2298c1.7254,0,3.1243,2.8092,3.1243,6.2755h0C2049.046,1125.6212,2047.6471,1128.4319,2045.9217,1128.4319Z"></path><path fill="#e3eaff" d="M2143.3345,1128.4319h-85.3578c-1.7253,0-3.1243-2.8107-3.1243-6.277h0c0-3.4663,1.399-6.2755,3.1243-6.2755h85.3578c1.7256,0,3.1258,2.8092,3.1258,6.2755h0C2146.4603,1125.6212,2145.0601,1128.4319,2143.3345,1128.4319Z"></path><path fill="#ff56a9" d="M1971.4108 1002.1255H1938.952c-1.7253 0-3.1243-2.8106-3.1243-6.2769h0c0-3.4663 1.399-6.2756 3.1243-6.2756h32.4588c1.7253 0 3.1243 2.8093 3.1243 6.2756h0C1974.5351 999.3149 1973.1361 1002.1255 1971.4108 1002.1255zM1984.2758 989.573h171.2323a.7096.7096 0 01.7096.7096v11.1336a.7093.7093 0 01-.7093.7093H1984.2758a.7096.7096 0 01-.7096-.7096V990.2826A.7096.7096 0 011984.2758 989.573z"></path><path fill="#e3eaff" d="M1971.4108 1028.0671H1938.952c-1.7253 0-3.1243-2.8107-3.1243-6.277h0c0-3.4663 1.399-6.2755 3.1243-6.2755h32.4588c1.7253 0 3.1243 2.8092 3.1243 6.2755h0C1974.5351 1025.2564 1973.1361 1028.0671 1971.4108 1028.0671zM2063.663 1028.0671h-76.9711c-1.7254 0-3.1257-2.8107-3.1257-6.277h0c0-3.4663 1.4003-6.2755 3.1257-6.2755h76.9711c1.7254 0 3.1244 2.8092 3.1244 6.2755h0C2066.7874 1025.2564 2065.3884 1028.0671 2063.663 1028.0671zM2104.6271 1028.0671h-30.5213c-1.7268 0-3.1258-2.8107-3.1258-6.277h0c0-3.4663 1.399-6.2755 3.1258-6.2755h30.5213c1.7268 0 3.1258 2.8092 3.1258 6.2755h0C2107.7529 1025.2564 2106.3539 1028.0671 2104.6271 1028.0671zM1971.4108 1053.1438H1938.952c-1.7253 0-3.1243-2.8092-3.1243-6.2756h0c0-3.4663 1.399-6.2769 3.1243-6.2769h32.4588c1.7253 0 3.1243 2.8106 3.1243 6.2769h0C1974.5351 1050.3346 1973.1361 1053.1438 1971.4108 1053.1438zM1984.3622 1040.5913h215.8133a.7962.7962 0 01.7962.7962v10.9601a.7962.7962 0 01-.7962.7962H1984.3621a.7959.7959 0 01-.7959-.7959v-10.9606A.796.796 0 011984.3622 1040.5913zM1971.4108 1152.4559H1938.952c-1.7253 0-3.1243-2.8107-3.1243-6.2756h0c0-3.4663 1.399-6.2769 3.1243-6.2769h32.4588c1.7253 0 3.1243 2.8106 3.1243 6.2769h0C1974.5351 1149.6452 1973.1361 1152.4559 1971.4108 1152.4559zM2218.169 1152.4559H2115.7157c-1.7254 0-3.1244-2.8107-3.1244-6.2756h0c0-3.4663 1.399-6.2769 3.1244-6.2769H2218.169c1.7254 0 3.1244 2.8106 3.1244 6.2769h0C2221.2934 1149.6452 2219.8944 1152.4559 2218.169 1152.4559zM2063.663 1152.4559h-76.9711c-1.7254 0-3.1257-2.8107-3.1257-6.2756h0c0-3.4663 1.4003-6.2769 3.1257-6.2769h76.9711c1.7254 0 3.1244 2.8106 3.1244 6.2769h0C2066.7874 1149.6452 2065.3884 1152.4559 2063.663 1152.4559zM2104.6271 1152.4559h-30.5213c-1.7268 0-3.1258-2.8107-3.1258-6.2756h0c0-3.4663 1.399-6.2769 3.1258-6.2769h30.5213c1.7268 0 3.1258 2.8106 3.1258 6.2769h0C2107.7529 1149.6452 2106.3539 1152.4559 2104.6271 1152.4559z"></path><path fill="#ffc359" d="M1984.2133,1164.9815H2126.54a.6471.6471,0,0,1,.6471.6471v11.2585a.6469.6469,0,0,1-.6469.6469H1984.2133a.6471.6471,0,0,1-.6471-.6471v-11.2583A.6471.6471,0,0,1,1984.2133,1164.9815Z"></path><path fill="#ff56a9" d="M2113.391,1066.5328h98.6355a.7997.7997,0,0,1,.7997.7997v10.9528a.8.8,0,0,1-.8.8H2113.391a.7997.7997,0,0,1-.7997-.7997v-10.9531A.7997.7997,0,0,1,2113.391,1066.5328Z"></path><path fill="#ffc359" d="M2063.663 1079.0853h-76.9711c-1.7254 0-3.1257-2.8092-3.1257-6.2755h0c0-3.4663 1.4003-6.277 3.1257-6.277h76.9711c1.7254 0 3.1244 2.8107 3.1244 6.277h0C2066.7874 1076.2761 2065.3884 1079.0853 2063.663 1079.0853zM2104.6271 1079.0853h-30.5213c-1.7268 0-3.1258-2.8092-3.1258-6.2755h0c0-3.4663 1.399-6.277 3.1258-6.277h30.5213c1.7268 0 3.1258 2.8107 3.1258 6.277h0C2107.7529 1076.2761 2106.3539 1079.0853 2104.6271 1079.0853z"></path><circle cx="2310.456" cy="624.84" r="102.562" fill="#ff50b0" transform="rotate(-2.043 2310.45 624.839)"></circle><path fill="#f9fbfc" d="M2303.0238 615.2182l-40.7352 14.9251 40.7352 14.8021v15.2939l-58.2293-22.1431V622.1918l58.2293-22.1389zM2316.3295 600.0529l58.2278 22.1389v15.9044l-58.2278 22.1431V644.9454l40.7337-14.8021-40.7337-14.9251z"></path><path d="M1563.8156,520.9319H980.50417a85.7805,85.7805,0,1,0,0,171.561h42.88993l41.461,41.461,41.4611-41.461h457.4994a85.7805,85.7805,0,1,0,0-171.561Z" style="mix-blend-mode:multiply" fill="#c9c9c9" opacity=".55"></path><path fill="#9570ee" d="M1572.9381,507.2481H989.6267a85.7805,85.7805,0,1,0,0,171.561h42.89l41.4609,41.461,41.4611-41.461h457.4994a85.7805,85.7805,0,1,0,0-171.561Z"></path><path fill="#fff" d="M1406.0278 620.3738h-383.833a9.59509 9.59509 0 01-9.5966-9.5943h0a9.5956 9.5956 0 019.5966-9.5967h383.833a9.59475 9.59475 0 019.5956 9.5967h0A9.59424 9.59424 0 011406.0278 620.3738zM1286.0797 567.5966H1022.1948a9.59535 9.59535 0 01-9.5966-9.5955h0a9.59612 9.59612 0 019.5966-9.5955h263.8849a9.59516 9.59516 0 019.5954 9.5955h0A9.59439 9.59439 0 011286.0797 567.5966z"></path><g clip-path="url(#A)"><path fill="url(#B)" d="M535.98519,2186.6762s7.0617-3.653,18.8936-8.36208c54.17461-16.7024,168.87029-11.4561,211.26109,6.7649,25.30052,10.876,84.21952,39.5981,134.6713,64.5143-18.5307,2.1603-63.0913,14.2493-77.249-.3495,0,0-30.5334,73.928-18.1647,105.7923,12.3602,31.8688,149.3835,45.6819,122.5952,53.1145-26.7842,7.43658-131.8695-15.511-131.8695-15.511s-9.2743,76.05758,19.57422,90.9272c28.84858,14.8737,180.292-7.43262,165.86787,7.4366-14.42449,14.8741-152.99279,30.2756-168.95779,13.8091,0,0-3.09,91.35039,47.3882,100.913,50.4871,9.5621,188.64562-67.98409,176.73942-46.7384-11.8972,21.24609-139.6507,82.8532-178.79922,59.4865,0,0,35.0284,87.1039,66.9669,87.1039,31.9381,0,110.71512-112.08131,126.693-95.6015,15.9824,16.4754-68.99633,96.662-116.39352,106.2245,0,0,18.5486,49.9195,79.33572,35.0504,60.7781-14.86971,50.4781-112.5966,69.0222-104.0945,18.5446,8.493,1.0302,115.7821-60.7866,115.7821,0,0,100.9653,24.4272,124.6592-31.8688,6.6688-15.8296,9.916-28.8003,11.2514-39.39251,9.235,44.477,14.4808,98.11531,17.0908,151.893h-92.1053C944.848,2891.159,950.635,2987.0527,1095.5669,3031.0064h277.9577c144.9667-43.9622,150.6841-139.86479,11.9017-187.4362h-75.2464c17.484-142.71929,43.3731-261.34689,64.4879-342.89968,3.3344,9.5188,8.7988,21.6998,16.9339,30.0879,15.1574,15.62439,44.2983-37.6295,44.2983-64.1867,0-26.5568-31.3625-1.06052-31.3625-15.9342,0-14.8692,4.5782-7.437,44.7613-7.437,40.1782,0,54.5978-84.9739,54.5978-84.9739s-60.7822,7.43258-60.7822-4.251c0-11.6876,48.4224-5.3116,79.3267-13.8087,30.9039-8.4975,48.4224-77.54172,48.4224-77.54172s-88.601,26.55722-88.601,14.86922c0-11.6877,68.5164-22.8385,81.391-36.1149,12.875-13.2809,17.51-73.2952,17.51-73.2952s-58.7224,56.3001-67.9967,56.3001c-9.2702,0,62.3316-62.1439,55.6369-69.0487-6.6992-6.8998-9.2743-36.24582-9.2743-36.24582-12.8138,13.2107-33.9943-4.1156-47.3927,9.693-13.3899,13.80913-37.6035,119.50092-47.3882,129.5913-9.7891,10.09032,27.3036-84.44608,10.3-101.97348-16.9952-17.52739-63.0391,26.8804-72.1127,36.2418-9.0732,9.357,21.6341,111.9374,9.2698,124.6855s-9.8325-90.2376-19.6788-100.3802c-9.837-10.1431-35.9536,15.9341-43.6784,46.2052-7.7293,30.2755,59.495,82.0591,40.1782,101.9779-19.3164,19.9144-37.0883-55.7678-54.0874-73.2952-12.5649-12.9577-38.6029,12.3906-51.3514,34.8627,2.9809-91.6691,7.568-173.3219,14.4464-231.59072,13.7608,38.2668,84.8518,84.123,134.8281,31.6239,10.649,8.6634,23.8034,12.526,40.1827,6.4418,59.3949-22.0528,64.8588-37.2715,52.3592-43.3119-12.5082-6.04-128.5696-73.3779-114.39-80.6273,14.1885-7.2448,118.2745,76.8652,138.1321,66.7225,19.8536-10.1426,50.391-51.7831,46.8166-53.5068-3.5744-1.7242-147.6509-55.3446-131.5724-63.5584,16.0741-8.2093,127.4742,70.9775,148.4496,36.0014,20.9753-34.9802,21.883-56.1562,19.9277-64.6184-1.9642-8.4672-126.6322-17.9377-122.429-27.1861,4.2072-9.2479,121.5821,9.8593,130.6862-10.173,9.1044-20.0368,11.3823-49.0119,1.2616-53.9002-10.1212-4.8878-70.847,13.7086-66.2903,3.6879,4.5473-10.0161,64.0816-13.2106,61.8779-22.7383-2.2086-9.5228-8.6589-62.4451-4.4517-71.6935,0,0-42.099-28.7914-52.2894-43.1108-10.1909-14.3195-21.189-9.2962-24.6892-1.5888s-31.214,125.4189-34.2781,112.1903c-3.068-13.2286,31.8599-118.056,24.72-121.5084-7.1488-3.4519-44.0279-32.5449-55.4058-15.4846-11.3819,17.0559-15.4367,172.9814-28.3551,174.256-12.9274,1.2786,18.339-180.9726,18.339-180.9726s-43.2856,2.5836-58.7965,22.3456c-15.5154,19.7574.7941,202.7684-12.5564,201.7906-13.3506-.9774-6.9526-192.4162-6.9526-192.4162s-53.7907,25.7018-57.147,52.272c-3.3603,26.5702,33.955,146.56,22.1359,152.6-11.8185,6.0405-24.1345-117.8509-24.1345-117.8509s-46.8211,21.5514-49.5137,57.841c-2.6976,36.2897,42.7314,81.7271,37.4766,93.2882-5.2548,11.5567-45.7735-37.2629-52.6081-66.7662-6.8346-29.4984-58.2642,122.2199-14.8039,143.2166,13.128,6.3372,23.0047,8.6066,30.4632,8.7421-21.5161,57.1818-27.9364,283.902-29.7214,345.54842-8.2267-8.0435-13.8176-13.9092-13.8176-13.9092-11.4431,4.5433-18.2339,19.43478-21.4025,38.6551-5.6476-7.2055-9.6193-11.5651-9.6193-11.5651s-4.6131,15.9779-11.5916,37.5333c-7.2623-57.7797-6.4417-42.3604-6.6429-54.7072,1.1352-7.2798,1.1611-13.3157-.2833-17.6494-5.8791-368.18682-4.2555-344.82452-6.0141-346.83652.8335-25.3568,8.9601-248.7033,39.0699-308.7963,31.938-63.7326,52.5424-138.0883,52.5424-138.0883s-27.3036,44.0846-51.5083,69.0441c-24.2136,24.9645-45.3328,29.7433-45.3328,52.0495s31.9344,94.5409,11.3345,83.9178c-20.6084-10.6226-15.4586-54.1745-22.6687-54.1745s-37.0882,99.848-37.0882,105.1635c0,5.3071,51.5127,46.738,38.1184,60.5471-13.3899,13.8086-35.0285-53.1145-43.2686-44.6169-8.2397,8.5015-10.304,81.7923-10.304,100.9129,0,19.1202,39.6678,9.0298,21.6341,27.6173-17.9377,18.4963-21.5907,92.6818-21.6296,126.916-42.832-101.1355-81.3213-127.16-144.2249-165.3964,13.6951-.0174,31.109-3.6968,45.5769-18.6138,28.495-29.3813,41.5882-137.8573-24.1131-167.7579,2.8978-16.0168.8554-32.3966-10.6579-47.3444-41.72322-54.175-56.40512-52.5817-56.40512-35.8534,0,16.7332-9.2699,177.6605-20.8614,165.7106-11.592-11.9495,16.2265-168.0976,0-184.8308-16.2269-16.7283-62.58938-29.4725-62.58938-24.6981,0,4.7837,13.13248,189.6145,0,176.0718-13.13252-13.5468,7.72928-175.2727-29.35892-180.8462-37.0887-5.5778-54.8646,3.9802-61.04,10.3523-6.1844,6.3765,35.5388,147.8954,26.2645,147.8954-9.2699,0-40.1782-138.3333-60.2673-138.3333-20.0896,0-44.818,11.95-44.818,25.4967,0,13.5428,39.4104,70.9038,29.3634,70.9038-10.0466,0-36.3116-63.7376-43.2682-56.5669s-47.90748,40.6283-57.1773,40.6283c0,0-6.9571,60.551-14.6864,78.8726-7.7249,18.3216.77722,27.8881,8.502,27.8881,7.7293,0,115.5158-28.2854,105.8576-18.326-9.6582,9.9599-109.7202,23.9039-109.7202,33.4576,0,9.5621-9.2699,64.5312,9.2743,68.5159s148.3534-69.3106,154.5333-55.7678c6.1843,13.5427-156.0783,70.1092-156.0783,70.1092s19.3168,46.2056,41.7232,53.3763c22.4067,7.1707,166.4001-101.9734,170.9001-86.8379,4.495,15.1355-155.4455,103.5707-155.4455,103.5707s42.4954,46.2057,65.6789,36.6476c23.1795-9.5621,107.0146-110.3441,116.67282-100.3847s-87.30892,85.2447-87.30892,85.2447,36.3115,40.6323,67.2198,25.4923c30.9084-15.1356,50.2252-87.6321,61.8123-87.6321,11.592,0-12.4559,68.7997-33.9938,91.0143-21.5425,22.2106,123.62489,2.9943,123.62489-55.1654,0-24.6064-4.0195-38.3016-8.65039-45.9961,25.74572,15.9083,53.59452,30.7381,77.77772,56.68,62.6592,64.8414,102.8852,192.76122,128.836,340.78262-8.9512-6.3587-15.8689-5.6955-15.8689,2.2564,0,13.8132-32.4489,157.7458-48.4228,141.2789-15.9646-16.46652,45.3373-147.6509,23.6988-169.9571-12.8443-13.2416-42.701-30.5285-66.1768-39.1177-.0219-.0219-.0219-.0478-.0438-.06972-10.1297-10.44388-40.9246-21.35928-31.4541-51.63478,9.475-30.2715-40.3788-57.3565-40.3788-57.3565s-30.90882,46.2056-58.72282,46.2056c-27.81838,0,35.54329-30.276,35.54329-47.80289,0-17.52293-95.81059-49.39173-95.81059-49.39173s26.8844,79.18722,26.7271,102.98622c-11.4128-8.2402-23.6331-12.0675-34.0855-17.881-9.06068-26.125-13.2241-77.63332-28.1853-83.512-15.5543-6.1101-38.11838-21.7829-48.53138-10.6972,30.633,80.33492-3.03772,64.75422-18.49632,58.9493-7.4764-19.4607-25.6541-84.8997-30.3323-84.8997-5.0671,0-14.2976,6.1929-28.9402,10.5006,10.93282,21.5948,35.3864,73.18573,21.70382,77.29292-12.73522,3.8188-47.00392-46.95612-64.28682-74.16812-1.877-.2399-3.7885-.5282-5.7437-.8772-13.128-2.3352-21.9791-3.3997-28.8486-2.7932,10.3174,15.3625,24.9122,40.2439,19.1247,50.6748-5.1761,9.3131-29.2937-12.4648-47.89858-31.5372-4.94952,5.4335-10.91532,12.1417-18.82792,20.3032A491.16773,491.16773,0,0,0,535.98519,2186.6762ZM959.416,1819.4061c-3.8448-3.9627,22.72089-30.5808,37.07972-62.8334a56.34045,56.34045,0,0,0,.7812,10.2517C1001.1396,1789.1306,965.98418,1826.1755,959.416,1819.4061Zm429.01712,231.5473c4.7046-2.4048,12.5564,33.7015,30.1491,59.6653a35.37572,35.37572,0,0,0-8.0132-2.9242C1392.1429,2103.4958,1380.3941,2055.0601,1388.4331,2050.9534Zm-195.061,267.50932c-11.714-67.2722-27.0198-130.83952-53.9958-202.30992,8.5802,5.4639,20.229,3.2687,30.7251-7.555,18.1294-18.6925,10.6664-86.48,22.5592-99.7778C1191.4691,2036.8694,1192.0631,2163.64562,1193.3721,2318.46272Zm68.6428,211.37948c-.0523,4.05892-.109,8.10432-.1573,12.16312-11.958,16.34488-25.9633,35.129-36.8961,36.57788q-.96255-11.26679-1.9641-22.49389c7.1184-8.9686,17.7195-20.29419,27.4041-33.96349C1255.8654,2529.03912,1259.0823,2529.17412,1262.0149,2529.8422Zm74.4693-110.53628c-7.7906,8.0261-33.5054-11.9236-54.6287-31.03972.2266-9.42668.4666-18.806.7245-28.08878C1300.203,2380.84252,1347.8795,2407.55262,1336.4842,2419.30592Zm-57.5443,424.26428c-.4277-70.38-.6284-151.69679-.1569-235.49709,9.3221-30.0222,10.6227-63.6191,8.8247-80.33449,28.4204-7.8473,63.5275-29.11042,77.0613-37.74342-21.6515,82.50421-48.85,205.11651-66.9535,353.575Zm-37.4024,0c-2.4093-56.545-5.6477-117.16129-9.9116-178.60759,12.0237-4.255,20.351-9.3963,29.2454-20.7478-.4536,70.99939-.4492,139.1882-.2266,199.35539Zm-30.5071,0c-.9599-45.62969-2.1429-102.554-3.5091-173.92439a82.00518,82.00518,0,0,0,9.8025-1.0605c3.6616,61.1446,6.0056,120.2512,7.5895,174.98489ZM1159.8453,2658.019a96.41727,96.41727,0,0,0,37.027,11.3037c.6985,63.288,1.3881,122.8044,1.9945,174.24749h-11.7966C1183.3255,2777.89931,1175.177,2711.25141,1159.8453,2658.019Zm32.5668-253.61759c2.3391,17.0604,1.772,6.7953,2.2998,60.2325-14.2757,38.9782-31.2878,76.8347-42.1249,72.0469C1137.7875,2530.143,1173.5753,2458.54162,1192.4121,2404.40142Zm-169.9397-122.5948c6.1187-1.8158,12.4121-3.771,18.4221-5.7875,2.8759,41.9153,16.9205,131.071-9.8767,131.071C1006.7782,2407.09012,1022.6208,2326.87712,1022.4724,2281.80662ZM911.71358,2254.983c7.4804,3.7009,14.6466,7.2578,21.43782,10.6316,11.09418,24.9117,31.79868,75.3813,15.44978,71.3663C930.39308,2332.51182,922.38888,2273.59282,911.71358,2254.983Z"></path></g><polygon fill="#e83a3a" points="1746.041 2064.305 1799.105 2467.113 1490.366 2467.113 1478.306 2143.902 1746.041 2064.305"></polygon><path fill="#f44545" d="M1334.3884,1883.4035s-164.8216,67.5367-186.5298,323.21122,12.0601,516.17309,12.0601,516.17309H1490.366l50.6525-611.046S1472.6778,1861.6953,1334.3884,1883.4035Z"></path><path fill="#2b2421" d="M1818.4012,1051.2552s-45.8284-72.3607-147.1334-24.1202c-98.6727,46.987-176.0778,501.701-260.4986,578.8857s-120.6012,120.6012-84.4209,171.2537-16.8841,31.3564-14.4721,74.7728,43.4164,48.2405,43.4164,48.2405l294.2669-371.4517Z"></path><path fill="url(#C)" d="M1274.0092,1924.4079s20.9828,91.6569,139.172,106.1291l-14.4721-96.481-77.1848-45.8284S1289.2067,1909.9358,1274.0092,1924.4079Z"></path><path fill="#3a72ef" d="M1428.892,1686.4237l-35.007,88.4387s-86.8329,55.4766-82.0088,77.1848,8.4421,36.0274,8.4421,36.0274,37.3863,58.0415,78.3908,70.1016,50.6525-132.6613,50.6525-132.6613l2.412-233.9663-6.8915,38.5923A292.74685,292.74685,0,0,1,1428.892,1686.4237Z"></path><path fill="none" stroke="#dd2a2a" stroke-miterlimit="10" stroke-width="7.236" d="M1250.3696,2120.9879s123.0132-16.8842,180.9018-156.7816"></path><path fill="none" stroke="#443a36" stroke-miterlimit="10" stroke-width="2.412" d="M1777.3968,1048.8432s-96.4809-55.4765-130.2493,31.3563-26.5322,205.0221-91.6569,279.7948"></path><path fill="#4f80ff" d="M2242.9174,1741.0941H1905.2341c-21.7082,31.3563-131.4553,243.6144-131.4553,243.6144l-148.3395,188.13792-135.0733,21.7082s-67.5367-14.4722-101.305-67.53672,77.1847-412.4561,60.3006-559.5895,0-188.1379,62.7126-214.1877c62.7126-26.05,147.1334,26.0498,147.1334,26.0498s217.0822,16.8842,260.4986,24.1202c18.1144,3.0151,45.0566,36.2768,72.7708,77.3537,38.6648,57.3578,78.8009,129.9115,98.4829,156.6127C2124.7283,1683.2055,2242.9174,1741.0941,2242.9174,1741.0941Z"></path><path fill="#2d6cf9" d="M1768.0418,1516.7039s125.7941-3.1336,189.577-80.2046l-45.1796-58.4676-100.9896,66.4405Z"></path><path fill="#f4a07a" d="M1811.1652,1446.8272l-4.5495,27.2964a50.87281,50.87281,0,0,1-59.5964,41.6813c-34.3118-6.517-74.7937-23.9024-85.3996-68.9777-7.2361-30.7533-9.72-53.7075-1.6112-66.5662,11.2593-17.8547,20.9074-37.1509,20.9074-37.1509S1823.2253,1345.5222,1811.1652,1446.8272Z"></path><path fill="#f9a880" d="M2001.715,1239.3931s-28.9442,195.3739-111.8938,226.7303a97.26783,97.26783,0,0,1-28.5341,6.0059c-51.3038,2.9909-109.6265-25.2299-131.2383-100.0749-25.7846-89.2449,18.0419-207.434,18.0419-207.434l141.7305-50.6525,4.2452,2.7978,73.0602,47.8547Z"></path><path fill="#ffba94" d="M2001.715,1239.3931a713.60743,713.60743,0,0,1-16.7636,78.0289,544.80755,544.80755,0,0,1-19.6097,59.2393c-17.5113,43.73-42.138,76.8471-75.5205,89.4621a97.26783,97.26783,0,0,1-28.5341,6.0059c-48.0718-2.7498-102.5593-38.2788-122.4827-107.311-25.7845-89.2448-26.5322-202.61-26.5322-202.61l181.7942-45.4426,73.0602,47.8547Z"></path><path fill="#352d29" d="M1934.9744,1166.3569a90.7541,90.7541,0,0,1-15.2682-4.1486s-28.9443-21.7082-41.0044-4.824-45.8284,120.6012-161.6056,120.6012l-.8441,2.2673-23.2761,62.8573s-98.893-74.7727-48.2405-197.7859,156.7816-98.893,156.7816-98.893,79.5967-62.7126,142.3094,43.4164C1988.9555,1166.2364,1956.6343,1170.1438,1934.9744,1166.3569Z"></path><path fill="#352d29" d="M2035.5558,1219.6868c-3.2563,14.424-18.3556,25.2056-36.5181,26.3152a357.30994,357.30994,0,0,1-61.579-1.7126c-5.0652-.5788-9.6722-1.206-13.7486-1.8331-10.0581-1.5436-16.3293-9.6963-13.459-17.5836a140.71268,140.71268,0,0,0,5.1135-18.9585,209.07575,209.07575,0,0,0-.9166-86.3264l-10.2752-47.2274-1.3507-6.1989s3.5216-.796,9.4069-1.5678c3.5456-.4342,7.9355-.8683,12.9284-1.0855,27.8347-1.3266,74.6281,3.4975,98.1694,45.732C2045.8309,1149.6416,2041.4652,1193.6369,2035.5558,1219.6868Z"></path><path fill="none" stroke="#ce2828" stroke-miterlimit="10" stroke-width="7.236" d="M1358.9107,1935.262s-112.1592,95.275-126.6313,271.35272,0,516.17309,0,516.17309"></path><path fill="#ff6c6c" d="M1205.5053,1988.7052l22.097,12.6269a5.615,5.615,0,0,1,2.2405,7.3984c-8.3764,16.7121-36.1591,76.0963-48.6419,151.61242a27.49849,27.49849,0,0,1-37.3437,21.0334h0a4.56807,4.56807,0,0,1-2.8562-4.7673c2.2692-19.7555,15.2759-119.383,53.2681-184.898A8.25463,8.25463,0,0,1,1205.5053,1988.7052Z"></path><path fill="#352d29" d="M1829.8031 1248.1943c4.6453.7417 10.1748-.8063 15.5971-2.043 5.4377-1.3438 10.929-2.5785 15.734-3.5096 4.8151-.9358 10.375-1.8491 15.9204-2.6385 5.4949-.8836 11.228-1.5264 15.197-3.9402 3.8435-2.2803 4.7026-6.8391-1.2008-11.0946-5.5783-4.1748-18.6634-7.3507-34.6018-4.2893-15.9059 3.1241-26.6533 10.9295-30.083 16.8537C1822.6834 1243.6518 1825.3333 1247.5281 1829.8031 1248.1943zM1969.053 1249.5233c1.9382 1.8459 5.0098 2.3392 7.9333 3.02 2.9645.6102 5.9197 1.3121 8.4586 2.031 2.5451.7185 5.4313 1.6653 8.2718 2.6949 2.8464.9491 5.7285 2.135 8.3429 1.5758 2.5137-.5014 4.3488-3.4521 2.9273-8.1205-1.2948-4.5192-6.4129-10.4808-14.8261-12.8843-8.4177-2.3503-15.896.0536-19.3621 3.2278C1967.1532 1244.3064 1967.173 1247.7803 1969.053 1249.5233z"></path><path fill="#fca286" d="M1984.9514,1317.422a544.80755,544.80755,0,0,1-19.6097,59.2393,77.73645,77.73645,0,0,1,2.9669-28.9924C1971.8542,1335.4399,1977.8359,1324.9958,1984.9514,1317.422Z"></path><ellipse cx="1981.683" cy="1309.344" fill="none" stroke="#1f267f" stroke-miterlimit="10" stroke-width="4.824" rx="46.193" ry="30.059" transform="rotate(-76.012 1981.683 1309.344)"></ellipse><path fill="#ffba94" d="M1941.4144,1328.638l7.2361,21.7082s8.622-8.0145,3.4171-16.2812C1948.6505,1328.638,1941.4144,1328.638,1941.4144,1328.638Z"></path><path fill="#ff806d" d="M1942.9517,1357.5634c-.2024.0065-.4082.0058-.6142-.0024l-8.0445-.3309a1.80421,1.80421,0,0,1-1.5182-1.9649c.0179-1.0502.7639-1.945,1.5781-1.841l8.0445.3308c2.3574.1072,4.5694-1.2216,6.2994-3.6997a18.02214,18.02214,0,0,0,2.8991-9.9299l.0186-1.1246c.0471-2.9754-1.3849-5.4603-3.1938-5.5366-2.6906-.1114-5.1735-1.7699-6.9939-4.667a18.73868,18.73868,0,0,1-2.6102-10.1852l.3339-16.0522a1.7588,1.7588,0,0,1,1.5878-1.8299,1.81235,1.81235,0,0,1,1.5095,1.9763l-.3345,16.0412a14.262,14.262,0,0,0,1.9574,7.7459c1.234,1.9706,2.8737,3.094,4.613,3.1649,3.5176.1482,6.3103,4.395,6.2274,9.467l-.0186,1.1245a22.33783,22.33783,0,0,1-3.6309,12.3052C1948.8654,1355.7069,1946.0078,1357.4657,1942.9517,1357.5634Z"></path><ellipse cx="1807.547" cy="1329.844" fill="#fca286" rx="49.447" ry="54.271" transform="rotate(-11.5 1807.547 1329.844)"></ellipse><ellipse cx="1871.939" cy="1297.589" fill="none" stroke="#1f267f" stroke-miterlimit="10" stroke-width="4.824" rx="52.254" ry="47.669" transform="rotate(-79.867 1871.94 1297.59)"></ellipse><path fill="none" stroke="#1f267f" stroke-miterlimit="10" stroke-width="4.824" d="M1919.7062,1304.5178s26.6142-9.6445,31.3973,4.8258"></path><path fill="#ff806d" d="M1913.2742,1401.8027s-36.9844-5.628-51.4565-17.6882c0,0-9.6481,45.8285,9.648,45.8285S1913.2742,1401.8027,1913.2742,1401.8027Z"></path><line x1="1825.637" x2="1729.156" y1="1282.81" y2="1275.573" fill="none" stroke="#1f267f" stroke-miterlimit="10" stroke-width="4.824"></line><path fill="#352d29" d="M1889.1733,1299.8827c-.897,7.01-6.1278,12.1178-11.6848,11.4077s-9.335-6.9708-8.4382-13.9819,6.1279-12.1196,11.6842-11.408C1886.2916,1286.6107,1890.0702,1292.8699,1889.1733,1299.8827Z"></path><path fill="#352d29" d="M1873.8778 1292.4576a18.01062 18.01062 0 01-7.2361-7.236s1.2634 6.3917 3.0437 9.2259S1873.8778 1292.4576 1873.8778 1292.4576zM1963.0649 1307.0772c-1.3731 6.5396 1.1695 12.856 5.6807 14.1076s9.2822-3.0369 10.6559-9.5774-1.1691-12.8576-5.6802-14.1078C1969.2101 1296.2479 1964.439 1300.535 1963.0649 1307.0772z"></path><path fill="#352d29" d="M1977.0952,1305.6562a13.93966,13.93966,0,0,0,7.7357-3.9842s-2.8632,5.2575-5.0773,7.1752S1977.0952,1305.6562,1977.0952,1305.6562Z"></path><path fill="#443a36" d="M1737.4422 1244.6641s-46.499-86.9558-10.0655-153.3562C1727.3767 1091.3079 1701.4274 1170.777 1737.4422 1244.6641zM1799.856 1219.0405s-69.601-69.851-53.8651-143.9374C1745.9909 1075.1031 1744.0627 1158.6793 1799.856 1219.0405z"></path><g mask="url(#D)"><path d="M1934.9744,1166.3569a90.7541,90.7541,0,0,1-15.2682-4.1486s-28.9443-21.7082-41.0044-4.824-45.8284,120.6012-161.6056,120.6012l-.8441,2.2673c-8.5868-3.6422-6.0061-6.4161,17.7283-7.0914,84.4208-2.412,115.7771-113.3651,144.7214-139.8974s52.3651,7.7426,52.3651,7.7426Z" style="mix-blend-mode:multiply" fill="url(#n)" opacity=".6"></path></g><g mask="url(#E)"><path d="M1941.4144,1236.9811c-1.2784,2.5809-2.605,5.0169-3.9557,7.3083-5.0652-.5788-9.6722-1.206-13.7486-1.8331-10.0581-1.5436-16.3293-9.6963-13.459-17.5836a140.71268,140.71268,0,0,0,5.1135-18.9585,209.07575,209.07575,0,0,0-.9166-86.3264l-11.6259-53.8604c2.8703-3.2081,6.9225.7958,9.4069-1.1337,5.5718-4.3175,10.0098-5.21,12.7837-1.2783,0,0,.0482.0722.1447.1928C1928.6066,1067.7293,1988.2801,1143.2499,1941.4144,1236.9811Z" style="mix-blend-mode:multiply" fill="url(#F)" opacity=".6"></path></g><path fill="#ffba94" d="M1732.4375,1272.4609s-15.1544-38.52-50.4169-24.0865-31.2005,74.3655-2.3775,101.3495,56.2016-4.754,56.2016-4.754Z"></path><path fill="#ff806d" d="M1697.5236,1328.1621a4.469,4.469,0,0,0,3.0775-1.4111l18.5726-19.4251-26.9507-30.2234a4.43937,4.43937,0,0,0-6.6233-.1554,5.34647,5.34647,0,0,0-.1067,7.1492l20.4526,22.9364-11.88,12.4346a5.33718,5.33718,0,0,0-.0879,7.1485A4.516,4.516,0,0,0,1697.5236,1328.1621Z"></path><polygon fill="#3763ef" points="1624.53 1710.234 1609.47 1628.345 1649.963 1710.234 1624.53 1710.234"></polygon><path fill="#3763ef" d="M1620.1009 1508.2551s23.9186 53.1524-10.6305 119.5929l13.2881 41.4414s15.9458 3.7382 26.5762-41.4414l-19.9321 9.7447S1651.9924 1582.6685 1620.1009 1508.2551zM1896.4935 1598.6142s18.6033 87.7015 7.9728 111.6201h29.2339S1917.7544 1633.1633 1896.4935 1598.6142z"></path><path fill="#441e8c" fill-rule="evenodd" d="M2535.6513,1627.848v155.4709l-97.0032,97.0031H2066.5812V1744.5973a114.09015,114.09015,0,0,1,114.0917-114.0916H2390.811Z"></path><path fill="#592ba3" fill-rule="evenodd" d="M2535.6513,1631.489v151.8299l-97.0032,97.0031H2119.7336V1747.2549a114.09015,114.09015,0,0,1,114.0917-114.0916h210.1381Z"></path><path fill="#fabf44" d="M2841.0994,2008.8287v306.32712c-48.7228-14.1104-91.9946-40.4738-121.8314-62.0855a455.01485,455.01485,0,0,1-39.1229-31.5493c-1.7608-1.592-2.7739-2.5809-3.0151-2.798l-.0482-.0482s-2.4362,6.8742-6.2712,18.4519c-5.5717,16.73948-14.1345,43.2959-22.6731,73.205-11.9394,41.8003-4.8241,79.5968-4.8241,79.5968h-504.113c-195.3739-67.5366-180.9018-308.739-77.1848-460.69652,105.2608-154.2249,284.6189-188.1379,284.6189-188.1379l33.7683,7.2361,241.2024,24.1202s72.3607,45.8285,103.717,77.1848S2841.0994,2008.8287,2841.0994,2008.8287Z"></path><path fill="#f9a880" d="M2435.8794,1644.6131l-9.6481,98.893s12.0601,89.2449,72.3607,91.6569,82.0088-16.8841,91.6569-28.9443l9.6481-115.7771Z"></path><polygon fill="#5a1103" points="2628.841 1388.939 2662.266 1487.832 2599.04 1435.645 2628.841 1388.939"></polygon><path fill="#5a1103" d="M2351.352,1472.9128s-57.7821-4.3774-52.958,51.0991,94.0689,98.893,94.0689,98.893l14.4722-19.2962Z"></path><path fill="#f27c49" d="M2595.0729,1733.858s2.4121,57.8886-35.1351,93.6449c0,0,28.8064,30.9177,47.1382,55.5797a12.342,12.342,0,0,0,20.6002-1.1694c10.3721-18.2246,16.1062-67.8554,8.4011-109.4628Z"></path><path fill="#ffba94" d="M2708.4381,1666.3213c-17.2188,86.094-171.2537,142.3095-272.5587-21.7082-88.7342-143.6648-48.2405-253.2625,38.5923-262.9106s144.7215,19.2962,144.7215,19.2962,22.7211,40.112,44.0918,89.1725c10.9749,25.2298,21.6117,52.8233,28.6066,78.5355C2700.1167,1598.8328,2715.6741,1630.141,2708.4381,1666.3213Z"></path><path fill="#ffba94" d="M2428.1293,1593.8342s-27.7528-26.8508-52.7303,0,2.7753,77.569,38.8539,89.5027,47.1797-26.8508,47.1797-26.8508Z"></path><path fill="#5a1103" d="M2406.9351,1603.6087s-28.9443-86.8328-16.8842-86.8328,238.7904-53.0646,219.4942-125.4253-94.069-43.4164-94.069-43.4164S2238.0934,1410.6468,2406.9351,1603.6087Z"></path><path fill="#5a1103" d="M2334.5744,1487.8316s-43.4165-79.5968,38.5923-118.1892,65.1247-28.9443,94.069-77.1848,108.541-43.4164,127.8372,0-7.236,86.8329-7.236,86.8329Z"></path><path fill="#5a1103" d="M2563.7166,1342.2168s65.821-49.4688,82.0088.8933c21.7083,67.5367-82.0088,113.0142-82.0088,113.0142Z"></path><path fill="#ff806d" d="M2636.6235,1603.8727c-.3385.1596-.6869.3119-1.0402.4539l-13.7989,5.5315a2.86124,2.86124,0,0,1-2.1335-5.3099l13.7989-5.5316c4.0497-1.6069,7.0104-5.0921,8.481-9.8086a23.89386,23.89386,0,0,0-.9278-15.8962l-.6289-1.5695c-1.6675-4.1515-5.5483-6.5231-8.6523-5.282a16.76538,16.76538,0,0,1-14.5683-1.2494,23.95772,23.95772,0,0,1-10.395-12.1476l-8.861-22.4563a2.97293,2.97293,0,0,1,1.6107-3.7137,2.8635,2.8635,0,0,1,3.7135,1.6102l8.8534,22.4416a18.21693,18.21693,0,0,0,7.8586,9.2588,11.12955,11.12955,0,0,0,9.6598.944c6.0358-2.4138,13.2526,1.3821,16.0906,8.4608l.6289,1.5696a29.64647,29.64647,0,0,1,1.0849,19.7273A20.66416,20.66416,0,0,1,2636.6235,1603.8727Z"></path><path fill="#703127" d="M2478.499 1527.1653c4.4806-1.049 8.8522-4.5468 13.2504-7.7165 4.3697-3.2745 8.8308-6.4681 12.7935-9.1244 3.9699-2.6645 8.6201-5.5864 13.3062-8.3883 4.6033-2.8701 9.5167-5.6065 12.1391-9.3222 2.5621-3.5454 1.5326-8.084-5.4723-9.8157-6.6801-1.7785-19.7313.1713-32.8864 8.9575-13.101 8.8321-19.6999 20.068-20.4473 26.8301C2470.2841 1525.6224 2474.2064 1528.2187 2478.499 1527.1653zM2596.6154 1491.7349c3.6936.7357 8.2146-.2308 12.6336-.9654 4.4368-.8152 8.911-1.5457 12.8185-2.0717 3.9158-.5293 8.4287-1.0136 12.9237-1.4047 4.4592-.4642 9.0975-.7371 12.4092-2.4181 3.2041-1.5845 4.1273-5.0074-.3972-8.4532-4.2676-3.3725-14.6164-6.2684-27.5761-4.544-12.937 1.7732-21.9695 7.2869-25.0275 11.6486C2591.1285 1488.0262 2593.0589 1491.0629 2596.6154 1491.7349zM2547.8036 1553.3922c2.828 7.3617.4293 15.1333-5.3596 17.3582s-12.7757-1.9413-15.6045-9.3039-.4301-15.1351 5.3589-17.3582C2537.9873 1541.8634 2544.974 1546.0278 2547.8036 1553.3922zM2641.0879 1519.6243c2.2794 7.5495-.6838 15.1239-6.6206 16.9174s-12.5985-2.8748-14.8786-10.4254.6831-15.1257 6.6198-16.9175C2632.1453 1507.4053 2638.8071 1512.0719 2641.0879 1519.6243z"></path><circle cx="2487.738" cy="1609.639" r="49.447" fill="#fca286"></circle><path fill="#fca286" d="M2691.8916,1568.7067a49.43089,49.43089,0,0,1-28.6066-78.5355C2674.2599,1515.401,2684.8967,1542.9945,2691.8916,1568.7067Z"></path><path fill="#5a1103" d="M2406.9351,1504.7157s-21.2689,53.4779,15.8978,125.6319l-49.5849-79.4379,3.8027-74.4823Z"></path><path fill="#f9a880" d="M2513.0641,1796.5706l-14.4721,38.5924,26.1059,101.1605c2.7383,10.6108,18.0747,9.7756,19.6444-1.0699l19.3743-133.8589Z"></path><path fill="#f27c49" d="M2436.8523,1744.9871c9.9274,27.2291,29.4639,68.6587,61.7397,90.1759,0,0-16.4169,32.8337-56.0225,45.6799-16.3928,5.317-34.3725-1.436-43.723-15.9124-14.9117-23.086-36.8198-64.9563-47.388-123.8364,0,0,14.4722-31.3563,79.3021-44.0139h0A108.94438,108.94438,0,0,0,2436.8523,1744.9871Z"></path><g mask="url(#G)"><path fill="url(#t)" d="M2845.9234,2221.90692v93.2489c-90.2336-26.1223-161.7504-94.3102-163.9693-96.4328l-.0483-.0482,50.6525-166.42962C2769.824,2129.8641,2803.8337,2174.366,2845.9234,2221.90692Z" opacity=".6"></path></g><path fill="#ff806d" d="M2414.0736,1661.02a3.33336,3.33336,0,0,0,1.6422-1.9189l6.4958-18.9674-27.7104-12.0294a3.31171,3.31171,0,0,0-4.5336,1.968,3.9884,3.9884,0,0,0,2.1656,4.8745l21.0292,9.1291-4.1521,12.1389a3.98154,3.98154,0,0,0,2.1781,4.8681A3.36879,3.36879,0,0,0,2414.0736,1661.02Z"></path><path fill="#f27c49" d="M2095.784 2230.735s48.2405-45.8285 140.1204-24.1203c114.0151 26.9381 185.5028 106.1291 185.5028 123.0132 0 0 15.5042-15.2682-14.4721-53.0645C2351.4585 2206.61472 2144.0245 2139.078 2095.784 2230.735zM2295.982 1880.9915s12.0601 55.4765 0 115.7771c-13.5457 67.7286-69.9487 156.7816-69.9487 156.7816l-9.6481-39.7984S2288.7459 2023.3009 2295.982 1880.9915z"></path><g mask="url(#H)"><path fill="url(#I)" d="M2670.8106,2237.12672c-5.5717,16.73948-14.1345,43.2959-22.6731,73.205-11.9394,41.8003-4.8241,79.5968-4.8241,79.5968H2381.0782C2559.785,2364.77112,2638.2721,2286.62152,2670.8106,2237.12672Z" opacity=".6"></path></g><g mask="url(#J)"><path fill="url(#K)" d="M2719.268,2253.07032a455.01485,455.01485,0,0,1-39.1229-31.5493c8.9002-16.3776,11.7465-26.9664,11.7465-26.9664Z"></path></g><path fill="#ff806d" d="M2653.9154,1643.7938s-34.549,18.6033-66.4405,7.9728a40.53078,40.53078,0,0,0,34.5491,18.6034C2651.2578,1670.37,2653.9154,1643.7938,2653.9154,1643.7938Z"></path><path fill="#229" d="M2797.683,2389.92852h-65.8726a8.894,8.894,0,0,1-8.9002-8.90032v-17.14948a8.31129,8.31129,0,0,1,.2894-2.195,8.85633,8.85633,0,0,1,7.3565-6.6089l65.7277-9.3104.1931,6.17478Z"></path><path fill="#2e2eaa" d="M2796.4769,2351.9392l-1.206,1.809-72.0713,7.93552a8.85633,8.85633,0,0,1,7.3565-6.6089l65.7277-9.3104Z"></path><path fill="#4643dd" d="M2834.7772,1949.3899l-39.5063,404.3583h576.4738l50.6525-419.6922h-570.715A16.98558,16.98558,0,0,0,2834.7772,1949.3899Z"></path><path fill="#5b4ced" d="M3444.6842,1949.1793l-48.8193,404.5689H2819.3912l41.0044-419.6922h570.9018A13.49531,13.49531,0,0,1,3444.6842,1949.1793Z"></path><path fill="url(#L)" d="M3444.6842,1949.1793l-48.8193,404.5689H2873.5168c355.9426-98.86888,462.7712-355.9424,484.1656-419.6922h73.615A13.49531,13.49531,0,0,1,3444.6842,1949.1793Z" opacity=".6"></path><ellipse cx="3160.194" cy="2141.275" fill="#fff" opacity=".7" rx="53.927" ry="41.547" transform="rotate(-83.792 3160.195 2141.275)"></ellipse><path fill="#2b2ba5" d="M3405.513,2364.60232v7.2361a18.09671,18.09671,0,0,1-18.0902,18.0901H2806.125a18.1114,18.1114,0,0,1-17.7283-14.4721,17.88014,17.88014,0,0,1-.3618-3.618v-7.2361a18.0967,18.0967,0,0,1,18.0901-18.0902h581.2978A18.09679,18.09679,0,0,1,3405.513,2364.60232Z"></path><path fill="#3030b5" d="M3366.9206,2350.13012v7.23608a18.09679,18.09679,0,0,1-18.0902,18.09022H2788.3967a17.88014,17.88014,0,0,1-.3618-3.618v-7.2361a18.0967,18.0967,0,0,1,18.0901-18.0902h560.4337A17.87154,17.87154,0,0,1,3366.9206,2350.13012Z"></path><rect width="726.019" height="496.877" x="1543.43" y="1709.738" fill="#3e3ed6" rx="33.545"></rect><path fill="#5b4ced" d="M2242.9174,1734.1233v448.1059a24.39672,24.39672,0,0,1-24.3855,24.38552H1541.2838a24.3968,24.3968,0,0,1-24.3856-24.38552V1734.1233a24.36042,24.36042,0,0,1,24.3856-24.3855h677.2481a24.38119,24.38119,0,0,1,24.3855,24.3855Z"></path><polygon fill="url(#x)" points="1726.744 2064.305 1683.328 2206.615 1712.272 2206.615 1726.744 2064.305" opacity=".6"></polygon><polygon fill="url(#M)" points="2004.127 2064.305 2083.724 2064.305 2206.737 2206.615 1936.59 2206.615 2004.127 2064.305" opacity=".6"></polygon><path fill="#4040c6" d="M1746.0405,2064.3053l-49.7456,279.8189a38.98124,38.98124,0,0,0,38.3795,45.80432h216.3881l53.0646-325.62322Z"></path><path fill="#3030b5" d="M1726.7443,2064.3053l-49.7456,279.8189a38.98129,38.98129,0,0,0,38.3795,45.80432h216.3881l53.0646-325.62322Z"></path><path fill="#3030b5" d="M1926.9423,2351.3362h195.214c8.0811,0,14.6321,8.63912,14.6321,19.29612v.0001c0,10.6569-6.551,19.2961-14.6321,19.2961h-195.214Z"></path><path fill="url(#N)" d="M2228.8553,1712.0292l-101.715,103.8376H1589.2589s-42.3068-74.8451-60.0834-102.9211a24.19947,24.19947,0,0,1,12.1083-3.2079h677.2481A24.23147,24.23147,0,0,1,2228.8553,1712.0292Z" opacity=".55"></path><path fill="#6562f4" d="M2016.1872 1883.4035H1707.4481a9.6481 9.6481 0 01-9.6481-9.6481h0a9.6481 9.6481 0 019.6481-9.6481h308.7391a9.6481 9.6481 0 019.6481 9.6481h0A9.6481 9.6481 0 012016.1872 1883.4035zM2016.1872 1924.4079H1707.4481a9.6481 9.6481 0 01-9.6481-9.6481h0a9.6481 9.6481 0 019.6481-9.6481h308.7391a9.6481 9.6481 0 019.6481 9.6481h0A9.6481 9.6481 0 012016.1872 1924.4079zM2016.1872 1965.4123H1707.4481a9.6481 9.6481 0 01-9.6481-9.6481h0a9.6481 9.6481 0 019.6481-9.6481h308.7391a9.6481 9.6481 0 019.6481 9.6481h0A9.6481 9.6481 0 012016.1872 1965.4123zM2016.1872 2004.0047H1707.4481a9.6481 9.6481 0 01-9.6481-9.6481h0a9.6481 9.6481 0 019.6481-9.6481h308.7391a9.6481 9.6481 0 019.6481 9.6481h0A9.6481 9.6481 0 012016.1872 2004.0047z"></path><rect width="212.258" height="270.147" x="1490.366" y="2452.641" fill="#2775f2"></rect><rect width="1690.829" height="270.147" x="1702.624" y="2452.641" fill="#3888fc"></rect><rect width="1756.369" height="270.147" x="1700.836" y="2452.641" fill="#3888fc"></rect><path fill="#5598f9" d="M3575.7248,2433.345a42.578,42.578,0,0,1-13.2042,30.705,45.951,45.951,0,0,1-31.8952,12.7114H1451.0445c-24.9049,0-45.0994-19.4409-45.0994-43.4164a42.57815,42.57815,0,0,1,13.2042-30.7052,45.95093,45.95093,0,0,1,31.8952-12.7113H3530.6254C3555.5301,2389.92852,3575.7248,2409.36942,3575.7248,2433.345Z"></path><path fill="#70a3ff" d="M3472.9985,2389.92852a42.57878,42.57878,0,0,1-13.2041,30.7051,45.95188,45.95188,0,0,1-31.8953,12.7114H1405.9451a42.57815,42.57815,0,0,1,13.2042-30.7052,45.95093,45.95093,0,0,1,31.8952-12.7113Z"></path><path fill="#3888fc" d="M1676.0918,2389.92852v86.8329h-230.613c-21.8314,0-39.5337-19.4409-39.5337-43.4164a45.61255,45.61255,0,0,1,11.5746-30.7052,37.80968,37.80968,0,0,1,27.9591-12.7113Z" opacity=".6"></path><path fill="#ffba94" d="M2335.0009,2390.5852s33.5217-103.61248,149.3239-103.61248,103.6125,51.8063,94.4703,60.9486S2335.0009,2390.5852,2335.0009,2390.5852Z"></path><path fill="#2e2eaa" d="M2627.3392,2366.66662v23.91858H2406.0391v-5.74048c2.631-5.6872,7.4945-11.87952,14.1385-18.1781,24.9019-23.52,74.9716-47.8371,127.433-47.8371,28.33,0,47.0131,8.7169,59.1055,18.7096C2622.9807,2350.93342,2627.3392,2366.66662,2627.3392,2366.66662Z"></path><path fill="#229" d="M2608.7359,2342.74812h0a23.91855,23.91855,0,0,1-23.9186,23.9185H2420.1776c24.9019-23.52,74.9716-47.8371,127.433-47.8371,28.33,0,47.0131,8.7169,59.1055,18.7096A40.34669,40.34669,0,0,1,2608.7359,2342.74812Z"></path><path fill="#a0a0a0" d="M3401.046,2379.5542c16.618-11.90708,34.7689,5.03922,35.5388,22.77222.8069,18.5843-10.5673,36.35-23.4331,48.4749-28.2754,26.6472-72.2885,28.3964-108.6133,31.3165-80.6198,6.4807-161.5991-9.3894-241.9533.448-33.7712,4.1345-67.0024,12.8616-97.0297,29.4778-29.7654,16.4714-55.762,40.23629-87.4214,53.14119-26.4236,10.7706-58.9671,12.5463-87.0857,9.162a187.5869,187.5869,0,0,1-86.6374-33.68209c-31.2714-22.6691-50.4948-54.3967-67.0471-88.91452-15.2161-31.73138-35.9253-65.93828-73.2097-71.89438-10.039-1.6037-14.3633,14.0498-4.239,15.6671,43.1358,6.8908,57.4288,54.387,75.3624,88.3388,15.8718,30.0483,39.0332,56.4301,67.168,75.03909,52.0193,34.4067,127.875,45.0979,185.6024,19.5491,34.1213-15.1013,62.0168-41.24171,95.5061-57.54379,39.0307-18.9995,83.1318-24.5058,125.9397-25.086,88.779-1.2032,180.0395,15.3716,267.5312-7.8826,35.5097-9.438,70.7702-37.9557,75.0805-77.3832,1.8114-16.5687-3.3259-33.3568-16.9764-43.3035-12.522-9.1244-29.2222-10.9753-42.1311-1.7258-8.3306,5.9691-.3719,20.0624,8.0481,14.02918Z" opacity=".47"></path><path fill="#229" d="M3406.3613,2373.86532c16.6179-11.686,34.7689,4.9456,35.5388,22.3493.8068,18.2391-10.5673,35.6749-23.4331,47.57458-28.2754,26.15232-72.2885,27.86912-108.6134,30.73492-80.6197,6.3604-161.5991-9.2151-241.9533.4397-33.7711,4.0577-67.0023,12.6227-97.0296,28.93038-29.7655,16.16542-55.7621,39.489-87.4215,52.15421-26.4236,10.5706-58.967,12.3133-87.0856,8.9919-30.7525-3.6325-61.4115-15.1095-86.6375-33.05659-31.2713-22.2481-50.4948-53.38652-67.047-87.2632-15.2161-31.1421-35.9254-64.7137-73.2098-70.5592-10.039-1.5739-14.3633,13.7888-4.239,15.3761,43.1358,6.7629,57.4289,53.377,75.3625,86.6982,15.8717,29.4903,39.0331,55.3822,67.1679,73.64549,52.0193,33.7677,127.8751,44.2604,185.6024,19.18609,34.1213-14.82089,62.0169-40.47588,95.5061-56.47518,39.0308-18.6466,83.1318-24.0506,125.9398-24.6201,88.779-1.1809,180.0394,15.0862,267.5311-7.7362,35.5097-9.2627,70.7703-37.2508,75.0806-75.9461,1.8113-16.2609-3.3259-32.7373-16.9765-42.4993-12.522-8.9549-29.2222-10.7714-42.1311-1.6937-8.3306,5.8583-.3719,19.6898,8.0482,13.7687Z"></path><path fill="#ffba94" d="M2573.5224,2318.82952s5.9796,17.1762-16.6101,32.50668-150.1556,39.249-150.1556,39.249h-71.7558S2479.8413,2292.25332,2573.5224,2318.82952Z"></path></g></svg>