<?xml version="1.0" encoding="utf-8"?>
<svg viewBox="0 0 1000 800" xmlns="http://www.w3.org/2000/svg">
  <defs>
    <linearGradient id="a" x1="2096.4" x2="2096.4" y1="3828.23" y2="2958.06" gradientUnits="userSpaceOnUse" gradientTransform="matrix(0.272529, 0, 0, 0.246141, -98.571381, -142.279668)">
      <stop offset="0" stop-color="#fff"/>
      <stop offset="0.19" stop-color="#cbcece"/>
      <stop offset="0.37" stop-color="#9fa4a4"/>
      <stop offset="0.55" stop-color="#7d8484"/>
      <stop offset="0.72" stop-color="#656d6d"/>
      <stop offset="0.87" stop-color="#565f5f"/>
      <stop offset="1" stop-color="#515a5a"/>
    </linearGradient>
  </defs>
  <rect width="24.822" height="206.172" x="129.991" y="581.827" fill="#c59066" rx="45.54" style=""/>
  <path fill="#515a5a" d="M 129.991 574.699 C 127.724 574.699 125.886 576.358 125.886 578.405 L 125.886 740.693 C 125.886 743.546 129.306 745.33 132.043 743.903 C 133.313 743.241 134.095 742.017 134.095 740.693 L 134.095 578.405 C 134.095 576.358 132.257 574.699 129.991 574.699 Z M 154.813 574.699 C 152.547 574.699 150.708 576.358 150.708 578.405 L 150.708 708.918 C 150.708 711.771 154.128 713.555 156.865 712.129 C 158.135 711.466 158.917 710.242 158.917 708.918 L 158.917 578.405 C 158.917 576.358 157.079 574.699 154.813 574.699 Z M 129.991 751.107 C 127.724 751.107 125.886 752.766 125.886 754.814 L 125.886 764.699 C 125.886 767.552 129.306 769.335 132.043 767.91 C 133.313 767.246 134.095 766.023 134.095 764.699 L 134.095 754.814 C 134.095 752.766 132.257 751.107 129.991 751.107 Z M 154.813 721.805 C 152.547 721.805 150.708 723.464 150.708 725.511 L 150.708 777.407 C 150.708 780.26 154.128 782.044 156.865 780.617 C 158.135 779.955 158.917 778.731 158.917 777.407 L 158.917 725.511 C 158.915 723.464 157.079 721.805 154.813 721.805 Z" style=""/>
  <path fill="#c59066" d="M 768.678 787.999 C 775.534 787.999 781.09 782.98 781.09 776.789 L 781.09 593.035 C 781.09 586.845 775.534 581.827 768.678 581.827 C 761.825 581.827 756.268 586.845 756.268 593.035 L 756.268 776.789 C 756.268 782.98 761.825 787.999 768.678 787.999 Z" style=""/>
  <path fill="#515a5a" d="M 781.09 574.699 C 778.823 574.699 776.986 576.358 776.986 578.405 L 776.986 740.693 C 776.986 743.546 780.406 745.33 783.142 743.903 C 784.412 743.241 785.194 742.017 785.194 740.693 L 785.194 578.405 C 785.194 576.358 783.357 574.699 781.09 574.699 Z M 756.268 574.699 C 754.002 574.699 752.164 576.358 752.164 578.405 L 752.164 708.918 C 752.164 711.771 755.584 713.555 758.32 712.129 C 759.59 711.466 760.373 710.242 760.373 708.918 L 760.373 578.405 C 760.373 576.358 758.535 574.699 756.268 574.699 Z M 781.09 751.107 C 778.823 751.107 776.986 752.766 776.986 754.814 L 776.986 764.699 C 776.986 767.552 780.406 769.335 783.142 767.91 C 784.412 767.246 785.194 766.023 785.194 764.699 L 785.194 754.814 C 785.194 752.766 783.357 751.107 781.09 751.107 Z M 756.268 721.805 C 754.002 721.805 752.164 723.464 752.164 725.511 L 752.164 777.407 C 752.164 780.26 755.584 782.044 758.32 780.617 C 759.59 779.955 760.373 778.731 760.373 777.407 L 760.373 725.511 C 760.373 723.464 758.535 721.805 756.268 721.805 Z" style=""/>
  <path fill="#e4e7e7" d="M 386.465 556.267 L 521.302 556.267 C 485.905 551.699 479.163 455.864 479.163 455.864 L 428.601 455.864 C 428.601 455.864 421.858 551.705 386.465 556.267 Z" style=""/>
  <path fill="#515a5a" d="M 522.46 548.934 C 511.965 547.581 501.944 530.74 494.967 502.732 C 489.069 479.047 487.371 455.635 487.355 455.401 C 487.082 451.497 483.495 448.456 479.163 448.457 L 428.601 448.457 C 424.27 448.458 420.685 451.498 420.409 455.401 C 420.393 455.635 418.678 479.2 412.759 502.884 C 405.788 530.798 395.78 547.583 385.304 548.934 C 379.048 549.738 376.101 556.357 380 560.848 C 381.557 562.642 383.941 563.69 386.465 563.688 L 521.302 563.688 C 527.62 563.69 531.572 557.513 528.415 552.569 C 527.154 550.596 524.958 549.255 522.46 548.934 Z M 479.163 455.872 C 479.163 455.872 485.905 551.705 521.302 556.274 L 386.465 556.274 C 421.858 551.705 428.601 455.872 428.601 455.872 L 479.163 455.872 Z" style=""/>
  <g opacity=".4" transform="matrix(0.272529, 0, 0, 0.246141, -98.571342, -142.279633)" style="">
    <path fill="#616b6b" d="M1779.76 2838h494.76c-129.88-18.56-154.62-407.91-154.62-407.91h-185.53s-24.74 389.38-154.61 407.91Z"/>
    <path fill="#616b6b" d="M2278.77 2808.21c-38.51-5.5-75.28-73.92-100.88-187.71-21.64-96.22-27.87-191.34-27.93-192.29a30.11 30.11 0 0 0-30.06-28.21h-185.53a30.13 30.13 0 0 0-30.06 28.21c-.06.95-6.35 96.69-28.07 192.91-25.58 113.41-62.3 181.6-100.74 187.09a30.12 30.12 0 0 0 4.26 59.94h494.76a30.12 30.12 0 0 0 4.25-59.94Zm-158.87-378.09s24.74 389.35 154.62 407.91h-494.76c129.87-18.56 154.61-407.91 154.61-407.91h185.53Z"/>
  </g>
  <path fill="#e4e7e7" d="M 640.614 464.897 L 267.163 464.897 L 267.163 490.741 C 267.163 500.281 275.725 508.013 286.287 508.013 L 621.497 508.013 C 632.058 508.013 640.62 500.281 640.62 490.741 L 640.614 464.897 Z" style=""/>
  <path fill="#616b6b" d="M 621.492 494.661 L 286.281 494.661 C 275.719 494.661 267.157 486.927 267.157 477.389 L 267.157 490.735 C 267.157 500.273 275.719 508.007 286.281 508.007 L 621.492 508.007 C 632.053 508.007 640.614 500.273 640.614 490.735 L 640.614 477.389 C 640.614 486.927 632.053 494.661 621.492 494.661 Z" opacity=".4" style=""/>
  <path fill="#515a5a" d="M 640.614 457.483 L 267.163 457.483 C 262.63 457.483 258.954 460.803 258.954 464.897 L 258.954 490.741 C 258.971 504.369 271.198 515.412 286.287 515.427 L 621.497 515.427 C 636.585 515.412 648.812 504.369 648.829 490.741 L 648.829 464.897 C 648.827 460.801 645.149 457.482 640.614 457.483 Z M 621.492 508.007 L 286.281 508.007 C 275.719 508.007 267.157 500.273 267.157 490.735 L 267.157 464.89 L 640.614 464.89 L 640.614 490.735 C 640.614 500.273 632.053 508.007 621.492 508.007 Z" style=""/>
  <path fill="#515a5a" d="M 621.492 251.035 L 286.281 251.035 C 275.721 251.037 267.161 258.769 267.163 268.307 L 267.163 464.897 L 640.614 464.897 L 640.614 268.307 C 640.614 258.769 632.053 251.035 621.492 251.035 Z" style=""/>
  <path fill="#515a5a" d="M 621.492 243.622 L 286.281 243.622 C 271.192 243.636 258.966 254.68 258.949 268.307 L 258.949 464.897 C 258.948 468.993 262.624 472.312 267.157 472.31 L 640.614 472.31 C 645.149 472.31 648.823 468.992 648.823 464.897 L 648.823 268.307 C 648.807 254.68 636.58 243.636 621.492 243.622 Z M 640.614 464.902 L 267.163 464.902 L 267.163 268.307 C 267.161 258.768 275.724 251.034 286.287 251.035 L 621.497 251.035 C 632.058 251.035 640.62 258.769 640.62 268.307 L 640.614 464.902 Z" style=""/>
  <path fill="#fff" d="M 279.441 262.493 L 628.324 262.493 L 628.324 458.123 L 279.441 458.123 L 279.441 262.493 Z" style=""/>
  <circle cx="51.408" cy="738.158" r="31.68" fill="#515a5a" style="" transform="matrix(0.272529, 0, 0, 0.246141, 439.872467, 309.449982)"/>
  <path fill="#525b5a" d="M 302.292 434.265 C 302.292 437.297 305.014 439.757 308.372 439.757 L 543.31 439.757 C 546.669 439.757 549.391 437.297 549.391 434.265 L 549.391 296.729 L 302.292 296.729 L 302.292 434.265 Z" style=""/>
  <path fill="#616b6b" d="M 549.391 289.315 L 302.292 289.315 C 297.758 289.315 294.084 292.635 294.084 296.729 L 294.084 434.265 C 294.093 441.389 300.484 447.161 308.372 447.17 L 543.31 447.17 C 551.199 447.161 557.591 441.389 557.599 434.265 L 557.599 296.729 C 557.598 292.635 553.924 289.317 549.391 289.315 Z M 549.391 434.265 C 549.391 437.297 546.669 439.757 543.31 439.757 L 308.372 439.757 C 305.014 439.757 302.292 437.297 302.292 434.265 L 302.292 296.729 L 549.391 296.729 L 549.391 434.265 Z" style=""/>
  <path fill="#f2f4f4" d="M 549.391 282.844 C 549.391 279.811 546.669 277.353 543.31 277.353 L 308.372 277.353 C 305.014 277.353 302.292 279.811 302.292 282.844 L 302.292 296.729 L 549.391 296.729 L 549.391 282.844 Z" style=""/>
  <path fill="#616b6b" d="M 543.31 269.94 L 308.372 269.94 C 300.484 269.947 294.093 275.72 294.084 282.844 L 294.084 296.729 C 294.082 300.824 297.758 304.144 302.292 304.142 L 549.391 304.142 C 553.925 304.142 557.599 300.823 557.599 296.729 L 557.599 282.844 C 557.591 275.72 551.199 269.947 543.31 269.94 Z M 302.292 282.844 C 302.292 279.811 305.014 277.353 308.372 277.353 L 543.31 277.353 C 546.669 277.353 549.391 279.811 549.391 282.844 L 549.391 296.729 L 302.292 296.729 L 302.292 282.844 Z" style=""/>
  <circle cx="1524.33" cy="1744.21" r="15.03" fill="#ef5451" transform="matrix(0.043667, -0.24296, 0.269007, 0.039438, -218.901138, 588.627258)" style=""/>
  <circle cx="1574.42" cy="1744.21" r="15.03" fill="#ffed58" transform="matrix(0.062603, -0.239558, 0.265241, 0.056541, -230.709656, 565.566284)" style=""/>
  <circle cx="1624.52" cy="1744.21" r="15.03" fill="#66bb6a" transform="matrix(0.192707, -0.174048, 0.192707, 0.174048, -305.019897, 266.210083)" style=""/>
  <path fill="#f09389" d="M 359.006 323.504 L 324.749 323.504 C 323.093 323.504 321.751 322.292 321.751 320.796 C 321.751 319.301 323.093 318.089 324.749 318.089 L 359.006 318.089 C 360.661 318.089 362.003 319.301 362.003 320.796 C 362.003 322.292 360.661 323.504 359.006 323.504 Z" style=""/>
  <path fill="#aed6f1" d="M 352.909 340.079 L 324.749 340.079 C 323.093 340.079 321.751 338.867 321.751 337.371 C 321.751 335.876 323.093 334.664 324.749 334.664 L 352.909 334.664 C 354.564 334.664 355.906 335.876 355.906 337.371 C 355.906 338.867 354.564 340.079 352.909 340.079 Z" style=""/>
  <rect width="64.121" height="5.424" x="321.745" y="350.408" fill="#5eabde" rx="11.02" style=""/>
  <rect width="53.356" height="5.424" x="321.745" y="380.289" fill="#8ccca3" rx="11.02" style=""/>
  <path fill="#f09389" d="M 342.144 400.652 L 324.749 400.652 C 323.093 400.652 321.751 399.44 321.751 397.945 C 321.751 396.448 323.093 395.237 324.749 395.237 L 342.144 395.237 C 343.8 395.237 345.141 396.448 345.141 397.945 C 345.141 399.44 343.8 400.652 342.144 400.652 Z" style=""/>
  <path fill="#5eabde" d="M 365.546 415.593 L 324.749 415.593 C 323.093 415.593 321.751 414.381 321.751 412.885 C 321.751 411.389 323.093 410.178 324.749 410.178 L 365.546 410.178 C 367.201 410.178 368.544 411.389 368.544 412.885 C 368.544 414.381 367.201 415.593 365.546 415.593 Z" style=""/>
  <path fill="#c29bc7" d="M 347.287 430.533 L 324.749 430.533 C 323.093 430.533 321.751 429.322 321.751 427.826 C 321.751 426.331 323.093 425.119 324.749 425.119 L 347.287 425.119 C 348.942 425.119 350.284 426.331 350.284 427.826 C 350.284 429.322 348.942 430.533 347.287 430.533 Z" style=""/>
  <path fill="#5eabde" d="M 366.715 430.533 L 358.46 430.533 C 356.804 430.533 355.462 429.322 355.462 427.826 C 355.462 426.331 356.804 425.119 358.46 425.119 L 366.728 425.119 C 368.385 425.119 369.726 426.331 369.726 427.826 C 369.726 429.325 368.376 430.54 366.715 430.533 Z" style=""/>
  <path fill="#f09389" d="M 397.838 415.593 L 378.104 415.593 C 376.449 415.593 375.107 414.381 375.107 412.885 C 375.107 411.389 376.449 410.178 378.104 410.178 L 397.838 410.178 C 399.493 410.178 400.835 411.389 400.835 412.885 C 400.835 414.381 399.493 415.593 397.838 415.593 Z" style=""/>
  <path fill="#b88ec0" d="M 386.138 400.652 L 353.298 400.652 C 351.643 400.652 350.301 399.44 350.301 397.945 C 350.301 396.448 351.643 395.237 353.298 395.237 L 386.138 395.237 C 387.793 395.237 389.137 396.448 389.137 397.945 C 389.137 399.44 387.793 400.652 386.138 400.652 Z" style=""/>
  <rect width="41.654" height="5.424" x="381.183" y="380.289" fill="#aed6f1" rx="11.02" style=""/>
  <path fill="#f09389" d="M 404.858 370.773 L 324.734 370.773 C 323.078 370.773 321.736 369.561 321.736 368.065 C 321.736 366.57 323.078 365.358 324.734 365.358 L 404.858 365.358 C 406.514 365.358 407.856 366.57 407.856 368.065 C 407.856 369.561 406.514 370.773 404.858 370.773 Z" style=""/>
  <path fill="#b88ec0" d="M 415.146 340.079 L 363.126 340.079 C 361.47 340.079 360.128 338.867 360.128 337.371 C 360.128 335.876 361.47 334.664 363.126 334.664 L 415.146 334.664 C 416.802 334.664 418.144 335.876 418.144 337.371 C 418.144 338.867 416.802 340.079 415.146 340.079 Z" style=""/>
  <path fill="#f09389" d="M 448.855 340.079 L 425.843 340.079 C 424.187 340.079 422.845 338.867 422.845 337.371 C 422.845 335.876 424.187 334.664 425.843 334.664 L 448.855 334.664 C 450.511 334.664 451.853 335.876 451.853 337.371 C 451.853 338.867 450.511 340.079 448.855 340.079 Z" style=""/>
  <path fill="#c29bc7" d="M 382.863 323.504 L 371.542 323.504 C 369.886 323.504 368.544 322.292 368.544 320.796 C 368.544 319.301 369.886 318.089 371.542 318.089 L 382.854 318.089 C 384.51 318.089 385.853 319.301 385.853 320.796 C 385.853 322.289 384.515 323.5 382.863 323.504 Z" style=""/>
  <rect width="17.316" height="5.424" x="392.183" y="350.408" fill="#8ccca3" rx="11.02" style=""/>
  <path fill="#b88ec0" d="M 435.041 370.773 L 417.18 370.773 C 415.523 370.773 414.181 369.561 414.181 368.065 C 414.181 366.57 415.523 365.358 417.18 365.358 L 435.041 365.358 C 436.696 365.358 438.039 366.57 438.039 368.065 C 438.039 369.561 436.696 370.773 435.041 370.773 Z" style=""/>
  <path fill="#515a5a" d="M 592.415 381.143 L 577.262 376.434 L 582.476 390.122 L 587.687 403.805 L 590.091 397.002 L 592.497 390.196 L 600.032 388.022 L 607.568 385.852 L 592.415 381.143 Z" style=""/>
  <path fill="#f2f4f4" d="M 591.677 549.818 L 316.09 549.818 C 310.981 549.818 307.789 554.812 310.343 558.808 C 311.529 560.663 313.72 561.805 316.09 561.805 L 591.677 561.805 C 596.786 561.805 599.977 556.81 597.424 552.815 C 596.239 550.96 594.048 549.818 591.677 549.818 Z" style=""/>
  <path fill="#515a5a" d="M 591.677 542.404 L 316.09 542.404 C 304.662 542.404 297.52 553.576 303.234 562.515 C 305.885 566.663 310.787 569.218 316.09 569.218 L 591.677 569.218 C 603.104 569.218 610.246 558.046 604.533 549.108 C 601.881 544.959 596.98 542.404 591.677 542.404 Z M 591.677 561.805 L 316.09 561.805 C 310.981 561.805 307.789 556.81 310.343 552.815 C 311.529 550.96 313.72 549.818 316.09 549.818 L 591.677 549.818 C 596.786 549.818 599.977 554.812 597.424 558.808 C 596.239 560.663 594.048 561.805 591.677 561.805 Z" style=""/>
  <path fill="#efb27a" d="M 884.77 561.805 L 26.304 561.805 C 19.23 561.805 14.809 568.722 18.346 574.255 C 19.988 576.823 23.021 578.405 26.304 578.405 L 884.77 578.405 C 891.845 578.405 896.266 571.488 892.729 565.955 C 891.087 563.386 888.054 561.805 884.77 561.805 Z" style=""/>
  <path fill="#616b6b" d="M 884.77 570.142 L 26.304 570.142 C 23.016 570.141 19.979 568.552 18.344 565.975 C 14.815 571.504 19.236 578.409 26.302 578.405 C 26.304 578.405 26.305 578.405 26.308 578.405 L 884.773 578.405 C 891.839 578.411 896.263 571.506 892.735 565.977 C 892.735 565.976 892.734 565.975 892.734 565.975 C 891.099 568.552 888.06 570.143 884.77 570.142 Z" opacity=".4" style=""/>
  <path fill="#515a5a" d="M 884.77 554.391 L 26.304 554.391 C 12.912 554.391 4.541 567.486 11.237 577.961 C 14.345 582.823 20.088 585.818 26.304 585.818 L 884.77 585.818 C 898.164 585.818 906.535 572.724 899.838 562.248 C 896.73 557.386 890.986 554.391 884.77 554.391 Z M 884.77 578.405 L 26.304 578.405 C 19.23 578.405 14.809 571.488 18.346 565.955 C 19.988 563.386 23.021 561.805 26.304 561.805 L 884.77 561.805 C 891.845 561.805 896.266 568.722 892.729 574.255 C 891.087 576.823 888.054 578.405 884.77 578.405 Z" style=""/>
  <path fill="#f09389" d="M 87.853 547.561 C 77.679 547.561 69.402 540.374 69.402 531.537 C 69.402 522.7 77.679 515.515 87.853 515.515 L 203.516 515.515 C 204.725 515.515 205.919 515.759 207.011 516.227 C 209.041 513.342 211.586 510.781 214.543 508.647 L 88.815 508.647 C 73.774 508.647 61.578 518.896 61.578 531.537 C 61.578 544.181 73.774 554.428 88.815 554.428 L 214.543 554.428 C 211.584 552.294 209.038 549.732 207.008 546.844 C 205.915 547.313 204.721 547.558 203.511 547.561 L 87.853 547.561 Z" style=""/>
  <path fill="#515a5a" d="M 219.67 548.636 C 215.775 545.877 212.873 542.137 211.33 537.89 C 212.592 541.431 210.739 545.267 207.008 546.842 C 209.038 549.729 211.584 552.292 214.543 554.426 L 88.815 554.426 C 73.774 554.426 61.578 544.179 61.578 531.535 C 61.578 518.893 73.774 508.644 88.815 508.644 L 214.543 508.644 C 211.586 510.778 209.041 513.339 207.011 516.225 C 210.776 517.809 212.622 521.698 211.294 525.253 C 211.294 525.226 211.319 525.204 211.33 525.179 C 212.873 520.932 215.775 517.192 219.67 514.433 C 224.604 510.864 223.411 503.81 217.522 501.735 C 216.573 501.4 215.563 501.228 214.543 501.228 L 88.815 501.228 C 69.272 501.228 53.37 514.824 53.37 531.532 C 53.37 548.24 69.272 561.838 88.815 561.838 L 214.543 561.838 C 220.862 561.836 224.81 555.657 221.65 550.715 C 221.138 549.917 220.467 549.21 219.67 548.634 L 219.67 548.636 Z" style=""/>
  <path fill="#fff" d="M 202.029 531.537 C 202.028 528.612 202.532 525.706 203.522 522.922 L 87.853 522.922 C 82.197 522.922 77.611 526.777 77.611 531.537 C 77.611 536.297 82.197 540.152 87.853 540.152 L 203.511 540.152 C 202.525 537.367 202.025 534.461 202.029 531.537 Z M 175.048 531.665 C 175.048 532.835 173.997 533.784 172.702 533.784 L 90.564 533.784 C 88.759 533.729 87.697 531.929 88.653 530.545 C 89.067 529.946 89.784 529.573 90.564 529.548 L 172.697 529.548 C 173.994 529.545 175.048 530.493 175.048 531.665 Z M 193.504 531.418 C 193.502 532.588 192.453 533.536 191.158 533.536 L 181.635 533.536 C 179.83 533.591 178.635 531.861 179.484 530.421 C 179.906 529.707 180.74 529.273 181.635 529.3 L 191.158 529.3 C 192.445 529.303 193.489 530.243 193.498 531.407 L 193.504 531.418 Z" style=""/>
  <path fill="#515a5a" d="M 207.011 516.227 C 205.919 515.759 204.725 515.515 203.516 515.515 L 87.853 515.515 C 77.679 515.515 69.402 522.703 69.402 531.537 C 69.402 540.372 77.679 547.561 87.853 547.561 L 203.511 547.561 C 209.07 547.56 213.02 542.675 211.33 537.893 C 209.884 533.83 209.858 529.465 211.256 525.39 C 211.275 525.347 211.281 525.3 211.294 525.258 C 212.624 521.702 210.777 517.811 207.011 516.227 Z M 77.611 531.537 C 77.611 526.784 82.197 522.922 87.853 522.922 L 203.511 522.922 C 201.517 528.524 201.517 534.55 203.511 540.152 L 87.853 540.152 C 82.197 540.148 77.611 536.293 77.611 531.537 Z" style=""/>
  <path fill="#515a5a" d="M 202.086 540.148 L 203.511 540.148 C 203.106 538.987 202.784 537.803 202.547 536.605 C 202.309 537.776 202.156 538.959 202.086 540.148 Z M 87.853 533.063 L 202.086 533.063 C 202.056 532.556 202.018 532.052 202.018 531.537 C 202.017 528.612 202.521 525.706 203.511 522.922 L 87.853 522.922 C 82.197 522.922 77.611 526.777 77.611 531.537 C 77.617 533.379 78.314 535.164 79.584 536.605 C 81.594 534.343 84.641 533.037 87.853 533.063 Z" opacity=".3" style=""/>
  <path fill="#515a5a" d="M 172.697 529.548 L 90.564 529.548 C 88.759 529.603 87.697 531.403 88.653 532.788 C 89.067 533.387 89.784 533.76 90.564 533.784 L 172.697 533.784 C 174.501 533.84 175.697 532.11 174.847 530.67 C 174.426 529.955 173.592 529.52 172.697 529.548 Z M 191.152 529.292 L 181.63 529.292 C 179.824 529.237 178.63 530.967 179.478 532.408 C 179.9 533.12 180.734 533.557 181.63 533.528 L 191.152 533.528 C 192.957 533.584 194.152 531.854 193.303 530.414 C 192.882 529.7 192.047 529.265 191.152 529.292 Z" style=""/>
  <path fill="#aed480" d="M 121.36 394.686 L 121.36 440.603 L 132.507 440.603 L 132.507 418.889 C 132.514 412.561 136.409 406.759 142.617 403.827 L 142.617 394.686 C 142.617 387.296 133.76 382.677 126.674 386.372 C 123.385 388.086 121.36 391.256 121.36 394.686 Z" style=""/>
  <path fill="#515a5a" d="M 131.989 385.087 C 130.996 385.088 130.01 385.216 129.056 385.465 C 133.611 386.645 136.749 390.406 136.753 394.686 L 136.753 403.827 C 130.545 406.76 126.651 412.562 126.644 418.889 L 126.644 440.603 L 132.507 440.603 L 132.507 418.889 C 132.514 412.561 136.409 406.759 142.617 403.827 L 142.617 394.686 C 142.617 389.384 137.858 385.087 131.989 385.087 Z" opacity=".3" style=""/>
  <path fill="#aed480" d="M 151.339 409.289 C 145.468 409.289 140.709 413.587 140.709 418.889 L 140.709 440.603 L 161.967 440.603 L 161.967 418.889 C 161.967 413.587 157.208 409.289 151.339 409.289 Z" style=""/>
  <path fill="#515a5a" d="M 151.339 409.289 C 150.307 409.29 149.281 409.426 148.294 409.695 C 152.794 410.909 155.877 414.648 155.879 418.889 L 155.879 440.603 L 161.967 440.603 L 161.967 418.889 C 161.967 413.587 157.208 409.289 151.339 409.289 Z" opacity=".3" style=""/>
  <path fill="#f2f4f4" d="M 164.463 501.232 L 169.099 448.016 L 112.326 448.016 L 116.961 501.232 L 164.463 501.232 Z" style=""/>
  <path fill="#515a5a" d="M 158.377 448.016 L 153.742 501.232 L 164.463 501.232 L 169.099 448.016 L 158.377 448.016 Z" opacity=".3" style=""/>
  <path fill="#515a5a" d="M 175.128 442.984 C 173.826 441.715 172.074 440.898 170.176 440.674 L 170.176 418.889 C 170.165 409.496 161.737 401.885 151.339 401.876 C 151.16 401.876 150.992 401.895 150.817 401.9 L 150.817 394.686 C 150.992 381.589 135.404 373.234 122.761 379.646 C 116.751 382.693 113.063 388.462 113.146 394.686 L 113.146 440.603 L 112.328 440.603 C 107.544 440.606 103.776 444.289 104.153 448.598 L 108.786 501.816 C 109.121 505.669 112.681 508.644 116.961 508.647 L 164.463 508.647 C 168.743 508.644 172.304 505.669 172.639 501.816 L 177.272 448.598 C 177.453 446.538 176.676 444.504 175.128 442.984 Z M 142.617 394.686 L 142.617 403.827 C 136.409 406.76 132.517 412.562 132.509 418.889 L 132.509 440.603 L 121.36 440.603 L 121.36 394.686 C 121.36 387.296 130.217 382.677 137.303 386.372 C 140.592 388.086 142.617 391.256 142.617 394.686 Z M 161.967 440.603 L 140.709 440.603 L 140.709 418.889 C 140.709 411.499 149.567 406.88 156.652 410.575 C 159.94 412.29 161.967 415.458 161.967 418.889 L 161.967 440.603 Z M 169.099 448.016 L 164.466 501.232 L 116.961 501.232 L 112.328 448.016 L 169.099 448.016 Z" style=""/>
  <path fill="none" d="M 868.381 529.625 C 868.381 527.219 866.784 525 864.23 523.345 L 861.573 537.277 C 865.636 535.626 868.381 532.786 868.381 529.625 Z" style=""/>
  <path fill="#f2f4f4" d="M 803.228 553.234 L 850.2 553.234 L 859.207 506.018 L 794.218 506.018 L 803.228 553.234 Z" style=""/>
  <path fill="#616b6b" d="M 843.637 506.018 L 834.631 553.234 L 850.2 553.234 L 859.207 506.018 L 843.637 506.018 Z" opacity=".4" style=""/>
  <path fill="#515a5a" d="M 865.715 515.569 L 867.296 507.278 C 868.161 502.746 864.298 498.604 859.207 498.604 L 794.218 498.604 C 789.126 498.604 785.264 502.746 786.128 507.278 L 795.122 554.493 C 795.801 558.049 799.218 560.647 803.213 560.646 L 850.187 560.646 C 854.181 560.647 857.597 558.049 858.275 554.493 L 859.987 545.525 C 869.555 543.526 876.575 537.157 876.575 529.625 C 876.59 523.693 872.231 518.497 865.715 515.569 Z M 850.2 553.23 L 803.228 553.23 L 794.218 506.015 L 859.207 506.015 L 850.2 553.23 Z M 861.573 537.275 L 864.23 523.344 C 866.784 524.997 868.381 527.218 868.381 529.622 C 868.381 532.786 865.636 535.626 861.573 537.277 L 861.573 537.275 Z" style=""/>
  <path fill="#fff" d="M 794.841 464.908 L 794.841 467.41 C 794.841 468.17 796.226 469.273 798.385 469.273 L 821.964 469.273 L 819.004 463.038 L 798.385 463.038 C 796.226 463.041 794.841 464.146 794.841 464.908 Z M 854.623 453.762 C 854.623 453.001 853.239 451.895 851.08 451.895 L 814.355 451.895 C 814.137 451.895 813.924 451.881 813.712 451.871 L 815.493 455.628 L 851.069 455.628 C 853.239 455.628 854.623 454.522 854.623 453.762 Z" style=""/>
  <path fill="#515a5a" d="M 798.395 476.69 L 822.22 476.69 C 824.4 476.69 825.763 477.796 825.763 478.555 L 825.763 485.92 C 825.763 488.773 829.183 490.557 831.919 489.13 C 833.189 488.468 833.971 487.244 833.971 485.92 L 833.971 478.555 C 833.971 473.44 828.695 469.276 822.212 469.276 L 798.387 469.276 C 796.207 469.276 794.844 468.173 794.844 467.413 L 794.844 464.908 C 794.844 464.146 796.229 463.041 798.387 463.041 L 851.061 463.041 C 857.548 463.041 862.823 458.879 862.823 453.762 C 862.823 448.645 857.548 444.482 851.061 444.482 L 814.355 444.482 C 812.175 444.482 810.811 443.377 810.811 442.616 L 810.811 437.098 C 810.811 434.244 807.391 432.461 804.655 433.888 C 803.385 434.55 802.603 435.774 802.603 437.098 L 802.603 442.616 C 802.603 447.561 807.536 451.606 813.723 451.871 C 813.935 451.871 814.148 451.895 814.366 451.895 L 851.08 451.895 C 853.261 451.895 854.623 453.001 854.623 453.762 C 854.623 454.522 853.239 455.628 851.08 455.628 L 798.395 455.628 C 791.909 455.628 786.633 459.79 786.633 464.908 L 786.633 467.41 C 786.633 472.527 791.909 476.69 798.395 476.69 Z M 821.743 435.149 L 843.06 435.149 C 846.22 435.149 848.194 432.06 846.614 429.588 C 845.881 428.441 844.526 427.735 843.06 427.735 L 821.743 427.735 C 818.584 427.735 816.609 430.825 818.189 433.295 C 818.921 434.442 820.277 435.149 821.743 435.149 Z" style=""/>
  <path fill="#f2f4f4" d="M 746.359 553.135 C 744.195 544.942 733.632 538.528 720.37 537.412 L 720.37 543.832 C 720.37 546.685 716.95 548.469 714.213 547.042 C 712.944 546.38 712.162 545.156 712.162 543.832 L 712.162 537.412 C 698.9 538.528 688.34 544.942 686.176 553.135 L 746.359 553.135 Z" style=""/>
  <path fill="#cececd" d="M 712.162 538.709 L 712.162 537.412 C 710.862 537.523 709.595 537.698 708.346 537.905 C 709.657 538.123 710.933 538.39 712.162 538.709 Z" style=""/>
  <path fill="#616b6b" d="M 720.379 537.412 L 720.379 541.878 C 725.649 544.718 729.353 548.659 730.536 553.135 L 746.367 553.135 C 744.195 544.945 733.632 538.528 720.379 537.412 Z" opacity=".4" style=""/>
  <path fill="#515a5a" d="M 754.344 551.418 C 751.038 538.897 735.027 529.809 716.266 529.809 C 697.505 529.809 681.494 538.897 678.191 551.418 C 676.959 556.078 680.873 560.551 686.176 560.551 L 746.359 560.551 C 751.66 560.548 755.57 556.076 754.344 551.418 Z M 712.162 537.412 L 712.162 543.832 C 712.162 546.685 715.583 548.469 718.318 547.042 C 719.588 546.38 720.37 545.156 720.37 543.832 L 720.37 537.412 C 733.632 538.528 744.195 544.942 746.359 553.135 L 686.176 553.135 C 688.34 544.945 698.9 538.528 712.162 537.412 Z" style=""/>
  <g opacity=".5" transform="matrix(0.272529, 0, 0, 0.246141, -98.571342, -142.279633)" style="">
    <rect width="187.31" height="187.31" x="1985.26" y="3334.38" fill="#f2f4f4" rx="43.03"/>
    <path fill="#515a5a" d="M2129.54 3304.26h-101.25a73.24 73.24 0 0 0-73.15 73.15v101.25a73.23 73.23 0 0 0 73.15 73.15h101.25a73.23 73.23 0 0 0 73.15-73.15v-101.25a73.23 73.23 0 0 0-73.15-73.15Zm43 174.4a43 43 0 0 1-43 43h-101.25a43 43 0 0 1-43-43v-101.25a43 43 0 0 1 43-43h101.25a43 43 0 0 1 43 43Z"/>
    <rect width="81.05" height="81.05" x="2038.39" y="3387.51" fill="#c6c5c5" rx="25.82"/>
    <path fill="#515a5a" d="M2093.62 3357.39h-29.41a56 56 0 0 0-55.94 55.94v29.41a56 56 0 0 0 55.94 55.94h29.41a56 56 0 0 0 55.94-55.94v-29.41a56 56 0 0 0-55.94-55.94Zm25.82 85.35a25.82 25.82 0 0 1-25.82 25.82h-29.41a25.82 25.82 0 0 1-25.82-25.82v-29.41a25.82 25.82 0 0 1 25.82-25.82h29.41a25.82 25.82 0 0 1 25.82 25.82Z"/>
    <rect width="187.31" height="187.31" x="2288.7" y="3334.38" fill="#f2f4f4" rx="43.03"/>
    <path fill="#515a5a" d="M2433 3304.26h-101.27a73.24 73.24 0 0 0-73.15 73.15v101.25a73.23 73.23 0 0 0 73.15 73.15H2433a73.23 73.23 0 0 0 73.15-73.15v-101.25a73.23 73.23 0 0 0-73.15-73.15Zm43 174.4a43 43 0 0 1-43 43h-101.27a43 43 0 0 1-43-43v-101.25a43 43 0 0 1 43-43H2433a43 43 0 0 1 43 43Z"/>
    <rect width="116.16" height="116.16" x="2324.28" y="3369.95" fill="#515a5a" rx="43.03"/>
    <path fill="#515a5a" d="M 2541.743 3652.665 C 2533.449 3652.665 2526.716 3645.959 2526.683 3637.665 L 2526.683 3520.265 C 2526.655 3497.557 2508.251 3479.157 2485.543 3479.135 L 2218.673 3479.135 C 2179.341 3479.091 2147.467 3447.217 2147.423 3407.885 L 2147.423 3219.325 C 2147.423 3207.731 2159.973 3200.486 2170.013 3206.282 C 2174.672 3208.973 2177.543 3213.944 2177.543 3219.325 L 2177.543 3407.885 C 2177.57 3430.589 2195.969 3448.987 2218.673 3449.015 L 2485.543 3449.015 C 2524.876 3449.059 2556.753 3480.931 2556.803 3520.265 L 2556.803 3637.665 C 2556.77 3645.959 2550.037 3652.665 2541.743 3652.665 Z M 3901.203 1663.865 L 3635.593 1663.865 L 3635.593 1554.405 C 3635.593 1542.811 3623.043 1535.566 3613.003 1541.362 C 3608.343 1544.053 3605.473 1549.024 3605.473 1554.405 L 3605.473 1663.865 L 3367.973 1663.865 C 3356.379 1663.865 3349.134 1676.415 3354.93 1686.455 C 3357.621 1691.114 3362.592 1693.985 3367.973 1693.985 L 3464.043 1693.985 L 3464.043 1788.485 L 3387.913 1788.485 C 3376.319 1788.485 3369.074 1801.035 3374.87 1811.075 C 3377.561 1815.734 3382.532 1818.605 3387.913 1818.605 L 3602.553 1818.605 L 3602.553 1913.105 L 3452.553 1913.105 C 3440.959 1913.105 3433.714 1925.655 3439.51 1935.695 C 3442.201 1940.354 3447.172 1943.225 3452.553 1943.225 L 3786.183 1943.225 C 3797.776 1943.225 3805.022 1930.675 3799.225 1920.635 C 3796.535 1915.975 3791.563 1913.105 3786.183 1913.105 L 3632.673 1913.105 L 3632.673 1818.605 L 3867.253 1818.605 C 3878.846 1818.605 3886.092 1806.055 3880.295 1796.015 C 3877.605 1791.355 3872.633 1788.485 3867.253 1788.485 L 3788.473 1788.485 L 3788.473 1693.985 L 3901.203 1693.985 C 3912.796 1693.985 3920.042 1681.435 3914.245 1671.395 C 3911.555 1666.735 3906.583 1663.865 3901.203 1663.865 Z M 3494.203 1788.485 L 3494.203 1693.985 L 3619.573 1693.985 C 3619.913 1693.985 3620.233 1694.085 3620.573 1694.085 C 3620.913 1694.085 3621.243 1694.005 3621.573 1693.985 L 3758.383 1693.985 L 3758.383 1788.485 L 3494.203 1788.485 Z M 950.803 909.545 L 685.193 909.545 L 685.193 800.085 C 685.193 788.491 672.643 781.246 662.603 787.042 C 657.943 789.733 655.073 794.704 655.073 800.085 L 655.073 909.545 L 417.563 909.545 C 405.973 909.246 398.407 921.605 403.943 931.791 C 406.645 936.763 411.906 939.8 417.563 939.655 L 513.643 939.655 L 513.643 1034.155 L 437.513 1034.155 C 425.919 1034.155 418.674 1046.705 424.47 1056.745 C 427.161 1061.404 432.132 1064.275 437.513 1064.275 L 652.143 1064.275 L 652.143 1158.775 L 502.143 1158.775 C 490.549 1158.775 483.304 1171.325 489.1 1181.365 C 491.791 1186.024 496.762 1188.895 502.143 1188.895 L 835.823 1188.895 C 847.416 1188.895 854.662 1176.345 848.865 1166.305 C 846.175 1161.645 841.203 1158.775 835.823 1158.775 L 682.263 1158.775 L 682.263 1064.275 L 916.853 1064.275 C 928.446 1064.275 935.692 1051.725 929.895 1041.685 C 927.205 1037.025 922.233 1034.155 916.853 1034.155 L 838.073 1034.155 L 838.073 939.665 L 950.803 939.665 C 962.392 939.963 969.959 927.604 964.423 917.418 C 961.721 912.446 956.46 909.409 950.803 909.555 L 950.803 909.545 Z M 543.803 1034.155 L 543.803 939.665 L 669.133 939.665 C 669.463 939.665 669.783 939.775 670.133 939.775 C 670.483 939.775 670.793 939.695 671.133 939.665 L 807.953 939.665 L 807.953 1034.165 L 543.803 1034.155 Z M 1775.383 3460.985 C 1786.976 3460.985 1794.222 3448.435 1788.425 3438.395 C 1785.735 3433.735 1780.763 3430.865 1775.383 3430.865 L 1441.683 3430.865 C 1430.089 3430.865 1422.844 3443.415 1428.64 3453.455 C 1431.331 3458.114 1436.302 3460.985 1441.683 3460.985 L 1565.553 3460.985 L 1565.553 3535.285 L 1441.703 3535.285 C 1430.109 3535.285 1422.864 3547.835 1428.66 3557.875 C 1431.351 3562.534 1436.322 3565.405 1441.703 3565.405 L 1491.563 3565.405 L 1491.563 3641.585 L 1368.663 3641.585 C 1357.069 3641.585 1349.824 3654.135 1355.62 3664.175 C 1358.311 3668.834 1363.282 3671.705 1368.663 3671.705 L 1775.383 3671.705 C 1786.976 3671.705 1794.222 3659.155 1788.425 3649.115 C 1785.735 3644.455 1780.763 3641.585 1775.383 3641.585 L 1671.153 3641.585 L 1671.153 3565.405 L 1726.703 3565.405 C 1738.296 3565.405 1745.542 3552.855 1739.745 3542.815 C 1737.055 3538.155 1732.083 3535.285 1726.703 3535.285 L 1595.703 3535.285 L 1595.703 3460.985 L 1775.383 3460.985 Z M 1521.663 3641.585 L 1521.663 3565.405 L 1641.013 3565.405 L 1641.013 3641.585 L 1521.663 3641.585 Z"/>
    <path fill="#85c0e8" d="M3475.2 1128.33c0-190.72-154.61-345.34-345.34-345.34a345.34 345.34 0 0 0 0 690.68c190.73 0 345.34-154.61 345.34-345.34Z"/>
    <path fill="#515a5a" d="M3129.86 752.87a375.46 375.46 0 0 0 0 750.92c207 0 375.46-168.43 375.46-375.46s-168.43-375.46-375.46-375.46ZM2905 1390.31A345.34 345.34 0 0 1 3129.86 783c190.73 0 345.34 154.62 345.34 345.34s-154.61 345.34-345.34 345.34a343.88 343.88 0 0 1-224.86-83.37Z"/>
    <path fill="#515a5a" d="M3475.2 1128.33c0-187.28-149.1-339.63-335.06-345.08 133.7 57.52 227.57 190.54 227.57 345.08s-93.87 287.56-227.57 345.08c185.96-5.41 335.06-157.8 335.06-345.08Z" opacity=".3"/>
    <path fill="#fff" d="M3129.86 852.5a275.83 275.83 0 0 0 0 551.66c152.34 0 275.83-123.49 275.83-275.83S3282.2 852.5 3129.86 852.5Z"/>
    <path fill="#515a5a" d="M3129.86 822.39a305.95 305.95 0 0 0 0 611.89c168.7 0 305.95-137.25 305.95-306s-137.25-305.89-305.95-305.89Zm0 581.77a275.83 275.83 0 0 1 0-551.66c152.34 0 275.83 123.5 275.83 275.83s-123.49 275.83-275.83 275.83Z"/>
    <path fill="#616b6b" d="M3405.69 1128.33c0-104.34-58-195.13-143.42-242 72.36 56 119.08 143.63 119.08 242s-46.72 186-119.08 242c85.47-46.86 143.42-137.65 143.42-242Z" opacity=".4"/>
    <circle cx="3132.15" cy="1128.33" r="45.61" fill="#515a5a"/>
    <path fill="#515a5a" d="M3132.15 1143.39a15.06 15.06 0 0 1-10.65-25.71l105.85-105.85a15.06 15.06 0 1 1 21.3 21.3L3142.8 1139a15 15 0 0 1-10.65 4.39Z"/>
    <path fill="#515a5a" d="M3132.15 1323.63a10.75 10.75 0 0 1-10.76-10.75v-165.66a10.76 10.76 0 1 1 21.52 0v165.66a10.75 10.75 0 0 1-10.76 10.75Z"/>
  </g>
  <path fill="url(#a)" d="M 890.976 800 L 89.722 800 L 54.545 585.815 L 855.795 585.815 L 890.976 800 Z" opacity=".5" style=""/>
</svg>