<svg xmlns="http://www.w3.org/2000/svg" xmlns:xlink="http://www.w3.org/1999/xlink" viewBox="0 0 800 600" id="cloud-computing"><defs><linearGradient id="h" x1="603.5" x2="654.04" y1="164.26" y2="164.26" gradientUnits="userSpaceOnUse"><stop offset="0" stop-color="#ffcb50"></stop><stop offset="1" stop-color="#ef7518"></stop></linearGradient><linearGradient id="a" x1="157.74" x2="128.6" y1="318.47" y2="464.39" gradientUnits="userSpaceOnUse"><stop offset="0" stop-color="#194659"></stop><stop offset="1" stop-color="#35a9a0"></stop></linearGradient><linearGradient id="k" x1="138.19" x2="152.62" y1="459.06" y2="323.28" xlink:href="#a"></linearGradient><linearGradient id="i" x1="311.98" x2="359.34" y1="432.38" y2="473.05" gradientUnits="userSpaceOnUse"><stop offset="0" stop-color="#6e4db9"></stop><stop offset=".45" stop-color="#6b4bb7"></stop><stop offset=".73" stop-color="#6344b0"></stop><stop offset=".96" stop-color="#5438a5"></stop><stop offset="1" stop-color="#5135a2"></stop></linearGradient><linearGradient id="m" x1="635.68" x2="606.12" y1="271.06" y2="419.06" xlink:href="#a"></linearGradient><linearGradient id="n" x1="597.13" x2="689.41" y1="347.45" y2="325.95" xlink:href="#a"></linearGradient><linearGradient id="o" x1="607.78" x2="571.67" y1="220.53" y2="401.28" xlink:href="#a"></linearGradient><linearGradient id="p" x1="580.12" x2="597.04" y1="390.15" y2="230.92" xlink:href="#a"></linearGradient><linearGradient id="b" x1="536.95" x2="656.02" y1="430.7" y2="430.7" gradientUnits="userSpaceOnUse"><stop offset="0" stop-color="#a1cbd5"></stop><stop offset="1" stop-color="#fff"></stop></linearGradient><linearGradient id="q" x1="642.58" x2="642.58" y1="472.78" y2="402.02" xlink:href="#b"></linearGradient><linearGradient id="c" x1="167.87" x2="167.87" y1="319.94" y2="463.29" gradientUnits="userSpaceOnUse"><stop offset="0" stop-color="#091c2a"></stop><stop offset="1" stop-color="#2f356b"></stop></linearGradient><linearGradient id="d" x1="179.17" x2="294.52" y1="374.2" y2="374.2" gradientUnits="userSpaceOnUse"><stop offset="0" stop-color="#20b6f8"></stop><stop offset="1" stop-color="#00588a"></stop></linearGradient><linearGradient id="r" x1="188.29" x2="250.14" y1="373.83" y2="373.83" xlink:href="#c"></linearGradient><linearGradient id="g" x1="179.17" x2="291.67" y1="357.56" y2="357.56" gradientUnits="userSpaceOnUse"><stop offset="0" stop-color="#fff"></stop><stop offset="1"></stop></linearGradient><linearGradient id="s" x1="285.21" x2="288.7" y1="468.07" y2="468.07" xlink:href="#d"></linearGradient><linearGradient id="e" x1="282.87" x2="289.99" y1="468.07" y2="468.07" gradientUnits="userSpaceOnUse"><stop offset="0" stop-color="#d7d9de"></stop><stop offset="1" stop-color="#fff"></stop></linearGradient><linearGradient id="f" x1="283.92" x2="289.1" y1="467.61" y2="467.61" gradientUnits="userSpaceOnUse"><stop offset="0" stop-color="#202351"></stop><stop offset="1" stop-color="#5362a1"></stop></linearGradient><linearGradient id="t" x1="184.54" x2="188.04" y1="467.95" y2="467.95" xlink:href="#d"></linearGradient><linearGradient id="u" x1="182.2" x2="189.33" y1="467.95" y2="467.95" xlink:href="#e"></linearGradient><linearGradient id="v" x1="183.25" x2="188.43" y1="467.49" y2="467.49" xlink:href="#f"></linearGradient><linearGradient id="w" x1="285.21" x2="288.7" y1="279.79" y2="279.79" xlink:href="#d"></linearGradient><linearGradient id="x" x1="282.87" x2="289.99" y1="279.79" y2="279.79" xlink:href="#e"></linearGradient><linearGradient id="y" x1="283.92" x2="289.1" y1="279.32" y2="279.32" xlink:href="#f"></linearGradient><linearGradient id="z" x1="184.54" x2="188.04" y1="279.59" y2="279.59" xlink:href="#d"></linearGradient><linearGradient id="A" x1="182.2" x2="189.33" y1="279.59" y2="279.59" xlink:href="#e"></linearGradient><linearGradient id="B" x1="183.25" x2="188.43" y1="279.12" y2="279.12" xlink:href="#f"></linearGradient><linearGradient id="C" x1="179.12" x2="179.12" y1="444.35" y2="279.16" xlink:href="#g"></linearGradient><linearGradient id="D" x1="141.91" x2="190.78" y1="423.25" y2="472.11" xlink:href="#h"></linearGradient><linearGradient id="E" x1="177.51" x2="177.51" y1="397.4" y2="425.37" xlink:href="#e"></linearGradient><linearGradient id="F" x1="149.94" x2="192.56" y1="430.75" y2="473.36" xlink:href="#h"></linearGradient><linearGradient id="H" x1="394.55" x2="433.35" y1="171.57" y2="199.76" gradientUnits="userSpaceOnUse"><stop offset="0" stop-color="#58d0d1"></stop><stop offset=".23" stop-color="#48b5bb"></stop><stop offset=".75" stop-color="#267c8e"></stop><stop offset="1" stop-color="#19667c"></stop></linearGradient><linearGradient id="I" x1="311.1" x2="311.1" y1="153" y2="136.01" gradientUnits="userSpaceOnUse"><stop offset="0" stop-color="#a5b8ff"></stop><stop offset=".69" stop-color="#e2e8ff"></stop><stop offset="1" stop-color="#fff"></stop></linearGradient><linearGradient id="J" x1="284.78" x2="337.43" y1="124.86" y2="124.86" xlink:href="#i"></linearGradient><linearGradient id="K" x1="311.11" x2="311.11" y1="142.06" y2="118.23" xlink:href="#b"></linearGradient><linearGradient id="L" x1="285.28" x2="336.94" y1="161.92" y2="161.92" xlink:href="#j"></linearGradient><linearGradient id="Q" x1="695.79" x2="739.4" y1="366.67" y2="366.67" xlink:href="#e"></linearGradient><linearGradient id="R" x1="692.7" x2="700.56" y1="363.66" y2="363.66" xlink:href="#e"></linearGradient><linearGradient id="S" x1="692.42" x2="735.75" y1="329.35" y2="329.35" xlink:href="#e"></linearGradient><linearGradient id="T" x1="731" x2="738.89" y1="332.25" y2="332.25" xlink:href="#e"></linearGradient><linearGradient id="U" x1="702.49" x2="703.51" y1="330.09" y2="330.09" xlink:href="#e"></linearGradient><linearGradient id="V" x1="711.34" x2="712.82" y1="326.47" y2="326.47" xlink:href="#e"></linearGradient><linearGradient id="W" x1="705.02" x2="706.43" y1="328.51" y2="328.51" xlink:href="#e"></linearGradient><linearGradient id="X" x1="708.1" x2="709.55" y1="327.26" y2="327.26" xlink:href="#e"></linearGradient><linearGradient id="Y" x1="714.66" x2="716.16" y1="326.17" y2="326.17" xlink:href="#e"></linearGradient><linearGradient id="Z" x1="718.01" x2="719.5" y1="326.34" y2="326.34" xlink:href="#e"></linearGradient><linearGradient id="aa" x1="724.47" x2="725.9" y1="328.12" y2="328.12" xlink:href="#e"></linearGradient><linearGradient id="ab" x1="721.3" x2="722.77" y1="326.99" y2="326.99" xlink:href="#e"></linearGradient><linearGradient id="ac" x1="727.46" x2="728.49" y1="329.59" y2="329.59" xlink:href="#e"></linearGradient><linearGradient id="ad" x1="691.18" x2="696.15" y1="334.66" y2="334.66" xlink:href="#e"></linearGradient><linearGradient id="ae" x1="735.68" x2="740.66" y1="361.13" y2="361.13" xlink:href="#e"></linearGradient><linearGradient id="af" x1="727.47" x2="728.49" y1="365.84" y2="365.84" xlink:href="#e"></linearGradient><linearGradient id="ag" x1="711.49" x2="712.98" y1="369.59" y2="369.59" xlink:href="#e"></linearGradient><linearGradient id="ah" x1="708.22" x2="709.68" y1="368.93" y2="368.93" xlink:href="#e"></linearGradient><linearGradient id="ai" x1="705.09" x2="706.51" y1="367.81" y2="367.81" xlink:href="#e"></linearGradient><linearGradient id="aj" x1="714.83" x2="716.32" y1="369.76" y2="369.76" xlink:href="#e"></linearGradient><linearGradient id="ak" x1="724.55" x2="725.96" y1="367.41" y2="367.41" xlink:href="#e"></linearGradient><linearGradient id="al" x1="721.43" x2="722.88" y1="368.67" y2="368.67" xlink:href="#e"></linearGradient><linearGradient id="am" x1="718.16" x2="719.65" y1="369.45" y2="369.45" xlink:href="#e"></linearGradient><linearGradient id="an" x1="702.49" x2="703.52" y1="366.34" y2="366.34" xlink:href="#e"></linearGradient><linearGradient id="ao" x1="429.76" x2="429.76" y1="434.7" y2="466.25" xlink:href="#e"></linearGradient><linearGradient id="ap" x1="397.19" x2="397.19" y1="218.29" y2="402.01" xlink:href="#c"></linearGradient><linearGradient id="aq" x1="243.49" x2="608.41" y1="344.35" y2="344.35" xlink:href="#e"></linearGradient><linearGradient id="ar" x1="428.2" x2="453.72" y1="388.18" y2="388.18" xlink:href="#e"></linearGradient><linearGradient id="as" x1="574.08" x2="669.63" y1="318.2" y2="318.2" xlink:href="#e"></linearGradient><linearGradient id="at" x1="574.07" x2="669.62" y1="313.64" y2="313.64" xlink:href="#e"></linearGradient><linearGradient id="au" x1="574.08" x2="669.63" y1="370.21" y2="370.21" xlink:href="#e"></linearGradient><linearGradient id="av" x1="574.07" x2="669.63" y1="360.76" y2="360.76" xlink:href="#e"></linearGradient><linearGradient id="aw" x1="574.07" x2="669.63" y1="393.43" y2="393.43" xlink:href="#e"></linearGradient><linearGradient id="ax" x1="574.08" x2="669.63" y1="396.38" y2="396.38" xlink:href="#e"></linearGradient><linearGradient id="ay" x1="574.08" x2="669.63" y1="417.93" y2="417.93" xlink:href="#e"></linearGradient><linearGradient id="az" x1="574.07" x2="669.63" y1="417.93" y2="417.93" xlink:href="#e"></linearGradient><linearGradient id="aA" x1="574.06" x2="669.63" y1="369.4" y2="369.4" xlink:href="#e"></linearGradient><linearGradient id="aB" x1="574.08" x2="669.63" y1="363.04" y2="363.04" xlink:href="#e"></linearGradient><linearGradient id="aC" x1="574.07" x2="669.62" y1="329.77" y2="329.77" xlink:href="#e"></linearGradient><linearGradient id="aD" x1="574.07" x2="669.62" y1="329.77" y2="329.77" xlink:href="#e"></linearGradient><linearGradient id="aE" x1="574.08" x2="669.62" y1="360.65" y2="360.65" xlink:href="#e"></linearGradient><linearGradient id="aF" x1="574.07" x2="669.63" y1="360.65" y2="360.65" xlink:href="#e"></linearGradient><linearGradient id="aG" x1="574.07" x2="669.63" y1="435.88" y2="435.88" xlink:href="#e"></linearGradient><linearGradient id="aH" x1="573.98" x2="669.53" y1="429.52" y2="429.52" xlink:href="#e"></linearGradient><linearGradient id="aI" x1="346.15" x2="381.02" y1="410.34" y2="406.32" xlink:href="#e"></linearGradient><linearGradient id="aJ" x1="415.54" x2="415.54" y1="358.16" y2="416.32" xlink:href="#i"></linearGradient><linearGradient id="aK" x1="336.8" x2="395.15" y1="333.33" y2="356.47" gradientTransform="rotate(45 373.956 348.068)" xlink:href="#e"></linearGradient><linearGradient id="aL" x1="323.21" x2="381.57" y1="367.6" y2="390.74" xlink:href="#e"></linearGradient><linearGradient id="aM" x1="574.07" x2="669.62" y1="393.79" y2="393.79" xlink:href="#e"></linearGradient><linearGradient id="aN" x1="574.06" x2="669.6" y1="415.27" y2="415.27" gradientTransform="rotate(45 420.33 415.267)" xlink:href="#e"></linearGradient><linearGradient id="aO" x1="574.07" x2="669.62" y1="411.31" y2="411.31" gradientTransform="rotate(44.96 416.41 411.289)" xlink:href="#e"></linearGradient><linearGradient id="aP" x1="574.07" x2="669.62" y1="403.72" y2="403.72" gradientTransform="rotate(45.04 415.58 403.68)" xlink:href="#e"></linearGradient><linearGradient id="aQ" x1="574.07" x2="669.62" y1="395.27" y2="395.27" gradientTransform="rotate(45 415.6 395.277)" xlink:href="#e"></linearGradient><linearGradient id="aR" x1="574.08" x2="669.63" y1="386.65" y2="386.65" gradientTransform="rotate(45 415.804 386.652)" xlink:href="#e"></linearGradient><linearGradient id="aS" x1="574.07" x2="669.61" y1="380.06" y2="380.06" gradientTransform="rotate(45 413.952 380.065)" xlink:href="#e"></linearGradient><linearGradient id="aU" x1="460.81" x2="468.86" y1="266.96" y2="266.96" xlink:href="#h"></linearGradient><linearGradient id="aV" x1="449.35" x2="457.41" y1="266.96" y2="266.96" xlink:href="#i"></linearGradient><linearGradient id="aW" x1="437.9" x2="445.96" y1="266.96" y2="266.96" xlink:href="#i"></linearGradient><linearGradient id="aX" x1="426.45" x2="434.51" y1="266.96" y2="266.96" xlink:href="#h"></linearGradient><linearGradient id="aY" x1="415" x2="423.05" y1="266.96" y2="266.96" xlink:href="#i"></linearGradient><linearGradient id="aZ" x1="449.35" x2="457.41" y1="278.42" y2="278.42" xlink:href="#i"></linearGradient><linearGradient id="ba" x1="437.9" x2="445.96" y1="278.42" y2="278.42" xlink:href="#i"></linearGradient><linearGradient id="bb" x1="426.45" x2="434.51" y1="278.42" y2="278.42" xlink:href="#i"></linearGradient><linearGradient id="bc" x1="415" x2="423.05" y1="278.42" y2="278.42" xlink:href="#i"></linearGradient><linearGradient id="bd" x1="460.81" x2="468.86" y1="289.87" y2="289.87" xlink:href="#i"></linearGradient><linearGradient id="be" x1="449.35" x2="457.41" y1="289.87" y2="289.87" xlink:href="#i"></linearGradient><linearGradient id="bf" x1="426.45" x2="434.51" y1="289.87" y2="289.87" xlink:href="#i"></linearGradient><linearGradient id="bg" x1="415" x2="423.05" y1="289.87" y2="289.87" xlink:href="#i"></linearGradient><linearGradient id="bh" x1="449.35" x2="457.41" y1="301.32" y2="301.32" xlink:href="#i"></linearGradient><linearGradient id="bi" x1="437.9" x2="445.96" y1="301.32" y2="301.32" xlink:href="#h"></linearGradient><linearGradient id="bj" x1="415" x2="423.05" y1="301.32" y2="301.32" xlink:href="#i"></linearGradient><linearGradient id="bk" x1="404.86" x2="412.92" y1="344.35" y2="344.35" xlink:href="#h"></linearGradient><linearGradient id="bl" x1="437.9" x2="445.96" y1="312.77" y2="312.77" xlink:href="#i"></linearGradient><linearGradient id="bm" x1="426.45" x2="434.51" y1="312.77" y2="312.77" xlink:href="#i"></linearGradient><linearGradient id="bn" x1="449.35" x2="457.41" y1="324.22" y2="324.22" xlink:href="#i"></linearGradient><linearGradient id="bo" x1="426.45" x2="434.51" y1="324.22" y2="324.22" xlink:href="#i"></linearGradient><linearGradient id="bp" x1="436.85" x2="444.9" y1="345.49" y2="345.49" xlink:href="#i"></linearGradient><linearGradient id="bq" x1="404.86" x2="412.92" y1="266.96" y2="266.96" xlink:href="#h"></linearGradient><linearGradient id="br" x1="393.41" x2="401.47" y1="266.96" y2="266.96" xlink:href="#i"></linearGradient><linearGradient id="bs" x1="381.96" x2="390.02" y1="266.96" y2="266.96" xlink:href="#i"></linearGradient><linearGradient id="bt" x1="370.51" x2="378.56" y1="266.96" y2="266.96" xlink:href="#h"></linearGradient><linearGradient id="bu" x1="359.06" x2="367.11" y1="266.96" y2="266.96" xlink:href="#i"></linearGradient><linearGradient id="bv" x1="393.41" x2="401.47" y1="278.42" y2="278.42" xlink:href="#i"></linearGradient><linearGradient id="bw" x1="381.96" x2="390.02" y1="278.42" y2="278.42" xlink:href="#i"></linearGradient><linearGradient id="bx" x1="370.51" x2="378.56" y1="278.42" y2="278.42" xlink:href="#i"></linearGradient><linearGradient id="by" x1="359.06" x2="367.11" y1="278.42" y2="278.42" xlink:href="#i"></linearGradient><linearGradient id="bz" x1="404.86" x2="412.92" y1="289.87" y2="289.87" xlink:href="#i"></linearGradient><linearGradient id="bA" x1="393.41" x2="401.47" y1="289.87" y2="289.87" xlink:href="#i"></linearGradient><linearGradient id="bB" x1="370.51" x2="378.56" y1="289.87" y2="289.87" xlink:href="#i"></linearGradient><linearGradient id="bC" x1="359.06" x2="367.11" y1="289.87" y2="289.87" xlink:href="#i"></linearGradient><linearGradient id="bD" x1="393.41" x2="401.47" y1="301.32" y2="301.32" xlink:href="#i"></linearGradient><linearGradient id="bE" x1="381.96" x2="390.02" y1="301.32" y2="301.32" xlink:href="#h"></linearGradient><linearGradient id="bF" x1="359.06" x2="367.11" y1="301.32" y2="301.32" xlink:href="#i"></linearGradient><linearGradient id="bG" x1="359.04" x2="367.09" y1="361.53" y2="361.53" xlink:href="#h"></linearGradient><linearGradient id="bH" x1="381.96" x2="390.02" y1="312.77" y2="312.77" xlink:href="#i"></linearGradient><linearGradient id="bI" x1="370.51" x2="378.56" y1="312.77" y2="312.77" xlink:href="#i"></linearGradient><linearGradient id="bJ" x1="393.41" x2="401.47" y1="324.22" y2="324.22" xlink:href="#i"></linearGradient><linearGradient id="bK" x1="370.51" x2="378.56" y1="324.22" y2="324.22" xlink:href="#i"></linearGradient><linearGradient id="bL" x1="380.91" x2="388.96" y1="345.49" y2="345.49" xlink:href="#i"></linearGradient><linearGradient id="bM" x1="347.7" x2="355.75" y1="301.3" y2="301.3" xlink:href="#h"></linearGradient><linearGradient id="bN" x1="336.25" x2="344.3" y1="301.3" y2="301.3" xlink:href="#i"></linearGradient><linearGradient id="bO" x1="324.8" x2="332.85" y1="301.3" y2="301.3" xlink:href="#i"></linearGradient><linearGradient id="bP" x1="313.34" x2="321.4" y1="301.3" y2="301.3" xlink:href="#h"></linearGradient><linearGradient id="bQ" x1="301.89" x2="309.95" y1="301.3" y2="301.3" xlink:href="#i"></linearGradient><linearGradient id="bR" x1="336.25" x2="344.3" y1="312.75" y2="312.75" xlink:href="#i"></linearGradient><linearGradient id="bS" x1="324.8" x2="332.85" y1="312.75" y2="312.75" xlink:href="#i"></linearGradient><linearGradient id="bT" x1="313.34" x2="321.4" y1="312.75" y2="312.75" xlink:href="#i"></linearGradient><linearGradient id="bU" x1="301.89" x2="309.95" y1="312.75" y2="312.75" xlink:href="#i"></linearGradient><linearGradient id="bV" x1="347.7" x2="355.75" y1="324.2" y2="324.2" xlink:href="#i"></linearGradient><linearGradient id="bW" x1="336.25" x2="344.3" y1="324.2" y2="324.2" xlink:href="#i"></linearGradient><linearGradient id="bX" x1="313.34" x2="321.4" y1="324.2" y2="324.2" xlink:href="#i"></linearGradient><linearGradient id="bY" x1="301.89" x2="309.95" y1="324.2" y2="324.2" xlink:href="#i"></linearGradient><linearGradient id="bZ" x1="336.25" x2="344.3" y1="335.66" y2="335.66" xlink:href="#i"></linearGradient><linearGradient id="ca" x1="324.8" x2="332.85" y1="335.66" y2="335.66" xlink:href="#h"></linearGradient><linearGradient id="cb" x1="301.89" x2="309.95" y1="335.66" y2="335.66" xlink:href="#i"></linearGradient><linearGradient id="cc" x1="291.76" x2="299.81" y1="378.68" y2="378.68" xlink:href="#h"></linearGradient><linearGradient id="cd" x1="324.8" x2="332.85" y1="347.11" y2="347.11" xlink:href="#i"></linearGradient><linearGradient id="ce" x1="313.34" x2="321.4" y1="347.11" y2="347.11" xlink:href="#i"></linearGradient><linearGradient id="cf" x1="336.25" x2="344.3" y1="358.56" y2="358.56" xlink:href="#i"></linearGradient><linearGradient id="cg" x1="313.34" x2="321.4" y1="358.56" y2="358.56" xlink:href="#i"></linearGradient><linearGradient id="ch" x1="323.74" x2="331.79" y1="379.83" y2="379.83" xlink:href="#i"></linearGradient><linearGradient id="ci" x1="291.76" x2="299.81" y1="301.3" y2="301.3" xlink:href="#h"></linearGradient><linearGradient id="cj" x1="280.31" x2="288.36" y1="301.3" y2="301.3" xlink:href="#i"></linearGradient><linearGradient id="ck" x1="268.86" x2="276.91" y1="301.3" y2="301.3" xlink:href="#i"></linearGradient><linearGradient id="cl" x1="257.4" x2="265.46" y1="301.3" y2="301.3" xlink:href="#h"></linearGradient><linearGradient id="cm" x1="245.95" x2="254.01" y1="301.3" y2="301.3" xlink:href="#i"></linearGradient><linearGradient id="cn" x1="280.31" x2="288.36" y1="312.75" y2="312.75" xlink:href="#i"></linearGradient><linearGradient id="co" x1="268.86" x2="276.91" y1="312.75" y2="312.75" xlink:href="#i"></linearGradient><linearGradient id="cp" x1="257.4" x2="265.46" y1="312.75" y2="312.75" xlink:href="#i"></linearGradient><linearGradient id="cq" x1="245.95" x2="254.01" y1="312.75" y2="312.75" xlink:href="#i"></linearGradient><linearGradient id="cr" x1="291.76" x2="299.81" y1="324.2" y2="324.2" xlink:href="#i"></linearGradient><linearGradient id="cs" x1="280.31" x2="288.36" y1="324.2" y2="324.2" xlink:href="#i"></linearGradient><linearGradient id="ct" x1="257.4" x2="265.46" y1="324.2" y2="324.2" xlink:href="#i"></linearGradient><linearGradient id="cu" x1="245.95" x2="254.01" y1="324.2" y2="324.2" xlink:href="#i"></linearGradient><linearGradient id="cv" x1="280.31" x2="288.36" y1="335.66" y2="335.66" xlink:href="#i"></linearGradient><linearGradient id="cw" x1="268.86" x2="276.91" y1="335.66" y2="335.66" xlink:href="#h"></linearGradient><linearGradient id="cx" x1="245.95" x2="254.01" y1="335.66" y2="335.66" xlink:href="#i"></linearGradient><linearGradient id="cy" x1="245.93" x2="253.99" y1="395.87" y2="395.87" xlink:href="#h"></linearGradient><linearGradient id="cz" x1="268.86" x2="276.91" y1="347.11" y2="347.11" xlink:href="#i"></linearGradient><linearGradient id="cA" x1="257.4" x2="265.46" y1="347.11" y2="347.11" xlink:href="#i"></linearGradient><linearGradient id="cB" x1="280.31" x2="288.36" y1="358.56" y2="358.56" xlink:href="#i"></linearGradient><linearGradient id="cC" x1="257.4" x2="265.46" y1="358.56" y2="358.56" xlink:href="#i"></linearGradient><linearGradient id="cD" x1="267.8" x2="275.85" y1="379.83" y2="379.83" xlink:href="#i"></linearGradient><linearGradient id="cE" x1="460.81" x2="468.86" y1="312.74" y2="312.74" xlink:href="#h"></linearGradient><linearGradient id="cF" x1="472.26" x2="480.31" y1="312.74" y2="312.74" xlink:href="#i"></linearGradient><linearGradient id="cG" x1="483.71" x2="491.76" y1="312.74" y2="312.74" xlink:href="#i"></linearGradient><linearGradient id="cH" x1="495.16" x2="503.21" y1="312.74" y2="312.74" xlink:href="#h"></linearGradient><linearGradient id="cI" x1="506.61" x2="514.67" y1="312.74" y2="312.74" xlink:href="#i"></linearGradient><linearGradient id="cJ" x1="472.26" x2="480.31" y1="324.2" y2="324.2" xlink:href="#i"></linearGradient><linearGradient id="cK" x1="483.71" x2="491.76" y1="324.2" y2="324.2" xlink:href="#i"></linearGradient><linearGradient id="cL" x1="495.16" x2="503.21" y1="324.2" y2="324.2" xlink:href="#i"></linearGradient><linearGradient id="cM" x1="506.61" x2="514.67" y1="324.2" y2="324.2" xlink:href="#i"></linearGradient><linearGradient id="cN" x1="460.81" x2="468.86" y1="335.65" y2="335.65" xlink:href="#i"></linearGradient><linearGradient id="cO" x1="472.26" x2="480.31" y1="335.65" y2="335.65" xlink:href="#i"></linearGradient><linearGradient id="cP" x1="495.16" x2="503.21" y1="335.65" y2="335.65" xlink:href="#i"></linearGradient><linearGradient id="cQ" x1="506.61" x2="514.67" y1="335.65" y2="335.65" xlink:href="#i"></linearGradient><linearGradient id="cR" x1="472.26" x2="480.31" y1="347.1" y2="347.1" xlink:href="#i"></linearGradient><linearGradient id="cS" x1="483.71" x2="491.76" y1="347.1" y2="347.1" xlink:href="#h"></linearGradient><linearGradient id="cT" x1="506.61" x2="514.67" y1="347.1" y2="347.1" xlink:href="#i"></linearGradient><linearGradient id="cU" x1="516.75" x2="524.8" y1="390.13" y2="390.13" xlink:href="#h"></linearGradient><linearGradient id="cV" x1="483.71" x2="491.76" y1="358.55" y2="358.55" xlink:href="#i"></linearGradient><linearGradient id="cW" x1="495.16" x2="503.21" y1="358.55" y2="358.55" xlink:href="#i"></linearGradient><linearGradient id="cX" x1="472.26" x2="480.31" y1="370" y2="370" xlink:href="#i"></linearGradient><linearGradient id="cY" x1="495.16" x2="503.21" y1="370" y2="370" xlink:href="#i"></linearGradient><linearGradient id="cZ" x1="484.76" x2="492.82" y1="391.27" y2="391.27" xlink:href="#i"></linearGradient><linearGradient id="da" x1="516.75" x2="524.8" y1="312.74" y2="312.74" xlink:href="#h"></linearGradient><linearGradient id="db" x1="528.2" x2="536.25" y1="312.74" y2="312.74" xlink:href="#i"></linearGradient><linearGradient id="dc" x1="539.65" x2="547.7" y1="312.74" y2="312.74" xlink:href="#i"></linearGradient><linearGradient id="dd" x1="551.1" x2="559.16" y1="312.74" y2="312.74" xlink:href="#h"></linearGradient><linearGradient id="de" x1="562.55" x2="570.61" y1="312.74" y2="312.74" xlink:href="#i"></linearGradient><linearGradient id="df" x1="528.2" x2="536.25" y1="324.2" y2="324.2" xlink:href="#i"></linearGradient><linearGradient id="dg" x1="539.65" x2="547.7" y1="324.2" y2="324.2" xlink:href="#i"></linearGradient><linearGradient id="dh" x1="551.1" x2="559.16" y1="324.2" y2="324.2" xlink:href="#i"></linearGradient><linearGradient id="di" x1="562.55" x2="570.61" y1="324.2" y2="324.2" xlink:href="#i"></linearGradient><linearGradient id="dj" x1="516.75" x2="524.8" y1="335.65" y2="335.65" xlink:href="#i"></linearGradient><linearGradient id="dk" x1="528.2" x2="536.25" y1="335.65" y2="335.65" xlink:href="#i"></linearGradient><linearGradient id="dl" x1="551.1" x2="559.16" y1="335.65" y2="335.65" xlink:href="#i"></linearGradient><linearGradient id="dm" x1="562.55" x2="570.61" y1="335.65" y2="335.65" xlink:href="#i"></linearGradient><linearGradient id="dn" x1="528.2" x2="536.25" y1="347.1" y2="347.1" xlink:href="#i"></linearGradient><linearGradient id="do" x1="539.65" x2="547.7" y1="347.1" y2="347.1" xlink:href="#h"></linearGradient><linearGradient id="dp" x1="562.55" x2="570.61" y1="347.1" y2="347.1" xlink:href="#i"></linearGradient><linearGradient id="dq" x1="562.57" x2="570.63" y1="407.31" y2="407.31" xlink:href="#h"></linearGradient><linearGradient id="dr" x1="539.65" x2="547.7" y1="358.55" y2="358.55" xlink:href="#i"></linearGradient><linearGradient id="ds" x1="551.1" x2="559.16" y1="358.55" y2="358.55" xlink:href="#i"></linearGradient><linearGradient id="dt" x1="528.2" x2="536.25" y1="370" y2="370" xlink:href="#i"></linearGradient><linearGradient id="du" x1="551.1" x2="559.16" y1="370" y2="370" xlink:href="#i"></linearGradient><linearGradient id="dv" x1="540.71" x2="548.76" y1="391.27" y2="391.27" xlink:href="#i"></linearGradient><linearGradient id="dw" x1="523.56" x2="498.35" y1="246.08" y2="271.29" xlink:href="#d"></linearGradient><linearGradient id="dx" x1="525.66" x2="500.44" y1="248.17" y2="273.39" xlink:href="#d"></linearGradient><radialGradient id="j" cx="392.14" cy="495.07" r="332.29" gradientTransform="matrix(1 0 0 .02 0 486.59)" gradientUnits="userSpaceOnUse"><stop offset="0" stop-color="#9693cf"></stop><stop offset="1" stop-color="#fff"></stop></radialGradient><radialGradient id="l" cx="503.53" cy="403.75" r="69.24" gradientTransform="translate(0 .51)" gradientUnits="userSpaceOnUse"><stop offset="0" stop-color="#ffcb50"></stop><stop offset=".31" stop-color="#ffc84e"></stop><stop offset=".51" stop-color="#fdc049"></stop><stop offset=".67" stop-color="#fab13f"></stop><stop offset=".81" stop-color="#f69d32"></stop><stop offset=".95" stop-color="#f18221"></stop><stop offset="1" stop-color="#ef7518"></stop></radialGradient><radialGradient id="G" cx="391.26" cy="479.16" r="270.31" gradientTransform="matrix(1 0 0 .02 0 470.95)" xlink:href="#j"></radialGradient><radialGradient id="M" cx="698.09" cy="264.89" r="7.33" xlink:href="#j"></radialGradient><radialGradient id="N" cx="702.49" cy="240.14" r="13.5" xlink:href="#j"></radialGradient><radialGradient id="O" cx="140.72" cy="303.95" r="7.33" xlink:href="#j"></radialGradient><radialGradient id="P" cx="75.98" cy="353.56" r="13.5" xlink:href="#j"></radialGradient><clipPath id="aT"><path fill="none" d="M243.49 366.23a57.13 57.13 0 0 1 90.61-46.29A78.94 78.94 0 0 1 486.37 328a50.28 50.28 0 0 1 71.32 33.56A33.3 33.3 0 0 1 608.41 390c0 17.21-13.42 33.15-29.77 33.15H296.77c-29.42.06-53.28-26.67-53.28-56.92Z"></path></clipPath></defs><g data-name="Layer 1"><path fill="url(#h)" d="M603.5 141.81h50.53v44.89H603.5z"></path><path fill="#5d35a9" d="m636.05 126.08-9.02-9.32-9.02 9.32-9.02-9.32-9.02 9.32-9.02-9.32-9.02 9.32-9.02-9.32-9.02 9.32-9.02-9.32-9.01 9.32-9.02-9.32-9.02 9.32-8.61-8.9-.81.78 9.42 9.75 9.02-9.33 9.02 9.33 9.01-9.33 9.02 9.33 9.02-9.33 9.02 9.33 9.02-9.33 9.02 9.33 9.02-9.33 9.02 9.33 9.02-9.33 9.02 9.33 9.43-9.75-.81-.78-8.62 8.9zM636.05 142.09l-9.02-9.32-9.02 9.32-9.02-9.32-9.02 9.32-9.02-9.32-9.02 9.32-9.02-9.32-9.02 9.32-9.02-9.32-9.01 9.32-9.02-9.32-9.02 9.32-8.61-8.9-.81.78 9.42 9.74 9.02-9.32 9.02 9.32 9.01-9.32 9.02 9.32 9.02-9.32 9.02 9.32 9.02-9.32 9.02 9.32 9.02-9.32 9.02 9.32 9.02-9.32 9.02 9.32 9.43-9.74-.81-.78-8.62 8.9zM636.05 158.1l-9.02-9.33-9.02 9.33-9.02-9.33-9.02 9.33-9.02-9.33-9.02 9.33-9.02-9.33-9.02 9.33-9.02-9.33-9.01 9.33-9.02-9.33-9.02 9.33-8.61-8.91-.81.79 9.42 9.74 9.02-9.32 9.02 9.32 9.01-9.32 9.02 9.32 9.02-9.32 9.02 9.32 9.02-9.32 9.02 9.32 9.02-9.32 9.02 9.32 9.02-9.32 9.02 9.32 9.43-9.74-.81-.79-8.62 8.91zM636.05 174.1l-9.02-9.32-9.02 9.32-9.02-9.32-9.02 9.32-9.02-9.32-9.02 9.32-9.02-9.32-9.02 9.32-9.02-9.32-9.01 9.32-9.02-9.32-9.02 9.32-8.61-8.9-.81.79 9.42 9.74 9.02-9.32 9.02 9.32 9.01-9.32 9.02 9.32 9.02-9.32 9.02 9.32 9.02-9.32 9.02 9.32 9.02-9.32 9.02 9.32 9.02-9.32 9.02 9.32 9.43-9.74-.81-.79-8.62 8.9zM636.05 190.11l-9.02-9.32-9.02 9.32-9.02-9.32-9.02 9.32-9.02-9.32-9.02 9.32-9.02-9.32-9.02 9.32-9.02-9.32-9.01 9.32-9.02-9.32-9.02 9.32-8.61-8.9-.81.78 9.42 9.75 9.02-9.33 9.02 9.33 9.01-9.33 9.02 9.33 9.02-9.33 9.02 9.33 9.02-9.33 9.02 9.33 9.02-9.33 9.02 9.33 9.02-9.33 9.02 9.33 9.43-9.75-.81-.78-8.62 8.9zM636.05 206.12l-9.02-9.32-9.02 9.32-9.02-9.32-9.02 9.32-9.02-9.32-9.02 9.32-9.02-9.32-9.02 9.32-9.02-9.32-9.01 9.32-9.02-9.32-9.02 9.32-8.61-8.9-.81.78 9.42 9.75 9.02-9.33 9.02 9.33 9.01-9.33 9.02 9.33 9.02-9.33 9.02 9.33 9.02-9.33 9.02 9.33 9.02-9.33 9.02 9.33 9.02-9.33 9.02 9.33 9.43-9.75-.81-.78-8.62 8.9zM636.05 222.13l-9.02-9.32-9.02 9.32-9.02-9.32-9.02 9.32-9.02-9.32-9.02 9.32-9.02-9.32-9.02 9.32-9.02-9.32-9.01 9.32-9.02-9.32-9.02 9.32-8.61-8.91-.81.79 9.42 9.74 9.02-9.32 9.02 9.32 9.01-9.32 9.02 9.32 9.02-9.32 9.02 9.32 9.02-9.32 9.02 9.32 9.02-9.32 9.02 9.32 9.02-9.32 9.02 9.32 9.43-9.74-.81-.79-8.62 8.91z"></path><path d="M392.14 157.27c-191.47 0-324.5 142.61-332.8 321.7h665.59c-8.29-179.09-141.32-321.7-332.79-321.7Z" style="mix-blend-mode:multiply" fill="url(#j)"></path><path fill="#fff" d="m97.94 222.22-.09.09a1.88 1.88 0 0 0 2.67 2.66l.09-.08a1.89 1.89 0 0 0-2.67-2.67ZM139.55 180.61l-.19.19a1.88 1.88 0 0 0 2.66 2.67l.19-.19a1.88 1.88 0 0 0-2.66-2.67ZM111.81 208.35l-.19.19a1.89 1.89 0 0 0 2.67 2.67l.19-.19a1.89 1.89 0 1 0-2.67-2.67ZM125.68 194.48l-.19.19a1.89 1.89 0 1 0 2.67 2.67l.18-.19a1.88 1.88 0 0 0-2.66-2.67ZM153.41 166.74l-.19.19a1.89 1.89 0 0 0 2.67 2.67l.19-.19a1.89 1.89 0 1 0-2.67-2.67ZM181.15 139l-.19.19a1.89 1.89 0 0 0 2.67 2.67l.19-.19a1.89 1.89 0 1 0-2.67-2.67ZM167.28 152.87l-.19.19a1.89 1.89 0 0 0 2.67 2.67l.19-.19a1.89 1.89 0 1 0-2.67-2.67ZM194.92 125.23l-.09.09a1.89 1.89 0 0 0 2.67 2.68l.09-.09a1.89 1.89 0 1 0-2.67-2.67ZM111.84 236.12l-.09.09a1.89 1.89 0 1 0 2.67 2.67l.09-.09a1.89 1.89 0 1 0-2.67-2.67ZM125.71 222.25l-.19.19a1.89 1.89 0 1 0 2.67 2.67l.19-.19a1.89 1.89 0 1 0-2.67-2.67ZM153.45 194.51l-.19.19a1.89 1.89 0 0 0 2.67 2.67l.19-.19a1.89 1.89 0 0 0-2.67-2.67ZM139.58 208.38l-.19.19a1.89 1.89 0 0 0 2.67 2.67l.19-.19a1.89 1.89 0 1 0-2.67-2.67ZM195.06 152.9l-.19.19a1.89 1.89 0 1 0 2.67 2.67l.19-.19a1.89 1.89 0 0 0-2.67-2.67ZM167.32 180.64l-.19.19a1.89 1.89 0 1 0 2.67 2.67l.19-.19a1.89 1.89 0 0 0-2.67-2.67ZM181.19 166.77l-.19.23a1.89 1.89 0 1 0 2.67 2.67l.19-.19a1.89 1.89 0 0 0-2.67-2.67ZM208.83 139.13l-.09.09a1.89 1.89 0 1 0 2.67 2.67l.09-.09a1.89 1.89 0 1 0-2.67-2.67ZM125.75 250l-.09.09a1.89 1.89 0 0 0 2.67 2.67l.09-.09a1.89 1.89 0 0 0-2.67-2.67ZM153.49 222.29l-.19.19a1.89 1.89 0 1 0 2.67 2.67l.19-.19a1.89 1.89 0 0 0-2.67-2.67ZM139.62 236.16l-.19.19a1.89 1.89 0 1 0 2.67 2.65l.19-.19a1.89 1.89 0 0 0-2.67-2.67ZM167.36 208.42l-.19.19a1.89 1.89 0 0 0 2.67 2.67l.19-.19a1.89 1.89 0 0 0-2.67-2.67ZM195.09 180.68l-.19.19a1.89 1.89 0 0 0 2.67 2.67l.19-.19a1.89 1.89 0 1 0-2.67-2.67ZM209 166.81l-.19.19a1.89 1.89 0 0 0 2.67 2.67l.19-.19a1.89 1.89 0 1 0-2.67-2.67ZM181.23 194.55l-.19.19a1.88 1.88 0 0 0 2.66 2.67l.19-.19a1.88 1.88 0 1 0-2.66-2.67ZM222.73 153l-.09.09a1.89 1.89 0 0 0 2.67 2.67l.09-.09a1.89 1.89 0 0 0-2.67-2.67ZM139.65 263.93l-.09.09a1.89 1.89 0 1 0 2.67 2.67l.09-.09a1.89 1.89 0 1 0-2.67-2.67ZM167.39 236.19l-.19.19a1.89 1.89 0 0 0 2.67 2.67l.19-.19a1.89 1.89 0 0 0-2.67-2.67ZM153.52 250.06l-.19.19a1.89 1.89 0 0 0 2.67 2.67l.19-.19a1.89 1.89 0 1 0-2.67-2.67ZM181.26 222.32l-.19.19a1.89 1.89 0 0 0 2.67 2.67l.19-.19a1.89 1.89 0 0 0-2.67-2.67ZM222.87 180.71l-.19.19a1.89 1.89 0 1 0 2.67 2.67l.19-.19a1.89 1.89 0 0 0-2.67-2.67ZM209 194.58l-.19.19a1.89 1.89 0 1 0 2.67 2.67l.19-.19a1.89 1.89 0 0 0-2.67-2.67ZM195.13 208.45l-.19.19a1.89 1.89 0 0 0 2.67 2.67l.19-.19a1.89 1.89 0 0 0-2.67-2.67ZM236.64 166.94l-.09.09a1.89 1.89 0 1 0 2.67 2.67l.09-.09a1.89 1.89 0 0 0-2.67-2.67ZM153.56 277.84l-.09.09a1.89 1.89 0 0 0 2.67 2.67l.09-.09a1.89 1.89 0 1 0-2.67-2.67ZM195.17 236.23l-.19.19a1.89 1.89 0 0 0 2.67 2.67l.19-.19a1.89 1.89 0 0 0-2.67-2.67ZM181.3 250.1l-.19.19a1.89 1.89 0 1 0 2.67 2.67l.19-.19a1.89 1.89 0 0 0-2.67-2.67ZM167.43 264l-.19.19a1.89 1.89 0 1 0 2.67 2.67l.19-.19a1.89 1.89 0 0 0-2.67-2.67ZM209 222.36l-.19.19a1.88 1.88 0 0 0 2.66 2.67l.19-.19a1.88 1.88 0 1 0-2.66-2.67ZM222.91 208.49l-.19.19a1.88 1.88 0 0 0 2.66 2.67l.19-.19a1.88 1.88 0 1 0-2.66-2.67ZM236.78 194.62l-.2.19a1.89 1.89 0 0 0 2.67 2.67l.19-.19a1.88 1.88 0 1 0-2.66-2.67ZM250.54 180.85l-.09.09a1.89 1.89 0 0 0 2.67 2.67l.09-.09a1.89 1.89 0 0 0-2.67-2.67ZM167.46 291.74l-.09.09a1.89 1.89 0 0 0 2.63 2.67l.09-.09a1.89 1.89 0 0 0-2.67-2.67ZM209.07 250.13l-.19.19a1.89 1.89 0 0 0 2.67 2.67l.19-.19a1.89 1.89 0 0 0-2.67-2.67ZM195.2 264l-.19.19a1.89 1.89 0 0 0 2.67 2.67l.19-.19a1.89 1.89 0 0 0-2.67-2.67ZM181.33 277.87l-.19.19a1.89 1.89 0 0 0 2.67 2.67l.19-.19a1.89 1.89 0 0 0-2.67-2.67ZM250.68 208.52l-.19.19a1.89 1.89 0 1 0 2.67 2.67l.19-.19a1.89 1.89 0 0 0-2.67-2.67ZM222.94 236.26l-.19.19a1.89 1.89 0 1 0 2.67 2.67l.19-.19a1.89 1.89 0 0 0-2.67-2.67ZM236.81 222.39l-.19.19a1.89 1.89 0 1 0 2.67 2.67l.19-.19a1.89 1.89 0 0 0-2.67-2.67ZM264.45 194.75l-.09.09a1.89 1.89 0 1 0 2.67 2.67l.09-.09a1.89 1.89 0 0 0-2.67-2.67ZM181.37 305.65l-.09.09a1.89 1.89 0 1 0 2.67 2.67l.09-.09a1.89 1.89 0 0 0-2.67-2.67ZM223 264l-.19.19a1.89 1.89 0 0 0 2.67 2.67l.19-.19A1.89 1.89 0 0 0 223 264ZM195.24 291.78l-.19.19a1.89 1.89 0 1 0 2.67 2.67l.19-.19a1.89 1.89 0 0 0-2.67-2.67ZM209.11 277.91l-.19.19a1.89 1.89 0 0 0 2.67 2.67l.19-.19a1.89 1.89 0 0 0-2.67-2.67ZM264.58 222.43l-.19.19a1.89 1.89 0 0 0 2.67 2.67l.19-.19a1.89 1.89 0 0 0-2.67-2.67ZM250.72 236.3l-.19.19a1.88 1.88 0 0 0 2.66 2.67l.2-.19a1.89 1.89 0 1 0-2.67-2.67ZM236.85 250.17l-.19.19a1.89 1.89 0 0 0 2.67 2.67l.19-.19a1.89 1.89 0 0 0-2.67-2.67ZM278.35 208.66l-.09.09a1.89 1.89 0 0 0 2.67 2.67l.09-.09a1.89 1.89 0 0 0-2.67-2.67ZM195.14 319.42l-.09.08a1.89 1.89 0 1 0 2.67 2.67l.08-.08a1.88 1.88 0 0 0-2.66-2.67ZM222.87 291.68l-.19.19a1.89 1.89 0 1 0 2.67 2.67l.19-.19a1.89 1.89 0 1 0-2.67-2.67ZM209 305.55l-.19.19a1.89 1.89 0 1 0 2.67 2.67l.19-.19a1.89 1.89 0 1 0-2.67-2.67ZM236.74 277.81l-.19.19a1.89 1.89 0 1 0 2.67 2.67l.19-.19a1.89 1.89 0 1 0-2.67-2.67ZM250.61 263.94l-.19.19a1.89 1.89 0 1 0 2.67 2.67l.19-.19a1.89 1.89 0 1 0-2.67-2.67ZM278.35 236.2l-.19.19a1.89 1.89 0 0 0 2.67 2.67l.19-.19a1.89 1.89 0 0 0-2.67-2.67ZM264.48 250.07l-.19.19a1.89 1.89 0 0 0 2.67 2.67l.19-.19a1.89 1.89 0 0 0-2.67-2.67ZM292.12 222.43l-.09.09a1.89 1.89 0 0 0 2.67 2.67l.09-.09a1.89 1.89 0 1 0-2.67-2.67ZM161 411.84l-8.87-4.53L159 400a2.26 2.26 0 0 0-1.38-3.78L147.7 395l3.88-9.17a2.26 2.26 0 0 0-2.59-3.08l-9.7 2.24.53-9.94a2.26 2.26 0 0 0-3.48-2l-8.34 5.44-2.94-9.49a2.26 2.26 0 0 0-4-.7l-6 8-6-8a2.27 2.27 0 0 0-4 .7l-2.92 9.52-8.35-5.42a2.26 2.26 0 0 0-3.49 2l.53 9.94-9.7-2.24a2.25 2.25 0 0 0-2.23.75 2.23 2.23 0 0 0-.35 2.33l3.98 9.12-9.89 1.21a2.26 2.26 0 0 0-1.37 3.79l6.79 7.28-8.87 4.53a2.26 2.26 0 0 0 0 4l8.87 4.52-6.79 7.28a2.26 2.26 0 0 0 1.37 3.79l9.89 1.2-3.89 9.17a2.29 2.29 0 0 0 .35 2.34 2.24 2.24 0 0 0 2.24.74l9.7-2.23-.53 9.94a2.26 2.26 0 0 0 3.49 2l8.35-5.42 2.92 9.52a2.26 2.26 0 0 0 1.77 1.57 2.28 2.28 0 0 0 2.2-.87l6-7.95 6 7.95a2.26 2.26 0 0 0 1.8.9h.39a2.26 2.26 0 0 0 1.77-1.57l2.91-9.49 8.36 5.42a2.24 2.24 0 0 0 2.35.06 2.26 2.26 0 0 0 1.13-2.07l-.53-9.94 9.7 2.23a2.24 2.24 0 0 0 2.24-.74 2.29 2.29 0 0 0 .35-2.34l-3.88-9.16 9.88-1.21a2.26 2.26 0 0 0 1.38-3.79l-6.8-7.28 8.87-4.52a2.26 2.26 0 0 0 0-4Zm-13.59 5.88a2.31 2.31 0 0 0-1.2 1.62 2.27 2.27 0 0 0 .58 1.94l5.81 6.22-8.46 1a2.25 2.25 0 0 0-1.8 3.12l3.32 7.85-8.3-1.92a2.27 2.27 0 0 0-2 .47 2.24 2.24 0 0 0-.81 1.85l.45 8.51-7.14-4.64a2.28 2.28 0 0 0-2-.22 2.25 2.25 0 0 0-1.39 1.46l-2.5 8.14-5.12-6.81a2.29 2.29 0 0 0-1.81-.9 2.26 2.26 0 0 0-1.8.9l-5.13 6.81-2.42-8.12a2.27 2.27 0 0 0-1.39-1.46 2.24 2.24 0 0 0-2 .22l-7.15 4.64.45-8.51a2.25 2.25 0 0 0-2.76-2.32l-8.31 1.92 3.32-7.85a2.25 2.25 0 0 0-1.8-3.12l-8.45-1 5.81-6.22a2.27 2.27 0 0 0-.63-3.56l-7.59-3.87 7.59-3.87a2.25 2.25 0 0 0 1.2-1.62 2.27 2.27 0 0 0-.57-1.93l-5.81-6.23 8.45-1a2.26 2.26 0 0 0 1.81-3.22l-3.33-7.85 8.31 1.91a2.25 2.25 0 0 0 2.76-2.32l-.45-8.51 7.15 4.64a2.28 2.28 0 0 0 2 .23 2.32 2.32 0 0 0 1.39-1.46l2.49-8.15 5.13 6.81a2.23 2.23 0 0 0 1.8.9 2.26 2.26 0 0 0 1.81-.9l5.12-6.81 2.5 8.15a2.26 2.26 0 0 0 3.39 1.23l7.14-4.64-.45 8.51a2.27 2.27 0 0 0 2.77 2.32l8.3-1.91-3.32 7.85a2.26 2.26 0 0 0 .12 2 2.29 2.29 0 0 0 1.68 1.11l8.46 1-5.81 6.23a2.25 2.25 0 0 0-.58 1.93 2.28 2.28 0 0 0 1.2 1.62l7.6 3.88Z"></path><path fill="url(#a)" d="M174 387.86c6.31-21.34 7.91-33.37-22.31-38s-4.72-31.57-32.34-46.41-40.67 20-30.74 34 26.85 17.68 24.94 31-9.48 19.13-1.3 31c9.65 14 25.37 5.17 24.12 24.09s1.14 44.59 52.33 52.59c0 0 27.33-40.25 12.83-55.61S167.72 409.2 174 387.86Z"></path><path fill="url(#k)" d="M175 387.62c6.2-21 7.77-32.81-21.93-37.35s-4.64-31-31.79-45.63-40.66 17.93-30.9 31.73 27.07 19.1 25.2 32.19-9.33 18.8-1.29 30.45c9.5 13.75 25 5.08 23.72 23.69s1.12 43.83 51.44 51.69c0 0 26.87-39.57 12.61-54.67s-33.24-11.13-27.06-32.1Z"></path><path fill="#53a29b" d="M192.16 473.46c-5-13.31-11.12-25.88-17.44-38.37s-12.92-24.8-19.7-37-13.65-24.36-20.66-36.43-14.09-24.09-21.31-36q10.2 18.27 20.06 36.73t19.38 37.07Q162 418 170.86 437c5.85 12.6 11.54 25.36 15.89 38.36v.05a2.86 2.86 0 1 0 5.42-1.82.47.47 0 0 0-.01-.13Z"></path><path fill="#45378a" d="M369 434.26h-66.55a9.06 9.06 0 0 0-9.06 9.06v33.28h84.68v-33.28a9.06 9.06 0 0 0-9.07-9.06Z"></path><path fill="url(#i)" d="M375 434.26h-66.6a9.06 9.06 0 0 0-9.06 9.06v33.28H384v-33.28a9.06 9.06 0 0 0-9-9.06Z"></path><path fill="#8e59de" d="M380.3 444c-.79 1.12-1.46 2.09-2.8 2.09s-2-1-2.79-2.09-1.8-2.57-3.72-2.57-2.88 1.36-3.72 2.57-1.46 2.09-2.79 2.09-2-1-2.8-2.09-1.79-2.57-3.72-2.57-2.87 1.36-3.72 2.57-1.45 2.09-2.79 2.09-2-1-2.79-2.09-1.8-2.57-3.72-2.57-2.88 1.36-3.72 2.57-1.46 2.09-2.8 2.09-2-1-2.79-2.09-1.8-2.57-3.72-2.57-2.88 1.36-3.72 2.57-1.46 2.09-2.79 2.09-2-1-2.8-2.09-1.79-2.57-3.72-2.57-2.87 1.36-3.72 2.57-1.46 2.09-2.79 2.09-2-1-2.8-2.09-1.79-2.57-3.72-2.57-2.88 1.36-3.72 2.57-1.46 2.09-2.79 2.09v1.12c1.92 0 2.87-1.36 3.72-2.57s1.46-2.08 2.79-2.08 2 1 2.8 2.08 1.8 2.57 3.72 2.57 2.88-1.36 3.72-2.57 1.46-2.08 2.79-2.08 2 1 2.8 2.08 1.79 2.57 3.72 2.57 2.87-1.36 3.72-2.57 1.46-2.08 2.79-2.08 2 1 2.79 2.08 1.8 2.57 3.72 2.57 2.88-1.36 3.72-2.57 1.46-2.08 2.8-2.08 2 1 2.79 2.08 1.8 2.57 3.72 2.57 2.88-1.36 3.72-2.57 1.46-2.08 2.79-2.08 2 1 2.8 2.08 1.79 2.57 3.72 2.57 2.87-1.36 3.72-2.57 1.46-2.08 2.79-2.08 2 1 2.79 2.08 1.8 2.57 3.72 2.57 2.88-1.36 3.72-2.57 1.46-2.08 2.79-2.08v-1.13c-1.92.04-2.87 1.4-3.71 2.57ZM380.3 452.87c-.79 1.12-1.46 2.09-2.8 2.09s-2-1-2.79-2.09-1.8-2.57-3.72-2.57-2.88 1.36-3.72 2.57-1.46 2.09-2.79 2.09-2-1-2.8-2.09-1.79-2.57-3.72-2.57-2.87 1.36-3.72 2.57-1.45 2.09-2.79 2.09-2-1-2.79-2.09-1.8-2.57-3.72-2.57-2.88 1.36-3.72 2.57-1.46 2.09-2.8 2.09-2-1-2.79-2.09-1.8-2.57-3.72-2.57-2.88 1.36-3.72 2.57-1.46 2.13-2.79 2.13-2-1-2.8-2.09-1.79-2.57-3.72-2.57-2.87 1.36-3.72 2.57-1.46 2.09-2.79 2.09-2-1-2.8-2.09-1.79-2.57-3.72-2.57-2.88 1.36-3.72 2.57-1.46 2.09-2.79 2.09v1.12c1.92 0 2.87-1.36 3.72-2.57s1.46-2.08 2.79-2.08 2 1 2.8 2.08 1.8 2.57 3.72 2.57 2.88-1.36 3.72-2.57 1.46-2.08 2.79-2.08 2 1 2.8 2.08 1.79 2.57 3.72 2.57 2.87-1.36 3.72-2.57 1.46-2.08 2.79-2.08 2 1 2.79 2.08 1.8 2.57 3.72 2.57 2.88-1.36 3.72-2.57 1.46-2.08 2.8-2.08 2 1 2.79 2.08 1.8 2.57 3.72 2.57 2.88-1.36 3.72-2.57 1.46-2.08 2.79-2.08 2 1 2.8 2.08 1.79 2.57 3.72 2.57 2.87-1.36 3.72-2.57 1.46-2.08 2.79-2.08 2 1 2.79 2.08 1.8 2.57 3.72 2.57 2.88-1.36 3.72-2.57 1.46-2.08 2.79-2.08v-1.17c-1.92 0-2.87 1.36-3.71 2.57ZM380.3 461.7c-.79 1.12-1.46 2.08-2.8 2.08s-2-1-2.79-2.08-1.8-2.57-3.72-2.57-2.88 1.36-3.72 2.57-1.46 2.08-2.79 2.08-2-1-2.8-2.08-1.79-2.57-3.72-2.57-2.87 1.36-3.72 2.57-1.45 2.08-2.79 2.08-2-1-2.79-2.08-1.8-2.57-3.72-2.57-2.88 1.36-3.72 2.57-1.46 2.08-2.8 2.08-2-1-2.79-2.08-1.8-2.57-3.72-2.57-2.88 1.36-3.72 2.57-1.46 2.08-2.79 2.08-2-1-2.8-2.08-1.79-2.57-3.72-2.57-2.87 1.36-3.72 2.57-1.46 2.08-2.79 2.08-2-1-2.8-2.08-1.79-2.57-3.72-2.57-2.88 1.36-3.72 2.57-1.46 2.08-2.79 2.08v1.13c1.92 0 2.87-1.36 3.72-2.57s1.46-2.09 2.79-2.09 2 1 2.8 2.09 1.8 2.57 3.72 2.57 2.88-1.36 3.72-2.57 1.46-2.09 2.79-2.09 2 1 2.8 2.09 1.79 2.57 3.72 2.57 2.87-1.36 3.72-2.57 1.46-2.09 2.79-2.09 2 1 2.79 2.09 1.8 2.57 3.72 2.57 2.88-1.36 3.72-2.57 1.46-2.09 2.8-2.09 2 1 2.79 2.09 1.8 2.57 3.72 2.57 2.88-1.36 3.72-2.57 1.46-2.09 2.79-2.09 2 1 2.8 2.09 1.79 2.57 3.72 2.57 2.87-1.36 3.72-2.57 1.46-2.09 2.79-2.09 2 1 2.79 2.09 1.8 2.57 3.72 2.57 2.88-1.36 3.72-2.57 1.46-2.09 2.79-2.09v-1.12c-1.92 0-2.87 1.36-3.71 2.57ZM380.3 470.53c-.79 1.12-1.46 2.08-2.8 2.08s-2-1-2.79-2.08-1.8-2.53-3.71-2.53-2.88 1.36-3.72 2.57-1.46 2.08-2.79 2.08-2-1-2.8-2.08-1.8-2.57-3.69-2.57-2.87 1.36-3.72 2.57-1.45 2.08-2.79 2.08-2-1-2.79-2.08-1.8-2.57-3.72-2.57-2.88 1.36-3.72 2.57-1.46 2.08-2.8 2.08-2-1-2.79-2.08-1.8-2.57-3.72-2.57-2.88 1.36-3.72 2.57-1.46 2.08-2.79 2.08-2-1-2.8-2.08-1.79-2.57-3.72-2.57-2.87 1.36-3.72 2.57-1.46 2.08-2.79 2.08-2-1-2.8-2.08-1.79-2.57-3.72-2.57-2.88 1.36-3.72 2.57-1.46 2.08-2.79 2.08v1.13c1.92 0 2.87-1.36 3.72-2.57s1.46-2.08 2.79-2.08 2 1 2.8 2.08 1.8 2.57 3.72 2.57 2.88-1.36 3.72-2.57 1.46-2.08 2.79-2.08 2 1 2.8 2.08 1.79 2.57 3.72 2.57 2.87-1.36 3.72-2.57 1.46-2.08 2.79-2.08 2 1 2.79 2.08 1.8 2.57 3.72 2.57 2.88-1.36 3.72-2.57 1.46-2.08 2.8-2.08 2 1 2.79 2.08 1.8 2.57 3.72 2.57 2.88-1.36 3.72-2.57 1.46-2.08 2.79-2.08 2 1 2.8 2.08 1.79 2.57 3.72 2.57 2.87-1.36 3.72-2.57 1.46-2.08 2.79-2.08 2 1 2.79 2.08 1.8 2.57 3.72 2.57 2.88-1.36 3.72-2.57 1.46-2.08 2.79-2.08V468c-1.96 0-2.91 1.32-3.75 2.53Z"></path><rect width="82.16" height="73" x="462.68" y="403.48" fill="url(#l)" rx="10.92"></rect><path fill="#910500" d="M541.9 413.77c-.81-1.17-1.66-2.38-3.39-2.38s-2.57 1.21-3.39 2.38-1.5 2.14-2.93 2.14-2.16-1-2.93-2.14-1.66-2.38-3.39-2.38-2.57 1.21-3.39 2.38-1.5 2.14-2.93 2.14-2.16-1-2.93-2.14-1.66-2.38-3.39-2.38-2.57 1.21-3.39 2.38-1.5 2.14-2.93 2.14-2.16-1-2.93-2.14-1.66-2.38-3.39-2.38-2.57 1.21-3.39 2.38-1.5 2.14-2.93 2.14-2.16-1-2.93-2.14-1.66-2.38-3.39-2.38-2.57 1.21-3.39 2.38-1.49 2.14-2.93 2.14-2.16-1-2.93-2.14-1.66-2.38-3.39-2.38-2.57 1.21-3.39 2.38-1.49 2.14-2.92 2.14-2.16-1-2.93-2.14-1.67-2.38-3.39-2.38v.61c1.43 0 2.16 1 2.92 2.14s1.67 2.38 3.4 2.38 2.57-1.21 3.39-2.38 1.49-2.14 2.92-2.14 2.16 1 2.93 2.14 1.67 2.38 3.39 2.38 2.58-1.21 3.39-2.38 1.5-2.14 2.98-2.14 2.16 1 2.93 2.14 1.66 2.38 3.39 2.38 2.57-1.21 3.39-2.38 1.5-2.14 2.93-2.14 2.16 1 2.93 2.14 1.66 2.38 3.39 2.38 2.57-1.21 3.39-2.38 1.5-2.14 2.93-2.14 2.16 1 2.93 2.14 1.66 2.38 3.39 2.38 2.57-1.21 3.39-2.38 1.5-2.14 2.93-2.14 2.16 1 2.93 2.14 1.66 2.38 3.39 2.38 2.57-1.21 3.39-2.38 1.5-2.14 2.93-2.14 2.16 1 2.93 2.14 1.67 2.38 3.4 2.38v-.57c-1.49-.04-2.21-1.08-2.99-2.18ZM541.9 422.34c-.81-1.17-1.66-2.38-3.39-2.38s-2.57 1.21-3.39 2.38-1.5 2.14-2.93 2.14-2.16-1-2.93-2.14-1.66-2.34-3.39-2.34-2.57 1.21-3.39 2.38-1.5 2.14-2.93 2.14-2.16-1-2.93-2.14S515 420 513.23 420s-2.57 1.21-3.39 2.38-1.5 2.14-2.93 2.14-2.16-1-2.93-2.14-1.66-2.38-3.39-2.38-2.57 1.21-3.39 2.38-1.5 2.14-2.93 2.14-2.16-1-2.93-2.14S489.68 420 488 420s-2.57 1.21-3.39 2.38-1.49 2.14-2.93 2.14-2.16-1-2.93-2.14S477 420 475.31 420s-2.57 1.21-3.39 2.38-1.49 2.14-2.92 2.14-2.16-1-2.93-2.14-1.67-2.38-3.39-2.38v.57c1.43 0 2.16 1 2.92 2.14s1.67 2.29 3.4 2.29 2.57-1.2 3.39-2.37 1.49-2.14 2.92-2.14 2.16 1 2.93 2.14 1.67 2.37 3.39 2.37 2.58-1.2 3.39-2.37 1.5-2.14 2.93-2.14 2.16 1 2.93 2.14 1.66 2.37 3.39 2.37 2.57-1.2 3.39-2.37 1.5-2.14 2.93-2.14 2.16 1 2.93 2.14 1.66 2.37 3.39 2.37 2.57-1.2 3.39-2.37 1.5-2.14 2.93-2.14 2.16 1 2.93 2.14 1.66 2.37 3.39 2.37 2.57-1.2 3.39-2.37 1.5-2.14 2.93-2.14 2.16 1 2.93 2.14 1.66 2.37 3.39 2.37 2.57-1.2 3.39-2.37 1.5-2.14 2.93-2.14 2.16 1 2.93 2.14 1.67 2.37 3.4 2.37v-.56c-1.44.04-2.16-1-2.94-2.1ZM541.9 430.91c-.81-1.17-1.66-2.38-3.39-2.38s-2.57 1.21-3.39 2.38-1.5 2.14-2.93 2.14-2.16-1-2.93-2.14-1.66-2.38-3.39-2.38-2.57 1.21-3.39 2.38-1.5 2.14-2.93 2.14-2.16-1-2.93-2.14-1.66-2.38-3.39-2.38-2.57 1.21-3.39 2.38-1.5 2.14-2.93 2.14-2.16-1-2.93-2.14-1.66-2.38-3.39-2.38-2.57 1.21-3.39 2.38-1.5 2.14-2.93 2.14-2.16-1-2.93-2.14-1.66-2.38-3.39-2.38-2.57 1.21-3.39 2.38-1.49 2.14-2.93 2.14-2.16-1-2.93-2.14-1.66-2.38-3.39-2.38-2.57 1.21-3.39 2.38-1.49 2.14-2.92 2.14-2.16-1-2.93-2.14-1.67-2.38-3.39-2.38v.56c1.43 0 2.16 1 2.92 2.14s1.67 2.38 3.4 2.38 2.57-1.21 3.39-2.38 1.49-2.14 2.92-2.14 2.16 1 2.93 2.14 1.67 2.38 3.39 2.38 2.58-1.21 3.39-2.38 1.5-2.14 2.93-2.14 2.16 1 2.93 2.14 1.66 2.38 3.39 2.38 2.57-1.21 3.39-2.38 1.5-2.14 2.93-2.14 2.16 1 2.93 2.14 1.66 2.38 3.39 2.38 2.57-1.21 3.39-2.38 1.5-2.14 2.93-2.14 2.16 1 2.93 2.14 1.66 2.38 3.39 2.38 2.57-1.21 3.39-2.38 1.5-2.14 2.93-2.14 2.16 1 2.93 2.14 1.66 2.38 3.39 2.38 2.57-1.21 3.39-2.38 1.5-2.14 2.93-2.14 2.16 1 2.93 2.14 1.67 2.38 3.4 2.38v-.56c-1.44 0-2.16-1.05-2.94-2.14ZM541.9 439.47c-.81-1.17-1.66-2.38-3.39-2.38s-2.57 1.21-3.39 2.38-1.5 2.14-2.93 2.14-2.16-1-2.93-2.14-1.66-2.38-3.39-2.38-2.57 1.21-3.39 2.38-1.5 2.14-2.93 2.14-2.16-1-2.93-2.14-1.66-2.38-3.39-2.38-2.57 1.21-3.39 2.38-1.5 2.14-2.93 2.14-2.16-1-2.93-2.14-1.66-2.38-3.39-2.38-2.57 1.21-3.39 2.38-1.5 2.14-2.93 2.14-2.16-1-2.93-2.14-1.66-2.38-3.39-2.38-2.57 1.21-3.39 2.38-1.49 2.14-2.93 2.14-2.16-1-2.93-2.14-1.66-2.38-3.39-2.38-2.57 1.21-3.39 2.38-1.49 2.14-2.92 2.14-2.16-1-2.93-2.14-1.67-2.38-3.39-2.38v.57c1.43 0 2.16 1 2.92 2.14s1.67 2.38 3.4 2.38 2.57-1.21 3.39-2.38 1.49-2.14 2.92-2.14 2.16 1 2.93 2.14 1.67 2.38 3.39 2.38 2.58-1.21 3.39-2.38 1.5-2.14 2.93-2.14 2.16 1 2.93 2.14 1.66 2.38 3.39 2.38 2.57-1.21 3.39-2.38 1.5-2.14 2.93-2.14 2.16 1 2.93 2.14 1.66 2.38 3.39 2.38 2.57-1.21 3.39-2.38 1.5-2.14 2.93-2.14 2.16 1 2.93 2.14 1.66 2.38 3.39 2.38 2.57-1.21 3.39-2.38 1.5-2.14 2.93-2.14 2.16 1 2.93 2.14 1.66 2.38 3.39 2.38 2.57-1.21 3.39-2.38 1.5-2.14 2.93-2.14 2.16 1 2.93 2.14 1.67 2.38 3.4 2.38v-.57c-1.44 0-2.16-1.04-2.94-2.14ZM541.9 448c-.81-1.17-1.66-2.38-3.39-2.38s-2.57 1.21-3.39 2.38-1.5 2.14-2.93 2.14-2.16-1-2.93-2.14-1.66-2.38-3.39-2.38-2.57 1.21-3.39 2.38-1.5 2.14-2.93 2.14-2.16-1-2.93-2.14-1.66-2.38-3.39-2.38-2.57 1.21-3.39 2.38-1.5 2.14-2.93 2.14-2.16-1-2.93-2.14-1.66-2.38-3.39-2.38-2.59 1.25-3.39 2.38-1.5 2.14-2.93 2.14-2.16-1-2.93-2.14-1.66-2.38-3.39-2.38-2.57 1.21-3.39 2.38-1.49 2.14-2.93 2.14-2.16-1-2.93-2.14-1.66-2.38-3.39-2.38-2.57 1.21-3.39 2.38-1.49 2.14-2.92 2.14-2.16-1-2.93-2.14-1.67-2.38-3.39-2.38v.57c1.43 0 2.16 1 2.92 2.14s1.67 2.38 3.4 2.38 2.57-1.21 3.39-2.38 1.49-2.14 2.92-2.14 2.16 1 2.93 2.14 1.67 2.38 3.39 2.38 2.58-1.21 3.39-2.38 1.5-2.14 2.93-2.14 2.16 1 2.93 2.14 1.66 2.38 3.39 2.38 2.57-1.21 3.39-2.38 1.5-2.14 2.93-2.14 2.16 1 2.93 2.14 1.66 2.38 3.39 2.38 2.57-1.21 3.39-2.38 1.5-2.14 2.93-2.14 2.16 1 2.93 2.14 1.66 2.38 3.39 2.38 2.57-1.21 3.39-2.38 1.5-2.14 2.93-2.14 2.16 1 2.93 2.14 1.66 2.38 3.39 2.38 2.57-1.21 3.39-2.38 1.5-2.14 2.93-2.14 2.16 1 2.93 2.14 1.67 2.38 3.4 2.38v-.57c-1.44.04-2.16-1-2.94-2.14ZM541.9 456.61c-.81-1.17-1.66-2.38-3.39-2.38s-2.57 1.21-3.39 2.38-1.5 2.14-2.93 2.14-2.16-1-2.93-2.14-1.66-2.38-3.39-2.38-2.57 1.21-3.39 2.38-1.5 2.14-2.93 2.14-2.16-1-2.93-2.14-1.66-2.38-3.39-2.38-2.57 1.21-3.39 2.38-1.5 2.14-2.93 2.14-2.16-1-2.93-2.14-1.66-2.38-3.39-2.38-2.57 1.21-3.39 2.38-1.5 2.14-2.93 2.14-2.16-1-2.93-2.14-1.66-2.38-3.39-2.38-2.57 1.21-3.39 2.38-1.49 2.14-2.93 2.14-2.16-1-2.93-2.14-1.66-2.38-3.39-2.38-2.57 1.21-3.39 2.38-1.49 2.14-2.92 2.14-2.16-1-2.93-2.14-1.67-2.38-3.39-2.38v.56c1.43 0 2.16 1 2.92 2.14s1.67 2.38 3.4 2.38 2.57-1.21 3.39-2.38 1.49-2.14 2.92-2.14 2.16 1 2.93 2.14 1.67 2.38 3.39 2.38 2.58-1.21 3.39-2.38 1.5-2.14 2.93-2.14 2.16 1 2.93 2.14 1.66 2.38 3.39 2.38 2.57-1.21 3.39-2.38 1.5-2.14 2.93-2.14 2.16 1 2.93 2.14 1.66 2.38 3.39 2.38 2.57-1.21 3.39-2.38 1.5-2.14 2.93-2.14 2.16 1 2.93 2.14 1.66 2.38 3.39 2.38 2.57-1.21 3.39-2.38 1.5-2.14 2.93-2.14 2.16 1 2.93 2.14 1.66 2.38 3.39 2.38 2.57-1.21 3.39-2.38 1.5-2.14 2.93-2.14 2.16 1 2.93 2.14 1.67 2.38 3.4 2.38v-.56c-1.44 0-2.16-1.04-2.94-2.14ZM541.9 465.17c-.81-1.17-1.66-2.38-3.39-2.38s-2.57 1.21-3.39 2.38-1.5 2.14-2.93 2.14-2.16-1-2.93-2.13-1.66-2.39-3.39-2.39-2.57 1.21-3.39 2.39-1.5 2.13-2.93 2.13-2.16-1-2.93-2.14-1.66-2.38-3.39-2.38-2.57 1.21-3.39 2.39-1.5 2.13-2.93 2.13-2.16-1-2.93-2.13-1.66-2.39-3.39-2.39-2.59 1.21-3.39 2.39-1.5 2.13-2.93 2.13-2.16-1-2.93-2.14-1.66-2.38-3.39-2.38-2.57 1.21-3.39 2.39-1.49 2.13-2.93 2.13-2.16-1-2.93-2.14-1.66-2.38-3.39-2.38-2.57 1.21-3.39 2.39-1.49 2.13-2.92 2.13-2.16-1-2.93-2.13-1.67-2.39-3.39-2.39v.57c1.43 0 2.16 1 2.92 2.14s1.67 2.38 3.4 2.38 2.57-1.21 3.39-2.38 1.49-2.14 2.92-2.14 2.16 1 2.93 2.14 1.67 2.38 3.39 2.38 2.58-1.21 3.39-2.38 1.5-2.14 2.93-2.14 2.16 1 2.93 2.14 1.66 2.38 3.39 2.38 2.57-1.21 3.39-2.38 1.5-2.14 2.93-2.14 2.16 1 2.93 2.14 1.66 2.38 3.39 2.38 2.57-1.21 3.39-2.38 1.5-2.14 2.93-2.14 2.16 1 2.93 2.14 1.66 2.38 3.39 2.38 2.57-1.21 3.39-2.38 1.5-2.14 2.93-2.14 2.16 1 2.93 2.14 1.66 2.38 3.39 2.38 2.57-1.21 3.39-2.38 1.5-2.14 2.93-2.14 2.16 1 2.93 2.14 1.67 2.38 3.4 2.38v-.57c-1.44 0-2.16-1.03-2.94-2.14Z"></path><path fill="url(#m)" d="M643.62 267.16c-32.07 7.55 4.18 39.19-32.82 36.42s-33 9-21.67 30.8-13.44 13.35-29 24.5 25.12 55.87 25.12 55.87c62.65 4.54 61.44-19.28 56.78-37.55s16.38-6.2 26.16-17.2c8.28-9.32-2.14-16.63-6.7-29.73s16-12.57 26.1-23.54-11.89-47.12-43.97-39.57Z"></path><path fill="url(#n)" d="M641.42 267.84c-31.53 7.42 4.11 38.53-32.26 35.8s-32.47 8.88-21.31 30.28S574.64 347 559.3 358s24.7 54.92 24.7 54.92c61.59 4.46 60.39-18.95 55.82-36.91s16.14-6.07 25.76-16.88c8.14-9.16-2.1-16.34-6.58-29.23s16.27-13.82 26.22-24.61-12.22-44.88-43.8-37.45Z"></path><path fill="#53a29b" d="M614.51 348.42q-9.76 15-18.69 30.55c-5.91 10.44-11.61 21-15.77 32.75a.19.19 0 0 1 0 .07 4.11 4.11 0 0 0 7.8 2.6l.09-.26c.9-2.71 1.7-5.44 2.67-8.15l3.23-8.12 3.6-8c1.23-2.67 2.57-5.31 3.85-8Q609.17 366 618 350.55t18.11-30.67c6.21-10.13 12.52-20.2 19-30.17q-10.59 14.37-20.74 29.05t-19.86 29.66Z"></path><path fill="url(#o)" d="M588.1 218.25c-20.77 23.25 12.2 39.78-14.46 54.36s-21.09 25.28-8 43.08-6.29 20.59-14.63 39.87 30.88 47.61 30.88 47.61c45.12-24.85 38.63-49.65 31-66.91s10.09-14.36 14.36-30.71c3.62-13.85-5.44-16.7-11.74-28.5s8.26-21 12.78-37.44-19.43-44.61-40.19-21.36Z"></path><path fill="url(#p)" d="M586.71 220c-20.42 22.85 12 39.1-14.22 53.43s-20.73 24.85-7.82 42.35S558.49 336 550.29 355s30.35 46.81 30.35 46.81C625 377.37 618.63 353 611.16 336s9.92-14.12 14.12-30.19c3.56-13.62-5.35-16.42-11.54-28s8.17-22.44 12.61-38.65-19.22-41.99-39.64-19.16Z"></path><path fill="#53a29b" d="M586.29 318.71q-3.46 20.55-6.17 41.26c-1.77 13.82-3.36 27.66-3.59 41.9v.21a4.12 4.12 0 0 0 8.23-.28v-.07c-.46-13.51.42-27.37 1.5-41.13s2.48-27.56 4.1-41.32 3.33-27.53 5.21-41.27 3.84-27.48 6-41.19q-4.18 20.38-8 40.86t-7.28 41.03Z"></path><path fill="url(#b)" d="M552.8 476.72h87.38l15.84-92.03H536.95l15.85 92.03z"></path><path style="mix-blend-mode:multiply" fill="url(#q)" d="M629.13 476.72h11.05l15.84-92.03h-20.16l-6.73 92.03z"></path><path fill="url(#c)" d="M156.56 272.56v203.26h22.61l-.01-203.26h-22.6z"></path><path fill="url(#d)" d="m179.17 475.82 115.35.01V272.56H179.17v203.26z"></path><path fill="url(#r)" d="m186.29 467.95 101.11.02V279.79l-101.11-.1v188.26z"></path><g style="mix-blend-mode:screen"><path fill="#20b6f8" d="M271.71 282.72h13.5v3.1h-13.5zM264.78 282.71h4.86v3.1h-4.86zM259.42 282.71h3.3v3.1h-3.3zM277.85 289.8h7.35v3.1h-7.35zM266.78 289.8h9.01v3.1h-9.01zM261.41 289.79h3.3v3.1h-3.3zM256.3 289.79h3.3v3.1h-3.3z" opacity=".5"></path><path fill="#20b6f8" d="M279.88 296.88h5.32v3.1h-5.32zM276 299.98h1.82v-3.1H276v3.1z"></path><path fill="#20b6f8" d="M270.64 296.88h3.3v3.1h-3.3zM265.56 303.96h19.64v3.1h-19.64zM258.64 303.95h4.86v3.1h-4.86zM279.88 311.04h5.32v3.1h-5.32zM267.4 311.04h10.43v3.1H267.4zM262.03 311.03h3.3v3.1h-3.3zM274.32 318.12h10.89v3.1h-10.89z" opacity=".5"></path><path fill="#20b6f8" d="M264.38 318.12h7.87v3.1h-7.87z"></path><path fill="#20b6f8" d="M257 318.11h5.32v3.1H257zM281.53 325.21h3.68v3.1h-3.68zM274.61 325.2h4.86v3.1h-4.86zM264.71 325.2h7.83v3.1h-7.83zM273.94 332.28h11.27v3.1h-11.27zM261.32 332.28h10.56v3.1h-10.56z" opacity=".5"></path><path fill="#20b6f8" d="M255.96 332.27h3.3v3.1h-3.3z"></path><path fill="#20b6f8" d="M250.81 332.27h3.3v3.1h-3.3zM278.46 339.36h6.75v3.1h-6.75z" opacity=".5"></path><path fill="#20b6f8" d="M240.86 282.7h9.36v3.1h-9.36z"></path><path fill="#20b6f8" d="M240.86 289.78h7.36v3.1h-7.36zM240.86 296.86h5.32v3.1h-5.32zM240.86 303.94h7.74v3.1h-7.74zM240.86 311.02h5.32v3.1h-5.32zM240.86 318.1h6.75v3.1h-6.75zM240.86 325.18h3.68v3.1h-3.68zM240.86 332.26h7.13v3.1h-7.13zM240.86 339.34h6.75v3.1h-6.75zM273.52 339.36h2.87v3.1h-2.87zM265 339.36h6.46v3.1H265zM219.35 282.56h13.5v3.1h-13.5zM212.42 282.55h4.86v3.1h-4.86z" opacity=".5"></path><path fill="#20b6f8" d="M207.05 282.55h3.3v3.1h-3.3z"></path><path fill="#20b6f8" d="M225.49 289.64h7.36v3.1h-7.36zM214.41 289.64h9.02v3.1h-9.02z" opacity=".5"></path><path fill="#20b6f8" d="M209.04 289.63h3.31v3.1h-3.31z"></path><path fill="#20b6f8" d="M203.94 289.63h3.3v3.1h-3.3zM227.53 296.73h5.32v3.1h-5.32z" opacity=".5"></path><path fill="#20b6f8" d="M223 297.36h3.1v1.82H223z" opacity=".5" transform="rotate(-89.91 224.55 298.268)"></path><path fill="#20b6f8" d="M218.28 296.72h3.3v3.1h-3.3zM213.2 303.8h19.65v3.1H213.2zM206.27 303.79h4.86v3.1h-4.86zM227.53 310.89h5.32v3.1h-5.32zM215.03 310.88h10.43v3.1h-10.43zM209.67 310.88h3.3v3.1h-3.3z" opacity=".5"></path><path fill="#20b6f8" d="M221.96 317.97h10.89v3.1h-10.89z"></path><path fill="#20b6f8" d="M212.02 317.96h7.88v3.1h-7.88zM204.63 317.95h5.32v3.1h-5.32zM229.17 325.05h3.68v3.1h-3.68zM222.25 325.05h4.86v3.1h-4.86z" opacity=".5"></path><path fill="#20b6f8" d="M212.35 325.04h7.83v3.1h-7.83z"></path><path fill="#20b6f8" d="M221.58 332.13h11.27v3.1h-11.27zM208.96 332.12h10.56v3.1h-10.56zM203.59 332.12h3.31v3.1h-3.31zM198.44 332.11h3.3v3.1h-3.3zM226.1 339.21h6.75v3.1h-6.75z" opacity=".5"></path><path fill="#20b6f8" d="M188.49 282.53h9.37v3.1h-9.37z"></path><path fill="#20b6f8" d="M188.49 289.62h7.36v3.1h-7.36zM188.49 296.7h5.33v3.1h-5.33zM188.49 303.78h7.75v3.1h-7.75zM188.49 310.86h5.33v3.1h-5.33zM188.49 317.94h6.75v3.1h-6.75zM188.49 325.03h3.68v3.1h-3.68zM188.49 332.11h7.13v3.1h-7.13zM188.49 339.19h6.75v3.1h-6.75z" opacity=".5"></path><path fill="#20b6f8" d="M221.16 342.31h2.88v-3.1h-2.88v3.1z"></path><path fill="#20b6f8" d="M212.64 339.21h6.46v3.1h-6.46z" opacity=".5"></path><path fill="#20b6f8" d="M271.71 346.48h13.5v3.1h-13.5z"></path><path fill="#20b6f8" d="M264.78 346.48h4.86v3.1h-4.86zM259.42 346.47h3.3v3.1h-3.3zM277.85 353.56h7.35v3.1h-7.35zM266.78 353.56h9.01v3.1h-9.01zM261.41 353.56h3.3v3.1h-3.3zM256.3 353.55h3.3v3.1h-3.3zM279.88 360.64h5.32v3.1h-5.32zM276 360.64h1.82v3.1H276zM270.64 360.64h3.3v3.1h-3.3zM265.56 367.72h19.64v3.1h-19.64z" opacity=".5"></path><path fill="#20b6f8" d="M258.64 367.71h4.86v3.1h-4.86z"></path><path fill="#20b6f8" d="M279.88 374.8h5.32v3.1h-5.32zM267.4 374.8h10.43v3.1H267.4zM262.03 374.8h3.3v3.1h-3.3zM274.32 381.88h10.89v3.1h-10.89zM264.38 381.88h7.87v3.1h-7.87zM257 381.88h5.32v3.1H257zM281.53 388.96h3.68v3.1h-3.68zM274.61 388.96h4.86v3.1h-4.86zM264.71 388.96h7.83v3.1h-7.83zM273.94 396.04h11.27v3.1h-11.27z" opacity=".5"></path><path fill="#20b6f8" d="M261.32 396.04h10.56v3.1h-10.56z"></path><path fill="#20b6f8" d="M255.96 396.04h3.3v3.1h-3.3zM250.81 396.03h3.3v3.1h-3.3zM278.46 403.12h6.75v3.1h-6.75zM240.86 346.47h9.36v3.1h-9.36zM240.86 353.55h7.36v3.1h-7.36zM240.86 360.63h5.32v3.1h-5.32z" opacity=".5"></path><path fill="#20b6f8" d="M240.86 367.71h7.74v3.1h-7.74z"></path><path fill="#20b6f8" d="M240.86 374.79h5.32v3.1h-5.32zM240.86 381.87h6.75v3.1h-6.75zM240.86 388.95h3.68v3.1h-3.68zM240.86 396.03h7.13v3.1h-7.13zM240.86 403.11h6.75v3.1h-6.75zM273.52 403.12h2.87v3.1h-2.87z" opacity=".5"></path><path fill="#20b6f8" d="M265 403.12h6.46v3.1H265zM259.66 457.91h10.9v2.84h-10.9z"></path><path fill="#20b6f8" d="M252.19 457.9h4.29v2.84h-4.29zM219.35 346.33h13.5v3.1h-13.5zM212.42 346.33h4.86v3.1h-4.86zM207.05 346.32h3.3v3.1h-3.3zM225.49 353.42h7.36v3.1h-7.36zM214.41 353.41h9.02v3.1h-9.02zM209.04 353.41h3.31v3.1h-3.31zM203.94 353.41h3.3v3.1h-3.3zM227.53 360.5h5.32v3.1h-5.32zM223.65 360.5h1.82v3.1h-1.82zM218.28 360.49h3.3v3.1h-3.3zM213.2 367.58h19.65v3.1H213.2zM206.27 367.57h4.86v3.1h-4.86zM227.53 374.66h5.32v3.1h-5.32z" opacity=".5"></path><path fill="#20b6f8" d="M215.03 374.66h10.43v3.1h-10.43z"></path><path fill="#20b6f8" d="M209.67 374.65h3.3v3.1h-3.3zM221.96 381.74h10.89v3.1h-10.89zM212.02 381.74h7.88v3.1h-7.88zM204.63 381.73h5.32v3.1h-5.32zM229.17 388.82h3.68v3.1h-3.68zM222.25 388.82h4.86v3.1h-4.86zM212.35 388.82h7.83v3.1h-7.83zM221.58 395.9h11.27v3.1h-11.27zM208.96 395.9h10.56v3.1h-10.56zM203.59 395.9h3.31v3.1h-3.31zM198.44 395.9h3.3v3.1h-3.3zM226.1 402.99h6.75v3.1h-6.75zM188.49 346.32h9.37v3.1h-9.37z" opacity=".5"></path><path fill="#20b6f8" d="M188.49 353.4h7.36v3.1h-7.36zM188.49 360.48h5.33v3.1h-5.33z"></path><path fill="#20b6f8" d="M188.49 367.56h7.75v3.1h-7.75zM188.49 374.65h5.33v3.1h-5.33zM188.49 381.73h6.75v3.1h-6.75zM188.49 388.81h3.68v3.1h-3.68zM188.49 395.89h7.13v3.1h-7.13zM188.49 402.98h6.75v3.1h-6.75zM221.17 402.98h2.87v3.1h-2.87zM212.64 402.98h6.46v3.1h-6.46z" opacity=".5"></path><path fill="#20b6f8" d="m265.56 448.53 19.65.05v-3.1l-19.65-.05v3.1z"></path><path fill="#20b6f8" d="m258.64 448.51 4.86.02v-3.1l-4.86-.01v3.09zM279.88 441.49l5.33.01v-3.1l-5.33-.01v3.1zM267.4 441.46l10.42.02v-3.1l-10.42-.02v3.1z" opacity=".5"></path><path fill="#20b6f8" d="m262.03 441.44 3.3.01v-3.1l-3.3-.01v3.1z"></path><path fill="#20b6f8" d="m274.32 434.39 10.89.03v-3.1l-10.89-.02v3.09zM264.38 434.37l7.87.02v-3.1l-7.87-.02v3.1zM257 434.35l5.32.01v-3.1l-5.32-.01v3.1zM281.53 427.33l3.68.01v-3.1l-3.68-.01v3.1zM274.61 427.31l4.86.02v-3.1l-4.86-.02v3.1zM264.71 427.29l7.83.02v-3.1l-7.83-.02v3.1zM273.94 420.23l11.27.03v-3.1l-11.27-.03v3.1z" opacity=".5"></path><path fill="#20b6f8" d="m261.32 420.2 10.56.03v-3.1l-10.56-.03v3.1z"></path><path fill="#20b6f8" d="M255.96 420.19h3.3v-3.09l-3.3-.01v3.1zM250.81 420.17l3.3.01v-3.1l-3.3-.01v3.1zM278.46 413.16l6.75.02v-3.1l-6.75-.02v3.1zM240.86 410.05h7.74v3.1h-7.74zM240.86 417.13h5.32v3.1h-5.32zM240.86 424.21h6.75v3.1h-6.75zM240.86 431.29h3.68v3.1h-3.68zM240.86 438.37h7.13v3.1h-7.13zM240.86 445.45h6.75v3.1h-6.75zM273.52 413.15l2.87.01v-3.1l-2.87-.01v3.1zM265 413.13l6.46.02v-3.1l-6.46-.02v3.1z" opacity=".5"></path><path fill="#20b6f8" d="M213.2 409.92h19.65v3.1H213.2z"></path><path fill="#20b6f8" d="M206.27 409.92h4.86v3.1h-4.86zM227.53 417h5.32v3.1h-5.32zM215.03 417h10.43v3.1h-10.43zM209.67 417h3.3v3.1h-3.3zM221.96 424.08h10.89v3.1h-10.89zM212.02 424.08h7.88v3.1h-7.88zM204.63 424.08h5.32v3.1h-5.32zM229.17 431.17h3.68v3.1h-3.68zM222.25 431.17h4.86v3.1h-4.86zM212.35 431.16h7.83v3.1h-7.83zM221.58 438.25h11.27v3.1h-11.27z" opacity=".5"></path><path fill="#20b6f8" d="M208.96 438.25h10.56v3.1h-10.56z"></path><path fill="#20b6f8" d="M203.59 438.24h3.31v3.1h-3.31zM198.44 438.24h3.3v3.1h-3.3zM226.1 445.33h6.75v3.1h-6.75zM188.49 409.91h7.75v3.1h-7.75z" opacity=".5"></path><path fill="#20b6f8" d="M188.49 416.99h5.33v3.1h-5.33z"></path><path fill="#20b6f8" d="M188.49 424.08h6.75v3.1h-6.75zM188.49 431.16h3.68v3.1h-3.68zM188.49 438.24h7.13v3.1h-7.13z" opacity=".5"></path><path fill="#20b6f8" d="M188.49 445.33h6.75v3.1h-6.75z"></path><path fill="#20b6f8" d="M221.17 445.33h2.87v3.1h-2.87z" opacity=".5"></path><path fill="#20b6f8" d="M212.64 445.33h6.46v3.1h-6.46z"></path><path fill="#20b6f8" d="M207.29 457.79h10.91v2.84h-10.91zM199.82 457.78h4.3v2.84h-4.3z" opacity=".5"></path><path fill="#20b6f8" d="M199.82 462.13h10.91v2.84h-10.91z"></path><path fill="#20b6f8" d="M213.9 462.13h4.3v2.84h-4.3zM252.19 462.25h10.9v2.84h-10.9zM266.26 462.25h4.29v2.84h-4.29z" opacity=".5"></path></g><path style="mix-blend-mode:screen" fill="url(#g)" d="m179.17 308.24 112.5 134.31V272.56h-112.5v35.68z" opacity=".51"></path><path fill="url(#s)" d="M287.76 466.58a1.79 1.79 0 0 0-.8-.2 1.72 1.72 0 0 0-1.75 1.69 1.66 1.66 0 0 0 .2.77 1.76 1.76 0 0 0 1.55.92 1.71 1.71 0 0 0 1.74-1.69 1.67 1.67 0 0 0-.94-1.49Z"></path><path fill="url(#e)" d="M287 465.14a3 3 0 0 0-3 2.93 2.89 2.89 0 0 0 .83 2 3.09 3.09 0 0 0 2.17.93 3 3 0 0 0 3-2.94 2.9 2.9 0 0 0-.89-2.08 3.12 3.12 0 0 0-2.11-.84Zm0 4.62a1.76 1.76 0 0 1-1.55-.92 1.66 1.66 0 0 1-.2-.77 1.72 1.72 0 0 1 1.75-1.69 1.79 1.79 0 0 1 .8.2 1.67 1.67 0 0 1 .94 1.49 1.71 1.71 0 0 1-1.74 1.69Z"></path><path fill="url(#f)" d="M287 465.14a3 3 0 0 0-3 2.93 2.89 2.89 0 0 0 .83 2l-.61-1.25a2.81 2.81 0 0 0 .65.07 3.18 3.18 0 0 0 .62-.06 1.66 1.66 0 0 1-.2-.77 1.72 1.72 0 0 1 1.75-1.69 1.79 1.79 0 0 1 .8.2 3.08 3.08 0 0 0 .07-.61 2.78 2.78 0 0 0-.06-.58l1.33.6a3.12 3.12 0 0 0-2.18-.84Z"></path><path fill="url(#t)" d="M187.09 466.46a1.79 1.79 0 0 0-.8-.2 1.73 1.73 0 0 0-1.75 1.69 1.66 1.66 0 0 0 .2.77 1.74 1.74 0 0 0 1.55.92A1.71 1.71 0 0 0 188 468a1.68 1.68 0 0 0-.91-1.54Z"></path><path fill="url(#u)" d="M186.29 465a3 3 0 0 0-3 2.93 2.84 2.84 0 0 0 .84 2 3 3 0 0 0 2.2.93 3 3 0 0 0 3-2.94 2.87 2.87 0 0 0-.9-2.08 3.1 3.1 0 0 0-2.14-.84Zm0 4.62a1.74 1.74 0 0 1-1.55-.92 1.66 1.66 0 0 1-.2-.77 1.73 1.73 0 0 1 1.75-1.69 1.79 1.79 0 0 1 .8.2A1.68 1.68 0 0 1 188 468a1.71 1.71 0 0 1-1.71 1.64Z"></path><path fill="url(#v)" d="M186.29 465a3 3 0 0 0-3 2.93 2.84 2.84 0 0 0 .84 2l-.61-1.25a2.76 2.76 0 0 0 .65.07 3.08 3.08 0 0 0 .61-.06 1.66 1.66 0 0 1-.2-.77 1.73 1.73 0 0 1 1.75-1.69 1.79 1.79 0 0 1 .8.2 2.48 2.48 0 0 0 .07-.61 2.78 2.78 0 0 0-.06-.58l1.33.6a3.1 3.1 0 0 0-2.18-.84Z"></path><path fill="url(#w)" d="M287.76 278.3a1.67 1.67 0 0 0-.8-.2 1.71 1.71 0 0 0-1.75 1.68 1.66 1.66 0 0 0 .2.77 1.74 1.74 0 0 0 1.55.92 1.71 1.71 0 0 0 1.74-1.68 1.67 1.67 0 0 0-.94-1.49Z"></path><path fill="url(#x)" d="M287 276.85a3 3 0 0 0-3 2.93 2.87 2.87 0 0 0 .83 2 3.09 3.09 0 0 0 2.21.93 3 3 0 0 0 3-2.93 2.89 2.89 0 0 0-.89-2.08 3.08 3.08 0 0 0-2.15-.85Zm0 4.62a1.74 1.74 0 0 1-1.55-.92 1.66 1.66 0 0 1-.2-.77 1.71 1.71 0 0 1 1.75-1.68 1.75 1.75 0 0 1 1.74 1.69 1.71 1.71 0 0 1-1.74 1.68Z"></path><path fill="url(#y)" d="M287 276.85a3 3 0 0 0-3 2.93 2.87 2.87 0 0 0 .83 2l-.61-1.25a2.81 2.81 0 0 0 .65.07 3.18 3.18 0 0 0 .62-.06 1.66 1.66 0 0 1-.2-.77 1.71 1.71 0 0 1 1.71-1.67 1.67 1.67 0 0 1 .8.2 3.18 3.18 0 0 0 .07-.62 2.78 2.78 0 0 0-.06-.58l1.33.61a3.08 3.08 0 0 0-2.14-.86Z"></path><path fill="url(#z)" d="M187.09 278.1a1.67 1.67 0 0 0-.8-.2 1.72 1.72 0 0 0-1.75 1.69 1.65 1.65 0 0 0 .2.76 1.75 1.75 0 0 0 1.55.93 1.72 1.72 0 0 0 1.75-1.69 1.68 1.68 0 0 0-.95-1.49Z"></path><path fill="url(#A)" d="M186.29 276.65a3 3 0 0 0-3 2.94 2.83 2.83 0 0 0 .84 2 3 3 0 0 0 2.2.93 3 3 0 0 0 3-2.93 2.86 2.86 0 0 0-.9-2.08 3.07 3.07 0 0 0-2.14-.86Zm0 4.63a1.75 1.75 0 0 1-1.55-.93 1.65 1.65 0 0 1-.2-.76 1.72 1.72 0 0 1 1.75-1.69 1.77 1.77 0 0 1 1.75 1.69 1.72 1.72 0 0 1-1.75 1.69Z"></path><path fill="url(#B)" d="M186.29 276.65a3 3 0 0 0-3 2.94 2.83 2.83 0 0 0 .84 2l-.61-1.25a2.75 2.75 0 0 0 .65.08 3.08 3.08 0 0 0 .61-.07 1.65 1.65 0 0 1-.2-.76 1.72 1.72 0 0 1 1.75-1.69 1.67 1.67 0 0 1 .8.2 2.56 2.56 0 0 0 .07-.62 2.86 2.86 0 0 0-.06-.58l1.33.61a3.07 3.07 0 0 0-2.18-.86Z"></path><path style="mix-blend-mode:screen" fill="url(#C)" d="m179.17 475.82 3.09-203.26h-6.27l3.18 203.26z" opacity=".51"></path><path fill="url(#D)" d="M208.18 432.36a6.52 6.52 0 0 0-6.46-5.68h-66.86a6.52 6.52 0 0 0-6.46 7.32l4.91 37.78a6.51 6.51 0 0 0 6.46 5.67h66.86a6.51 6.51 0 0 0 6.46-7.35Z"></path><path fill="#add4dc" d="M151.82 420.77h-17.58a4.9 4.9 0 0 1 4.9 4.9v17.6a6.38 6.38 0 0 0 6.38 6.38h11.2v-24a4.9 4.9 0 0 0-4.9-4.88Z"></path><path fill="url(#E)" d="M150.46 401.68v43.07a4.9 4.9 0 0 1-4.9 4.9h52.11a4.9 4.9 0 0 0 4.9-4.9v-43.07a6.89 6.89 0 0 1 6.88-6.89h-52.1a6.89 6.89 0 0 0-6.89 6.89Z"></path><path fill="#add4dc" d="M154.43 403.29h7.58v.56h-7.58zM183.48 403.29h14.92v.56h-14.92zM178.97 403.29h2.19v.56h-2.19zM162.97 403.29h12.97v.56h-12.97zM190.82 405.81h7.58v.56h-7.58zM154.43 405.81h14.92v.56h-14.92zM171.67 405.81h2.19v.56h-2.19zM176.89 405.81h12.97v.56h-12.97zM154.43 408.43h7.58v.56h-7.58zM183.48 408.43h14.92v.56h-14.92zM178.97 408.43h2.19v.56h-2.19zM162.97 408.43h12.97v.56h-12.97zM190.82 410.94h7.58v.56h-7.58zM154.43 410.94h14.92v.56h-14.92zM171.67 410.94h2.19v.56h-2.19zM176.89 410.94h12.97v.56h-12.97zM154.43 413.56h7.58v.56h-7.58zM183.48 413.56h14.92v.56h-14.92zM178.97 413.56h2.19v.56h-2.19zM162.97 413.56h12.97v.56h-12.97zM190.82 416.08h7.58v.56h-7.58zM154.43 416.08h14.92v.56h-14.92zM171.67 416.08h2.19v.56h-2.19zM176.89 416.08h12.97v.56h-12.97zM154.43 418.7h7.58v.56h-7.58zM183.48 418.7h14.92v.56h-14.92zM178.97 418.7h2.19v.56h-2.19zM162.97 418.7h12.97v.56h-12.97zM190.82 421.22h7.58v.56h-7.58zM154.43 421.22h14.92v.56h-14.92zM171.67 421.22h2.19v.56h-2.19zM176.89 421.22h12.97v.56h-12.97zM154.43 423.84h7.58v.56h-7.58zM183.48 423.84h14.92v.56h-14.92zM178.97 423.84h2.19v.56h-2.19zM162.97 423.84h12.97v.56h-12.97zM190.82 426.36h7.58v.57h-7.58zM154.43 426.36h14.92v.57h-14.92zM171.67 426.36h2.19v.57h-2.19zM176.89 426.36h12.97v.57h-12.97zM154.43 428.98h7.58v.56h-7.58zM183.48 428.98h14.92v.56h-14.92zM178.97 428.98h2.19v.56h-2.19zM162.97 428.98h12.97v.56h-12.97zM190.82 431.5h7.58v.56h-7.58zM154.43 431.5h14.92v.56h-14.92zM171.67 431.5h2.19v.56h-2.19zM176.89 431.5h12.97v.56h-12.97z"></path><path fill="url(#F)" d="M210.44 434.3h-66.87a6.51 6.51 0 0 0-6.45 5.67l-3.84 30.16a6.51 6.51 0 0 0 6.46 7.35h66.86a6.52 6.52 0 0 0 6.46-5.67l3.84-30.16a6.52 6.52 0 0 0-6.46-7.35Z"></path><path fill="#fff" d="M207.79 394.79h-50.44s4.54.14 4.54 3.85h50.73a4.61 4.61 0 0 0-4.83-3.85Z"></path><path d="M391.26 470.13c-145.2 0-262.91 4-262.91 9s117.71 9 262.91 9 262.91-4 262.91-9-117.71-9-262.91-9Z" style="mix-blend-mode:multiply" fill="url(#G)"></path><path fill="url(#H)" d="M414.47 160a3.1 3.1 0 0 0-4.39 0l-25.8 25.8a3.1 3.1 0 0 0 2.19 5.3h51.61a3.1 3.1 0 0 0 2.19-5.3ZM394 184.87l18.3-18.3 18.31 18.3Z"></path><path fill="#eb5f47" d="m100 265.79-35-2.59a3.12 3.12 0 0 0-2.43.9 3.16 3.16 0 0 0-.9 2.43l2.6 35a3.12 3.12 0 0 0 2 2.68 3.11 3.11 0 0 0 3.27-.72l32.4-32.39a3.11 3.11 0 0 0-2-5.3ZM70 294.3l-1.83-24.64 24.64 1.83Z"></path><path fill="url(#I)" fill-rule="evenodd" d="M328.54 135 312 153.32v-18.2a.93.93 0 0 0-.93-.92.92.92 0 0 0-.91.92v18.2L293.67 135a.92.92 0 0 0-1.37 1.23l18.8 20.37 18.81-20.37a.92.92 0 1 0-1.37-1.23Z"></path><path fill="url(#J)" fill-rule="evenodd" d="M311.1 111.81a26.33 26.33 0 0 0-26.32 26.1h52.65a26.32 26.32 0 0 0-26.33-26.1Z"></path><path fill="url(#K)" d="M311.1 111.81c-6.43 0-11.66 11.66-11.72 26.1h23.45c-.06-14.44-5.28-26.1-11.73-26.1Z"></path><path d="M332.22 163.66a4.65 4.65 0 0 0-2.46.7 7.13 7.13 0 0 0-6.94-5.5 7 7 0 0 0-3.16.75 11.18 11.18 0 0 0-21.56-1.15 8.09 8.09 0 0 0-12.82 6.54c0 4.28 3.37 8.06 7.54 8.06h39.9c2.32 0 4.22-2.26 4.22-4.7a4.72 4.72 0 0 0-4.72-4.7Z" style="mix-blend-mode:multiply" fill="url(#L)"></path><path fill="#ffd032" d="M483 130.13a12.29 12.29 0 1 0 12.28 12.28A12.3 12.3 0 0 0 483 130.13Zm0 18.36a6.08 6.08 0 1 1 6.07-6.08 6.09 6.09 0 0 1-6.07 6.08Z"></path><path fill="#8e59de" d="M676.25 452.87c-1.17-1.67-2.49-3.55-5.1-3.55s-3.93 1.88-5.09 3.55-2.15 3.07-4.17 3.07-3-1.43-4.17-3.07-2.48-3.55-5.09-3.55-3.93 1.88-5.09 3.55-2.15 3.07-4.17 3.07-3-1.43-4.16-3.07-2.49-3.55-5.09-3.55-3.93 1.88-5.1 3.55-2.14 3.07-4.16 3.07-3-1.43-4.17-3.07-2.48-3.55-5.09-3.55-3.93 1.88-5.09 3.55-2.15 3.07-4.17 3.07-3-1.43-4.16-3.07-2.49-3.55-5.1-3.55-3.92 1.88-5.09 3.55-2.14 3.07-4.16 3.07-3-1.43-4.17-3.07-2.48-3.55-5.09-3.55-3.93 1.88-5.09 3.55-2.15 3.07-4.17 3.07-3-1.43-4.16-3.07-2.48-3.55-5.09-3.55v1.12c2 0 3 1.43 4.16 3.07s2.49 3.56 5.09 3.56 3.93-1.89 5.09-3.56 2.15-3.07 4.17-3.07 3 1.43 4.16 3.07 2.49 3.56 5.1 3.56 3.92-1.89 5.09-3.56 2.14-3.07 4.16-3.07 3 1.43 4.17 3.07 2.48 3.56 5.09 3.56 3.93-1.89 5.09-3.56 2.15-3.07 4.17-3.07 3 1.43 4.16 3.07 2.49 3.56 5.1 3.56 3.92-1.89 5.09-3.56 2.14-3.07 4.17-3.07 3 1.43 4.16 3.07 2.48 3.56 5.09 3.56 3.93-1.89 5.09-3.56 2.15-3.07 4.17-3.07 3 1.43 4.17 3.07 2.48 3.56 5.09 3.56 3.93-1.89 5.09-3.56 2.15-3.07 4.17-3.07 3 1.43 4.17 3.07 2.48 3.56 5.09 3.56v-1.13c-2.02 0-3.01-1.43-4.16-3.07ZM647.43 461c-1.16 1.65-2.15 3.07-4.17 3.07s-3-1.42-4.17-3.07-2.48-3.55-5.09-3.55-3.93 1.89-5.09 3.55-2.15 3.07-4.17 3.07-3-1.42-4.16-3.07-2.49-3.55-5.1-3.55-3.92 1.89-5.09 3.55-2.14 3.07-4.16 3.07-3-1.42-4.17-3.07-2.48-3.55-5.09-3.55-3.97 1.85-5.09 3.55-2.15 3.07-4.17 3.07v1.13c2.61 0 3.93-1.89 5.09-3.55s2.15-3.07 4.17-3.07 3 1.42 4.16 3.07 2.49 3.55 5.1 3.55 3.92-1.89 5.09-3.55 2.14-3.07 4.16-3.07 3 1.42 4.17 3.07 2.48 3.55 5.09 3.55 3.93-1.89 5.09-3.55 2.15-3.07 4.17-3.07 3 1.42 4.17 3.07 2.48 3.55 5.09 3.55 3.93-1.89 5.09-3.55 2.15-3.07 4.17-3.07v-1.13c-2.61-.04-3.93 1.85-5.09 3.55Z"></path><ellipse cx="698.09" cy="264.89" rx="7.52" ry="7.13" style="mix-blend-mode:multiply" fill="url(#M)"></ellipse><path d="M702.49 227c-4.08 5.75-7.79 10.26-13.86 13.14 6.07 2.87 9.78 7.39 13.86 13.14 4.08-5.75 7.8-10.27 13.86-13.14-6.06-2.88-9.78-7.39-13.86-13.14Z" style="mix-blend-mode:multiply" fill="url(#N)"></path><path d="M140.72 296.82c-2.22 3.12-4.23 5.57-7.52 7.13 3.29 1.56 5.3 4 7.52 7.13 2.21-3.12 4.23-5.57 7.52-7.13-3.24-1.56-5.31-4.01-7.52-7.13Z" style="mix-blend-mode:multiply" fill="url(#O)"></path><path d="M76 340.43c-4.08 5.74-7.79 10.26-13.86 13.13C68.19 356.44 71.9 361 76 366.7c4.08-5.75 7.8-10.26 13.86-13.14-6.08-2.87-9.8-7.39-13.86-13.13Z" style="mix-blend-mode:multiply" fill="url(#P)"></path><path fill="url(#Q)" d="M715.85 373.36a25.22 25.22 0 0 1-19.39-9.06l-.67.56a26.18 26.18 0 0 0 43.61-5.36l-.79-.39a25.13 25.13 0 0 1-22.76 14.25Z"></path><path fill="url(#R)" d="m693.32 368.02 7.24-4.89-7.86-3.82.62 8.71z"></path><path fill="url(#S)" d="M715.85 321.9a26 26 0 0 0-23.43 14.51l.79.39a25.29 25.29 0 0 1 41.87-5.15l.67-.57a26.15 26.15 0 0 0-19.9-9.18Z"></path><path fill="url(#T)" d="m731 332.86 7.89 3.74-.7-8.71-7.19 4.97z"></path><path fill="url(#U)" d="m703 329.69-.37.25a.33.33 0 0 0 .19.6.35.35 0 0 0 .19-.06l.35-.24a.32.32 0 0 0 .1-.45.33.33 0 0 0-.46-.1Z"></path><path fill="url(#V)" d="m712.44 326.08-.83.14a.33.33 0 0 0-.27.38.33.33 0 0 0 .33.27h.05c.27-.06.55-.1.82-.14a.33.33 0 1 0-.1-.65Z"></path><path fill="url(#W)" d="m706 328-.76.38a.33.33 0 0 0 .15.62.28.28 0 0 0 .15 0c.24-.12.49-.25.74-.36a.35.35 0 0 0 .16-.44.34.34 0 0 0-.44-.2Z"></path><path fill="url(#X)" d="m709.13 326.82-.81.26a.33.33 0 0 0 .11.64h.1l.79-.25a.34.34 0 0 0 .22-.41.32.32 0 0 0-.41-.24Z"></path><path fill="url(#Y)" d="M715.83 325.83h-.85a.33.33 0 1 0 0 .65h.84a.33.33 0 1 0 0-.66Z"></path><path fill="url(#Z)" d="m719.21 326.07-.84-.11a.33.33 0 0 0-.07.65l.82.11a.33.33 0 0 0 0-.65Z"></path><path fill="url(#aa)" d="m725.71 328-.78-.34a.33.33 0 1 0-.26.6l.76.34a.32.32 0 0 0 .14 0 .33.33 0 0 0 .14-.63Z"></path><path fill="url(#ab)" d="m722.53 326.79-.82-.23a.35.35 0 0 0-.4.24.33.33 0 0 0 .24.4l.79.22h.1a.32.32 0 0 0 .31-.23.33.33 0 0 0-.22-.4Z"></path><path fill="url(#ac)" d="m728.34 329.43-.38-.24a.33.33 0 0 0-.45.12.34.34 0 0 0 .11.45l.37.22a.26.26 0 0 0 .17 0 .33.33 0 0 0 .18-.6Z"></path><circle cx="693.67" cy="334.66" r="2.49" fill="url(#ad)"></circle><path fill="url(#ae)" d="M738.17 358.64a2.49 2.49 0 1 0 2.49 2.49 2.49 2.49 0 0 0-2.49-2.49Z"></path><path fill="url(#af)" d="m728 365.44-.36.24a.34.34 0 0 0-.09.46.31.31 0 0 0 .27.15.3.3 0 0 0 .18-.06l.37-.25a.31.31 0 0 0 .08-.45.32.32 0 0 0-.45-.09Z"></path><path fill="url(#ag)" d="m712.68 369.31-.82-.1a.33.33 0 0 0-.09.65l.84.11a.33.33 0 0 0 .32-.3.33.33 0 0 0-.25-.36Z"></path><path fill="url(#ah)" d="m709.43 368.73-.79-.22a.32.32 0 0 0-.41.22.32.32 0 0 0 .22.4c.27.09.55.16.82.23h.08a.33.33 0 0 0 .32-.24.32.32 0 0 0-.24-.39Z"></path><path fill="url(#ai)" d="M706.31 367.67c-.26-.1-.51-.21-.76-.33a.32.32 0 1 0-.27.59l.77.35a.3.3 0 0 0 .13 0 .31.31 0 0 0 .3-.2.33.33 0 0 0-.17-.41Z"></path><path fill="url(#aj)" d="M716 369.42h-.83a.33.33 0 0 0 0 .66h.84a.33.33 0 0 0 .32-.34.33.33 0 0 0-.33-.32Z"></path><path fill="url(#ak)" d="m725.48 366.94-.74.36a.33.33 0 0 0 .14.63.32.32 0 0 0 .14 0l.76-.38a.32.32 0 0 0 .15-.44.33.33 0 0 0-.45-.17Z"></path><path fill="url(#al)" d="m722.45 368.23-.79.25a.33.33 0 0 0-.22.41.34.34 0 0 0 .32.23h.09l.81-.26a.34.34 0 0 0 .21-.42.33.33 0 0 0-.42-.21Z"></path><path fill="url(#am)" d="m719.26 369.06-.82.14a.31.31 0 0 0-.27.37.32.32 0 0 0 .32.28l.84-.14a.34.34 0 0 0 .26-.38.33.33 0 0 0-.33-.27Z"></path><path fill="url(#an)" d="m703.36 366.17-.37-.23a.33.33 0 0 0-.35.56l.38.23a.28.28 0 0 0 .17 0 .33.33 0 0 0 .28-.16.32.32 0 0 0-.11-.4Z"></path><path fill="#add4dc" d="M351.65 416.19c-.31 0 3.4 27.53 4 31.27 1 6.51 6.62 28-34.87 26.75-.77 0-.69 1.62.07 1.62H424.7l-67.16-59.67Z"></path><path fill="url(#ao)" d="M503 474.31c-.45-.31-31.69-4-45.2-8.41-11.31-3.72-14.74-12.24-16-17.81s-3.19-31.61-3.19-31.61l-82.85-.29c.15 1.39 4.21 34.7 4.49 36.27 2 11.09 10.42 18.1 20.88 19.6.17 0 43.57 3.8 43.57 3.8l78.32.38c.57-.03 1.34-.99-.02-1.93Z"></path><path fill="#add4dc" d="M558.91 217.39c-.61-5.86-7.77-10.74-13.18-10.74H219.35c-5.41 0-9.3 4.75-8.68 10.62l21.76 205.44c.62 5.86 4.7 12.09 10.91 12.09h328.39c6 0 9.3-6.23 8.68-12.09Z"></path><path fill="#030003" d="M558.82 217.1c-.6-5.77-5.44-10.45-10.8-10.45H222.39c-5.36 0-9.22 4.68-8.62 10.45l21.36 204c.61 5.77 5.44 10.44 10.8 10.44h325.64c5.36 0 9.21-4.67 8.61-10.44Z"></path><path fill="url(#ap)" d="M221.35 215.07 243.3 424.6h329.73l-21.94-209.53H221.35z"></path><path fill="url(#aq)" d="M575.06 356.66a33.15 33.15 0 0 0-17.37 4.92A50.28 50.28 0 0 0 486.37 328a78.94 78.94 0 0 0-152.27-8.08 57.13 57.13 0 0 0-90.61 46.29c0 30.25 23.86 57 53.28 57h281.87c16.35 0 29.77-15.94 29.77-33.15a33.35 33.35 0 0 0-33.35-33.4Z"></path><path style="mix-blend-mode:multiply" fill="url(#ar)" d="M407.69 353.31v41.59h20.81v28.15h37.88V394.9h20.81l-39.75-41.59h-39.75z"></path><path fill="url(#as)" d="m563.95 313.24-12.91 9.04h-42.86v.97h43.17l.13-.08 12.91-9.04h11.19v-.98h-11.5l-.13.09z"></path><path fill="url(#at)" d="M577.67 311.07a2.57 2.57 0 1 0 2.56 2.57 2.58 2.58 0 0 0-2.56-2.57Zm0 4.17a1.6 1.6 0 1 1 1.59-1.6 1.6 1.6 0 0 1-1.59 1.6Z"></path><path fill="url(#au)" d="M635.03 379.17h-28.17v.98h28.53l21.65-18.9h15.08v-.98h-15.45l-21.64 18.9z"></path><path fill="url(#av)" d="M674.2 358.19a2.57 2.57 0 1 0 2.57 2.57 2.58 2.58 0 0 0-2.57-2.57Zm0 4.16a1.59 1.59 0 1 1 1.59-1.59 1.59 1.59 0 0 1-1.59 1.59Z"></path><path fill="url(#aw)" d="M636.8 389.98h-28.49v.98h28.2l8.94 5.91h34.97v-.97h-34.67l-8.95-5.92z"></path><path fill="url(#ax)" d="M682.5 393.81a2.58 2.58 0 1 0 2.57 2.57 2.58 2.58 0 0 0-2.57-2.57Zm0 4.17a1.6 1.6 0 1 1 1.59-1.6 1.6 1.6 0 0 1-1.59 1.62Z"></path><path fill="url(#ay)" d="M624.88 415.65a2.28 2.28 0 1 0 2.27 2.28 2.28 2.28 0 0 0-2.27-2.28Zm0 3.58a1.3 1.3 0 1 1 1.29-1.3 1.3 1.3 0 0 1-1.29 1.3Z"></path><path fill="url(#az)" d="M594.4 417.44h28.68v.98H594.4z"></path><path fill="url(#aA)" d="M663.87 367a2.46 2.46 0 1 0 2.46 2.45 2.46 2.46 0 0 0-2.46-2.45Zm0 3.93a1.48 1.48 0 1 1 1.48-1.48 1.48 1.48 0 0 1-1.48 1.43Z"></path><path fill="url(#aB)" d="M623.13 356.18h-48.37v.97h47.91l10.6 12.74h28.53v-.97h-28.07l-10.6-12.74z"></path><path fill="url(#aC)" d="M560.06 327.31a2.47 2.47 0 1 0 2.46 2.46 2.47 2.47 0 0 0-2.46-2.46Zm0 3.95a1.49 1.49 0 1 1 0-3 1.49 1.49 0 0 1 0 3Z"></path><path fill="url(#aD)" d="M534.15 329.28h23.93v.98h-23.93z"></path><path fill="url(#aE)" d="M615.49 358.19a2.46 2.46 0 1 0 2.46 2.46 2.47 2.47 0 0 0-2.46-2.46Zm0 3.95a1.49 1.49 0 1 1 1.48-1.49 1.49 1.49 0 0 1-1.48 1.49Z"></path><path fill="url(#aF)" d="M590.9 360.16h22.61v.98H590.9z"></path><path fill="url(#aG)" d="M686.28 433.67a2.22 2.22 0 1 0 2.21 2.21 2.22 2.22 0 0 0-2.21-2.21Zm0 3.45a1.24 1.24 0 1 1 0-2.47 1.24 1.24 0 0 1 0 2.47Z"></path><path fill="url(#aH)" d="M634.9 422.66h-60.92v.98h60.51l12.73 12.73h37.33v-.98h-36.92l-12.73-12.73z"></path><path fill="#030003" d="M373.2 394.9h37.88v28.31H373.2z"></path><path fill="url(#aI)" d="M366.09 392.6a15.81 15.81 0 1 0 20.36 9.24 15.81 15.81 0 0 0-20.36-9.24Z"></path><path fill="#030003" d="m392.14 353.31-39.75 41.59h79.5l-16.35-41.59h-23.4z"></path><path fill="url(#aJ)" d="M375.79 394.9h20.81v28.31h37.88V394.9h20.81l-39.75-41.59-39.75 41.59z"></path><circle cx="373.96" cy="348.07" r="27.94" fill="url(#aK)" transform="rotate(-45 373.965 348.069)"></circle><path fill="url(#aL)" d="M355.52 362.74a17.68 17.68 0 1 0 17.68 17.67 17.67 17.67 0 0 0-17.68-17.67Z"></path><path fill="url(#aM)" d="M400.58 384.3h6.62v34.64h16.68V384.3h6.62l-15-15.65Zm22.32-1V418h-14.72v-34.68h-5.31l12.67-13.26 12.67 13.26Z"></path><path fill="url(#aN)" d="M415.83 414.78h8.99v.98h-8.99z" transform="rotate(-45 420.32 415.268)"></path><path fill="url(#aO)" d="M406.39 410.82h20.05v.98h-20.05z" transform="rotate(-44.96 416.4 411.308)"></path><path fill="url(#aP)" d="M404.41 403.23h22.37v.98h-22.37z" transform="rotate(-45.04 415.57 403.707)"></path><path fill="url(#aQ)" d="M404.41 394.78h22.37v.98h-22.37z" transform="rotate(-45 415.594 395.265)"></path><path fill="url(#aR)" d="M404.33 386.16h22.95v.98h-22.95z" transform="rotate(-45 415.808 386.657)"></path><path fill="url(#aS)" d="M405.1 379.57h17.71v.98H405.1z" transform="rotate(-45 413.945 380.058)"></path><g clip-path="url(#aT)"><path fill="url(#aU)" d="M460.81 262.94h8.05v8.05h-8.05z"></path><path fill="url(#aV)" d="M449.35 262.94h8.05v8.05h-8.05z"></path><path fill="url(#aW)" d="M437.9 262.94h8.05v8.05h-8.05z"></path><path fill="url(#aX)" d="M426.45 262.94h8.05v8.05h-8.05z"></path><path fill="url(#aY)" d="M415 262.94h8.05v8.05H415z"></path><path fill="url(#aZ)" d="M449.35 274.39h8.05v8.05h-8.05z"></path><path fill="url(#ba)" d="M437.9 274.39h8.05v8.05h-8.05z"></path><path fill="url(#bb)" d="M426.45 274.39h8.05v8.05h-8.05z"></path><path fill="url(#bc)" d="M415 274.39h8.05v8.05H415z"></path><path fill="url(#bd)" d="M460.81 285.84h8.05v8.05h-8.05z"></path><path fill="url(#be)" d="M449.35 285.84h8.05v8.05h-8.05z"></path><path fill="url(#bf)" d="M426.45 285.84h8.05v8.05h-8.05z"></path><path fill="url(#bg)" d="M415 285.84h8.05v8.05H415z"></path><path fill="url(#bh)" d="M449.35 297.29h8.05v8.05h-8.05z"></path><path fill="url(#bi)" d="M437.9 297.29h8.05v8.05h-8.05z"></path><path fill="url(#bj)" d="M415 297.29h8.05v8.05H415z"></path><path fill="url(#bk)" d="M404.86 340.32h8.05v8.05h-8.05z"></path><path fill="url(#bl)" d="M437.9 308.74h8.05v8.05h-8.05z"></path><path fill="url(#bm)" d="M426.45 308.74h8.05v8.05h-8.05z"></path><path fill="url(#bn)" d="M449.35 320.19h8.05v8.05h-8.05z"></path><path fill="url(#bo)" d="M426.45 320.19h8.05v8.05h-8.05z"></path><path fill="url(#bp)" d="M436.85 341.46h8.05v8.05h-8.05z"></path><path fill="url(#bq)" d="M404.86 262.94h8.05v8.05h-8.05z"></path><path fill="url(#br)" d="M393.41 262.94h8.05v8.05h-8.05z"></path><path fill="url(#bs)" d="M381.96 262.94h8.05v8.05h-8.05z"></path><path fill="url(#bt)" d="M370.51 262.94h8.05v8.05h-8.05z"></path><path fill="url(#bu)" d="M359.06 262.94h8.05v8.05h-8.05z"></path><path fill="url(#bv)" d="M393.41 274.39h8.05v8.05h-8.05z"></path><path fill="url(#bw)" d="M381.96 274.39h8.05v8.05h-8.05z"></path><path fill="url(#bx)" d="M370.51 274.39h8.05v8.05h-8.05z"></path><path fill="url(#by)" d="M359.06 274.39h8.05v8.05h-8.05z"></path><path fill="url(#bz)" d="M404.86 285.84h8.05v8.05h-8.05z"></path><path fill="url(#bA)" d="M393.41 285.84h8.05v8.05h-8.05z"></path><path fill="url(#bB)" d="M370.51 285.84h8.05v8.05h-8.05z"></path><path fill="url(#bC)" d="M359.06 285.84h8.05v8.05h-8.05z"></path><path fill="url(#bD)" d="M393.41 297.29h8.05v8.05h-8.05z"></path><path fill="url(#bE)" d="M381.96 297.29h8.05v8.05h-8.05z"></path><path fill="url(#bF)" d="M359.06 297.29h8.05v8.05h-8.05z"></path><path fill="url(#bG)" d="M359.04 357.5h8.05v8.05h-8.05z"></path><path fill="url(#bH)" d="M381.96 308.74h8.05v8.05h-8.05z"></path><path fill="url(#bI)" d="M370.51 308.74h8.05v8.05h-8.05z"></path><path fill="url(#bJ)" d="M393.41 320.19h8.05v8.05h-8.05z"></path><path fill="url(#bK)" d="M370.51 320.19h8.05v8.05h-8.05z"></path><path fill="url(#bL)" d="M380.91 341.46h8.05v8.05h-8.05z"></path><path fill="url(#bM)" d="M347.7 297.27h8.05v8.05h-8.05z"></path><path fill="url(#bN)" d="M336.25 297.27h8.05v8.05h-8.05z"></path><path fill="url(#bO)" d="M324.8 297.27h8.05v8.05h-8.05z"></path><path fill="url(#bP)" d="M313.34 297.27h8.05v8.05h-8.05z"></path><path fill="url(#bQ)" d="M301.89 297.27h8.05v8.05h-8.05z"></path><path fill="url(#bR)" d="M336.25 308.73h8.05v8.05h-8.05z"></path><path fill="url(#bS)" d="M324.8 308.73h8.05v8.05h-8.05z"></path><path fill="url(#bT)" d="M313.34 308.73h8.05v8.05h-8.05z"></path><path fill="url(#bU)" d="M301.89 308.73h8.05v8.05h-8.05z"></path><path fill="url(#bV)" d="M347.7 320.18h8.05v8.05h-8.05z"></path><path fill="url(#bW)" d="M336.25 320.18h8.05v8.05h-8.05z"></path><path fill="url(#bX)" d="M313.34 320.18h8.05v8.05h-8.05z"></path><path fill="url(#bY)" d="M301.89 320.18h8.05v8.05h-8.05z"></path><path fill="url(#bZ)" d="M336.25 331.63h8.05v8.05h-8.05z"></path><path fill="url(#ca)" d="M324.8 331.63h8.05v8.05h-8.05z"></path><path fill="url(#cb)" d="M301.89 331.63h8.05v8.05h-8.05z"></path><path fill="url(#cc)" d="M291.76 374.66h8.05v8.05h-8.05z"></path><path fill="url(#cd)" d="M324.8 343.08h8.05v8.05h-8.05z"></path><path fill="url(#ce)" d="M313.34 343.08h8.05v8.05h-8.05z"></path><path fill="url(#cf)" d="M336.25 354.53h8.05v8.05h-8.05z"></path><path fill="url(#cg)" d="M313.34 354.53h8.05v8.05h-8.05z"></path><path fill="url(#ch)" d="M323.74 375.8h8.05v8.05h-8.05z"></path><path fill="url(#ci)" d="M291.76 297.27h8.05v8.05h-8.05z"></path><path fill="url(#cj)" d="M280.31 297.27h8.05v8.05h-8.05z"></path><path fill="url(#ck)" d="M268.86 297.27h8.05v8.05h-8.05z"></path><path fill="url(#cl)" d="M257.4 297.27h8.05v8.05h-8.05z"></path><path fill="url(#cm)" d="M245.95 297.27H254v8.05h-8.05z"></path><path fill="url(#cn)" d="M280.31 308.73h8.05v8.05h-8.05z"></path><path fill="url(#co)" d="M268.86 308.73h8.05v8.05h-8.05z"></path><path fill="url(#cp)" d="M257.4 308.73h8.05v8.05h-8.05z"></path><path fill="url(#cq)" d="M245.95 308.73H254v8.05h-8.05z"></path><path fill="url(#cr)" d="M291.76 320.18h8.05v8.05h-8.05z"></path><path fill="url(#cs)" d="M280.31 320.18h8.05v8.05h-8.05z"></path><path fill="url(#ct)" d="M257.4 320.18h8.05v8.05h-8.05z"></path><path fill="url(#cu)" d="M245.95 320.18H254v8.05h-8.05z"></path><path fill="url(#cv)" d="M280.31 331.63h8.05v8.05h-8.05z"></path><path fill="url(#cw)" d="M268.86 331.63h8.05v8.05h-8.05z"></path><path fill="url(#cx)" d="M245.95 331.63H254v8.05h-8.05z"></path><path fill="url(#cy)" d="M245.93 391.84h8.05v8.05h-8.05z"></path><path fill="url(#cz)" d="M268.86 343.08h8.05v8.05h-8.05z"></path><path fill="url(#cA)" d="M257.4 343.08h8.05v8.05h-8.05z"></path><path fill="url(#cB)" d="M280.31 354.53h8.05v8.05h-8.05z"></path><path fill="url(#cC)" d="M257.4 354.53h8.05v8.05h-8.05z"></path><path fill="url(#cD)" d="M267.8 375.8h8.05v8.05h-8.05z"></path><path fill="url(#cE)" d="M460.81 308.72h8.05v8.05h-8.05z"></path><path fill="url(#cF)" d="M472.26 308.72h8.05v8.05h-8.05z"></path><path fill="url(#cG)" d="M483.71 308.72h8.05v8.05h-8.05z"></path><path fill="url(#cH)" d="M495.16 308.72h8.05v8.05h-8.05z"></path><path fill="url(#cI)" d="M506.61 308.72h8.05v8.05h-8.05z"></path><path fill="url(#cJ)" d="M472.26 320.17h8.05v8.05h-8.05z"></path><path fill="url(#cK)" d="M483.71 320.17h8.05v8.05h-8.05z"></path><path fill="url(#cL)" d="M495.16 320.17h8.05v8.05h-8.05z"></path><path fill="url(#cM)" d="M506.61 320.17h8.05v8.05h-8.05z"></path><path fill="url(#cN)" d="M460.81 331.62h8.05v8.05h-8.05z"></path><path fill="url(#cO)" d="M472.26 331.62h8.05v8.05h-8.05z"></path><path fill="url(#cP)" d="M495.16 331.62h8.05v8.05h-8.05z"></path><path fill="url(#cQ)" d="M506.61 331.62h8.05v8.05h-8.05z"></path><path fill="url(#cR)" d="M472.26 343.07h8.05v8.05h-8.05z"></path><path fill="url(#cS)" d="M483.71 343.07h8.05v8.05h-8.05z"></path><path fill="url(#cT)" d="M506.61 343.07h8.05v8.05h-8.05z"></path><path fill="url(#cU)" d="M516.75 386.1h8.05v8.05h-8.05z"></path><path fill="url(#cV)" d="M483.71 354.52h8.05v8.05h-8.05z"></path><path fill="url(#cW)" d="M495.16 354.52h8.05v8.05h-8.05z"></path><path fill="url(#cX)" d="M472.26 365.97h8.05v8.05h-8.05z"></path><path fill="url(#cY)" d="M495.16 365.97h8.05v8.05h-8.05z"></path><path fill="url(#cZ)" d="M484.77 387.24h8.05v8.05h-8.05z"></path><path fill="url(#da)" d="M516.75 308.72h8.05v8.05h-8.05z"></path><path fill="url(#db)" d="M528.2 308.72h8.05v8.05h-8.05z"></path><path fill="url(#dc)" d="M539.65 308.72h8.05v8.05h-8.05z"></path><path fill="url(#dd)" d="M551.1 308.72h8.05v8.05h-8.05z"></path><path fill="url(#de)" d="M562.55 308.72h8.05v8.05h-8.05z"></path><path fill="url(#df)" d="M528.2 320.17h8.05v8.05h-8.05z"></path><path fill="url(#dg)" d="M539.65 320.17h8.05v8.05h-8.05z"></path><path fill="url(#dh)" d="M551.1 320.17h8.05v8.05h-8.05z"></path><path fill="url(#di)" d="M562.55 320.17h8.05v8.05h-8.05z"></path><path fill="url(#dj)" d="M516.75 331.62h8.05v8.05h-8.05z"></path><path fill="url(#dk)" d="M528.2 331.62h8.05v8.05h-8.05z"></path><path fill="url(#dl)" d="M551.1 331.62h8.05v8.05h-8.05z"></path><path fill="url(#dm)" d="M562.55 331.62h8.05v8.05h-8.05z"></path><path fill="url(#dn)" d="M528.2 343.07h8.05v8.05h-8.05z"></path><path fill="url(#do)" d="M539.65 343.07h8.05v8.05h-8.05z"></path><path fill="url(#dp)" d="M562.55 343.07h8.05v8.05h-8.05z"></path><path fill="url(#dq)" d="M562.57 403.29h8.05v8.05h-8.05z"></path><path fill="url(#dr)" d="M539.65 354.52h8.05v8.05h-8.05z"></path><path fill="url(#ds)" d="M551.1 354.52h8.05v8.05h-8.05z"></path><path fill="url(#dt)" d="M528.2 365.97h8.05v8.05h-8.05z"></path><path fill="url(#du)" d="M551.1 365.97h8.05v8.05h-8.05z"></path><path fill="url(#dv)" d="M540.71 387.24h8.05v8.05h-8.05z"></path></g><path fill="#20b6f8" d="M267.42 235.18h83.5v28.88h-83.5z"></path><path fill="#20b6f8" d="m318.49 275.49 32.42-11.42-26.59-4.02-5.83 15.44z"></path><path fill="#fff" d="M287.6 241.24v5.55a4.3 4.3 0 0 1 3.35-1.64 4.4 4.4 0 0 1 1.81.37 3 3 0 0 1 1.21.95 3.32 3.32 0 0 1 .55 1.28 11.37 11.37 0 0 1 .15 2.17v6.42h-2.89v-5.78a8.47 8.47 0 0 0-.17-2.18 1.42 1.42 0 0 0-.58-.74 1.91 1.91 0 0 0-1-.27 2.3 2.3 0 0 0-1.28.35 2 2 0 0 0-.83 1.05 6.17 6.17 0 0 0-.27 2.09v5.48h-2.89v-15.1ZM302.63 245.4v2.31h-2v4.41a10.4 10.4 0 0 0 .06 1.56.64.64 0 0 0 .26.37.84.84 0 0 0 .49.14 3.67 3.67 0 0 0 1.16-.28l.25 2.25a5.77 5.77 0 0 1-2.29.43 3.73 3.73 0 0 1-1.41-.26 2 2 0 0 1-.92-.68 2.59 2.59 0 0 1-.41-1.13 14.52 14.52 0 0 1-.09-2v-4.77h-1.33v-2.35h1.33v-2.18l2.9-1.69v3.87ZM309.66 245.4v2.31h-2v4.41a10.4 10.4 0 0 0 .06 1.56.62.62 0 0 0 .25.37.88.88 0 0 0 .49.14 3.66 3.66 0 0 0 1.17-.28l.25 2.25a5.77 5.77 0 0 1-2.29.43 3.73 3.73 0 0 1-1.41-.26 2.13 2.13 0 0 1-.93-.68 2.73 2.73 0 0 1-.4-1.13 12.67 12.67 0 0 1-.1-2v-4.77h-1.33v-2.35h1.33v-2.18l2.91-1.69v3.87ZM311.59 245.4h2.7v1.6a4 4 0 0 1 1.42-1.34 3.86 3.86 0 0 1 2-.52 4.15 4.15 0 0 1 3.23 1.5 6 6 0 0 1 1.33 4.16 6.18 6.18 0 0 1-1.34 4.26 4.14 4.14 0 0 1-3.24 1.52 3.7 3.7 0 0 1-1.65-.36 5.42 5.42 0 0 1-1.55-1.24v5.52h-2.89Zm2.86 5.29a4.25 4.25 0 0 0 .73 2.72 2.23 2.23 0 0 0 1.79.88 2.1 2.1 0 0 0 1.68-.81 4.2 4.2 0 0 0 .67-2.65 4 4 0 0 0-.69-2.56 2.18 2.18 0 0 0-1.72-.83 2.22 2.22 0 0 0-1.76.82 3.61 3.61 0 0 0-.7 2.43ZM325.12 248.29v-2.89H328v2.89Zm0 8v-2.89H328v2.89ZM330 256.6l3.79-15.6H336l-3.78 15.62ZM335.91 256.6l3.74-15.6h2.17L338 256.6Z"></path><path fill="url(#dw)" d="M488.2 250.31h39.96v22.29H488.2z"></path><path fill="url(#dx)" d="m488.2 272.6 18 8.05-3.48-10.33-14.52 2.28z"></path><path fill="#fff" d="m502.06 265.47-6.4-2.78v-1.54l6.4-2.77v1.82l-4.46 1.7 4.46 1.77ZM506.28 266.7l2.31-9.65h1.34l-2.34 9.65ZM514.14 265.48v-1.8l4.47-1.76-4.47-1.74v-1.78l6.41 2.77v1.52Z"></path><path fill="#35375a" d="m647.62 476.71-36.62-.38q-36.62-.3-73.25-.49c-24.41-.16-48.83-.19-73.24-.29l-73.25-.09-73.25.09c-24.42.09-48.83.12-73.25.28s-48.83.3-73.25.49l-36.62.39-18.31.19-18.31.25 18.31.26 18.31.19 36.62.38q36.63.3 73.25.5c24.42.15 48.83.18 73.25.28l73.25.09 73.25-.1c24.41-.09 48.83-.12 73.24-.28s48.84-.29 73.25-.49l36.62-.38 18.32-.19 18.31-.26-18.31-.25Z"></path></g></svg>