<svg xmlns="http://www.w3.org/2000/svg" enable-background="new 0 0 1500 1500" viewBox="0 0 1500 1500" id="container-transportation"><switch><g><polyline fill="none" stroke="#010101" stroke-linecap="round" stroke-linejoin="round" stroke-miterlimit="10" stroke-width="4" points="999.69 658.43 604.91 467.64 175.3 643.54"></polyline><polygon fill="#fff" stroke="#000" stroke-linecap="round" stroke-linejoin="round" stroke-miterlimit="10" stroke-width="3" points="353.68 551.37 361.2 941.86 1036.57 958.96 999.69 658.43"></polygon><polygon fill="#010101" stroke="#000" stroke-linecap="round" stroke-linejoin="round" stroke-miterlimit="10" stroke-width="3" points="175.3 643.54 353.68 551.37 361.2 941.86 173.25 980.85"></polygon><polygon fill="#fbbc3c" stroke="#000" stroke-linecap="round" stroke-linejoin="round" stroke-miterlimit="10" stroke-width="3" points="173.25 980.85 828.73 990.4 1036.57 958.96 361.2 941.86"></polygon><polyline fill="none" stroke="#010101" stroke-linecap="round" stroke-linejoin="round" stroke-miterlimit="10" stroke-width="4" points="353.68 551.37 604.91 467.64 840.86 632.1"></polyline><line x1="604.91" x2="604.91" y1="467.64" y2="164.8" fill="none" stroke="#010101" stroke-linecap="round" stroke-linejoin="round" stroke-miterlimit="10" stroke-width="4"></line><line x1="253.15" x2="259.57" y1="603.32" y2="962.94" fill="none" stroke="#fff" stroke-miterlimit="10" stroke-width="4"></line><line x1="426.09" x2="426.09" y1="638.61" y2="856.1" fill="none" stroke="#010101" stroke-linecap="round" stroke-linejoin="round" stroke-miterlimit="10" stroke-width="4"></line><line x1="511.62" x2="515.31" y1="648.66" y2="860.86" fill="none" stroke="#010101" stroke-linecap="round" stroke-linejoin="round" stroke-miterlimit="10" stroke-width="4"></line><line x1="597.15" x2="604.54" y1="658.71" y2="865.62" fill="none" stroke="#010101" stroke-linecap="round" stroke-linejoin="round" stroke-miterlimit="10" stroke-width="4"></line><line x1="682.68" x2="693.76" y1="668.75" y2="870.38" fill="none" stroke="#010101" stroke-linecap="round" stroke-linejoin="round" stroke-miterlimit="10" stroke-width="4"></line><line x1="768.21" x2="782.98" y1="678.8" y2="875.14" fill="none" stroke="#010101" stroke-linecap="round" stroke-linejoin="round" stroke-miterlimit="10" stroke-width="4"></line><line x1="853.75" x2="872.2" y1="688.85" y2="879.9" fill="none" stroke="#010101" stroke-linecap="round" stroke-linejoin="round" stroke-miterlimit="10" stroke-width="4"></line><line x1="939.28" x2="961.42" y1="698.89" y2="884.66" fill="none" stroke="#010101" stroke-linecap="round" stroke-linejoin="round" stroke-miterlimit="10" stroke-width="4"></line><g><path fill="#fff" stroke="#000" stroke-linecap="round" stroke-linejoin="round" stroke-miterlimit="10" stroke-width="3" d="M474.84,439.58H189.32c-14.07,0-25.47-11.4-25.47-25.47v-58.78c0-14.07,11.4-25.47,25.47-25.47h285.52
				c14.07,0,25.47,11.4,25.47,25.47v58.78C500.31,428.18,488.91,439.58,474.84,439.58z"></path><path d="M197.38 366.63h38.48v8.71h-23.06v5.53h19.81v8.45h-19.81v6.14h23.06v9.05h-38.48V366.63zM255.21 384.92l-15.87-18.29h18.33l7.99 10.23 8.22-10.23H288l-14.88 17.61 17.19 20.26H272.1l-9.51-11.93-9.47 11.93h-14.43L255.21 384.92zM293.16 366.63h20.94c5 0 10.6.11 15 1.97 4.81 2.12 7.65 5.87 7.65 9.96 0 3.6-1.89 7.01-5.68 9.28-3.98 2.35-9.05 2.92-13.98 2.92h-8.03v13.75h-15.91V366.63zM313.19 382.65c3.6 0 7.92-.19 7.92-3.71 0-3.37-3.9-3.64-7.46-3.64h-4.58v7.35H313.19zM339.78 385.68c0-11.32 8.9-19.58 24.5-19.58 15.6 0 24.47 8.26 24.47 19.58 0 10.76-8.94 19.35-24.47 19.35C348.75 405.03 339.78 396.43 339.78 385.68zM371.97 385.71c0-4.13-.76-11.51-7.69-11.51-6.97 0-7.69 7.39-7.69 11.51 0 4.24.49 11.21 7.69 11.21C371.44 396.93 371.97 389.96 371.97 385.71zM392.53 366.63h26.09c4.47 0 9.43.45 13.22 2.31 4.28 2.01 6.29 5.38 6.29 9.05 0 4.96-2.99 7.95-9.05 10l9.28 16.51h-17.5l-7.46-14.47h-4.92v14.47h-15.94V366.63zM414.19 381.93c3.45 0 7.57-.38 7.57-3.64 0-1.29-.91-2.5-2.46-3.11-1.36-.49-2.99-.49-4.51-.49h-6.32v7.23H414.19zM452.9 375.75h-10.76v-9.13h36.24v9.13h-10.53v28.75H452.9V375.75z"></path></g><g><polygon fill="#010101" stroke="#000" stroke-linecap="round" stroke-linejoin="round" stroke-miterlimit="10" stroke-width="3" points="646.14 808.42 631.04 1198.69 1304.29 1254.86 1284.87 952.7"></polygon><polyline fill="none" stroke="#010101" stroke-linecap="round" stroke-linejoin="round" stroke-miterlimit="10" stroke-width="4" points="462.72 890.12 939.57 713.33 1091.43 909"></polyline><polygon fill="#97d8f4" stroke="#000" stroke-linecap="round" stroke-linejoin="round" stroke-miterlimit="10" stroke-width="3" points="462.72 890.12 646.14 808.42 631.04 1198.69 441.14 1226.74"></polygon><polygon fill="#fbbc3c" stroke="#000" stroke-linecap="round" stroke-linejoin="round" stroke-miterlimit="10" stroke-width="3" points="441.14 1226.74 1094.97 1274.22 1304.29 1254.86 631.04 1198.69"></polygon><polyline fill="none" stroke="#010101" stroke-linecap="round" stroke-linejoin="round" stroke-miterlimit="10" stroke-width="4" points="1284.87 952.7 939.57 713.33 646.14 808.42"></polyline><line x1="939.57" x2="939.57" y1="713.33" y2="370.1" fill="none" stroke="#010101" stroke-linecap="round" stroke-linejoin="round" stroke-miterlimit="10" stroke-width="4"></line><line x1="543.64" x2="530.6" y1="854.07" y2="1213.53" fill="none" stroke="#010101" stroke-linecap="round" stroke-linejoin="round" stroke-miterlimit="10" stroke-width="4"></line><line x1="720.04" x2="714.04" y1="909" y2="1117.03" fill="none" stroke="#fff" stroke-miterlimit="10" stroke-width="4"></line><line x1="803.79" x2="800.29" y1="923.69" y2="1128.72" fill="none" stroke="#fff" stroke-miterlimit="10" stroke-width="4"></line><line x1="887.53" x2="886.53" y1="938.38" y2="1140.41" fill="none" stroke="#fff" stroke-miterlimit="10" stroke-width="4"></line><line x1="971.27" x2="972.77" y1="953.07" y2="1152.1" fill="none" stroke="#fff" stroke-miterlimit="10" stroke-width="4"></line><line x1="1055.01" x2="1059.01" y1="967.75" y2="1163.78" fill="none" stroke="#fff" stroke-miterlimit="10" stroke-width="4"></line><line x1="1138.76" x2="1145.26" y1="982.44" y2="1175.47" fill="none" stroke="#fff" stroke-miterlimit="10" stroke-width="4"></line><line x1="1222.5" x2="1231.5" y1="997.13" y2="1187.16" fill="none" stroke="#fff" stroke-miterlimit="10" stroke-width="4"></line></g><path fill="#fff" stroke="#000" stroke-linecap="round" stroke-linejoin="round" stroke-miterlimit="10" stroke-width="3" d="M1297.02 477.44h-222.56c-2.19-4.58-3.42-9.7-3.42-15.11 0-19.29 15.63-34.92 34.92-34.92 3.24 0 6.37.43 9.34 1.27 6.37-25.15 29.15-43.75 56.28-43.75 27.08 0 49.84 18.56 56.25 43.66 3.78-.78 7.69-1.18 11.71-1.18C1268.86 427.41 1293.12 449.16 1297.02 477.44zM197.38 1335.2h231.16c2.27-4.75 3.55-10.07 3.55-15.69 0-20.03-16.24-36.27-36.27-36.27-3.36 0-6.61.45-9.7 1.32-6.61-26.12-30.27-45.44-58.46-45.44-28.13 0-51.77 19.28-58.42 45.34-3.93-.81-7.99-1.22-12.16-1.22C226.63 1283.24 201.44 1305.83 197.38 1335.2z"></path><g><path fill="#fff" stroke="#000" stroke-linecap="round" stroke-linejoin="round" stroke-miterlimit="10" stroke-width="3" d="M1341.82,1208.41H1056.3c-14.07,0-25.47-11.4-25.47-25.47v-58.78c0-14.07,11.4-25.47,25.47-25.47h285.52
				c14.07,0,25.47,11.4,25.47,25.47v58.78C1367.29,1197.01,1355.89,1208.41,1341.82,1208.41z"></path><path d="M1070.69 1134.92h15.87v37.87h-15.87V1134.92zM1091.1 1134.92h20.56l7.31 20.11h.15l7.04-20.11h20.68v37.87h-14.66v-27.04h-.15l-9.32 27.04h-10.04l-9.62-27.04h-.15v27.04h-11.82V1134.92zM1151.4 1134.92h20.94c5 0 10.6.11 15 1.97 4.81 2.12 7.65 5.87 7.65 9.96 0 3.6-1.89 7.01-5.68 9.28-3.98 2.35-9.05 2.92-13.98 2.92h-8.03v13.75h-15.91V1134.92zM1171.43 1150.94c3.6 0 7.92-.19 7.92-3.71 0-3.37-3.9-3.64-7.46-3.64h-4.58v7.35H1171.43zM1198.02 1153.97c0-11.32 8.9-19.58 24.5-19.58 15.6 0 24.47 8.26 24.47 19.58 0 10.76-8.94 19.35-24.47 19.35C1206.99 1173.32 1198.02 1164.73 1198.02 1153.97zM1230.21 1154.01c0-4.13-.76-11.51-7.69-11.51-6.97 0-7.69 7.39-7.69 11.51 0 4.24.49 11.21 7.69 11.21C1229.68 1165.22 1230.21 1158.25 1230.21 1154.01zM1250.77 1134.92h26.09c4.47 0 9.43.45 13.22 2.31 4.28 2.01 6.29 5.38 6.29 9.05 0 4.96-2.99 7.95-9.05 10l9.28 16.51h-17.5l-7.46-14.47h-4.92v14.47h-15.94V1134.92zM1272.43 1150.22c3.45 0 7.57-.38 7.57-3.64 0-1.29-.91-2.5-2.46-3.11-1.36-.49-2.99-.49-4.51-.49h-6.32v7.23H1272.43zM1311.14 1144.05h-10.76v-9.13h36.24v9.13h-10.53v28.75h-14.96V1144.05z"></path></g></g></switch></svg>