<svg xmlns="http://www.w3.org/2000/svg" viewBox="0 0 1573.6 2000" id="software-development"><path fill="#0C3461" d="M1507.9 788.1 142.8 0l-3 1070.9 1357.1 783.5c4.9 2.8 11.1-.7 11.1-6.4l-.1-1059.9z" opacity=".75"></path><path fill="none" d="M310.5 1067.9h-.1v23.6l77.7 44.9-77.7-44.9zM261.6 945.6v23.6l77.7 44.9-77.7-44.9zM310.6 1022.9l-.1 23.6 77.7 44.9-77.7-44.9zM459 1083.2l44.8 25.9-44.8-25.9.1-23.6 44.7 25.8-44.7-25.8zM397.4 1118.1v23.7l101.2 58.4-101.2-58.4zM397.6 1073.1l-.1 23.6 101.2 58.5-101.2-58.5zM263 454.4l-.1 23.7 104.9 60.5L263 478.1zM450.4 833.1l-.1 23.6 14.1 8.2-14.1-8.2zM263.3 364.4l-.1 23.6 112.3 64.9L263.2 388zM262.9 499.4l-.1 23.7 75.2 43.4-75.2-43.4zM213.6 155.4l-.1 23.6 66.5 38.4-66.5-38.4zM262.2 724.4v23.7l.1-23.6zM338.9 792.4l-20.5-11.8zM508.1 1136.9l-.1 23.6 76.9 44.4-76.9-44.4zM673.6 760.2l-81.1-46.8.1-23.6 4.7 2.7-4.7-2.7-.1 23.6 81.1 46.8zM763.9 812.4l-81-46.8v-23.7 23.7l81 46.8zM385 389.6l-.1 23.6L587.2 530 384.9 413.2zM385.1 344.6v23.6l142.4 82.3-142.4-82.3zM263.4 319.4l-.1 23.6 112.4 64.9L263.3 343zM593.2 735.2v23.7L766.5 859 593.2 758.9zM412.7 294l-123.4-71.2.1-23.7-.1 23.7L412.7 294zM594.3 1186.7v-.1l-.1 23.7 76.9 44.4-76.9-44.4zM680.5 1236.4l-.1 23.7 431.1 248.9-431.1-248.9zM680.9 1011.2l-.1 23.7.1-23.7zM1233 1104.6 930.2 929.8l302.8 174.8zM775.9 840.6h-.1v23.7l457.1 263.9-457.1-263.9zM339.3 990.4l-35.5-20.5 35.5 20.6zM311.1 842.8l-.1 23.7 77.7 44.9v-.1L311 866.5zM594.9 961.6l-.1 23.7 37.8 21.8-37.8-21.8zM880.9 1326.8 513 1114.4l.1-23.6-.1 23.6 367.9 212.4zM534 701l50 28.9zM502.3 637.6l28 16.2-28.1-16.2v23.7l81.1 46.8-81.1-46.8zM1041.3 1197.9 513.6 893.3l.1-23.7 207.5 119.8-207.5-119.8-.1 23.7 527.7 304.6zM585.5 979.9l-76.9-44.4.1-23.7-.1 23.7 76.9 44.4zM512.2 688.4l-.1 23.7 71.8 41.4-71.8-41.4zM384.8 458.2l.1-23.6-.1 23.7 51 29.4zM347.4 548.2l-.1 23.6 98.6 57-98.6-57zM263.5 274.4V298l112.3 64.9L263.5 298zM455.2 634.1l.1-23.6h-.1v23.6l37.7 21.8zM419.9 635.1l-.1 23.7 62.3 36-62.3-36zM311.9 572.8l-.1-.1v23.7l50.2 29-50.2-29zM348.3 774.1l17 9.8-17-9.8-.1 23.7 92.9 53.6-92.9-53.6zM341.8 590l68.8 39.8zM397.7 667.4v23.7l.1-23.7zM311.7 617.8v23.6l14.2 8.2-14.2-8.2zM449.8 1077.9l-101.2-58.4v-23.7l-.1 23.7 101.3 58.4zM499.2 975.1 398 916.7l.1-23.7-.1 23.7 101.2 58.4zM404.7 851.8 384.3 840l20.4 11.8zM404.6 875.5v-.1l-52.2-30.1zM311.2 797.8l-.1 23.7h.1v-23.7zM449.8 1054.2 413 1033l36.8 21.2zM854.3 864.5l-81.1-46.8.1-23.6 17.7 10.2-17.7-10.2-.1 23.6 81.1 46.8zM238.6 103.3l-63.9-36.9V42.8l-.1 23.6 64 36.9z"></path><path fill="#F9812B" d="m397.5 1096.7 101.2 58.5.1-23.7-101.2-58.4z"></path><path fill="#ED4944" d="m310.4 1091.5 77.7 44.9.1-23.7-77.7-44.8z"></path><path fill="#FFE7AD" d="m310.5 1046.5 77.7 44.9.1-23.7-77.7-44.8z"></path><path fill="#68B7E6" d="M449.8 1077.9v-23.7L413 1033l-64.4-37.2v23.7z"></path><path fill="#AEC7E6" d="m397.4 1141.8 101.2 58.4v-23.7l-101.2-58.4zM508 1160.5l76.9 44.4.1-23.6-76.9-44.4zM680.8 1034.9l529.7 305.8.1-23.7-529.7-305.8zM880.9 1326.8l.1-23.6-367.9-212.4-.1 23.6z"></path><path fill="#7CD96C" d="m594.2 1210.3 76.9 44.4.1-23.6-76.9-44.4z"></path><path fill="#AEC7E6" d="m680.4 1260.1 431.1 248.9.1-23.7-431.1-248.9z"></path><path fill="#7CD96C" d="m594.8 985.3 37.8 21.8 38.9 22.4.1-23.6-76.7-44.3z"></path><path fill="#ED4944" d="m261.6 969.2 77.7 44.9v-23.6l-35.5-20.6-42.2-24.3z"></path><path fill="#7CD96C" d="m459 1083.2 44.8 25.9v-23.7l-44.7-25.8z"></path><path fill="#ED4944" d="m311 866.5 77.7 44.8.1-23.6-77.7-44.9zM262.2 748.1l56.2 32.5 20.5 11.8.1-23.6-76.7-44.3z"></path><path fill="#AEC7E6" d="m404.6 875.4.1-23.6-20.4-11.8-73.1-42.2v23.7l41.2 23.8z"></path><path fill="#68B7E6" d="m348.3 774.1-.1 23.7 92.9 53.6v-23.7l-75.8-43.8z"></path><path fill="#ED4944" d="m263.2 388 112.3 64.9.1-23.7-112.3-64.8zM263.3 343l112.4 64.9v-23.7l-112.3-64.8z"></path><path fill="#AEC7E6" d="m592.5 713.4 81.1 46.8.1-23.6-76.4-44.1-4.7-2.7z"></path><path fill="#7CD96C" d="m412.7 294 .1-23.6-123.4-71.3-.1 23.7z"></path><path fill="#AEC7E6" d="M435.8 487.7V464l-50.9-29.4-.1 23.6zM385.1 368.2l142.4 82.3.1-23.7-142.5-82.2zM499.2 975.1l.1-23.6L398.1 893l-.1 23.7z"></path><path fill="#F9812B" d="M499.4 906.5 414 857.1l-.1 23.7 85.5 49.3z"></path><path fill="#7CD96C" d="m450.4 833.1-.1 23.6 14.1 8.2 40 23 .1-23.6-54.1-31.2z"></path><path fill="#ED4944" d="M311.7 617.8v23.6l14.2 8.2 62.5 36.1.1-23.6-76.8-44.3zM262.9 499.4l-.1 23.7 75.2 43.4.1-23.7-75.2-43.4z"></path><path fill="#AEC7E6" d="M585.5 979.9h.1v-23.7l-76.9-44.4-.1 23.7zM311.9 572.8l-.1 23.6 50.2 29 48.6 28.1v-23.7L341.8 590z"></path><path fill="#7B7A5C" d="M263 454.4v23.7l104.8 60.5.1-23.7L263 454.4z"></path><path fill="#AEC7E6" d="m502.8 728.1-105-60.7-.1 23.7 105 60.6z"></path><path fill="#68B7E6" d="m347.4 548.2-.1 23.6 98.6 57 .1-23.7-98.6-56.9z"></path><path fill="#F9812B" d="m419.9 635.1-.1 23.7 62.3 36 20.7 11.9.1-23.6-83-48z"></path><path fill="#7CD96C" d="m492.9 655.9.1-23.6-37.7-21.8-.1 23.6z"></path><path fill="#AEC7E6" d="m512.2 688.4-.1 23.7 71.8 41.4.1-23.6-50-28.9z"></path><path fill="#68B7E6" d="m213.6 155.4-.1 23.6 66.5 38.4h.1v-23.6l-66.5-38.4z"></path><path fill="#ED4944" d="M263.5 274.4V298l112.3 64.9.1-23.7-112.4-64.8z"></path><path fill="#AEC7E6" d="m502.3 637.6-.1 23.7 81.1 46.8v-23.7l-53-30.6z"></path><path fill="#ED4944" d="m238.6 103.3.1-23.6-64-36.9v23.6z"></path><path fill="#7CD96C" d="M593.2 735.2v23.7L766.5 859l.1-23.7-173.4-100.1z"></path><path fill="#AEC7E6" d="m385 389.6-.1 23.6L587.2 530h.1v-23.6L385 389.6zM763.9 812.4l.1-23.7-81.1-46.8v23.7zM513.6 893.3l527.7 304.6v-23.6L721.2 989.4 513.7 869.6zM773.2 817.7l81.1 46.8.1-23.6-63.4-36.6-17.7-10.2zM775.9 840.6l-.1 23.7 457.1 263.9.1-23.6-302.8-174.8-154.3-89.2z"></path><path fill="#FF8666" d="M1511.1 882 1301 760.6c-15.8-9.1-28.6-1.8-28.7 16.3l-.4 147.6c-.1 18.1 12.7 40.2 28.5 49.3l210.1 121.3c15.8 9.1 28.6 1.8 28.7-16.3l.4-147.6c0-18-12.7-40.1-28.5-49.2z"></path><path fill="#E5ECF3" d="M1362.1 856.5c2.2 1.3 4.5 4.9 6.9 11 1.6 3.8 2.3 6.5 2.3 8s-.3 2.6-.9 3.3c-.8 1.1-2.4 1.9-5.1 2.3-24.7 2.5-37.5 3.8-38.5 4l38.4 48.4c1.6 2 2.7 3.4 3.3 4.5 1.8 2.8 2.7 5.1 2.7 7.1 0 1.9-.7 3.8-2.2 5.7-1.5 1.9-2.8 3-3.9 3.5-1.2.5-2.4.3-3.6-.4-1.6-1-3.8-3.1-6.4-6.4l-53-66.8c-3.2-3.7-4.8-7.9-4.8-12.6 0-4.8 1.7-7.1 5-7.1 28.4-2.9 44.7-4.6 48.9-5.1 4.2-.5 6.8-.7 7.6-.5.9 0 2 .4 3.3 1.1zM1423.8 878.6c1.3.7 3.4 2.7 6.2 5.9 4.5 5 6.7 9.1 6.7 12 0 1.2-.6 3.3-1.8 6.1l-40.1 72c-.7 1.2-1.2 2.1-1.6 2.7-.4.5-1 .9-1.9 1.1-.9.2-2-.1-3.4-.9s-3.5-2.7-6.2-5.7-4.6-5.3-5.5-7c-.9-1.6-1.4-3.1-1.4-4.5 0-1.3.5-3.4 1.5-6.3l40.2-72.8c1.6-2.7 3-4 4.2-3.8.8 0 1.8.4 3.1 1.2zM1449.7 907.1c2 1.1 4.2 3.3 6.7 6.6l52.8 66.7c3.3 3.8 4.9 8.1 4.9 12.8 0 4.7-1.6 7.1-4.9 7l-53 5.6c-2.4.4-4.5.1-6.3-1-1.5-.8-2.7-2.1-3.9-3.9-1.2-1.8-2.3-4.2-3.6-7.2-1.6-4.1-2.5-6.8-2.5-8.3 0-1.4.3-2.5.8-3.3.9-1.1 2.7-1.8 5.3-2.1l38.6-3.9-38.4-48.4c-1.5-1.9-2.6-3.4-3.3-4.5-1.8-2.8-2.7-5.3-2.7-7.4 0-1.9.7-3.8 2.1-5.6 2.8-3.3 5.2-4.4 7.4-3.1z"></path><path fill="#ED4944" d="M1573.5 908.7v-.4c0-.3-.1-.7-.1-1-.1-.7-.2-1.5-.3-2.3-.1-.4-.1-.8-.2-1.1-.1-.8-.3-1.5-.4-2.3-.1-.3-.1-.7-.2-1-.2-1-.5-2.1-.8-3.1v-.1c0-.1-.1-.3-.1-.4-.3-1.1-.7-2.2-1.1-3.2-.2-.4-.3-.8-.5-1.3-.3-.8-.6-1.6-1-2.4-.2-.5-.5-1-.7-1.4-.3-.7-.7-1.4-1-2.1-.3-.5-.5-1-.8-1.5-.4-.7-.7-1.3-1.1-2-.1-.1-.2-.3-.2-.4-.5-.8-.9-1.5-1.4-2.3-.1-.1-.2-.3-.3-.4-.6-.9-1.1-1.7-1.7-2.5-.1-.2-.3-.4-.4-.6-.7-.9-1.3-1.8-2-2.6-.1-.2-.3-.3-.4-.5-.6-.8-1.3-1.5-2-2.2-.1-.1-.2-.3-.4-.4-.7-.8-1.5-1.5-2.3-2.3-.2-.2-.4-.3-.5-.5l-.7-.7c-.5-.5-1-.9-1.5-1.3l-.2-.2c-.8-.7-1.7-1.3-2.5-1.9-.2-.1-.4-.3-.6-.4-.9-.6-1.7-1.1-2.6-1.7L1335 740.9c-.6-.4-1.3-.7-1.9-1-.2-.1-.3-.2-.5-.2-.5-.3-1.1-.5-1.6-.7-.1 0-.1-.1-.2-.1h-.1c-.7-.3-1.3-.5-2-.7-.1 0-.3-.1-.4-.1-.7-.2-1.3-.4-1.9-.5h-.2l-1.8-.3h-.4c-.6-.1-1.2-.1-1.8-.1H1321.9c-.6 0-1.2 0-1.8.1h-.1c-.6.1-1.2.2-1.7.3-.1 0-.2 0-.3.1-.5.1-1.1.3-1.6.5-.1 0-.2.1-.3.1-.5.2-1 .5-1.5.8l-34 19.8c.5-.3 1-.5 1.5-.8.1 0 .2-.1.3-.1.5-.2 1-.4 1.6-.5.1 0 .2-.1.3-.1.6-.1 1.1-.3 1.7-.3h.1c.6-.1 1.2-.1 1.8-.1h.3c.6 0 1.2 0 1.8.1h.4l1.8.3h.2c.6.1 1.3.3 1.9.5.1 0 .3.1.4.1.7.2 1.3.4 2 .7.1 0 .2.1.3.1.5.2 1.1.5 1.6.7.2.1.3.2.5.2.6.3 1.3.6 1.9 1L1511.1 882c.9.5 1.7 1.1 2.6 1.7.2.1.4.3.6.4.8.6 1.7 1.2 2.5 1.9l.2.2c.8.6 1.5 1.3 2.3 2 .2.2.4.3.5.5.8.7 1.5 1.5 2.3 2.3.1.1.2.3.4.4.7.7 1.3 1.5 2 2.2.1.2.3.3.4.5.7.9 1.4 1.7 2 2.6.1.2.3.4.4.6.6.8 1.2 1.7 1.7 2.5.1.1.2.3.3.4.6.9 1.1 1.8 1.7 2.7.4.7.8 1.3 1.1 2 .3.5.6 1 .8 1.5.4.7.7 1.4 1 2.1.2.5.5 1 .7 1.4.3.8.7 1.6 1 2.4.2.4.4.8.5 1.3.4 1.1.8 2.2 1.1 3.2 0 .1.1.3.1.4v.1c.3 1 .6 2.1.8 3.1.1.3.1.7.2 1 .2.8.3 1.5.4 2.3.1.4.1.8.2 1.1.1.8.2 1.5.3 2.3 0 .3.1.7.1 1 .1 1.1.1 2.1.1 3.2l-.4 147.6c0 9-3.2 15.3-8.3 18.3l34-19.8c5.1-3 8.3-9.3 8.3-18.3l.4-147.6c.2-.9.2-1.8.1-2.8z"></path><path fill="#0C3461" d="m266.4 330-.2 88.2c0 11.8-8.4 16.5-18.6 10.6l-105.8-61.1.4-130.8L247.9 298c10.3 5.9 18.6 20.3 18.5 32zM1470.4 1616.4 1235 1480.5c-13.2-7.6-24-1.5-24 13.7l-.3 113.8c0 15.2 10.6 33.7 23.9 41.4l235.4 135.9c13.2 7.6 24 1.5 24-13.7l.3-113.8c0-15.2-10.7-33.7-23.9-41.4zM277.6 1032.1l-.2 83.6c0 11.2-7.9 15.7-17.7 10.1l-119.9-69.2.4-124 119.8 69.2c9.7 5.6 17.6 19.2 17.6 30.3zM953.5 468l-.1 33.5c0 16.8-11.9 23.5-26.5 15.1L806 446.8c-14.6-8.4-26.3-28.8-26.3-45.6l.1-33.4L953.5 468z" opacity=".5"></path><path fill="#AEC7E6" d="M202.3 324.3 28.1 223.8c-10.3-5.9-18.6-1.2-18.6 10.6l-.3 88.2c0 11.8 8.2 26.1 18.5 32l174.2 100.6c10.2 5.9 18.6 1.2 18.6-10.6l.2-88.2c.1-11.8-8.2-26.1-18.4-32.1z" opacity=".75"></path><path fill="#E9F0F7" d="M75.3 284.7c4.6 2.7 8.9 6.3 12.9 10.9 1.6 1.9 2.4 3.9 2.4 6 0 1.3-.4 2.3-1.2 3-.8.8-1.9.8-3.2 0-.9-.5-1.8-1.3-2.6-2.3-2.5-2.8-5.3-5.1-8.3-6.8-3.6-2.1-6.8-3.1-9.5-2.9-2.7.2-4.8 1.5-6.3 3.8-1.5 2.4-2.2 5.6-2.2 9.7 0 7.1 1.6 13.4 4.9 18.9 3.3 5.5 7.6 9.9 13 13 3.2 1.8 5.9 2.7 8.3 2.7.9.1 1.8.3 2.5.7 1.4.8 2.5 2.1 3.4 3.9.8 1.6 1.2 3 1.2 4.4 0 1-.2 1.7-.6 2.2-.4.5-1 .8-1.8.8-4.1 0-8.4-1.3-13-4-5.1-2.9-9.8-6.9-14-11.8-4.3-4.9-7.7-10.6-10.2-16.9-2.5-6.3-3.8-12.9-3.8-19.8 0-6.1 1.2-10.9 3.7-14.3 2.4-3.4 5.8-5.3 10.1-5.6s8.9 1.3 14.3 4.4zM116.5 308c3.3 1.9 6.4 4.2 9.2 7 2.9 2.8 5.3 5.7 7.2 8.6 1.5 2.2 2.3 4.3 2.2 6.1 0 1.4-.5 2.3-1.3 2.9-.9.5-1.9.5-3.1-.2-.8-.4-1.5-1.1-2.1-2-1.4-2-3.2-4.3-5.6-6.7-2.4-2.4-4.6-4.2-6.5-5.3-3.3-1.9-5.8-2.7-7.6-2.3-1.8.4-2.7 1.7-2.7 4 0 2.6.9 5 2.8 7.4 1.8 2.4 4.7 5.1 8.7 8.3 4.5 3.5 8 6.7 10.7 9.6 2.7 2.9 4.7 6 6 9.2 1.3 3.2 2 6.8 2 10.8 0 3.8-.9 6.5-2.8 8.3-1.9 1.8-4.3 2.5-7.4 2.3-3.1-.2-6.4-1.4-9.9-3.4-3.7-2.2-7.1-4.6-10-7.4-2.9-2.8-5.6-6.2-8.2-10.2-1.4-2.2-2.1-4.2-2.1-6 0-1.4.4-2.3 1.3-2.9.9-.5 2-.4 3.2.3 1 .6 1.9 1.4 2.6 2.6 2.1 3.2 4.1 5.8 6.1 7.8s4.3 3.8 7 5.4c2.9 1.7 5.4 2.4 7.5 2.1 2.1-.3 3.2-1.5 3.2-3.7 0-2.7-1-5.4-3.1-8.1-2.1-2.7-5.4-5.8-9.9-9.2-11.4-8.5-17.1-17.9-17-28.1 0-3.8.9-6.5 2.6-8.3 1.7-1.8 4.1-2.6 7-2.3 3 .1 6.3 1.3 10 3.4zM163 334.9c3.3 1.9 6.4 4.2 9.2 7 2.9 2.8 5.3 5.7 7.2 8.6 1.5 2.2 2.3 4.3 2.2 6.1 0 1.4-.5 2.3-1.3 2.9-.9.5-1.9.5-3.1-.2-.8-.5-1.5-1.1-2.1-2-1.4-2-3.2-4.3-5.6-6.7-2.4-2.4-4.6-4.2-6.5-5.3-3.3-1.9-5.8-2.7-7.6-2.3-1.8.4-2.7 1.7-2.7 4 0 2.6.9 5 2.8 7.4 1.8 2.4 4.7 5.1 8.7 8.3 4.5 3.5 8 6.7 10.7 9.6 2.7 2.9 4.7 6 6 9.2 1.3 3.2 2 6.8 2 10.8 0 3.8-.9 6.5-2.8 8.3-1.9 1.8-4.3 2.5-7.4 2.3-3.1-.2-6.4-1.4-9.9-3.4-3.7-2.2-7.1-4.6-10-7.4-2.9-2.8-5.6-6.2-8.2-10.2-1.4-2.2-2.1-4.2-2.1-6 0-1.4.4-2.3 1.3-2.9.9-.5 2-.4 3.2.3 1 .6 1.9 1.4 2.6 2.6 2.1 3.2 4.1 5.8 6.1 7.8s4.3 3.8 7 5.4c2.9 1.7 5.4 2.4 7.5 2.1 2.1-.3 3.2-1.5 3.2-3.7 0-2.7-1-5.4-3.1-8.1-2.1-2.7-5.4-5.8-9.9-9.2-11.4-8.5-17.1-17.9-17-28.1 0-3.8.9-6.5 2.6-8.3 1.7-1.8 4.1-2.6 7-2.3 3.1.1 6.4 1.3 10 3.4z"></path><path fill="#AEC7E6" d="m1424.8 1642.8-235.4-135.9c-13.2-7.6-24-1.5-24 13.7l-.3 113.8c0 15.2 10.6 33.7 23.9 41.4l235.4 135.9c13.2 7.6 24 1.5 24-13.7l.3-113.8c0-15.3-10.7-33.8-23.9-41.4z" opacity=".75"></path><path fill="#E9F0F7" d="M1395.2 1682.7c1.9 5.1 2.8 9.9 2.8 14.6 0 4.6-1 8.4-2.9 11.3-1.9 2.9-4.4 4.7-7.5 5.2-3.1.6-6.4-.1-9.8-2.1l-17.5-10.1-.1 21.9c0 2.1-.6 3.5-1.6 4.2-1.1.7-2.5.5-4.2-.5-1.7-1-3.1-2.4-4.1-4.4-1.1-2-1.6-4-1.6-6l.2-66.9c0-2 .6-3.3 1.8-4 1.2-.7 2.6-.5 4.4.5l23 13.3c3.4 2 6.7 5 9.8 9.2 2.9 4.2 5.4 8.8 7.3 13.8zm-10.5 13.2c.8-1.5 1.2-3.4 1.2-5.5 0-2.2-.4-4.4-1.1-6.9-.8-2.4-1.8-4.6-3-6.5-1.2-1.9-2.5-3.2-3.8-4l-17.5-10.1-.1 25.6 17.5 10.1c1.3.7 2.5.8 3.8.3 1.2-.4 2.2-1.4 3-3zM1327.6 1630.7c1.9 1.1 3.4 2.6 4.5 4.6 1.1 2 1.7 4 1.7 6.1l-.2 66.9c0 2-.6 3.3-1.8 4-1.2.6-2.8.4-4.6-.7-1.7-1-3.1-2.5-4.3-4.5-1.2-2-1.8-4.1-1.8-6.1l.1-27-32.1-18.5-.1 27c0 2-.6 3.3-1.9 3.9-1.3.6-2.8.4-4.4-.5-1.8-1-3.3-2.6-4.5-4.6-1.2-2-1.8-4-1.7-6.1l.2-66.9c0-2 .6-3.3 1.8-4 1.2-.7 2.8-.4 4.6.6 1.7 1 3.1 2.5 4.3 4.5 1.2 2 1.8 4.1 1.8 6.1l-.1 26.6 32.1 18.5.1-26.6c0-2 .6-3.3 1.9-3.9 1.2-.6 2.7-.4 4.4.6zM1262.1 1605.9c1.9 5.1 2.8 9.9 2.8 14.6 0 4.6-1 8.4-2.9 11.3-1.9 2.9-4.4 4.7-7.5 5.2-3.1.6-6.4-.1-9.8-2.1l-17.5-10.1-.1 21.9c0 2.1-.5 3.5-1.6 4.2-1.1.7-2.5.5-4.2-.5-1.7-1-3.1-2.4-4.1-4.4-1.1-2-1.6-4-1.6-6l.2-66.9c0-2 .6-3.3 1.8-4 1.2-.7 2.6-.5 4.4.5l23 13.3c3.4 2 6.7 5 9.8 9.2 2.9 4.2 5.4 8.8 7.3 13.8zm-10.5 13.2c.8-1.5 1.2-3.4 1.2-5.5 0-2.2-.4-4.5-1.1-6.9-.8-2.4-1.8-4.6-3-6.5-1.2-1.9-2.5-3.2-3.8-4l-17.5-10.1-.1 25.6 17.5 10.1c1.3.7 2.5.8 3.8.3 1.2-.5 2.2-1.5 3-3z"></path><path fill="#AEC7E6" d="M214.4 1028.1 17.9 914.7C8.2 909.1.3 913.6.2 924.8l-.2 83.5c0 11.2 7.8 24.8 17.5 30.4L214 1152.1c9.7 5.6 17.6 1.1 17.7-10.1l.2-83.6c0-11.1-7.8-24.7-17.5-30.3z" opacity=".75"></path><path fill="#E9F0F7" d="M184.2 1043.1c1.2.7 2.3 1.8 3.2 3.3.9 1.5 1.3 3 1.3 4.5l-.1 44.4 19.3 11.1c1.3.7 2.3 1.8 3.2 3.3.9 1.4 1.3 2.9 1.3 4.4 0 1.4-.4 2.3-1.3 2.8-.9.4-1.9.3-3.2-.5l-24-13.9c-1.3-.7-2.4-1.9-3.2-3.3-.9-1.5-1.3-3-1.3-4.4l.1-49.1c0-1.5.5-2.4 1.3-2.9.9-.7 2.1-.5 3.4.3zM57 969.6c1.4.8 2.5 1.9 3.3 3.4.8 1.4 1.2 2.9 1.2 4.5l-.1 49.1c0 1.5-.4 2.5-1.3 2.9-.9.5-2 .3-3.4-.5-1.2-.7-2.3-1.8-3.2-3.3-.9-1.5-1.3-3-1.3-4.5l.1-19.8-23.6-13.6-.1 19.8c0 1.5-.5 2.4-1.4 2.9-.9.5-2 .3-3.3-.4-1.3-.8-2.4-1.9-3.3-3.4-.9-1.5-1.3-3-1.3-4.4l.1-49.1c0-1.5.5-2.4 1.3-2.9.9-.5 2-.3 3.4.5 1.2.7 2.3 1.8 3.2 3.3.9 1.5 1.3 3 1.3 4.5l.1 19.4 23.6 13.6.1-19.5c0-1.5.5-2.4 1.4-2.9.9-.4 2-.3 3.2.4zM106.7 998.3c1.3.8 2.4 1.9 3.2 3.2.8 1.4 1.2 2.8 1.2 4.3s-.4 2.4-1.3 2.8c-.8.4-1.9.2-3.3-.6l-11.6-6.7-.1 44.5c0 1.5-.5 2.4-1.4 2.9-.9.5-2.1.3-3.5-.5s-2.5-1.9-3.4-3.5c-.9-1.5-1.3-3-1.3-4.5l.1-44.5-11.6-6.7c-1.3-.8-2.4-1.8-3.2-3.2-.8-1.4-1.3-2.8-1.2-4.3 0-1.4.4-2.3 1.3-2.7.9-.4 1.9-.2 3.2.5l32.9 19zM163.8 1031.2c1.2.7 2.3 1.8 3.2 3.3.9 1.5 1.4 3 1.4 4.5l-.1 49.2c0 1.5-.4 2.5-1.3 3-.8.5-2 .4-3.3-.4-1.4-.8-2.5-1.9-3.4-3.4-.9-1.5-1.3-3-1.3-4.5l.1-34.2-12.3 14.4c-.5.4-1.1.6-1.7.7-.6 0-1.1-.1-1.7-.4-.1 0-.2-.1-.3-.2-.1 0-.2-.1-.2-.1-.6-.3-1.1-.8-1.7-1.5-.6-.8-1.2-1.7-1.7-2.6l-12.1-29.2-.1 35c0 1.5-.4 2.6-1.2 3.1-.8.5-1.8.4-3.1-.4-1.2-.7-2.2-1.8-3-3.2-.8-1.4-1.2-2.9-1.2-4.4l.1-49.2c0-1.4.5-2.4 1.4-2.9.9-.5 2-.4 3.3.4.7.4 1.5 1.1 2.2 1.9.7.9 1.3 1.7 1.7 2.6l16 37.8 16.6-18.9c.4-.5.9-.7 1.6-.7.8-.3 1.5-.1 2.1.3z"></path><path fill="#AEC7E6" d="M881.8 356.9 761 287.1c-14.6-8.4-26.4-1.6-26.5 15.1l-.4 125.4c0 16.8 11.7 37.2 26.3 45.6L881.3 543c14.6 8.4 26.4 1.7 26.5-15.1l.4-125.4c0-16.8-11.8-37.2-26.4-45.6z" opacity=".75"></path><path fill="#E9F0F7" d="M803.6 360.2c2.1 1.2 3.7 2.9 5 5 1.3 2.2 1.9 4.4 1.9 6.7l-.2 53.5c0 5.1-1.2 9.2-3.6 12.4-2.4 3.1-5.6 4.9-9.7 5.2-4.1.3-8.5-.9-13.3-3.7-4.2-2.4-8.1-5.7-11.8-9.8-3.6-4.1-6.6-8.6-8.8-13.5-.9-2-1.3-3.8-1.3-5.2 0-2 .7-3.4 2.1-4.1 1.4-.7 2.9-.6 4.3.3 1.9 1.1 4 3.6 6.2 7.4 1.4 2.3 2.8 4.3 4.3 5.7 1.5 1.5 3.1 2.8 5 3.8 2.1 1.2 4.2 1.8 6.2 1.6 2-.1 3.5-.9 4.7-2.4 1.2-1.5 1.8-3.4 1.8-5.8l.2-53.5c0-2.2.7-3.6 2.1-4.3 1.4-.6 3-.4 4.9.7zM852.1 387c4.7 2.7 9 6 13.1 10s7.5 8.1 10.2 12.3c2.1 3.2 3.2 6.1 3.2 8.6 0 2-.6 3.3-1.9 4.1-1.3.8-2.7.7-4.4-.3-1.1-.6-2.1-1.6-3-2.9-1.9-2.9-4.6-6.1-8-9.5-3.4-3.5-6.5-6-9.3-7.6-4.7-2.7-8.3-3.8-10.8-3.3-2.6.5-3.8 2.4-3.9 5.6 0 3.7 1.3 7.2 3.9 10.6 2.6 3.4 6.7 7.3 12.4 11.7 6.4 4.9 11.4 9.5 15.2 13.7 3.8 4.2 6.7 8.6 8.6 13.1 1.9 4.6 2.9 9.7 2.8 15.4 0 5.4-1.3 9.3-4 11.8-2.6 2.5-6.1 3.6-10.5 3.3-4.4-.3-9.1-2-14.1-4.9-5.3-3.1-10.1-6.6-14.2-10.5-4.1-3.9-8-8.8-11.6-14.5-2-3.2-3-6-3-8.5 0-1.9.6-3.3 1.9-4.1 1.3-.8 2.8-.6 4.6.4 1.4.8 2.7 2.1 3.8 3.7 3 4.5 5.8 8.2 8.6 11.1 2.8 2.9 6.1 5.5 10 7.7 4.1 2.4 7.7 3.4 10.7 3 3-.4 4.5-2.2 4.5-5.3 0-3.8-1.5-7.7-4.4-11.6-2.9-3.9-7.6-8.2-14.1-13-16.2-12.1-24.3-25.4-24.2-40 0-5.4 1.2-9.3 3.7-11.8 2.4-2.6 5.8-3.6 10-3.3 4.4.3 9.1 2 14.2 5z"></path><path fill="#114077" d="M489.8 1532s-24.6 68.4-30.2 91.1c-12.1 48.4 164.5 132.2 185 144.1 20.5 11.8 75.8-.5 92.1-47.6 16.4-47 16.5-92.6 11-123.2-2.9-16.1-165.1-94.6-213.8-94.4-16.7.1-33.9 2.8-44.1 30z"></path><path fill="#0C325D" d="M736.7 1719.7c-9.9 28.4-34 44.2-56.1 49.6 17.6-29 43.2-77.2 42.9-110.7-.2-33.9-7.4-68.8-12.3-88.5 21.1 11.8 35.5 21.8 36.4 26.5 5.5 30.5 5.4 76-10.9 123.1z"></path><path fill="#114077" d="M108.9 1600.5c32.4-12.8 149.6-52.7 230.4-57.1s127.7-5.3 146.5-1.2c90.3 19.9 184.1 132 104 176.8-5 2.8-34.8 5.5-92.8 4.7-97.5-1.3-281.2-2.4-330-17.1s-94.6-91.6-58.1-106.1z"></path><path d="M589.8 1719c-5 2.8-34.8 5.5-92.8 4.7-97.5-1.3-281.2-2.4-330-17.1-19-5.7-37.4-20.8-50.8-37.9 43.5-23.6 104.3-48.6 126.3-39.7 44.7 18 76.6 42 99.6 46.5 23.1 4.5 147-.9 166.1-10.3 19.1-9.4 49.5-25.8 49.5-25.8l50.2-3.9c18.9 30.8 18.4 63.1-18.1 83.5z" opacity=".35"></path><path fill="#114077" d="M412.1 1883.6c-34.9-25-89-66.5-143.3-95.7-54.3-29.2-124.4-70.4-161-105.4-1.6-1.6-3.2-3.1-4.6-4.7-30.9-33.4-19.7-66.7 4.3-76.7 30-12.5 86.5 3.6 101.4 9.7 45 18.5 97.5 68.4 122.7 88.9 8.9 7.3 27.3 21.4 47.8 37 37.4 28.5 81.9 61.6 88.5 66 21.4 14.5-26.3 102.1-55.8 80.9z"></path><path fill="#0C325D" d="M412.1 1883.6c-34.9-25-89-66.5-143.3-95.7-54.3-29.2-124.4-70.4-161-105.4-1.6-1.6-3.2-3.1-4.6-4.7 1.8 1.3 3.4 2.6 5 3.6 11.5 7.6 23 15.2 34.6 22.7 26.2 17.2 53 34.7 83.6 41.8 50.1 11.5 101.8-6.7 153.1-9.2 37.4 28.5 81.9 61.6 88.5 66 21.3 14.5-26.4 102.1-55.9 80.9z"></path><path fill="#071F3B" d="M462.2 1809.1c8.3 3.8 12.2.9 20.1-4.4 7.9-5.3 15.3-13.1 34.2-13.5 18.9-.4 27.3 15.2 31.6 28.6 4.3 13.4.7 32.2-3 42-3.7 9.9-5.8 12-7.7 30.2-1.3 12.8.6 27.4-.7 52.2-1.3 24.9-2.8 42.3-15.6 50.9-8.3 5.6-30.1 9.7-47.1-7.8-15.8-16.2-18.5-45-20.7-64-2.2-19-30.5-42.5-37.7-47.6-7.7-5.3 28-75 46.6-66.6z"></path><path fill="#425366" d="M545.1 1861.9c-3.7 9.9-5.8 12-7.7 30.2-1.3 12.8.6 27.4-.7 52.2-1.3 24.9-2.8 42.3-15.6 50.9-.1.1-.2.1-.3.2-4.7 1.3-10.1.7-16.2-2.4-34.6-17.4-25.3-59.7-14.5-87.2 7.2-18.4 11.6-37.9 12.7-57.7 1.2-22.5 12.6-56.9 27.9-53.7 9.4 5.2 14.5 15.9 17.5 25.4 4.2 13.5.6 32.2-3.1 42.1z"></path><path fill="#071F3B" d="M474.6 1732.6c.3-12.8-1.7-20.8-10.9-29.4-7.9-7.4-19.4-9.5-36.1-6.5-28.2 5.1-51.8 19.2-60.8 18.9-22.1-.7-84.8-32-124.7-2.6-39.9 29.5-26.3 62.6 16.4 69.6 23.8 3.9 83.1-7.2 137.5 12.2 6.1 2.2 19.2 9.8 26.4 15.5 26.7 21.4 77.8-41.1 50.7-52.2l1.5-25.5z"></path><path fill="#114077" d="M603 1902c-14.9 9.4-54.4 20.4-70.7 8.2 0 0-114.2-95.6-132.8-110.3-8-6.3-5.3-20.8 3.6-33.6 11.9-17.2 34.8-31.5 58.2-19.6 33.6 17.2 47.5 20.3 60.6 23 2.8.6 5.6 1.1 8.4 1.8 16.3 3.8 63 4.5 90.1 49 27.1 44.4-2.5 72.1-17.4 81.5z"></path><path fill="#0C325D" d="M603 1902c-14.9 9.4-54.4 20.4-70.7 8.2 0 0-114.2-95.6-132.8-110.3-8-6.3-5.3-20.8 3.6-33.6 24.3 18.8 102 81.9 110.2 83.2 7.5 1.2 80-73.5 107.1-29 27.1 44.4-2.5 72.1-17.4 81.5z"></path><path fill="#303030" d="M555.9 1645.9s-31.1 141.4-35.3 171.4c-4.3 29.9-21.5 56.2 5.8 87 27.2 30.8 66.4 16.9 101.9-22S718.6 1771 734.2 1726c15.6-44.9-18.6-95.1-71-112.4-52.5-17.3-97.6-12.4-107.3 32.3z"></path><path fill="#114077" d="M734.1 1726c-15.6 44.9-70.4 117.4-105.9 156.3-35.5 38.9-74.7 52.8-101.9 22-3.9-4.5-7-8.8-9.2-13.1-.2-.3-.3-.6-.4-.9-.2-.5-.5-1-.7-1.5-.1-.3-.3-.5-.4-.8-.2-.5-.5-1.1-.7-1.6-.1-.3-.2-.5-.3-.8-.1-.2-.2-.5-.3-.7-8.4-22.9 2.9-44.1 6.2-67.6 4.3-29.9 35.3-171.4 35.3-171.4 9.7-44.8 54.9-49.7 107.2-32.3 25.8 8.5 47.2 25 60.4 44.9 13.7 20.6 18.6 44.7 10.7 67.5z"></path><path fill="#0C325D" d="M734.1 1726c-15.6 44.9-70.4 117.4-105.9 156.3-35.5 38.9-74.7 52.8-101.9 22-3.9-4.5-7-8.8-9.2-13.1-.2-.3-.3-.6-.4-.9-.2-.5-.5-1-.7-1.5-.1-.3-.3-.5-.4-.8-.2-.5-.5-1.1-.7-1.6-.1-.3-.2-.5-.3-.8-.1-.2-.2-.5-.3-.7 4.5 3.2 9.6 5.8 14.9 7.3 21.5 6.3 45.1-.7 63.6-13.3 18.5-12.6 32.8-30.3 46.9-47.7 36.7-45.5 74.6-93.5 85-151 2-8.5-1-21.2-1.2-21.8 13.6 20.7 18.5 44.8 10.6 67.6z"></path><path fill="#AEC7E6" d="M197 1667.2c0 1 .7 2.1 2.1 2.9l236.5 136.5c.3.2.7.4 1.1.5.1 0 .1 0 .2.1.3.1.6.2 1 .3h.2c.4.1.7.1 1.1.2h.2c.4 0 .8.1 1.2.1h.2c.4 0 .8 0 1.2-.1h.2c.3 0 .6-.1.8-.1.2 0 .5-.1.7-.2.2-.1.4-.1.5-.2.5-.2 1-.4 1.4-.6l159-92.4c.2-.1.3-.2.4-.3.2-.1.4-.2.5-.4l.6-.6.1-.1c.1-.2.3-.4.3-.6v-.1c.1-.2.1-.5.1-.7v6.9c0 .1 0 .2-.1.3v.2c-.1.1-.1.3-.2.4 0 .1-.1.1-.1.2 0 0 0 .1-.1.1 0 0 0 .1-.1.1-.1.2-.3.3-.4.5-.1.1-.3.2-.5.4l-.3.3s-.1 0-.1.1l-159 92.4c-.4.2-.9.4-1.4.6-.1 0-.1.1-.2.1s-.2.1-.4.1c-.2.1-.5.1-.7.2-.1 0-.2 0-.3.1-.2 0-.4.1-.6.1H441.8c-.3 0-.5 0-.8.1H438.9c-.2 0-.5-.1-.7-.1h-.4c-.1 0-.2-.1-.4-.1-.2-.1-.4-.1-.6-.2-.1 0-.1 0-.2-.1h-.1c-.4-.1-.7-.3-1-.5L199 1677.1c-1.4-.8-2.1-1.8-2.1-2.9l.1-7z"></path><path fill="#E9F0F7" d="M604.3 1708.5c2.7 1.6 2.7 4.1 0 5.7l-159 92.4c-2.7 1.6-7.1 1.6-9.8 0L199 1670.1c-2.7-1.6-2.7-4.1 0-5.7l159-92.4c2.7-1.6 7.1-1.6 9.9 0l236.4 136.5z"></path><path fill="#AEC7E6" d="m322.7 1607.4-91.4 52.8 219 126.4 91.4-52.8z"></path><path fill="#0C3461" d="M332.3 1617.5c1.1-.6 1.2-1.6.3-2.1l-8.4-4.9c-.9-.5-2.6-.5-3.7.2l-9.7 5.6c-1.1.6-1.2 1.6-.3 2.1l8.4 4.9c.9.5 2.6.5 3.7-.2l9.7-5.6zM346.3 1625.5c1.1-.6 1.2-1.6.3-2.1l-8.4-4.9c-.9-.5-2.6-.5-3.7.2l-9.7 5.6c-1.1.6-1.2 1.6-.3 2.1l8.4 4.9c.9.5 2.6.5 3.7-.2l9.7-5.6zM360.3 1633.6c1.1-.6 1.2-1.6.3-2.1l-8.4-4.9c-.9-.5-2.6-.5-3.7.2l-9.7 5.6c-1.1.6-1.2 1.6-.3 2.1l8.4 4.9c.9.5 2.6.5 3.7-.2l9.7-5.6zM494.3 1711c1.1-.6 1.2-1.6.3-2.1l-8.4-4.9c-.9-.5-2.6-.5-3.7.2l-9.7 5.6c-1.1.6-1.2 1.6-.3 2.1l8.4 4.9c.9.5 2.6.5 3.7-.2l9.7-5.6zM385.4 1648.1c1.1-.6 1.2-1.6.3-2.1l-19.5-11.3c-.9-.5-2.6-.5-3.7.2l-9.7 5.6c-1.1.6-1.2 1.6-.3 2.1l19.5 11.3c.9.5 2.6.5 3.7-.2l9.7-5.6zM480.3 1702.9c1.1-.6 1.2-1.6.3-2.1l-19.5-11.3c-.9-.5-2.6-.5-3.7.2l-9.7 5.6c-1.1.6-1.2 1.6-.3 2.1l19.5 11.3c.9.5 2.6.5 3.7-.2l9.7-5.6zM455.2 1688.4c1.1-.6 1.2-1.6.3-2.1l-64.3-37.1c-.9-.5-2.6-.5-3.7.2l-9.7 5.6c-1.1.6-1.2 1.6-.3 2.1l64.3 37.1c.9.5 2.6.5 3.7-.2l9.7-5.6zM508.2 1719c1.1-.6 1.2-1.6.3-2.1l-8.4-4.9c-.9-.5-2.6-.5-3.7.2l-2.9 1.7c-1.1.6-1.2 1.6-.3 2.1l8.4 4.9c.9.5 2.6.5 3.7-.2l2.9-1.7zM522.2 1727.1c1.1-.6 1.2-1.6.3-2.1l-8.4-4.9c-.9-.5-2.6-.5-3.7.2l-2.9 1.7c-1.1.6-1.2 1.6-.3 2.1l8.4 4.9c.9.5 2.6.5 3.7-.2l2.9-1.7z"></path><path fill="#0C3461" d="M515.4 1731c1.1-.6 1.2-1.6.3-2.1l-8.4-4.9c-.9-.5-2.6-.5-3.7.2l-2.9 1.7c-1.1.6-1.2 1.6-.3 2.1l8.4 4.9c.9.5 2.6.5 3.7-.2l2.9-1.7zM536.2 1735.2c1.1-.6 1.2-1.6.3-2.1l-8.4-4.9c-.9-.5-2.6-.5-3.7.2l-2.9 1.7c-1.1.6-1.2 1.6-.3 2.1l8.4 4.9c.9.5 2.6.5 3.7-.2l2.9-1.7zM253.3 1665c1.1-.6 1.2-1.6.3-2.1l-10-5.8c-.9-.5-2.6-.5-3.7.2l-2.9 1.7c-1.1.6-1.2 1.6-.3 2.1l10 5.8c.9.5 2.6.5 3.7-.2l2.9-1.7zM268.8 1673.9c1.1-.6 1.2-1.6.3-2.1l-10-5.8c-.9-.5-2.6-.5-3.7.2l-2.9 1.7c-1.1.6-1.2 1.6-.3 2.1l10 5.8c.9.5 2.6.5 3.7-.2l2.9-1.7zM284.4 1682.9c1.1-.6 1.2-1.6.3-2.1l-10-5.8c-.9-.5-2.6-.5-3.7.2l-2.9 1.7c-1.1.6-1.2 1.6-.3 2.1l10 5.8c.9.5 2.6.5 3.7-.2l2.9-1.7zM299.9 1691.9c1.1-.6 1.2-1.6.3-2.1l-10-5.8c-.9-.5-2.6-.5-3.7.2l-2.9 1.7c-1.1.6-1.2 1.6-.3 2.1l10 5.8c.9.5 2.6.5 3.7-.2l2.9-1.7zM315.5 1700.9c1.1-.6 1.2-1.6.3-2.1l-10-5.8c-.9-.5-2.6-.5-3.7.2l-2.9 1.7c-1.1.6-1.2 1.6-.3 2.1l10 5.8c.9.5 2.6.5 3.7-.2l2.9-1.7zM331.1 1709.9c1.1-.6 1.2-1.6.3-2.1l-10-5.8c-.9-.5-2.6-.5-3.7.2l-2.9 1.7c-1.1.6-1.2 1.6-.3 2.1l10 5.8c.9.5 2.6.5 3.7-.2l2.9-1.7zM346.6 1718.8c1.1-.6 1.2-1.6.3-2.1l-10-5.8c-.9-.5-2.6-.5-3.7.2l-2.9 1.7c-1.1.6-1.2 1.6-.3 2.1l10 5.8c.9.5 2.6.5 3.7-.2l2.9-1.7zM362.2 1727.8c1.1-.6 1.2-1.6.3-2.1l-10-5.8c-.9-.5-2.6-.5-3.7.2l-2.9 1.7c-1.1.6-1.2 1.6-.3 2.1l10 5.8c.9.5 2.6.5 3.7-.2l2.9-1.7zM377.7 1736.8c1.1-.6 1.2-1.6.3-2.1l-10-5.8c-.9-.5-2.6-.5-3.7.2l-2.9 1.7c-1.1.6-1.2 1.6-.3 2.1l10 5.8c.9.5 2.6.5 3.7-.2l2.9-1.7zM393.3 1745.8c1.1-.6 1.2-1.6.3-2.1l-10-5.8c-.9-.5-2.6-.5-3.7.2l-2.9 1.7c-1.1.6-1.2 1.6-.3 2.1l10 5.8c.9.5 2.6.5 3.7-.2l2.9-1.7zM408.9 1754.8c1.1-.6 1.2-1.6.3-2.1l-10-5.8c-.9-.5-2.6-.5-3.7.2l-2.9 1.7c-1.1.6-1.2 1.6-.3 2.1l10 5.8c.9.5 2.6.5 3.7-.2l2.9-1.7zM424.4 1763.8c1.1-.6 1.2-1.6.3-2.1l-10-5.8c-.9-.5-2.6-.5-3.7.2l-2.9 1.7c-1.1.6-1.2 1.6-.3 2.1l10 5.8c.9.5 2.6.5 3.7-.2l2.9-1.7zM440 1772.7c1.1-.6 1.2-1.6.3-2.1l-10-5.8c-.9-.5-2.6-.5-3.7.2l-2.9 1.7c-1.1.6-1.2 1.6-.3 2.1l10 5.8c.9.5 2.6.5 3.7-.2l2.9-1.7zM455.5 1781.7c1.1-.6 1.2-1.6.3-2.1l-10-5.8c-.9-.5-2.6-.5-3.7.2l-2.9 1.7c-1.1.6-1.2 1.6-.3 2.1l10 5.8c.9.5 2.6.5 3.7-.2l2.9-1.7zM267.8 1654.7c1.1-.6 1.2-1.6.3-2.1l-8.4-4.9c-.9-.5-2.6-.5-3.7.2l-9.7 5.6c-1.1.6-1.2 1.6-.3 2.1l8.4 4.9c.9.5 2.6.5 3.7-.2l9.7-5.6zM281.8 1662.8c1.1-.6 1.2-1.6.3-2.1l-8.4-4.9c-.9-.5-2.6-.5-3.7.2l-9.7 5.6c-1.1.6-1.2 1.6-.3 2.1l8.4 4.9c.9.5 2.6.5 3.7-.2l9.7-5.6zM295.7 1670.8c1.1-.6 1.2-1.6.3-2.1l-8.4-4.9c-.9-.5-2.6-.5-3.7.2l-9.7 5.6c-1.1.6-1.2 1.6-.3 2.1l8.4 4.9c.9.5 2.6.5 3.7-.2l9.7-5.6zM309.7 1678.9c1.1-.6 1.2-1.6.3-2.1l-8.4-4.9c-.9-.5-2.6-.5-3.7.2l-9.7 5.6c-1.1.6-1.2 1.6-.3 2.1l8.4 4.9c.9.5 2.6.5 3.7-.2l9.7-5.6zM323.7 1687c1.1-.6 1.2-1.6.3-2.1l-8.4-4.9c-.9-.5-2.6-.5-3.7.2l-9.7 5.6c-1.1.6-1.2 1.6-.3 2.1l8.4 4.9c.9.5 2.6.5 3.7-.2l9.7-5.6zM337.7 1695c1.1-.6 1.2-1.6.3-2.1l-8.4-4.9c-.9-.5-2.6-.5-3.7.2l-9.7 5.6c-1.1.6-1.2 1.6-.3 2.1l8.4 4.9c.9.5 2.6.5 3.7-.2l9.7-5.6zM351.6 1703.1c1.1-.6 1.2-1.6.3-2.1l-8.4-4.9c-.9-.5-2.6-.5-3.7.2l-9.7 5.6c-1.1.6-1.2 1.6-.3 2.1l8.4 4.9c.9.5 2.6.5 3.7-.2l9.7-5.6zM365.6 1711.2c1.1-.6 1.2-1.6.3-2.1l-8.4-4.9c-.9-.5-2.6-.5-3.7.2l-9.7 5.6c-1.1.6-1.2 1.6-.3 2.1l8.4 4.9c.9.5 2.6.5 3.7-.2l9.7-5.6zM379.6 1719.2c1.1-.6 1.2-1.6.3-2.1l-8.4-4.9c-.9-.5-2.6-.5-3.7.2l-9.7 5.6c-1.1.6-1.2 1.6-.3 2.1l8.4 4.9c.9.5 2.6.5 3.7-.2l9.7-5.6zM393.5 1727.3c1.1-.6 1.2-1.6.3-2.1l-8.4-4.9c-.9-.5-2.6-.5-3.7.2l-9.7 5.6c-1.1.6-1.2 1.6-.3 2.1l8.4 4.9c.9.5 2.6.5 3.7-.2l9.7-5.6zM407.5 1735.4c1.1-.6 1.2-1.6.3-2.1l-8.4-4.9c-.9-.5-2.6-.5-3.7.2l-9.7 5.6c-1.1.6-1.2 1.6-.3 2.1l8.4 4.9c.9.5 2.6.5 3.7-.2l9.7-5.6zM421.5 1743.4c1.1-.6 1.2-1.6.3-2.1l-8.4-4.9c-.9-.5-2.6-.5-3.7.2l-9.7 5.6c-1.1.6-1.2 1.6-.3 2.1l8.4 4.9c.9.5 2.6.5 3.7-.2l9.7-5.6zM435.4 1751.5c1.1-.6 1.2-1.6.3-2.1l-8.4-4.9c-.9-.5-2.6-.5-3.7.2l-9.7 5.6c-1.1.6-1.2 1.6-.3 2.1l8.4 4.9c.9.5 2.6.5 3.7-.2l9.7-5.6zM449.4 1759.6c1.1-.6 1.2-1.6.3-2.1l-8.4-4.9c-.9-.5-2.6-.5-3.7.2l-9.7 5.6c-1.1.6-1.2 1.6-.3 2.1l8.4 4.9c.9.5 2.6.5 3.7-.2l9.7-5.6zM471.7 1772.4c1.1-.6 1.2-1.6.3-2.1l-16.7-9.6c-.9-.5-2.6-.5-3.7.2l-9.7 5.6c-1.1.6-1.2 1.6-.3 2.1l16.7 9.6c.9.5 2.6.5 3.7-.2l9.7-5.6zM466.3 1761.9c-1.1.6-1.2 1.6-.3 2.1l8.4 4.9c.9.5 2.6.5 3.7-.2l9.7-5.6c1.1-.6 1.2-1.6.3-2.1l-8.4-4.9c-.9-.5-2.6-.5-3.7.2l-9.7 5.6zM452.3 1753.8c-1.1.6-1.2 1.6-.3 2.1l8.4 4.9c.9.5 2.6.5 3.7-.2l9.7-5.6c1.1-.6 1.2-1.6.3-2.1l-8.4-4.9c-.9-.5-2.6-.5-3.7.2l-9.7 5.6zM438.3 1745.7c-1.1.6-1.2 1.6-.3 2.1l8.4 4.9c.9.5 2.6.5 3.7-.2l9.7-5.6c1.1-.6 1.2-1.6.3-2.1l-8.4-4.9c-.9-.5-2.6-.5-3.7.2l-9.7 5.6zM424.4 1737.7c-1.1.6-1.2 1.6-.3 2.1l8.4 4.9c.9.5 2.6.5 3.7-.2l9.7-5.6c1.1-.6 1.2-1.6.3-2.1l-8.4-4.9c-.9-.5-2.6-.5-3.7.2l-9.7 5.6zM410.4 1729.6c-1.1.6-1.2 1.6-.3 2.1l8.4 4.9c.9.5 2.6.5 3.7-.2l9.7-5.6c1.1-.6 1.2-1.6.3-2.1l-8.4-4.9c-.9-.5-2.6-.5-3.7.2l-9.7 5.6zM396.4 1721.5c-1.1.6-1.2 1.6-.3 2.1l8.4 4.9c.9.5 2.6.5 3.7-.2l9.7-5.6c1.1-.6 1.2-1.6.3-2.1l-8.4-4.9c-.9-.5-2.6-.5-3.7.2l-9.7 5.6zM382.4 1713.5c-1.1.6-1.2 1.6-.3 2.1l8.4 4.9c.9.5 2.6.5 3.7-.2l9.7-5.6c1.1-.6 1.2-1.6.3-2.1l-8.4-4.9c-.9-.5-2.6-.5-3.7.2l-9.7 5.6zM368.5 1705.4c-1.1.6-1.2 1.6-.3 2.1l8.4 4.9c.9.5 2.6.5 3.7-.2l9.7-5.6c1.1-.6 1.2-1.6.3-2.1l-8.4-4.9c-.9-.5-2.6-.5-3.7.2l-9.7 5.6zM354.5 1697.3c-1.1.6-1.2 1.6-.3 2.1l8.4 4.9c.9.5 2.6.5 3.7-.2l9.7-5.6c1.1-.6 1.2-1.6.3-2.1l-8.4-4.9c-.9-.5-2.6-.5-3.7.2l-9.7 5.6zM340.5 1689.3c-1.1.6-1.2 1.6-.3 2.1l8.4 4.9c.9.5 2.6.5 3.7-.2l9.7-5.6c1.1-.6 1.2-1.6.3-2.1l-8.4-4.9c-.9-.5-2.6-.5-3.7.2l-9.7 5.6zM326.6 1681.2c-1.1.6-1.2 1.6-.3 2.1l8.4 4.9c.9.5 2.6.5 3.7-.2l9.7-5.6c1.1-.6 1.2-1.6.3-2.1l-8.4-4.9c-.9-.5-2.6-.5-3.7.2l-9.7 5.6zM312.6 1673.1c-1.1.6-1.2 1.6-.3 2.1l8.4 4.9c.9.5 2.6.5 3.7-.2l9.7-5.6c1.1-.6 1.2-1.6.3-2.1l-8.4-4.9c-.9-.5-2.6-.5-3.7.2l-9.7 5.6zM298.6 1665.1c-1.1.6-1.2 1.6-.3 2.1l8.4 4.9c.9.5 2.6.5 3.7-.2l9.7-5.6c1.1-.6 1.2-1.6.3-2.1l-8.4-4.9c-.9-.5-2.6-.5-3.7.2l-9.7 5.6zM284.6 1657c-1.1.6-1.2 1.6-.3 2.1l8.4 4.9c.9.5 2.6.5 3.7-.2l9.7-5.6c1.1-.6 1.2-1.6.3-2.1l-8.4-4.9c-.9-.5-2.6-.5-3.7.2l-9.7 5.6zM262.4 1644.2c-1.1.6-1.2 1.6-.3 2.1l16.7 9.6c.9.5 2.6.5 3.7-.2l9.7-5.6c1.1-.6 1.2-1.6.3-2.1l-16.7-9.6c-.9-.5-2.6-.5-3.7.2l-9.7 5.6zM450.3 1734c-1.1.6-1.2 1.6-.3 2.1l8.4 4.9c.9.5 2.6.5 3.7-.2l9.7-5.6c1.1-.6 1.2-1.6.3-2.1l-8.4-4.9c-.9-.5-2.6-.5-3.7.2l-9.7 5.6zM436.3 1726c-1.1.6-1.2 1.6-.3 2.1l8.4 4.9c.9.5 2.6.5 3.7-.2l9.7-5.6c1.1-.6 1.2-1.6.3-2.1l-8.4-4.9c-.9-.5-2.6-.5-3.7.2l-9.7 5.6zM422.4 1717.9c-1.1.6-1.2 1.6-.3 2.1l8.4 4.9c.9.5 2.6.5 3.7-.2l9.7-5.6c1.1-.6 1.2-1.6.3-2.1l-8.4-4.9c-.9-.5-2.6-.5-3.7.2l-9.7 5.6zM408.4 1709.8c-1.1.6-1.2 1.6-.3 2.1l8.4 4.9c.9.5 2.6.5 3.7-.2l9.7-5.6c1.1-.6 1.2-1.6.3-2.1l-8.4-4.9c-.9-.5-2.6-.5-3.7.2l-9.7 5.6zM394.4 1701.8c-1.1.6-1.2 1.6-.3 2.1l8.4 4.9c.9.5 2.6.5 3.7-.2l9.7-5.6c1.1-.6 1.2-1.6.3-2.1l-8.4-4.9c-.9-.5-2.6-.5-3.7.2l-9.7 5.6zM380.5 1693.7c-1.1.6-1.2 1.6-.3 2.1l8.4 4.9c.9.5 2.6.5 3.7-.2l9.7-5.6c1.1-.6 1.2-1.6.3-2.1l-8.4-4.9c-.9-.5-2.6-.5-3.7.2l-9.7 5.6zM366.5 1685.6c-1.1.6-1.2 1.6-.3 2.1l8.4 4.9c.9.5 2.6.5 3.7-.2l9.7-5.6c1.1-.6 1.2-1.6.3-2.1l-8.4-4.9c-.9-.5-2.6-.5-3.7.2l-9.7 5.6zM352.5 1677.6c-1.1.6-1.2 1.6-.3 2.1l8.4 4.9c.9.5 2.6.5 3.7-.2l9.7-5.6c1.1-.6 1.2-1.6.3-2.1l-8.4-4.9c-.9-.5-2.6-.5-3.7.2l-9.7 5.6zM338.6 1669.5c-1.1.6-1.2 1.6-.3 2.1l8.4 4.9c.9.5 2.6.5 3.7-.2l9.7-5.6c1.1-.6 1.2-1.6.3-2.1l-8.4-4.9c-.9-.5-2.6-.5-3.7.2l-9.7 5.6zM324.6 1661.4c-1.1.6-1.2 1.6-.3 2.1l8.4 4.9c.9.5 2.6.5 3.7-.2l9.7-5.6c1.1-.6 1.2-1.6.3-2.1l-8.4-4.9c-.9-.5-2.6-.5-3.7.2l-9.7 5.6zM310.6 1653.4c-1.1.6-1.2 1.6-.3 2.1l8.4 4.9c.9.5 2.6.5 3.7-.2l9.7-5.6c1.1-.6 1.2-1.6.3-2.1l-8.4-4.9c-.9-.5-2.6-.5-3.7.2l-9.7 5.6zM318.2 1646.5c1.1-.6 1.2-1.6.3-2.1l-26.5-15.3c-.9-.5-2.6-.5-3.7.2l-9.7 5.6c-1.1.6-1.2 1.6-.3 2.1l26.5 15.3c.9.5 2.6.5 3.7-.2l9.7-5.6zM474 1736.5c1.1-.6 2.7-.7 3.7-.2l26.5 15.3c.9.5.8 1.5-.3 2.1l-9.7 5.6c-1.1.6-2.7.7-3.7.2l-26.5-15.3c-.9-.5-.8-1.5.3-2.1l9.7-5.6zM459.5 1720.7c-1.1.6-1.2 1.6-.3 2.1l8.4 4.9c.9.5 2.6.5 3.7-.2l9.7-5.6c1.1-.6 1.2-1.6.3-2.1l-8.4-4.9c-.9-.5-2.6-.5-3.7.2l-9.7 5.6zM445.5 1712.6c-1.1.6-1.2 1.6-.3 2.1l8.4 4.9c.9.5 2.6.5 3.7-.2l9.7-5.6c1.1-.6 1.2-1.6.3-2.1l-8.4-4.9c-.9-.5-2.6-.5-3.7.2l-9.7 5.6zM431.5 1704.6c-1.1.6-1.2 1.6-.3 2.1l8.4 4.9c.9.5 2.6.5 3.7-.2l9.7-5.6c1.1-.6 1.2-1.6.3-2.1l-8.4-4.9c-.9-.5-2.6-.5-3.7.2l-9.7 5.6zM417.6 1696.5c-1.1.6-1.2 1.6-.3 2.1l8.4 4.9c.9.5 2.6.5 3.7-.2l9.7-5.6c1.1-.6 1.2-1.6.3-2.1l-8.4-4.9c-.9-.5-2.6-.5-3.7.2l-9.7 5.6zM403.6 1688.4c-1.1.6-1.2 1.6-.3 2.1l8.4 4.9c.9.5 2.6.5 3.7-.2l9.7-5.6c1.1-.6 1.2-1.6.3-2.1l-8.4-4.9c-.9-.5-2.6-.5-3.7.2l-9.7 5.6zM389.6 1680.4c-1.1.6-1.2 1.6-.3 2.1l8.4 4.9c.9.5 2.6.5 3.7-.2l9.7-5.6c1.1-.6 1.2-1.6.3-2.1l-8.4-4.9c-.9-.5-2.6-.5-3.7.2l-9.7 5.6zM375.6 1672.3c-1.1.6-1.2 1.6-.3 2.1l8.4 4.9c.9.5 2.6.5 3.7-.2l9.7-5.6c1.1-.6 1.2-1.6.3-2.1l-8.4-4.9c-.9-.5-2.6-.5-3.7.2l-9.7 5.6zM361.7 1664.2c-1.1.6-1.2 1.6-.3 2.1l8.4 4.9c.9.5 2.6.5 3.7-.2l9.7-5.6c1.1-.6 1.2-1.6.3-2.1l-8.4-4.9c-.9-.5-2.6-.5-3.7.2l-9.7 5.6zM347.7 1656.2c-1.1.6-1.2 1.6-.3 2.1l8.4 4.9c.9.5 2.6.5 3.7-.2l9.7-5.6c1.1-.6 1.2-1.6.3-2.1l-8.4-4.9c-.9-.5-2.6-.5-3.7.2l-9.7 5.6zM333.7 1648.1c-1.1.6-1.2 1.6-.3 2.1l8.4 4.9c.9.5 2.6.5 3.7-.2l9.7-5.6c1.1-.6 1.2-1.6.3-2.1l-8.4-4.9c-.9-.5-2.6-.5-3.7.2l-9.7 5.6zM341.3 1641.3c1.1-.6 1.2-1.6.3-2.1l-33.5-19.3c-.9-.5-2.6-.5-3.7.2l-9.7 5.6c-1.1.6-1.2 1.6-.3 2.1l33.5 19.3c.9.5 2.6.5 3.7-.2l9.7-5.6zM483.1 1723.2c1.1-.6 2.7-.7 3.7-.2l33.5 19.3c.9.5.8 1.5-.3 2.1l-9.7 5.6c-1.1.6-2.7.7-3.7.2l-33.5-19.3c-.9-.5-.8-1.5.3-2.1l9.7-5.6z"></path><path fill="#AEC7E6" d="m508.3 1662.6-62.1-35.9-41 23.7 62.1 35.9z"></path><path fill="#0C325D" d="M433.5 1544.3c16.1-23.3 34.8-37.3 49.7-62.9 17.4-29.9 30.5-71.1 33.2-82.6 6.5-27.9 47.2-255.9 23.2-269.8-73.1-42.2-112.7 38.9-111 83.4.9 24.4-1.3 89.6 12 168.2-31.9 31.9-39.2 119.8-52.6 134.7-10.5 11.7 36.9 41.5 45.5 29z"></path><path fill="#FFC5B3" d="m388.3 1522.6-1.5 2.4s-15.6 4.4-26 10.1c-10.4 5.7-31.1 14.9-38.9 23.6-2.1 2.3.7 5.7 1.7 8s37.8 25.8 42.2 25.8 24.4-8.1 35.9-15.1c11.4-7 22.6-31.7 22.6-31.7l1.9-2.3c3.3-3.8-32.4-29-37.9-20.8z"></path><path fill="#F2A29B" d="m321.8 1558.8-15.7 19.9-8.5 24.5s-3.9 12.4-4.5 15.1c-.5 2.7 8.4 6.6 11.4 2.4 3-4.2 5.9-13.3 5.9-13.3l8.8-18.8s13.3-13.5 16.3-16.8c3-3.3-6.3-21.7-13.7-13z"></path><path fill="#F2A29B" d="m332 1561.4-22.4 24.2-10.7 26.2s-5 13.3-5.7 16.2c-.7 2.9 8.8 7.7 12.3 3.3s7.2-14.1 7.2-14.1l10.7-20s18.8-16.9 22.2-20.3c3.4-3.5-5.1-24.5-13.6-15.5z"></path><path fill="#F2A29B" d="m344.8 1569-24.6 25.1-12.9 26.3s-5.3 14.2-6.1 17.3c-.8 3.1 9.4 8.2 13.1 3.5 3.8-4.7 7.7-15.1 7.7-15.1l12.9-19.6s21.6-18 25.3-21.7c3.7-3.7-7.8-23.6-15.4-15.8z"></path><path fill="#FFC5B3" d="m359.1 1576.4-22.6 23.8-12.1 22.6s-5.3 14.2-6.1 17.3c-.8 3.1 9.4 8.2 13.1 3.5 3.8-4.7 7.7-15.1 7.7-15.1l11.7-17.9s19.9-16.7 23.6-20.4c3.6-3.6-8.8-20.5-15.3-13.8zM424.2 1545.8s3.7 17.2-1.6 31.5c-5.4 14.4-11.1 18.8-11.1 18.8l-20.7 21.8s-16.8 14.7-20.1 17c-3.3 2.3-8.7-9.2-4.7-15.6s11.4-10.4 11.4-10.4l10.2-16.3s-.9 1 0-7.8 5.4-26.3 15.5-32.9c10.1-6.6 21.1-6.1 21.1-6.1z"></path><path fill="#1A1A1A" d="M483.1 1553.2c1.8 2.3-8.2-69 78.3-63.6 0 0-51.8-155.7-110.9-180.8 0 0 36.3 74.6 47.4 152.6 5.4 37.9-34.5 66.1-14.8 91.8z"></path><path fill="#DCE9F5" d="M649 1629c-74.9-7.1-170.7-64.9-167.2-86.6 6.1-38.7 34.4-82.5 38.2-94.4 1.1-3.6 1.6-9.4 1.6-16.1-.1-15.5-3-35.2-7.3-40.6-6.1-7.7-51.4-33.6-60.6-84.4-6.9-38.4-9.8-103.4 15.7-145.3 25.4-41.9 53.4-42.4 68.9-33.5 0 0 50.7 29.3 107.4 62 27 15.6 47.6 29.3 62.5 46.2 11.4 12.9 19.5 27.5 24.6 46 .1.3.2.7.3 1 13.8 59.8-6.4 150.5-9.5 203.7-3.1 53.3 13.5 68.4 16.6 113.6 1.3 19.7-51.8 32.1-91.2 28.4z"></path><path fill="#AEC7E6" d="M649 1629c-74.9-7.1-170.7-64.9-167.2-86.6 6.1-38.7 34.4-82.5 38.2-94.4 1.1-3.6 1.6-9.4 1.6-16.1 42.5 36.1 129.9 64.5 150.1 40.9 21.9-25.6-15.8-126.2-15.8-126.2-23.8-80 22.2-103.4 52.3-110.2 11.4 12.9 19.5 27.5 24.6 46 .1.3.2.7.3 1 13.8 59.8-6.4 150.5-9.5 203.7-3.1 53.3 13.5 68.4 16.6 113.6 1.3 19.6-51.8 32-91.2 28.3z"></path><path fill="#F2A29B" d="M477.4 1211.9s11 6 16 26.7c2.6 10.9 6.9 15.6 18.4 19.4 19 6.2 62.6 1.7 71.7-34.8 7.1-28.6 11.9-46.8-16.5-64.8-26.9-17-34.4-36.3-46.4-54.8-12.1-18.6-73 45.9-43.2 108.3z"></path><path fill="#FF8666" d="m513.8 1286.4 14.8-26.6s-6.8.7-16.7-1.9c-9.8-2.6-13.6-8-13.6-8-1.6 17.8 1.2 28.6 1.2 28.6-22.1 75.9 54.8 207.9 18.9 260.8l11.3 33.8 24.8-12.9c35.2-57.7-62.3-218-40.7-273.8z"></path><path fill="#FF8666" d="m554.7 1560.1-24.8 12.9-11.3-33.8c23.5-34.7-1.3-103.3-15.1-167.8-7.3-34-11.4-66.9-3.8-93.1 0 0-2.8-10.8-1.2-28.5 0 0 3.7 5.4 13.6 8 9.8 2.6 16.7 1.9 16.7 1.9l-14.8 26.6c-8.2 21.4.9 58 13.4 98.3 20 65.2 48.9 139.9 27.3 175.5z"></path><path fill="#DCE9F5" d="m511.9 1257.9-20.5 20.5s-17.7-28.2-4.4-56c2.4 4 4.8 9.3 6.5 16.3.1.4.2.9.3 1.3 2.3 8.3 7.1 12.8 11.6 15.3h.1c2.3 1.4 4.7 2.1 6.4 2.6zM511.9 1257.9l13.1 34.9s58.3-13.8 67.1-67.3c8.9-53.9-19.9-74.6-45.5-83.8 0 0 23.6 29 9.2 71-17.2 50.4-43.9 45.2-43.9 45.2z"></path><path fill="#ED4944" d="m554.7 1560.1-24.8 12.9-11.3-33.8c23.5-34.7-1.3-103.3-15.1-167.8 7.2 4.7 15.1 9.3 23.8 13.2 20.1 65.2 49 139.9 27.4 175.5z"></path><path fill="#114077" d="M492.3 1467.2c5.4 59-38 45-47.4 71-9.2 25.4 42.3 72.9 42.3 72.9s33.4-71.5 14.7-175.9c-1.9-10.6-4.6-20.6-7.7-30.4 0-.1-.1-.3-.2-.5-.8-2.7-1.7-5.3-2.6-7.9v-.2c-15.9-46.7-51.5-91.3-30.3-178.7 18.4-75.9 70.7-81.9 90.4-71.1 22.9 12.6 27.5 47.8 30.1 62.4.2 1.2.4 2.3.6 3.5 6.7 51.6-23.9 92.7-24.2 148.5-.1 28.9 8 57.1 15.3 86.7 6.8 27.6 12.9 56.5 11.2 88.6-5.4 99.5-23.5 105.8-23.5 105.8s68.2 46.7 167.8 2.7c42.4-18.7 29.7-60.1 20.2-77.9-14.7-27.7-25.5-60.1-12.6-120.7 8.3-39 23.8-150-11.2-193.4-35.7-44.4-65-59.3-103.4-78.9-45.2-23.2-72.9-47.4-94.8-50.5-13.3-1.9-44.8-1.9-75.5 35.8-19.1 23.5-22 66.6-9.5 140.7 16.1 95.9 44.9 108.6 50.3 167.5z"></path><path fill="#114077" d="M728.7 1644.9c-99.6 44-167.8-2.7-167.8-2.7s18.1-6.3 23.5-105.8c1.8-32.2-4.4-61.1-11.2-88.6-7.3-29.7-15.4-57.8-15.3-86.8.3-55.8 30.9-96.9 24.2-148.5-.2-1.2-.3-2.4-.5-3.6-2.6-14.5-7.2-49.8-30.1-62.4l-1.8-.9c-.3-.2-.6-.3-1-.4-3.9-1.6-8.8-2.6-14.2-2.8h-3c-.9 0-1.9.1-2.9.2h-.2l-2.7.3c-1.5.2-3 .5-4.5.8-.8.2-1.6.4-2.5.6-.8.2-1.7.5-2.5.7-.5.2-1 .3-1.4.5-.5.2-1 .3-1.4.5-.5.2-1 .4-1.4.6-.5.2-1 .4-1.4.6-.5.2-1 .4-1.4.6-1 .4-1.9.9-2.9 1.4-.5.3-1 .5-1.4.8-.6.3-1.3.7-1.9 1.1-.6.4-1.3.8-1.9 1.2-.4.3-.9.6-1.3.9-.9.6-1.7 1.2-2.5 1.8-.8.6-1.7 1.3-2.5 2l-1.8 1.5c-.6.5-1.2 1.1-1.8 1.6l-.2.2-1.5 1.5c-.6.6-1.2 1.2-1.7 1.8-.5.5-1 1.1-1.5 1.7l-.2.2c-.6.6-1.1 1.3-1.7 2-1.1 1.3-2.2 2.8-3.3 4.2-.4.6-.9 1.2-1.3 1.9-.5.7-1 1.4-1.4 2.1-.9 1.4-1.8 2.9-2.7 4.4-.4.7-.8 1.4-1.2 2.2-.5.9-.9 1.7-1.4 2.6-.4.8-.8 1.6-1.2 2.5-.4.7-.7 1.5-1.1 2.3-3.7 8-6.9 17.2-9.5 27.7-21.2 87.4 14.5 132 30.3 178.7 0 .1 0 .1.1.2.9 2.6 1.8 5.3 2.6 7.9.1.2.2.4.2.5 3.1 9.8 5.8 19.8 7.7 30.4 1.3 7.4 2.4 14.6 3.2 21.6 11 92.5-17.9 154.3-17.9 154.3s-51.5-47.5-42.3-72.9c9.4-26 52.8-12.1 47.4-71-5.4-59-34.2-71.7-50.4-167.4-12.5-74.2-9.6-117.3 9.5-140.7 30.6-37.6 62.1-37.6 75.5-35.8 21.9 3.1 49.6 27.4 94.8 50.5 38.4 19.7 67.7 34.6 103.4 78.9 35 43.5 19.5 154.5 11.2 193.4-13 60.6-2.1 93 12.6 120.7 9.1 18.1 21.8 59.4-20.5 78.2z"></path><path fill="#27639E" d="m574.3 1155.7-22.9-9.1-1.8-.9c-.3-.2-.6-.3-1-.4-4.2-1.8-9-2.8-14.2-2.8H531.5c-1 0-1.9.1-2.9.2h-.2l-2.7.3c-1.5.2-3 .5-4.5.8-.8.2-1.6.4-2.5.6-.8.2-1.7.5-2.5.7-.5.2-1 .3-1.4.5-.5.2-1 .3-1.4.5-.5.2-1 .4-1.4.6-.5.2-1 .4-1.4.6-.5.2-1 .4-1.4.6-1 .4-1.9.9-2.9 1.4-.5.3-1 .5-1.4.8-.6.4-1.3.7-1.9 1.1-.6.4-1.3.8-1.9 1.2-.4.3-.9.6-1.3.9-.9.6-1.7 1.2-2.5 1.8-.8.6-1.7 1.3-2.5 2l-1.8 1.5c-.6.5-1.2 1.1-1.8 1.6l-.2.2-1.5 1.5c-.6.6-1.2 1.2-1.7 1.8-.5.6-1 1.1-1.5 1.7l-.2.2c-.6.6-1.1 1.3-1.7 2l-3.3 4.2c-.4.6-.9 1.2-1.3 1.9-.5.7-.9 1.4-1.4 2.1-.9 1.4-1.8 2.9-2.7 4.4-.4.7-.8 1.4-1.2 2.2-.5.9-.9 1.7-1.4 2.6-.4.8-.8 1.6-1.2 2.5-.4.7-.7 1.5-1.1 2.3-3.7 8-6.9 17.2-9.5 27.7-21.2 87.4 14.5 132 30.3 178.7 0 .1 0 .1.1.2.9 2.6 1.8 5.3 2.6 7.9.1.2.2.4.2.5 3.1 9.8 5.8 19.8 7.7 30.4 1.3 7.4 2.4 14.6 3.2 21.6 0 0-25.9-73.2-51.4-117.8l9.4-3.1-15.3-19.5s-15-66.2 4.4-116.4c20.3-52.4 52-68.1 78.3-66.4 26.7 2 43.5 22.1 43.5 22.1z"></path><path fill="#27639E" d="M570.3 1246.7c-16.8 74.1-21.9 125.9-14.5 159.8 7.4 33.9 24.9 75.4 27.8 96.9 0 0-7.6-48.1-1.4-77.2l-17.8-30.5 23.4-11.6s17.6-93.8 15.5-148c-2-51.8-25.9-91.7-51.9-89.5 0-.1 37.5 18.2 18.9 100.1z"></path><path fill="#0C325D" d="M728.7 1644.9c-99.6 44-167.8-2.7-167.8-2.7s18.1-6.3 23.5-105.8c.1-1.7.2-3.4.2-5.1 34.1-8 85.8-32.2 90.4-52.4 5.3-23.5-20.3-136.5-20.3-136.5s52.4-22.8 91.1-23.8c4.1 47.6-4.2 102.7-9.6 127.8-13 60.6-2.1 93 12.6 120.7 9.5 17.7 22.2 59-20.1 77.8z"></path><path fill="#FFC5B3" d="M506.4 1230.5c-4.9 6.4-17.7 22.6-30.4 33-7.5 6.1-14.9 10.3-20.5 9.1 0 0-28.3-9.1-31.8-10.1s-20.3 3.7-25.9-.3c-1.1-10.3-.4-22.6-6.4-31.4 0 0-68.1-43.3-47.4-122.3 11.3-43.2 44.6-62 68.6-70.1 19.1-6.4 39.8-6.4 58.8.2 14.9 5.2 30.7 14.1 43.1 28 9.4 10.6 16.8 24.2 20.1 41.3 12.1 62.8-20.4 112.3-28.2 122.6z"></path><path fill="#FFC5B3" d="M528.5 1187.4v.1c-7.6 22.3-18 37.7-22 43-4.9 6.4-17.7 22.6-30.4 33-7.5 6.1-14.9 10.3-20.5 9.1 0 0-28.3-9.1-31.8-10.1s-20.3 3.7-25.9-.3c-.4-3.4-.5-7.1-.8-10.8-.6-7.4-1.6-14.8-5.5-20.6 0 0-68.1-43.3-47.4-122.3 11.3-43.2 44.6-62 68.6-70.1 19.1-6.4 39.8-6.4 58.8.2 14.9 5.2 30.7 14.1 43.1 28 9.4 10.6 16.8 24.2 20.1 41.3 5.7 30.7 1 58.2-6.3 79.5z"></path><path fill="#F2A29B" d="M484 1236.4c-13.3 7.8-30.5-1.5-30.7-16.9v-1.3c.4-10.7 7.9-19.6 14.4-28.1 27.3-35.3 43.7-78.9 46.7-123.5-12.3-13.9-28.2-22.8-43.1-28-19-6.6-39.7-6.7-58.8-.2-24 8.1-57.3 26.9-68.6 70.1-20.7 79.1 47.4 122.3 47.4 122.3 4 5.8 5 13.3 5.5 20.6.2 2.1.3 4.2.4 6.3 0 .3 0 .6.1.9 0 .4.1.8.1 1.2.1.8.1 1.5.2 2.3 5.7 4.1 22.4-.6 25.9.3 3.5 1 31.8 10.1 31.8 10.1 5.7 1.1 13.1-3 20.5-9.1 12.6-10.4 25.4-26.6 30.4-33 4-5.2 14.4-20.7 22-43-.6 2-13.8 31-44.2 49z"></path><path fill="#FF8666" d="M534.6 1164.2s-.8-9.2-8.7-13.1c-7.8-3.9-24.1 1.7-27 15.3-2.3 10.4 5.8 15.9 9.2 19 3.1 2.8 3.8 14 .5 11.8l-8.9-7.3c-6.2-5-15.2-4.7-20.8.9-11.8 11.7-35.2 29.3-70.3 30.6-67 2.5-94.2-53.8-94.6-54.7 35.5 6 10.4-15.7 30.3-78.7 19.8-63.1 81.6-56.5 81.6-56.5s19.4-8.7 46.8 2.1h.1c11.2 4.4 23.7 12.1 36.8 25 45.1 44.4 25 105.6 25 105.6z"></path><path fill="#ED4944" d="M534.6 1164.2s-.8-9.2-8.7-13.1c-7.8-3.9-24.1 1.7-27 15.3-2.3 10.4 5.8 15.9 9.2 19 3.1 2.8 3.8 14 .5 11.8l-8.9-7.3c-6.2-5-15.2-4.7-20.8.9-11.8 11.7-35.2 29.3-70.3 30.6-67 2.5-94.2-53.8-94.6-54.7.8.5 54.4 31.1 118.9 0 65-31.3 45.8-45 73.6-52.5 27.8-7.4-6.6-68-33.8-80.6 11.2 4.4 23.7 12.1 36.8 25 45.2 44.4 25.1 105.6 25.1 105.6z"></path><path fill="#114077" d="M581.6 1623.6c35.8-16.2 90.2-106.4 132.5-121.1 0 0-57.1-133.3-66.2-188.8-9.1-55.5 23.6-112.2 43.3-96.4 19.7 15.8 55.5 49.8 68 103.5s50.9 145.7 49.8 199.8c-1.2 54.1-28.3 54.8-58.9 73.3-30.5 18.3-100.8 62.9-131.9 79.7-14.5 7.6-51.5-43.2-36.6-50z"></path><path fill="#F2A29B" d="M579.6 1627.8s-50.2 2.5-77.4 13.8c0 0-24.6 11.8-26.8 13.7-2.2 1.9-23.6 22.3-23.6 22.3s.6 8.1 14 6.1c14.5-2.2 20.2-11.9 20.2-11.9l23.9-8s19 17.1 53.5 1.8c34.5-15.4 23.3-38.7 16.2-37.8z"></path><g fill="#FFC5B3"><path d="m580.2 1627.5-.7.3s-36.6 4.3-53.3 9.9c-16.6 5.6-23.7 7.9-25.6 9.2-1.8 1.3-4.1 9-2.9 12 1.2 3 49.2 39.4 53.3 40.5 4.1 1 27-5.3 34.3-8.6 7.4-3.3 26.2-19.5 26.2-19.5l.6-.3c18.7-9.7-17.7-51.2-31.9-43.5z"></path><path d="M500.7 1646.9c-4 2.5-25.1 14.9-26.2 16-1.1 1.1-19.3 18.7-20.2 20.1-.9 1.4-13.6 18.6-14.7 20.1-1.1 1.5 3.2 7.4 8.3 7.6 5.1.2 17.3-14 19.3-17.1 0 0 13.5-8.8 19.2-16.9 0 0 21.1-7.8 25.3-10.7 7.7-5.3-1.9-24.7-11-19.1z"></path><path d="M510.8 1657.8c-4 2.5-25.2 14.2-26.3 15.3-1.1 1.1-18.3 19.1-19.1 20.5-.9 1.4-16.1 20.5-17.1 22-1.1 1.5 3.2 7.4 8.3 7.6 5.1.2 17.3-14 19.3-17.1 0 0 13.5-8.8 19.2-16.9 0 0 23.5-11 27.7-13.9 7.6-5.4-2.9-23.1-12-17.5z"></path><path d="M525 1670.8c-4 2.5-24.8 16.2-26 17.3-1.1 1.1-18 19.9-18.9 21.4-.9 1.4-10.3 18.2-11.4 19.7-1.1 1.5 3.1 6.6 8.2 6.7 5.1.2 14.1-12.7 16.1-15.8 0 0 11.9-9.8 16.5-15.1 0 0 22.9-13.4 27.1-16.3 7.8-5.4-2.5-23.5-11.6-17.9z"></path><path d="M543.5 1681.1c-4 2.6-22.5 16-23.6 17.1-1.1 1.1-16.5 16.3-17.4 17.7-.9 1.4-9.9 14.1-11 15.6-1.1 1.5.7 6.6 5.8 6.8 5.1.2 13.3-8.3 15.3-11.4 0 0 12.5-9.7 16-13.1 0 0 20.5-11.5 24.7-14.4 7.9-5.4-2.8-22.8-9.8-18.3z"></path></g><path fill="#AEC7E6" d="M351 1674.8c5.9 3.4 12.6 9.8 15.1 14.3l68.7 127.2c2.4 4.5-.4 5.4-6.3 2l-224.3-129.5c-5.9-3.4-12.6-9.8-15.1-14.3l-68.7-127.2c-2.4-4.5.4-5.4 6.3-2L351 1674.8zm-63.9 24.4c12.7 7.3 18.7 5.4 13.5-4.2-5.2-9.6-19.7-23.4-32.4-30.7-12.7-7.3-18.7-5.4-13.5 4.2 5.2 9.6 19.7 23.4 32.4 30.7z"></path><path fill="#E9F0F7" d="M268.2 1664.3c12.7 7.3 27.2 21.1 32.4 30.7 5.2 9.6-.8 11.5-13.5 4.2s-27.2-21.1-32.4-30.7c-5.2-9.6.8-11.5 13.5-4.2z"></path><path fill="#E9F0F7" d="M438.9 1815.2V1814.1c0-.1-.1-.2-.1-.3v-.2c0-.1 0-.1-.1-.2 0-.1-.1-.2-.1-.3-.1-.1-.1-.2-.2-.3 0-.1-.1-.2-.1-.3l-68.7-127.2s0-.1-.1-.1c-.1-.1-.1-.2-.2-.4-.1-.1-.1-.2-.2-.4-.1-.1-.1-.2-.2-.3-.1-.1-.2-.3-.3-.4l-.1-.1s0-.1-.1-.1c0-.1-.1-.1-.1-.2-.1-.1-.2-.3-.3-.4-.1-.1-.1-.2-.2-.2 0 0 0-.1-.1-.1 0 0 0-.1-.1-.1-.1-.1-.2-.3-.3-.4-.1-.1-.2-.3-.3-.4-.1-.1-.1-.2-.2-.2l-.3-.3c-.1-.1-.2-.2-.2-.3l-.1-.1-.1-.1-.2-.2-.2-.2-.2-.2c0-.1-.1-.1-.1-.2l-.1-.1c0-.1-.1-.1-.1-.2l-.2-.2-.1-.1-.1-.1-.1-.1-.1-.1-.1-.1-.1-.1-.1-.1-.1-.1-.1-.1-.1-.1-.1-.1-.1-.1-.2-.2-.2-.2-.2-.2-.3-.3-.1-.1c-.1-.1-.2-.1-.2-.2l-.5-.5c-.1-.1-.2-.1-.2-.2l-.1-.1-.1-.1c-.1-.1-.2-.1-.2-.2-.1 0-.1-.1-.2-.1l-.1-.1-.1-.1-.1-.1-.1-.1-.1-.1-.1-.1-.1-.1-.1-.1-.1-.1-.1-.1-.1-.1-.1-.1c-.1 0-.1-.1-.2-.1s-.1-.1-.2-.1-.1-.1-.2-.1-.1-.1-.2-.1-.1-.1-.2-.1-.1-.1-.2-.1h-.1l-.1-.1-.2-.2-.2-.2c-.1-.1-.2-.1-.3-.2-.1-.1-.2-.1-.2-.2h-.1c-.1-.1-.2-.1-.3-.2-.1-.1-.3-.2-.4-.3-.1-.1-.2-.1-.3-.2-.1-.1-.3-.2-.4-.3-.2-.1-.3-.2-.5-.3-.1 0-.1-.1-.2-.1L130 1541.5c-.1-.1-.2-.1-.3-.2-.2-.1-.3-.2-.4-.2-.1-.1-.3-.2-.4-.2h-.2c-.1 0-.2-.1-.3-.1-.1-.1-.3-.1-.4-.2-.1-.1-.3-.1-.4-.2-.1-.1-.3-.1-.4-.2-.1-.1-.3-.1-.4-.2-.1 0-.1 0-.2-.1h-.2c-.2 0-.3-.1-.4-.1-.1 0-.2 0-.3-.1h-.2c-.2 0-.3-.1-.5-.1h-.6c-.2 0-.3 0-.5.1-.1 0-.1 0-.2.1-.2.1-.3.2-.5.3l-3.3 3.8c.1-.1.3-.2.5-.3.1 0 .1 0 .2-.1.1 0 .3-.1.5-.1H121.7c.2 0 .4.1.7.1h.1c.3.1.5.1.8.2h.1c.3.1.7.2 1 .4.4.2.7.3 1.1.5h.1c.4.2.8.4 1.3.7L351 1674.8c.4.2.7.4 1.1.7.4.2.7.5 1.1.7.4.2.7.5 1.1.8.4.3.7.5 1.1.8.4.3.7.6 1.1.9.4.3.7.6 1.1.9.3.3.6.5.9.8.1.1.2.1.2.2.3.3.7.6 1 .9.3.3.7.6 1 1 .3.3.6.7.9 1 .3.3.6.6.9 1 .3.3.5.6.8.9.3.3.5.6.7.9 0 0 0 .1.1.1.2.3.4.6.6.8 0 0 0 .1.1.1.2.3.4.6.6.8.2.3.3.6.5.9l68.7 127.2.3.6c.1.2.1.3.2.5v.1c.1.2.1.3.1.5v.1c0 .1.1.2.1.3V1819.3c-.1.2-.1.3-.2.4l3.3-3.8c.1-.1.2-.3.2-.4v-.1c.3.1.3 0 .3-.2z"></path></svg>