<svg xmlns="http://www.w3.org/2000/svg" enable-background="new 0 0 3000 3000" viewBox="0 0 3000 3000" id="work-together"><path fill="#f7c19b" d="M2447.52,970.4c0,0-11.59-6.01-18.09-15.81s-13.45-17.26-10.88-20.85c2.57-3.59,6.67-0.27,6.67-0.27
					s-4.65-3.63-0.74-7.06c0,0,2.07-2.34,4.68,0.94c0,0-3.24-3.54-1.06-5.45c2.18-1.91,3.74-3.01,5.52-0.98c0,0-0.16-5.18,2.77-7.75
					s11.54,11.94,13.67,10.74c2.13-1.21-8.71-10.84-5.71-13.47c3.01-2.64,20.64,7.16,24.63,18.68s-1.35,20.59,2.49,26.93
					C2471.47,956.04,2451.39,975.11,2447.52,970.4z"></path><polygon fill="#ffc42e" points="2459.15 1019.05 2438.91 967.86 2472.24 954.37 2495.26 1002.78"></polygon><path fill="#2b91cc" d="M1410.28,1000.13l163.1,163.1c-31.26,31.26-53.14,67.09-64.54,102.01c-2.7,8.24-4.72,16.42-6.22,24.51
					c-0.38,1.87-0.75,3.75-0.97,5.62c-0.52,2.92-0.9,5.85-1.05,8.85c-0.52,4.27-0.82,8.47-0.75,12.74
					c-0.15,0.45-0.15,1.05-0.08,1.57c-0.07,2.48,0,4.95,0.15,7.35c0,1.65,0.15,3.3,0.3,4.95c0.07,1.57,0.3,3.15,0.53,4.57
					c1.2,9.6,3.37,18.66,6.74,27.14c0.75,1.8,1.5,3.6,2.32,5.47c0.08,0.08,0.08,0.22,0.15,0.3c0.9,1.95,1.95,3.9,2.92,5.77
					c0.52,0.83,1.05,1.65,1.5,2.55c0.67,0.97,1.2,1.95,1.87,2.92c0.9,1.35,1.88,2.77,2.92,4.12c1.2,1.65,2.32,3.22,3.67,4.72
					c1.57,1.87,3.3,3.75,5.02,5.47c51.12,51.12,154.41,30.73,230.64-45.5l163.18,163.18c11.09-9.45,22.11-18.81,33.06-28.26
					c5.92-5.17,11.84-10.19,17.76-15.37c25.19-21.74,50-43.55,74.36-65.36c5.85-5.1,11.54-10.19,17.16-15.36
					c18.59-16.64,36.88-33.28,54.87-49.92c-1.12-0.97-2.25-2.1-3.3-3.15c-1.12-1.12-2.32-2.32-3.37-3.52
					c-68.66-71.36-80.88-171.57-26.91-225.54c54.57-54.57,156.43-41.45,228.02,29.23l1.05,1.05c1.65,1.65,3.3,3.3,4.8,4.95
					c2.17-2.32,4.27-4.57,6.37-6.82c10.04-10.64,20.01-21.36,29.68-32.08c3.97-4.27,7.87-8.62,11.77-12.97
					c4.57-5.02,9-10.04,13.42-15.07c2.85-3.15,5.62-6.37,8.32-9.52c5.4-6,10.64-11.99,15.81-18.06c1.35-1.5,2.55-3,3.82-4.42
					c6.82-7.87,13.57-15.81,20.16-23.76c0.82-0.98,1.72-2.02,2.47-3.07c7.12-8.47,14.09-16.94,20.91-25.41
					c2.1-2.55,4.2-5.1,6.22-7.72c8.02-9.97,15.89-19.94,23.61-29.91c-1.87-1.42-3.67-2.92-5.47-4.42
					c-200.81-158.98-374.18-326.51-505.95-507L1410.28,1000.13"></path><path fill="#204f7f" d="M2112.26,1330.63c-0.82-0.67-1.65-1.5-2.4-2.25c-1.12-1.12-2.32-2.32-3.37-3.52
					c-68.66-71.36-80.88-171.57-26.91-225.54c54.57-54.57,156.43-41.45,228.01,29.23l1.05,1.05c0.97,0.97,1.95,1.95,2.77,2.92
					c-71.51-69.11-171.95-81.55-226.07-27.43C2031.39,1159.06,2043.6,1259.27,2112.26,1330.63z"></path><path fill="#204f7f" d="M2115.61 1334.13c1.05 1.05 2.17 2.17 3.3 3.15-17.99 16.64-36.28 33.28-54.87 49.92-5.62 5.17-11.32 10.27-17.16 15.36-24.36 21.81-49.17 43.62-74.36 65.36-5.92 5.17-11.84 10.19-17.76 15.37-10.94 9.44-21.96 18.81-33.06 28.26l-163.18-163.18c-76.23 76.23-179.52 96.62-230.64 45.5-1.72-1.72-3.45-3.6-5.02-5.47-1.35-1.5-2.47-3.07-3.67-4.72-1.05-1.35-2.02-2.77-2.92-4.12-.67-.97-1.2-1.95-1.87-2.92-.45-.9-.97-1.72-1.5-2.55-.98-1.87-2.03-3.82-2.92-5.77-.07-.07-.07-.22-.15-.3-.82-1.87-1.57-3.67-2.32-5.47-3.37-8.47-5.55-17.54-6.74-27.14-.23-1.42-.45-3-.53-4.57-.15-1.65-.3-3.3-.3-4.95-.15-2.4-.22-4.87-.15-7.35-.08-.52-.07-1.12.08-1.57-.07-4.27.23-8.47.75-12.74.15-3 .53-5.92 1.05-8.85.22-1.87.6-3.75.97-5.62 1.5-8.1 3.52-16.27 6.22-24.51-10.12 43.85-2.92 84.63 23.76 111.31 51.12 51.12 154.41 30.73 230.64-45.5l163.18 163.18c64.24-54.64 126.38-109.14 185.82-163.63C2113.29 1331.81 2114.49 1333.01 2115.61 1334.13zM1508.83 1265.22c8.1-36.13 28.18-74.21 58.54-108.01l6 6C1542.04 1194.54 1520.22 1230.29 1508.83 1265.22z"></path><path fill="#204f7f" d="M1573.35 1163.19l-163.08-163.08c3.97-3.37 8.02-6.67 11.92-10.12l161.89 161.88C1580.32 1155.62 1576.72 1159.36 1573.35 1163.19zM2325.56 1133.47c-2.1 2.25-4.2 4.5-6.37 6.82-1.5-1.65-3.15-3.3-4.8-4.95l-1.05-1.05c59.44-62.44 114.16-124.95 162.95-187.24 1.8 1.5 3.6 3 5.47 4.42-7.72 9.97-15.59 19.94-23.61 29.91-2.02 2.62-4.12 5.17-6.22 7.72-6.82 8.47-13.79 16.94-20.91 25.41-.75 1.05-1.65 2.1-2.47 3.07-6.6 7.95-13.34 15.89-20.16 23.76-1.27 1.42-2.47 2.92-3.82 4.42-5.17 6.07-10.42 12.07-15.81 18.06-2.7 3.15-5.47 6.37-8.32 9.52-4.42 5.02-8.84 10.04-13.42 15.07-3.9 4.35-7.79 8.69-11.77 12.97C2345.5 1112.03 2335.68 1122.75 2325.56 1133.47z"></path><path fill="#2b91cc" d="M1518.12,2198.33c0,2.44-0.11,4.98-0.32,7.42c-0.11,2.01-0.42,3.92-0.74,5.94
					c-0.21,1.7-0.53,3.39-0.85,4.98c-0.21,1.17-0.53,2.23-0.74,3.39c-0.32,0.95-0.53,1.91-0.74,2.86c-0.64,2.01-1.27,4.14-2.01,6.15
					c0,0.11-0.11,0.21-0.11,0.32c-0.74,1.91-1.48,3.71-2.23,5.51c-3.61,8.37-8.48,16.32-14.42,23.96c-0.85,1.17-1.8,2.44-2.86,3.6
					c-1.06,1.27-2.12,2.55-3.29,3.71c-1.59,1.8-3.29,3.6-5.09,5.3c-0.32,0.42-0.74,0.85-1.17,1.06c-2.97,3.08-6.15,5.83-9.54,8.48
					c-2.23,2.01-4.56,3.82-7,5.51c-1.48,1.17-3.07,2.23-4.66,3.28c-6.78,4.66-13.99,9.01-21.73,12.93
					c-32.75,16.64-73.46,26.5-117.77,26.5v230.66H560.37v-726.76c2.76-0.32,5.51-0.63,8.27-0.95c3.29-0.42,6.57-0.74,9.86-1.06
					c10.81-1.17,21.73-2.23,32.76-3.18c1.27-0.21,2.65-0.32,3.92-0.42c10.28-0.96,20.67-1.8,31.06-2.54
					c1.91-0.11,3.82-0.32,5.83-0.42c7.95-0.64,15.9-1.17,23.96-1.59c4.13-0.32,8.37-0.63,12.61-0.85
					c6.68-0.42,13.36-0.85,20.14-1.17c5.83-0.32,11.66-0.64,17.49-0.85c14.42-0.64,28.94-1.27,43.67-1.7
					c3.07-0.11,6.15-0.21,9.33-0.32c-0.11,2.23-0.11,4.56-0.11,6.89v1.48c0,0.85,0,1.8,0.11,2.65v0.95l0.32,8.27
					c0.32,6.15,0.85,12.19,1.7,18.13c0.42,3.07,0.85,5.94,1.38,8.9c0.95,5.83,2.12,11.55,3.6,17.17c1.49,5.62,3.08,11.13,4.88,16.54
					c1.27,3.81,2.65,7.42,4.14,11.02c1.48,3.6,3.07,7.21,4.66,10.71c6.04,12.83,13.25,24.7,21.52,35.19
					c1.48,2.01,3.18,4.03,4.88,5.94c3.07,3.61,6.25,7.1,9.65,10.28c2.01,2.02,4.03,3.82,6.15,5.62c1.38,1.27,2.76,2.44,4.24,3.5
					c1.59,1.38,3.18,2.65,4.87,3.71c1.8,1.38,3.61,2.65,5.51,3.82c0.42,0.42,0.95,0.74,1.48,0.95c2.33,1.48,4.66,2.97,7.1,4.24
					c1.91,1.06,3.82,2.12,5.72,3.07c8.69,4.13,17.91,7.31,27.35,9.12c1.91,0.42,3.82,0.74,5.73,0.96c2.54,0.42,5.09,0.64,7.74,0.85
					c2.54,0.21,5.19,0.32,7.84,0.32c76.32,0,138.55-79.5,140.45-178.51c0.11-1.59,0.11-3.29,0.11-4.88c0-1.49,0-3.07-0.11-4.56
					c24.49,0.95,49.19,2.12,74.1,3.5c7.63,0.32,15.27,0.74,23,1.27c32.65,1.8,65.62,3.92,98.8,6.36c7.85,0.53,15.58,1.17,23.43,1.7
					c14.42,1.06,28.83,2.23,43.35,3.39v230.77C1430.66,2067.42,1518.12,2126.04,1518.12,2198.33z"></path><path fill="#204f7f" d="M1060.22 1829.83c.11 1.06.11 2.23.11 3.29 0 1.59 0 3.29-.11 4.88-1.91 99.01-64.13 178.51-140.45 178.51-77.17 0-139.93-81.3-140.56-181.9v-1.48c0-1.38 0-2.76.11-4.03 1.69 99.43 63.92 179.25 140.45 179.25C996.09 2008.34 1058.31 1928.84 1060.22 1829.83zM1060.33 1825c0-1.48 0-3.07-.11-4.56 24.49.95 49.18 2.12 74.1 3.5 7.63.32 15.26.74 23 1.27 32.65 1.8 65.62 3.92 98.8 6.36 7.84.53 15.58 1.17 23.43 1.7 14.42 1.06 28.83 2.23 43.36 3.39v230.77c107.81 0 195.26 58.62 195.26 130.91 0 2.44-.11 4.98-.32 7.42-.11 2.01-.42 3.92-.74 5.94-.21 1.7-.53 3.39-.85 4.98-.21 1.17-.53 2.23-.74 3.39-.32.96-.53 1.91-.74 2.86-.63 2.01-1.27 4.14-2.01 6.15 0 .1-.11.21-.11.32-.74 1.91-1.48 3.71-2.23 5.51-3.61 8.37-8.48 16.32-14.42 23.96-.85 1.17-1.8 2.44-2.86 3.6-1.06 1.27-2.12 2.54-3.28 3.71-1.59 1.8-3.29 3.6-5.09 5.3-.32.42-.74.85-1.17 1.06-2.97 3.07-6.15 5.83-9.54 8.48-2.23 2.01-4.56 3.82-7 5.51-1.48 1.17-3.07 2.23-4.66 3.29-6.78 4.66-13.99 9.01-21.73 12.93 38.16-23.85 61.91-57.77 61.91-95.51 0-72.29-87.45-130.92-195.26-130.92v-230.77c-84.06-6.78-166.53-12.19-247.09-15.69C1060.33 1828.28 1060.33 1826.58 1060.33 1825zM1440.66 2302.78c-31.27 19.82-72.4 32.54-117.77 34.98v-8.48C1367.2 2329.28 1407.9 2319.42 1440.66 2302.78zM1322.89 2329.31v230.64c-5.19-.42-10.39-.95-15.58-1.27v-228.94C1312.61 2329.73 1317.8 2329.63 1322.89 2329.31zM779.27 1818.1c-.11 2.23-.11 4.56-.11 6.89v1.48c-75.69 1.91-148.94 6.36-218.79 13.89v-7.21c2.76-.32 5.51-.63 8.27-.95 3.29-.42 6.57-.74 9.86-1.06 10.81-1.17 21.73-2.23 32.76-3.18 1.27-.21 2.65-.32 3.92-.42 10.28-.96 20.67-1.8 31.06-2.54 1.91-.11 3.82-.32 5.83-.42 7.95-.64 15.9-1.17 23.96-1.59 4.13-.32 8.37-.63 12.61-.85 6.68-.42 13.36-.85 20.14-1.17 5.83-.32 11.66-.64 17.49-.85 14.42-.64 28.94-1.27 43.67-1.7C773.02 1818.31 776.09 1818.2 779.27 1818.1z"></path><path fill="#f7c19b" d="M2362.33 1075.48c-2.14-3.11-3.66-7.42-4.2-9.44-.61-2.26.59-4.91.68-7.48.09-2.57.82-9.18.85-11.99.03-2.81-1.42-3.1-.42-8.05.99-4.95-1.04-6.72.35-9.05 1.39-2.33.96-6.44-3.42-3.28-4.37 3.17-5.25 11.42-5.26 14.51-.01 3.08-1.11 4.08-4.26 4.22-3.15.15-5.41-3.45-6.99-5.52-1.57-2.07-3.49-3.58-4.52-6.28-1.03-2.7-3-4.63-4.53-7.4s-3.16-4.52-5.05-7.14-5.23-6.09-8.01-4.23c-2.78 1.86-.06 4.11 1.54 6.72 1.6 2.62 2.79 4.78 4.57 8.65s5.27 7.3 4.9 8.52-.92.76-1.53.44c-.61-.31-4.45-6.39-5.85-8.52-1.4-2.12-4.19-4.82-7.41-8.51-3.22-3.7-5.43-6.62-8.52-4.44s1.56 6.6 2.78 8.07c1.22 1.47 3.53 4.08 5.23 7.33s3.66 5.02 5.11 6.92c1.46 1.91 2.93 3.83 2.64 4.03-.28.2-.73-.12-1.53-1.46-.81-1.34-3.68-3.45-5.78-6.02-2.11-2.58-4.33-4.47-6.25-6.93-1.92-2.46-4.43-4.75-6.25-3.18s-1.93 1.57.98 5.99c2.91 4.41 2.21 2.43 6.04 7.78 3.82 5.35 4.23 5.67 6.64 7.89 2.42 2.21 3.3 3.36 2.85 3.68-.45.32-1.84-.96-2.92-2.28-1.08-1.32-3.34-1.88-8-6.26s-6.05-3.71-6.95-3.07c-.9.63-1.37 1.86-1.02 2.35s2.02 2.6 3.24 4.18c1.22 1.58 3.28 3.23 4.76 4.48s2.28 2.27 3.41 3.07c1.13.79 4.44 2.97 5.44 5.34s7.51 8.16 9.12 9.88 1.15 1.27 1.15 1.27 6.87 5.85 8.38 6.84c1.51.98 1.91 2.04 2.44 2.9.54.86 2.64 2.98 4.01 3.81 1.37.83 5.62 7.59 5.62 7.59L2362.33 1075.48zM198.25 1512.87c-1.42.22-2.11 1.87-1.25 3.03l15.48 21.09c.83 1.09 1.48 1.92 1.15 2.97-.99 2.78-2.26 5.14-3.83 7.18-6.72 8.84-18.15 11.21-28.6 11.14-10.73-.02-20.33-2.62-22.63-3.5-.41-.14-.7-.47-.85-.87l-12.05-37.56c-.2-.58-.67-1.04-1.27-1.21-28.31-9.16-36.49-43.84-36.49-43.84-13.49-77.09 44.65-81.63 73.82-79.27 9.74.79 18.45 6.47 23.17 15.02C254.9 1497.92 210.96 1511.03 198.25 1512.87z"></path><path fill="#37424c" d="M143.07,1462.92l10.46,21.51c1.21,2.49,4.57,2.95,6.4,0.87l0,0c0.93-1.06,1.21-2.53,0.74-3.86l-5.93-16.69
						c-1.31-3.68-0.51-7.76,2.02-10.74c4.82-5.69,11.24-16.33,5.37-28.11c-1.26-2.54-0.1-5.62,2.53-6.66
						c9.17-3.6,27.07-11.78,31.92-22.25c0.89-1.92,1.95-3.77,3.17-5.5c3.42-4.86,8.72-15.21,0.38-24.51
						c-1.38-1.54-3.62-1.98-5.48-1.08l-15.69,7.63c-1.09,0.53-2.4,0.15-3.05-0.87l-8.03-12.72c-0.87-1.37-2.83-1.49-3.85-0.23
						l-13.6,16.64c-2.96,3.62-7.69,5.25-12.25,4.26c-9.48-2.06-27.3-2.63-44.98,14.51c-15.73,15.24-18.06,39.24-17.47,55.69
						c0.38,10.78,5.57,20.82,14.07,27.47l19.92,15.56c0.74,0.57,1.43,1.2,2.07,1.88c4.86,5.12,23.98,29.67,33.16,20.17
						c0.25-0.26,0.3-0.66,0.14-0.99l-2.85-15.1c-1.54-3.17-3.96-5.82-6.99-7.62c-8.15-4.84-23.65-16.12-13.18-27.06
						c3.49-3.65,8.4-5.7,13.44-5.64C138.59,1459.51,141.78,1460.26,143.07,1462.92z"></path><polygon fill="#f7c19b" points="345.87 2440.97 340.89 2506.72 288.89 2503.86 292.77 2440.65"></polygon><path fill="#37424c" d="M278.34,2550.8l111.61,0.63c8.15,0.05,14.8-6.53,14.85-14.68l0,0c0.01-1.44-1.45-4.53-2.56-5.44
							l-57.33-44.93c-2-1.63-4.6-0.94-6.68,0.59c-13.59,10.01-32.81,9.54-51.97,8.34C274.66,2515.68,278.33,2534.32,278.34,2550.8z"></path><polygon fill="#f7c19b" points="191.85 2437.66 186.52 2503.38 134.54 2500.25 138.76 2437.06"></polygon><path fill="#37424c" d="M123.73,2547.13l111.61,1.22c8.15,0.09,14.84-6.45,14.93-14.6l0,0c0.02-1.44-1.42-4.54-2.53-5.45
							l-57.09-45.23c-1.99-1.65-4.6-0.96-6.69,0.56c-13.64,9.94-32.86,9.37-52.01,8.06
							C120.24,2511.99,123.81,2530.65,123.73,2547.13z"></path><polygon fill="#37424c" points="252.75 1870.07 355.87 2162.95 355.87 2455.28 287.57 2454.87 276.94 2208.26 197.18 2030.9 221.4 2233.11 193.56 2456.74 133.7 2463.05 134.38 2243.34 37.69 1895.04 159.14 1838.59"></polygon><path fill="#f7c19b" d="M371.11,1439.36l25.64,12.76l7.25-9.95c0,0,35.18-25.76,5.3-47.5c-11.64-8.47-27.68,2.2-24.19,16.17
						c0.05,0.2,0.1,0.39,0.15,0.59c0.13,0.48-0.51,0.78-0.79,0.36l-6.65-9.93c-1.13-1.69-3.4-2.18-5.13-1.1l0,0
						c-1.58,0.99-2.2,2.99-1.46,4.7l5.04,11.55c1.13,2.58,1.2,5.5,0.2,8.14L371.11,1439.36z"></path><path fill="#ecf0f1" d="M149.84,1530.33c-0.56,0.29-1.13,0.58-1.68,0.88l0.73-1.89C149.21,1529.66,149.53,1530,149.84,1530.33z"></path><path fill="#f7c19b" d="M392.1,1725.44l7.46,27.65l12.26-1.18c0,0,42.61,9.23,39.05-27.56c-1.39-14.33-20.02-19.25-28.14-7.37
						c-0.11,0.17-0.23,0.34-0.34,0.51c-0.28,0.42-0.92,0.14-0.79-0.35l3.01-11.57c0.51-1.97-0.63-3.99-2.58-4.56l0,0
						c-1.79-0.53-3.7,0.34-4.48,2.03l-5.3,11.43c-1.18,2.56-3.32,4.55-5.96,5.55L392.1,1725.44z"></path><path fill="#fa5669" d="M150.17,1530.67c-0.11-0.11-0.21-0.22-0.33-0.34c0.09-0.05,0.18-0.09,0.27-0.14L150.17,1530.67z"></path><path fill="#fa5669" d="M408.66,1446.65l-56,131.74c-7.27,17.11-24.6,27.73-43.16,26.45l-35.63-2.47l-13,75.64l-13.14,76.51
						l-2.44,14.19l17.27,105.57l8.86,48.86l-66.08,12.8v0.04c-94.1,25.97-183.05,37.19-180.29,0l30.14-181.94
						c0,0-31.57-157.12,92.95-222.83h0.01c0.55-0.31,1.12-0.59,1.68-0.88c0.12,0.12,0.22,0.24,0.33,0.34
						c5.86,6.05,11.66,10.28,17.64,12.31c9.14,3.37,18.71,1.76,29.37-5.48c3.24-2.02,6.57-4.73,9.99-7.82l0.05,0.06l-0.02-0.07
						l91.74,11.8l67.44-107.72L408.66,1446.65z"></path><path fill="#fa5669" d="M404.8,1758.84l-94.78,19.45c-22.7,2.4-45.23-5.87-60.97-22.39l-1.32-1.38l13.14-76.51
						c24.51,28.25,43.04,51.34,43.04,51.34l93.39-9.62L404.8,1758.84z"></path><path fill="#f7c19b" d="M1193.86 1255.48l-5.82 18.74-8.36-1.12c0 0-29.41 5.23-26.03-19.87 1.32-9.78 14.2-12.66 19.46-4.32.07.12.15.24.22.36.18.29.63.12.55-.22l-1.77-8c-.3-1.36.53-2.72 1.88-3.06l0 0c1.24-.32 2.52.32 3.02 1.5l3.34 7.96c.75 1.78 2.16 3.2 3.94 3.95L1193.86 1255.48zM1155.41 1294.2l-5.82 18.74-8.36-1.12c0 0-29.41 5.23-26.03-19.87 1.32-9.77 14.2-12.66 19.46-4.32.07.12.15.24.22.36.18.29.63.12.55-.22l-1.77-8c-.3-1.36.53-2.71 1.88-3.06l0 0c1.24-.32 2.52.32 3.02 1.5l3.34 7.96c.75 1.78 2.16 3.2 3.94 3.96L1155.41 1294.2z"></path><rect width="53.05" height="40.07" x="1085.92" y="1735.33" fill="#f7c19b" transform="rotate(-74.36 1112.417 1755.321)"></rect><path fill="#37424c" d="M1129.58,1781.31l1.74,29.26c0.15,2.45-0.36,4.75-1.46,6.71l0,0c-2.79,4.93-9.02,6.98-15.71,5.16
								l-66.67-18.14c-5.7-1.55-11.27-4.21-16.3-7.79l0,0c-5.53-3.93-7.61-10.67-4.66-15.06l0,0c1.2-1.79,3.13-2.98,5.46-3.4
								l52.51-15.16c1.26-0.36,2.7-0.32,4.13,0.13l34.65,10.85C1126.71,1774.95,1129.4,1778.1,1129.58,1781.31z"></path><rect width="43.22" height="57.23" x="1694.46" y="1720.44" fill="#f7c19b" transform="rotate(-88.396 1716.068 1749.07)"></rect><path fill="#404251" d="M1738.6,1724.3l30.17-9.47c2.53-0.79,5.07-0.87,7.4-0.22l0,0c5.89,1.63,9.66,7.62,9.51,15.09
								l-1.55,74.52c-0.13,6.37-1.46,12.89-3.88,19.1l0,0c-2.66,6.81-9.17,10.76-14.54,8.81l0,0c-2.18-0.79-3.94-2.49-4.98-4.83
								l-29.6-50.98c-0.71-1.22-1.04-2.74-0.94-4.35l2.3-39.1C1732.7,1728.97,1735.31,1725.34,1738.6,1724.3z"></path><path fill="#48495b" d="M1497.35,1492.11c14.62,46.36,23.07,104.75,26.11,173.66c0.61,13.94,9.57,26.3,22.79,30.78
								c48.61,16.46,102.43,25.55,160.48,28.65l-1.09,49.89l-149.51-6.6c-37.43-1.65-70.87-23.91-86.83-57.81l-66.46-141.1
								l-184.63,46.8c-12.13,3.07-22.11,11.67-26.95,23.22l-51.57,123.1l-53.58-10.53l55.52-155.17c7.52-21,23.28-38.03,43.64-47.14
								l164.24-73.48c0,0,28.42-11.18,70.62,4.6c11.15,4.17,22.49,7.81,34.19,10.01
								C1469.78,1493.91,1489.03,1496.26,1497.35,1492.11z"></path><path fill="#f7c19b" d="M1352.64,1225.85c1-0.04,1.68,0.99,1.25,1.89l-7.72,16.36c-0.42,0.85-0.75,1.5-0.39,2.17
								c1.04,1.75,2.22,3.19,3.55,4.36c5.73,5.11,13.8,5.2,20.88,3.77c7.28-1.43,13.45-4.47,14.89-5.37
								c0.26-0.15,0.41-0.41,0.46-0.7l3.21-27.08c0.06-0.42,0.32-0.79,0.7-0.99c18-9.96,18.96-34.58,18.96-34.58
								c-1.05-54.09-41.1-49.48-60.58-44.01c-6.51,1.83-11.67,6.83-13.73,13.26C1312.23,1223.21,1343.77,1226.29,1352.64,1225.85z"></path><path fill="#37424c" d="M1383.47,1184.66l-4.25,15.98c-0.49,1.85-2.71,2.6-4.23,1.43l0,0c-0.77-0.59-1.16-1.56-1.01-2.52
								l1.82-12.11c0.4-2.67-0.68-5.33-2.79-7.02c-4.02-3.22-9.79-9.59-7.37-18.36c0.52-1.89-0.67-3.83-2.6-4.18
								c-6.7-1.23-19.93-4.41-24.6-10.87c-0.86-1.19-1.82-2.3-2.88-3.31c-2.96-2.84-7.93-9.16-3.5-16.58
								c0.73-1.23,2.2-1.82,3.58-1.46l11.65,3.1c0.81,0.22,1.65-0.21,1.96-0.99l3.77-9.69c0.41-1.05,1.72-1.39,2.58-0.67l11.43,9.49
								c2.48,2.06,5.91,2.55,8.88,1.27c6.16-2.65,18.17-5.4,32.44,3.89c12.69,8.26,17.45,24.24,19.23,35.47
								c1.17,7.37-1.02,14.87-5.91,20.5l-11.46,13.19c-0.42,0.49-0.81,1.01-1.16,1.55c-2.62,4.12-12.34,23.3-19.83,18.08
								c-0.2-0.14-0.29-0.41-0.23-0.65l-0.07-10.62c0.63-2.35,1.92-4.47,3.73-6.09c4.89-4.36,13.91-14.07,5.36-20.11
								c-2.85-2.01-6.45-2.76-9.87-2.05C1386.06,1181.75,1383.99,1182.68,1383.47,1184.66z"></path><path fill="#00dcab" d="M1387.51 1235.06c-.16-.07-.33-.13-.49-.19.07-.11.14-.21.22-.32L1387.51 1235.06zM1346.52 1475.2l-3.81-69.52-31.5-69.57-61.7 10.04-104.81-28.33 7.09-31.28 79.68 12.26 22.23 3.42 35.67-22.91 60.25-38.68c16.85 11.87 26.41 8.94 36.48-4.49.29-.41.6-.82.91-1.25.16.06.33.12.49.19 90.37 33.74 83.09 144 83.09 144l31.89 130.81C1480.79 1533.7 1329.18 1495.2 1346.52 1475.2z"></path><g><polygon fill="#00dcab" points="1289.38 1279.3 1253.71 1302.21 1231.48 1298.78 1182.63 1277.89 1188.84 1249.18"></polygon><path fill="#00dcab" d="M1387.02,1234.88c-0.31,0.42-0.61,0.84-0.91,1.25l-0.02-1.59
							C1386.4,1234.65,1386.71,1234.76,1387.02,1234.88z"></path></g><g><path fill="#2b91cc" d="M560.64,1795.97L773.87,1708c16.86,40.86,41.53,74.83,69.41,98.76c6.58,5.66,13.34,10.66,20.24,15.16
					c1.59,1.07,3.17,2.13,4.82,3.06c2.5,1.61,5.05,3.08,7.76,4.37c3.74,2.12,7.5,4.01,11.48,5.59c0.36,0.31,0.91,0.54,1.43,0.67
					c2.25,1.02,4.57,1.9,6.84,2.68c1.52,0.63,3.1,1.13,4.68,1.62c1.48,0.53,3.02,0.93,4.42,1.27c9.32,2.58,18.53,4.05,27.65,4.19
					c1.95,0,3.9,0,5.94-0.05c0.1-0.04,0.24,0.02,0.34-0.02c2.14-0.08,4.35-0.3,6.45-0.48c0.96-0.17,1.93-0.34,2.93-0.41
					c1.16-0.25,2.26-0.36,3.42-0.61c1.59-0.31,3.28-0.67,4.93-1.12c1.98-0.47,3.87-0.91,5.77-1.58c2.34-0.73,4.73-1.61,6.98-2.54
					c66.83-27.57,87.67-130.77,46.56-230.43l213.33-88.01c-4.46-13.87-8.88-27.64-13.4-41.37c-2.5-7.45-4.86-14.85-7.37-22.3
					c-10.4-31.6-21.01-62.89-31.8-93.76c-2.46-7.36-4.98-14.57-7.6-21.75c-8.23-23.55-16.57-46.83-25.02-69.83
					c-1.33,0.66-2.8,1.27-4.17,1.84c-1.47,0.61-3.04,1.25-4.55,1.76c-92.25,35.99-189.48,8.79-218.58-61.76
					c-29.43-71.34,21.8-160.36,114.55-199.31l1.37-0.57c2.16-0.89,4.31-1.78,6.41-2.53c-1.31-2.9-2.58-5.7-3.85-8.5
					c-5.97-13.36-12.04-26.68-18.22-39.72c-2.42-5.31-4.94-10.58-7.45-15.85c-2.88-6.15-5.82-12.16-8.76-18.17
					c-1.81-3.84-3.72-7.64-5.59-11.34c-3.46-7.29-6.99-14.43-10.61-21.54c-0.87-1.82-1.79-3.51-2.62-5.23
					c-4.65-9.32-9.39-18.6-14.2-27.74c-0.58-1.14-1.21-2.37-1.89-3.46c-5.09-9.83-10.23-19.52-15.43-29.07
					c-1.55-2.91-3.09-5.83-4.74-8.71c-6.12-11.23-12.31-22.33-18.55-33.28c-2.03,1.18-4.11,2.27-6.18,3.35
					c-223.9,124.36-445.16,220.11-662.42,272.47L560.64,1795.97"></path><path fill="#204f7f" d="M1135.37 1274.72c-.94.5-2.02.95-3 1.35-1.47.61-3.04 1.25-4.55 1.76-92.25 35.99-189.48 8.79-218.58-61.76-29.43-71.34 21.8-160.36 114.55-199.31l1.37-.57c1.27-.53 2.55-1.05 3.76-1.44-91.27 39.49-141.33 127.45-112.14 198.2C945.89 1283.51 1043.12 1310.71 1135.37 1274.72zM1139.89 1272.97c1.37-.57 2.84-1.17 4.17-1.84 8.46 23 16.8 46.28 25.02 69.83 2.62 7.18 5.13 14.39 7.6 21.75 10.79 30.87 21.4 62.15 31.8 93.76 2.5 7.45 4.87 14.85 7.37 22.3 4.52 13.73 8.94 27.5 13.4 41.37l-213.33 88.01c41.11 99.66 20.27 202.86-46.56 230.43-2.25.93-4.64 1.8-6.98 2.54-1.9.67-3.79 1.1-5.77 1.58-1.65.45-3.34.8-4.93 1.12-1.16.25-2.26.36-3.42.61-1 .07-1.97.24-2.93.41-2.1.18-4.31.4-6.45.48-.1.04-.24-.02-.34.02-2.05.04-4 .04-5.94.05-9.12-.14-18.32-1.61-27.65-4.19-1.4-.34-2.94-.73-4.42-1.27-1.58-.5-3.16-.99-4.68-1.62-2.27-.78-4.58-1.66-6.84-2.68-.51-.13-1.07-.36-1.43-.67-3.97-1.57-7.73-3.46-11.48-5.59-2.71-1.29-5.27-2.76-7.76-4.37-1.64-.93-3.23-1.99-4.82-3.06-6.9-4.49-13.67-9.5-20.24-15.16 36.6 26.18 77.01 35.2 111.9 20.81 66.83-27.57 87.67-130.77 46.56-230.43l213.33-88.01c-25.79-80.29-52.24-158.59-79.73-234.4C1136.85 1274.22 1138.42 1273.57 1139.89 1272.97zM843.26 1806.77c-30.25-21.35-57.7-54.52-77.25-95.53l7.84-3.23C790.74 1748.96 815.38 1782.83 843.26 1806.77zM773.82 1708.01l-213.21 87.96c-1.59-4.96-3.08-9.97-4.77-14.89l211.64-87.31C769.5 1698.67 771.58 1703.43 773.82 1708.01zM1035.24 1002.06c1.27 2.8 2.54 5.6 3.85 8.5-2.1.75-4.25 1.64-6.41 2.53l-1.37.57C996.48 934.8 959.77 860.27 921 791.29c2.07-1.08 4.15-2.17 6.18-3.35 6.24 10.96 12.42 22.05 18.55 33.28 1.65 2.88 3.19 5.79 4.74 8.71 5.2 9.55 10.34 19.24 15.43 29.07.68 1.1 1.3 2.33 1.89 3.46 4.8 9.14 9.55 18.42 14.2 27.74.83 1.72 1.75 3.41 2.62 5.23 3.62 7.11 7.14 14.25 10.61 21.54 1.87 3.7 3.78 7.5 5.59 11.34 2.94 6.01 5.88 12.02 8.76 18.17 2.52 5.27 5.03 10.54 7.45 15.85C1023.1 975.42 1029.22 988.6 1035.24 1002.06z"></path></g><g><path fill="#2b91cc" d="M2109.83,2002.97c-3.07,67.63-4.66,134.84-4.66,201.62c0,66.99,1.59,133.56,4.88,199.71
					c1.38,29.36,3.07,58.62,5.19,87.77c1.59,22.68,3.39,45.26,5.51,67.84h-724c-0.32-2.23-0.64-4.45-0.85-6.78
					c-0.42-3.29-0.74-6.57-1.06-9.86c-1.17-10.81-2.23-21.73-3.18-32.76c-0.21-1.27-0.32-2.65-0.42-3.92
					c-0.95-10.28-1.8-20.67-2.54-31.06c-0.11-1.91-0.32-3.82-0.42-5.83c-0.64-7.95-1.17-15.9-1.59-23.96
					c-0.32-4.14-0.64-8.38-0.85-12.62c-0.42-6.68-0.85-13.36-1.17-20.14c-0.32-5.83-0.63-11.66-0.85-17.49
					c-0.64-14.42-1.27-28.94-1.7-43.67c-0.11-3.07-0.21-6.15-0.32-9.33c2.23,0.11,4.56,0.11,6.89,0.11h1.48c0.85,0,1.7,0,2.54-0.11
					h0.95c2.76-0.11,5.51-0.21,8.27-0.32c6.15-0.32,12.19-0.85,18.13-1.7c2.97-0.32,5.94-0.74,8.9-1.38
					c5.83-0.85,11.55-2.12,17.17-3.61c5.62-1.38,11.13-2.97,16.54-4.88c2.65-0.96,5.3-1.91,7.95-2.86
					c5.3-1.91,10.39-4.13,15.26-6.57c4.98-2.44,9.75-4.98,14.31-7.63s9.01-5.51,13.15-8.59c4.45-3.18,8.69-6.47,12.61-9.97
					c1.59-1.16,3.18-2.54,4.66-4.24c2.02-1.8,4.03-3.71,5.83-5.62c3.5-3.6,6.78-7.31,9.65-11.13c1.48-1.91,2.97-3.92,4.35-5.83
					c2.86-3.92,5.41-8.06,7.53-12.19c1.06-2.01,2.12-4.14,3.18-6.25c2.01-4.24,3.82-8.48,5.19-12.93c1.48-4.45,2.65-9.01,3.6-13.67
					c1.38-6.89,2.12-13.89,2.12-21.09c0-7.21-0.74-14.2-2.12-21.1c-0.53-2.23-0.95-4.56-1.59-6.78
					c-4.03-15.79-11.55-30.64-22.15-43.99c-2.86-3.92-6.15-7.63-9.65-11.13c-3.39-3.71-6.89-7-10.71-10.28
					c-10.49-8.9-22.37-16.96-35.62-23.74c-2.23-1.06-4.35-2.12-6.68-3.18c-5.3-2.44-10.81-4.77-16.43-6.79
					c-2.76-1.06-5.62-2.01-8.48-2.86c-2.76-0.95-5.62-1.8-8.48-2.54c-0.21-0.11-0.42-0.11-0.74-0.21c-2.44-0.64-4.88-1.27-7.31-1.8
					c-0.64-0.21-1.38-0.32-2.12-0.53c-2.65-0.64-5.41-1.06-8.16-1.59c-9.22-1.8-18.76-2.97-28.51-3.5
					c-2.54-0.21-4.98-0.32-7.63-0.32c-0.53-0.11-1.17-0.11-1.7-0.11h-0.42c-1.59-0.11-3.29-0.11-4.88-0.11c-1.48,0-3.07,0-4.56,0.11
					c0.95-24.49,2.12-49.19,3.5-74.1c0.32-7.63,0.74-15.27,1.27-23c1.8-32.65,3.92-65.62,6.36-98.8c0.53-7.84,1.17-15.58,1.7-23.43
					c1.06-14.42,2.23-28.83,3.39-43.35h230.77c0-107.81,58.62-195.26,130.91-195.26c2.44,0,4.98,0.11,7.42,0.32
					c2.01,0.11,3.92,0.42,5.94,0.74c1.7,0.21,3.39,0.53,4.98,0.85c1.17,0.21,2.23,0.53,3.39,0.74c0.95,0.32,1.91,0.53,2.86,0.74
					c2.01,0.64,4.13,1.27,6.15,2.01c0.11,0,0.21,0.11,0.32,0.11c1.91,0.74,3.71,1.48,5.51,2.23c8.38,3.61,16.32,8.48,23.96,14.42
					c1.17,0.85,2.44,1.8,3.6,2.86c1.27,1.06,2.54,2.12,3.71,3.29c1.8,1.59,3.6,3.28,5.3,5.09c0.42,0.32,0.85,0.74,1.06,1.17
					c3.07,2.97,5.83,6.15,8.48,9.54c2.01,2.23,3.82,4.56,5.51,7c1.17,1.49,2.23,3.08,3.29,4.66c4.66,6.78,9.01,13.99,12.93,21.73
					c16.64,32.75,26.5,73.46,26.5,117.77h230.66c-0.42,5.19-0.95,10.39-1.27,15.58c-1.17,11.98-2.12,23.85-2.97,35.72
					C2115.34,1901.42,2112.16,1952.3,2109.83,2002.97z"></path><path fill="#204f7f" d="M1393.5,2061.59c1.06-0.11,2.23-0.11,3.29-0.11c1.59,0,3.29,0,4.88,0.11
					c99.01,1.91,178.51,64.13,178.51,140.45c0,77.17-81.31,139.93-181.9,140.56h-1.49c-1.38,0-2.76,0-4.03-0.11
					c99.43-1.7,179.25-63.92,179.25-140.45C1572.01,2125.72,1492.51,2063.5,1393.5,2061.59z"></path><path fill="#204f7f" d="M1388.66 2061.49c-1.48 0-3.07 0-4.56.11.95-24.49 2.12-49.19 3.5-74.1.32-7.63.74-15.26 1.27-23 1.8-32.65 3.92-65.62 6.36-98.8.53-7.84 1.17-15.58 1.7-23.43 1.06-14.42 2.23-28.83 3.39-43.36h230.77c0-107.8 58.62-195.26 130.91-195.26 2.44 0 4.98.11 7.42.32 2.01.11 3.92.42 5.94.74 1.7.21 3.39.53 4.98.85 1.17.21 2.23.53 3.39.74.95.32 1.91.53 2.86.74 2.01.64 4.13 1.27 6.15 2.01.11 0 .21.11.32.11 1.91.74 3.71 1.48 5.51 2.23 8.37 3.61 16.32 8.48 23.96 14.42 1.17.85 2.44 1.8 3.6 2.86 1.27 1.06 2.54 2.12 3.71 3.29 1.8 1.59 3.6 3.29 5.3 5.09.42.32.85.74 1.06 1.17 3.07 2.97 5.83 6.15 8.48 9.54 2.01 2.23 3.82 4.56 5.51 7 1.17 1.48 2.23 3.07 3.29 4.66 4.66 6.78 9.01 13.99 12.93 21.73-23.85-38.16-57.77-61.91-95.51-61.91-72.29 0-130.91 87.45-130.91 195.26h-230.77c-6.78 84.06-12.19 166.53-15.69 247.09C1391.95 2061.49 1390.25 2061.49 1388.66 2061.49zM1866.45 1681.15c19.82 31.27 32.54 72.4 34.98 117.77h-8.48C1892.95 1754.61 1883.09 1713.91 1866.45 1681.15zM1892.98 1798.92h230.64c-.42 5.19-.95 10.39-1.27 15.58H1893.4C1893.4 1809.2 1893.3 1804.01 1892.98 1798.92zM1403.85 2559.91h-7.1c-.32-2.23-.64-4.45-.85-6.78-.42-3.29-.74-6.57-1.06-9.86-1.17-10.81-2.23-21.73-3.18-32.76-.21-1.27-.32-2.65-.42-3.92-.95-10.28-1.8-20.67-2.54-31.06-.11-1.91-.32-3.82-.42-5.83-.64-7.95-1.17-15.9-1.59-23.96-.32-4.14-.64-8.38-.85-12.62-.42-6.68-.85-13.36-1.17-20.14-.32-5.83-.63-11.66-.85-17.49-.64-14.42-1.27-28.94-1.7-43.67-.11-3.07-.21-6.15-.32-9.33 2.23.11 4.56.11 6.89.11h1.48C1391.97 2417.76 1396.43 2490.48 1403.85 2559.91z"></path></g><g><rect width="46.03" height="36.68" x="2204.76" y="2442.41" fill="#f7c19b" transform="rotate(-83.979 2227.777 2460.705)"></rect><path fill="#37424c" d="M2211.62,2462.96c4.14,3.34,15.5,10.17,31.22,0.81c1.1-0.66,2.52-0.24,3.09,0.91l7.23,14.71
					c2.27,4.62,2.09,10.06-0.48,14.52l-34.01,58.87c-1.37,2.37-3.64,4.08-6.3,4.73l-8.59,2.11c-5.39,1.33-10.83-1.97-12.16-7.35l0,0
					c-1.89-7.68-2.14-15.67-0.74-23.45l9.43-52.43c0.27-1.5,0.88-2.93,1.77-4.16l6.39-8.84
					C2209.21,2462.36,2210.65,2462.17,2211.62,2462.96z"></path><rect width="36.29" height="45.53" x="2409.28" y="2448.66" fill="#f7c19b"></rect><path fill="#37424c" d="M2408.36,2485.01c6.19,4.11,20.06,10.18,37.22-1.78c0.84-0.58,1.93-0.65,2.83-0.18l53.85,27.51
							c3.67,1.87,5.98,5.65,5.98,9.76l0,0c0,6.06-4.91,10.97-10.97,10.97h-88.48c-5.73,0-10.37-4.65-10.37-10.37l0,0
							c0-0.58,0.05-1.17,0.15-1.74l5.5-32.32C2404.41,2484.87,2406.68,2483.9,2408.36,2485.01z"></path><path fill="#f7c19b" d="M2453.93,1933.41l-1.88,5.55c-0.57,1.68-1.41,3.24-2.49,4.65c-4.35,5.67-15.25,22.42,0.26,30.6
							c15.88,8.38,18.78-14.24,19.3-21.54c0.05-0.78,1.03-1.09,1.53-0.49l5.52,6.58c0.89,1.06,2.5,1.15,3.5,0.19l0,0
							c0.8-0.76,0.98-1.96,0.43-2.92l-2.52-4.46c-1.69-2.99-2.16-6.52-1.32-9.85l0,0L2453.93,1933.41z"></path><path fill="#334d5e" d="M2255.12,1986.34l175.02-10.29l14.57,173.69c2.95,32.47,3.33,59.91,4.1,87.73l-0.15,229.07
							c0.36,2.68-1.73,5.06-4.43,5.06h-33.58c-1.76,0-3.36-1.04-4.08-2.65l-61.11-317.44c-2.41-5.4-7.77-8.89-13.69-8.89l0,0
							c-5.83,0-11.13,3.38-13.59,8.66l-66.65,296.46c-0.94,2.03-3.24,3.04-5.37,2.38l-36.29,1.21c-2.27-0.7-3.59-3.06-3.01-5.36
							C2219.96,2275.86,2224.55,2084.48,2255.12,1986.34z"></path><path fill="#f7c19b" d="M2246.52,1481.76l0.02-0.13c0.45-3.64,0.31-7.32-0.37-10.92c-1.72-9.1-4.03-33.63,17.7-36.8
								c20.89-3.05,11.77,19.2,6.94,30.58c-0.52,1.23,0.94,2.34,1.99,1.52l7.29-5.69c1.24-0.97,3.04-0.65,3.88,0.69l0,0
								c0.67,1.07,0.49,2.47-0.44,3.33l-9.12,8.55c-1.47,1.38-2.54,3.12-3.11,5.05l-1.74,5.89L2246.52,1481.76z"></path><path fill="#8a8bc4" d="M2262.11,1995.96c22.79,4.82,101.29,58.35,166.62-16.29c1.8-2.06,1.89-5.1,0.2-7.25
								c-8.06-10.26-25.79-87.11-12.71-155.33c0.19-0.96,0.72-1.83,1.49-2.43l0,0c1.42-1.11,3.4-1.15,4.86-0.11l33.39,23.71
								c8.55,6.07,12.71,16.61,10.61,26.88l-14.04,68.88c-0.22,1.1,0.37,2.21,1.41,2.64l20.97,8.53c1.18,0.48,2.53-0.07,3.03-1.25
								l42.77-99.77c4.61-10.75,1.62-23.25-7.35-30.75L2424,1738.7c-2.06-1.72-4.5-2.92-7.12-3.5l-46.92-10.36l-45.89-6.79
								c-5.24-0.78-9.86-3.85-12.59-8.39l-41.73-69.17c-9.89-16.39-13.94-35.64-11.49-54.63l13.38-103.67l-27.44-3.38l-34.62,129.65
								c-4.25,15.94-3.77,32.78,1.41,48.44l38.1,115.37c4.73,14.32,7.13,29.3,7.1,44.38l-0.29,171.66
								C2255.91,1992,2258.5,1995.19,2262.11,1995.96z"></path><path fill="#f7c19b" d="M2338.73,1713.8c1.04,0.27,1.42,1.54,0.7,2.33l-13.01,14.47c-0.69,0.74-1.24,1.31-1.07,2.11
							c0.53,2.13,1.29,3.97,2.3,5.59c4.32,7.04,12.61,9.63,20.35,10.36c7.94,0.78,15.24-0.44,17-0.92c0.31-0.08,0.55-0.3,0.69-0.58
							l11.69-26.91c0.19-0.42,0.57-0.71,1.03-0.8c21.63-4.69,30.24-29.75,30.24-29.75c15.67-56.05-27.02-63.7-48.78-64.1
							c-7.27-0.13-14.13,3.42-18.25,9.41C2297.91,1698.56,2329.45,1711.5,2338.73,1713.8z"></path><path fill="#37424c" d="M2383.24,1680.9l-9.33,15.15c-1.08,1.75-3.6,1.84-4.8,0.17l0,0c-0.61-0.85-0.71-1.97-0.26-2.91
							l5.62-11.91c1.24-2.63,0.95-5.71-0.7-8.1c-3.15-4.57-7.12-12.91-1.9-21.19c1.12-1.78,0.49-4.15-1.38-5.11
							c-6.52-3.34-19.16-10.71-21.98-18.82c-0.52-1.49-1.17-2.93-1.94-4.3c-2.17-3.85-5.33-11.9,1.53-18.16
							c1.14-1.04,2.83-1.2,4.14-0.39l11.04,6.8c0.77,0.47,1.77,0.29,2.32-0.42l6.88-8.82c0.74-0.95,2.2-0.9,2.87,0.11l8.83,13.31
							c1.92,2.89,5.3,4.45,8.75,4.06c7.17-0.83,20.39,0.07,32.22,14.06c10.52,12.44,10.47,30.37,8.82,42.5
							c-1.08,7.95-5.66,15-12.44,19.29l-15.89,10.04c-0.59,0.37-1.15,0.79-1.67,1.24c-3.98,3.43-19.93,20.19-26.03,12.48
							c-0.17-0.21-0.17-0.51-0.03-0.74l3.22-10.97c1.37-2.23,3.36-4.01,5.73-5.12c6.39-2.98,18.69-10.19,11.75-19.05
							c-2.32-2.96-5.79-4.84-9.53-5.17C2386.8,1678.71,2384.39,1679.04,2383.24,1680.9z"></path></g><g><polygon fill="#f7c19b" points="2485.92 1597.28 2484.66 1637.59 2520.06 1643.97 2522.29 1603.39"></polygon></g><g><path fill="#37424c" d="M2511.57,1683.07l-84.69-27.91c-4.29-1.41-6.62-6.04-5.21-10.32l1.2-3.63c0.36-1.11,2.29-3.11,3.38-3.53
					l55.77-19.77c1.96-0.74,3.79,0.47,4.99,2.19c7.4,10.55,21.02,15.25,35.13,19.12c1.7,0.47,2.98,1.88,3.22,3.63
					c2.06,14.86-2.94,26.34-6.95,36.94C2517.37,1682.52,2514.37,1683.99,2511.57,1683.07z"></path></g><g><polygon fill="#f7c19b" points="2715.15 1650.39 2726.41 1688.53 2761.53 1683.59 2751.1 1644.9"></polygon></g><g><path fill="#f7c19b" d="M2564.5,1099.1l-8.04-14.28l-17.56-18.75l-14.58-42.26h-64.28l-9.71,34l15.56,33.46l-0.16,10.89
						c-0.02,1.54,1.22,2.8,2.76,2.8h9.7c0,0,4.17,23.21,35.32,9.72l8.43,7.04l26.09-3.87c0,0,13.1-2.78,13.1-4.76
						C2561.13,1111.11,2564.5,1099.1,2564.5,1099.1z"></path><path fill="#37424c" d="M2544.56,1074.4c0,0,20.54-69.04-23.81-71.72c0,0-45.53-33.93-74.4,21.13c0,0-8.63,2.38-16.96-1.79
						c0,0,0.6,5.36,7.44,12.8c0,0,0,4.76-10.12,3.27c0,0-5.06,6.55,12.2,10.71c0,0,7.14,19.05,35.71,2.98c0,0,23.51-8.33,27.08-0.3
						l5.06,10.12c0,0-2.08-22.62,16.07-15.48c0,0,6.96,3.1,5.04,23.45c-0.38,4.06,1.35,8.23,4.92,10.18
						C2536.08,1081.54,2540.39,1081.54,2544.56,1074.4z"></path></g><g><path fill="#596d7c" d="M2617.67,1312.69l-41.27,33.33l-91.46,40.58c-12.6,5.59-20.04,18.74-18.42,32.42
						c8.23,69.37,21.11,128.26,19.4,178.26l35.7,17.41c9.16-55.12,11.66-113.13,4.22-174.38l89.26-15.92c0,0,18.45,75,55.95,145.83
						l44.11,80.17l37.6,0.66l-38.96-133.59c-5.08-14.78-8.65-30.04-10.67-45.55l-19.78-152.08l-46.23-27.58L2617.67,1312.69z"></path><path fill="#ffc42e" d="M2576.4,1346.02l-0.71-5.52c-2.05-15.95-7.26-31.31-15.26-45.25c-16.93-29.53-44.87-84.91-36.42-115.89
						l-81.19-4.94c-6.52-0.4-12.72-2.99-17.57-7.37l-88.53-79.75l26.88-28.07l79.26,59.31c5.32,3.98,11.86,6.01,18.51,5.73
						l60.56-2.54l34.52-36.9l40.24,25.16c12.76,7.98,22.86,19.57,29.02,33.31l18.03,40.24c4.42,9.87,7.48,20.29,9.09,30.98
						l4.48,29.74c1.21,8.03,3.28,15.91,6.18,23.51l19.85,52.07C2647.43,1339.94,2611.79,1348.46,2576.4,1346.02z"></path></g><g><path fill="#37424c" d="M2767.77,1718.77l-87.59,7.67c-4.44,0.39-8.35-2.89-8.73-7.33l-0.33-3.75c-0.1-1.14,0.86-3.71,1.69-4.51
					l42.82-39.62c1.49-1.43,3.62-1.05,5.37,0.04c10.81,6.68,24.97,5.64,39.27,3.65c1.72-0.24,3.43,0.55,4.33,2.03
					c7.65,12.66,7.59,25.01,8.08,36.17C2772.81,1716.02,2770.66,1718.52,2767.77,1718.77z"></path></g><g><path fill="#7d5457" d="M2253.8,2545.21c-1.02,0-2.05-0.16-3.07-0.5c-5.1-1.69-7.87-7.21-6.17-12.31l261.4-787.17
									c1.33-4.03,5.22-6.78,9.39-6.67c4.25,0.06,7.97,2.88,9.19,6.95l235.76,787.17c1.54,5.15-1.38,10.58-6.54,12.13
									c-5.16,1.54-10.58-1.38-12.13-6.54l-226.91-757.61l-251.68,757.88C2261.68,2542.62,2257.88,2545.21,2253.8,2545.21z"></path><path fill="#7d5457" d="M2965.26 2545.21c-4.08 0-7.89-2.59-9.24-6.68l-251.68-757.88-226.9 757.61c-1.54 5.16-6.97 8.09-12.13 6.54-5.15-1.55-8.08-6.97-6.54-12.13l235.76-787.17c1.22-4.07 4.94-6.88 9.19-6.95 4.13-.15 8.05 2.64 9.39 6.67l261.4 787.17c1.7 5.1-1.07 10.62-6.17 12.31C2967.31 2545.05 2966.27 2545.21 2965.26 2545.21zM2564.75 1917.31h-102.44c-5.38 0-9.74-4.36-9.74-9.74s4.36-9.74 9.74-9.74h102.44c5.38 0 9.74 4.36 9.74 9.74C2574.49 1912.95 2570.13 1917.31 2564.75 1917.31z"></path><path fill="#7d5457" d="M2605.16 2058.41h-190c-5.38 0-9.74-4.36-9.74-9.74 0-5.38 4.36-9.74 9.74-9.74h190c5.38 0 9.74 4.36 9.74 9.74C2614.9 2054.05 2610.54 2058.41 2605.16 2058.41zM2570.41 2203.58h-204.25c-5.38 0-9.74-4.36-9.74-9.74s4.36-9.74 9.74-9.74h204.25c5.38 0 9.74 4.36 9.74 9.74C2580.16 2199.22 2575.8 2203.58 2570.41 2203.58zM2520.45 2367.65h-206.83c-5.38 0-9.74-4.36-9.74-9.74s4.36-9.74 9.74-9.74h206.83c5.38 0 9.74 4.36 9.74 9.74C2530.19 2363.29 2525.83 2367.65 2520.45 2367.65zM2908.95 2373.67h-209.37c-5.38 0-9.74-4.36-9.74-9.74s4.36-9.74 9.74-9.74h209.37c5.38 0 9.74 4.36 9.74 9.74C2918.69 2369.31 2914.33 2373.67 2908.95 2373.67zM2851.81 2201.85h-203.69c-5.38 0-9.74-4.36-9.74-9.74s4.36-9.74 9.74-9.74h203.69c5.38 0 9.74 4.36 9.74 9.74S2857.19 2201.85 2851.81 2201.85z"></path><path fill="#7d5457" d="M2800.19 2048.15h-183.23c-5.38 0-9.74-4.36-9.74-9.74s4.36-9.74 9.74-9.74h183.23c5.38 0 9.74 4.36 9.74 9.74C2809.94 2043.79 2805.57 2048.15 2800.19 2048.15zM2748.66 1892.97h-85.22c-5.38 0-9.74-4.36-9.74-9.74s4.36-9.74 9.74-9.74h85.22c5.38 0 9.74 4.36 9.74 9.74S2754.04 1892.97 2748.66 1892.97z"></path><path fill="#7d5457" d="M2661.96 1897.91h-104.02c-5.38 0-9.74-4.36-9.74-9.74s4.36-9.74 9.74-9.74h104.02c5.38 0 9.74 4.36 9.74 9.74S2667.34 1897.91 2661.96 1897.91zM2756.98 1761.62h-294.91c-3.55 0-6.43-2.88-6.43-6.43v-22.29c0-3.55 2.88-6.43 6.43-6.43h294.91c3.55 0 6.43 2.88 6.43 6.43v22.29C2763.41 1758.74 2760.53 1761.62 2756.98 1761.62z"></path></g></svg>