<svg xmlns="http://www.w3.org/2000/svg" viewBox="0 0 1933.48 1362.08" id="social-media-communication"><path fill="#452e63" d="M2005 1448.23H389.67a8.5 8.5 0 0 0 0 17H2005a8.5 8.5 0 1 0 0-17ZM331.32 1448.23h-61.08a8.5 8.5 0 0 0 0 17h61.08a8.5 8.5 0 0 0 0-17ZM2128.78 1448.24h-65.44a8.5 8.5 0 0 0 0 17h65.44a8.5 8.5 0 0 0 0-17Z" transform="translate(-203.8 -103.26)"></path><path fill="#ff9495" d="M1600.31 183.9a8.46 8.46 0 0 1-6-2.49l-33.5-33.5a8.5 8.5 0 1 1 12-12l33.5 33.5a8.5 8.5 0 0 1-6 14.51Z" transform="translate(-203.8 -103.26)"></path><path fill="#ff9495" d="M1566.81 183.9a8.5 8.5 0 0 1-6-14.51l33.5-33.5a8.5 8.5 0 1 1 12 12l-33.5 33.5a8.48 8.48 0 0 1-6 2.51Z" transform="translate(-203.8 -103.26)"></path><path fill="#a6e0ff" d="M1922.76 938.88a8.46 8.46 0 0 1-6-2.49l-33.5-33.5a8.5 8.5 0 0 1 12-12l33.5 33.5a8.5 8.5 0 0 1-6 14.51Z" transform="translate(-203.8 -103.26)"></path><path fill="#a6e0ff" d="M1889.26 938.88a8.5 8.5 0 0 1-6-14.51l33.5-33.5a8.5 8.5 0 0 1 12 12l-33.5 33.5a8.46 8.46 0 0 1-6 2.51Z" transform="translate(-203.8 -103.26)"></path><path fill="#ff9495" d="M406 1273.71a8.48 8.48 0 0 1-6-2.49l-33.5-33.5a8.5 8.5 0 0 1 12-12l33.5 33.5a8.5 8.5 0 0 1-6 14.51Z" transform="translate(-203.8 -103.26)"></path><path fill="#ff9495" d="M372.51 1273.71a8.5 8.5 0 0 1-6-14.51l33.5-33.5a8.5 8.5 0 0 1 12 12l-33.5 33.5a8.46 8.46 0 0 1-6 2.51Z" transform="translate(-203.8 -103.26)"></path><path fill="#a6e0ff" d="M266.68 739.72a33.5 33.5 0 1 1 33.5-33.5 33.54 33.54 0 0 1-33.5 33.5Zm0-50a16.5 16.5 0 1 0 16.5 16.5 16.52 16.52 0 0 0-16.5-16.5ZM1069 173.77a33.5 33.5 0 1 1 33.5-33.5 33.54 33.54 0 0 1-33.5 33.5Zm0-50a16.5 16.5 0 1 0 16.5 16.5 16.52 16.52 0 0 0-16.5-16.5Z" transform="translate(-203.8 -103.26)"></path><path fill="#fde497" d="M1985.78 1046.71a33.5 33.5 0 1 1 33.5-33.5 33.54 33.54 0 0 1-33.5 33.5Zm0-50a16.5 16.5 0 1 0 16.5 16.5 16.52 16.52 0 0 0-16.5-16.5Z" transform="translate(-203.8 -103.26)"></path><path fill="#dad4ef" d="M1882.82 227.06a22.65 22.65 0 1 1 16-38.65 22.64 22.64 0 0 1-16 38.65Zm0-28.29a5.67 5.67 0 1 0 4 1.66 5.58 5.58 0 0 0-4-1.66Z" transform="translate(-203.8 -103.26)"></path><path fill="#ff9495" d="M701.27 177a22.63 22.63 0 1 1 16-6.62 22.59 22.59 0 0 1-16 6.62Zm0-28.27a5.64 5.64 0 1 0 4 1.65 5.63 5.63 0 0 0-4-1.61ZM2014.68 719.33a22.64 22.64 0 1 1 16-38.65 22.64 22.64 0 0 1-16 38.65Zm0-28.28a5.59 5.59 0 0 0-4 1.65 5.65 5.65 0 0 0 0 8 5.64 5.64 0 0 0 8-8 5.57 5.57 0 0 0-4-1.65Z" transform="translate(-203.8 -103.26)"></path><path fill="#82d7ab" d="M1088.29 433.5a22.63 22.63 0 1 1 16-6.62 22.58 22.58 0 0 1-16 6.62Zm0-28.27a5.64 5.64 0 1 0 4 1.65 5.63 5.63 0 0 0-4-1.65ZM1998.75 275.71a38.7 38.7 0 1 1 27.37-66.06 38.69 38.69 0 0 1-27.37 66.06Zm0-60.4a21.71 21.71 0 1 0 15.35 6.36 21.57 21.57 0 0 0-15.35-6.36Z" transform="translate(-203.8 -103.26)"></path><path fill="#a6e0ff" d="M392.76 241.9a22.64 22.64 0 1 1 16-6.63 22.56 22.56 0 0 1-16 6.63Zm0-28.28a5.64 5.64 0 1 0 4 1.65 5.63 5.63 0 0 0-4-1.65Z" transform="translate(-203.8 -103.26)"></path><path fill="#dad4ef" d="M727.39 1127.25a22.63 22.63 0 1 1 16-6.62 22.53 22.53 0 0 1-16 6.62Zm0-28.27a5.64 5.64 0 1 0 4 1.65 5.65 5.65 0 0 0-4-1.63ZM2010.6 887.25a22.64 22.64 0 1 1 16-38.65 22.64 22.64 0 0 1-16 38.65Zm0-28.28a5.65 5.65 0 1 0 4 1.66 5.63 5.63 0 0 0-4-1.63Z" transform="translate(-203.8 -103.26)"></path><path fill="#fde497" d="M473.79 992.27a33.5 33.5 0 1 1 33.5-33.5 33.54 33.54 0 0 1-33.5 33.5Zm0-50a16.5 16.5 0 1 0 16.5 16.5 16.52 16.52 0 0 0-16.5-16.5Z" transform="translate(-203.8 -103.26)"></path><circle cx="627.37" cy="103.66" r="12" fill="#a6e0ff"></circle><circle cx="1348.69" cy="220.89" r="12" fill="#a6e0ff"></circle><circle cx="364.61" cy="76.1" r="12" fill="#82d7ab"></circle><circle cx="223.22" cy="424.91" r="12" fill="#fde497" transform="rotate(-71.58 49.703 514.624)"></circle><circle cx="931.92" cy="115.27" r="12" fill="#82d7ab" transform="rotate(-16.8 466.66 751.498)"></circle><circle cx="326.4" cy="333.98" r="12" fill="#dad4ef" transform="rotate(-7.35 -579.429 1868.902)"></circle><circle cx="241.68" cy="559.41" r="12" fill="#dad4ef" transform="rotate(-7.35 -664.1 2094.293)"></circle><circle cx="1339.31" cy="140.27" r="12" fill="#a6e0ff" transform="rotate(-16.58 883.457 787.977)"></circle><circle cx="520.81" cy="1090.83" r="12" fill="#a6e0ff"></circle><circle cx="19.41" cy="1044.14" r="12" fill="#ffda65"></circle><circle cx="2036" cy="595.84" r="12" fill="#ffda65" transform="rotate(-81.92 1874.7 661.557)"></circle><circle cx="1592.93" cy="60.56" r="12" fill="#fde497"></circle><path fill="#fde497" d="M792.73 120.16a12 12 0 1 1 4.85 16.26 12 12 0 0 1-4.85-16.26Z" transform="translate(-203.8 -103.26)"></path><circle cx="946.98" cy="270.71" r="12" fill="#fde497"></circle><circle cx="1852.73" cy="487.6" r="12" fill="#a6e0ff" transform="rotate(-58.89 1659.225 616.51)"></circle><path fill="#ff9495" d="M1975.23 1108.63a12 12 0 1 1 4.84 16.26 12 12 0 0 1-4.84-16.26Z" transform="translate(-203.8 -103.26)"></path><circle cx="1567.31" cy="408.06" r="12" fill="#ff9495" transform="rotate(-71.58 1393.792 497.775)"></circle><circle cx="548.96" cy="994.88" r="12" fill="#ff9495" transform="rotate(-5.68 -594.048 2996.93)"></circle><path fill="#ff9495" d="M253.71 326.83a34.54 34.54 0 0 1-30.31-50.95 34.49 34.49 0 1 1 30.31 50.95ZM238.36 284a17.51 17.51 0 1 0 23.73-7.07 17.53 17.53 0 0 0-23.73 7.07Z" transform="translate(-203.8 -103.26)"></path><circle cx="1998.75" cy="1187.73" r="12" fill="#82d7ab" transform="rotate(-16.58 1543.119 1835.719)"></circle><path fill="#82d7ab" d="M1281.35 342.84a12 12 0 1 1 4.84 16.27 12 12 0 0 1-4.84-16.27Z" transform="translate(-203.8 -103.26)"></path><circle cx="452.15" cy="909.94" r="12" fill="#82d7ab"></circle><path fill="#dad4ef" d="M2052.75 399.22a8.46 8.46 0 0 1-6-2.49l-33.5-33.5a8.5 8.5 0 0 1 12-12l33.5 33.5a8.5 8.5 0 0 1-6 14.51Z" transform="translate(-203.8 -103.26)"></path><path fill="#dad4ef" d="M2019.25 399.22a8.5 8.5 0 0 1-6-14.51l33.5-33.5a8.5 8.5 0 0 1 12 12l-33.5 33.5a8.46 8.46 0 0 1-6 2.51Z" transform="translate(-203.8 -103.26)"></path><path fill="#82d7ab" d="M1736 682.71a8.46 8.46 0 0 1-6-2.49l-33.5-33.5a8.5 8.5 0 0 1 12-12l33.5 33.5a8.5 8.5 0 0 1-6 14.51Z" transform="translate(-203.8 -103.26)"></path><path fill="#82d7ab" d="M1702.54 682.71a8.5 8.5 0 0 1-6-14.51l33.5-33.5a8.5 8.5 0 0 1 12 12l-33.5 33.5a8.48 8.48 0 0 1-6 2.51Z" transform="translate(-203.8 -103.26)"></path><g><path fill="#dbe6ff" d="M865.52 1280.2c-78.14 0-151.83-8-219.77-23.93-86.64-20.29-159.63-52.44-216.93-95.56-59.83-45-99.87-100-119-163.51s-16.21-131.47 8.75-202.06c23.9-67.61 66.93-134.76 127.89-199.58C507.13 531 582.61 472 670.77 420.05c91.15-53.67 192-97.36 299.64-129.84s215.84-51.84 321.46-57.52c102.17-5.5 197.71 2 284 22.17 86.64 20.3 159.63 52.45 216.93 95.56 59.83 45 99.87 100 119 163.51s16.2 131.48-8.75 202.07c-23.9 67.61-66.93 134.76-127.89 199.58-60.7 64.54-136.18 123.59-224.34 175.51-91.14 53.68-192 97.36-299.64 129.85s-215.84 51.83-321.46 57.52q-32.55 1.73-64.2 1.74Zm489.77-1032.4c-121.22 0-250.87 19.74-380 58.68C765 370 581.51 476.75 458.82 607.21c-121.53 129.23-168.68 266-132.75 385.08s150.83 207 323.56 247.43C717 1255.5 790 1263.33 866.3 1263.33c121.22 0 250.87-19.73 380-58.68 210.38-63.46 393.81-170.26 516.5-300.73 121.53-129.22 168.68-266 132.75-385.08s-150.83-207-323.55-247.43c-67.4-15.78-140.39-23.61-216.71-23.61Z" transform="translate(-203.8 -103.26)"></path><path fill="#b6ccf2" d="M868.81 1280.17v-17c7.19 0 14.53-.1 21.83-.26l.37 17c-7.45.16-14.91.24-22.2.26Zm-22.17-.16c-7.36-.13-14.82-.33-22.16-.61l.63-17c7.23.27 14.57.46 21.82.59Zm66.48-.79-.68-17c7.2-.29 14.54-.65 21.81-1.08l1 17c-7.38.42-14.82.79-22.13 1.08Zm-110.8-.87c-7.38-.43-14.82-.94-22.13-1.53l1.35-16.94c7.19.57 14.51 1.07 21.77 1.5Zm155-1.7-1.28-17c7.2-.55 14.52-1.17 21.77-1.85l1.59 16.92c-7.33.74-14.76 1.37-22.06 1.93Zm-199.24-1.83c-7.36-.75-14.78-1.59-22.06-2.51l2.11-16.86c7.16.89 14.45 1.72 21.67 2.46Zm243.36-2.31-1.88-16.89c7.17-.8 14.47-1.67 21.71-2.6l2.16 16.86c-7.31.94-14.71 1.83-21.97 2.63ZM714 1269.29c-7.33-1.09-14.71-2.29-21.92-3.55l2.93-16.75c7.08 1.24 14.31 2.41 21.51 3.49Zm331.36-2.41-2.44-16.82c7.14-1 14.41-2.16 21.62-3.32l2.71 16.78c-7.25 1.18-14.62 2.31-21.85 3.36Zm-375.12-5.26c-7.29-1.47-14.6-3-21.73-4.7l3.82-16.56c7 1.61 14.13 3.15 21.28 4.6Zm418.85-1.82-3-16.73c7.12-1.27 14.36-2.62 21.5-4l3.26 16.69c-7.19 1.39-14.51 2.76-21.72 4.04ZM627 1251.62c-7.21-1.88-14.43-3.87-21.45-5.93l4.78-16.31c6.86 2 13.91 3.95 21 5.79Zm505.65-.29-3.52-16.63c7.11-1.51 14.3-3.08 21.37-4.7l3.77 16.58c-7.21 1.63-14.48 3.23-21.67 4.75Zm43.18-9.83-4-16.52c7.06-1.72 14.2-3.52 21.22-5.35l4.29 16.45c-7.2 1.85-14.42 3.67-21.56 5.42Zm-591.55-2.41c-7.11-2.33-14.19-4.78-21.05-7.28l5.83-16c6.69 2.44 13.59 4.83 20.52 7.1Zm634.4-8.75-4.58-16.34c7-1.93 14.05-3.94 21-6l4.78 16.31c-7.03 2.04-14.19 4.08-21.25 6.03Zm-676.26-6.55a599.59 599.59 0 0 1-20.52-8.78l7-15.5c6.48 2.92 13.18 5.79 19.93 8.53Zm718.76-5.9-5-16.24c7-2.15 14-4.38 20.81-6.61l5.27 16.16c-7.01 2.26-14.1 4.51-21.13 6.69Zm-759.46-12.46a526.79 526.79 0 0 1-19.78-10.42l8.25-14.87c6.21 3.45 12.65 6.84 19.14 10.08Zm801.51-1.25-5.51-16.08c6.88-2.36 13.83-4.8 20.63-7.25l5.76 16c-6.94 2.47-13.96 4.94-20.93 7.33Zm41.64-15-6-15.9c6.79-2.57 13.66-5.22 20.4-7.89l6.25 15.81c-6.87 2.7-13.82 5.39-20.7 7.98Zm-882.25-5.48c-6.4-4-12.72-8.06-18.78-12.22l9.63-14c5.83 4 11.91 8 18.08 11.77Zm923.38-10.8-6.5-15.71c6.75-2.79 13.52-5.66 20.14-8.52l6.75 15.6c-6.71 2.9-13.57 5.8-20.39 8.63Zm-960.36-14.61c-6-4.59-11.85-9.36-17.43-14.17l11.1-12.88a371.46 371.46 0 0 0 16.69 13.57Zm1001-3-7-15.49c6.62-3 13.3-6.08 19.85-9.16l7.26 15.37c-6.66 3.16-13.42 6.28-20.13 9.31Zm40.05-18.89-7.5-15.25c6.53-3.22 13.1-6.52 19.53-9.82l7.76 15.12c-6.48 3.37-13.19 6.72-19.81 9.98Zm-1075.09-7.46a360.38 360.38 0 0 1-15.64-16.21l12.61-11.41c4.72 5.23 9.73 10.42 14.88 15.43Zm1114.48-12.74-8-15c6.41-3.42 12.87-7 19.19-10.47l8.27 14.84c-6.43 3.58-12.97 7.16-19.46 10.63ZM361.4 1095.49c-4.67-5.93-9.16-12.06-13.33-18.22l14.07-9.54c3.95 5.83 8.2 11.63 12.62 17.25Zm1183.37-.87-8.55-14.69c6.3-3.66 12.62-7.41 18.79-11.15l8.81 14.54c-6.26 3.79-12.67 7.59-19.05 11.3Zm37.9-23-9.08-14.38c6.13-3.87 12.31-7.85 18.35-11.83l9.35 14.2c-6.13 4.08-12.4 8.12-18.62 12.05Zm-1246.6-13.59c-3.75-6.54-7.28-13.28-10.5-20l15.35-7.3c3 6.36 6.36 12.72 9.9 18.88Zm1283.62-10.8-9.63-14c6-4.13 12-8.34 17.87-12.54l9.91 13.82c-5.94 4.29-12.05 8.57-18.15 12.76Zm36-25.84-10.19-13.61a987.31 987.31 0 0 0 17.33-13.26l10.47 13.39c-5.72 4.55-11.65 9.09-17.57 13.52Zm-1339.07-4.17c-2.52-6.57-4.83-13.32-6.87-20.06l-.41-1.39 16.3-4.83.39 1.31c1.91 6.35 4.09 12.7 6.46 18.88Zm1374-23.18-10.77-13.15c5.63-4.61 11.26-9.33 16.71-14l11.07 12.91c-5.5 4.79-11.23 9.59-16.96 14.28ZM303.8 973.84c-1.56-7.34-2.86-14.85-3.85-22.33l16.86-2.22c.93 7 2.15 14.1 3.62 21Zm1420.56-8.67L1713 952.54c5.41-4.88 10.8-9.85 16-14.78l11.68 12.35c-5.31 5.03-10.8 10.1-16.32 15.06Zm32.27-30.54-12-12a823.28 823.28 0 0 0 15.22-15.57l12.32 11.71c-5.05 5.23-10.28 10.62-15.54 15.86ZM297.85 929c-.3-5.51-.46-11.12-.46-16.68q0-3 .06-5.94l17 .33q-.06 2.8-.06 5.61c0 5.25.15 10.55.43 15.75Zm1489.41-26.6-12.64-11.4c4.87-5.43 9.68-10.94 14.28-16.39l13 11c-4.73 5.59-9.65 11.24-14.64 16.79ZM315.62 885.34l-16.93-1.53c.67-7.38 1.61-14.91 2.8-22.37l16.79 2.67c-1.13 7.09-2.02 14.23-2.66 21.23Zm1500.38-17-13.33-10.56c4.53-5.71 9-11.51 13.21-17.23l13.67 10.11c-4.35 5.92-8.91 11.87-13.55 17.73ZM322.32 843.06l-16.58-3.74c1.62-7.2 3.5-14.53 5.6-21.78l16.33 4.72c-2 6.93-3.8 13.92-5.35 20.8Zm1520.17-10.51-14-9.62c4.11-6 8.13-12.08 11.93-18.09l14.37 9.08c-3.93 6.2-8.06 12.47-12.3 18.63ZM334.23 801.78l-16.05-5.63c2.44-6.94 5.12-14 8-21l15.73 6.45c-2.77 6.73-5.35 13.51-7.68 20.18Zm1532.11-7-14.72-8.5c3.63-6.29 7.14-12.66 10.42-18.95l15.07 7.86a491.69 491.69 0 0 1-10.77 19.62ZM350.57 761.89l-15.39-7.21c3.12-6.65 6.47-13.4 10-20l15.05 7.91c-3.41 6.41-6.65 12.88-9.66 19.3ZM1887 755.15l-15.4-7.15c3.06-6.58 6-13.23 8.63-19.78l15.74 6.41c-2.76 6.79-5.78 13.7-8.97 20.52ZM370.67 723.62 356 715.08c3.69-6.35 7.59-12.77 11.61-19.08l14.34 9.12c-3.95 6.13-7.71 12.35-11.28 18.5Zm1533.21-10-16.06-5.57c2.36-6.82 4.54-13.72 6.48-20.51l16.35 4.66c-2.02 7.1-4.3 14.3-6.77 21.42Zm-1510-26.57-14-9.65c4.17-6 8.53-12.14 13-18.13l13.64 10.15c-4.31 5.83-8.52 11.76-12.62 17.63Zm1522.29-16.65-16.6-3.67c1.55-7 2.88-14.11 4-21.06l16.8 2.6c-1.17 7.31-2.57 14.73-4.2 22.13ZM419.78 652.21l-13.3-10.59a688.22 688.22 0 0 1 14.15-17.2l13 11c-4.75 5.58-9.4 11.2-13.85 16.79ZM1923 625.88l-16.94-1.46c.61-7.12 1-14.3 1.08-21.34l17 .25c-.08 7.44-.47 15.02-1.14 22.55Zm-1475.09-6.82-12.63-11.39c4.9-5.43 10-10.92 15.13-16.3l12.3 11.73a752.106 752.106 0 0 0-14.8 15.96Zm30-31.5L466 575.5c5.19-5.16 10.56-10.35 16-15.45l11.66 12.36c-5.36 5-10.66 10.1-15.66 15.15Zm1428.74-5.83c-.43-7.1-1.13-14.25-2.09-21.24l16.84-2.31c1 7.42 1.77 15 2.22 22.53ZM509.64 557.66 498.29 545a954.22 954.22 0 0 1 16.7-14.63l11 12.92c-5.47 4.71-10.99 9.57-16.35 14.37Zm1391.24-18.17c-1.51-6.92-3.31-13.87-5.36-20.65l16.28-4.91c2.17 7.21 4.08 14.59 5.69 21.94Zm-1358.1-10.17L532 516.15c5.68-4.64 11.52-9.29 17.35-13.84l10.46 13.4c-5.72 4.47-11.45 9.05-17.03 13.61Zm34.39-26.85L567 488.85c5.86-4.38 11.89-8.78 17.91-13.08l9.89 13.82c-5.93 4.24-11.86 8.57-17.63 12.88Zm1312.38-1.23c-2.5-6.6-5.29-13.19-8.29-19.6l15.38-7.23c3.2 6.81 6.16 13.81 8.81 20.82ZM612.68 477.08l-9.6-14c6-4.14 12.24-8.3 18.41-12.34l9.33 14.21a908.27 908.27 0 0 0-18.14 12.13Zm1258.77-14.37a291.47 291.47 0 0 0-11.23-18.17l14.12-9.47c4.21 6.28 8.21 12.75 11.9 19.26ZM649.19 453.1l-9.06-14.38c6.19-3.9 12.53-7.82 18.86-11.64l8.79 14.55c-6.24 3.77-12.49 7.63-18.59 11.47Zm37.39-22.6-8.53-14.7c6.34-3.67 12.82-7.36 19.27-10.94l8.26 14.85c-6.36 3.54-12.75 7.17-19 10.79Zm1161.1-3.26c-4.33-5.55-9-11.07-13.73-16.41l12.65-11.35c5 5.63 9.92 11.45 14.48 17.3Zm-1122.91-18-8-15c6.47-3.45 13.07-6.91 19.63-10.26l7.74 15.14c-6.46 3.32-12.98 6.73-19.37 10.14Zm1094.36-13.91c-5-4.94-10.35-9.83-15.79-14.56l11.15-12.77a365.93 365.93 0 0 1 16.54 15.25Zm-1055.45-6-7.49-15.26c6.57-3.22 13.29-6.45 20-9.59l7.24 15.38c-6.63 3.14-13.26 6.3-19.75 9.48Zm39.57-18.61-7-15.5c6.68-3 13.5-6 20.26-8.93l6.73 15.6c-6.66 2.9-13.4 5.86-19.99 8.84Zm983.45-3.56c-5.58-4.32-11.43-8.6-17.38-12.72l9.67-14c6.2 4.29 12.29 8.75 18.11 13.25ZM843.4 353.4l-6.49-15.71c6.76-2.79 13.67-5.58 20.53-8.28l6.24 15.81c-6.78 2.68-13.6 5.43-20.28 8.18Zm907.88-10.77c-6-3.73-12.28-7.42-18.62-11l8.3-14.84c6.56 3.66 13 7.49 19.28 11.36Zm-867.2-5.27-6-15.91c6.86-2.59 13.85-5.16 20.77-7.64l5.74 16c-6.81 2.46-13.72 4.99-20.51 7.55Zm41.17-14.78-5.49-16.09c7-2.37 14-4.73 21-7l5.24 16.18c-6.9 2.24-13.88 4.56-20.75 6.91Zm788.31-1.05c-6.35-3.19-12.92-6.33-19.54-9.33l7-15.49c6.82 3.1 13.6 6.34 20.15 9.64Zm-746.73-12.46-5-16.24c2.86-.88 5.72-1.76 8.59-2.62q6.32-1.9 12.63-3.75l4.76 16.32q-6.24 1.82-12.48 3.7Zm707.29-5.45c-6.59-2.69-13.4-5.33-20.23-7.85l5.87-15.95c7 2.58 14 5.29 20.79 8.06Zm-665.27-6.82-4.51-16.38c7.08-2 14.27-3.88 21.38-5.73l4.27 16.46c-6.99 1.85-14.14 3.73-21.14 5.65Zm624.54-8.17c-6.78-2.24-13.76-4.42-20.74-6.48l4.81-16.3c7.15 2.11 14.3 4.34 21.26 6.63Zm-582.18-2.81-4-16.52c7.14-1.73 14.39-3.44 21.56-5.06l3.75 16.58c-7.09 1.6-14.25 3.29-21.31 5Zm540.49-9.51c-6.91-1.81-14-3.57-21.12-5.22l3.85-16.56a810.88 810.88 0 0 1 21.59 5.34Zm-497.81-.16-3.5-16.64c7.2-1.51 14.5-3 21.7-4.39l3.24 16.69c-7.11 1.38-14.33 2.84-21.44 4.34Zm42.95-8.33-3-16.74c7.23-1.28 14.57-2.53 21.83-3.69l2.71 16.78c-7.15 1.15-14.38 2.38-21.54 3.65Zm412.47-1.36c-7-1.44-14.21-2.8-21.39-4.07l3-16.74a835.97 835.97 0 0 1 21.83 4.15ZM1180 260.87l-2.42-16.82c7.3-1.05 14.68-2.05 22-3l2.14 16.87c-7.2.93-14.49 1.92-21.72 2.95Zm326.4-2c-7.1-1.07-14.37-2.08-21.59-3L1487 239c7.36.93 14.76 2 22 3.05Zm-283-3.5-1.86-16.9c7.33-.8 14.75-1.56 22-2.23l1.57 16.93c-7.11.65-14.46 1.39-21.7 2.19Zm239.76-2c-7.14-.74-14.45-1.41-21.72-2l1.37-17c7.4.6 14.83 1.29 22.1 2Zm-196.23-2-1.27-17c7.36-.56 14.79-1 22.1-1.47l1 17c-7.22.4-14.56.88-21.82 1.43Zm152.74-1.49c-7.19-.43-14.53-.79-21.8-1.07l.66-17c7.39.29 14.84.65 22.15 1.09Zm-109.12-1-.66-17c7.37-.29 14.83-.51 22.15-.65l.34 17c-7.21.11-14.55.33-21.82.61Zm65.5-.69c-6.8-.13-13.72-.19-20.56-.19h-1.27v-17h1.28c7 0 14 .06 20.89.19Z" transform="translate(-203.8 -103.26)"></path></g><g><path fill="#452e63" d="M1979.78 1168.82c-1.75 0-3.54.07-5.47.22l-81.52-.17a76 76 0 0 0 12.65-18.92c9.3-2.1 22.79-8.38 29.75-18.83a29.31 29.31 0 0 0 2.65-28.31c-2.84-6.83-2.17-9.15-2.17-9.17s1.21-1.91 7.51-4.15a17 17 0 0 0 10-9.6 17.29 17.29 0 0 0-1.69-16.17c-2.33-3.46-6.13-7.12-18.07-10.49a80.66 80.66 0 0 0-20.83-3.06 48.78 48.78 0 0 0-10.84 1.15 17 17 0 0 0 1.79-7.61c0-7.33-4.93-15.59-15.78-17.54a44.25 44.25 0 0 0-7.87-.59c-18.47 0-68.47 7.26-77.84 40.41-3.32 11.75-2.78 22.73 1.58 32.79-1 .79-2 1.66-3 2.62a83.71 83.71 0 0 0-12.3 14c-10.61 15.44-9.49 27.37-6.69 34.67 3.27 8.5 8.74 14.75 16.24 18.6l-38.93-.08a21.29 21.29 0 0 0-21.25 21.2l-.12 60c0 22.53 7.23 72 20.81 119.39 7.23 25.24 15.1 45.65 23.39 60.66 5.21 9.44 10.49 16.63 16.15 22 7.91 7.48 16.51 11.28 25.57 11.3l91.28.19h.06c12.58 0 24.18-7.26 34.47-21.57 7-9.76 13.84-23.35 20.29-40.41 9.09-24 17.52-55.27 23.63-87.27a73.22 73.22 0 0 0-13.4-145.21Z" transform="translate(-203.8 -103.26)"></path><path fill="#137a58" d="M1979.78 1185.82A56.22 56.22 0 1 0 2036 1242a56.28 56.28 0 0 0-56.22-56.18Zm34.9 56.22a34.9 34.9 0 1 1-34.9-34.9 34.94 34.94 0 0 1 34.9 34.86Z" transform="translate(-203.8 -103.26)"></path><path fill="#148c66" d="m1979.93 1186.05-221-.46a4.25 4.25 0 0 0-4.26 4.24l-.12 60c-.09 44.13 30.84 196.23 69 196.31l91.28.19c38.11.08 69.19-151.9 69.29-196l.12-60a4.24 4.24 0 0 0-4.31-4.28Z" transform="translate(-203.8 -103.26)"></path><path fill="#137a58" d="m1979.93 1186.05-32.57-.07-.09 41.06c-.09 44.12-8 111.57-54.45 156.08s-95.48 39.77-95.48 39.77c8.07 14.21 16.89 23.18 26.14 23.2l91.28.19c38.11.08 69.19-151.9 69.29-196l.12-60a4.24 4.24 0 0 0-4.24-4.23Z" transform="translate(-203.8 -103.26)"></path><path fill="#3abb78" d="m1848.31 1185.73-89.4-.14a4.25 4.25 0 0 0-4.26 4.24l-.12 60c0 24.76 9.67 83.53 24.94 130.35 63.04-67.7 68.84-194.45 68.84-194.45Z" transform="translate(-203.8 -103.26)"></path><path fill="#dbe6ff" d="M1885.7 1114.22c-24.47-24.47-26.3-45.94.88-70.43 0-3.72-60.56.06-68.13 26.82s14.53 39.16 41 56.2 2.6 40.37 4 43.9c1.04 2.63 46.71-32.03 22.25-56.49Z" transform="translate(-203.8 -103.26)"></path><path fill="#dbe6ff" d="M1841.79 1141c-19-2.73-26.9-11.64-23-31.52-1.24-1.64-26.83 20.12-21.3 34.5s19.43 12.54 36.85 11.29 14.55 17 16.32 18.15c1.34.81 10.1-29.71-8.87-32.42ZM1922.14 1109.34c-7.35-17.69-3.75-29.07 15.34-35.87.77-1.9-31-12.76-40.54-.66s-.84 23.11 9.14 37.44-7.21 21.21-7.25 23.31c-.03 1.56 30.67-6.56 23.31-24.22Z" transform="translate(-203.8 -103.26)"></path><path fill="#ffda65" d="M1825.71 1231.92a31.87 31.87 0 0 0-31.83 31.83v20.63a8.5 8.5 0 0 0 8.5 8.5H1849a8.49 8.49 0 0 0 8.5-8.5v-20.63a31.87 31.87 0 0 0-31.79-31.83Z" transform="translate(-203.8 -103.26)"></path><path fill="#452e63" d="M1825.71 1223.42a40.37 40.37 0 0 0-40.33 40.33v20.63a17 17 0 0 0 17 17H1849a17 17 0 0 0 17-17v-20.63a40.37 40.37 0 0 0-40.29-40.33Zm23.33 61h-46.66v-20.63a23.33 23.33 0 0 1 46.66 0Z" transform="translate(-203.8 -103.26)"></path><path fill="#452e63" d="M1826.05 1171.41a8.5 8.5 0 0 0-8.5 8.5v52.25a8.5 8.5 0 0 0 17 0v-52.25a8.49 8.49 0 0 0-8.5-8.5Z" transform="translate(-203.8 -103.26)"></path></g><g><path fill="#452e63" d="M1764 1402.72a17.14 17.14 0 0 0-.67-5.8 33.85 33.85 0 0 0-32.24-24.1h-33.19a62.24 62.24 0 0 0 7-28.76V783.91a62.69 62.69 0 0 0-62.62-62.61H830.05a62.69 62.69 0 0 0-62.61 62.61v560.15a62.24 62.24 0 0 0 7 28.76h-33.19a33.85 33.85 0 0 0-32.24 24.1 17.14 17.14 0 0 0-.67 5.8 36.63 36.63 0 0 0-.72 7.26 55.3 55.3 0 0 0 55.24 55.24h946.61a55.3 55.3 0 0 0 55.24-55.24 36.63 36.63 0 0 0-.71-7.26Z" transform="translate(-203.8 -103.26)"></path><path fill="#dbe6ff" d="M830.12 1398.29a54.17 54.17 0 0 1-54.11-54.1L775.85 784A54.18 54.18 0 0 1 830 729.91l812.22-.23a54.19 54.19 0 0 1 54.14 54.11l.15 560.15a54.18 54.18 0 0 1-54.1 54.13l-812.22.22Z" transform="translate(-203.8 -103.26)"></path><path fill="#452e63" d="M1704.81 783.78a62.7 62.7 0 0 0-62.62-62.6l-812.19.23A62.69 62.69 0 0 0 767.35 784l.16 560.15a62.69 62.69 0 0 0 62.61 62.6l812.24-.22a62.69 62.69 0 0 0 62.6-62.64Zm-62.45 605.79-812.22.22a45.74 45.74 0 0 1-45.61-45.6L784.35 784A45.76 45.76 0 0 1 830 738.41l812.22-.23a45.76 45.76 0 0 1 45.62 45.61l.15 560.15a45.75 45.75 0 0 1-45.63 45.63Z" transform="translate(-203.8 -103.26)"></path><path fill="#b6ccf2" d="m1623.42 1375.93-774.36.21a45.75 45.75 0 0 1-45.63-45.6l-.14-532.86a45.75 45.75 0 0 1 45.6-45.63l774.36-.21a45.75 45.75 0 0 1 45.63 45.6l.15 532.86a45.76 45.76 0 0 1-45.61 45.63Z" transform="translate(-203.8 -103.26)"></path><path fill="#dbe6ff" d="M763 1456.85a46.79 46.79 0 0 1-46.74-46.73 28.67 28.67 0 0 1 28.64-28.66l982.79-.27a28.69 28.69 0 0 1 28.66 28.64 46.86 46.86 0 0 1-46.73 46.76l-946.61.26Z" transform="translate(-203.8 -103.26)"></path><path fill="#452e63" d="m1727.65 1372.69-982.79.27a37.19 37.19 0 0 0-37.14 37.16 55.31 55.31 0 0 0 55.28 55.23l946.62-.26a55.36 55.36 0 0 0 55.23-55.26 37.2 37.2 0 0 0-37.2-37.14Zm-18.08 75.4-946.61.26a38.35 38.35 0 0 1-38.24-38.23 20.2 20.2 0 0 1 20.13-20.12l982.79-.27a20.2 20.2 0 0 1 20.15 20.14 38.36 38.36 0 0 1-38.22 38.22Z" transform="translate(-203.8 -103.26)"></path><path fill="#b6ccf2" d="M1727.64 1389.69h-2.31a18.83 18.83 0 0 1 .21 2.72 38.36 38.36 0 0 1-38.23 38.26l-946.61.26a38.15 38.15 0 0 1-10.74-1.55 38.34 38.34 0 0 0 33 19l946.61-.26a38.36 38.36 0 0 0 38.23-38.26 20.2 20.2 0 0 0-20.16-20.17Z" transform="translate(-203.8 -103.26)"></path><path fill="#6557b2" d="M1243.31 764.84a7.24 7.24 0 1 1-7.24-7.24 7.25 7.25 0 0 1 7.24 7.24ZM1243.48 1362.76a7.24 7.24 0 1 1-7.24-7.23 7.24 7.24 0 0 1 7.24 7.23Z" transform="translate(-203.8 -103.26)"></path><path fill="#b6ccf2" d="m725.39 1401.9 1021.72-.28a16.69 16.69 0 0 0-15.95-11.93l-989.83.27a16.69 16.69 0 0 0-15.94 11.94Z" transform="translate(-203.8 -103.26)"></path><path fill="#fff" d="M847.61 1346.59a24.77 24.77 0 0 1-24.94-24.54V808.78a24.77 24.77 0 0 1 24.94-24.54h772.64a24.77 24.77 0 0 1 24.94 24.54v513.27a24.77 24.77 0 0 1-24.94 24.54Z" transform="translate(-203.8 -103.26)"></path><path fill="#452e63" d="M1620.25 775.74H847.61a33.28 33.28 0 0 0-33.44 33v513.27a33.28 33.28 0 0 0 33.44 33h772.64a33.28 33.28 0 0 0 33.44-33V808.78a33.28 33.28 0 0 0-33.44-33.04Zm16.44 546.31a16.29 16.29 0 0 1-16.44 16H847.61a16.29 16.29 0 0 1-16.44-16V808.78a16.29 16.29 0 0 1 16.44-16h772.64a16.29 16.29 0 0 1 16.44 16Z" transform="translate(-203.8 -103.26)"></path><path fill="#f1f2f2" d="M1326.9 1278.2H831.17v43.85a16.29 16.29 0 0 0 16.44 16h772.64a16.29 16.29 0 0 0 16.44-16V809.17a16.49 16.49 0 0 0-16.43-16.43h-41.74v233.83c0 138.43-113.23 251.63-251.62 251.63Z" transform="translate(-203.8 -103.26)"></path><path fill="#6557b2" d="M1623.89 792.74H844a12.84 12.84 0 0 0-12.8 12.8v38h805.52v-38a12.84 12.84 0 0 0-12.83-12.8Z" transform="translate(-203.8 -103.26)"></path><path fill="#4e469e" d="M1623.89 792.74h-45.37v50.76h58.17v-38a12.84 12.84 0 0 0-12.8-12.76Z" transform="translate(-203.8 -103.26)"></path><path fill="#ff494b" d="M1546.38 818.12a11.51 11.51 0 1 1-11.51-11.51 11.51 11.51 0 0 1 11.51 11.51Z" transform="translate(-203.8 -103.26)"></path><path fill="#3abb78" d="M1572.05 806.61a11.51 11.51 0 1 0 11.51 11.51 11.51 11.51 0 0 0-11.51-11.51Z" transform="translate(-203.8 -103.26)"></path><path fill="#f9cc4e" d="M1609.23 806.61a11.51 11.51 0 1 0 11.5 11.51 11.51 11.51 0 0 0-11.5-11.51Z" transform="translate(-203.8 -103.26)"></path><path fill="#26ade4" d="M1068.46 908.09H870.65a12.9 12.9 0 0 1-12.9-12.9 12.9 12.9 0 0 1 12.9-12.9l197.8-.06a12.91 12.91 0 0 1 12.91 12.9 12.91 12.91 0 0 1-12.9 12.96ZM1068.07 1063.54H871.13a13.33 13.33 0 0 1-13.34-13.33V940.78a13.33 13.33 0 0 1 13.33-13.34h196.95a13.32 13.32 0 0 1 13.33 13.32v109.44a13.33 13.33 0 0 1-13.33 13.34Z" transform="translate(-203.8 -103.26)"></path><path fill="#99b3e0" d="m1324.32 908-197.81.06a12.9 12.9 0 0 1-12.9-12.9 12.9 12.9 0 0 1 12.9-12.9l197.81-.06a12.91 12.91 0 0 1 12.9 12.9 12.89 12.89 0 0 1-12.9 12.9ZM1066.72 1111H868.91a12.89 12.89 0 0 1-12.9-12.89 12.9 12.9 0 0 1 12.89-12.91h197.81a12.9 12.9 0 0 1 12.91 12.89 12.9 12.9 0 0 1-12.9 12.91ZM1066.72 1151.81H868.91A12.9 12.9 0 0 1 856 1139a12.9 12.9 0 0 1 12.89-12.91h197.81a12.89 12.89 0 0 1 12.91 12.89 12.9 12.9 0 0 1-12.89 12.83ZM1066.72 1192.63H868.91a12.9 12.9 0 0 1-12.9-12.9 12.9 12.9 0 0 1 12.89-12.9l197.81-.05a12.89 12.89 0 0 1 12.91 12.89 12.91 12.91 0 0 1-12.9 12.96Z" transform="translate(-203.8 -103.26)"></path><rect width="223.61" height="25.8" x="652.2" y="1104.41" fill="#99b3e0" rx="12.9"></rect><path fill="#99b3e0" d="m961.37 1274.26-92.46.06a12.9 12.9 0 0 1-12.9-12.9 12.9 12.9 0 0 1 12.89-12.9l92.46-.06a12.9 12.9 0 0 1 12.9 12.9 12.88 12.88 0 0 1-12.89 12.9Z" transform="translate(-203.8 -103.26)"></path><rect width="159.72" height="135.18" x="907.17" y="824.14" fill="#b6ccf2" rx="14.05"></rect><rect width="159.72" height="135.18" x="1077.7" y="824.09" fill="#b6ccf2" rx="14.05"></rect><rect width="159.72" height="135.18" x="1248.23" y="824.04" fill="#b6ccf2" rx="14.05"></rect><rect width="159.72" height="135.18" x="907.21" y="976.65" fill="#b6ccf2" rx="14.05"></rect><rect width="159.72" height="135.18" x="1077.74" y="976.6" fill="#b6ccf2" rx="14.05"></rect><rect width="159.72" height="135.18" x="1248.27" y="976.55" fill="#b6ccf2" rx="14.05"></rect><rect width="159.72" height="70" x="907.25" y="1129.16" fill="#b6ccf2" rx="14.05"></rect><rect width="159.72" height="70" x="1077.77" y="1129.11" fill="#b6ccf2" rx="14.05"></rect><rect width="159.72" height="70" x="1248.3" y="1129.07" fill="#b6ccf2" rx="14.05"></rect><path fill="#99b3e0" d="M1125.11 1302.44h131.62a14 14 0 0 0 14-14.05v-10.19h-159.68v10.19a14 14 0 0 0 14.06 14.05ZM1611.81 1200.93v-107.09a14.05 14.05 0 0 0-14-14h-25.01a252.38 252.38 0 0 1-79.62 135.2h104.58a14 14 0 0 0 14.05-14.11ZM1295.64 1302.39h131.62a14 14 0 0 0 14-14v-37.79a249.35 249.35 0 0 1-114.4 27.69h-45.32v10.15a14.06 14.06 0 0 0 14.1 13.95ZM1597.68 927.29h-19.16v99.28a250.36 250.36 0 0 1-2.59 35.91h21.79a14 14 0 0 0 14-14V941.39a14.06 14.06 0 0 0-14.04-14.1ZM1597.77 1232.31h-126.51q-9.23 6.5-19 12.18a14.44 14.44 0 0 0-.14 1.87v41.9a14 14 0 0 0 14.05 14h131.63a14 14 0 0 0 14-14.06v-41.89a14 14 0 0 0-14.03-14Z" transform="translate(-203.8 -103.26)"></path></g><g><path fill="#452e63" d="M662.51 1074.48a43.81 43.81 0 0 0-22.06-12.42 21.77 21.77 0 0 0-13.06-4.34h-31.21a21.86 21.86 0 0 0-11.52 3.29h-80.39a44 44 0 0 0-40.27 26.5 21.86 21.86 0 0 0-7.21 16.2v22.69a21.8 21.8 0 0 0 3.59 11.95v10.13a19.91 19.91 0 0 0-3.59 11.42v10.23a19.87 19.87 0 0 0 3.59 11.41v4.15a19.91 19.91 0 0 0-3.59 11.42v10.22a19.91 19.91 0 0 0 3.59 11.42v202.57a43.94 43.94 0 0 0 43.89 43.9h126.65a43.94 43.94 0 0 0 43.89-43.9V1104.9a43.66 43.66 0 0 0-12.3-30.42Z" transform="translate(-203.8 -103.26)"></path><rect width="180.43" height="370.21" x="273.57" y="974.74" fill="#dbe6ff" rx="26.89"></rect><rect width="41.02" height="18.33" x="387.47" y="971.45" fill="#dbe6ff" rx="4.91"></rect><rect width="22.06" height="32.5" x="269.99" y="995.54" fill="#dbe6ff" rx="4.91"></rect><rect width="22.06" height="16.25" x="269.99" y="1053.62" fill="#dbe6ff" rx="3.01"></rect><rect width="22.06" height="16.25" x="269.99" y="1090.83" fill="#dbe6ff" rx="3.01"></rect><rect width="37.26" height="3.07" x="345.16" y="1005.17" fill="#99b3e0" rx="1.48"></rect><rect width="20.77" height="3.07" x="353.4" y="992.11" fill="#99b3e0" rx="1.48"></rect><path fill="#99b3e0" d="M541.84 1109.48a4.86 4.86 0 1 1-4.86-4.86 4.86 4.86 0 0 1 4.86 4.86ZM578.43 1411.52a15.32 15.32 0 1 0-21.67 21.66 15.32 15.32 0 0 0 21.67-21.66Z" transform="translate(-203.8 -103.26)"></path><path fill="#fff" d="M507 1391.62c-6.78 0-12.3-5.76-12.3-12.85v-220.66c0-7.08 5.52-12.85 12.3-12.85h121.7c6.78 0 12.3 5.77 12.3 12.85v220.66c0 7.09-5.52 12.85-12.3 12.85Z" transform="translate(-203.8 -103.26)"></path><path fill="#452e63" d="M628.68 1136.76H507c-11.47 0-20.8 9.58-20.8 21.35v220.66c0 11.77 9.33 21.35 20.8 21.35h121.7c11.47 0 20.8-9.58 20.8-21.35v-220.66c-.02-11.77-9.35-21.35-20.82-21.35Zm3.8 242a4.12 4.12 0 0 1-3.8 4.35H507a4.12 4.12 0 0 1-3.8-4.35v-220.65a4.12 4.12 0 0 1 3.8-4.35h121.7a4.12 4.12 0 0 1 3.8 4.35Z" transform="translate(-203.8 -103.26)"></path><path fill="#f1f2f2" d="M628.68 1153.76h-25.39V1229c0 60.5-43.1 111.41-100.11 123.56v26.25a4.12 4.12 0 0 0 3.8 4.35h121.7a3.35 3.35 0 0 0 1.72-.5 7.9 7.9 0 0 0 2.08-5.1v-219.45a4.12 4.12 0 0 0-3.8-4.35Z" transform="translate(-203.8 -103.26)"></path><path fill="#26ade4" d="M585.85 1180.71h-64.53a7.84 7.84 0 0 1-7.84-7.85 7.85 7.85 0 0 1 7.84-7.85h64.53a7.85 7.85 0 0 1 7.85 7.85 7.84 7.84 0 0 1-7.85 7.85Z" transform="translate(-203.8 -103.26)"></path><rect width="109.87" height="75.09" x="309.67" y="1083.09" fill="#26ade4" rx="8.11"></rect><rect width="109.87" height="43.36" x="309.67" y="1171.05" fill="#b6ccf2" rx="8.11"></rect><rect width="109.87" height="43.36" x="309.67" y="1226.61" fill="#b6ccf2" rx="8.11"></rect><path fill="#189bc4" d="M615.24 1186.36h-12V1229a125.29 125.29 0 0 1-4.26 32.48h16.21a8.11 8.11 0 0 0 8.11-8.11v-58.86a8.11 8.11 0 0 0-8.06-8.15Z" transform="translate(-203.8 -103.26)"></path><path fill="#99b3e0" d="M615.24 1274.32h-20.42a127.13 127.13 0 0 1-28.15 43.36h48.57a8.11 8.11 0 0 0 8.11-8.11v-27.14a8.11 8.11 0 0 0-8.11-8.11ZM615.24 1329.88h-62.53a126.2 126.2 0 0 1-39.23 20v15.27a8.11 8.11 0 0 0 8.11 8.11h93.65a8.11 8.11 0 0 0 8.11-8.11V1338a8.11 8.11 0 0 0-8.11-8.12Z" transform="translate(-203.8 -103.26)"></path></g><g><path fill="#26ade4" d="M677 934.32a358.06 358.06 0 1 1 139.8-28.23A356.86 356.86 0 0 1 677 934.32Z" transform="translate(-203.8 -103.26)"></path><path fill="#452e63" d="M1015.75 432.07a368.9 368.9 0 1 0 28.89 143.11 366.44 366.44 0 0 0-28.89-143.11ZM677 925.82c-193.65 0-350.64-157-350.64-350.64S483.35 224.54 677 224.54s350.64 157 350.64 350.64S870.66 925.82 677 925.82Z" transform="translate(-203.8 -103.26)"></path><path fill="#3abb78" d="M608.22 927.56a8.31 8.31 0 0 1-1.65-.16 356.24 356.24 0 0 1-118.82-47 8.5 8.5 0 0 1-2.75-11.71c.47-.75 1-1.49 1.48-2.2a40.65 40.65 0 0 1-30.6-64.29h-21.11a40.67 40.67 0 0 1-33.06-64.37H362a8.49 8.49 0 0 1-7.63-4.76A357.53 357.53 0 0 1 330.54 670a8.49 8.49 0 0 1 4.73-10 40.28 40.28 0 0 1 11.88-3.28 40.67 40.67 0 0 1 2.75-45.19 41 41 0 0 1-32-38.88v-2.25a40.69 40.69 0 0 1 7.77-22.63 8.61 8.61 0 0 1-3.85-2.44 8.5 8.5 0 0 1-2.15-6.55A356.48 356.48 0 0 1 404.76 341a8.47 8.47 0 0 1 6.44-3h44.72a40.5 40.5 0 0 1-2.92-42.69 8.61 8.61 0 0 1 2.26-2.69c7.49-5.88 15.47-11.64 23.73-17.1a3 3 0 0 1 .38-.24c.11-.09.23-.17.35-.25a357.69 357.69 0 0 1 196.56-59 8.47 8.47 0 0 1 5.21 1.79A40.61 40.61 0 0 1 668.16 289a40.67 40.67 0 0 1-31.81 66h-35.57a40.76 40.76 0 0 1-38.12-26.44 40.87 40.87 0 0 1-9.58 14.74 40.65 40.65 0 0 1 13 59.07h16.06a40.68 40.68 0 0 1 14.15 78.83 40.67 40.67 0 0 1-31.09 66.91h-138a40.62 40.62 0 0 1 0 47.37h77a40.69 40.69 0 0 1 35.27 61h63a40.67 40.67 0 0 1 33.06 64.37h16.06a40.68 40.68 0 0 1 5.68 81A40.67 40.67 0 0 1 627 866.49a40.61 40.61 0 0 1-15 60.18 8.48 8.48 0 0 1-3.78.89Zm-50.61-636.93a40.46 40.46 0 0 1 5 9.45 40.83 40.83 0 0 1 5.05-9.45Z" transform="translate(-203.8 -103.26)"></path><path fill="#452e63" d="M651.59 712.33h-2.33A49.22 49.22 0 0 0 602.47 648H552a48.64 48.64 0 0 0 1.45-11.8 49.24 49.24 0 0 0-49.23-49.2H440.9a49.24 49.24 0 0 0 0-30.37h124.3a49.25 49.25 0 0 0 49.19-49.19 48.76 48.76 0 0 0-5.71-23 49.17 49.17 0 0 0-26.54-90.58h-2.33a49.31 49.31 0 0 0-2.35-36.26 48.79 48.79 0 0 0 23.32 5.89h35.57a49.18 49.18 0 0 0 44.27-70.6 49.1 49.1 0 0 0 6.14-81.78 17 17 0 0 0-10.43-3.57 366.07 366.07 0 0 0-201.21 60.38l-.36.24-.39.26a367.71 367.71 0 0 0-24.29 17.51 17 17 0 0 0-4.51 5.38 49 49 0 0 0-3.35 38.18h-31a17 17 0 0 0-12.88 5.91 366.19 366.19 0 0 0-87.11 202.5 17 17 0 0 0 3.34 11.94 49 49 0 0 0-5.14 20.24v2.74a48.93 48.93 0 0 0 14.74 34 49.69 49.69 0 0 0 13.19 9.29 49.15 49.15 0 0 0-2 34.66c-1.18.42-2.36.9-3.52 1.42a17 17 0 0 0-9.46 20 366.53 366.53 0 0 0 24.39 64.57 17 17 0 0 0 15.23 9.57h26a49.19 49.19 0 0 0 46.78 64.37h7.42a49.19 49.19 0 0 0 33 62.41 17.48 17.48 0 0 0 .44 3.93 17 17 0 0 0 7.59 10.62 364.56 364.56 0 0 0 121.65 48.07 17 17 0 0 0 10.89-1.45 49.56 49.56 0 0 0 19.72-17.75 49.07 49.07 0 0 0 4.39-43.94 49.27 49.27 0 0 0 33.77-46.71 48.75 48.75 0 0 0-3.65-18.74 49.18 49.18 0 0 0-18.37-94.81Zm32.19 49.18a32.29 32.29 0 0 1-32.19 32.19h-27.1a32.18 32.18 0 1 1 0 64.36H594a32.28 32.28 0 0 1 32.18 32.19 32.25 32.25 0 0 1-18 28.81 348.57 348.57 0 0 1-116-45.84 32.21 32.21 0 0 1 27.24-15.16H489a32.18 32.18 0 1 1 0-64.36h-54.23a32.28 32.28 0 0 1-32.18-32.19 32.27 32.27 0 0 1 32.18-32.18H362a347.25 347.25 0 0 1-23.26-61.57 31.73 31.73 0 0 1 13-2.8H368a32.25 32.25 0 0 1-17.93-28.8A32.27 32.27 0 0 1 382.26 604h-23.71a32.26 32.26 0 0 1-32.15-31.51v-1.8a32.26 32.26 0 0 1 32.13-31.06h-30.4A349.12 349.12 0 0 1 411.2 346.5H489a32.28 32.28 0 0 1-32.19-32.18 31.84 31.84 0 0 1 3.76-15q11.22-8.82 23.17-16.71a32.55 32.55 0 0 1 5.26-.47h-4.54a348.89 348.89 0 0 1 191.89-57.58A32.14 32.14 0 0 1 688.86 250a32.27 32.27 0 0 1-32.18 32.18h-20.33a32.19 32.19 0 0 1 0 64.37h-35.57a32.19 32.19 0 1 1 0-64.37h-76.23a32.19 32.19 0 0 1 0 64.37H533a32.19 32.19 0 0 1 0 64.37h49.12a32.28 32.28 0 0 1 32.19 32.18 32.28 32.28 0 0 1-32.19 32.18H565.2a32.28 32.28 0 0 1 32.19 32.18 32.28 32.28 0 0 1-32.19 32.19H394.12a32.27 32.27 0 0 1 32.18 32.18A32.28 32.28 0 0 1 394.12 604h110.1a32.28 32.28 0 0 1 32.19 32.18A32.24 32.24 0 0 1 518.47 665h84a32.27 32.27 0 0 1 32.18 32.18 32.28 32.28 0 0 1-32.18 32.19h49.12a32.28 32.28 0 0 1 32.19 32.18Z" transform="translate(-203.8 -103.26)"></path><path fill="#3abb78" d="M882.45 867.83a8.54 8.54 0 0 1-3-.56 40.62 40.62 0 0 1-12.07-68.88 40.63 40.63 0 0 1-9.3-58.1 40.67 40.67 0 0 1-24.4-63.44H760a40.67 40.67 0 0 1-33.06-64.37h-14.37a40.69 40.69 0 0 1 0-81.37h.82a40.67 40.67 0 0 1 29-64.16 40.64 40.64 0 0 1 7.22-55.42 40.68 40.68 0 0 1 24-73.53h29.61a40.62 40.62 0 0 1 0-47.37H790.5a40.63 40.63 0 0 1-36-59.67 8.51 8.51 0 0 1 7.51-4.51 8.6 8.6 0 0 1 2.06.25 359.11 359.11 0 0 1 123.37 639.51 8.47 8.47 0 0 1-4.99 1.62ZM915 466.74a40.58 40.58 0 0 1 0-47.37h-76.2a40.62 40.62 0 0 1 0 47.37Z" transform="translate(-203.8 -103.26)"></path><path fill="#452e63" d="M948 410.87H805.74a32.27 32.27 0 0 1 32.18 32.18 32.27 32.27 0 0 1-32.18 32.18H948a32.28 32.28 0 0 1-32.19-32.18A32.28 32.28 0 0 1 948 410.87Zm-95.5 47.37a49.43 49.43 0 0 0 0-30.37h48.71a49.24 49.24 0 0 0 0 30.37Z" transform="translate(-203.8 -103.26)"></path><path fill="#452e63" d="M1023.62 452.37a368.09 368.09 0 0 0-257.45-233.91 16.58 16.58 0 0 0-4.11-.51 17 17 0 0 0-15 9 49.12 49.12 0 0 0 42.4 72.15 49.37 49.37 0 0 0 0 30.38h-15.9a49.16 49.16 0 0 0-36.3 82.35 49.14 49.14 0 0 0-7.71 49.38 49.2 49.2 0 0 0-29.34 62.95A49.19 49.19 0 0 0 712.57 621h.65A49.19 49.19 0 0 0 760 685.35h59.93a49.23 49.23 0 0 0 25.57 59.55 49.12 49.12 0 0 0 9.56 54.1 48.93 48.93 0 0 0-10.42 30.24 49.48 49.48 0 0 0 31.76 45.94 17 17 0 0 0 16-2.11 371 371 0 0 0 110.67-128 365.74 365.74 0 0 0 30.73-81 369.83 369.83 0 0 0-10.21-211.67Zm-141.16 407a32.28 32.28 0 0 1-20.82-30.06 32.28 32.28 0 0 1 32.18-32.19h-3.38a32.28 32.28 0 0 1-32.19-32.18 32.28 32.28 0 0 1 32.19-32.18h-23.72a32.19 32.19 0 0 1 0-64.37H760a32.28 32.28 0 0 1-32.18-32.19A32.27 32.27 0 0 1 760 604h-47.43a32.28 32.28 0 0 1-32.18-32.19 32.27 32.27 0 0 1 32.18-32.18h33.88a32.28 32.28 0 0 1-32.18-32.19 32.27 32.27 0 0 1 32.18-32.18h28.8a32.27 32.27 0 0 1-32.18-32.18 32.27 32.27 0 0 1 32.18-32.18h-1.69a32.19 32.19 0 1 1 0-64.37h62.67a32.19 32.19 0 0 1 0-64.37H790.5A32.28 32.28 0 0 1 758.31 250a31.94 31.94 0 0 1 3.75-15c152.55 38 265.58 175.91 265.58 340.23 0 116.86-57.23 220.39-145.18 284.1Z" transform="translate(-203.8 -103.26)"></path></g><g><path fill="#dbe6ff" d="M433.92 1162.42a8.4 8.4 0 0 1-5.1-1.71c-59.83-45-99.87-100-119-163.51s-16.21-131.47 8.75-202.06c23.9-67.61 66.93-134.76 127.89-199.58C507.13 531 582.61 472 670.77 420.05c91.15-53.67 192-97.36 299.64-129.84s215.84-51.84 321.46-57.52c102.17-5.5 197.71 2 284 22.17 86.64 20.3 159.63 52.45 216.93 95.56 59.83 45 99.87 100 119 163.51 17.33 57.45 16.53 118.84-2.37 182.46-18.12 61-52.33 122.29-101.66 182.18a8.5 8.5 0 1 1-13.12-10.8c97.29-118.12 133.12-242 100.87-348.93-35.93-119.09-150.83-207-323.55-247.43-174.38-40.85-386.27-28.41-596.65 35.07s-393.81 170.27-516.5 300.73c-121.53 129.23-168.68 266-132.75 385.08 18.09 60 56.09 112 113 154.84a8.5 8.5 0 0 1-5.12 15.29Z" transform="translate(-203.8 -103.26)"></path><path fill="#b6ccf2" d="M428.82 1160.71c-6-4.53-11.95-9.24-17.58-14l11-13c5.4 4.55 11.06 9.06 16.84 13.41Zm-34.35-29c-5.47-5.2-10.8-10.6-15.84-16l12.48-11.55c4.79 5.18 9.86 10.32 15.08 15.28Zm-30.61-33.11c-4.75-5.89-9.32-12-13.57-18.08l13.95-9.71c4 5.78 8.35 11.54 12.85 17.11Zm-25.81-37.11c-3.84-6.5-7.47-13.2-10.77-19.91l15.25-7.51c3.11 6.32 6.53 12.63 10.16 18.77Zm-20-40.61c-2.79-7-5.34-14.16-7.57-21.35l16.23-5c2.11 6.77 4.5 13.53 7.13 20.1Zm-13.44-43.24c-1.66-7.32-3.06-14.82-4.14-22.27l16.82-2.46c1 7 2.34 14.08 3.9 21Zm-6.54-44.79c-.46-6.77-.7-13.68-.7-20.54v-2.08l17 .11v2c0 6.47.22 13 .66 19.38ZM315.31 889l-16.94-1.33c.58-7.4 1.43-14.93 2.53-22.41l16.82 2.48a312.91 312.91 0 0 0-2.41 21.26Zm1501.22-21.26-13.33-10.55c4.51-5.71 9-11.51 13.18-17.25l13.68 10.06c-4.34 5.9-8.89 11.86-13.53 17.72Zm-1495-21.08-16.63-3.56c1.55-7.23 3.36-14.58 5.38-21.84l16.38 4.55c-1.92 6.92-3.66 13.94-5.12 20.83ZM1843 831.84l-14-9.6c4.1-6 8.11-12.08 11.91-18.12l14.38 9.07c-3.97 6.22-8.09 12.49-12.29 18.65ZM333 805.25l-16.09-5.48c2.37-7 5-14 7.79-21l15.79 6.31c-2.67 6.69-5.19 13.48-7.49 20.17Zm1533.76-11.19-14.76-8.48c3.63-6.3 7.12-12.68 10.39-19l15.09 7.84c-3.35 6.58-6.96 13.14-10.7 19.64ZM349 765.24l-15.45-7.09a482.52 482.52 0 0 1 9.81-20.12l15.11 7.79c-3.31 6.45-6.47 12.98-9.47 19.42Zm1538.37-10.89-15.37-7.14c3-6.57 5.93-13.23 8.59-19.8l15.76 6.38c-2.8 6.82-5.8 13.74-8.96 20.56ZM368.82 726.82l-14.76-8.44c3.65-6.37 7.51-12.81 11.49-19.16l14.4 9c-3.85 6.18-7.6 12.43-11.13 18.6Zm1535.36-14.05-16.08-5.54c2.36-6.83 4.52-13.74 6.44-20.53l16.36 4.62c-2 7.1-4.27 14.31-6.72 21.45ZM391.81 690.11l-14.05-9.57c4.12-6 8.45-12.18 12.87-18.2l13.71 10.06c-4.34 5.86-8.52 11.82-12.53 17.71Zm1524.56-20.62-16.61-3.63c1.53-7 2.85-14.12 3.91-21.09l16.8 2.56a337.17 337.17 0 0 1-4.1 22.16ZM417.48 655.12l-13.36-10.52a704.57 704.57 0 0 1 14.06-17.27l13 10.93a717.56 717.56 0 0 0-13.7 16.86Zm1505.63-30.21-16.94-1.4c.59-7.13.93-14.31 1-21.35l17 .2c-.08 7.44-.44 15.03-1.06 22.55Zm-1477.68-3.09-12.68-11.32c4.87-5.46 9.94-11 15-16.38l12.36 11.68c-4.96 5.29-9.91 10.68-14.68 16.02Zm29.89-31.63-12-12c5.16-5.17 10.51-10.4 15.91-15.53L490.9 575c-5.28 5-10.53 10.12-15.58 15.19Zm1431.31-9.37a276.9 276.9 0 0 0-2.15-21.23l16.83-2.37c1 7.42 1.82 15 2.29 22.53ZM506.88 560.16l-11.41-12.61c5.43-4.91 11-9.86 16.65-14.7l11.1 12.88c-5.51 4.75-11.01 9.6-16.34 14.43Zm1393.8-21.57c-1.46-6.6-3.2-13.25-5.16-19.75l-.26-.86 16.25-5 .29 1c2.08 6.89 3.92 13.95 5.48 21ZM539.9 531.68l-10.81-13.13c5.66-4.65 11.47-9.33 17.29-13.91L556.89 518c-5.72 4.51-11.44 9.11-16.99 13.68Zm34.29-27L564 491.12c5.84-4.4 11.85-8.82 17.86-13.15l9.94 13.8c-5.95 4.23-11.86 8.61-17.61 12.94Zm1314.05-6.87c-2.58-6.56-5.46-13.12-8.56-19.48l15.29-7.44a289.85 289.85 0 0 1 9.09 20.7ZM609.61 479.19l-9.66-14c6-4.16 12.21-8.33 18.37-12.41L627.7 467c-6.07 4-12.16 8.1-18.09 12.19Zm1260-19.64c-3.56-6.09-7.42-12.16-11.47-18l14-9.65c4.29 6.22 8.37 12.65 12.15 19.1ZM646 455.09l-9.1-14.35c6.19-3.93 12.53-7.87 18.82-11.7l8.84 14.53c-6.18 3.77-12.42 7.65-18.56 11.52Zm37.32-22.71-8.57-14.68c6.35-3.7 12.82-7.4 19.23-11l8.31 14.83c-6.29 3.55-12.68 7.2-18.94 10.85Zm1162.06-8c-4.4-5.49-9.08-11-13.93-16.25l12.55-11.51c5.1 5.57 10 11.33 14.67 17.13ZM721.48 411l-8.05-15c6.46-3.47 13.05-6.94 19.6-10.32l7.79 15.11c-6.46 3.38-12.97 6.81-19.34 10.21Zm1095-18.23c-5.09-4.89-10.46-9.73-15.94-14.4l11-12.95c5.75 4.89 11.36 10 16.7 15.08ZM760.33 391l-7.53-15.24c6.59-3.26 13.29-6.5 19.93-9.65l7.27 15.36c-6.54 3.1-13.16 6.31-19.67 9.53Zm39.51-18.72-7-15.48c6.68-3 13.49-6.06 20.23-9l6.77 15.59c-6.67 2.89-13.39 5.88-20 8.88Zm983.93-7.35c-5.63-4.27-11.52-8.49-17.5-12.55l9.55-14.07c6.22 4.23 12.35 8.63 18.22 13.08ZM840 354.83l-6.53-15.69c6.78-2.82 13.68-5.63 20.51-8.34l6.28 15.8c-6.8 2.68-13.61 5.45-20.26 8.23Zm908.17-14.14c-6-3.69-12.34-7.33-18.7-10.82l8.18-14.9c6.58 3.61 13.1 7.38 19.37 11.21Zm-867.53-2-6-15.89c6.86-2.61 13.85-5.2 20.75-7.7l5.79 16c-6.91 2.45-13.8 5-20.59 7.58Zm41.13-14.89-5.54-16.07c6.94-2.39 14-4.76 21-7.05l5.29 16.15c-6.96 2.25-13.94 4.6-20.8 6.96Zm788.52-3.91c-6.38-3.16-13-6.25-19.6-9.21l6.92-15.53c6.83 3.05 13.64 6.25 20.21 9.5Zm-747-9.7-5-16.23q6.09-1.89 12.21-3.74c3-.91 6-1.8 9-2.68l4.8 16.3-8.88 2.65q-6.16 1.82-12.17 3.69Zm707.42-8c-6.61-2.65-13.44-5.25-20.27-7.72l5.77-16c7 2.54 14 5.21 20.84 7.94Zm-665.43-4.41-4.56-16.38c7.07-2 14.26-3.91 21.37-5.78l4.31 16.45c-7.06 1.87-14.17 3.79-21.16 5.74Zm624.61-10.34c-6.8-2.2-13.79-4.34-20.78-6.37l4.73-16.32a705.12 705.12 0 0 1 21.29 6.52Zm-582.28-.76-4.06-16.51c7.13-1.75 14.38-3.47 21.54-5.12l3.81 16.57c-7.12 1.66-14.28 3.38-21.33 5.09Zm42.65-9.79-3.54-16.62c7.2-1.54 14.5-3 21.69-4.45l3.28 16.68c-7.14 1.43-14.35 2.91-21.47 4.42Zm497.88-1.55c-6.94-1.78-14-3.5-21.15-5.12l3.77-16.57c7.25 1.65 14.53 3.41 21.61 5.23Zm-454.95-6.89-3-16.73c7.24-1.31 14.58-2.57 21.83-3.76l2.75 16.78c-7.22 1.2-14.47 2.45-21.62 3.74Zm412.51-2.76c-7-1.4-14.25-2.74-21.42-4l2.89-16.75c7.31 1.26 14.66 2.62 21.85 4Zm-369.34-4.31-2.47-16.81c7.28-1.07 14.66-2.1 21.94-3l2.19 16.85c-7.22.93-14.51 1.94-21.7 2.99Zm326.4-3.1c-7.1-1-14.37-2-21.6-2.91l2.07-16.87c7.36.9 14.77 1.9 22 3Zm-283-2.53-1.9-16.9c7.33-.82 14.74-1.6 22-2.3l1.62 16.93c-7.24.72-14.56 1.52-21.8 2.3Zm239.69-2.75c-7.17-.71-14.48-1.36-21.73-1.92l1.31-16.95c7.37.57 14.81 1.23 22.1 2Zm-196.24-1.37-1.33-17c7.37-.58 14.8-1.09 22.1-1.53l1 17c-7.17.44-14.51.95-21.77 1.52Zm152.74-2c-7.2-.4-14.53-.73-21.81-1l.6-17c7.39.26 14.85.6 22.16 1Zm-109.13-.63-.71-17c7.37-.31 14.82-.56 22.14-.73l.4 17c-7.22.17-14.56.42-21.83.73Zm65.5-.91c-7.19-.1-14.53-.14-21.83-.11l-.08-17c7.42 0 14.86 0 22.17.12Z" transform="translate(-203.8 -103.26)"></path></g><g><path fill="#452e63" d="m2023 495.41-17.82-18.85-17.82-18.85-17.81-18.86-17.86-18.85-17.81-18.86-17.82-18.85a17 17 0 0 0-11.88-5.32h-.48a16.68 16.68 0 0 0-2.92.25 37.19 37.19 0 0 0 .38-7.23 27.8 27.8 0 0 0 4.61-21.08 22.27 22.27 0 0 0 2.36-14 28.4 28.4 0 0 0-34.56-36.54 22.3 22.3 0 0 0-4.69-.5 22 22 0 0 0-9.38 2.07 28.13 28.13 0 0 0-6.61-.79 27.73 27.73 0 0 0-14.68 4.19 37.05 37.05 0 0 0-3.8-.2c-1.15 0-2.3.06-3.44.16a16.93 16.93 0 0 0-4.2-15.52L1809 268.94l-17.82-18.85-17.81-18.85-17.82-18.86-17.81-18.85-17.82-18.86a17 17 0 0 0-24-.68l-47.39 44.79-47.39 44.78a17 17 0 0 0-.68 24l17.81 18.85L1636 325.3l17.82 18.85 17.82 18.85 17.82 18.85 17.81 18.86a17 17 0 0 0 11.88 5.31h.48a17.1 17.1 0 0 0 2.87-.24 36.15 36.15 0 0 0-.27 8.64 27.88 27.88 0 0 0-3 11.81 66 66 0 0 0-58 16.75 17 17 0 0 0-.68 24l16.66 17.62a26.53 26.53 0 1 0 33.86 35.83l16.64 17.62a17 17 0 0 0 24 .68 65.76 65.76 0 0 0 20-57h.76a27.63 27.63 0 0 0 11.22-2.36 36.8 36.8 0 0 0 5.14.37c1.16 0 2.31-.06 3.45-.17a17 17 0 0 0 4.21 15.53l17.81 18.85 17.82 18.85 17.88 18.97 17.82 18.85 17.82 18.86 17.81 18.85a17 17 0 0 0 11.88 5.32h.48a17 17 0 0 0 11.69-4.65l47.39-44.78 47.39-44.78a17 17 0 0 0 .68-24Z" transform="translate(-203.8 -103.26)"></path><path fill="#008689" d="m1872.61 316.49 17.4 18.4a5.17 5.17 0 0 1-.21 7.27l-4.37 11.66c-2 1.94-9.08-2.13-11-4.19l-17.43-18.4c-1.94-2.06-6.27-10-4.22-11.94l12.55-3a5.15 5.15 0 0 1 7.28.2Z" transform="translate(-203.8 -103.26)"></path><path fill="#1d9e92" d="M1727.63 445.87h23.48v11.74h-23.48z" transform="rotate(-43.38 1507.624 656.303)"></path><path fill="#008689" d="M1735.7 454.4h23.48v11.74h-23.48z" transform="rotate(-43.38 1515.67 664.847)"></path><path fill="#008689" d="M1764.95 345.08h11.74v23.48h-11.74z" transform="rotate(-43.38 1539.071 561.39)"></path><path fill="#1d9e92" d="M1773.48 337.02h11.74v23.48h-11.74z" transform="rotate(-43.38 1547.607 553.327)"></path><path fill="#008689" d="M1838.11 422.51h11.74v23.48h-11.74z" transform="rotate(-43.38 1612.214 638.82)"></path><path fill="#1d9e92" d="M1846.64 414.44h11.74v23.48h-11.74z" transform="rotate(-43.38 1620.768 630.75)"></path><path fill="#5bc5ff" d="M1889.56 317.89a11.38 11.38 0 0 0-16.08-.45l15.63 16.56a11.38 11.38 0 0 0 .45-16.11Z" transform="translate(-203.8 -103.26)"></path><rect width="58.74" height="21.46" x="1730.37" y="429.84" fill="#189bc4" rx="5.94" transform="rotate(-133.38 1635.58 432.863)"></rect><rect width="58.74" height="21.46" x="1836.34" y="329.7" fill="#189bc4" rx="5.94" transform="rotate(-133.38 1741.556 332.72)"></rect><rect width="143.3" height="83.04" x="1740.02" y="349.98" fill="#5bc5ff" rx="19.59" transform="matrix(.73 -.69 .69 .73 22.21 1247.98)"></rect><path fill="#5bc5ff" d="M1898.01 551.87h65.2v25.94h-65.2z" transform="rotate(-43.38 1698.854 769.403)"></path><path fill="#5bc5ff" d="M1862.37 514.16h65.2v25.94h-65.2z" transform="rotate(-43.38 1663.225 731.704)"></path><path fill="#5bc5ff" d="M1826.74 476.45h65.2v25.94h-65.2z" transform="rotate(-43.38 1627.588 693.987)"></path><path fill="#5bc5ff" d="M1945.4 507.08h65.2v25.94h-65.2z" transform="rotate(-43.38 1746.235 724.624)"></path><path fill="#5bc5ff" d="M1909.76 469.38h65.2v25.94h-65.2z" transform="rotate(-43.38 1710.624 686.917)"></path><path fill="#5bc5ff" d="M1874.13 431.67h65.2v25.94h-65.2z" transform="rotate(-43.38 1674.982 649.212)"></path><path fill="#189bc4" d="M1899.82 513.38h25.94v65.2h-25.94z" transform="rotate(-133.38 1788.634 538.266)"></path><path fill="#189bc4" d="M1864.19 475.67h25.94v65.2h-25.94z" transform="rotate(-133.38 1753.003 500.56)"></path><path fill="#189bc4" d="M1828.55 437.97h25.94v65.2h-25.94z" transform="rotate(-133.38 1717.369 462.85)"></path><path fill="#189bc4" d="M1947.21 468.6h25.94v65.2h-25.94z" transform="rotate(-133.38 1836.022 493.488)"></path><path fill="#189bc4" d="M1911.58 430.89h25.94v65.2h-25.94z" transform="rotate(-133.38 1800.39 455.783)"></path><path fill="#189bc4" d="M1875.94 393.18h25.94v65.2h-25.94z" transform="rotate(-133.38 1764.757 418.073)"></path><path fill="#5bc5ff" d="M1701.82 344.25h65.2v25.94h-65.2z" transform="rotate(-43.38 1502.672 561.793)"></path><path fill="#5bc5ff" d="M1666.18 306.54h65.2v25.94h-65.2z" transform="rotate(-43.38 1467.031 524.088)"></path><path fill="#5bc5ff" d="M1630.55 268.83h65.2v25.94h-65.2z" transform="rotate(-43.38 1431.407 486.376)"></path><path fill="#5bc5ff" d="M1749.21 299.47h65.2v25.94h-65.2z" transform="rotate(-43.38 1550.066 517.018)"></path><path fill="#5bc5ff" d="M1713.57 261.76h65.2v25.94h-65.2z" transform="rotate(-43.38 1514.43 479.301)"></path><path fill="#5bc5ff" d="M1677.94 224.05h65.2v25.94h-65.2z" transform="rotate(-43.38 1478.806 441.59)"></path><path fill="#189bc4" d="M1703.63 305.77h25.94v65.2h-25.94z" transform="rotate(-133.38 1592.442 330.655)"></path><path fill="#189bc4" d="M1668 268.06h25.94v65.2H1668z" transform="rotate(-133.38 1556.813 292.943)"></path><path fill="#189bc4" d="M1632.37 230.35h25.94v65.2h-25.94z" transform="rotate(-133.38 1521.181 255.238)"></path><path fill="#189bc4" d="M1751.02 260.98h25.94v65.2h-25.94z" transform="rotate(-133.38 1639.837 285.868)"></path><path fill="#189bc4" d="M1715.39 223.28h25.94v65.2h-25.94z" transform="rotate(-133.38 1604.2 248.165)"></path><path fill="#189bc4" d="M1679.76 185.57h25.94v65.2h-25.94z" transform="rotate(-133.38 1568.567 210.455)"></path><path fill="#008689" d="M1686.93 494.09h27.76v4.34h-27.76z" transform="rotate(-43.38 1469.098 700.82)"></path><path fill="#5bc5ff" d="M1742 457.31a48.89 48.89 0 0 0-69.11-1.95l67.16 71.07a48.9 48.9 0 0 0 1.95-69.12Z" transform="translate(-203.8 -103.26)"></path><path fill="#ffda65" d="M1680.38 502.43a9.55 9.55 0 1 1-.38 13.49 9.56 9.56 0 0 1 .38-13.49Z" transform="translate(-203.8 -103.26)"></path></g><g><path fill="#dbe6ff" d="M1178 677.36a9.91 9.91 0 0 1-2.18-.24c-2.2.16-4.4.24-6.55.24a89.44 89.44 0 0 1-3.77-178.81 89.5 89.5 0 0 1 122.5-64.93 138 138 0 0 1 124.25-77.9c76.08 0 138 61.9 138 138 0 1.79 0 3.59-.11 5.39a89.45 89.45 0 0 1-8 177.79 10 10 0 0 1-3.09.48Z" transform="translate(-203.8 -103.26)"></path><path fill="#452e63" d="M1558.72 492a146.51 146.51 0 0 0-274.81-69 98 98 0 0 0-125.29 67.52 97.95 97.95 0 0 0 10.62 195.32c2 0 4-.06 6.09-.19a17.84 17.84 0 0 0 2.64.19H1539a18.94 18.94 0 0 0 4.51-.55A98 98 0 0 0 1558.72 492Zm-18.6 176.42a1.67 1.67 0 0 1-1.08.4H1178a1.67 1.67 0 0 1-1-.36q-3.81.36-7.7.36a80.95 80.95 0 1 1 0-161.89c1.18 0 2.35 0 3.52.08a81 81 0 0 1 119.44-62 129.5 129.5 0 0 1 249.53 48.61q0 6.6-.65 13a80.94 80.94 0 0 1-1 161.72Z" transform="translate(-203.8 -103.26)"></path><path fill="#b6ccf2" d="M1540.11 641.93c-.29.25-368.27.4-370.87.4a81 81 0 0 1-79.86-67.68 81 81 0 0 0 79.86 94.21c2.6 0 370.58.25 370.87 0 43.28-1.62 77.86-37.61 77.86-81.28a81.75 81.75 0 0 0-1.08-13.27 81 81 0 0 1-76.78 67.62Z" transform="translate(-203.8 -103.26)"></path><path fill="#6557b2" d="M1076.72 659.44a65.13 65.13 0 1 1 65.13-65.13 65.21 65.21 0 0 1-65.13 65.13Z" transform="translate(-203.8 -103.26)"></path><path fill="#452e63" d="M1076.72 520.68a73.63 73.63 0 1 0 73.63 73.63 73.71 73.71 0 0 0-73.63-73.63Zm0 130.26a56.63 56.63 0 1 1 56.63-56.63 56.62 56.62 0 0 1-56.63 56.63Z" transform="translate(-203.8 -103.26)"></path><path fill="#5bc5ff" d="M1093 590.07v-9.79c0-9.12-6.84-16.58-15.21-16.58h-2.08c-8.37 0-15.21 7.46-15.21 16.58v9.79h-9.39v-11.84c0-13.68 10.8-24.87 24-24.87h3.29c13.19 0 24 11.19 24 24.87v11.84Z" transform="translate(-203.8 -103.26)"></path><path fill="#26ade4" d="M841.12 485.56h63.6v38.89h-63.6z"></path><path fill="#189bc4" d="M1069 602.89a7.43 7.43 0 0 1 14.84 0 6.93 6.93 0 0 1-3.06 5.7v8.46a4.36 4.36 0 0 1-8.71 0v-8.46a6.92 6.92 0 0 1-3.07-5.7Z" transform="translate(-203.8 -103.26)"></path><path fill="#3abb78" fill-rule="evenodd" d="m1298.39 463.12.34 36.66.01.94.17 18.21 5.26-.05-.17-18.21 23.27-.21-.35-37.6-28.53.26z"></path><path fill="#148c66" fill-rule="evenodd" d="m1339.06 482.5 16.02-19.51h-28.54v37.6h28.54l-16.02-18.09z"></path><path fill="#26ade4" d="M1456.19 428h-108.37a26.57 26.57 0 0 0-26.53 26.54v74.58a26.57 26.57 0 0 0 26.53 26.54h108.39a26.58 26.58 0 0 0 26.54-26.56v-74.59a26.58 26.58 0 0 0-26.56-26.51Z" transform="translate(-203.8 -103.26)"></path><path fill="#452e63" d="M1456.21 419.47h-108.39a35.07 35.07 0 0 0-35 35v74.58a35.07 35.07 0 0 0 35 35h108.37a35.09 35.09 0 0 0 35.06-35v-74.52a35.09 35.09 0 0 0-35.04-35.06Zm18 35.06v74.56a18.1 18.1 0 0 1-18 18h-108.39a18.09 18.09 0 0 1-18-18v-74.58a18.09 18.09 0 0 1 18-18h108.39a18.1 18.1 0 0 1 18 18Z" transform="translate(-203.8 -103.26)"></path><path fill="#189bc4" d="M1456.19 436.47h-54.8v110.66h54.8a18.12 18.12 0 0 0 18.06-18.06v-74.54a18.12 18.12 0 0 0-18.06-18.06Z" transform="translate(-203.8 -103.26)"></path><rect width="55.68" height="8.53" x="1135.51" y="350.13" fill="#fff" rx="3.1"></rect><rect width="55.68" height="8.53" x="1135.51" y="365.18" fill="#fff" rx="3.1"></rect><rect width="55.68" height="8.53" x="1135.51" y="380.23" fill="#fff" rx="3.1"></rect><rect width="55.68" height="8.53" x="1135.51" y="395.28" fill="#fff" rx="3.1"></rect><rect width="22.57" height="8.53" x="1135.51" y="410.33" fill="#fff" rx="3.1"></rect><rect width="55.68" height="8.53" x="1204.23" y="350.13" fill="#f1f2f2" rx="3.1"></rect><rect width="55.68" height="8.53" x="1204.23" y="365.18" fill="#f1f2f2" rx="3.1"></rect><rect width="29.09" height="8.53" x="1204.23" y="380.23" fill="#f1f2f2" rx="3.1"></rect><rect width="55.68" height="8.53" x="1204.23" y="395.28" fill="#f1f2f2" rx="3.1"></rect><rect width="44.14" height="8.53" x="1204.23" y="410.33" fill="#f1f2f2" rx="3.1"></rect><path fill="#f73e48" d="M1411.05 475h-108.36a26.57 26.57 0 0 0-26.54 26.54v74.58a26.57 26.57 0 0 0 26.54 26.54h108.38a26.58 26.58 0 0 0 26.54-26.56v-74.57a26.58 26.58 0 0 0-26.56-26.53Z" transform="translate(-203.8 -103.26)"></path><path fill="#452e63" d="M1411.07 466.49h-108.38a35.08 35.08 0 0 0-35 35v74.58a35.07 35.07 0 0 0 35 35h108.36a35.08 35.08 0 0 0 35.06-35v-74.52a35.09 35.09 0 0 0-35.04-35.06Zm18 35.06v74.56a18.09 18.09 0 0 1-18 18h-108.38a18.08 18.08 0 0 1-18-18v-74.58a18.09 18.09 0 0 1 18-18h108.38a18.1 18.1 0 0 1 18 18Z" transform="translate(-203.8 -103.26)"></path><path fill="#f73e48" d="M1411.05 483.49h-54.8v110.65h54.8a18.11 18.11 0 0 0 18.06-18v-74.59a18.12 18.12 0 0 0-18.06-18.06Z" transform="translate(-203.8 -103.26)"></path><rect width="55.68" height="8.53" x="1293.97" y="500.41" fill="#fff" rx="3.1" transform="rotate(-.38 -14349.048 31181.86)"></rect><rect width="55.68" height="8.53" x="1294.07" y="515.46" fill="#fff" rx="3.1" transform="rotate(-.38 -14349.098 31196.939)"></rect><rect width="55.68" height="8.53" x="1294.17" y="530.51" fill="#fff" rx="3.1" transform="rotate(-.38 -14349.148 31212.016)"></rect><rect width="55.68" height="8.53" x="1294.27" y="545.56" fill="#fff" rx="3.1" transform="rotate(-.38 -14349.198 31227.094)"></rect><rect width="22.57" height="8.53" x="1294.37" y="560.72" fill="#fff" rx="3.1" transform="rotate(-.38 -14365.833 31242.117)"></rect><rect width="55.68" height="8.53" x="1159.09" y="397.15" fill="#f1f2f2" rx="3.1"></rect><rect width="55.68" height="8.53" x="1159.09" y="412.2" fill="#f1f2f2" rx="3.1"></rect><rect width="29.09" height="8.53" x="1159.09" y="427.25" fill="#f1f2f2" rx="3.1"></rect><rect width="55.68" height="8.53" x="1159.09" y="442.3" fill="#f1f2f2" rx="3.1"></rect><rect width="44.14" height="8.53" x="1159.09" y="457.35" fill="#f1f2f2" rx="3.1"></rect><path fill="#ffda65" d="M1256.14 647.31a26.56 26.56 0 0 1-26.54-26.53V546.2a26.57 26.57 0 0 1 26.54-26.54h108.36a26.58 26.58 0 0 1 26.56 26.54v74.56a26.57 26.57 0 0 1-26.54 26.55Z" transform="translate(-203.8 -103.26)"></path><path fill="#452e63" d="M1364.52 511.16h-108.38a35.08 35.08 0 0 0-35 35v74.58a35.07 35.07 0 0 0 35 35h108.36a35.08 35.08 0 0 0 35.06-35v-74.52a35.09 35.09 0 0 0-35.04-35.06Zm18 35.06v74.56a18.09 18.09 0 0 1-18 18h-108.38a18.08 18.08 0 0 1-18-18V546.2a18.09 18.09 0 0 1 18-18h108.38a18.1 18.1 0 0 1 18 18Z" transform="translate(-203.8 -103.26)"></path><path fill="#f9cc4e" d="M1364.5 528.16h-54.8v110.65h54.8a18.11 18.11 0 0 0 18.06-18v-74.59a18.12 18.12 0 0 0-18.06-18.06Z" transform="translate(-203.8 -103.26)"></path><rect width="55.68" height="8.53" x="1043.82" y="441.82" fill="#fff" rx="3.1"></rect><rect width="55.68" height="8.53" x="1043.82" y="456.87" fill="#fff" rx="3.1"></rect><rect width="55.68" height="8.53" x="1043.82" y="471.92" fill="#fff" rx="3.1"></rect><rect width="55.68" height="8.53" x="1043.82" y="486.97" fill="#fff" rx="3.1"></rect><rect width="22.57" height="8.53" x="1043.82" y="502.01" fill="#fff" rx="3.1"></rect><rect width="55.68" height="8.53" x="1112.54" y="441.82" fill="#f1f2f2" rx="3.1"></rect><rect width="55.68" height="8.53" x="1112.54" y="456.87" fill="#f1f2f2" rx="3.1"></rect><rect width="29.09" height="8.53" x="1112.54" y="471.92" fill="#f1f2f2" rx="3.1"></rect><rect width="55.68" height="8.53" x="1112.54" y="486.97" fill="#f1f2f2" rx="3.1"></rect><rect width="44.14" height="8.53" x="1112.54" y="502.01" fill="#f1f2f2" rx="3.1"></rect></g><g><path fill="#ffda65" d="M1702.19 1056.67a93.26 93.26 0 0 1-.21-186.51 94.6 94.6 0 0 1 13.84 1 93.25 93.25 0 0 1-13.63 185.48Z" transform="translate(-203.8 -103.26)"></path><path fill="#452e63" d="M1717.08 862.79a102.13 102.13 0 0 0-15.1-1.13 101.85 101.85 0 1 0 15.11 1.13Zm68.82 113.12a84.84 84.84 0 1 1-71.33-96.31 84.77 84.77 0 0 1 71.33 96.31Z" transform="translate(-203.8 -103.26)"></path><path fill="#927dd3" d="M1675.54 1026.85a36.95 36.95 0 0 1-16.54-66.26l23.57-17.46a37 37 0 0 1 44 59.43L1703 1020a36.74 36.74 0 0 1-27.46 6.85Zm32.39-76.65a22.81 22.81 0 0 0-17 4.22l-23.58 17.46a22.89 22.89 0 0 0 10.28 41.07 22.72 22.72 0 0 0 17-4.22l23.58-17.45a22.9 22.9 0 0 0-10.28-41.08Z" transform="translate(-203.8 -103.26)"></path><path fill="#7f6dc6" d="m1659 960.59 23.57-17.46a39.74 39.74 0 0 1 4.16-2.63l8.47 11.44a23.07 23.07 0 0 0-4.26 2.48l-23.58 17.46a22.92 22.92 0 0 0-5 5.15l-8.63-11.64a36.34 36.34 0 0 1 5.27-4.8Z" transform="translate(-203.8 -103.26)"></path><path fill="#9f85dc" d="M1694.18 990.53a36.94 36.94 0 0 1-16.57-66.26l23.57-17.45a37 37 0 0 1 44 59.43l-23.57 17.46a36.74 36.74 0 0 1-27.43 6.82Zm32.39-76.64a22.72 22.72 0 0 0-17 4.22L1686 935.56a22.93 22.93 0 0 0 27.3 36.86l23.55-17.42a22.89 22.89 0 0 0-10.28-41.07Z" transform="translate(-203.8 -103.26)"></path><path fill="#7f6dc6" d="M1734.28 950.84a36.73 36.73 0 0 0-24.28-14.53 37.29 37.29 0 0 0-7.37-.37l-2.14 14.38a23.18 23.18 0 0 1 7.44-.12 22.93 22.93 0 0 1 10.28 41.08l-23.58 17.45a22.52 22.52 0 0 1-3.13 1.93l-2.34 15.68A36.69 36.69 0 0 0 1703 1020l23.57-17.46a37.07 37.07 0 0 0 7.71-51.72Z" transform="translate(-203.8 -103.26)"></path><path fill="#7f6dc6" d="M1752.92 914.53a37.15 37.15 0 0 0-45.39-11.5l-2.77 18.62 4.79-3.54a22.93 22.93 0 0 1 27.3 36.85l-23.58 17.46a22.75 22.75 0 0 1-16.71 4.25l-2.07 13.89a36.67 36.67 0 0 0 27.15-6.85l23.57-17.46a37.07 37.07 0 0 0 7.71-51.72Z" transform="translate(-203.8 -103.26)"></path><path fill="#6557b2" d="M1734.28 950.84a37.77 37.77 0 0 0-3.52-4l-11.47 8.5a23.16 23.16 0 0 1 3.7 3.89 23 23 0 0 1-1.3 28.88l.47.63 19.31-14.3a36.64 36.64 0 0 0-7.19-23.6Z" transform="translate(-203.8 -103.26)"></path></g><g><circle cx="1679.77" cy="646.36" r="82.13" fill="#ff494b"></circle><path fill="#452e63" d="M1883.57 659a90.63 90.63 0 1 0 90.63 90.63 90.74 90.74 0 0 0-90.63-90.63Zm0 164.26a73.63 73.63 0 1 1 73.63-73.63 73.62 73.62 0 0 1-73.63 73.62Z" transform="translate(-203.8 -103.26)"></path><rect width="90.62" height="69.41" x="1634.46" y="611.65" fill="#d1d3d4" rx="9.41"></rect><path fill="#e6e7e8" d="M1847.9 784.33h71.34a9.51 9.51 0 0 0 5.79-2 4.27 4.27 0 0 0 .42-6.42l-32.67-30.85a14.49 14.49 0 0 0-19.62 0l-32.68 30.85a9.28 9.28 0 0 0-1.52 1.94v.31a9.66 9.66 0 0 0 8.94 6.17Z" transform="translate(-203.8 -103.26)"></path><path fill="#fff" d="M1919.24 714.91h-71.34a9.26 9.26 0 0 0-6.3 2.5 4.52 4.52 0 0 0-.43 6.11 7.82 7.82 0 0 0 .55.6l32.62 33.09a13.85 13.85 0 0 0 19.72 0l32.63-33.09a9.63 9.63 0 0 0 1.52-2.09v-.68a9.68 9.68 0 0 0-8.97-6.44Z" transform="translate(-203.8 -103.26)"></path><path fill="#bcbec0" d="M1917.55 714.91h-33.74v69.42h33.74a11.37 11.37 0 0 0 11.33-11.33v-46.76a11.37 11.37 0 0 0-11.33-11.33Z" transform="translate(-203.8 -103.26)"></path><path fill="#d1d3d4" d="m1925.42 775.9-35.63-33.64a9.87 9.87 0 0 0-6-2.6v44.67h35.43a9.63 9.63 0 0 0 8.42-5.05 8.93 8.93 0 0 0-2.22-3.38Z" transform="translate(-203.8 -103.26)"></path><path fill="#f1f2f2" d="M1919.24 714.91h-35.43v46.28a9.79 9.79 0 0 0 7.24-2.72l35.64-34.71a9.41 9.41 0 0 0 1.52-2v-.66a9.66 9.66 0 0 0-8.97-6.19Z" transform="translate(-203.8 -103.26)"></path></g><g><circle cx="1445.03" cy="234.92" r="76.06" fill="#6557b2" transform="rotate(-56 1243.293 374.083)"></circle><path fill="#452e63" d="M1445 150.37a84.56 84.56 0 1 0 84.55 84.55 84.65 84.65 0 0 0-84.55-84.55Zm0 152.11a67.56 67.56 0 1 1 67.55-67.56 67.56 67.56 0 0 1-67.55 67.56Z" transform="translate(-203.8 -103.26)"></path><rect width="34.49" height="49.92" x="1200.56" y="115.66" fill="#26ade4" rx="5"></rect><path fill="#ffc571" d="M1486.93 233.59v-.05a6 6 0 0 0 2.44-4.79v-1.12a6.21 6.21 0 0 0-6-6.23h-26.66c-2.91-.65 1.93-11.27 3.3-13.93 6.59-12.78-5.94-27.92-10-15.69s-11.2 16.69-11.2 29.27v44.18a9.57 9.57 0 0 0 2.1 3.57c2.42 2.49 6 2.71 9.18 2.28 1.27-.17 2.53-.42 3.8-.62h18.44a6 6 0 0 0 6-6v-1.12a6 6 0 0 0-2.44-4.8h5a6 6 0 0 0 6-6v-1.12a6 6 0 0 0-2.44-4.79h2c3.29 0 4.79-2.7 4.79-6v-1.13c.08-3.12-1.31-5.69-4.31-5.91Z" transform="translate(-203.8 -103.26)"></path><path fill="#5bc5ff" d="M1431.28 258a5.39 5.39 0 1 1-5.39-5.39 5.39 5.39 0 0 1 5.39 5.39Z" transform="translate(-203.8 -103.26)"></path></g><g><circle cx="1212.04" cy="237.09" r="81.76" fill="#26ade4" transform="rotate(-87.4 1056.148 292.068)"></circle><path fill="#452e63" d="M1212 146.83a90.26 90.26 0 1 0 90.26 90.26 90.36 90.36 0 0 0-90.26-90.26Zm0 163.52a73.26 73.26 0 1 1 73.26-73.26 73.26 73.26 0 0 1-73.26 73.26Z" transform="translate(-203.8 -103.26)"></path><path fill="#ffda65" d="M1224.84 190.84h-1.7c-.57 0-1.1.07-1.65.13a33.83 33.83 0 0 0-27.21 48.15l-6.73 6.73-22.13 22.15 15.32 15.32 22.13-22.13 6.48-6.48a33.75 33.75 0 0 0 13.79 3.72h1.7a33.83 33.83 0 1 0 0-67.65Zm0 56c-.69 0-1.37 0-2-.1l-.68-.08c-.44 0-.88-.12-1.31-.2l-.8-.16c-.38-.08-.75-.19-1.13-.29s-.56-.15-.83-.24-.79-.28-1.18-.43-1-.43-1.56-.67l-.54-.26q-.59-.3-1.14-.63l-.41-.25c-.4-.24-.79-.49-1.17-.76a22.19 22.19 0 0 1 0-36.29c.38-.27.77-.52 1.17-.76l.41-.25q.56-.33 1.14-.63l.54-.26c.51-.24 1-.47 1.56-.67s.78-.31 1.18-.43.56-.16.83-.24.75-.21 1.13-.29l.8-.16c.43-.08.87-.15 1.31-.2l.68-.08c.68-.06 1.36-.1 2-.1a22.22 22.22 0 1 1 0 44.43Z" transform="translate(-203.8 -103.26)"></path></g><g><circle cx="952.96" cy="290.04" r="109.96" fill="#f73e48" transform="rotate(-87.4 797.057 345.025)"></circle><path fill="#452e63" d="M1036.72 206.27a118.47 118.47 0 1 0 34.7 83.77 117.69 117.69 0 0 0-34.7-83.77ZM953 391.5A101.47 101.47 0 1 1 1054.42 290 101.46 101.46 0 0 1 953 391.5Z" transform="translate(-203.8 -103.26)"></path><path fill="#ffda65" d="M921 321.57s-59.75-59.72-14.14-87.66c8.87-3.85 14.14-1.41 14.14-1.41l12.39 32.84s-7.09 10.63-14.16 14.17c.71 10.6 18.73 25.1 18.73 25.1s14.5 18 25.1 18.73c3.53-7.07 14.17-14.16 14.17-14.16l32.84 12.39s2.44 5.27-1.41 14.14C980.75 381.32 921 321.57 921 321.57Zm10.89-39.07v.58a3.56 3.56 0 0 0 3.2 3.51l77.63 4.28c1.78.13 3.53-4.15 3.42-9.48v-1.67c-.18-5.32-2.15-9.45-3.92-9.24l-77.3 8.36a3.53 3.53 0 0 0-3 3.66Zm16.42-34.13c.16.26.31.53.46.79 1.42 2.5 3.74 4 5.37 3.28l23.18-11c1.63-.74 1.51-4.5-.59-8.19l-.66-1.15c-2.15-3.68-5.37-5.69-6.82-4.65l-21.1 14.58c-1.43 1.07-1.26 3.85.19 6.34Zm-5.21 18.21c.07.24.15.48.22.72.68 2.26 2.5 3.85 4.26 3.49l48.91-10.72c1.75-.36 2.4-4.44 1-9-.14-.47-.28-.94-.43-1.41-1.4-4.51-4.22-7.53-5.87-6.85l-46.48 18.49c-1.66.7-2.28 3.03-1.58 5.28Z" transform="translate(-203.8 -103.26)"></path><path fill="#ffd150" d="M953.51 252.61v-14.24l15.77-10.89c1.45-1 4.67 1 6.82 4.65l.66 1.15c2.1 3.69 2.22 7.45.59 8.19l-23.18 11a2.14 2.14 0 0 1-.66.14Zm43 7.46c1.75-.36 2.4-4.44 1-9-.14-.47-.28-.94-.43-1.41-1.4-4.51-4.22-7.53-5.87-6.85l-37.75 15v11.69Zm15.7 10.41-58.71 6.35v10.78l59.25 3.26c1.78.13 3.53-4.16 3.42-9.48v-1.67c-.17-5.32-2.17-9.45-3.95-9.24Zm-3.53 65.23c3.85-8.87 1.41-14.14 1.41-14.14l-32.85-12.39s-10.63 7.09-14.16 14.16c-3-.2-6.35-1.83-9.58-4v26c18.61 9.51 41 13.54 55.19-9.63Z" transform="translate(-203.8 -103.26)"></path></g><g><path fill="#ffda65" d="M675.23 539.69c-1.56 0-3.16 0-4.73-.1a114.77 114.77 0 0 1 4.58-229.45c1.57 0 3.16 0 4.73.1a114.77 114.77 0 0 1-4.58 229.45Z" transform="translate(-203.8 -103.26)"></path><path fill="#452e63" d="M765.79 341.35a122.52 122.52 0 0 0-85.63-39.61c-1.69-.07-3.39-.1-5.07-.1a123.28 123.28 0 0 0-4.93 246.45c1.68.06 3.39.1 5.07.1a123.28 123.28 0 0 0 90.56-206.84Zm15.55 87.87a106.27 106.27 0 0 1-106.11 102q-2.18 0-4.38-.09a106.27 106.27 0 0 1 4.23-212.46c1.46 0 2.92 0 4.39.09a106.26 106.26 0 0 1 101.87 110.46Z" transform="translate(-203.8 -103.26)"></path><path fill="#26ade4" d="M752.12 443.29v31.62a7 7 0 0 1-3.1 5.81 6.92 6.92 0 0 1-3.91 1.2h-139.9a7 7 0 0 1-7-7v-31.63a7 7 0 1 1 14 0v24.61H738.1v-24.61a7 7 0 1 1 14 0ZM672 455.59a7.24 7.24 0 0 0 10.21 0l43.08-27.5a7.24 7.24 0 0 0 0-10.21c-2.81-2.81-25.39-1-25.39-1l5-59.06c0-4-58.7-5.27-58.7-1.3l7.92 60.36s-22.58-1.82-25.39 1a7.26 7.26 0 0 0 0 10.21Z" transform="translate(-203.8 -103.26)"></path><path fill="#189bc4" d="M745.11 436.28a7 7 0 0 0-7 7v24.62h-62.95v14h70a6.92 6.92 0 0 0 3.91-1.2 7 7 0 0 0 3.1-5.81v-31.6a7 7 0 0 0-7.06-7.01ZM682.2 455.59l43.08-27.5a7.24 7.24 0 0 0 0-10.21c-2.81-2.81-25.39-1-25.39-1l5-59.06c0-4-29.73-3.65-29.73-3.65v103.24a7.22 7.22 0 0 0 7.04-1.82Z" transform="translate(-203.8 -103.26)"></path></g><g><circle cx="259.07" cy="490.88" r="95.58" fill="#6557b2"></circle><path fill="#452e63" d="M462.87 490.07A104.08 104.08 0 1 0 567 594.14a104.2 104.2 0 0 0-104.13-104.07Zm0 191.15A87.08 87.08 0 1 1 550 594.14a87.08 87.08 0 0 1-87.13 87.08Z" transform="translate(-203.8 -103.26)"></path><path fill="#26ade4" d="M521.82 592.22c-.52-.83-1.06-1.64-1.61-2.45a69.5 69.5 0 0 0-4.92-6.39 2.2 2.2 0 0 0-.2-.23 69.18 69.18 0 0 0-52.22-23.74 69.41 69.41 0 0 0-60.11 34.73 69.4 69.4 0 0 0 60.11 34.74 69.23 69.23 0 0 0 53.74-25.53q1.41-1.74 2.72-3.55t2.49-3.73c.4-.64.78-1.28 1.16-1.93-.38-.64-.76-1.29-1.16-1.92Zm-76.32 1.92a17.37 17.37 0 1 1 17.37 17.37 17.37 17.37 0 0 1-17.37-17.37Z" transform="translate(-203.8 -103.26)"></path></g><g><circle cx="296.28" cy="864.61" r="83.97" fill="#26ade4" transform="rotate(-74.29 126.162 947.464)"></circle><path fill="#452e63" d="M296.28 772.14a92.48 92.48 0 1 0 92.47 92.47 92.58 92.58 0 0 0-92.47-92.47Zm0 168a75.48 75.48 0 1 1 75.47-75.48 75.48 75.48 0 0 1-75.47 75.43Z" transform="translate(-203.8 -103.26)"></path><rect width="108.4" height="83.03" x="35.78" y="718.64" fill="#ff494b" rx="20.42"></rect><path fill="#fff" d="M293.78 836.31a27.1 27.1 0 1 0 27.1 27.1 27.1 27.1 0 0 0-27.1-27.1Zm-8.88 40.15v-26.1l26.1 13Z" transform="translate(-203.8 -103.26)"></path><path fill="#f73e48" d="M334.43 821.9h-41.12v83h41.12A13.59 13.59 0 0 0 348 891.38v-55.93a13.59 13.59 0 0 0-13.57-13.55Z" transform="translate(-203.8 -103.26)"></path><path fill="#f1f2f2" d="M293.78 836.31h-.47v18.23l17.69 8.87-17.69 8.85v18.23h.47a27.1 27.1 0 0 0 0-54.2Z" transform="translate(-203.8 -103.26)"></path></g><g><circle cx="340" cy="1063.99" r="66.55" fill="#3abb78" transform="rotate(-45 113.452 1258.366)"></circle><path fill="#452e63" d="M340.27 988.94H340a75.05 75.05 0 0 0-.27 150.1h.27a75.05 75.05 0 0 0 .26-150.1ZM340 1122h-.22a58.05 58.05 0 0 1 .21-116.1h.21a58.05 58.05 0 0 1-.2 116.1Z" transform="translate(-203.8 -103.26)"></path><path fill="#ffda65" d="m104.78 935.91 24.75 32.06h.26l3.33 38.01 3.45-1.65.24-68.3-32.03-.12z"></path><path fill="#f9cc4e" d="m136.81 936.03-.24 68.3 5.5-2.63 2.85-33.68h.24l23.55-31.88-31.9-.11z"></path></g></svg>