<svg xmlns="http://www.w3.org/2000/svg" enable-background="new 0 0 198 108" viewBox="0 0 198 108" id="coding-project"><path fill="#fefad7" d="M121.9 35.4c.7.1 1.3.7 1.5 1.4.2.5.3.9.6 1.4.3.6.3 1.4-.1 2l-.5.8c-.3.5-.3 1.1.2 1.5.4.4 1.1.5 1.5.2l.8-.5c.6-.4 1.4-.4 2-.1.4.2.9.4 1.4.6.7.2 1.2.8 1.4 1.5l.2.9c.1.6.6 1 1.2 1s1.1-.4 1.2-1l.2-.9c.1-.7.7-1.3 1.4-1.5.5-.2.9-.3 1.4-.6.6-.3 1.4-.3 2 .1l.8.5c.5.3 1.1.3 1.5-.2.4-.4.5-1.1.2-1.5l-.5-.8c-.4-.6-.4-1.4-.1-2 .2-.4.4-.9.6-1.4.2-.7.8-1.2 1.5-1.4l.9-.2c.6-.1 1-.6 1-1.2s-.4-1.1-1-1.2l-.9-.2c-.7-.1-1.3-.7-1.5-1.4-.2-.5-.3-.9-.6-1.4-.3-.6-.3-1.4.1-2l.5-.8c.3-.5.3-1.1-.2-1.5-.4-.4-1.1-.5-1.5-.2l-.8.5c-.6.4-1.4.4-2 .1-.4-.2-.9-.4-1.4-.6-.7-.2-1.2-.8-1.4-1.5l-.2-.9c-.1-.6-.6-1-1.2-1s-1.1.4-1.2 1l-.2.9c-.1.7-.7 1.3-1.4 1.5-.5.2-.9.3-1.4.6-.6.3-1.4.3-2-.1l-.8-.5c-.5-.3-1.1-.3-1.5.2-.4.4-.5 1.1-.2 1.5l.5.8c.4.6.4 1.4.1 2-.2.4-.4.9-.6 1.4-.2.7-.8 1.2-1.5 1.4l-.9.2c-.6.1-1 .6-1 1.2s.4 1.1 1 1.2l.9.2zM132 29c2.8 0 5 2.2 5 5s-2.2 5-5 5-5-2.2-5-5 2.2-5 5-5z"></path><path fill="#a7b0c4" d="M132 47c-1.1 0-2-.8-2.2-1.8l-.2-.9c-.1-.4-.3-.6-.7-.7l-1.5-.6c-.3-.2-.7-.2-1 0l-.8.5c-.9.6-2.1.5-2.8-.3-.7-.7-.9-1.9-.3-2.8l.5-.8c.2-.3.2-.7 0-1-.3-.5-.5-1-.6-1.5-.1-.3-.4-.6-.7-.7l-.9-.2c-1-.2-1.8-1.1-1.8-2.2s.8-2 1.8-2.2l.9-.2c.4-.1.6-.3.7-.7l.6-1.5c.2-.3.2-.7 0-1l-.5-.8c-.6-.9-.5-2.1.3-2.8.7-.7 1.9-.9 2.8-.3l.8.5c.3.2.7.2 1 0 .5-.3 1-.5 1.5-.6.3-.1.6-.4.7-.7l.2-.9c.2-1 1.1-1.8 2.2-1.8s2 .8 2.2 1.8l.2.9c.1.4.3.6.7.7l1.5.6c.3.2.7.2 1 0l.8-.5c.9-.6 2.1-.5 2.8.3.7.7.9 1.9.3 2.8l-.5.8c-.2.3-.2.7 0 1 .3.5.5 1 .6 1.5.1.3.4.6.7.7l.9.2c1 .2 1.8 1.1 1.8 2.2s-.8 2-1.8 2.2l-.9.2c-.4.1-.6.3-.7.7l-.6 1.5c-.2.3-.2.7 0 1l.5.8c.6.9.5 2.1-.3 2.8-.7.7-1.9.9-2.8.3l-.8-.5c-.3-.2-.7-.2-1 0-.5.3-1 .5-1.5.6-.3.1-.6.4-.7.7l-.2.9c-.2 1-1.1 1.8-2.2 1.8zm-5-6.2c.5 0 .9.1 1.4.3.4.2.8.4 1.2.5 1 .3 1.8 1.2 2 2.3l.2.9c0 .2.4.2.4 0l.2-.9c.2-1.1 1-1.9 2-2.3.4-.1.8-.3 1.2-.5 1-.5 2.1-.4 3 .2l.8.5c.1.1.2 0 .3 0 .1-.1.1-.2 0-.3l-.5-.8c-.6-.9-.7-2.1-.2-3 .2-.4.4-.8.5-1.2.3-1 1.2-1.8 2.3-2l.9-.2c.1 0 .2-.1.2-.2s-.1-.2-.2-.2l-.9-.2c-1.1-.2-1.9-1-2.3-2-.1-.4-.3-.8-.5-1.2-.5-1-.4-2.1.2-3l.5-.8c.1-.1 0-.2 0-.3-.1-.1-.2-.1-.3 0l-.8.5c-.9.6-2.1.7-3 .2-.4-.2-.8-.4-1.2-.5-1-.3-1.8-1.2-2-2.3l-.2-.9c0-.2-.4-.2-.4 0l-.2.9c-.2 1.1-1 1.9-2 2.3-.4.1-.8.3-1.2.5-1 .5-2.1.4-3-.2l-.8-.5c-.1-.1-.2 0-.3 0-.1.1-.1.2 0 .3l.5.8c.6.9.7 2.1.2 3-.2.4-.4.8-.5 1.2-.3 1-1.2 1.8-2.3 2l-.9.2c-.1 0-.2.1-.2.2s.1.2.2.2l.9.2c1.1.2 1.9 1 2.3 2 .1.4.3.8.5 1.2.5 1 .4 2.1-.2 3l-.5.8c-.1.1 0 .2 0 .3.1.1.2.1.3 0l.8-.5c.4-.4 1-.5 1.6-.5zm5-.8c-3.3 0-6-2.7-6-6s2.7-6 6-6 6 2.7 6 6-2.7 6-6 6zm0-10c-2.2 0-4 1.8-4 4s1.8 4 4 4 4-1.8 4-4-1.8-4-4-4z"></path><path fill="#feeca8" d="m142.8 33.8-.9-.2c-1.1-.2-1.9-1-2.3-2.1-.1-.4-.3-.8-.5-1.2-.5-1-.4-2.1.2-3l.5-.8c.1-.1 0-.2 0-.3l-2.2 2.2c-.4.4-.4.9-.1 1.3 1.2 1.5 1.7 3.5 1.3 5.7-.5 2.8-2.7 5-5.5 5.5-2.1.4-4.2-.2-5.7-1.3-.4-.3-1-.3-1.3.1l-2.2 2.2c.1.1.2.1.3 0l.8-.5c.5-.3 1.1-.5 1.7-.5.5 0 .9.1 1.4.3.4.2.8.4 1.2.5 1.1.3 1.9 1.2 2.1 2.3l.2.9c0 .2.4.2.4 0l.2-.9c.2-1.1 1-1.9 2.1-2.3.4-.1.8-.3 1.2-.5 1-.5 2.1-.4 3 .2l.8.5c.1.1.2 0 .3 0 .1-.1.1-.2 0-.3l-.5-.8c-.6-.9-.7-2.1-.2-3 .2-.4.4-.8.5-1.2.3-1.1 1.2-1.9 2.3-2.1l.9-.2c.1 0 .2-.1.2-.2s-.1-.3-.2-.3z"></path><path fill="#feeca8" d="M126 34c0-3.3 2.7-6 6-6 1.7 0 3.2.7 4.2 1.8 0 0 .8-.8-.2-1.5-1.1-.8-2.5-1.3-4-1.3-3.9 0-7 3.1-7 7 0 1.5.4 2.9 1.3 4 .7 1 1.5.2 1.5.2-1.1-1-1.8-2.5-1.8-4.2z"></path><path fill="#fee279" d="M81 16H62v-1h-5c-.6 0-1 .4-1 1s.4 1 1 1h1c.6 0 1 .4 1 1s-.4 1-1 1h-4c-.6 0-1 .4-1 1s.4 1 1 1h2c.6 0 1 .4 1 1s-.4 1-1 1-1 .4-1 1 .4 1 1 1h6v-1h19c.6 0 1-.4 1-1v-6c0-.6-.4-1-1-1z"></path><circle cx="191" cy="92" r="1" fill="#ea9344"></circle><circle cx="189" cy="101" r="1" fill="#ea9344"></circle><circle cx="108" cy="28" r="1" fill="#ffcb5d"></circle><circle cx="16" cy="35" r="1" fill="#ffcb5d"></circle><circle cx="8" cy="65" r="1" fill="#ffcb5d"></circle><circle cx="39" cy="101" r="1" fill="#ffcb5d"></circle><circle cx="114" cy="11" r="1" fill="#ffcb5d"></circle><circle cx="163" cy="20" r="1" fill="#ffcb5d"></circle><circle cx="189" cy="47" r="1" fill="#f16b56"></circle><circle cx="179" cy="97" r="1" fill="#f16b56"></circle><circle cx="49" cy="32" r="1" fill="#f16b56"></circle><circle cx="127" cy="10" r="1" fill="#f16b56"></circle><circle cx="112" cy="36" r="1" fill="#f16b56"></circle><circle cx="16" cy="53" r="1" fill="#f16b56"></circle><circle cx="49" cy="96" r="1" fill="#f16b56"></circle><path fill="#f6b545" d="M119 22c-1.7 0-3-1.3-3-3s1.3-3 3-3 3 1.3 3 3-1.3 3-3 3zm0-4c-.6 0-1 .4-1 1s.4 1 1 1 1-.4 1-1-.4-1-1-1zM67 11c-1.7 0-3-1.3-3-3s1.3-3 3-3 3 1.3 3 3-1.3 3-3 3zm0-4c-.6 0-1 .4-1 1s.4 1 1 1 1-.4 1-1-.4-1-1-1z"></path><path fill="#f7964b" d="M35 35c-1.7 0-3-1.3-3-3s1.3-3 3-3 3 1.3 3 3-1.3 3-3 3zm0-4c-.6 0-1 .4-1 1s.4 1 1 1 1-.4 1-1-.4-1-1-1zM183 29c-1.7 0-3-1.3-3-3s1.3-3 3-3 3 1.3 3 3-1.3 3-3 3zm0-4c-.6 0-1 .4-1 1s.4 1 1 1 1-.4 1-1-.4-1-1-1zM151 101c-1.7 0-3-1.3-3-3s1.3-3 3-3 3 1.3 3 3-1.3 3-3 3zm0-4c-.6 0-1 .4-1 1s.4 1 1 1 1-.4 1-1-.4-1-1-1z"></path><path fill="#f16b56" d="M105 11c-1.7 0-3-1.3-3-3s1.3-3 3-3 3 1.3 3 3-1.3 3-3 3zm0-4c-.6 0-1 .4-1 1s.4 1 1 1 1-.4 1-1-.4-1-1-1z"></path><path fill="#f6b545" d="m164.9 33.5.8-.8c.4-.4.4-1 0-1.4s-1-.4-1.4 0l-.8.8-.8-.8c-.4-.4-1-.4-1.4 0s-.4 1 0 1.4l.8.8-.8.8c-.4.4-.4 1 0 1.4.2.2.5.3.7.3s.5-.1.7-.3l.8-.8.8.8c.2.2.5.3.7.3s.5-.1.7-.3c.4-.4.4-1 0-1.4l-.8-.8z"></path><path fill="#f16b56" d="m148.9 15.5.8-.8c.4-.4.4-1 0-1.4s-1-.4-1.4 0l-.8.8-.8-.8c-.4-.4-1-.4-1.4 0s-.4 1 0 1.4l.8.8-.8.8c-.4.4-.4 1 0 1.4.2.2.5.3.7.3s.5-.1.7-.3l.8-.8.8.8c.2.2.5.3.7.3s.5-.1.7-.3c.4-.4.4-1 0-1.4l-.8-.8z"></path><path fill="#f6b545" d="m85.9 2.5.8-.8c.4-.4.4-1 0-1.4s-1-.4-1.4 0l-.8.8-.8-.8c-.4-.4-1-.4-1.4 0s-.4 1 0 1.4l.8.8-.8.8c-.4.4-.4 1 0 1.4.2.2.4.3.7.3s.5-.1.7-.3l.8-.8.8.8c.2.2.4.3.7.3s.5-.1.7-.3c.4-.4.4-1 0-1.4l-.8-.8zM29.9 97.5l.8-.8c.4-.4.4-1 0-1.4s-1-.4-1.4 0l-.8.8-.8-.8c-.4-.4-1-.4-1.4 0s-.4 1 0 1.4l.8.8-.8.8c-.4.4-.4 1 0 1.4.2.2.5.3.7.3s.5-.1.7-.3l.8-.8.8.8c.2.2.5.3.7.3s.5-.1.7-.3c.4-.4.4-1 0-1.4l-.8-.8z"></path><path fill="#f7964b" d="m44.9 16.5.8-.8c.4-.4.4-1 0-1.4s-1-.4-1.4 0l-.8.8-.8-.8c-.4-.4-1-.4-1.4 0s-.4 1 0 1.4l.8.8-.8.8c-.4.4-.4 1 0 1.4.2.2.5.3.7.3s.5-.1.7-.3l.8-.8.8.8c.2.2.5.3.7.3s.5-.1.7-.3c.4-.4.4-1 0-1.4l-.8-.8z"></path><path fill="#0f395a" d="M184 108H14c-.6 0-1-.4-1-1s.4-1 1-1h170c.6 0 1 .4 1 1s-.4 1-1 1z"></path><circle cx="197" cy="107" r="1" fill="#0f395a"></circle><path fill="#0f395a" d="M193 108h-5c-.6 0-1-.4-1-1s.4-1 1-1h5c.6 0 1 .4 1 1s-.4 1-1 1z"></path><circle cx="1" cy="107" r="1" fill="#0f395a"></circle><path fill="#0f395a" d="M10 108H5c-.6 0-1-.4-1-1s.4-1 1-1h5c.6 0 1 .4 1 1s-.4 1-1 1z"></path><path fill="#d3e2eb" d="M128 107H70c-1.7 0-3-1.3-3-3V62c0-1.7 1.3-3 3-3h58c1.7 0 3 1.3 3 3v42c0 1.7-1.3 3-3 3z"></path><path fill="#0f395a" d="M128 108H70c-2.2 0-4-1.8-4-4V62c0-2.2 1.8-4 4-4h58c2.2 0 4 1.8 4 4v42c0 2.2-1.8 4-4 4zM70 60c-1.1 0-2 .9-2 2v42c0 1.1.9 2 2 2h58c1.1 0 2-.9 2-2V62c0-1.1-.9-2-2-2H70z"></path><path fill="#3e5560" d="M73 65h52v30H73z"></path><path fill="#0f395a" d="M126 97H72c-.6 0-1-.4-1-1V64c0-.6.4-1 1-1h54c.6 0 1 .4 1 1v32c0 .6-.4 1-1 1zm-53-2h52V65H73v30z"></path><path fill="#d3e2eb" d="M104 101c0 1.1-.9 2-2 2h-6c-1.1 0-2-.9-2-2H62v3c0 1.7 1.3 3 3 3h68c1.7 0 3-1.3 3-3v-3h-32z"></path><circle cx="99" cy="99" r="1" fill="#0f395a"></circle><path fill="#fff" d="M73 65h13v30H73z"></path><path fill="#577280" d="M80 70h-4c-.6 0-1-.4-1-1s.4-1 1-1h4c.6 0 1 .4 1 1s-.4 1-1 1z"></path><path fill="#fff" d="M94 70h-4c-.6 0-1-.4-1-1s.4-1 1-1h4c.6 0 1 .4 1 1s-.4 1-1 1zM94 80h-4c-.6 0-1-.4-1-1s.4-1 1-1h4c.6 0 1 .4 1 1s-.4 1-1 1zM105 73h-3c-.6 0-1-.4-1-1s.4-1 1-1h3c.6 0 1 .4 1 1s-.4 1-1 1zM114 83h-3c-.6 0-1-.4-1-1s.4-1 1-1h3c.6 0 1 .4 1 1s-.4 1-1 1zM95 92h-3c-.6 0-1-.4-1-1s.4-1 1-1h3c.6 0 1 .4 1 1s-.4 1-1 1z"></path><path fill="#f04d4e" d="M107 76h-3c-.6 0-1-.4-1-1s.4-1 1-1h3c.6 0 1 .4 1 1s-.4 1-1 1zM107 86h-3c-.6 0-1-.4-1-1s.4-1 1-1h3c.6 0 1 .4 1 1s-.4 1-1 1z"></path><path fill="#fff" d="M112 73h-4c-.6 0-1-.4-1-1s.4-1 1-1h4c.6 0 1 .4 1 1s-.4 1-1 1z"></path><path fill="#577280" d="M80 80h-4c-.6 0-1-.4-1-1s.4-1 1-1h4c.6 0 1 .4 1 1s-.4 1-1 1zM82 73h-4c-.6 0-1-.4-1-1s.4-1 1-1h4c.6 0 1 .4 1 1s-.4 1-1 1z"></path><path fill="#ffcb5d" d="M99 73h-7c-.6 0-1-.4-1-1s.4-1 1-1h7c.6 0 1 .4 1 1s-.4 1-1 1zM105 92h-7c-.6 0-1-.4-1-1s.4-1 1-1h7c.6 0 1 .4 1 1s-.4 1-1 1z"></path><path fill="#f04d4e" d="M99 89h-7c-.6 0-1-.4-1-1s.4-1 1-1h7c.6 0 1 .4 1 1s-.4 1-1 1z"></path><path fill="#ffcb5d" d="M96 83h-4c-.6 0-1-.4-1-1s.4-1 1-1h4c.6 0 1 .4 1 1s-.4 1-1 1z"></path><path fill="#fff" d="M101 76h-9c-.6 0-1-.4-1-1s.4-1 1-1h9c.6 0 1 .4 1 1s-.4 1-1 1zM108 83h-9c-.6 0-1-.4-1-1s.4-1 1-1h9c.6 0 1 .4 1 1s-.4 1-1 1zM101 86h-9c-.6 0-1-.4-1-1s.4-1 1-1h9c.6 0 1 .4 1 1s-.4 1-1 1z"></path><path fill="#577280" d="M81 76h-3c-.6 0-1-.4-1-1s.4-1 1-1h3c.6 0 1 .4 1 1s-.4 1-1 1zM83 83h-5c-.6 0-1-.4-1-1s.4-1 1-1h5c.6 0 1 .4 1 1s-.4 1-1 1zM80 86h-2c-.6 0-1-.4-1-1s.4-1 1-1h2c.6 0 1 .4 1 1s-.4 1-1 1zM82 89h-4c-.6 0-1-.4-1-1s.4-1 1-1h4c.6 0 1 .4 1 1s-.4 1-1 1z"></path><path fill="#fff" d="M110 89h-8c-.6 0-1-.4-1-1s.4-1 1-1h8c.6 0 1 .4 1 1s-.4 1-1 1z"></path><path fill="#577280" d="M81 92h-3c-.6 0-1-.4-1-1s.4-1 1-1h3c.6 0 1 .4 1 1s-.4 1-1 1z"></path><path fill="#afc3d7" d="M65 106h68c1.1 0 2-.9 2-2H63c0 1.1.9 2 2 2zM129 60.3V100h1V62c0-.7-.4-1.4-1-1.7z"></path><path fill="#cddae4" d="M73 65h13v1H73z"></path><path fill="#384c54" d="M86 65h39v1H86z"></path><path fill="#0f395a" d="M136 100H62c-.6 0-1 .4-1 1v3c0 2.2 1.8 4 4 4h68c2.2 0 4-1.8 4-4v-3c0-.6-.4-1-1-1zm-1 4c0 1.1-.9 2-2 2H65c-1.1 0-2-.9-2-2v-2h30.2c.4 1.2 1.5 2 2.8 2h6c1.3 0 2.4-.8 2.8-2H135v2z"></path><path fill="#d3e2eb" d="M154 41c-.4 0-.8 0-1.1.1.1-.4.1-.7.1-1.1 0-2.8-2.2-5-5-5-2.3 0-4.1 1.5-4.8 3.6-.7-.3-1.4-.6-2.2-.6-2.8 0-5 2.2-5 5v.1c-.3-.1-.7-.1-1-.1-2.8 0-5 2.2-5 5s2.2 5 5 5h19c3.3 0 6-2.7 6-6s-2.7-6-6-6z"></path><path fill="#0f395a" d="M154 54h-19c-3.3 0-6-2.7-6-6s2.7-6.1 6.1-6c.5-2.8 2.9-5 5.9-5 .6 0 1.1.1 1.7.3 1-2 3-3.3 5.3-3.3 3.3 0 6 2.7 6 6 3.9 0 7 3.1 7 7s-3.1 7-7 7zm-19-10c-2.2 0-4 1.8-4 4s1.8 4 4 4h19c2.8 0 5-2.2 5-5 0-3.1-2.7-5.5-5.9-4.9-.3.1-.7 0-.9-.3s-.3-.6-.3-.9c.1-.3.1-.6.1-.9 0-2.2-1.8-4-4-4-1.8 0-3.3 1.1-3.8 2.8-.1.3-.3.5-.6.6-.3.1-.6.1-.8 0-.6-.3-1.2-.4-1.8-.4-2.2 0-4 1.8-4 3.9v.1c0 .3-.1.6-.4.8-.2.2-.5.3-.8.2h-.8z"></path><path fill="#afc3d7" d="M157 43c.6.8 1 1.9 1 3 0 2.8-2.2 5-5 5h-20.7c.7.6 1.6 1 2.6 1h19c2.8 0 5-2.2 5-5 .1-1.6-.7-3.1-1.9-4z"></path><path fill="#0f395a" d="M160 48c-.6 0-1-.4-1-1 0-2.8-2.2-5-5-5-1.7 0-3.2.8-4.2 2.2-.3.5-.9.6-1.4.3-.5-.3-.6-.9-.3-1.4 1.3-2 3.5-3.1 5.8-3.1 3.9 0 7 3.1 7 7 .1.6-.3 1-.9 1zM145.6 42c-.4 0-.8-.2-.9-.6-.6-1.5-2.1-2.4-3.7-2.4-.6 0-1-.4-1-1s.4-1 1-1c2.4 0 4.5 1.4 5.5 3.6.2.5 0 1.1-.5 1.3-.1.1-.3.1-.4.1zM139.6 47c-.4 0-.8-.2-.9-.6-.6-1.5-2.1-2.4-3.7-2.4-.6 0-1-.4-1-1s.4-1 1-1c2.4 0 4.5 1.4 5.5 3.6.2.5 0 1.1-.5 1.3-.1.1-.3.1-.4.1zM148 54c-2.2 0-4-1.8-4-4 0-.6.4-1 1-1s1 .4 1 1c0 1.1.9 2 2 2 .6 0 1 .4 1 1s-.4 1-1 1z"></path><path fill="#cad5e3" d="M143 73h-8c-.6 0-1-.4-1-1s.4-1 1-1h8c.6 0 1-.4 1-1V56c0-.6.4-1 1-1s1 .4 1 1v14c0 1.7-1.3 3-3 3z"></path><path fill="#cad5e3" d="M141 69h-6c-.6 0-1-.4-1-1s.4-1 1-1h5V57h-1c-.6 0-1-.4-1-1s.4-1 1-1h2c.6 0 1 .4 1 1v12c0 .6-.4 1-1 1z"></path><path fill="#cad5e3" d="M144 77h-9c-.6 0-1-.4-1-1s.4-1 1-1h9c2.2 0 4-1.8 4-4V56c0-.6.4-1 1-1h2c.6 0 1 .4 1 1s-.4 1-1 1h-1v14c0 3.3-2.7 6-6 6z"></path><path fill="#fff" d="M54 70H26c-1.1 0-2-.9-2-2V46c0-1.1.9-2 2-2h28c1.1 0 2 .9 2 2v22c0 1.1-.9 2-2 2z"></path><path fill="#a7b0c4" d="M54 71H26c-1.7 0-3-1.3-3-3V46c0-1.7 1.3-3 3-3h28c1.7 0 3 1.3 3 3v22c0 1.7-1.3 3-3 3zM26 45c-.6 0-1 .4-1 1v22c0 .6.4 1 1 1h28c.6 0 1-.4 1-1V46c0-.6-.4-1-1-1H26z"></path><path fill="#d3e2eb" d="M56 50H24v-4c0-1.1.9-2 2-2h28c1.1 0 2 .9 2 2v4z"></path><path fill="#a7b0c4" d="M56 51H24c-.6 0-1-.4-1-1v-4c0-1.7 1.3-3 3-3h28c1.7 0 3 1.3 3 3v4c0 .6-.4 1-1 1zm-31-2h30v-3c0-.6-.4-1-1-1H26c-.6 0-1 .4-1 1v3z"></path><path fill="#fff" d="M60 75H32c-1.1 0-2-.9-2-2V51c0-1.1.9-2 2-2h28c1.1 0 2 .9 2 2v22c0 1.1-.9 2-2 2z"></path><path fill="#0f395a" d="M60 76H32c-1.7 0-3-1.3-3-3V51c0-1.7 1.3-3 3-3h28c1.7 0 3 1.3 3 3v22c0 1.7-1.3 3-3 3zM32 50c-.6 0-1 .4-1 1v22c0 .6.4 1 1 1h28c.6 0 1-.4 1-1V51c0-.6-.4-1-1-1H32z"></path><path fill="#d3e2eb" d="M62 55H30v-4c0-1.1.9-2 2-2h28c1.1 0 2 .9 2 2v4z"></path><path fill="#0f395a" d="M62 56H30c-.6 0-1-.4-1-1v-4c0-1.7 1.3-3 3-3h28c1.7 0 3 1.3 3 3v4c0 .6-.4 1-1 1zm-31-2h30v-3c0-.6-.4-1-1-1H32c-.6 0-1 .4-1 1v3zM41 69c-.3 0-.5-.1-.7-.3l-3-3c-.4-.4-.4-1 0-1.4l3-3c.4-.4 1-.4 1.4 0s.4 1 0 1.4L39.4 65l2.3 2.3c.4.4.4 1 0 1.4-.2.2-.4.3-.7.3zM51 69c-.3 0-.5-.1-.7-.3-.4-.4-.4-1 0-1.4l2.3-2.3-2.3-2.3c-.4-.4-.4-1 0-1.4s1-.4 1.4 0l3 3c.4.4.4 1 0 1.4l-3 3c-.2.2-.4.3-.7.3z"></path><circle cx="33" cy="52" r="1" fill="#0f395a"></circle><circle cx="36" cy="52" r="1" fill="#0f395a"></circle><circle cx="39" cy="52" r="1" fill="#0f395a"></circle><circle cx="27" cy="47" r="1" fill="#a7b0c4"></circle><circle cx="30" cy="47" r="1" fill="#a7b0c4"></circle><circle cx="33" cy="47" r="1" fill="#a7b0c4"></circle><path fill="#0f395a" d="M44 70c-.1 0-.3 0-.4-.1-.5-.2-.7-.8-.4-1.3l4-8c.2-.5.8-.7 1.3-.4.5.2.7.8.4 1.3l-4 8c-.2.3-.5.5-.9.5z"></path><path fill="#f6b545" d="M61 34c-1.1 0-2 .9-2 2v16l2.9-2.2c.7-.5 1.5-.8 2.4-.8H81c1.1 0 2-.9 2-2V36c0-1.1-.9-2-2-2H61z"></path><path fill="#0f395a" d="M59 53c-.2 0-.3 0-.4-.1-.4-.2-.6-.5-.6-.9V36c0-1.7 1.3-3 3-3h20c1.7 0 3 1.3 3 3v11c0 1.7-1.3 3-3 3H64.3c-.6 0-1.3.2-1.8.6l-2.9 2.2c-.2.1-.4.2-.6.2zm2-18c-.6 0-1 .4-1 1v14l1.3-1c.9-.6 1.9-1 3-1H81c.6 0 1-.4 1-1V36c0-.6-.4-1-1-1H61z"></path><path fill="#0f395a" d="M63.4 41.2c0-1.5 1-2.9 2.8-2.9.7 0 1.2.2 1.8.7.2.2.2.6 0 .8-.2.2-.5.2-.7 0-.3-.3-.7-.4-1.1-.4-1.2 0-1.8.9-1.8 1.8 0 1 .6 1.9 1.8 1.9.5 0 .9-.2 1.2-.5.2-.2.6-.1.7.1.1.2.2.5-.1.8-.6.5-1.2.6-1.9.6-1.9 0-2.7-1.4-2.7-2.9zM69.1 39.7c.2-1.6 2.5-1.8 3.6-1 .5.4 0 1.1-.5.8-.6-.4-1.9-.6-2.1.3-.2 1.3 3.3.6 3.2 2.7-.1 2-3 2.1-4.1 1.2-.2-.3-.2-.7-.1-.9.2-.2.4-.3.7-.1.7.4 2.3.8 2.5-.4-.1-1.1-3.5-.4-3.2-2.6zM74.1 39.7c.2-1.6 2.5-1.8 3.6-1 .5.4 0 1.1-.5.8-.6-.4-1.9-.6-2.1.3-.2 1.3 3.3.6 3.2 2.7-.1 2-3 2.1-4.1 1.2-.2-.3-.2-.7 0-.9.2-.2.4-.3.7-.1.7.4 2.3.8 2.5-.4-.2-1.1-3.5-.4-3.3-2.6z"></path><path fill="#f48576" d="M36 90c1.1 0 2-.9 2-2V72l-2.9 2.2c-.7.5-1.5.8-2.4.8H12c-1.1 0-2 .9-2 2v11c0 1.1.9 2 2 2h24z"></path><path fill="#0f395a" d="M36 91H12c-1.7 0-3-1.3-3-3V77c0-1.7 1.3-3 3-3h20.7c.6 0 1.3-.2 1.8-.6l2.9-2.2c.3-.2.7-.3 1-.1.3.2.6.5.6.9v16c0 1.7-1.3 3-3 3zM12 76c-.6 0-1 .4-1 1v11c0 .6.4 1 1 1h24c.6 0 1-.4 1-1V74l-1.3 1c-.9.6-1.9 1-3 1H12z"></path><path fill="#0f395a" d="M13.6 84.5V80c0-.3.2-.5.6-.5.3 0 .5.2.5.5v1.7h2.6V80c0-.3.3-.5.5-.5.3 0 .5.2.5.5v4.5c0 .3-.2.5-.5.5s-.5-.2-.5-.5v-1.8h-2.6v1.8c0 .3-.2.5-.5.5-.4 0-.6-.2-.6-.5zM20.9 80.5h-1.4c-.7 0-.7-1 0-1h3.8c.7 0 .7 1 0 1H22v4c0 .7-1.1.7-1.1 0v-4zM25.6 81.5v3c0 .4-.3.6-.6.6s-.5-.2-.5-.6V80c0-.4.4-.6.5-.6.2 0 .4.1.5.3l1.8 2.4 1.8-2.5c.3-.3.9-.2.9.4v4.5c0 .4-.2.6-.5.6s-.5-.2-.5-.6v-3l-1.3 1.7c-.3.4-.6.4-.9 0l-1.2-1.7zM31.2 79.9c0-.3.2-.5.5-.5s.5.2.5.5v4h2.2c.8 0 .8 1 0 1h-2.6c-.3 0-.5-.2-.5-.5v-4.5zM63 85H48c-1.7 0-3-1.3-3-3v-3c0-.6.4-1 1-1s1 .4 1 1v3c0 .6.4 1 1 1h15c.6 0 1 .4 1 1s-.4 1-1 1z"></path><path fill="#add7f3" d="M164 96c-2.8 0-5-2.2-5-5v-6c0-2.8 2.2-5 5-5s5 2.2 5 5v6c0 2.8-2.2 5-5 5z"></path><path fill="#0f395a" d="M164 97c-3.3 0-6-2.7-6-6v-6c0-3.3 2.7-6 6-6s6 2.7 6 6v6c0 3.3-2.7 6-6 6zm0-16c-2.2 0-4 1.8-4 4v6c0 2.2 1.8 4 4 4s4-1.8 4-4v-6c0-2.2-1.8-4-4-4z"></path><path fill="#72b7e5" d="M167 82.4V90c0 2.2-1.8 4-4 4-.8 0-1.6-.3-2.3-.7.7 1 1.9 1.7 3.3 1.7 2.2 0 4-1.8 4-4v-6c0-1-.4-1.9-1-2.6z"></path><circle cx="164" cy="85" r="1" fill="#0f395a"></circle><path fill="#0f395a" d="M149 92h-14c-.6 0-1-.4-1-1s.4-1 1-1h14c1.7 0 3-1.3 3-3V76.5c0-3.6 2.9-6.5 6.5-6.5s6.5 2.9 6.5 6.5V80c0 .6-.4 1-1 1s-1-.4-1-1v-3.5c0-2.5-2-4.5-4.5-4.5s-4.5 2-4.5 4.5V87c0 2.8-2.2 5-5 5z"></path><circle cx="116" cy="58" r="7" fill="#f47423"></circle><path fill="#0f395a" d="M116 67c-5 0-9-4-9-9s4-9 9-9 9 4 9 9-4 9-9 9zm0-16c-3.9 0-7 3.1-7 7s3.1 7 7 7 7-3.1 7-7-3.1-7-7-7z"></path><path fill="#fff" d="M115 61c-.3 0-.5-.1-.7-.3l-2-2c-.4-.4-.4-1 0-1.4s1-.4 1.4 0l1.3 1.3 3.3-3.3c.4-.4 1-.4 1.4 0s.4 1 0 1.4l-4 4c-.2.2-.4.3-.7.3z"></path><circle cx="172" cy="48" r="1" fill="#0f395a"></circle><circle cx="175" cy="48" r="1" fill="#0f395a"></circle><circle cx="166" cy="48" r="1" fill="#0f395a"></circle><circle cx="163" cy="48" r="1" fill="#0f395a"></circle><circle cx="169" cy="48" r="1" fill="#0f395a"></circle><circle cx="178" cy="51" r="1" fill="#0f395a"></circle><circle cx="178" cy="48" r="1" fill="#0f395a"></circle><circle cx="178" cy="45" r="1" fill="#0f395a"></circle><circle cx="178" cy="42" r="1" fill="#0f395a"></circle><circle cx="178" cy="84" r="1" fill="#0f395a"></circle><circle cx="178" cy="87" r="1" fill="#0f395a"></circle><circle cx="178" cy="81" r="1" fill="#0f395a"></circle><path fill="#f6b545" d="M95 45h6v8h-6z"></path><path fill="#0f395a" d="M102 55h-8c-.6 0-1-.4-1-1V44c0-.6.4-1 1-1h8c.6 0 1 .4 1 1v10c0 .6-.4 1-1 1zm-7-2h6v-8h-6v8z"></path><path fill="#d3e2eb" d="M94 47c-1.7 0-3-1.3-3-3v-3h3v6z"></path><path fill="#0f395a" d="M94 48c-2.2 0-4-1.8-4-4v-3c0-.6.4-1 1-1h3c.6 0 1 .4 1 1v6c0 .6-.4 1-1 1zm-2-6v2c0 .7.4 1.4 1 1.7V42h-1z"></path><path fill="#d3e2eb" d="M102 47c1.7 0 3-1.3 3-3v-3h-3v6z"></path><path fill="#0f395a" d="M102 48c-.6 0-1-.4-1-1v-6c0-.6.4-1 1-1h3c.6 0 1 .4 1 1v3c0 2.2-1.8 4-4 4zm1-6v3.7c.6-.3 1-1 1-1.7v-2h-1z"></path><path fill="#d3e2eb" d="M91 38h14v2H91z"></path><path fill="#0f395a" d="M106 42H90c-.6 0-1-.4-1-1v-4c0-.6.4-1 1-1h16c.6 0 1 .4 1 1v4c0 .6-.4 1-1 1zm-15-2h14v-2H91v2z"></path><path fill="#0f395a" d="M98 37c-.6 0-1-.4-1-1V20c0-.6.4-1 1-1s1 .4 1 1v16c0 .6-.4 1-1 1z"></path><path fill="#0f395a" d="M98 38c-1.1 0-2-.9-2-2v-3c0-1.1.9-2 2-2s2 .9 2 2v3c0 1.1-.9 2-2 2z"></path><path fill="#d3e2eb" d="M84 19h6v2h-6z"></path><path fill="#0f395a" d="M91 23h-8c-.6 0-1-.4-1-1v-4c0-.6.4-1 1-1h8c.6 0 1 .4 1 1v4c0 .6-.4 1-1 1zm-7-2h6v-2h-6v2z"></path><path fill="#0f395a" d="M81 26H59c-.6 0-1-.4-1-1s.4-1 1-1h22c.6 0 1-.4 1-1v-6c0-.6-.4-1-1-1H62c-.6 0-1-.4-1-1s.4-1 1-1h19c1.7 0 3 1.3 3 3v6c0 1.7-1.3 3-3 3z"></path><path fill="#afc3d7" d="M91 39h14v1H91z"></path><path fill="#ffcb5d" d="M80 16v5c0 1.1-.9 2-2 2H67.4c-.9 0-1.8.4-2.4 1h16c.6 0 1-.4 1-1v-6c0-.6-.4-1-1-1h-1z"></path><circle cx="98" cy="47" r="1" fill="#e58824"></circle><circle cx="98" cy="51" r="1" fill="#e58824"></circle><circle cx="98" cy="49" r="1" fill="#e58824"></circle><path fill="#afc3d7" d="M103 42h1v1h-1zM92 42h1v1h-1zM84 20h6v1h-6z"></path><circle cx="94" cy="20" r="3" fill="#d3e2eb"></circle><path fill="#0f395a" d="M94 25c-2.8 0-5-2.2-5-5s2.2-5 5-5 5 2.2 5 5-2.2 5-5 5zm0-8c-1.7 0-3 1.3-3 3s1.3 3 3 3 3-1.3 3-3-1.3-3-3-3z"></path><circle cx="94" cy="20" r="1" fill="#0f395a"></circle><path fill="#66869b" d="M167.9 67.4c.7.1 1.3.7 1.5 1.4.2.5.3.9.6 1.4.3.6.3 1.4-.1 2l-.5.8c-.3.5-.3 1.1.2 1.5.4.4 1.1.5 1.5.2l.8-.5c.6-.4 1.4-.4 2-.1.4.2.9.4 1.4.6.7.2 1.2.8 1.4 1.5l.2.9c.1.6.6 1 1.2 1s1.1-.4 1.2-1l.2-.9c.1-.7.7-1.3 1.4-1.5.5-.2.9-.3 1.4-.6.6-.3 1.4-.3 2 .1l.8.5c.5.3 1.1.3 1.5-.2.4-.4.5-1.1.2-1.5l-.5-.8c-.4-.6-.4-1.4-.1-2 .2-.4.4-.9.6-1.4.2-.7.8-1.2 1.5-1.4l.9-.2c.6-.1 1-.6 1-1.2s-.4-1.1-1-1.2l-.9-.2c-.7-.1-1.3-.7-1.5-1.4-.2-.5-.3-.9-.6-1.4-.3-.6-.3-1.4.1-2l.5-.8c.3-.5.3-1.1-.2-1.5-.4-.4-1.1-.5-1.5-.2l-.8.5c-.6.4-1.4.4-2 .1-.4-.2-.9-.4-1.4-.6-.7-.2-1.2-.8-1.4-1.5l-.2-.9c-.1-.6-.6-1-1.2-1s-1.1.4-1.2 1l-.2.9c-.1.7-.7 1.3-1.4 1.5-.5.2-.9.3-1.4.6-.6.3-1.4.3-2-.1l-.8-.5c-.5-.3-1.1-.3-1.5.2-.4.4-.5 1.1-.2 1.5l.5.8c.4.6.4 1.4.1 2-.2.4-.4.9-.6 1.4-.2.7-.8 1.2-1.5 1.4l-.9.2c-.6.1-1 .6-1 1.2s.4 1.1 1 1.2l.9.2zM178 61c2.8 0 5 2.2 5 5s-2.2 5-5 5-5-2.2-5-5 2.2-5 5-5z"></path><path fill="#0f395a" d="M178 79c-1.1 0-2-.8-2.2-1.8l-.2-.9c-.1-.4-.3-.6-.7-.7l-1.5-.6c-.3-.2-.7-.2-1 0l-.8.5c-.9.6-2.1.5-2.8-.3-.7-.7-.9-1.9-.3-2.8l.5-.8c.2-.3.2-.7 0-1-.2-.5-.5-1-.6-1.5-.1-.3-.4-.6-.7-.7l-.9-.2c-1-.2-1.8-1.1-1.8-2.2s.8-2 1.8-2.2l.9-.2c.4-.1.6-.3.7-.7l.6-1.5c.2-.3.2-.7 0-1l-.5-.8c-.6-.9-.5-2.1.3-2.8.7-.7 1.9-.9 2.8-.3l.8.5c.3.2.7.2 1 0 .5-.3 1-.5 1.5-.6.3-.1.6-.4.7-.7l.2-.9c.2-1 1.1-1.8 2.2-1.8s2 .8 2.2 1.8l.2.9c.1.4.3.6.7.7l1.5.6c.3.2.7.2 1 0l.8-.5c.9-.6 2.1-.5 2.8.3.7.7.9 1.9.3 2.8l-.5.8c-.2.3-.2.7 0 1 .3.5.5 1 .6 1.5.1.3.4.6.7.7l.9.2c1 .2 1.8 1.1 1.8 2.2s-.8 2-1.8 2.2l-.9.2c-.4.1-.6.3-.7.7l-.6 1.5c-.2.3-.2.7 0 1l.5.8c.6.9.5 2.1-.3 2.8-.7.7-1.9.9-2.8.3l-.8-.5c-.3-.2-.7-.2-1 0-.5.3-1 .5-1.5.6-.3.1-.6.4-.7.7l-.2.9c-.2 1-1.1 1.8-2.2 1.8zm-5-6.2c.5 0 .9.1 1.4.3.4.2.8.4 1.2.5 1 .3 1.8 1.2 2 2.3l.2.9c0 .2.4.2.4 0l.2-.9c.2-1.1 1-1.9 2-2.3.4-.1.8-.3 1.2-.5 1-.5 2.1-.4 3 .2l.8.5c.1.1.2 0 .3 0 .1-.1.1-.2 0-.3l-.5-.8c-.6-.9-.7-2.1-.2-3 .2-.4.4-.8.5-1.2.3-1 1.2-1.8 2.3-2l.9-.2c.1 0 .2-.1.2-.2s-.1-.2-.2-.2l-.9-.2c-1.1-.2-1.9-1-2.3-2-.1-.4-.3-.8-.5-1.2-.5-1-.4-2.1.2-3l.5-.8c.1-.1 0-.2 0-.3-.1-.1-.2-.1-.3 0l-.8.5c-.9.6-2.1.7-3 .2-.4-.2-.8-.4-1.2-.5-1-.3-1.8-1.2-2-2.3l-.2-.9c0-.2-.4-.2-.4 0l-.2.9c-.2 1.1-1 1.9-2 2.3-.4.1-.8.3-1.2.5-1 .5-2.1.4-3-.2l-.8-.5c-.1-.1-.2 0-.3 0-.1.1-.1.2 0 .3l.5.8c.6.9.7 2.1.2 3-.2.4-.4.8-.5 1.2-.3 1-1.2 1.8-2.3 2l-.9.2c-.1 0-.2.1-.2.2s.1.2.2.2l.9.2c1.1.2 1.9 1 2.3 2 .1.4.3.8.5 1.2.5 1 .4 2.1-.2 3l-.5.8c-.1.1 0 .2 0 .3.1.1.2.1.3 0l.8-.5c.4-.4 1-.5 1.6-.5zm5-.8c-3.3 0-6-2.7-6-6s2.7-6 6-6 6 2.7 6 6-2.7 6-6 6zm0-10c-2.2 0-4 1.8-4 4s1.8 4 4 4 4-1.8 4-4-1.8-4-4-4z"></path><path fill="#567789" d="m188.8 65.8-.9-.2c-1.1-.2-1.9-1-2.3-2.1-.1-.4-.3-.8-.5-1.2-.5-1-.4-2.1.2-3l.5-.8c.1-.1 0-.2 0-.3l-2.2 2.2c-.4.4-.4.9-.1 1.3 1.2 1.5 1.7 3.5 1.3 5.7-.5 2.8-2.7 5-5.5 5.5-2.1.4-4.2-.2-5.7-1.3-.4-.3-1-.3-1.3.1l-2.2 2.2c.1.1.2.1.3 0l.8-.5c.5-.3 1.1-.5 1.7-.5.5 0 .9.1 1.4.3.4.2.8.4 1.2.5 1.1.3 1.9 1.2 2.1 2.3l.2.9c0 .2.4.2.4 0l.2-.9c.2-1.1 1-1.9 2.1-2.3.4-.1.8-.3 1.2-.5 1-.5 2.1-.4 3 .2l.8.5c.1.1.2 0 .3 0 .1-.1.1-.2 0-.3l-.5-.8c-.6-.9-.7-2.1-.2-3 .2-.4.4-.8.5-1.2.3-1.1 1.2-1.9 2.3-2.1l.9-.2c.1 0 .2-.1.2-.2s-.1-.3-.2-.3z"></path><path fill="#567789" d="M172 66c0-3.3 2.7-6 6-6 1.7 0 3.2.7 4.2 1.8 0 0 .8-.8-.2-1.5-1.1-.8-2.5-1.3-4-1.3-3.9 0-7 3.1-7 7 0 1.5.4 2.9 1.3 4 .7 1 1.5.2 1.5.2-1.1-1-1.8-2.5-1.8-4.2z"></path></svg>