<svg xmlns="http://www.w3.org/2000/svg" xmlns:xlink="http://www.w3.org/1999/xlink" data-name="Layer 1" viewBox="0 0 2477.33 1911.26" id="files-cloud-backup"><defs><linearGradient id="a" x1="2404.74" x2="2215.71" y1="2151.96" y2="3275.03" gradientUnits="userSpaceOnUse"><stop offset="0" stop-color="#dee1e2"></stop><stop offset="1" stop-color="#b4bcbe"></stop></linearGradient><linearGradient id="d" x1="2001.18" x2="3215.79" y1="2163.45" y2="2163.45" gradientUnits="userSpaceOnUse"><stop offset="0" stop-color="#fefefc"></stop><stop offset=".09" stop-color="#fefefc" stop-opacity=".96"></stop><stop offset=".25" stop-color="#fefefc" stop-opacity=".86"></stop><stop offset=".44" stop-color="#fefefd" stop-opacity=".7"></stop><stop offset=".68" stop-color="#fffffe" stop-opacity=".47"></stop><stop offset=".93" stop-color="#fff" stop-opacity=".18"></stop><stop offset="1" stop-color="#fff" stop-opacity=".1"></stop></linearGradient><linearGradient id="e" x1="2391.45" x2="2391.45" y1="1782.57" y2="2874.26" xlink:href="#a"></linearGradient><linearGradient id="f" x1="1912.89" x2="5582.36" y1="2720.86" y2="2720.86" xlink:href="#a"></linearGradient><linearGradient id="g" x1="1791.26" x2="2035.39" y1="2875.23" y2="2247.48" xlink:href="#a"></linearGradient><linearGradient id="b" x1="-23.29" x2="721.46" y1="1193.49" y2="695.17" gradientUnits="userSpaceOnUse"><stop offset="0" stop-color="#fb9835"></stop><stop offset="1" stop-color="#fbbb3c"></stop></linearGradient><linearGradient id="h" x1="-144.03" x2="600.71" y1="1087.07" y2="588.75" xlink:href="#b"></linearGradient><linearGradient id="c" x1="1950.77" x2="2644.61" y1="1779.2" y2="1314.94" gradientTransform="translate(-16.48 -57.17)" gradientUnits="userSpaceOnUse"><stop offset="0" stop-color="#2fa2fa"></stop><stop offset="1" stop-color="#37d3fb"></stop></linearGradient><linearGradient id="i" x1="1856.61" x2="2550.45" y1="1874.2" y2="1409.94" gradientTransform="translate(-16.9 -57.59)" gradientUnits="userSpaceOnUse"><stop offset="0" stop-color="#60b05b"></stop><stop offset=".25" stop-color="#75bc60"></stop><stop offset=".74" stop-color="#9ad069"></stop><stop offset="1" stop-color="#a8d86d"></stop></linearGradient><linearGradient id="j" x1="2939.59" x2="2985.92" y1="3257.33" y2="2482.21" xlink:href="#c"></linearGradient><linearGradient id="k" x1="2971.42" x2="3014.94" y1="3290.64" y2="2562.65" xlink:href="#c"></linearGradient><linearGradient id="l" x1="3333.54" x2="3333.54" y1="1814.09" y2="915.78" gradientTransform="rotate(.12 -26447.91 -42099.056)" gradientUnits="userSpaceOnUse"><stop offset="0" stop-color="#735cd2"></stop><stop offset="1" stop-color="#946acc"></stop></linearGradient><linearGradient id="m" x1="3220.87" x2="3220.87" y1="1927.25" y2="1028.93" gradientTransform="rotate(.12 -26447.91 -42099.056)" gradientUnits="userSpaceOnUse"><stop offset="0" stop-color="#735cd2"></stop><stop offset="1" stop-color="#8f6acc"></stop></linearGradient></defs><path fill="url(#a)" d="M3061.71 2017.41v682.76c0 55.94-46 101.93-102.09 101.93H1810.86a86.06 86.06 0 0 1-11.19-.62 103 103 0 0 1-70.55-40.4 116.9 116.9 0 0 1-7.92-12.28 103.22 103.22 0 0 1-12.44-48.63v-864.88a100.38 100.38 0 0 1 99.92-99.91h290.73a100 100 0 0 1 97 76l11.5 46.3a75.82 75.82 0 0 0 73.66 57.81h678.26c55.89-.01 101.88 45.83 101.88 101.92Z" transform="translate(-1145.66 -1233.32)"></path><path fill="#efefef" d="m3303.14 2178-23.85 54-179.4 407.61-55.89 127.12a59.39 59.39 0 0 1-54.27 35.43H1799.48l.28-.56 66.12-162 166.56-407.6 41-100.31a59 59 0 0 1 37.1-34 58 58 0 0 1 17.72-2.79h1120.6c42.7 0 71.44 43.94 54.28 83.1Z" transform="translate(-1145.66 -1233.32)"></path><path fill="url(#d)" d="m3303.1 2178-23.77 54H2032.48l41-100.26a59.39 59.39 0 0 1 54.91-36.82h1120.5c42.71-.01 71.4 43.93 54.21 83.08Z" opacity=".39" transform="translate(-1145.66 -1233.32)"></path><path fill="url(#e)" d="M3061.64 2040v54.91h-933.3a59.39 59.39 0 0 0-54.91 36.82l-207.61 507.87-66.15 161.88a102.55 102.55 0 0 1-78.42-52.71l67.05-164.08 207.61-507.86a59.39 59.39 0 0 1 54.91-36.82Z" opacity=".48" transform="translate(-1145.66 -1233.32)"></path><path fill="#efefef" d="M2281.49 1915.42h-572.67v-80.17a99.85 99.85 0 0 1 99.86-99.86h290.67a99.9 99.9 0 0 1 97 75.95l11.46 46.26a75.87 75.87 0 0 0 73.68 57.82Z" opacity=".59" transform="translate(-1145.66 -1233.32)"></path><path fill="url(#f)" d="m3099.88 2639.6-55.94 127.12a59.26 59.26 0 0 1-54.26 35.4H1799.42l66.41-162.53Z" opacity=".27" transform="translate(-1145.66 -1233.32)"></path><path fill="url(#g)" d="M2110.56 2097.69a70.23 70.23 0 0 1-4.88 20.78l-23.68 59.15-179.39 446.54-55.94 139.22c-8.65 21.06-26.37 35.43-46.87 38.23l66.12-162L2032.44 2232l41-100.31a59 59 0 0 1 37.12-34Z" opacity=".28" transform="translate(-1145.66 -1233.32)"></path><rect width="632.72" height="401.54" x="120.75" y="684.67" fill="url(#b)" rx="78.02" ry="78.02"></rect><rect width="632.72" height="401.54" y="578.24" fill="url(#h)" opacity=".1" rx="78.02" ry="78.02"></rect><path fill="#fff" d="M1677.25 2118.5a12 12 0 0 1 0 21.09l-75.51 41.57-76.74 42.24a12 12 0 0 1-17.86-10.57l.12-84 .12-84a12 12 0 0 1 17.89-10.52l76.61 42.46Z" transform="translate(-1145.66 -1233.32)"></path><rect width="572.53" height="401.54" x="2076.95" y="1234.26" fill="url(#c)" opacity=".1" rx="74.22" ry="74.22" transform="rotate(.26 273528.506 -251676.16)"></rect><rect width="572.53" height="401.54" x="1982.37" y="1328.84" fill="url(#i)" rx="74.22" ry="74.22" transform="rotate(.26 273436.162 -251583.395)"></rect><path fill="#fff" d="m2330.95 1442.49-4.69 63.56a10.6 10.6 0 0 0 3.94 9l49.7 39.89a10.6 10.6 0 0 1-4.11 18.56l-61.9 15.18a10.6 10.6 0 0 0-7.39 6.54l-22.58 59.6a10.6 10.6 0 0 1-18.92 1.83l-33.57-54.18a10.6 10.6 0 0 0-8.5-5l-63.66-3.06a10.6 10.6 0 0 1-7.58-17.43l41.15-48.66a10.6 10.6 0 0 0 2.13-9.63l-16.76-61.49a10.6 10.6 0 0 1 14.23-12.6l59 24.1a10.6 10.6 0 0 0 9.82-.95l53.3-34.94a10.6 10.6 0 0 1 16.39 9.68Z" transform="translate(-1145.66 -1233.32)"></path><path fill="url(#j)" d="M3443.75 3100.88h-325.24c-58.19 0-105.36-45.35-105.36-101.3v-115.11h124.45c30 0 47.82-32.25 31.05-56.19l-174.1-226.13c-14.88-21.19-47.39-21.19-62.26 0l-174.1 226.13c-16.85 23.94 1 56.19 31.05 56.19h124.44v115.11c0 56-47.17 101.3-105.35 101.3h-260.8c-137.19-15.07-243.69-127-243.69-262.88 0-132.89 101.8-242.89 234.53-261.83 3.59-.35 7.18-.77 10.76-1.33 9.82-1 19.85-1.56 30-1.56a286.43 286.43 0 0 1 82 12c19.25 5.78 39.39-6.48 41.74-25.77 9.16-76 54.65-238.48 273.06-238.48 114 0 211.91 74.33 253.65 169.32v.08c1.4 3.52 2.79 7 4.32 10.42v.07a254 254 0 0 1 17.3 92.47 257.7 257.7 0 0 1-3.73 44c-4.32 24.76 21 44.58 45 34.55a243.65 243.65 0 0 1 99.24-18.72c124 2.47 225.73 98 231.08 217.11 4.95 110.98-72.9 205.27-179.04 230.55Z" opacity=".17" transform="translate(-1145.66 -1233.32)"></path><path fill="url(#k)" d="M3428.06 3144.58H3134a95.26 95.26 0 0 1-95.26-95.26v-108.26h112.52c27.14 0 43.24-30.33 28.07-52.84l-157.41-212.65a34 34 0 0 0-56.29 0l-157.41 212.65c-15.23 22.51.92 52.84 28.07 52.84h112.51v108.25a95.25 95.25 0 0 1-95.25 95.26h-235.8c-124-14.18-220.33-119.47-220.33-247.22 0-125 92-228.41 212-246.23 3.24-.33 6.49-.73 9.73-1.25a262.32 262.32 0 0 1 27.09-1.46 249.73 249.73 0 0 1 74.18 11.26 29.14 29.14 0 0 0 37.74-24.24c8.28-71.46 49.41-224.27 246.89-224.27 103.11 0 191.59 69.9 229.33 159.23v.08c1.27 3.31 2.52 6.55 3.9 9.8v.07a247.31 247.31 0 0 1 15.64 87 251.81 251.81 0 0 1-3.38 41.39c-3.9 23.29 19 41.92 40.67 32.49a212.88 212.88 0 0 1 89.72-17.6c112.12 2.32 204.09 92.19 208.93 204.17 4.56 104.34-65.86 193.01-161.8 216.79Z" data-name="Clod" transform="translate(-1145.66 -1233.32)"></path><path fill="#fff" d="M3151.26 2941.06h-112.53v108.25a95.26 95.26 0 0 0 95.26 95.26h-280.44a95.25 95.25 0 0 0 95.25-95.26v-108.25h-112.51c-27.15 0-43.31-30.33-28.07-52.84l157.41-212.65a34 34 0 0 1 56.29 0l157.41 212.65c15.17 22.51-.93 52.84-28.07 52.84Z" transform="translate(-1145.66 -1233.32)"></path><path fill="url(#l)" d="m3499.65 1607.54-.62 284.54c0 13.43-5.22 25.45-13.25 33.31a32.85 32.85 0 0 1-23.17 9.82l-442.77-1a32.58 32.58 0 0 1-23.06-9.92c-8.07-7.89-13.2-19.93-13.17-33.36l.62-284.54c.07-33.87 23.22-61.27 51.69-61.21l412.31.9c28.48.08 51.5 27.59 51.42 61.46Z" opacity=".1" transform="translate(-1145.66 -1233.32)"></path><path fill="url(#m)" d="m3386.74 1720.45-.62 284.54c0 13.43-5.22 25.45-13.25 33.31a32.85 32.85 0 0 1-23.17 9.82l-442.77-1a32.58 32.58 0 0 1-23.06-9.92c-8.07-7.89-13.2-19.93-13.17-33.36l.62-284.54c.07-33.87 23.22-61.27 51.69-61.21l412.31.9c28.47.09 51.5 27.59 51.42 61.46Z" transform="translate(-1145.66 -1233.32)"></path><path fill="#fff" d="m2932.57 1924 73.29-106.55a13 13 0 0 1 19.49-2.2l55.17 51.23a13 13 0 0 0 19-1.53l96.87-114a13 13 0 0 1 20.74.42l107.26 173.15a13 13 0 0 1-10.55 20.6l-370.59-.81a13 13 0 0 1-10.68-20.31Z" transform="translate(-1145.66 -1233.32)"></path><circle cx="3078.94" cy="1765.93" r="32.37" fill="#fff" transform="rotate(-89.88 1887.962 1723.362)"></circle></svg>