<svg xmlns="http://www.w3.org/2000/svg" viewBox="0 0 2340 1560" id="startup-launch-rocket-success-new-business-vector"><path fill="#dbe6ff" d="M900.39355,1348.80371a792.72559,792.72559,0,0,1-140.06591-11.98047c-77.66651-13.94629-144.21778-39.37109-197.80567-75.56836-55.9375-37.78418-95.23047-85.67773-116.78808-142.35156-21.55713-56.67285-24.02686-118.57324-7.34131-183.98144,15.98486-62.66016,48.81494-125.88672,97.57861-187.92481,48.54-61.75391,110.4707-119.28223,184.07227-170.98779,76.07568-53.44336,161.38818-98.31983,253.56836-133.3833,92.18066-35.063,185.751-58.2295,278.11279-68.856,89.3584-10.28076,173.86719-8.45557,251.17773,5.42871,77.666,13.94629,144.21778,39.37109,197.80469,75.56787,55.93848,37.78418,95.23145,85.67822,116.78809,142.35108,21.55761,56.67334,24.02734,118.57373,7.34179,183.98193-15.98437,62.66113-48.81445,125.88769-97.57812,187.92578-48.54,61.75293-110.47168,119.28223-184.07227,170.98731-76.07519,53.44335-161.38867,98.32031-253.56836,133.38281-92.18066,35.06347-185.75146,58.23047-278.11328,68.85644A972.7342,972.7342,0,0,1,900.39355,1348.80371Zm462.34766-964.52685c-118.94824,0-250.95117,23.978-383.08545,74.23877C610.22168,599.04,377.833,892.57715,461.62354,1112.85938,501.918,1218.793,609.06689,1292.38965,763.332,1320.09082c155.82129,27.98438,340.57959,5.75488,520.24219-62.584,179.66211-68.33985,332.48535-174.52149,430.31933-298.98731,96.85645-123.22265,128.00684-249.4248,87.7129-355.35791C1747.78418,461.667,1576.36035,384.27686,1362.74121,384.27686Z"></path><path fill="#b6ccf2" d="M900.606,1348.76172c-6.87793,0-13.79444-.08008-20.55762-.23731l.39648-16.99609c6.63135.15527,13.41456.2334,20.16114.2334l1.623-.002.03028,17Zm23.8584-.31152-.4419-16.99415c7.18652-.18652,14.51563-.46386,21.78418-.82421l.84131,16.97851C939.24707,1347.97754,931.7832,1348.25977,924.46436,1348.4502Zm-66.62207-.72754c-7.39893-.36426-14.86329-.83106-22.18458-1.38868l1.291-16.95117c7.1709.5459,14.48145,1.00391,21.72949,1.36133Zm110.95654-1.46387-1.22461-16.95508c7.17822-.51855,14.49121-1.12988,21.73437-1.81543l1.60254,16.92383C983.543,1345.11035,976.103,1345.73145,968.79883,1346.25879ZM813.50732,1344.334c-7.38281-.77343-14.81543-1.66113-22.09179-2.63867l2.26367-16.84863c7.11279.95605,14.37939,1.82422,21.59766,2.5791Zm199.46289-2.251-1.96386-16.88672c7.1416-.83008,14.42383-1.75684,21.64355-2.75293l2.32422,16.83984C1027.63477,1340.2959,1020.23145,1341.23828,1012.97021,1342.083ZM769.3999,1338.3916c-7.34179-1.21875-14.71386-2.56445-21.9126-4l3.32471-16.67187c7.01953,1.39941,14.20947,2.71191,21.3711,3.90039Zm287.5083-2.36621-2.66894-16.78906c7.10791-1.12988,14.34814-2.35645,21.52-3.64746l3.00976,16.73144C1071.48438,1333.63086,1064.12891,1334.87793,1056.9082,1336.02539Zm-331.2041-6.36328c-7.26269-1.71-14.53564-3.55859-21.61621-5.49707l4.48828-16.39649c6.88428,1.88379,13.957,3.68262,21.02246,5.34473Zm374.84326-1.4834-3.34082-16.668c7.08008-1.41894,14.26807-2.93359,21.36426-4.501l3.667,16.59961C1115.0332,1325.20117,1107.73584,1326.73828,1100.54736,1328.17871Zm43.28467-9.55957-3.98535-16.52637c7.02686-1.69531,14.15771-3.48632,21.19434-5.32519l4.29882,16.44726C1158.19873,1315.08105,1150.9624,1316.89941,1143.832,1318.61914Zm-461.15918-.75684c-7.15967-2.25878-14.28222-4.665-21.16943-7.15332l5.77441-15.98828c6.67041,2.40821,13.57031,4.74024,20.50928,6.92871Zm504.06641-10.45605-4.60742-16.36328c6.99511-1.96973,14.05468-4.0293,20.98437-6.11914l4.91016,16.27539C1200.99707,1303.32031,1193.835,1305.4082,1186.73926,1307.40625Zm-546.104-4.74219c-6.95605-2.8584-13.856-5.88183-20.5083-8.98535l7.1875-15.40625c6.41455,2.99317,13.0708,5.90918,19.78369,8.66895Zm588.55616-8.06445-5.20508-16.18359c6.87305-2.21,13.85351-4.52637,20.74707-6.88477l5.50195,16.08594C1243.24316,1290.00781,1236.16309,1292.35742,1229.19141,1294.59961Zm-629.13916-10.89648c-6.66455-3.52344-13.24561-7.2295-19.56055-11.01368l8.73926-14.582c6.05566,3.62988,12.36963,7.18457,18.7666,10.56641Zm671.0913-3.44922-5.7871-15.98438c6.02539-2.18164,12.15429-4.457,18.21777-6.76367l2.2793-.86816,6.07128,15.8789-2.31835.88379C1283.46973,1275.73438,1277.25391,1278.042,1271.14355,1280.25391Zm41.39161-15.83692-6.36036-15.76562c6.748-2.72168,13.54-5.53321,20.18848-8.35547l6.64258,15.64844C1326.26465,1258.80664,1319.377,1261.65723,1312.53516,1264.417Zm-750.98877-3.82226c-6.24854-4.25-12.3794-8.69629-18.22119-13.2168l10.40332-13.44531c5.56836,4.30859,11.415,8.54883,17.37744,12.60449Zm791.7749-13.49219-6.92578-15.52539c6.623-2.9541,13.30664-6.00977,19.86621-9.082l7.21094,15.39453C1366.81836,1241.00684,1360.03906,1244.10645,1353.32129,1247.10254ZM525.9541,1233.00879c-5.66846-5.01465-11.18066-10.24024-16.3833-15.53223l12.124-11.918c4.92627,5.01172,10.14893,9.96387,15.52295,14.71778Zm867.49707-4.70313-7.49414-15.25976c6.51074-3.19727,13.0752-6.499,19.51172-9.8125l7.78125,15.11523C1406.71875,1221.71094,1400.05762,1225.06055,1393.45117,1228.30566Zm39.40528-20.28808-8.06446-14.96485c6.38086-3.43945,12.81348-6.9873,19.12012-10.54687l8.35547,14.80469C1445.86621,1200.92383,1439.335,1204.52637,1432.85645,1208.01758Zm-938.53418-7.23438c-4.89307-5.77246-9.59424-11.77343-13.97461-17.833l13.77832-9.958c4.125,5.707,8.5542,11.35937,13.165,16.80078Zm977.14355-14.55566-8.64453-14.63867c6.26953-3.70215,12.55762-7.5,18.68848-11.28711l8.93359,14.46289C1484.2168,1178.61133,1477.832,1182.46777,1471.46582,1186.22754Zm-1003.6499-22.16211c-3.91406-6.44629-7.60205-13.11816-10.96143-19.83105l15.20313-7.60743c3.15234,6.30078,6.61426,12.56348,10.28857,18.61426Zm1041.37451-1.14551-9.22852-14.27734c6.10254-3.94434,12.22852-7.99317,18.209-12.03516l9.51953,14.084C1521.61426,1154.79883,1515.38965,1158.91309,1509.19043,1162.91992Zm36.74512-24.84472-9.81641-13.87891c5.91406-4.18262,11.86035-8.48633,17.67481-12.791l10.11523,13.66211C1557.99707,1129.44531,1551.94922,1133.82227,1545.93555,1138.0752ZM447.5498,1123.55176q-.928-2.31445-1.8164-4.64844c-2.08887-5.49316-4.02686-11.126-5.75977-16.74219l16.24463-5.01172c1.626,5.27051,3.44434,10.55567,5.40528,15.71q.83349,2.19286,1.70459,4.36425Zm1134.04493-11.8877-10.418-13.43359c5.751-4.46,11.49707-9.02246,17.0791-13.55957l10.72266,13.1914C1593.29688,1102.48047,1587.44824,1107.124,1581.59473,1111.66406Zm34.44629-28.00683-11.03125-12.93555c5.52343-4.709,11.04394-9.53516,16.41015-14.3418l11.34375,12.66211C1627.29492,1073.94141,1621.668,1078.8584,1616.041,1083.65723Zm-1181.85694-3.43848c-1.61426-7.3252-2.95263-14.83691-3.97754-22.3291l16.84278-2.30469c.96338,7.03906,2.22021,14.0957,3.73632,20.97461Zm1214.939-26.20605-11.65821-12.373c5.29-4.98438,10.55664-10.07813,15.6543-15.13965l11.97852,12.0625C1659.89453,1043.72949,1654.52051,1048.92773,1649.12305,1054.0127ZM428.02539,1035.335c-.32422-5.63965-.48828-11.39648-.48828-17.1123q0-2.75684.05029-5.51953l16.99707.31054q-.04761,2.60742-.04736,5.209c0,5.3916.15478,10.82129.46,16.13769Zm1252.63379-12.65039-12.30078-11.73242c5.01074-5.25488,9.98828-10.623,14.793-15.957l12.63086,11.3789C1690.87012,1011.82715,1685.78223,1017.31445,1680.65918,1022.68457Zm-1234.918-31.00879-16.93164-1.52148c.66309-7.38086,1.59863-14.91016,2.78125-22.37989l16.791,2.65821C447.25879,977.52637,446.37061,984.67383,445.74121,991.67578Zm1264.68848-2.05273-12.96289-11c4.70019-5.53809,9.34375-11.18555,13.80273-16.78711l13.30078,10.58789C1720.001,978.16309,1715.24316,983.9502,1710.42969,989.62305Zm27.73242-34.85157L1724.52148,944.625c4.33887-5.832,8.59668-11.76465,12.65528-17.63477l13.98242,9.66993C1746.98926,942.68945,1742.61621,948.7832,1738.16211,954.77148Zm-1285.751-5.40136-16.58886-3.71485c1.6123-7.20117,3.48535-14.53125,5.56689-21.78711l16.34082,4.6875C455.74023,935.49121,453.95068,942.49414,452.41113,949.37012ZM1763.51367,918.084l-14.32617-9.15039c3.90625-6.11718,7.71191-12.335,11.30859-18.48144L1775.168,899.04C1771.46,905.375,1767.53906,911.78223,1763.51367,918.084ZM464.23828,908.044l-16.05762-5.58008c2.41455-6.94824,5.07618-14.00977,7.91065-20.98633l15.75,6.39844C469.11572,894.584,466.55811,901.37012,464.23828,908.044Zm1321.82031-28.51954-15.01367-7.97265c3.40039-6.4043,6.6709-12.90137,9.71973-19.31153l15.35156,7.30274C1792.96,866.17773,1789.57617,872.90137,1786.05859,879.52441ZM480.44775,868.08008l-15.4248-7.14649c3.08789-6.665,6.40674-13.42285,9.86377-20.084l15.08935,7.83008C486.63525,855.11719,483.42969,861.64453,480.44775,868.08008Zm1324.812-28.97949-15.67969-6.56836c2.80078-6.68653,5.43555-13.44532,7.83105-20.08789l15.99219,5.76562C1810.91113,825.12207,1808.1709,832.15137,1805.25977,839.10059ZM500.34766,829.68945l-14.74707-8.457c3.64746-6.36035,7.51416-12.80273,11.4917-19.14648l14.40332,9.02929C507.63574,817.27246,503.88525,823.52148,500.34766,829.68945Zm1320.10156-32.79394-16.28125-4.89258c2.07715-6.91113,3.957-13.89258,5.58887-20.75147l16.53906,3.93458C1824.58789,782.36523,1822.62012,789.669,1820.44922,796.89551ZM523.35645,792.96387l-14.0586-9.5586c4.12647-6.06933,8.4541-12.19726,12.86231-18.21386l13.71289,10.04687C531.58252,781.09473,527.37109,787.05859,523.35645,792.96387Zm25.6416-35.0293-13.374-10.49512c4.519-5.75781,9.23682-11.57763,14.023-17.29687l13.03711,10.91015C558.01172,746.63623,553.40723,752.31592,548.99805,757.93457Zm1281.833-4.80127-16.752-2.89453c1.22559-7.0918,2.21875-14.22852,2.9541-21.21191l16.90625,1.77832C1833.166,738.16064,1832.12012,745.67285,1830.83105,753.1333Zm-1253.94042-28.543L564.187,713.29346c4.874-5.48047,9.92774-11.001,15.021-16.40723l12.374,11.65723C586.59961,713.832,581.65674,719.231,576.89063,724.59033Zm1258.624-16.30957-16.99024-.57519c.11231-3.31348.16895-6.64649.16895-9.90577,0-3.81835-.07813-7.67089-.23145-11.45019l16.98633-.68945c.16211,4.00781.24512,8.09228.24512,12.13964C1835.69336,701.25,1835.63281,704.77637,1835.51465,708.28076ZM606.7251,692.90625l-12.04883-11.99219c5.16846-5.19336,10.51318-10.42285,15.88525-15.54345l11.7295,12.30566C617.02588,682.69434,611.78906,687.81836,606.7251,692.90625Zm1210.04931-27.8208c-.83984-7.05957-1.97168-14.13818-3.36328-21.03955l16.66407-3.36133c1.48242,7.34766,2.68652,14.88135,3.58007,22.39307ZM638.252,662.84814l-11.41211-12.60058c5.42823-4.916,11.02784-9.86328,16.64356-14.70508l11.10058,12.876C649.07227,653.16992,643.57764,658.0249,638.252,662.84814Zm33.01172-28.46484-10.791-13.13672c5.66064-4.64941,11.48584-9.32275,17.31445-13.88965l10.48535,13.38086C682.54639,625.2251,676.82324,629.81592,671.26367,634.3833Zm1137.08594-11.0249c-1.959-6.78809-4.22754-13.583-6.74316-20.19678-1.11231-2.9209-2.28614-5.84717-3.49024-8.6958l15.66016-6.61621c1.28222,3.03613,2.5332,6.15332,3.71875,9.2666,2.68164,7.05029,5.10058,14.293,7.18847,21.52832ZM705.59131,607.481l-10.18262-13.61328c5.86817-4.38916,11.89453-8.79493,17.91211-13.09424l9.88281,13.832C717.28662,598.8335,711.36084,603.16553,705.59131,607.481Zm35.50146-25.37012-9.58593-14.04c6.05517-4.13379,12.26123-8.27685,18.44677-12.31348l9.291,14.23633C753.15771,573.96631,747.05029,578.043,741.09277,582.11084Zm1047.95508-6.86377c-3.26269-6.23926-6.83691-12.44141-10.623-18.43457l14.373-9.07861c4.03125,6.38134,7.83789,12.9873,11.31445,19.63379ZM777.645,558.252,768.647,543.8291c6.22412-3.8833,12.59229-7.76806,18.92725-11.54639l8.708,14.60059C790.044,550.60352,783.77393,554.42871,777.645,558.252Zm988.687-18.98681c-4.21875-5.63184-8.74512-11.21143-13.45312-16.585l12.78515-11.20313c4.99317,5.69824,9.79492,11.61768,14.27344,17.59473Zm-951.187-3.37989-8.41895-14.76953c6.37354-3.63281,12.88819-7.26269,19.36329-10.78955l8.13085,14.92969C827.84131,528.73,821.42334,532.30615,815.145,535.88525Zm38.353-20.89013-7.84375-15.082c6.50683-3.38379,13.15381-6.76172,19.75683-10.03955l7.5586,15.22753C866.46191,508.33154,859.91064,511.66064,853.49805,514.99512Zm884.7207-7.853c-5.00977-4.939-10.30957-9.812-15.752-14.48438l11.07422-12.89843c5.7373,4.92529,11.32617,10.06543,16.61328,15.27685ZM892.625,495.57275l-7.27344-15.36523c6.62744-3.13721,13.39453-6.26416,20.11426-9.29492l6.98926,15.49707C905.83008,489.39746,899.1582,492.48047,892.625,495.57275Zm813.12988-16.33984c-5.63379-4.23633-11.53906-8.39941-17.55078-12.37451l9.377-14.18067c6.2959,4.16358,12.4834,8.52637,18.39063,12.96729Zm-773.3042-1.62158-6.70507-15.62207c6.74511-2.895,13.62158-5.77295,20.4375-8.55274l6.42089,15.74073C945.88232,471.919,939.10205,474.75635,932.45068,477.61133Zm40.43262-16.4961-6.13965-15.85253q3.42553-1.32642,6.86719-2.63624c4.6001-1.75,9.27246-3.49511,13.88867-5.188l5.85254,15.96093c-4.55225,1.66895-9.16016,3.39063-13.6958,5.11573Q976.2622,459.80712,972.8833,461.11523Zm697.04639-5.604c-6.10156-3.55713-12.459-7.04-18.89551-10.35107l7.77734-15.11719c6.70118,3.44775,13.32227,7.07471,19.68067,10.78174Zm-655.98438-9.45459-5.56445-16.06348c6.9541-2.40918,14.02393-4.78711,21.01269-7.06738l5.27344,16.16113C1027.77539,441.33594,1020.80371,443.68066,1013.94531,446.05664Zm617.66211-10.2876c-6.45605-2.92968-13.14258-5.77929-19.875-8.46972l6.3086-15.78614c6.97265,2.78614,13.90039,5.73877,20.59179,8.77539Zm-576.09814-3.27148-4.97559-16.25586c7.05518-2.15918,14.208-4.27637,21.26074-6.29346l4.67383,16.34473C1069.51611,428.28125,1062.46436,430.36865,1055.50928,432.49756Zm42.02832-12.0166-4.36719-16.42969c7.11426-1.89111,14.34229-3.73926,21.48389-5.49414l4.05664,16.50879C1111.67285,416.79541,1104.54883,418.61719,1097.5376,420.481Zm493.939-.771c-6.71-2.353-13.63281-4.62305-20.57617-6.74805l4.97461-16.25586c7.16113,2.19141,14.30273,4.5337,21.22656,6.96143ZM1139.979,410.05713l-3.7373-16.584c7.19385-1.62109,14.48486-3.18994,21.67041-4.66259l3.41309,16.65381C1154.24756,406.91455,1147.06543,408.46,1139.979,410.05713Zm410.07666-3.041c-6.88964-1.82617-13.97851-3.56933-21.06738-5.18017l3.76563-16.57764c7.28613,1.65576,14.57324,3.44727,21.65722,5.3252ZM1182.75488,401.292l-3.083-16.71777c7.25292-1.33789,14.60156-2.6167,21.84179-3.80176l2.7461,16.77637C1197.13184,398.71582,1189.89648,399.9751,1182.75488,401.292Zm324.98242-3.90429c-7.01953-1.34766-14.21972-2.60938-21.40039-3.75049l2.668-16.78907c7.35938,1.16895,14.74024,2.46241,21.9375,3.84424ZM1225.833,394.24512l-2.40039-16.83008c7.30176-1.041,14.69922-2.01709,21.98828-2.90088l2.04687,16.876C1240.2959,392.26025,1233.01758,393.2207,1225.833,394.24512Zm238.98242-3.689c-7.09766-.90722-14.37012-1.72851-21.61523-2.44043l1.66406-16.91845c7.4082.728,14.8457,1.56787,22.10644,2.49609Zm-195.66211-1.55859-1.68262-16.916c7.36231-.73242,14.79785-1.39013,22.09961-1.95459l1.31055,16.94922C1283.70215,387.63135,1276.39258,388.27783,1269.15332,388.99756Zm152.36133-2.70654c-7.16309-.50293-14.47656-.91748-21.73828-1.23291l.73633-16.98389c7.41308.32178,14.87988.74512,22.19238,1.25879Zm-108.87207-.65088-.92578-16.97461c7.38379-.40283,14.8457-.72364,22.17675-.95264l.53125,16.99121C1327.22461,384.92969,1319.89648,385.24463,1312.64258,385.64014Zm65.3623-1.24414c-7.19043-.126-14.50488-.16358-21.79-.11133l-.123-16.99951c7.42578-.05469,14.88281-.01612,22.21191.11377Z"></path><path fill="#452e63" d="M1883.68066 1370.04492H482.14307a8.5 8.5 0 000 17H1883.68066a8.5 8.5 0 000-17zM431.51318 1370.044H378.51709a8.5 8.5 0 000 17h52.99609a8.5 8.5 0 000-17zM1991.0918 1370.04688h-56.78125a8.5 8.5 0 000 17h56.78125a8.5 8.5 0 000-17z"></path><path fill="#ff9495" d="M1476.18438,217.7967a7.353,7.353,0,0,1-5.21525-2.16024L1441.9027,186.57a7.37518,7.37518,0,0,1,10.4305-10.42965l29.06643,29.06643a7.37507,7.37507,0,0,1-5.21525,12.58989Z"></path><path fill="#ff9495" d="M1447.118,217.7967a7.37507,7.37507,0,0,1-5.21525-12.58989l29.06643-29.06643a7.37518,7.37518,0,0,1,10.4305,10.42965l-29.06643,29.06643A7.353,7.353,0,0,1,1447.118,217.7967Z"></path><path fill="#a6e0ff" d="M1823.89779,999.64581a7.35434,7.35434,0,0,1-5.21525-2.15981l-29.06642-29.06643a7.37547,7.37547,0,1,1,10.43049-10.43049L1829.113,987.0555a7.37506,7.37506,0,0,1-5.21525,12.59031Z"></path><path fill="#a6e0ff" d="M1794.83136,999.64581a7.37506,7.37506,0,0,1-5.21524-12.59031l29.06642-29.06642a7.37547,7.37547,0,1,1,10.4305,10.43049L1800.04661,997.486A7.35432,7.35432,0,0,1,1794.83136,999.64581Z"></path><path fill="#ff9495" d="M748.37345,1031.2237a7.35335,7.35335,0,0,1-5.21482-2.15982L714.0922,999.99745A7.37517,7.37517,0,0,1,724.52185,989.567l29.06642,29.06642a7.37507,7.37507,0,0,1-5.21482,12.59032Z"></path><path fill="#ff9495" d="M719.307,1031.2237a7.37507,7.37507,0,0,1-5.21482-12.59032L743.15863,989.567a7.37517,7.37517,0,1,1,10.42964,10.43049l-29.06642,29.06643A7.35339,7.35339,0,0,1,719.307,1031.2237Z"></path><path fill="#a6e0ff" d="M540.24439 555.06733a29.06643 29.06643 0 1129.06643-29.06643A29.09912 29.09912 0 01540.24439 555.06733zm0-43.38273a14.3163 14.3163 0 1014.3163 14.3163A14.33249 14.33249 0 00540.24439 511.6846zM1194.91348 323.21334a29.06643 29.06643 0 1129.06643-29.06643A29.09939 29.09939 0 011194.91348 323.21334zm0-43.38273a14.3163 14.3163 0 1014.3163 14.3163A14.33277 14.33277 0 001194.91348 279.83061z"></path><path fill="#fde497" d="M1674.83914 926.5205a29.06643 29.06643 0 1129.06643-29.06643A29.09966 29.09966 0 011674.83914 926.5205zm0-43.38273a14.3163 14.3163 0 1014.3163 14.3163A14.333 14.333 0 001674.83914 883.13777zM1080.81267 245.77856a29.06643 29.06643 0 1129.06643-29.06643A29.09912 29.09912 0 011080.81267 245.77856zm0-43.38273a14.3163 14.3163 0 1014.3163 14.3163A14.33249 14.33249 0 001080.81267 202.39583z"></path><path fill="#dad4ef" d="M1856.7797,345.89564a19.64551,19.64551,0,1,1,13.89094-33.5373h0l.00085.00042a19.64573,19.64573,0,0,1-13.89179,33.53688Zm0-24.5409a4.89556,4.89556,0,1,0,3.46214,1.43409l-.00085-.00042A4.86334,4.86334,0,0,0,1856.7797,321.35474Z"></path><path fill="#ff9495" d="M720.79788 384.62744a19.64515 19.64515 0 1113.89137-5.75372A19.51542 19.51542 0 01720.79788 384.62744zm0-24.53836a4.89049 4.89049 0 103.46172 1.43112A4.88013 4.88013 0 00720.79788 360.08908zM2003.36248 822.063a19.6364 19.6364 0 1113.89179-5.74482A19.58561 19.58561 0 012003.36248 822.063zm0-24.53242a4.89581 4.89581 0 103.4613 1.43451v-.00085A4.86341 4.86341 0 002003.36248 797.5306z"></path><path fill="#82d7ab" d="M1051.62211 494.1146a19.64552 19.64552 0 1113.89137-33.53689h.00042a19.64552 19.64552 0 01-13.89179 33.53689zm0-24.5409a4.8956 4.8956 0 103.4613 1.43366A4.86265 4.86265 0 001051.62211 469.5737zM1920.12272 478.94886a33.5587 33.5587 0 1123.74865-9.82085A33.475 33.475 0 011920.12272 478.94886zm0-52.4054a18.83656 18.83656 0 1013.319 5.51731l-.00085-.00042A18.71009 18.71009 0 001920.12272 426.54346z"></path><path fill="#a6e0ff" d="M571.3232,425.90331a19.64148,19.64148,0,1,1,13.89137-33.52714v-.00043a19.636,19.636,0,0,1-13.89137,33.52757Zm0-24.529a4.89194,4.89194,0,1,0,3.46172,1.432v-.00042A4.88193,4.88193,0,0,0,571.3232,401.37427Z"></path><path fill="#dad4ef" d="M767.17164 791.57776a19.63619 19.63619 0 1113.89137-5.74482A19.58392 19.58392 0 01767.17164 791.57776zm0-24.52946a4.89327 4.89327 0 103.46172 1.43155A4.88195 4.88195 0 00767.17164 767.0483zM1910.58614 938.79137a19.64731 19.64731 0 1113.891-5.75414A19.51962 19.51962 0 011910.58614 938.79137zm0-24.5392a4.89339 4.89339 0 103.4613 1.432A4.88478 4.88478 0 001910.58614 914.25217z"></path><path fill="#fde497" d="M761.27939,688.28323a29.06643,29.06643,0,1,1,29.06643-29.06643A29.09912,29.09912,0,0,1,761.27939,688.28323Zm0-43.38273a14.3163,14.3163,0,1,0,14.3163,14.3163A14.3325,14.3325,0,0,0,761.27939,644.9005Z"></path><circle cx="841.121" cy="315.838" r="10.412" fill="#a6e0ff"></circle><circle cx="952.624" cy="641.098" r="10.412" fill="#a6e0ff"></circle><circle cx="586.309" cy="206.3" r="10.412" fill="#82d7ab"></circle><path fill="#fde497" d="M328.56067,478.32734a10.41187,10.41187,0,1,1,4.20292,14.11205A10.41188,10.41188,0,0,1,328.56067,478.32734Z"></path><circle cx="952.624" cy="214.615" r="10.412" fill="#82d7ab"></circle><circle cx="427.241" cy="294.147" r="10.412" fill="#dad4ef" transform="rotate(-81.923 427.241 294.147)"></circle><path fill="#dad4ef" d="M423.71461,602.15813a10.41185,10.41185,0,1,1,4.20292,14.112A10.41183,10.41183,0,0,1,423.71461,602.15813Z"></path><circle cx="1306.1" cy="236.307" r="10.412" fill="#a6e0ff"></circle><path fill="#a6e0ff" d="M730.4305,870.80828a10.41186,10.41186,0,1,1,4.203,14.112A10.41187,10.41187,0,0,1,730.4305,870.80828Z"></path><circle cx="1739.758" cy="206.3" r="10.412" fill="#a6e0ff" transform="rotate(-16.585 1739.758 206.3)"></circle><path fill="#ffda65" d="M372.55145 1067.79371a10.41183 10.41183 0 114.20292 14.11206A10.4118 10.4118 0 01372.55145 1067.79371zM2004.61888 595.50192a10.41182 10.41182 0 114.20292 14.112A10.41177 10.41177 0 012004.61888 595.50192z"></path><circle cx="1764.369" cy="304.559" r="10.412" fill="#fde497" transform="rotate(-81.923 1764.37 304.559)"></circle><path fill="#fde497" d="M730.4305,218.85672a10.41186,10.41186,0,1,1,4.203,14.112A10.41187,10.41187,0,0,1,730.4305,218.85672Z"></path><circle cx="1142.526" cy="439.081" r="10.412" fill="#fde497"></circle><path fill="#a6e0ff" d="M1650.76974,525.081a10.41183,10.41183,0,1,1,4.20292,14.112A10.41175,10.41175,0,0,1,1650.76974,525.081Z"></path><path fill="#ff9495" d="M1643.99032,1138.71163a10.41183,10.41183,0,1,1,4.20292,14.11206A10.41179,10.41179,0,0,1,1643.99032,1138.71163Z"></path><circle cx="1962.701" cy="262.042" r="10.412" fill="#ff9495"></circle><circle cx="1616.243" cy="593.386" r="10.412" fill="#ff9495" transform="rotate(-16.585 1616.243 593.386)"></circle><circle cx="700.44" cy="919.17" r="10.412" fill="#ff9495" transform="rotate(-81.923 700.44 919.17)"></circle><path fill="#ff9495" d="M1011.90022,394.93931a29.95575,29.95575,0,0,1-26.29569-44.2059v.00042a29.94313,29.94313,0,1,1,34.88242,42.94594A30.06342,30.06342,0,0,1,1011.90022,394.93931Zm.06058-45.15744a15.23781,15.23781,0,0,0-13.383,7.97031v.00042a15.17263,15.17263,0,1,0,13.383-7.97073ZM992.09118,354.243h0Z"></path><path fill="#82d7ab" d="M1901.42915,1032.82368a10.41183,10.41183,0,1,1,4.20292,14.112A10.41188,10.41188,0,0,1,1901.42915,1032.82368Z"></path><circle cx="1051.622" cy="647.712" r="10.412" fill="#82d7ab"></circle><circle cx="862.302" cy="668.049" r="10.412" fill="#82d7ab" transform="rotate(-16.585 862.302 668.049)"></circle><circle cx="342.374" cy="958.047" r="10.412" fill="#82d7ab"></circle><path fill="#dad4ef" d="M1785.08126,460.98951a7.353,7.353,0,0,1-5.21524-2.16024l-29.06643-29.06643a7.37517,7.37517,0,1,1,10.43049-10.42964l29.06643,29.06642a7.37507,7.37507,0,0,1-5.21525,12.58989Z"></path><path fill="#dad4ef" d="M1756.01484 460.98951a7.37507 7.37507 0 01-5.21525-12.58989L1779.866 419.3332a7.37517 7.37517 0 0110.43049 10.42964l-29.06643 29.06643A7.353 7.353 0 011756.01484 460.98951zM352.25144 725.911a7.352 7.352 0 01-5.21483-2.16024L317.97019 694.6843a7.37487 7.37487 0 0110.42964-10.42965l29.06643 29.06643a7.37507 7.37507 0 01-5.21482 12.58989z"></path><path fill="#dad4ef" d="M323.185,725.911a7.37507,7.37507,0,0,1-5.21482-12.58989l29.06642-29.06643a7.37488,7.37488,0,1,1,10.42965,10.42965l-29.06643,29.06643A7.352,7.352,0,0,1,323.185,725.911Z"></path><path fill="#82d7ab" d="M1586.15621,697.76558a7.353,7.353,0,0,1-5.21525-2.16024l-29.06643-29.06643a7.37518,7.37518,0,0,1,10.4305-10.42965l29.06642,29.06643a7.37507,7.37507,0,0,1-5.21524,12.58989Z"></path><path fill="#82d7ab" d="M1557.08978,697.76558a7.37507,7.37507,0,0,1-5.21525-12.58989l29.06643-29.06643a7.37517,7.37517,0,0,1,10.43049,10.42965L1562.305,695.60534A7.353,7.353,0,0,1,1557.08978,697.76558Z"></path><g><path fill="#dbe6ff" d="M724.08083,576.74939a8.34838,8.34838,0,0,1-1.486-.13432c-1.31328.08937-2.62518.13432-3.91694.13432a57.45561,57.45561,0,0,1-4.06375-114.76727A57.48465,57.48465,0,0,1,791.122,421.144a87.49876,87.49876,0,0,1,165.38095,39.86291q0,.76775-.01354,1.53835a57.46063,57.46063,0,0,1-6.74124,113.886,8.378,8.378,0,0,1-2.28271.31817Z"></path><path fill="#452e63" d="M963.78076,456.65564a94.87755,94.87755,0,0,0-176.158-44.39386,64.86362,64.86362,0,0,0-78.81274,42.95251,64.833,64.833,0,0,0,9.86767,128.91016c1.19727,0,2.40894-.03418,3.62305-.10223a15.59854,15.59854,0,0,0,1.78.10223H947.46533a15.71543,15.71543,0,0,0,3.42261-.37781,64.8439,64.8439,0,0,0,12.89282-127.091ZM948.12964,569.12671a1.02861,1.02861,0,0,1-.66431.24762H724.08081a1.02792,1.02792,0,0,1-.63916-.22681c-1.56811.148-3.15649.22681-4.76392.22681a50.07975,50.07975,0,0,1,0-100.15949c.73047,0,1.45655.01911,2.1792.05011a50.0924,50.0924,0,0,1,73.89551-38.33307,80.11982,80.11982,0,0,1,154.37549,30.07489q0,4.08225-.40137,8.06287a50.07811,50.07811,0,0,1-.59692,100.05707Z"></path><path fill="#b6ccf2" d="M948.12971,552.71154c-.1809.15227-227.84469.24763-229.45176.24763A50.0904,50.0904,0,0,1,669.27153,511.087,50.10122,50.10122,0,0,0,718.678,569.37441c1.60707,0,229.27086.152,229.45176,0a50.3402,50.3402,0,0,0,47.49594-58.496A50.09245,50.09245,0,0,1,948.12971,552.71154Z"></path><path fill="#26ade4" d="M829.1649,501.43289a18.556,18.556,0,0,1-18.53509-18.53509V436.76a18.556,18.556,0,0,1,18.53509-18.53509h67.04324a18.55851,18.55851,0,0,1,18.547,18.53509v46.12548A18.55861,18.55861,0,0,1,896.22,501.43289Z"></path><path fill="#452e63" d="M896.22,410.84991H829.16455a25.93972,25.93972,0,0,0-25.91016,25.91016v46.13751a25.93968,25.93968,0,0,0,25.91016,25.91016H896.208a25.94206,25.94206,0,0,0,25.92212-25.91016V436.77185A25.94207,25.94207,0,0,0,896.22,410.84991Zm11.16016,25.92194v46.12573a11.19314,11.19314,0,0,1-11.16016,11.16H829.16455a11.19292,11.19292,0,0,1-11.15991-11.16V436.76007a11.19272,11.19272,0,0,1,11.15991-11.16H896.22a11.19293,11.19293,0,0,1,11.16016,11.16Z"></path><path fill="#189bc4" d="M896.20805,425.6H862.30237v68.4576h33.90568a11.20484,11.20484,0,0,0,11.17192-11.172V436.77172A11.20461,11.20461,0,0,0,896.20805,425.6Z"></path><rect width="34.448" height="5.276" x="823.897" y="436.069" fill="#fff" rx="2.22"></rect><rect width="34.448" height="5.276" x="823.897" y="445.379" fill="#fff" rx="2.22"></rect><rect width="34.448" height="5.276" x="823.897" y="454.689" fill="#fff" rx="2.22"></rect><path fill="#fff" d="M826.11657,463.99985h30.00913a2.21963,2.21963,0,0,1,2.21963,2.21963v.83659a2.21963,2.21963,0,0,1-2.21963,2.21963h-30.009a2.21963,2.21963,0,0,1-2.21963-2.21963v-.83668A2.21955,2.21955,0,0,1,826.11657,463.99985Z"></path><rect width="13.966" height="5.276" x="823.897" y="473.31" fill="#fff" rx="2.22"></rect><rect width="34.448" height="5.276" x="866.414" y="436.069" fill="#f1f2f2" rx="2.22"></rect><rect width="34.448" height="5.276" x="866.414" y="445.379" fill="#f1f2f2" rx="2.22"></rect><rect width="18" height="5.276" x="866.414" y="454.689" fill="#f1f2f2" rx="2.22"></rect><path fill="#f1f2f2" d="M868.6339,463.99985h30.00922a2.21963,2.21963,0,0,1,2.21963,2.21963v.83659a2.21963,2.21963,0,0,1-2.21963,2.21963H868.634a2.21963,2.21963,0,0,1-2.21963-2.21963v-.83668A2.21955,2.21955,0,0,1,868.6339,463.99985Z"></path><rect width="27.31" height="5.276" x="866.414" y="473.31" fill="#f1f2f2" rx="2.22"></rect><path fill="#f73e48" d="M801.23849,530.52266a18.55606,18.55606,0,0,1-18.5351-18.53518V465.85012a18.556,18.556,0,0,1,18.5351-18.5351h67.04332a18.55851,18.55851,0,0,1,18.5469,18.5351v46.12512a18.55867,18.55867,0,0,1-18.5351,18.54742Z"></path><path fill="#452e63" d="M868.29346,439.93988H801.23828a25.93945,25.93945,0,0,0-25.91015,25.91v46.13758a25.93955,25.93955,0,0,0,25.91015,25.91015h67.04346a25.9421,25.9421,0,0,0,25.92212-25.91015V465.86176A25.942,25.942,0,0,0,868.29346,439.93988Zm11.16015,25.92188v46.12573a11.19292,11.19292,0,0,1-11.16015,11.16H801.23828a11.19287,11.19287,0,0,1-11.15991-11.16V465.84991A11.19262,11.19262,0,0,1,801.23828,454.69h67.05518a11.19267,11.19267,0,0,1,11.16015,11.15991Z"></path><path fill="#f73e48" d="M868.28172,454.68983H834.376v68.45759h33.90568a11.20485,11.20485,0,0,0,11.172-11.172V465.86166A11.20471,11.20471,0,0,0,868.28172,454.68983Z"></path><path fill="#fff" d="M798.06677,465.15906h30.00914a2.21958,2.21958,0,0,1,2.21958,2.21958v.8366a2.21967,2.21967,0,0,1-2.21967,2.21967h-30.0091a2.21961,2.21961,0,0,1-2.21961-2.21961v-.83657a2.21966,2.21966,0,0,1,2.21966-2.21966Z" transform="rotate(-.38 813.075 467.8)"></path><path fill="#fff" d="M798.12846,474.46921h30.00919a2.21962,2.21962,0,0,1,2.21962,2.21962v.83666a2.21961,2.21961,0,0,1-2.21961,2.21961H798.1285a2.21962,2.21962,0,0,1-2.21962-2.21962v-.8367a2.21957,2.21957,0,0,1,2.21957-2.21957Z" transform="rotate(-.38 813.134 477.108)"></path><path fill="#fff" d="M798.19036,483.77941h30.009a2.2197,2.2197,0,0,1,2.2197,2.2197v.83657a2.21961,2.21961,0,0,1-2.21961,2.21961H798.19024a2.21958,2.21958,0,0,1-2.21958-2.21958v-.83661a2.2197,2.2197,0,0,1,2.2197-2.2197Z" transform="rotate(-.38 813.198 486.42)"></path><path fill="#fff" d="M798.25207,493.08956h30.00936a2.21944,2.21944,0,0,1,2.21944,2.21944v.83687a2.21958,2.21958,0,0,1-2.21958,2.21958h-30.0091a2.2197,2.2197,0,0,1-2.2197-2.2197v-.83661a2.21958,2.21958,0,0,1,2.21958-2.21958Z" transform="rotate(-.38 813.251 495.725)"></path><path fill="#fff" d="M798.31423,502.46769h9.52623a2.21963,2.21963,0,0,1,2.21963,2.21963v.83656a2.2197,2.2197,0,0,1-2.2197,2.2197h-9.52623a2.21963,2.21963,0,0,1-2.21963-2.21963v-.83656a2.2197,2.2197,0,0,1,2.2197-2.2197Z" transform="rotate(-.38 803.078 505.106)"></path><path fill="#f1f2f2" d="M840.70766,465.15869h30.00913a2.21963,2.21963,0,0,1,2.21963,2.21963v.83659a2.21963,2.21963,0,0,1-2.21963,2.21963H840.70757A2.21955,2.21955,0,0,1,838.488,468.215v-.83668a2.21963,2.21963,0,0,1,2.21963-2.21963Z"></path><rect width="34.448" height="5.276" x="838.488" y="474.469" fill="#f1f2f2" rx="2.22"></rect><rect width="18" height="5.276" x="838.488" y="483.779" fill="#f1f2f2" rx="2.22"></rect><rect width="34.448" height="5.276" x="838.488" y="493.09" fill="#f1f2f2" rx="2.22"></rect><rect width="27.31" height="5.276" x="838.488" y="502.4" fill="#f1f2f2" rx="2.22"></rect><path fill="#ffda65" d="M772.43938,558.15789a18.556,18.556,0,0,1-18.53509-18.53509V493.48544a18.556,18.556,0,0,1,18.53509-18.5351H839.4827a18.55857,18.55857,0,0,1,18.547,18.5351V539.611a18.55855,18.55855,0,0,1-18.5351,18.54689Z"></path><path fill="#452e63" d="M839.49463,467.5752H772.43945a25.93951,25.93951,0,0,0-25.91015,25.91015v46.13751A25.93956,25.93956,0,0,0,772.43945,565.533h67.04322a25.94194,25.94194,0,0,0,25.92212-25.91016V493.49713A25.94187,25.94187,0,0,0,839.49463,467.5752Zm11.16016,25.92193v46.12573a11.19294,11.19294,0,0,1-11.16016,11.16H772.43945a11.19309,11.19309,0,0,1-11.16015-11.16V493.48535a11.19292,11.19292,0,0,1,11.16015-11.16h67.05518a11.19278,11.19278,0,0,1,11.16016,11.16Z"></path><path fill="#f9cc4e" d="M839.4827,482.32523H805.577v68.4576H839.4827a11.2048,11.2048,0,0,0,11.172-11.172V493.49706A11.20465,11.20465,0,0,0,839.4827,482.32523Z"></path><rect width="34.448" height="5.276" x="767.172" y="492.794" fill="#fff" rx="2.558"></rect><rect width="34.448" height="5.276" x="767.172" y="502.104" fill="#fff" rx="2.558"></rect><rect width="34.448" height="5.276" x="767.172" y="511.415" fill="#fff" rx="2.558"></rect><rect width="34.448" height="5.276" x="767.172" y="520.725" fill="#fff" rx="2.558"></rect><rect width="13.966" height="5.276" x="767.172" y="530.036" fill="#fff" rx="2.558"></rect><path fill="#f1f2f2" d="M812.2472 492.794h29.332a2.5582 2.5582 0 012.5582 2.5582v.15955a2.5582 2.5582 0 01-2.5582 2.5582h-29.332a2.5581 2.5581 0 01-2.5581-2.5581v-.15975a2.5581 2.5581 0 012.5581-2.5581zM812.2472 502.10446h29.332a2.5582 2.5582 0 012.5582 2.5582v.15956a2.5581 2.5581 0 01-2.5581 2.5581H812.2472a2.5581 2.5581 0 01-2.5581-2.5581v-.15966a2.5581 2.5581 0 012.5581-2.5581z"></path><rect width="18" height="5.276" x="809.689" y="511.415" fill="#f1f2f2" rx="2.558"></rect><path fill="#f1f2f2" d="M812.2472,520.72519h29.332a2.5582,2.5582,0,0,1,2.5582,2.5582v.15946a2.5582,2.5582,0,0,1-2.5582,2.5582h-29.332a2.5581,2.5581,0,0,1-2.5581-2.5581v-.15966A2.5581,2.5581,0,0,1,812.2472,520.72519Z"></path><rect width="27.31" height="5.276" x="809.689" y="530.036" fill="#f1f2f2" rx="2.558"></rect></g><g><circle cx="1810.984" cy="684.089" r="171.644" fill="#26ade4"></circle><path fill="#452e63" d="M1975.92871,614.4021a179.55423,179.55423,0,1,0,14.07471,69.68683A178.39929,178.39929,0,0,0,1975.92871,614.4021ZM1810.98438,848.35779a164.26883,164.26883,0,1,1,164.26855-164.26886A164.26911,164.26911,0,0,1,1810.98438,848.35779Z"></path><path fill="#3abb78" d="M1778.76284,852.565a7.36413,7.36413,0,0,1-1.43874-.142,170.16916,170.16916,0,0,1-56.79285-22.44509,7.37452,7.37452,0,0,1-3.46637-6.75652,22.45934,22.45934,0,0,1-15.25848-29.38711h-4.30227a22.45625,22.45625,0,0,1-21.0919-30.15568h-13.00207a7.37535,7.37535,0,0,1-6.62228-4.12856,170.95756,170.95756,0,0,1-11.3884-30.14805,7.37508,7.37508,0,0,1,4.10487-8.67611q1.05486-.47088,2.137-.82948a22.5029,22.5029,0,0,1,1.00492-16.91926,22.59276,22.59276,0,0,1-13.28813-20.00438c-.00165-.06994.01145-1.19771.01362-1.25359a22.52763,22.52763,0,0,1,2.49746-9.59461,7.37425,7.37425,0,0,1-1.6548-5.43985,170.38973,170.38973,0,0,1,40.65734-94.54,7.37529,7.37529,0,0,1,5.58848-2.5627h15.34621a22.37611,22.37611,0,0,1,1.26252-18.19914,7.37413,7.37413,0,0,1,1.95474-2.33564c3.57777-2.81138,7.39328-5.56184,11.3405-8.175.06143-.04069.12373-.08051.18638-.119.05388-.03774.10889-.075.164-.1114a170.93463,170.93463,0,0,1,93.9414-28.19288h.014a7.37257,7.37257,0,0,1,4.52387,1.55059,22.41335,22.41335,0,0,1-3.296,37.60068,22.4482,22.4482,0,0,1-19.959,32.73192h-16.66513a22.32445,22.32445,0,0,1-12.45214-3.77734,22.43949,22.43949,0,0,1,1.80133,19.18289h1.92177a22.44884,22.44884,0,0,1,11.651,41.63978,22.44658,22.44658,0,0,1-19.58661,33.42162H1699.55a22.47522,22.47522,0,0,1,0,15.40556h30.49034a22.4744,22.4744,0,0,1,21.61084,28.56813h24.41641a22.45628,22.45628,0,0,1,21.09147,30.15568h1.92168a22.45369,22.45369,0,0,1,7.8246,43.49969,22.45369,22.45369,0,0,1-14.08334,30.62127,22.41851,22.41851,0,0,1-10.7741,28.74357A7.37732,7.37732,0,0,1,1778.76284,852.565Z"></path><path fill="#452e63" d="M1805.875,742.33405c.01367-.36817.02051-.73676.02051-1.10816a29.86176,29.86176,0,0,0-29.82813-29.82788H1759.8418a29.86416,29.86416,0,0,0-29.80176-28.5686h-21.75537c.00146-.10913.00146-.2182.00146-.32764s0-.21851-.00146-.3277h50.32422a29.83754,29.83754,0,0,0,28.55713-38.45166,29.81532,29.81532,0,0,0-13.82715-50.57928c.01367-.36817.02-.73676.02-1.10822,0-.12951-.00049-.25958-.00244-.38867.6333.04034,1.27343.06091,1.917.06091h16.665a29.84138,29.84138,0,0,0,28.87939-37.30615,29.76812,29.76812,0,0,0-1.1001-46.22607,14.74971,14.74971,0,0,0-9.04785-3.101h-.02734a178.289,178.289,0,0,0-97.98389,29.40827c-.05273.035-.106.07055-.15869.10614-.06934.04425-.13867.08911-.207.13458-4.11182,2.72186-8.09033,5.59009-11.82568,8.525a14.75523,14.75523,0,0,0-3.91016,4.67194,29.83748,29.83748,0,0,0-3.48682,13.95935c0,.10944,0,.21869.00147.32782H1686.46a14.75077,14.75077,0,0,0-11.17725,5.12531,177.73614,177.73614,0,0,0-42.40673,98.61309,14.753,14.753,0,0,0,.82788,6.55786,29.77312,29.77312,0,0,0-1.70288,8.95844q-.00587.16827-.00782.33661l-.00366.27c-.00293.2138-.0061.42755-.00757.64172q-.00145.209.00293.41821a29.6703,29.6703,0,0,0,8.93653,20.64911,30.32868,30.32868,0,0,0,2.84741,2.46955,29.86013,29.86013,0,0,0-.6936,6.41058,30.24423,30.24423,0,0,0,.18188,3.31531,14.753,14.753,0,0,0-4.97217,15.37188A178.3355,178.3355,0,0,0,1650.166,762.797a14.75071,14.75071,0,0,0,13.24414,8.25677h4.26757q-.00219.1637-.002.3277a29.875,29.875,0,0,0,25.40137,29.50037q-.0066.32647-.00684.65521a29.8717,29.8717,0,0,0,17.46485,27.14392,14.74835,14.74835,0,0,0,6.10449,7.56158,177.51273,177.51273,0,0,0,59.2456,23.41394,14.75162,14.75162,0,0,0,9.44776-1.26074,29.81259,29.81259,0,0,0,16.25537-31.20428,29.83873,29.83873,0,0,0,14.13135-31.06525,29.8223,29.8223,0,0,0-9.84473-53.79217Zm8.28369,29.04748a15.12235,15.12235,0,0,1-15.07812,15.07788h-12.69678a15.12254,15.12254,0,0,1,15.07812,15.07764v.00018a15.12257,15.12257,0,0,1-15.07812,15.07776h-14.28418a15.06014,15.06014,0,0,1,6.66309,28.57471,163.24841,163.24841,0,0,1-54.33936-21.47614,15.08817,15.08817,0,0,1,12.75928-7.09857h-14.28418a15.12226,15.12226,0,0,1-15.07813-15.07776v-.00018a15.12223,15.12223,0,0,1,15.07813-15.07764h-25.39453a15.12226,15.12226,0,0,1-15.07764-15.07788v-.00006a15.12221,15.12221,0,0,1,15.07764-15.07782h-34.09375a163.1158,163.1158,0,0,1-10.89624-28.84467,14.921,14.921,0,0,1,6.10522-1.31085h7.60791a15.06022,15.06022,0,0,1,6.67627-28.5686h-11.10986a15.1155,15.1155,0,0,1-15.062-14.7619c.00219-.28058.00732-.56061.01074-.84082a15.11311,15.11311,0,0,1,15.05127-14.55286h-14.24121A163.56656,163.56656,0,0,1,1686.46,576.957h36.43848a15.12226,15.12226,0,0,1-15.07813-15.07776v-.00012a14.938,14.938,0,0,1,1.75977-7.033q5.25585-4.12985,10.855-7.82416a14.98044,14.98044,0,0,1,2.46338-.22052h-2.12793a163.4795,163.4795,0,0,1,89.89941-26.97747,15.06092,15.06092,0,0,1,5.86914,11.89953v.00006a15.12184,15.12184,0,0,1-15.07715,15.07788h-9.52343a15.12215,15.12215,0,0,1,15.07812,15.07764v.00012a15.12225,15.12225,0,0,1-15.07812,15.07776h-16.665a15.12216,15.12216,0,0,1-15.07764-15.07776v-.00012a15.12205,15.12205,0,0,1,15.07764-15.07764h-35.71a15.122,15.122,0,0,1,15.07763,15.07764v.00012a15.12215,15.12215,0,0,1-15.07763,15.07776h3.96728a15.12219,15.12219,0,0,1,15.07813,15.07782v.00006a15.1223,15.1223,0,0,1-15.07813,15.07776h23.01367a15.07785,15.07785,0,0,1,0,30.1557h-7.93554a15.12181,15.12181,0,0,1,15.07763,15.07764v.00012a15.12188,15.12188,0,0,1-15.07763,15.07782H1678.4585a15.12215,15.12215,0,0,1,15.07763,15.07776v.00006a15.12215,15.12215,0,0,1-15.07763,15.07776H1730.04a15.06022,15.06022,0,0,1,6.67627,28.5686h39.35107a15.07776,15.07776,0,0,1,0,30.15552h23.01319a15.1223,15.1223,0,0,1,15.07812,15.07782Z"></path><path fill="#3abb78" d="M1907.23463,824.58181a7.36975,7.36975,0,0,1-2.62674-.4838,22.5947,22.5947,0,0,1-14.49972-20.97373,22.34952,22.34952,0,0,1,5.0776-14.20568,22.42389,22.42389,0,0,1-4.48022-25.606,22.45649,22.45649,0,0,1-11.9332-28.20216h-28.903a22.456,22.456,0,0,1-21.09181-30.15559h-1.12822a22.4545,22.4545,0,0,1-5.00558-44.34366,22.45615,22.45615,0,0,1,13.73931-29.55483,22.426,22.426,0,0,1,3.61846-23.50676,22.44223,22.44223,0,0,1,16.21638-37.96752h8.27031a22.47395,22.47395,0,0,1,0-15.40555h-.33474a22.424,22.424,0,0,1-19.83528-32.93825,7.36853,7.36853,0,0,1,8.29695-3.69682,172.53725,172.53725,0,0,1,93.00892,60.08464,169.83882,169.83882,0,0,1,37.00408,106.463,171.4127,171.4127,0,0,1-71.06672,139.09041A7.37465,7.37465,0,0,1,1907.23463,824.58181Zm9.62932-194.68849a22.475,22.475,0,0,1,0-15.40547H1892.3875a22.475,22.475,0,0,1,0,15.40547Z"></path><path fill="#452e63" d="M1979.76514,624.28558a179.2452,179.2452,0,0,0-125.36621-113.90051,14.74186,14.74186,0,0,0-16.59375,7.39374A29.79412,29.79412,0,0,0,1855.79,560.3584q-.03808.75567-.03809,1.52075c0,.11035.001.22125.002.33136a29.81665,29.81665,0,0,0-24.85694,45.57617,29.85621,29.85621,0,0,0-3.30371,19.34931,29.84293,29.84293,0,0,0-13.6748,28.89019,29.82755,29.82755,0,0,0,6.15088,55.32788q-.02784.6482-.02832,1.30323a29.86192,29.86192,0,0,0,29.82812,29.82806h20.16846q-.00147.1636-.00147.32764a29.79816,29.79816,0,0,0,11.80225,23.75073,29.826,29.826,0,0,0,4.24756,22.82929,29.64428,29.64428,0,0,0-3.353,13.7312,30.01061,30.01061,0,0,0,19.24756,27.86486,14.74883,14.74883,0,0,0,13.90674-1.83667,178.78782,178.78782,0,0,0,74.11621-145.06347A178.544,178.544,0,0,0,1979.76514,624.28558Zm-72.53028,192.92109a15.12089,15.12089,0,0,1-9.75146-14.08234v-.00012a15.12224,15.12224,0,0,1,15.07812-15.0777h-1.5874a15.07785,15.07785,0,1,1,0-30.1557h-11.10986a15.07779,15.07779,0,1,1,0-30.15558h-49.99512a15.12217,15.12217,0,0,1-15.07764-15.07782v-.00012a15.12216,15.12216,0,0,1,15.07764-15.07776h-22.21973a15.12226,15.12226,0,0,1-15.07812-15.07776v-.00006a15.12226,15.12226,0,0,1,15.07812-15.07776H1843.521a15.07779,15.07779,0,1,1,0-30.15558h13.49072a15.12227,15.12227,0,0,1-15.07813-15.07782v-.00012a15.12231,15.12231,0,0,1,15.07813-15.07782h-.79395a15.12256,15.12256,0,0,1-15.07812-15.0777v-.00018a15.12255,15.12255,0,0,1,15.07812-15.07764h29.36182a15.12221,15.12221,0,0,1-15.07764-15.07782v-.00012a15.12205,15.12205,0,0,1,15.07764-15.07764h-21.42627a15.12227,15.12227,0,0,1-15.07764-15.07794v-.00012a14.93983,14.93983,0,0,1,1.75635-7.026,164.29216,164.29216,0,0,1,56.40283,292.50922Z"></path><path fill="#452e63" d="M1937.95557,607.11261h-66.66016a15.12231,15.12231,0,0,1,15.07813,15.07782v.00012a15.12227,15.12227,0,0,1-15.07813,15.07782h66.66016a15.12185,15.12185,0,0,1-15.07764-15.07782v-.00012A15.12189,15.12189,0,0,1,1937.95557,607.11261Zm-29.82618,15.40564h-7.00732q.00147-.16379.00147-.3277,0-.16414-.00147-.32782h7.00732c-.00146.10913-.00146.21832-.00146.3277S1908.12793,622.40906,1908.12939,622.51825Z"></path></g><g><path fill="#6557b2" d="M465.1859,904.8291a7.37409,7.37409,0,0,1-5.16923-2.11491l-70.74334-69.51865a7.375,7.375,0,0,1-.09111-10.42921l82.97442-84.4358a7.37451,7.37451,0,0,1,10.42938-.09111l23.74206,23.331,2.17912-2.21746-16.70062-16.41125a22.19683,22.19683,0,0,1-6.33943-19.24857,15.49619,15.49619,0,0,1-3.11332-14.89546l-.3101-1.11121a11.21825,11.21825,0,0,1-1.82424-6.06638,11.34808,11.34808,0,0,1,.4976-3.43721,16.03765,16.03765,0,0,1,20.765-21.12366,11.33861,11.33861,0,0,1,3.51573-.5533,11.22151,11.22151,0,0,1,6.26256,1.89044l.60562.20165a15.59621,15.59621,0,0,1,15.195,2.77024,22.11284,22.11284,0,0,1,19.35486,6.00114l16.70113,16.4122,2.17929-2.2179-23.74276-23.33045a7.375,7.375,0,0,1-.09128-10.42964l82.97415-84.4358a7.37481,7.37481,0,0,1,5.196-2.20558l.06464-.00043a7.37413,7.37413,0,0,1,5.16906,2.11491l70.74326,69.51873a7.3745,7.3745,0,0,1,.09093,10.42921L622.72646,747.66a7.37473,7.37473,0,0,1-10.42947.091l-23.74233-23.33089-2.179,2.21747,16.70061,16.41169a22.02545,22.02545,0,0,1,6.27314,19.74252,15.59624,15.59624,0,0,1,.28511,15.87921,44.59611,44.59611,0,0,1,47.546,9.68779,7.37482,7.37482,0,0,1,.0911,10.42921l-19.73827,20.08612,1.11468,1.09515a14.74277,14.74277,0,0,1,1.89773-.12286,14.63447,14.63447,0,0,1-.00928,29.26894H640.536a14.65124,14.65124,0,0,1-14.55352-16.285l-1.10088-1.08162-19.73836,20.08569a7.37537,7.37537,0,0,1-10.42964.09153,44.45456,44.45456,0,0,1-10.533-47.35624,15.62565,15.62565,0,0,1-15.87625-.02629,22.23007,22.23007,0,0,1-4.327.4216,22.00365,22.00365,0,0,1-15.51045-6.34394l-16.70105-16.41169-2.17885,2.217,23.74232,23.33175a7.3748,7.3748,0,0,1,.091,10.42921l-82.97407,84.4358a7.37574,7.37574,0,0,1-5.196,2.20558Z"></path><path fill="#452e63" d="M710.77856,647.53516,675.407,612.77545l-35.37182-34.75928a14.7511,14.7511,0,0,0-10.33838-4.22955c-.04346,0-.0857.00025-.12891.00055a14.75147,14.75147,0,0,0-10.39209,4.41126l-13.82886,14.073-13.82861,14.07215L577.68921,620.416l-13.82935,14.073-13.82861,14.07221-13.8291,14.07312a14.74785,14.74785,0,0,0-4.229,10.46728q.00221.28647.01612.5716-.5365-.01914-1.0752-.01917-.94042,0-1.87988.06067a22.788,22.788,0,0,0-11.98706-3.37256,23.10225,23.10225,0,0,0-4.39453.41956,18.67066,18.67066,0,0,0-10.79566-1.361,23.481,23.481,0,0,0-6.38623-.87921,23.39508,23.39508,0,0,0-22.40893,30.12695,18.89119,18.89119,0,0,0-.217,3.03595,18.62462,18.62462,0,0,0,1.76172,7.7818,22.8569,22.8569,0,0,0,3.25,16.34369q-.06519,1.47508.01611,2.94641-.22742-.007-.45557-.007c-.04321,0-.08594.00018-.1289.00055a14.74969,14.74969,0,0,0-10.39185,4.41113l-13.82935,14.073L439.238,761.30609l-13.82886,14.07257-13.82935,14.073-13.82861,14.07227-13.82934,14.07318a14.75,14.75,0,0,0,.18237,20.859L419.47607,873.215l35.37134,34.75964a14.751,14.751,0,0,0,10.33838,4.22968c.04321,0,.08569-.00031.12891-.00061a14.74981,14.74981,0,0,0,10.39184-4.41126l13.8291-14.073,13.82886-14.072,13.82935-14.0733,13.82861-14.07214,13.82935-14.07325,13.82885-14.07214a14.7511,14.7511,0,0,0,4.229-10.46722q-.00257-.28519-.01612-.56885.5409.0195,1.08423.01953a29.91827,29.91827,0,0,0,3.07862-.15808,22.7787,22.7787,0,0,0,7.28491,1.83716A51.83562,51.83562,0,0,0,589.54443,857.186a14.75006,14.75006,0,0,0,20.85889-.18225l11.155-11.35138a22.231,22.231,0,0,0,3.54883,4.52515A22.01143,22.01143,0,1,0,651.374,815.31158l11.15772-11.35418a14.75026,14.75026,0,0,0-.18164-20.85889,51.62816,51.62816,0,0,0-36.39038-14.88892,52.1656,52.1656,0,0,0-7.03443.47541,22.937,22.937,0,0,0-1.95092-7.24494,29.33669,29.33669,0,0,0,.07885-4.20477c.13721.00378.27491.00568.41211.00568a14.70522,14.70522,0,0,0,10.52149-4.41162l13.82885-14.07227,13.82862-14.07245,13.82959-14.073,13.82861-14.0722,13.82935-14.07318,13.82861-14.07215A14.74988,14.74988,0,0,0,710.77856,647.53516Zm-24.16748,24.59277-13.8291,14.073-13.82885,14.07232-13.82935,14.07294-13.82861,14.07233-13.82886,14.07232-35.37183-34.759,6.3689,6.2591-12.51709,12.73761L597.907,748.30957a14.77276,14.77276,0,0,1,3.26709,16.243,8.13031,8.13031,0,0,1,.78565,12.13837l-3.679,3.74371,8.17676,8.03577a37.20559,37.20559,0,0,1,45.55371,5.14838L627.10376,818.965l9.5498,9.38446a7.26154,7.26154,0,1,1-2.31323,2.35388l-9.5498-9.38422-24.90772,25.34607a37.1956,37.1956,0,0,1-5.94287-45.45654l-8.177-8.03583-3.6792,3.74414a8.185,8.185,0,0,1-11.54077.10089,8.25476,8.25476,0,0,1-.60913-.67462,14.78893,14.78893,0,0,1-16.29761-2.98279l-28.33057-27.83966,6.3689,6.25916-12.51709,12.73761,29.00269,28.50055-13.82911,14.07239-13.8291,14.073L506.6731,855.23584,492.84375,869.309l-13.82861,14.0722L465.186,897.4541l-35.37159-34.75964-35.37182-34.759,13.8291-14.073L422.10059,799.79l13.82934-14.07294,13.82861-14.07239,13.82886-14.0722,13.82935-14.07306L506.41919,772l12.51758-12.73828L496.97559,737.6814a14.7706,14.7706,0,0,1-3.04444-16.7334,8.06793,8.06793,0,0,1-2.48779-1.66071,8.18559,8.18559,0,0,1-1.29028-9.97827l-1.39478-5.00012a3.919,3.919,0,0,1-.04834-5.52606l.68506-.69727a8.65273,8.65273,0,0,1,12.12939-12.34326l.68531-.69727a3.91947,3.91947,0,0,1,5.52636-.0484l4.64966,1.54663a8.19065,8.19065,0,0,1,10.37378.87659,8.08175,8.08175,0,0,1,1.70386,2.45789,14.78554,14.78554,0,0,1,16.78369,2.75219L569.5769,720.47l-6.36889-6.25909,12.51758-12.73822-29.00293-28.49994,13.8291-14.073,13.8291-14.07239L588.21,630.75446l13.82861-14.07233,13.82911-14.07233,13.8291-14.073,35.37158,34.759,35.37158,34.75976Z"></path><path fill="#26ade4" d="M488.71,698.78257,502.20976,685.045a3.91929,3.91929,0,0,1,5.52635-.04833l8.98708,2.9902c1.53306,1.5065-1.36543,6.965-2.87194,8.49807L500.3515,710.2226c-1.50642,1.533-7.42339,5.04515-8.95636,3.53864l-2.63689-9.45232A3.91929,3.91929,0,0,1,488.71,698.78257Z"></path><rect width="8.93" height="17.859" x="590.797" y="787.318" fill="#189bc4" transform="rotate(-45.5 595.261 796.247)"></rect><rect width="8.93" height="17.859" x="597.055" y="780.949" fill="#26ade4" transform="rotate(-45.5 601.52 789.878)"></rect><rect width="17.859" height="8.93" x="513.302" y="770.555" fill="#26ade4" transform="rotate(-45.5 522.232 775.02)"></rect><rect width="17.859" height="8.93" x="506.933" y="764.296" fill="#189bc4" transform="rotate(-45.5 515.863 768.76)"></rect><rect width="17.859" height="8.93" x="570.091" y="712.765" fill="#26ade4" transform="rotate(-45.5 579.02 717.23)"></rect><rect width="17.859" height="8.93" x="563.722" y="706.507" fill="#189bc4" transform="rotate(-45.5 572.651 710.971)"></rect><path fill="#7f6dc6" d="M489.29906,685.85955a8.65347,8.65347,0,0,0,.10681,12.23731l12.13042-12.34412A8.6533,8.6533,0,0,0,489.29906,685.85955Z"></path><path fill="#6557b2" d="M569.01335,772.92307h34.37509a5.15213,5.15213,0,0,1,5.15213,5.15213v6.01758a5.152,5.152,0,0,1-5.152,5.152h-34.3752a5.15208,5.15208,0,0,1-5.15208-5.15208v-6.01758a5.1521,5.1521,0,0,1,5.1521-5.1521Z" transform="rotate(-45.5 586.2 781.084)"></path><path fill="#6557b2" d="M489.91392,695.19289H524.289a5.15208,5.15208,0,0,1,5.15208,5.15208v6.01755a5.1521,5.1521,0,0,1-5.1521,5.1521H489.91371a5.152,5.152,0,0,1-5.152-5.152v-6.01749a5.15222,5.15222,0,0,1,5.15222-5.15222Z" transform="rotate(-45.5 507.101 703.354)"></path><path fill="#7f6dc6" d="M532.86137,688.49836h29.16a17.00133,17.00133,0,0,1,17.00133,17.00133v74.99143a17.00131,17.00131,0,0,1-17.00131,17.00131H532.86148A17.00143,17.00143,0,0,1,515.86,780.491V705.49968A17.00132,17.00132,0,0,1,532.86137,688.49836Z" transform="rotate(-45.5 547.441 742.995)"></path><rect width="19.73" height="49.592" x="665.975" y="622.916" fill="#7f6dc6" transform="rotate(-45.5 675.84 647.712)"></rect><rect width="19.73" height="49.592" x="638.317" y="651.061" fill="#7f6dc6" transform="rotate(-45.5 648.182 675.857)"></rect><rect width="19.73" height="49.592" x="610.659" y="679.207" fill="#7f6dc6" transform="rotate(-45.5 620.524 704.003)"></rect><rect width="19.73" height="49.592" x="630.603" y="588.157" fill="#7f6dc6" transform="rotate(-45.5 640.468 612.953)"></rect><rect width="19.73" height="49.592" x="602.945" y="616.302" fill="#7f6dc6" transform="rotate(-45.5 612.81 641.098)"></rect><rect width="19.73" height="49.592" x="575.287" y="644.447" fill="#7f6dc6" transform="rotate(-45.5 585.152 669.243)"></rect><rect width="19.73" height="49.592" x="652.146" y="636.989" fill="#6557b2" transform="rotate(-45.5 662.01 661.785)"></rect><rect width="19.73" height="49.592" x="624.488" y="665.134" fill="#6557b2" transform="rotate(-45.5 634.353 689.93)"></rect><rect width="19.73" height="49.592" x="596.83" y="693.279" fill="#6557b2" transform="rotate(-45.5 606.695 718.075)"></rect><rect width="19.73" height="49.592" x="616.774" y="602.229" fill="#6557b2" transform="rotate(-45.5 626.639 627.025)"></rect><rect width="19.73" height="49.592" x="589.116" y="630.375" fill="#6557b2" transform="rotate(-45.5 598.981 655.17)"></rect><rect width="19.73" height="49.592" x="561.458" y="658.52" fill="#6557b2" transform="rotate(-45.5 571.323 683.316)"></rect><rect width="19.73" height="49.592" x="513.695" y="777.879" fill="#7f6dc6" transform="rotate(-45.5 523.56 802.675)"></rect><rect width="19.73" height="49.592" x="486.037" y="806.024" fill="#7f6dc6" transform="rotate(-45.5 495.902 830.82)"></rect><rect width="19.73" height="49.592" x="458.379" y="834.169" fill="#7f6dc6" transform="rotate(-45.5 468.244 858.965)"></rect><rect width="19.73" height="49.592" x="478.323" y="743.12" fill="#7f6dc6" transform="rotate(-45.5 488.188 767.916)"></rect><rect width="19.73" height="49.592" x="450.665" y="771.265" fill="#7f6dc6" transform="rotate(-45.5 460.53 796.06)"></rect><rect width="19.73" height="49.592" x="423.007" y="799.41" fill="#7f6dc6" transform="rotate(-45.5 432.872 824.206)"></rect><rect width="19.73" height="49.592" x="499.866" y="791.951" fill="#6557b2" transform="rotate(-45.5 509.73 816.747)"></rect><rect width="19.73" height="49.592" x="472.208" y="820.097" fill="#6557b2" transform="rotate(-45.5 482.073 844.893)"></rect><rect width="19.73" height="49.592" x="444.55" y="848.242" fill="#6557b2" transform="rotate(-45.5 454.415 873.038)"></rect><rect width="19.73" height="49.592" x="464.494" y="757.192" fill="#6557b2" transform="rotate(-45.5 474.359 781.988)"></rect><rect width="19.73" height="49.592" x="436.836" y="785.337" fill="#6557b2" transform="rotate(-45.5 446.701 810.133)"></rect><rect width="19.73" height="49.592" x="409.178" y="813.483" fill="#6557b2" transform="rotate(-45.5 419.043 838.279)"></rect><rect width="3.301" height="21.118" x="628.532" y="813.745" fill="#26ade4" transform="rotate(-45.5 630.182 824.304)"></rect><path fill="#7f6dc6" d="M599.42369,794.07777a37.18656,37.18656,0,0,0,.45916,52.58776l52.1286-53.04693A37.18664,37.18664,0,0,0,599.42369,794.07777Z"></path><path fill="#ffda65" d="M635.44714,839.65809a7.26128,7.26128,0,1,1,10.26861-.08963A7.26123,7.26123,0,0,1,635.44714,839.65809Z"></path></g><g><path fill="#452e63" d="M682.9209,1072.05688c-1.845,0-3.748.07813-5.7981.23768l-97.324-.20215c.08545-.08118.16772-.15674.2539-.23889,6.2649-5.98462,14.74561-15.5647,19.57593-27.22071,8.58863-1.53344,23.93433-7.40332,31.8291-19.23486a28.219,28.219,0,0,0,2.53394-27.2497c-3.50586-8.43286-2.78931-11.81109-2.31909-12.87213.94848-2.139,4.697-4.50671,10.28491-6.496a14.75024,14.75024,0,0,0,8.71411-8.33386,15.04144,15.04144,0,0,0-1.48535-14.0846c-2.1294-3.16583-5.72778-6.55395-17.54126-9.88012a83.46906,83.46906,0,0,0-21.60107-3.18482c-16.0127,0-24.40113,6.38642-28.61866,11.74384a36.87968,36.87968,0,0,0-5.05273,8.5036c2.2583-6.11939,7.36059-12.78974,15.27246-19.91962a14.75139,14.75139,0,0,0,4.87524-11.0249c-.02734-5.94562-3.72924-13.55-14.072-15.41382a44.992,44.992,0,0,0-7.88867-.57959,141.209,141.209,0,0,0-42.19922,7.352c-26.699,9.19281-35.78979,23.4585-38.7146,33.80713-3.64013,12.87939-2.6958,24.835,2.77442,35.69354a61.70458,61.70458,0,0,0-5.43457,4.4693,87.3,87.3,0,0,0-12.79029,14.55744c-10.59668,15.427-9.57348,27.11047-6.84985,34.19506,8.69482,22.61206,30.33838,22.61206,37.45068,22.61206,4.68726,0,9.459-.354,14.5105-.72876q1.40918-.10455,2.8501-.209c.19189-.01392.37646-.0227.55127-.02649a35.75973,35.75973,0,0,1,.62549,3.61218l.00586.04273-25.27149-.05249q-.52734-.03772-1.06445-.03809h-8.36914c-.238,0-.47559.00574-.71094.01685l-48.66821-.10083h-.04029a19.39188,19.39188,0,0,0-19.36279,19.32348l-.13574,65.06226c-.05078,24.53442,8.32837,79.32336,22.43872,128.54272,7.77539,27.12354,16.21143,49.01636,25.07275,65.07007,5.46411,9.89942,10.97046,17.40967,16.83448,22.96,7.86914,7.44849,16.34863,11.23438,25.20385,11.25281l99.06446.20618h.0625c12.39257,0,23.96679-7.35791,34.4021-21.86987,7.427-10.32837,14.6831-24.79639,21.5664-43.00257,10.03223-26.53589,19.324-61.22217,25.949-96.62366a75.76756,75.76756,0,0,0-11.38965-150.67334Zm23.127,75.76392a23.00407,23.00407,0,0,1-3.81006,12.699q.05932-1.96583.063-3.74549l.04468-21.48608A23.01866,23.01866,0,0,1,706.04785,1147.8208Z"></path><path fill="#137a58" d="M682.92077,1086.80758a61.01369,61.01369,0,1,0,61.01243,61.0133A61.08177,61.08177,0,0,0,682.92077,1086.80758Zm37.87729,61.0133a37.87746,37.87746,0,1,1-37.87729-37.87616A37.91923,37.91923,0,0,1,720.79806,1147.82088Z"></path><path fill="#148c66" d="M683.083,1087.05686l-239.85833-.49821a4.613,4.613,0,0,0-4.62251,4.60317l-.13518,65.06368c-.09944,47.88507,33.46864,212.95887,74.82965,213.04477l99.06411.20581c41.36066.08589,75.09056-164.84812,75.19-212.7332l.13518-65.06359A4.613,4.613,0,0,0,683.083,1087.05686Z"></path><path fill="#137a58" d="M683.083,1087.05729l-35.34651-.07383-.09232,44.55553c-.09943,47.88447-8.6834,121.08484-59.09178,169.3929s-103.62112,43.15861-103.62112,43.15861c8.7496,15.42039,18.32781,25.159,28.36553,25.17959l99.064.20616c41.36083.08616,75.09047-164.84864,75.19-212.73311l.13535-65.06359A4.61279,4.61279,0,0,0,683.083,1087.05729Z"></path><path fill="#3abb78" d="M540.24444,1086.71682l-97.01957-.15791a4.61307,4.61307,0,0,0-4.62269,4.60274l-.13544,65.06359c-.05536,26.87178,10.491,90.64318,27.06665,141.45659C533.94336,1224.26914,540.24444,1086.71682,540.24444,1086.71682Z"></path><path fill="#dbe6ff" d="M580.81545,1009.103c-26.5531-26.5531-28.54-49.85474.95468-76.4356-.01875-4.0352-65.72223.06742-73.93042,29.10972s15.763,42.49634,44.55,60.98744,2.8171,43.81344,4.30383,47.64213C557.80273,1073.2641,607.36854,1035.656,580.81545,1009.103Z"></path><path fill="#dbe6ff" d="M533.17175 1038.15333c-20.58363-2.961-29.197-12.63253-24.941-34.20468-1.34729-1.78285-29.11571 21.839-23.11753 37.43878s21.09052 13.61011 39.98942 12.25553 15.78793 18.49 17.71751 19.69411C544.2602 1074.23587 553.75547 1041.11438 533.17175 1038.15333zM620.371 1003.80939c-7.98173-19.20284-4.07529-31.5506 16.63927-38.925.843-2.06953-33.65693-13.85228-43.99512-.72024s-.91034 25.08424 9.91833 40.63217-7.81557 23.023-7.86355 25.297C595.034 1031.79039 628.35268 1023.01215 620.371 1003.80939z"></path><path fill="#ffda65" d="M490.4,1201.14927a7.37515,7.37515,0,0,1-7.37507-7.37507v-27.465a27.64776,27.64776,0,0,1,27.61667-27.61667h10.15294a27.64776,27.64776,0,0,1,27.61667,27.61667v27.465a7.37515,7.37515,0,0,1-7.37507,7.37507Z"></path><path fill="#452e63" d="M520.79443,1131.31738H510.6416a35.03148,35.03148,0,0,0-34.9917,34.9917v27.46509a14.75011,14.75011,0,0,0,14.75,14.75h50.63623a14.75016,14.75016,0,0,0,14.75025-14.75v-27.46509A35.03122,35.03122,0,0,0,520.79443,1131.31738Zm20.2417,62.45679H490.3999v-27.46509a20.24165,20.24165,0,0,1,20.2417-20.24158h10.15283a20.24165,20.24165,0,0,1,20.2417,20.24158Z"></path><path fill="#452e63" d="M516.09033,1071.89551a8.50011,8.50011,0,0,0-8.5,8.5v56.709a8.5,8.5,0,0,0,17,0v-56.709A8.5001,8.5001,0,0,0,516.09033,1071.89551Z"></path></g><g><path fill="#452e63" d="M1869.06592,1046.595a37.9686,37.9686,0,0,0-19.14014-10.77808,18.94056,18.94056,0,0,0-11.33252-3.76611h-27.07959a18.92208,18.92208,0,0,0-9.98974,2.85584h-69.7544a38.15593,38.15593,0,0,0-34.94238,22.99536,18.97467,18.97467,0,0,0-6.25147,14.05285v19.68824a18.90271,18.90271,0,0,0,3.10987,10.36694v8.79419a17.26971,17.26971,0,0,0-3.10987,9.90625v8.87329a17.26826,17.26826,0,0,0,3.10987,9.90588v3.59559a17.26861,17.26861,0,0,0-3.10987,9.906v8.87329a17.26914,17.26914,0,0,0,3.10987,9.90625v175.76489a38.127,38.127,0,0,0,38.084,38.08374h109.88623a38.12647,38.12647,0,0,0,38.083-38.08374V1072.99048A37.87364,37.87364,0,0,0,1869.06592,1046.595Z"></path><path fill="#dbe6ff" d="M1731.76928,1049.657h109.886a23.33349,23.33349,0,0,1,23.33349,23.33349V1347.536a23.33323,23.33323,0,0,1-23.33323,23.33323H1731.76937a23.33331,23.33331,0,0,1-23.33331-23.33331V1072.99018A23.33323,23.33323,0,0,1,1731.76928,1049.657Z"></path><path fill="#dbe6ff" d="M1811.51333 1046.80064h27.08019a4.25671 4.25671 0 014.25671 4.25671v7.3945a4.25689 4.25689 0 01-4.25689 4.25689h-27.07985a4.2568 4.2568 0 01-4.2568-4.2568v-7.39467A4.25663 4.25663 0 011811.51333 1046.80064zM1709.58266 1067.69862h10.62313a4.25663 4.25663 0 014.25663 4.25663v19.68734a4.25671 4.25671 0 01-4.25671 4.25671h-10.623a4.25663 4.25663 0 01-4.25663-4.25663v-19.68752A4.25654 4.25654 0 011709.58266 1067.69862zM1707.93958 1118.09694H1721.849a2.61338 2.61338 0 012.61338 2.61338v8.8735a2.61346 2.61346 0 01-2.61346 2.61346h-13.90928a2.61355 2.61355 0 01-2.61355-2.61355v-8.87333A2.61346 2.61346 0 011707.93958 1118.09694z"></path><rect width="19.136" height="14.1" x="1705.326" y="1150.378" fill="#dbe6ff" rx="2.613"></rect><path fill="#99b3e0" d="M1771.82994 1076.05639h29.765a1.28213 1.28213 0 011.28213 1.28213v.09622a1.28213 1.28213 0 01-1.28213 1.28213h-29.7648a1.28222 1.28222 0 01-1.28222-1.28222v-.09622a1.282 1.282 0 011.282-1.282zM1778.98219 1064.72317h15.46022a1.28222 1.28222 0 011.28222 1.28222v.09622a1.28213 1.28213 0 01-1.28213 1.28213h-15.4603a1.282 1.282 0 01-1.282-1.282v-.09648a1.282 1.282 0 011.282-1.282zM1764.36941 1076.96378a4.21568 4.21568 0 11-4.21576-4.2155A4.21564 4.21564 0 011764.36941 1076.96378zM1796.11194 1339.02721a13.29312 13.29312 0 100 18.79852A13.30915 13.30915 0 001796.11194 1339.02721z"></path><path fill="#fff" d="M1734.1234,1321.764a10.93237,10.93237,0,0,1-10.67475-11.14988V1119.159a10.93235,10.93235,0,0,1,10.67475-11.1498h105.5874a10.93235,10.93235,0,0,1,10.67476,11.1498v191.45509a10.93237,10.93237,0,0,1-10.67476,11.14988Z"></path><path fill="#452e63" d="M1839.71094,1100.63416h-105.5874a18.31292,18.31292,0,0,0-18.04981,18.52514V1310.614a18.31306,18.31306,0,0,0,18.04981,18.52539h105.5874a18.31305,18.31305,0,0,0,18.0498-18.52539V1119.1593A18.31292,18.31292,0,0,0,1839.71094,1100.63416Zm3.2998,209.97985a3.57212,3.57212,0,0,1-3.2998,3.77515h-105.5874a3.57212,3.57212,0,0,1-3.29981-3.77515V1119.1593a3.57192,3.57192,0,0,1,3.29981-3.775h105.5874a3.57192,3.57192,0,0,1,3.2998,3.775Z"></path><path fill="#f1f2f2" d="M1839.71063,1115.38422h-22.02437v65.2491c0,52.48989-37.39808,96.6634-86.86289,107.20757v22.77324a3.57238,3.57238,0,0,0,3.30029,3.775h105.587a2.93075,2.93075,0,0,0,1.49974-.434,6.851,6.851,0,0,0,1.79969-4.42643V1119.15921A3.57167,3.57167,0,0,0,1839.71063,1115.38422Z"></path><path fill="#26ade4" d="M1802.55506 1138.76569h-55.98767a6.80931 6.80931 0 01-6.80935-6.80927h0a6.80939 6.80939 0 016.80935-6.80935h55.98767a6.80932 6.80932 0 016.80927 6.80935h0A6.80925 6.80925 0 011802.55506 1138.76569zM1747.86814 1143.6662h79.11013a8.1101 8.1101 0 018.1101 8.1101v48.929a8.11 8.11 0 01-8.11 8.11H1747.868a8.11 8.11 0 01-8.11-8.11v-48.929A8.1101 8.1101 0 011747.86814 1143.6662z"></path><path fill="#b6ccf2" d="M1747.868 1219.98622h79.11023a8.1101 8.1101 0 018.1101 8.1101v21.401a8.1101 8.1101 0 01-8.1101 8.1101H1747.868a8.11 8.11 0 01-8.11-8.11v-21.40115A8.11 8.11 0 011747.868 1219.98622zM1747.868 1268.19224h79.11023a8.1101 8.1101 0 018.1101 8.1101v21.401a8.1101 8.1101 0 01-8.1101 8.1101h-79.11013a8.1101 8.1101 0 01-8.1101-8.1101v-21.40114A8.11 8.11 0 011747.868 1268.19224z"></path><path fill="#189bc4" d="M1828.05152,1143.66629h-10.36526v36.967a108.79957,108.79957,0,0,1-3.69942,28.182h14.06468a7.03661,7.03661,0,0,0,7.03694-7.03676v-51.07579A7.03651,7.03651,0,0,0,1828.05152,1143.66629Z"></path><path fill="#99b3e0" d="M1828.05152 1219.98614h-17.71577a110.22508 110.22508 0 01-24.42821 37.62124h42.144a7.0366 7.0366 0 007.03694-7.03668V1227.023A7.03675 7.03675 0 001828.05152 1219.98614zM1828.05152 1268.19224H1773.796a109.55607 109.55607 0 01-34.03765 17.34034v13.24405a7.03651 7.03651 0 007.03616 7.03677h81.25706a7.03662 7.03662 0 007.03694-7.03677V1275.229A7.03673 7.03673 0 001828.05152 1268.19224z"></path></g><g><path fill="#452e63" d="M1674.57959,1331.68433a14.74663,14.74663,0,0,0-.58594-5.03638,29.37,29.37,0,0,0-27.97314-20.90772h-28.79785a53.98822,53.98822,0,0,0,6.07666-24.95263V794.76868a54.39144,54.39144,0,0,0-54.33008-54.32978H864.24268a54.39139,54.39139,0,0,0-54.32984,54.32978V1280.7876a53.99083,53.99083,0,0,0,6.07617,24.95263H787.19116a29.36754,29.36754,0,0,0-27.97265,20.90943,14.745,14.745,0,0,0-.58545,5.03308,31.8976,31.8976,0,0,0-.62281,6.2926,47.98441,47.98441,0,0,0,47.93018,47.93018H1627.272a47.98415,47.98415,0,0,0,47.92969-47.93018A31.936,31.936,0,0,0,1674.57959,1331.68433Z"></path><path fill="#dbe6ff" d="M864.30274,1327.83994a47.01011,47.01011,0,0,1-46.95416-46.94185l-.1351-486.01835a47.07058,47.07058,0,0,1,46.94185-46.9677l704.72613-.19575a47.01368,47.01368,0,0,1,46.96822,46.94194l.13466,486.01826a47.07058,47.07058,0,0,1-46.94141,46.9677l-704.72656.19575Z"></path><path fill="#452e63" d="M1623.22461,794.65594a54.39265,54.39265,0,0,0-54.32715-54.31475v14.75018l-.00024-14.75018-704.74414.19568a54.44622,54.44622,0,0,0-54.3147,54.34509l.135,486.01831a54.39445,54.39445,0,0,0,54.32983,54.31482l704.7417-.19568a54.44593,54.44593,0,0,0,54.31446-54.34534Zm-54.18408,525.61335-704.72632.1958h-.011a39.69457,39.69457,0,0,1-39.57983-39.56885l-.13477-486.01843A39.69593,39.69593,0,0,1,864.15723,755.287l704.72631-.19562h.011a39.69342,39.69342,0,0,1,39.58008,39.56873l.13477,486.01837A39.69588,39.69588,0,0,1,1569.04053,1320.26929Z"></path><path fill="#b6ccf2" d="M1552.61259,1308.43172l-671.87682.18654a39.69592,39.69592,0,0,1-39.59081-39.56877l-.12842-462.334a39.696,39.696,0,0,1,39.56887-39.59082l671.87672-.18663a39.69608,39.69608,0,0,1,39.59091,39.56887l.12841,462.334A39.69613,39.69613,0,0,1,1552.61259,1308.43172Z"></path><path fill="#dbe6ff" d="M806.01657,1378.64432a40.60344,40.60344,0,0,1-40.555-40.5442,24.88811,24.88811,0,0,1,24.85293-24.86663l852.72187-.23687a24.89081,24.89081,0,0,1,24.86664,24.85275,40.60079,40.60079,0,0,1-40.54333,40.567l-821.33161.22793Z"></path><path fill="#452e63" d="M1643.04517,1305.62183h-.00293l-852.72974.23669a32.28617,32.28617,0,0,0-32.22607,32.24377,47.98782,47.98782,0,0,0,47.93066,47.91736l821.34473-.22839a47.984,47.984,0,0,0,47.916-47.94373A32.27163,32.27163,0,0,0,1643.04517,1305.62183Zm-15.68775,65.41943-821.33154.22827h-.00928a33.27687,33.27687,0,0,1-33.17993-33.17139,17.536,17.536,0,0,1,17.48-17.4895l852.72168-.23669h.00513a17.5341,17.5341,0,0,1,17.48437,17.47973A33.2772,33.2772,0,0,1,1627.35742,1371.04126Z"></path><path fill="#b6ccf2" d="M1643.03859,1320.37212h-2.00307a17.34514,17.34514,0,0,1,.18117,2.36635,33.27711,33.27711,0,0,1-33.17035,33.19l-821.33152.22793a32.90231,32.90231,0,0,1-9.31688-1.34634,33.24458,33.24458,0,0,0,28.62792,16.45932l821.33152-.22793a33.27711,33.27711,0,0,0,33.17035-33.19A17.53478,17.53478,0,0,0,1643.03859,1320.37212Z"></path><path fill="#6557b2" d="M1222.80511 778.21825a6.27822 6.27822 0 11-6.27982-6.27652A6.2784 6.2784 0 011222.80511 778.21825zM1222.94915 1297.00948a6.27818 6.27818 0 11-6.27974-6.27653A6.2782 6.2782 0 011222.94915 1297.00948z"></path><path fill="#b6ccf2" d="M773.43354,1330.96835l886.4936-.24624a14.48166,14.48166,0,0,0-13.835-10.35112l-858.82965.23852A14.48113,14.48113,0,0,0,773.43354,1330.96835Z"></path><path fill="#fff" d="M879.47447,1282.977a21.49146,21.49146,0,0,1-21.63844-21.2919V816.3436a21.49181,21.49181,0,0,1,21.63844-21.29224H1549.8583a21.49219,21.49219,0,0,1,21.63887,21.29224v445.34149a21.49183,21.49183,0,0,1-21.63887,21.2919Z"></path><path fill="#452e63" d="M1549.85864,787.67627h-670.384a28.87445,28.87445,0,0,0-29.01367,28.66724v445.34155a28.87444,28.87444,0,0,0,29.01367,28.667h670.384a28.8747,28.8747,0,0,0,29.01343-28.667V816.34351A28.87471,28.87471,0,0,0,1549.85864,787.67627Zm14.26319,474.00879a14.13436,14.13436,0,0,1-14.26319,13.91687h-670.384a14.13462,14.13462,0,0,1-14.26367-13.91687V816.34351a14.13487,14.13487,0,0,1,14.26367-13.91712h670.384a14.13461,14.13461,0,0,1,14.26319,13.91712Z"></path><path fill="#f1f2f2" d="M1295.32967,1223.63974H865.21109v38.04535a14.13443,14.13443,0,0,0,14.26294,13.91675h670.38436a14.13455,14.13455,0,0,0,14.26372-13.91675V816.68676a14.30537,14.30537,0,0,0-14.2553-14.26l-.00842-.00043h-36.20176v202.88609C1513.65663,1125.39235,1415.40916,1223.63974,1295.32967,1223.63974Z"></path><path fill="#6557b2" d="M1553.0157,802.42642H876.31716a11.13886,11.13886,0,0,0-11.10624,11.10624v32.93782h698.911V813.53266A11.13886,11.13886,0,0,0,1553.0157,802.42642Z"></path><path fill="#4e469e" d="M1553.01544,802.42634h-3.14777l-.00086.00043-31.6838-.00043h-4.52638v44.044h50.46548V813.53258A11.13939,11.13939,0,0,0,1553.01544,802.42634Z"></path><path fill="#ff494b" d="M1485.76657,824.44836a9.98458,9.98458,0,1,1-9.98453-9.98462A9.98444,9.98444,0,0,1,1485.76657,824.44836Z"></path><path fill="#3abb78" d="M1508.03831,814.46374a9.98445,9.98445,0,1,0,9.98436,9.98462A9.98459,9.98459,0,0,0,1508.03831,814.46374Z"></path><path fill="#f9cc4e" d="M1540.29467,814.46374a9.98445,9.98445,0,1,0,9.98436,9.98462A9.98489,9.98489,0,0,0,1540.29467,814.46374Z"></path><path fill="#26ade4" d="M899.46451 880.14515h171.63078a11.19326 11.19326 0 0111.19326 11.19326v0a11.19333 11.19333 0 01-11.19333 11.19333H899.46444a11.19326 11.19326 0 01-11.19326-11.19326v0a11.19333 11.19333 0 0111.19333-11.19333zM899.86252 919.32175h170.883a11.56714 11.56714 0 0111.56714 11.56714v94.95473a11.56714 11.56714 0 01-11.56714 11.56714h-170.883a11.56714 11.56714 0 01-11.56714-11.56714V930.88888a11.56713 11.56713 0 0111.56713-11.56713z"></path><path fill="#99b3e0" d="M1293.09884 902.44626l-171.63066.04763a11.19327 11.19327 0 01-11.19639-11.19014h0a11.19317 11.19317 0 0111.19014-11.19639l171.63075-.04772a11.1933 11.1933 0 0111.19639 11.19023h0A11.19329 11.19329 0 011293.09884 902.44626zM1069.588 1078.55792l-171.63075.04764a11.19328 11.19328 0 01-11.19639-11.19014h0a11.19332 11.19332 0 0111.19023-11.19648l171.63066-.04763a11.19328 11.19328 0 0111.19639 11.19022h0A11.19326 11.19326 0 011069.588 1078.55792zM1069.588 1113.97463l-171.63075.04763a11.19327 11.19327 0 01-11.19639-11.19014h0a11.19331 11.19331 0 0111.19023-11.19647l171.63066-.04764a11.19329 11.19329 0 0111.19639 11.19023h0A11.19327 11.19327 0 011069.588 1113.97463zM1069.588 1149.39133l-171.63075.04764a11.19329 11.19329 0 01-11.19639-11.19015h0a11.19331 11.19331 0 0111.19023-11.19647l171.63066-.04763a11.19328 11.19328 0 0111.19639 11.19022h0A11.19326 11.19326 0 011069.588 1149.39133zM1069.588 1184.808l-171.63075.04763a11.19328 11.19328 0 01-11.19639-11.19014h0a11.19332 11.19332 0 0111.19023-11.19648l171.63066-.04763a11.19329 11.19329 0 0111.19639 11.19023h0A11.19327 11.19327 0 011069.588 1184.808zM978.17755 1220.22474l-80.22031.04764a11.19329 11.19329 0 01-11.19639-11.19015h0a11.19331 11.19331 0 0111.19023-11.19647l80.22022-.04763a11.19329 11.19329 0 0111.19639 11.19022h0A11.19327 11.19327 0 01978.17755 1220.22474z"></path><path fill="#b6ccf2" d="M1120.17394 919.26839h114.2053a12.18924 12.18924 0 0112.18924 12.18924v92.91114a12.18934 12.18934 0 01-12.18934 12.18934h-114.2052a12.18925 12.18925 0 01-12.18925-12.18925V931.45763a12.18924 12.18924 0 0112.18924-12.18924zM1268.13251 919.2273h114.20531a12.18924 12.18924 0 0112.18924 12.18924v92.91124a12.18924 12.18924 0 01-12.18924 12.18924H1268.13261a12.18934 12.18934 0 01-12.18934-12.18934V931.41654a12.18924 12.18924 0 0112.18924-12.18924zM1416.09109 919.18622h114.20529a12.18924 12.18924 0 0112.18924 12.18924v92.91119a12.18924 12.18924 0 01-12.18924 12.18924H1416.09118a12.18934 12.18934 0 01-12.18934-12.18934V931.37547A12.18925 12.18925 0 011416.09109 919.18622zM1120.21068 1051.59525h114.20521a12.18934 12.18934 0 0112.18934 12.18934v92.9111a12.18924 12.18924 0 01-12.18924 12.18924H1120.2107a12.18925 12.18925 0 01-12.18925-12.18925v-92.91119a12.18924 12.18924 0 0112.18924-12.18924zM1268.16935 1051.55412h114.20521a12.18924 12.18924 0 0112.18924 12.18924v92.91114a12.18934 12.18934 0 01-12.18934 12.18934H1268.16926A12.18924 12.18924 0 011255.98 1156.6546v-92.91114a12.18934 12.18934 0 0112.18934-12.18934zM1416.12792 1051.513h114.20521a12.18924 12.18924 0 0112.18924 12.18924v92.91124a12.18924 12.18924 0 01-12.18924 12.18924H1416.12793a12.18934 12.18934 0 01-12.18934-12.18934v-92.911a12.18934 12.18934 0 0112.18934-12.18934zM1120.24011 1183.92207h114.20521a12.18924 12.18924 0 0112.18924 12.18924V1232.465a12.18925 12.18925 0 01-12.18925 12.18925H1120.24009a12.18933 12.18933 0 01-12.18933-12.18933v-36.35347a12.18934 12.18934 0 0112.18934-12.18934zM1268.19854 1183.88095h114.20531a12.18924 12.18924 0 0112.18924 12.18924v36.35364a12.18925 12.18925 0 01-12.18925 12.18925H1268.19854a12.18924 12.18924 0 01-12.18924-12.18924v-36.35365a12.18924 12.18924 0 0112.18924-12.18924zM1416.15716 1183.83982h114.2053a12.18924 12.18924 0 0112.18924 12.18924v36.35369a12.18925 12.18925 0 01-12.18925 12.18925H1416.15724a12.18933 12.18933 0 01-12.18933-12.18933v-36.3536A12.18925 12.18925 0 011416.15716 1183.83982z"></path><path fill="#99b3e0" d="M1120.24817 1244.67l114.2059-.03176a12.18879 12.18879 0 0012.18525-12.19262l-.00251-8.80592H1108.05355l.0026 8.84444A12.18858 12.18858 0 001120.24817 1244.67zM1542.535 1156.59425l-.02542-92.91131a12.18912 12.18912 0 00-12.19289-12.18569l-21.62785.0059a218.94507 218.94507 0 01-69.08439 117.309l90.7453-.02516A12.18832 12.18832 0 001542.535 1156.59425zM1268.20705 1244.629l114.205-.03176a12.18972 12.18972 0 0012.18612-12.19271l-.00937-32.78771a216.3598 216.3598 0 01-99.25916 24.02292h-39.31811l.00251 8.80331A12.18948 12.18948 0 001268.20705 1244.629zM1530.2802 919.17039l-16.62357.00442v86.13762a217.75379 217.75379 0 01-2.24792 31.153l18.90368-.0053a12.18961 12.18961 0 0012.18612-12.19271l-.0262-92.91106A12.18873 12.18873 0 001530.2802 919.17039zM1530.354 1183.82386l-109.76767.03054q-8.00073 5.64-16.50409 10.5728a12.33076 12.33076 0 00-.11939 1.62121l.01015 36.35352a12.18934 12.18934 0 0012.19289 12.18594l114.205-.03175a12.18962 12.18962 0 0012.18612-12.19272l-.01015-36.3536A12.18951 12.18951 0 001530.354 1183.82386z"></path></g><g><path fill="#ffda65" d="M1185.86559,553.65121s-160.538,196.40714-147.85216,209.09277c12.68546,12.68555,77.8628-40.24381,77.8628-40.24381s-76.988,126.85543-57.30372,146.53991c19.68448,19.68448,163.6-92.7357,163.6-92.7357s-35.86945,42.86838-19.68457,59.05344,150.03925-97.54754,150.03925-97.54754Z"></path><path fill="#452e63" d="M1065.603,879.83594c-5.08545.001-9.60987-1.35449-13.041-4.78516-7.73-7.73047-12.48193-24.99219,19.65137-90.41015,5.46142-11.11817,11.2085-22.02491,16.481-31.686q-1.17042.77637-2.353,1.54687c-29.11475,18.96485-45.36524,23.22608-54.33838,14.25293-7.09131-7.0913-3.2002-18.46972,16.65625-48.69921,11.84424-18.03174,29.25781-42.1753,51.75732-71.75977,38.19678-50.2251,78.46534-99.53125,78.86768-100.02344a8.49987,8.49987,0,0,1,12.88379-.32422l166.66211,184.1587a8.50147,8.50147,0,0,1-.79883,12.18115c-.33691.28613-34.08105,28.91455-69.37988,55.18506-20.88672,15.54394-38.28321,27.27636-51.70606,34.86914-15,8.48633-31.53808,15.959-40.46777,7.02539-7.48438-7.4834-8.72656-18.34766-3.73438-32.39551-11.97265,8.70312-25.98681,18.62305-40.27148,28.15332-22.65332,15.1123-41.61768,26.34961-56.36719,33.39844C1086.28271,875.21777,1074.98975,879.83594,1065.603,879.83594Zm-1.14893-17.05371c2.38672.47168,18.16211.93945,82.36865-42.33789,36.28077-24.45411,69.7837-50.57764,70.11768-50.83887a8.4999,8.4999,0,0,1,11.751,12.15332c-12.09766,14.49023-25.89356,38.69238-20.917,46.6748,3.73536-.2666,20.07032-4.40332,75.8711-46.45117,23.667-17.83349,45.91211-36.07715,56.65527-45.01513l-154.08594-170.2627c-12.01074,14.84082-39.606,49.18164-67.07519,85.07617-52.17285,68.17627-67.40186,94.11133-71.71387,103.855,4.88867-1.29834,14.67383-5.34472,32.86963-17.51318,15.98438-10.689,30.08252-22.10742,30.22314-22.22119a8.5,8.5,0,0,1,12.62452,11.0083c-.187.30859-18.89942,31.21875-35.20557,64.28076C1060.03711,847.76074,1063.585,860.88086,1064.4541,862.78223Z"></path><path fill="#ffb842" d="M1220.19816,553.65121s-139.6123,155.86381-136.40389,161.989c2.98335,5.69546,80.83244-33.60834,80.83244-33.60834s-83.7147,128.483-68.08538,143.44968,152.48448-102.54081,152.48448-102.54081S1231.063,790.76628,1238.657,796.733c13.99067,10.99266,113.8702-103.06035,113.8702-103.06035Z"></path><polygon fill="#b6ccf2" points="1237.045 463.103 1185.866 553.651 1352.527 737.81 1447.449 679.633 1237.045 463.103"></polygon><path fill="#452e63" d="M1453.54492,673.709,1243.14063,457.1792a8.49908,8.49908,0,0,0-13.49512,1.74072l-51.17969,90.54883a8.50008,8.50008,0,0,0,1.09668,9.88623l166.66211,184.15869a8.49829,8.49829,0,0,0,10.74414,1.54346l94.92188-58.17774a8.49947,8.49947,0,0,0,1.65429-13.17041Zm-99.44726,53.169L1196.28223,552.49512l42.57715-75.32813,195.08984,200.76953Z"></path><path fill="#dbe6ff" d="M1683.22656,230.38855s-94.68213,1.67889-175.936,19.70154l-.00659-.00171.00244.00256c-41.843,9.2815-80.12574,22.89606-100.07984,42.85034L1237.04492,463.10266v.0014l210.4043,216.52851,173.22436-173.22418c19.95386-19.95374,33.56763-58.23438,42.84937-100.07581l.00488.00513-.00293-.01337C1681.54736,325.07062,1683.22656,230.38855,1683.22656,230.38855Z"></path><path fill="#452e63" d="M1689.2373,224.37842a8.53414,8.53414,0,0,0-6.16113-2.48828c-.95508.0166-96.29785,1.89746-177.39844,19.85156-.1455.02832-.291.06006-.43457.0957-50.29492,11.17676-85.30175,26.34815-104.04687,45.09375L1231.03418,457.09229a8.47108,8.47108,0,0,0-2.48926,5.9663v.04541a8.47324,8.47324,0,0,0,2.4043,5.92383l210.4043,216.52783a8.5005,8.5005,0,0,0,6.03515,2.57666h.06055a8.50005,8.50005,0,0,0,6.01074-2.48974l173.22461-173.22412c18.73145-18.73242,33.89356-53.69776,45.06836-103.93653q.07764-.29736.13379-.60156c17.94043-81.08887,19.82129-176.38672,19.83887-177.34082A8.50016,8.50016,0,0,0,1689.2373,224.37842Zm-34.0039,180.07666c-.00293.01221-.00586.02441-.00781.03662-10.46973,47.19287-24.11719,79.46045-40.5625,95.90625l-167.127,167.127L1248.97949,463.189l164.23828-164.2373c16.43457-16.43555,48.67481-30.07617,95.81836-40.54248.03125-.00635.06348-.01367.09571-.02051,65.1416-14.44922,139.97265-18.30273,165.32617-19.23144C1673.5293,264.50684,1669.67578,339.31982,1655.2334,404.45508Z"></path><path fill="#b6ccf2" d="M1448.11869,668.0486l167.8837-168.06287c16.54461-16.56231,30.26474-49.0204,40.78-96.47269l.00937-.04121c14.56732-65.76414,18.39688-141.34275,19.30306-166.41979-3.75686.136-8.65659.33873-14.4802.633-2.93875,26.9942-7.22843,56.87449-13.49342,85.14962l.00278.01345-.00469-.00521c-9.30915,42.00949-22.96325,80.4439-42.97571,100.4777L1480.7858,547.8112a68.783,68.783,0,0,1-98.03967-.70384l-106.89805-110.157-26.38425,26.41253Z"></path><path fill="#ff595b" d="M1163.11968,757.87106a7.37538,7.37538,0,0,1-6.97985-9.75981c1.61757-4.73314,40.149-116.45382,86.84511-163.14917,16.18974-16.19017,33.15473-24.3994,50.42313-24.3994,23.66563,0,39.28844,15.6059,41.59146,18.0526,2.39325,2.253,17.40732,17.28229,18.03264,40.12729.486,17.76705-7.71649,35.22478-24.37945,51.8873-46.69534,46.69613-158.416,85.22754-163.14916,86.84511A7.372,7.372,0,0,1,1163.11968,757.87106Z"></path><path fill="#452e63" d="M1340.2063,573.3866a66.20815,66.20815,0,0,0-12.469-9.99146,64.675,64.675,0,0,0-34.3291-10.20746c-19.29565,0-38.01513,8.93579-55.63842,26.55921-47.89234,47.89239-86.96851,161.18-88.6084,165.97925a14.74944,14.74944,0,0,0,18.72729,18.72729c4.79907-1.63995,118.08667-40.71594,165.979-88.60834,18.15234-18.152,27.08032-37.43194,26.53662-57.30426C1359.71362,593.29773,1343.90918,576.89124,1340.2063,573.3866ZM1323.438,665.41516c-46.02246,46.0224-160.31909,85.08063-160.31909,85.08063s39.05835-114.29663,85.08056-160.319c16.89331-16.89319,32.37622-22.239,45.20874-22.239,22.12671,0,36.37256,15.89624,36.37256,15.89624S1369.46045,619.39288,1323.438,665.41516Z"></path><path fill="#f73e48" d="M1329.78076 583.83405a43.71877 43.71877 0 00-5.3267-4.76126c6.24711 14.78518 7.88125 37.62688-18.36921 63.87734-30.99817 30.99817-92.9658 58.83487-130.12415 73.70751-8.10762 19.98912-12.8418 33.83818-12.8418 33.83818s114.29665-39.05825 160.31905-85.08064C1369.46051 619.39287 1329.78076 583.83405 1329.78076 583.83405zM1333.27949 886.03865a7.37557 7.37557 0 01-7.25645-6.06169c-.79989-4.42053-19.03461-108.80727 29.16308-157.00487 47.58669-47.58669 97.90128-48.93095 100.01957-48.96487.0394-.00044.07887-.00079.11827-.00079a7.37636 7.37636 0 014.53054 1.55562c.77577.60415 19.02281 15.0696 20.49756 38.83986 1.0706 17.25687-6.84675 34.46637-23.53131 51.15093L1338.49514 883.87836A7.37375 7.37375 0 011333.27949 886.03865z"></path><path fill="#452e63" d="M1487.71289,713.94543c-1.6499-26.59564-21.11377-42.47924-23.32764-44.20282a14.75085,14.75085,0,0,0-9.061-3.11126c-.07886,0-.15747.00073-.23633.00189-2.24023.03589-55.44287,1.44971-105.1167,51.1236-12.27978,12.27978-21.49634,28.85424-27.394,49.26294-4.49805,15.56683-7.10156,33.462-7.73731,53.18841a320.46852,320.46852,0,0,0,3.926,61.08185,14.74961,14.74961,0,0,0,24.94409,7.80353l118.32568-118.32544C1480.28076,752.52289,1488.91992,733.405,1487.71289,713.94543Zm-36.10718,46.3927C1405.58325,806.36041,1333.28,878.66357,1333.28,878.66357s-18.90137-104.4544,27.12109-150.4768c46.02222-46.0224,94.9231-46.8053,94.9231-46.8053S1497.62842,714.31573,1451.60571,760.33813Z"></path><path fill="#ff595b" d="M1329.4409,830.82884c25.23764-25.23773,64.02883-64.02875,92.65562-92.65545,22.10029-22.10029,23.82883-41.17923,19.65862-55.04565-17.72991,3.48311-50.19894,13.9039-81.35416,45.059C1334.89125,753.69669,1329.33184,797.15334,1329.4409,830.82884Z"></path><path fill="#f73e48" d="M1094.46226,592.69853a311.76052,311.76052,0,0,1-67.65719-7.72334,7.375,7.375,0,0,1-3.10073-12.69492l125.6074-110.56539c15.54281-13.68161,31.14576-20.61912,46.375-20.61912,27.4388,0,42.979,22.36033,43.62724,23.31232a7.3721,7.3721,0,0,1,1.25567,4.737c-.16859,2.11239-4.70807,52.23974-55.22318,96.70574C1165.10834,583.66572,1134.53029,592.69853,1094.46226,592.69853Z"></path><path fill="#452e63" d="M1245.40991,460.257a65.22618,65.22618,0,0,0-12.90674-13.34668c-10.99707-8.62866-23.72631-13.18951-36.81128-13.18951V448.471l-.001-14.75018c-17.0835.00219-34.32544,7.55816-51.25244,22.45825L1018.83154,566.74445a14.75019,14.75019,0,0,0,6.20166,25.38983,320.045,320.045,0,0,0,69.4292,7.93915c41.915,0,74.13233-9.65162,95.75733-28.687,52.73071-46.41626,57.52319-99.42114,57.70117-101.65484A14.749,14.749,0,0,0,1245.40991,460.257Zm-64.936,100.05768c-22.34595,19.67-56.03809,25.0086-86.01148,25.0086a307.02075,307.02075,0,0,1-65.88476-7.50708s76.75244-67.5614,125.60693-110.56549c15.95874-14.04773,29.93018-18.77826,41.5022-18.77972,23.85376-.003,37.531,20.08758,37.531,20.08758S1229.32837,517.31061,1180.47388,560.3147Z"></path><path fill="#ff595b" d="M1076.07145,584.68817c26.79075-23.58251,67.96894-59.82965,98.35732-86.579,23.46034-20.65087,42.61052-21.16331,56.18376-16.12007-4.60291,17.47257-17.06642,49.21363-50.13881,78.32561C1153.39405,584.15143,1109.6719,586.93747,1076.07145,584.68817Z"></path><path fill="#ff494b" d="M1675.19161,336.88359c7.1683-57.63933,8.03474-106.49505,8.03474-106.49505s-44.16778.78488-98.05555,7.023Z"></path><path fill="#452e63" d="M1675.19238,345.38428a8.50138,8.50138,0,0,1-6.30371-2.79688l-90.02051-99.47217a8.50063,8.50063,0,0,1,5.3252-14.14746c53.67871-6.21386,98.43652-7.06982,98.88184-7.07763a8.49934,8.49934,0,0,1,8.65039,8.64941c-.00879.49268-.957,49.97022-8.09961,107.39356a8.50147,8.50147,0,0,1-8.4336,7.45117ZM1602.667,244.07715l66.22364,73.17627c3.64355-34.48487,5.05761-63.96973,5.57031-78.09912C1661.19824,239.63525,1634.39941,240.91064,1602.667,244.07715Z"></path><path fill="#f73e48" d="M1669.82309,320.06c4.88394-40.98115,5.40019-66.29367,5.973-82.14711-3.7566.13614-8.71212.4753-14.53617.76952-2.49537,22.92465-4.04006,37.37093-8.86682,61.70751Z"></path><circle cx="1497.51" cy="404.311" r="82.074" fill="#189bc4" transform="rotate(-45 1497.51 404.31)"></circle><path fill="#452e63" d="M1497.50977,314.86145a89.44934,89.44934,0,1,0,89.44921,89.4494A89.55076,89.55076,0,0,0,1497.50977,314.86145Zm0,164.14856a74.69922,74.69922,0,1,1,74.69921-74.69916A74.69907,74.69907,0,0,1,1497.50977,479.01Z"></path><path fill="#26ade4" d="M1572.20909,404.31077a74.47223,74.47223,0,0,0-23.55787-54.421A74.69244,74.69244,0,0,0,1464.90208,471.53a74.72057,74.72057,0,0,0,107.307-67.21919Z"></path><path fill="#75d6fd" d="M1562.21839 367.00951L1427.586 430.61068a74.75568 74.75568 0 0018.11394 27.484l126.2584-59.64527A74.21367 74.21367 0 001562.21839 367.00951zM1566.56326 432.81773a74.4018 74.4018 0 005.60227-26.789l-120.7481 57.04221a74.4622 74.4622 0 0024.25051 12.68624zM1542.35726 344.57258L1422.894 401.00769c-.04772 1.09611-.08347 2.19534-.08347 3.30316a74.74474 74.74474 0 002.62691 19.63754l132.99921-62.82964A75.11061 75.11061 0 001542.35726 344.57258z"></path></g></svg>