<svg xmlns="http://www.w3.org/2000/svg" xmlns:xlink="http://www.w3.org/1999/xlink" viewBox="0 0 1880 2000" id="file-management"><path fill="#AEC7E6" d="M.1 1340.3c0 4.7 3.1 9.4 9.3 12.9l1061.5 612.9c1.5.9 3.1 1.6 4.8 2.2.3.1.5.2.8.3 1.4.5 2.8.9 4.3 1.3.3.1.6.2.9.2 1.6.4 3.3.7 5 .9.3 0 .5.1.8.1 1.7.2 3.4.3 5.2.3h.8c1.8 0 3.5-.1 5.2-.3.3 0 .6-.1.9-.1 1.3-.2 2.5-.4 3.8-.6 1.1-.2 2.1-.5 3.1-.8.8-.2 1.6-.5 2.4-.7 2.2-.8 4.3-1.6 6.1-2.7l713.8-414.8c.7-.4 1.3-.9 1.9-1.4.8-.5 1.6-1.1 2.2-1.7 1-.9 1.8-1.8 2.5-2.7.1-.2.2-.3.3-.5.6-1 1.2-1.9 1.5-2.9 0-.1.1-.2.1-.3.3-1.1.5-2.1.5-3.2l-.1 28.7v.3c0 .6-.1 1.2-.2 1.8l-.3 1.2c0 .1-.1.2-.1.3 0 .1 0 .2-.1.3-.2.6-.5 1.2-.8 1.8l-.6.9c-.1.2-.2.3-.3.5-.1.2-.2.3-.3.5-.6.7-1.2 1.4-1.9 2.1-.1.1-.2.1-.2.2-.6.6-1.5 1.1-2.2 1.7-.5.4-1 .8-1.5 1.1-.1.1-.3.2-.4.2L1115 1995.1c-1.9 1.1-4 1.9-6.1 2.7-.2.1-.4.2-.7.3-.5.2-1.1.3-1.6.4-1 .3-2.1.6-3.1.8-.4.1-.7.2-1.1.3-.9.2-1.8.3-2.6.4-.3 0-.6.1-.9.1-.1 0-.3 0-.4.1-1.1.1-2.3.2-3.5.2h-3.2c-1 0-2.1-.1-3.1-.2-.4 0-.7-.1-1.1-.1-.3 0-.5-.1-.8-.1-.4 0-.8-.1-1.1-.1-1-.1-2.1-.3-3.1-.5-.3-.1-.5-.1-.8-.2-.3-.1-.6-.1-.9-.2-.5-.1-1.1-.2-1.6-.4-.9-.3-1.8-.6-2.8-.9-.3-.1-.5-.2-.8-.3-.1 0-.2-.1-.3-.1-1.6-.6-3.1-1.3-4.5-2.2L9.3 1381.9c-6.2-3.6-9.3-8.3-9.3-12.9l.1-28.7z"></path><path fill="#DCE9F5" d="M1828.7 1525.6c12.3 7.1 12.3 18.5.1 25.6L1115 1966.1c-12.1 7-31.9 7.1-44.2 0L9.3 1353.2c-12.3-7.1-12.3-18.6-.2-25.6l713.8-414.8c12.2-7.1 32-7.1 44.3 0l1061.5 612.8z"></path><path fill="#AEC7E6" d="m1288.7 1789.6 411.3-237.5-985.2-568.8-411.3 237.5zM454 1541.1l279.4 161.4L917.8 1596l-279.5-161.3z"></path><path fill="#0C3461" d="M394 1248c-4.8 2.8-12.1 3.1-16.3.7l-37.1-21.4c-4.2-2.4-3.6-6.6 1.2-9.4l42.8-24.7c4.8-2.8 12.1-3.1 16.3-.7l37.1 21.4c4.2 2.4 3.6 6.6-1.2 9.4L394 1248zM455.6 1283.5c-4.8 2.8-12.1 3.1-16.3.7l-37.1-21.4c-4.2-2.4-3.6-6.6 1.2-9.4l42.8-24.7c4.8-2.8 12.1-3.1 16.3-.7l37.1 21.4c4.2 2.4 3.6 6.6-1.2 9.4l-42.8 24.7zM517.2 1319.1c-4.8 2.8-12.1 3.1-16.3.7l-37.1-21.4c-4.2-2.4-3.6-6.6 1.2-9.4l42.8-24.7c4.8-2.8 12.1-3.1 16.3-.7l37.1 21.4c4.2 2.4 3.6 6.6-1.2 9.4l-42.8 24.7zM1108.3 1660.4c-4.8 2.8-12.1 3.1-16.3.7l-37.1-21.4c-4.2-2.4-3.6-6.6 1.2-9.4l42.8-24.7c4.8-2.8 12.1-3.1 16.3-.7l37.1 21.4c4.2 2.4 3.6 6.6-1.2 9.4l-42.8 24.7zM627.9 1383c-4.8 2.8-12.1 3.1-16.3.7l-86.1-49.7c-4.2-2.4-3.6-6.6 1.2-9.4l42.8-24.7c4.8-2.8 12.1-3.1 16.3-.7l86.1 49.7c4.2 2.4 3.6 6.6-1.2 9.4l-42.8 24.7zM1046.7 1624.8c-4.8 2.8-12.1 3.1-16.3.7l-86.1-49.7c-4.2-2.4-3.6-6.6 1.2-9.4l42.8-24.7c4.8-2.8 12.1-3.1 16.3-.7l86.1 49.7c4.2 2.4 3.6 6.6-1.2 9.4l-42.8 24.7zM936 1560.9c-4.8 2.8-12.1 3.1-16.3.7l-283.6-163.7c-4.2-2.4-3.6-6.6 1.2-9.4l42.8-24.7c4.8-2.8 12.1-3.1 16.3-.7L980 1526.8c4.2 2.4 3.6 6.6-1.2 9.4l-42.8 24.7zM1169.9 1696c-4.8 2.8-12.1 3.1-16.3.7l-37.1-21.4c-4.2-2.4-3.6-6.6 1.2-9.4l12.7-7.3c4.8-2.8 12.1-3.1 16.3-.7l37.1 21.4c4.2 2.4 3.6 6.6-1.2 9.4l-12.7 7.3zM1231.6 1731.6c-4.8 2.8-12.1 3.1-16.3.7l-37.1-21.4c-4.2-2.4-3.6-6.6 1.2-9.4l12.7-7.3c4.8-2.8 12.1-3.1 16.3-.7l37.1 21.4c4.2 2.4 3.6 6.6-1.2 9.4l-12.7 7.3z"></path><path fill="#0C3461" d="M1261.7 1714.2c-4.8 2.8-12.1 3.1-16.3.7l-37.1-21.4c-4.2-2.4-3.6-6.6 1.2-9.4l12.7-7.3c4.8-2.8 12.1-3.1 16.3-.7l37.1 21.4c4.2 2.4 3.6 6.6-1.2 9.4l-12.7 7.3zM1293.2 1767.1c-4.8 2.8-12.1 3.1-16.3.7l-37.1-21.4c-4.2-2.4-3.6-6.6 1.2-9.4l12.7-7.3c4.8-2.8 12.1-3.1 16.3-.7l37.1 21.4c4.2 2.4 3.6 6.6-1.2 9.4l-12.7 7.3zM756.8 1046.6c-4.8 2.8-12.1 3.1-16.3.7l-44.2-25.5c-4.2-2.4-3.6-6.6 1.2-9.4l12.7-7.3c4.8-2.8 12.1-3.1 16.3-.7l44.2 25.5c4.2 2.4 3.6 6.6-1.2 9.4l-12.7 7.3zM825.5 1086.3c-4.8 2.8-12.1 3.1-16.3.7l-44.2-25.5c-4.2-2.4-3.6-6.6 1.2-9.4l12.7-7.3c4.8-2.8 12.1-3.1 16.3-.7l44.2 25.5c4.2 2.4 3.6 6.6-1.2 9.4l-12.7 7.3zM894.1 1125.9c-4.8 2.8-12.1 3.1-16.3.7l-44.2-25.5c-4.2-2.4-3.6-6.6 1.2-9.4l12.7-7.3c4.8-2.8 12.1-3.1 16.3-.7l44.2 25.5c4.2 2.4 3.6 6.6-1.2 9.4l-12.7 7.3zM962.7 1165.5c-4.8 2.8-12.1 3.1-16.3.7l-44.2-25.5c-4.2-2.4-3.6-6.6 1.2-9.4l12.7-7.3c4.8-2.8 12.1-3.1 16.3-.7l44.2 25.5c4.2 2.4 3.6 6.6-1.2 9.4l-12.7 7.3zM1031.3 1205.1c-4.8 2.8-12.1 3.1-16.3.7l-44.2-25.5c-4.2-2.4-3.6-6.6 1.2-9.4l12.7-7.3c4.8-2.8 12.1-3.1 16.3-.7l44.2 25.5c4.2 2.4 3.6 6.6-1.2 9.4l-12.7 7.3zM1100 1244.8c-4.8 2.8-12.1 3.1-16.3.7l-44.2-25.5c-4.2-2.4-3.6-6.6 1.2-9.4l12.7-7.3c4.8-2.8 12.1-3.1 16.3-.7l44.2 25.5c4.2 2.4 3.6 6.6-1.2 9.4l-12.7 7.3zM1168.6 1284.4c-4.8 2.8-12.1 3.1-16.3.7l-44.2-25.5c-4.2-2.4-3.6-6.6 1.2-9.4l12.7-7.3c4.8-2.8 12.1-3.1 16.3-.7l44.2 25.5c4.2 2.4 3.6 6.6-1.2 9.4l-12.7 7.3zM1237.2 1324c-4.8 2.8-12.1 3.1-16.3.7l-44.2-25.5c-4.2-2.4-3.6-6.6 1.2-9.4l12.7-7.3c4.8-2.8 12.1-3.1 16.3-.7l44.2 25.5c4.2 2.4 3.6 6.6-1.2 9.4l-12.7 7.3zM1305.8 1363.6c-4.8 2.8-12.1 3.1-16.3.7l-44.2-25.5c-4.2-2.4-3.6-6.6 1.2-9.4l12.7-7.3c4.8-2.8 12.1-3.1 16.3-.7l44.2 25.5c4.2 2.4 3.6 6.6-1.2 9.4l-12.7 7.3zM1374.5 1403.2c-4.8 2.8-12.1 3.1-16.3.7l-44.2-25.5c-4.2-2.4-3.6-6.6 1.2-9.4l12.7-7.3c4.8-2.8 12.1-3.1 16.3-.7l44.2 25.5c4.2 2.4 3.6 6.6-1.2 9.4l-12.7 7.3zM1443.1 1442.9c-4.8 2.8-12.1 3.1-16.3.7l-44.2-25.5c-4.2-2.4-3.6-6.6 1.2-9.4l12.7-7.3c4.8-2.8 12.1-3.1 16.3-.7l44.2 25.5c4.2 2.4 3.6 6.6-1.2 9.4l-12.7 7.3zM1511.7 1482.5c-4.8 2.8-12.1 3.1-16.3.7l-44.2-25.5c-4.2-2.4-3.6-6.6 1.2-9.4l12.7-7.3c4.8-2.8 12.1-3.1 16.3-.7l44.2 25.5c4.2 2.4 3.6 6.6-1.2 9.4l-12.7 7.3zM1580.4 1522.1c-4.8 2.8-12.1 3.1-16.3.7l-44.2-25.5c-4.2-2.4-3.6-6.6 1.2-9.4l12.7-7.3c4.8-2.8 12.1-3.1 16.3-.7l44.2 25.5c4.2 2.4 3.6 6.6-1.2 9.4l-12.7 7.3zM1649 1561.7c-4.8 2.8-12.1 3.1-16.3.7l-44.2-25.5c-4.2-2.4-3.6-6.6 1.2-9.4l12.7-7.3c4.8-2.8 12.1-3.1 16.3-.7l44.2 25.5c4.2 2.4 3.6 6.6-1.2 9.4l-12.7 7.3zM678.6 1083.6c-4.8 2.8-12.1 3.1-16.3.7l-37.1-21.4c-4.2-2.4-3.6-6.6 1.2-9.4l42.8-24.7c4.8-2.8 12.1-3.1 16.3-.7l37.1 21.4c4.2 2.4 3.6 6.6-1.2 9.4l-42.8 24.7zM740.2 1119.2c-4.8 2.8-12.1 3.1-16.3.7l-37.1-21.4c-4.2-2.4-3.6-6.6 1.2-9.4l42.8-24.7c4.8-2.8 12.1-3.1 16.3-.7l37.1 21.4c4.2 2.4 3.6 6.6-1.2 9.4l-42.8 24.7zM801.8 1154.8c-4.8 2.8-12.1 3.1-16.3.7l-37.1-21.4c-4.2-2.4-3.6-6.6 1.2-9.4l42.8-24.7c4.8-2.8 12.1-3.1 16.3-.7l37.1 21.4c4.2 2.4 3.6 6.6-1.2 9.4l-42.8 24.7zM863.5 1190.4c-4.8 2.8-12.1 3.1-16.3.7l-37.1-21.4c-4.2-2.4-3.6-6.6 1.2-9.4l42.8-24.7c4.8-2.8 12.1-3.1 16.3-.7l37.1 21.4c4.2 2.4 3.6 6.6-1.2 9.4l-42.8 24.7zM925.1 1225.9c-4.8 2.8-12.1 3.1-16.3.7l-37.1-21.4c-4.2-2.4-3.6-6.6 1.2-9.4l42.8-24.7c4.8-2.8 12.1-3.1 16.3-.7l37.1 21.4c4.2 2.4 3.6 6.6-1.2 9.4l-42.8 24.7zM986.7 1261.5c-4.8 2.8-12.1 3.1-16.3.7l-37.1-21.4c-4.2-2.4-3.6-6.6 1.2-9.4l42.8-24.7c4.8-2.8 12.1-3.1 16.3-.7l37.1 21.4c4.2 2.4 3.6 6.6-1.2 9.4l-42.8 24.7zM1048.3 1297.1c-4.8 2.8-12.1 3.1-16.3.7l-37.1-21.4c-4.2-2.4-3.6-6.6 1.2-9.4l42.8-24.7c4.8-2.8 12.1-3.1 16.3-.7l37.1 21.4c4.2 2.4 3.6 6.6-1.2 9.4l-42.8 24.7zM1110 1332.7c-4.8 2.8-12.1 3.1-16.3.7l-37.1-21.4c-4.2-2.4-3.6-6.6 1.2-9.4l42.8-24.7c4.8-2.8 12.1-3.1 16.3-.7l37.1 21.4c4.2 2.4 3.6 6.6-1.2 9.4l-42.8 24.7zM1171.6 1368.3c-4.8 2.8-12.1 3.1-16.3.7l-37.1-21.4c-4.2-2.4-3.6-6.6 1.2-9.4l42.8-24.7c4.8-2.8 12.1-3.1 16.3-.7l37.1 21.4c4.2 2.4 3.6 6.6-1.2 9.4l-42.8 24.7zM1233.2 1403.8c-4.8 2.8-12.1 3.1-16.3.7l-37.1-21.4c-4.2-2.4-3.6-6.6 1.2-9.4l42.8-24.7c4.8-2.8 12.1-3.1 16.3-.7l37.1 21.4c4.2 2.4 3.6 6.6-1.2 9.4l-42.8 24.7zM1294.8 1439.4c-4.8 2.8-12.1 3.1-16.3.7l-37.1-21.4c-4.2-2.4-3.6-6.6 1.2-9.4l42.8-24.7c4.8-2.8 12.1-3.1 16.3-.7l37.1 21.4c4.2 2.4 3.6 6.6-1.2 9.4l-42.8 24.7zM1356.4 1475c-4.8 2.8-12.1 3.1-16.3.7l-37.1-21.4c-4.2-2.4-3.6-6.6 1.2-9.4l42.8-24.7c4.8-2.8 12.1-3.1 16.3-.7l37.1 21.4c4.2 2.4 3.6 6.6-1.2 9.4l-42.8 24.7zM1418.1 1510.6c-4.8 2.8-12.1 3.1-16.3.7l-37.1-21.4c-4.2-2.4-3.6-6.6 1.2-9.4l42.8-24.7c4.8-2.8 12.1-3.1 16.3-.7l37.1 21.4c4.2 2.4 3.6 6.6-1.2 9.4l-42.8 24.7zM1479.7 1546.2c-4.8 2.8-12.1 3.1-16.3.7l-37.1-21.4c-4.2-2.4-3.6-6.6 1.2-9.4l42.8-24.7c4.8-2.8 12.1-3.1 16.3-.7l37.1 21.4c4.2 2.4 3.6 6.6-1.2 9.4l-42.8 24.7zM1577.8 1602.8c-4.8 2.8-12.1 3.1-16.3.7L1488 1561c-4.2-2.4-3.6-6.6 1.2-9.4l42.8-24.7c4.8-2.8 12.1-3.1 16.3-.7l73.6 42.5c4.2 2.4 3.6 6.6-1.2 9.4l-42.9 24.7zM1497.3 1589.1c4.8-2.8 12.1-3.1 16.3-.7l37.1 21.4c4.2 2.4 3.6 6.6-1.2 9.4l-42.8 24.7c-4.8 2.8-12.1 3.1-16.3.7l-37.1-21.4c-4.2-2.4-3.6-6.6 1.2-9.4l42.8-24.7zM1435.7 1553.5c4.8-2.8 12.1-3.1 16.3-.7l37.1 21.4c4.2 2.4 3.6 6.6-1.2 9.4l-42.8 24.7c-4.8 2.8-12.1 3.1-16.3.7l-37.1-21.4c-4.2-2.4-3.6-6.6 1.2-9.4l42.8-24.7zM1374.1 1517.9c4.8-2.8 12.1-3.1 16.3-.7l37.1 21.4c4.2 2.4 3.6 6.6-1.2 9.4l-42.8 24.7c-4.8 2.8-12.1 3.1-16.3.7l-37.1-21.4c-4.2-2.4-3.6-6.6 1.2-9.4l42.8-24.7zM1312.4 1482.3c4.8-2.8 12.1-3.1 16.3-.7l37.1 21.4c4.2 2.4 3.6 6.6-1.2 9.4l-42.8 24.7c-4.8 2.8-12.1 3.1-16.3.7l-37.1-21.4c-4.2-2.4-3.6-6.6 1.2-9.4l42.8-24.7zM1250.8 1446.7c4.8-2.8 12.1-3.1 16.3-.7l37.1 21.4c4.2 2.4 3.6 6.6-1.2 9.4l-42.8 24.7c-4.8 2.8-12.1 3.1-16.3.7l-37.1-21.4c-4.2-2.4-3.6-6.6 1.2-9.4l42.8-24.7zM1189.2 1411.2c4.8-2.8 12.1-3.1 16.3-.7l37.1 21.4c4.2 2.4 3.6 6.6-1.2 9.4l-42.8 24.7c-4.8 2.8-12.1 3.1-16.3.7l-37.1-21.4c-4.2-2.4-3.6-6.6 1.2-9.4l42.8-24.7zM1127.6 1375.6c4.8-2.8 12.1-3.1 16.3-.7l37.1 21.4c4.2 2.4 3.6 6.6-1.2 9.4l-42.8 24.7c-4.8 2.8-12.1 3.1-16.3.7l-37.1-21.4c-4.2-2.4-3.6-6.6 1.2-9.4l42.8-24.7zM1065.9 1340c4.8-2.8 12.1-3.1 16.3-.7l37.1 21.4c4.2 2.4 3.6 6.6-1.2 9.4l-42.8 24.7c-4.8 2.8-12.1 3.1-16.3.7l-37.1-21.4c-4.2-2.4-3.6-6.6 1.2-9.4l42.8-24.7zM1004.3 1304.4c4.8-2.8 12.1-3.1 16.3-.7l37.1 21.4c4.2 2.4 3.6 6.6-1.2 9.4l-42.8 24.7c-4.8 2.8-12.1 3.1-16.3.7l-37.1-21.4c-4.2-2.4-3.6-6.6 1.2-9.4l42.8-24.7zM942.7 1268.9c4.8-2.8 12.1-3.1 16.3-.7l37.1 21.4c4.2 2.4 3.6 6.6-1.2 9.4l-42.8 24.7c-4.8 2.8-12.1 3.1-16.3.7l-37.1-21.4c-4.2-2.4-3.6-6.6 1.2-9.4l42.8-24.7zM881.1 1233.3c4.8-2.8 12.1-3.1 16.3-.7l37.1 21.4c4.2 2.4 3.6 6.6-1.2 9.4l-42.8 24.7c-4.8 2.8-12.1 3.1-16.3.7l-37.1-21.4c-4.2-2.4-3.6-6.6 1.2-9.4l42.8-24.7zM819.4 1197.7c4.8-2.8 12.1-3.1 16.3-.7l37.1 21.4c4.2 2.4 3.6 6.6-1.2 9.4l-42.8 24.7c-4.8 2.8-12.1 3.1-16.3.7l-37.1-21.4c-4.2-2.4-3.6-6.6 1.2-9.4l42.8-24.7zM757.8 1162.1c4.8-2.8 12.1-3.1 16.3-.7l37.1 21.4c4.2 2.4 3.6 6.6-1.2 9.4l-42.8 24.7c-4.8 2.8-12.1 3.1-16.3.7l-37.1-21.4c-4.2-2.4-3.6-6.6 1.2-9.4l42.8-24.7zM696.2 1126.5c4.8-2.8 12.1-3.1 16.3-.7l37.1 21.4c4.2 2.4 3.6 6.6-1.2 9.4l-42.8 24.7c-4.8 2.8-12.1 3.1-16.3.7l-37.1-21.4c-4.2-2.4-3.6-6.6 1.2-9.4l42.8-24.7zM598.1 1069.9c4.8-2.8 12.1-3.1 16.3-.7l73.6 42.5c4.2 2.4 3.6 6.6-1.2 9.4l-42.8 24.7c-4.8 2.8-12.1 3.1-16.3.7l-73.6-42.5c-4.2-2.4-3.6-6.6 1.2-9.4l42.8-24.7zM1284.6 1548.4c4.8-2.8 12.1-3.1 16.3-.7l37.1 21.4c4.2 2.4 3.6 6.6-1.2 9.4l-42.8 24.7c-4.8 2.8-12.1 3.1-16.3.7l-37.1-21.4c-4.2-2.4-3.6-6.6 1.2-9.4l42.8-24.7zM1223 1512.9c4.8-2.8 12.1-3.1 16.3-.7l37.1 21.4c4.2 2.4 3.6 6.6-1.2 9.4l-42.8 24.7c-4.8 2.8-12.1 3.1-16.3.7L1179 1547c-4.2-2.4-3.6-6.6 1.2-9.4l42.8-24.7zM1161.4 1477.3c4.8-2.8 12.1-3.1 16.3-.7l37.1 21.4c4.2 2.4 3.6 6.6-1.2 9.4l-42.8 24.7c-4.8 2.8-12.1 3.1-16.3.7l-37.1-21.4c-4.2-2.4-3.6-6.6 1.2-9.4l42.8-24.7zM1099.8 1441.7c4.8-2.8 12.1-3.1 16.3-.7l37.1 21.4c4.2 2.4 3.6 6.6-1.2 9.4l-42.8 24.7c-4.8 2.8-12.1 3.1-16.3.7l-37.1-21.4c-4.2-2.4-3.6-6.6 1.2-9.4l42.8-24.7zM1038.2 1406.1c4.8-2.8 12.1-3.1 16.3-.7l37.1 21.4c4.2 2.4 3.6 6.6-1.2 9.4l-42.8 24.7c-4.8 2.8-12.1 3.1-16.3.7l-37.1-21.4c-4.2-2.4-3.6-6.6 1.2-9.4l42.8-24.7zM976.5 1370.6c4.8-2.8 12.1-3.1 16.3-.7l37.1 21.4c4.2 2.4 3.6 6.6-1.2 9.4l-42.8 24.7c-4.8 2.8-12.1 3.1-16.3.7l-37.1-21.4c-4.2-2.4-3.6-6.6 1.2-9.4l42.8-24.7zM914.9 1335c4.8-2.8 12.1-3.1 16.3-.7l37.1 21.4c4.2 2.4 3.6 6.6-1.2 9.4l-42.8 24.7c-4.8 2.8-12.1 3.1-16.3.7l-37.1-21.4c-4.2-2.4-3.6-6.6 1.2-9.4l42.8-24.7zM853.3 1299.4c4.8-2.8 12.1-3.1 16.3-.7l37.1 21.4c4.2 2.4 3.6 6.6-1.2 9.4l-42.8 24.7c-4.8 2.8-12.1 3.1-16.3.7l-37.1-21.4c-4.2-2.4-3.6-6.6 1.2-9.4l42.8-24.7zM791.7 1263.8c4.8-2.8 12.1-3.1 16.3-.7l37.1 21.4c4.2 2.4 3.6 6.6-1.2 9.4l-42.8 24.7c-4.8 2.8-12.1 3.1-16.3.7l-37.1-21.4c-4.2-2.4-3.6-6.6 1.2-9.4l42.8-24.7zM730 1228.2c4.8-2.8 12.1-3.1 16.3-.7l37.1 21.4c4.2 2.4 3.6 6.6-1.2 9.4l-42.8 24.7c-4.8 2.8-12.1 3.1-16.3.7l-37.1-21.4c-4.2-2.4-3.6-6.6 1.2-9.4l42.8-24.7zM668.4 1192.7c4.8-2.8 12.1-3.1 16.3-.7l37.1 21.4c4.2 2.4 3.6 6.6-1.2 9.4l-42.8 24.7c-4.8 2.8-12.1 3.1-16.3.7l-37.1-21.4c-4.2-2.4-3.6-6.6 1.2-9.4l42.8-24.7zM616.2 1211.9c-4.8 2.8-12.1 3.1-16.3.7L483 1145.1c-4.2-2.4-3.6-6.6 1.2-9.4L527 1111c4.8-2.8 12.1-3.1 16.3-.7l116.9 67.5c4.2 2.4 3.6 6.6-1.2 9.4l-42.8 24.7zM1303.5 1608.7c-4.8 2.8-5.3 7-1.2 9.4l116.9 67.5c4.2 2.4 11.5 2.1 16.3-.7l42.8-24.7c4.8-2.8 5.3-7 1.2-9.4l-116.9-67.5c-4.2-2.4-11.5-2.1-16.3.7l-42.8 24.7zM1182.7 1571.7c4.8-2.8 12.1-3.1 16.3-.7l37.1 21.4c4.2 2.4 3.6 6.6-1.2 9.4l-42.8 24.7c-4.8 2.8-12.1 3.1-16.3.7l-37.1-21.4c-4.2-2.4-3.6-6.6 1.2-9.4l42.8-24.7zM1121.1 1536.2c4.8-2.8 12.1-3.1 16.3-.7l37.1 21.4c4.2 2.4 3.6 6.6-1.2 9.4l-42.8 24.7c-4.8 2.8-12.1 3.1-16.3.7l-37.1-21.4c-4.2-2.4-3.6-6.6 1.2-9.4l42.8-24.7zM1059.4 1500.6c4.8-2.8 12.1-3.1 16.3-.7l37.1 21.4c4.2 2.4 3.6 6.6-1.2 9.4l-42.8 24.7c-4.8 2.8-12.1 3.1-16.3.7l-37.1-21.4c-4.2-2.4-3.6-6.6 1.2-9.4l42.8-24.7zM997.8 1465c4.8-2.8 12.1-3.1 16.3-.7l37.1 21.4c4.2 2.4 3.6 6.6-1.2 9.4l-42.8 24.7c-4.8 2.8-12.1 3.1-16.3.7l-37.1-21.4c-4.2-2.4-3.6-6.6 1.2-9.4l42.8-24.7zM936.2 1429.4c4.8-2.8 12.1-3.1 16.3-.7l37.1 21.4c4.2 2.4 3.6 6.6-1.2 9.4l-42.8 24.7c-4.8 2.8-12.1 3.1-16.3.7l-37.1-21.4c-4.2-2.4-3.6-6.6 1.2-9.4l42.8-24.7zM874.6 1393.9c4.8-2.8 12.1-3.1 16.3-.7l37.1 21.4c4.2 2.4 3.6 6.6-1.2 9.4l-42.8 24.7c-4.8 2.8-12.1 3.1-16.3.7l-37.1-21.4c-4.2-2.4-3.6-6.6 1.2-9.4l42.8-24.7zM812.9 1358.3c4.8-2.8 12.1-3.1 16.3-.7l37.1 21.4c4.2 2.4 3.6 6.6-1.2 9.4l-42.8 24.7c-4.8 2.8-12.1 3.1-16.3.7l-37.1-21.4c-4.2-2.4-3.6-6.6 1.2-9.4l42.8-24.7zM751.3 1322.7c4.8-2.8 12.1-3.1 16.3-.7l37.1 21.4c4.2 2.4 3.6 6.6-1.2 9.4l-42.8 24.7c-4.8 2.8-12.1 3.1-16.3.7l-37.1-21.4c-4.2-2.4-3.6-6.6 1.2-9.4l42.8-24.7zM689.7 1287.1c4.8-2.8 12.1-3.1 16.3-.7l37.1 21.4c4.2 2.4 3.6 6.6-1.2 9.4l-42.8 24.7c-4.8 2.8-12.1 3.1-16.3.7l-37.1-21.4c-4.2-2.4-3.6-6.6 1.2-9.4l42.8-24.7zM628.1 1251.5c4.8-2.8 12.1-3.1 16.3-.7l37.1 21.4c4.2 2.4 3.6 6.6-1.2 9.4l-42.8 24.7c-4.8 2.8-12.1 3.1-16.3.7l-37.1-21.4c-4.2-2.4-3.6-6.6 1.2-9.4l42.8-24.7zM575.8 1270.8c-4.8 2.8-12.1 3.1-16.3.7l-147.8-85.3c-4.2-2.4-3.6-6.6 1.2-9.4l42.8-24.7c4.8-2.8 12.1-3.1 16.3-.7l147.8 85.3c4.2 2.4 3.6 6.6-1.2 9.4l-42.8 24.7zM1201.5 1632c-4.8 2.8-5.3 7-1.2 9.4l147.8 85.3c4.2 2.4 11.5 2.1 16.3-.7l42.8-24.7c4.8-2.8 5.3-7 1.2-9.4l-147.8-85.3c-4.2-2.4-11.5-2.1-16.3.7l-42.8 24.7z"></path><path fill="#AEC7E6" d="M1880 694.3c0-.4 0-.7-.1-1.1 0-.4-.1-.7-.1-1.1 0-.4-.1-.7-.1-1.1 0-.4-.1-.7-.2-1.1-.1-.4-.1-.7-.2-1.1-.1-.4-.2-.8-.2-1.2l-.3-1.2-.3-1.2-.3-.9v-.1c0-.1 0-.1-.1-.2-.1-.4-.2-.8-.4-1.2-.1-.4-.3-.8-.4-1.1-.1-.4-.3-.7-.4-1.1-.1-.4-.3-.7-.4-1.1-.1-.3-.2-.5-.3-.8v-.1c0-.1-.1-.1-.1-.2-.2-.4-.3-.7-.5-1.1l-.6-1.2c-.2-.4-.5-.9-.7-1.3-.2-.5-.5-.9-.8-1.4-.1-.1-.1-.2-.2-.3-.1-.1-.1-.2-.2-.3-.5-.9-1.1-1.8-1.6-2.6-.4-.7-.9-1.3-1.4-2-.3-.4-.7-.9-1-1.3-.3-.4-.6-.7-.9-1.1-.3-.3-.6-.7-.9-1-.3-.3-.6-.6-.9-1 0-.1-.1-.1-.1-.1l-.1-.1-.7-.7-.9-.9c-.3-.3-.6-.6-1-.9-.3-.3-.7-.6-1-.9-.2-.1-.3-.3-.5-.4l-.1-.1c-.1-.1-.3-.2-.4-.3-.3-.3-.6-.5-1-.7-.3-.2-.6-.5-1-.7l-.9-.6-.9-.6c-.1 0-.1-.1-.2-.1L795.2 43.4c-.2-.1-.5-.3-.7-.4-.3-.2-.6-.3-.9-.5-.3-.1-.6-.3-.9-.4-.3-.1-.6-.3-.9-.4l-.9-.3c-.1 0-.1 0-.2-.1h-.1c-.2-.1-.4-.1-.6-.2l-.9-.3c-.3-.1-.6-.1-.9-.2-.3-.1-.7-.1-1-.2-.2 0-.4 0-.7-.1h-1.3c-.4 0-.8 0-1.2.1-.4 0-.9.1-1.3.2-.5.1-1 .2-1.5.4-.6.2-1.2.5-1.8.8l-16.5 9.6c1-.6 2.1-1 3.3-1.2 1.2-.2 2.4-.3 3.7-.2h.1c1.3.1 2.7.4 4.1.9h.1c1.5.5 3 1.2 4.5 2.1l1062.8 613.6c1.5.9 3 1.9 4.4 3.1l.1.1c1.4 1.1 2.8 2.4 4.1 3.8l.1.1c1.3 1.4 2.6 2.9 3.7 4.5s2.2 3.2 3.2 4.9c.1.1.1.2.1.3 1 1.7 1.8 3.4 2.6 5.2v.1c.8 1.8 1.5 3.6 2 5.5v.1c.6 1.8 1 3.7 1.3 5.5.3 1.8.4 3.6.4 5.4l-2.3 826.6c0 1.7-.2 3.3-.5 4.8v.1c-.3 1.4-.7 2.7-1.3 3.9-.4.8-.8 1.4-1.3 2-1 1.4-2.1 2.6-3.4 3.3l16.5-9.6c1.4-.8 2.5-2 3.4-3.3.1-.2.3-.2.4-.4.3-.5.6-1 .8-1.5v-.1c.2-.4.3-.8.5-1.2.1-.4.3-.8.4-1.2.1-.4.2-.7.3-1.1 0-.2.1-.3.1-.5v-.1c0-.2.1-.3.1-.5.1-.3.1-.7.2-1.1 0-.3.1-.7.1-1.1 0-.3 0-.7.1-1V1522l2.3-826.6c.1-.4.1-.7.1-1.1z"></path><path fill="#CCDBED" d="M1841.4 666.6c12.2 7.1 22.1 24.3 22.1 38.4l-2.3 826.6c0 14-10 19.7-22.2 12.7L776.1 930.6c-12.3-7.1-22.2-24.3-22.2-38.3l2.3-826.6c0-14.1 10-19.8 22.3-12.7l1062.9 613.6z"></path><path fill="#0C3461" d="M1836.9 704.9c0-4.5-4.8-12.9-8.8-15.2L790.8 90.8c-3.5-2-7.9.5-8 4.6l-2.3 797c0 4.5 4.9 12.9 8.9 15.2l1037.2 598.8c3.5 2 7.9-.5 8-4.6l2.3-796.9z"></path><path fill="#27639E" d="m1836.9 704.9-2.3 796.9c0 4.1-4.4 6.6-7.9 4.6l-456-263.3L1037.2 233l790.9 456.6c3.9 2.3 8.8 10.7 8.8 15.3z"></path><path fill="#AEC7E6" d="M1201.7 351.5c0-2-1-4.2-2.4-5.9 1.4 1.6 2.4 3.9 2.4 5.9z"></path><path fill="#FFF" d="m779.2 959.7 592.5 342.1-592.5-342.1c-9.5-5.5-17.5-17.2-20.4-28.7 2.9 11.5 10.9 23.2 20.4 28.7z" opacity=".05"></path><path d="M1026 1549zM1026 1549zM1061.6 1542.2z" opacity=".25"></path><path fill="#0C325D" d="M444.3 240.3s40.6 122 48.7 165.1c0 0 97 67.5 111.5 75.5 6.4 3.5-8.6 51.3-20.3 45.9-14-6.4-103.3-50.9-133.4-65.3-30.1-14.4-96.7-179.3-102.4-202.6-6.5-27 12.1-54.4 33.2-54.4 29.9 0 53.2 16.2 62.7 35.8z"></path><path fill="#FFC5B3" d="m602.4 484.2 3.1.9s23.9-2.7 39.6-2.3c15.7.4 39.3.6 43.2 4.7 3.9 4.1 5.5 28.2 3.9 34.1-1.5 5.9-4.1 19.8-7.2 19.8-3.1 0-39.5-.2-52.3-2.8-12.9-2.6-22-3.3-30.3-10l-10.7-5.3c-12.4-5.4 1.2-42.6 10.7-39.1z"></path><path fill="#F2A29B" d="M687.8 524.8s20.1 6.3 21.5 7.1c1.5.7 13 9.7 13.7 10.5.7.8 8.3 11.2 8.7 12.3.4 1.1-1.1 4.9-4.9 5-3.8.1-9.9-4.4-11.6-7.1 0 0-5.4-2-10.7-6 0 0-18.2-4.1-21-5-9.1-2.9-7.4-19.8 4.3-16.8z"></path><path fill="#F2A29B" d="M684.6 512.2c5.7 1.8 30.2 3.4 32.9 4.9 2.8 1.5 18.8 13.7 19.3 14.7.4 1 10.2 12.2 11 13.1 1.8 2.1-1.8 6-7 5.5-3.6-.3-9.7-4-11.6-7.9 0 0-8.2-2.1-13.5-8.1 0 0-24.8-4.1-34.5-3.3-8.2.7-3.8-21.2 3.4-18.9z"></path><path fill="#F2A29B" d="M688.6 496.4c5.7 1.8 29.4 7.6 32.1 9.1 2.8 1.5 19.7 14.2 20.1 15.3.4 1 10.4 14.7 10.9 15.8.5 1.1-3.2 4.8-6.7 3.9-3.5-.9-10.9-6.2-12.8-10.1 0 0-9.7-3.3-14.9-9.3 0 0-27-4.1-35.3-4.9-8.1-1.1-.7-22.2 6.6-19.8z"></path><path fill="#FFC5B3" d="M685.3 486c5.7 1.8 29.2 8.4 32 9.9 2.8 1.5 15.4 11.8 15.8 12.8.4 1 9.5 15.6 10 16.7.5 1.1-3.2 4.8-6.7 3.9-3.5-.9-10.9-6.2-12.8-10.1 0 0-6-2.5-11.2-8.5 0 0-24.4-2.8-32.7-3.7-8.1-.9-1.6-23.3 5.6-21z"></path><path fill="#F2A29B" d="M623.6 519.7s11.1 9.6 13.9 19.8c15.4 1.9 44.7 2.1 47.5 2.1 3.1 0 5.7-14 7.2-19.9.6-2.3.7-7.3.4-12.8l-11.8-1.8c-5-.6-33.2-3.9-41.4-2.9-8.1 1-15.8 15.5-15.8 15.5z"></path><path fill="#FFC5B3" d="M605.8 489.8s11.2-7.1 26.2-7.5c14.9-.4 26.9 4.4 26.9 4.4s22 7.9 24.6 9 20.3 9.5 21.1 10c.8.5-.3 10.4-11 8.6-10.7-1.7-16.1-5.2-16.1-5.2l-22.3-1.4s-4.7 13.5-30.6 11.9c-25.8-1.6-23.6-15.9-23.6-17.9.3-2 .8-8.8 4.8-11.9z"></path><path fill="#0C3461" d="M365 1230.3c56-5.8 100.4 3.9 152.2 25.8 10 4.2 20 9.1 27 17.4 7 8.3 10.9 21.3 4.5 30.1-13.4 18.5-44 15.1-52.3 13.3 5.5 16.4 1.1 29.7-8.7 44-11.8 17.2-23.8 34.6-39 48.9-15.2 14.3-34.2 25.4-55 27.6-10.8 1.1-22.2 0-31.9 4.9-9.7 5-15.5 15.3-24.2 22-10.1 7.8-23.5 10.3-36.3 9.4-12.7-.9-25-4.9-37.2-8.9-16.5-5.4-33.8-11.3-45.4-24.2-5.6-6.2-9.5-13.6-13.4-21-4.7-8.9-9.3-17.8-14-26.7-5.2-10-10.6-21.5-6.7-32.1 3.4-9.1 13-14.6 22.4-16.9 9.5-2.3 19.4-2.3 28.8-4.6 28-6.7 47.4-31.3 64.5-54.4 17.4-23.1 36.8-47.8 64.7-54.6z" opacity=".25"></path><path fill="#071F3B" d="M450.1 1302.3c-44.8-12.3-50.3-18-61.9-17-9.6.8-19.6 1.1-30.1-2.2-18.9-5.8-27.5-23-21.4-44.3 6-21.3 11-38.9 12.1-45.6 1.4-8.4 48.9-9.9 67.9 11 7 7.7 38.2 27.4 65 33.5 26.8 6.1 76.8 19 68.2 49.7-10.2 36.5-77.6 20.9-99.8 14.9z"></path><path fill="#0C325D" d="M496.1 553.8c3.6 11.5 29.7 251.9-1.1 387.2-30.8 135.3-61.5 232.1-67.7 267.6-4.2 24.3-88 14.5-84.3-10 3.7-24.6 13.2-79.6 13.5-124.4.3-38.3 4.1-68.2 21.8-112.8 6.4-16 7.5-33.7 3.1-50.4-19.2-71.9-69.7-269.7-63.3-334.5 8-79.8 151.1-109.3 178-22.7z"></path><path fill="#071F3B" d="M333.7 1451.4c-31.4 7.6-67.3-.4-90.2-32.7-12.2-17.2-32-33.1-32-33.1s-26.8-13.5-21.7-39.1c4.3-21.3 4.9-39.4 6.5-60.2 1.4-19.1 65.4-13.3 62.4 7.9-2.4 16.5 17.6 43.9 38.9 61.7 19.7 16.5 32.6 24.3 49.6 41.7 25.5 26.3 8 48.6-13.5 53.8z"></path><path fill="#114077" d="M461.4 587.5c0 70.7-42 277.9-89.1 372.2-47.1 94.3-99.8 320-101.7 351.1-1.9 31.1-82 28-81.4 0 .6-28 9.4-150.2 15-185.9 13.1-84.6 33.2-116.3 46-157.4 12.6-40.3 21.3-314.3 52-396.4 18.6-49.9 159.2-64.2 159.2 16.4z"></path><path fill="#DCE9F5" d="M245.2 318.5c4.7-32.1 6.3-65.4 41.8-102.8 22.5-23.6 42.1-28.1 46.9-30.1 8.2-3.5 39.9 12.3 63.7 27.3 14.3 9 60 33.6 84.9 106.6 8.3 24.2 10.5 58.8 11 81.2 1.3 54.4-3.6 99.7-2.8 112.9 1.2 18.7 8 28.9 8.9 42.6 1.2 17.6-24.3 56-64.7 79-40.4 23-126.6 14.6-141.3-25.5-8.9-24.4 26.1-71.2 24.3-102-1.8-29.4-26.8-74.7-48.5-117-21.7-42.4-26.1-59-24.2-72.2z"></path><path d="M318 507.6c1.9 30.8-33.2 77.7-24.3 102 14.6 40.1 100.8 48.5 141.3 25.5 40.4-23 65.9-61.4 64.7-79-.9-13.7-7.7-24-8.9-42.6-.2-3.7 0-10.1.4-18.4-15 41-155.6 14.2-157.4-9-1.8-23.2 9.2-65.6 3.8-129.7-4.2-49.5-34.1-62.6-68.3-60.3-12.2.8-22.3 10.1-24.1 22.2v.2c-1.9 13.3 2.5 29.9 24.3 72.2 21.7 42.3 46.7 87.5 48.5 116.9z" opacity=".05"></path><path fill="#FFC5B3" d="M296.4 158.5s1.5 35-5.6 53.3c-6.3 16.1 6.9 35.3 33.2 42.1 23.8 6.2 43.4 1 55.5-9.6 14.9-13.1-1.5-39-2.6-39.9 0 0-5.6-9.5-9.5-36.9-4.9-33.6-69.5-31.5-71-9z"></path><path fill="#F2A29B" d="M324.1 253.9c23.8 6.2 43.4 1 55.5-9.6 14.9-13.1-1.5-39-2.6-39.9 0 0-5.6-9.5-9.5-36.9-4.9-33.6-69.5-31.5-71-9 0 0 .1 2.9.1 7.5 2.7 4 6.4 8.1 11.8 12.2 0 0 19.2 15.9 52.6 34.2 14.2 7.8 8.9 27.9-12.9 21.8-13-3.6-41.4-10.7-56.5-24.3-.2.6-.4 1.3-.7 1.9-6.3 16.1 6.9 35.2 33.2 42.1z"></path><path fill="#AEC7E6" d="M379.5 244.3s19.8 9.8 25.7 14.7c0 0 4-20.2-15.2-33.6 0 0 2.8 10.6-10.5 18.9zM379.5 244.3l3 39s-61.7-.3-86.5-41.7c.1 0 42.2 14.8 83.5 2.7z"></path><path fill="#FF8666" d="m379.5 244.3-23.7 10.3 30.3 9.2s67.3 80.4 60.7 265.5l12.8 9.7 16.2-37.7s-6.1-172.8-79.6-248.1l-8.2-21-8.5 12.1z"></path><path fill="#DCE9F5" d="M379.5 244.3s-29.9 2-61.3-16.3c-26-15.2-23.1-34.8-23.1-34.8s-3.3 7.3-6.6 21c-3 12.7 8.9 59.3 91 64v-33.9zM376.9 204.3s13.1 23.8 2.6 39.9c0 0 16.8 4.7 25 10.3 0 0 2-27.8-27.6-50.2z"></path><path fill="#114077" d="M291.1 204.3s-10.6 13.4 48.2 70.5c56.1 54.6 115.6 221.4 85.5 413.8 0 0-140.4 14-143.9-49.3-2.7-48.8 44.5-110.1 28.8-151.1S250.2 379 242.5 334.5c-10-58 37.9-117.7 48.6-130.2z"></path><path fill="#27639E" d="M293.5 250.3c12.7 34.2 31.7 62.4 53.4 96.1L375 354l-13 19.9s47.5 68.8 63.9 114.3C411 387.3 374.5 309 339.4 274.8c-54.9-53.4-49.3-68.6-48.3-70.4-1.4 2.1-9.5 13.7 2.4 45.9z"></path><path fill="#0C325D" d="M309.6 488.2c15.7 41-31.5 102.3-28.8 151.1 3.5 63.2 143.9 49.3 143.9 49.3 10.1-64.7 10.1-126.5 3.5-182.1l-23.8-28.3-52.8-103c-26.5-43.5-77-63.9-108.7-77.3-2.2 12-2.7 24.4-.5 36.7 7.8 44.4 51.5 112.7 67.2 153.6z"></path><path fill="#114077" d="M374.9 199.7c-2.6.9 135 42.5 106.1 441.9 0 0 21-17.6 28.9-44.9 8-27.3-14.1-70.4-14.7-84.3-.6-14 18.1-151.5-14.2-216.5-32.4-65-91.3-92.2-106.1-96.2z"></path><path fill="#27639E" d="M482 456.7c2-57.4-8.4-142.7-8.4-142.7l-15.1-5.8 4.6-22.1c-29.5-72.7-84.9-85.5-88.3-86.4-2.1.7 89.5 28.6 107.2 257z"></path><path fill="#FFC5B3" d="M351.3 5.2c-17.1 0-83.1 10.5-83.1 93.8 0 69.8 64 95.9 92.3 106.4 28.2 10.5 38.8 13.6 50.4 11.8 11.5-1.7 15-5.6 17.8-16.1 2.8-10.5 6.9-26.5 6.9-26.5s12.9-7.1 13.1-8.4c.2-1.3-8.4-27.6-11.2-37.4 0 0 9.4-45.1-3.3-71.3-12.8-26.1-38.5-52.3-82.9-52.3z"></path><path fill="#BA4827" d="M446.4 57.9c15.4 10.5 14.6 33.2-1.7 42-6.3 3.4-14 6.1-23.4 7.8-9.1 1.6-17.6 2.9-25.1 4.1-17.2 2.6-30.1 16.9-31.1 34.2-.5 8.9-1 16.8-1.3 18.9-.9 5.5-8-2-13.1-25.1-7.2-32.1-33.3-18.3-36.9-6.1-1.9 6.5-3.1 11.7-.6 23.4 2 9.4-8.5 16.4-16.4 10.9-.1-.1-.2-.1-.2-.2 0 0-10-6.8-21-25.8-12.4-21.4-19.4-60.3-2-93.5C291 15.4 318.9-.1 355.8 0c34.7.1 69.9 24.6 82.9 49.3 2.1 3.8 4.8 6.6 7.7 8.6z"></path><path fill="#FF8666" d="M263.9 105.2c1.7 14.4 6.2 27.3 11.7 36.9 11 19 21 25.8 21 25.8.1.1.2.1.2.2 7.9 5.5 18.4-1.5 16.4-10.9-2.5-11.7-1.3-17 .6-23.4 3.5-12.2 29.7-26 36.8 6.1 5.2 23.1 12.3 30.6 13.1 25.1.3-2.1.8-10.1 1.3-18.9 1-17.3 13.9-31.6 31.1-34.2.4-.1.8-.1 1.1-.2 7.2-1.1 15.3-2.4 23.9-3.9 9.4-1.6 17.1-4.4 23.4-7.8 16.4-8.8 17.1-31.6 1.7-42-2.9-2-5.6-4.8-7.7-8.7-.2-.3-.3-.6-.5-.9C424.8 24 390 .1 355.8 0c-36.9-.1-64.8 15.4-82.2 48.6-9.7 18.4-11.8 38.6-9.7 56.6z"></path><path fill="#ED4944" d="M263.9 105.2c1.7 14.4 6.2 27.3 11.7 36.9 11 19 21 25.8 21 25.8.1.1.2.1.2.2 7.9 5.5 18.4-1.5 16.4-10.9-2.5-11.7-1.3-17 .6-23.4 3.5-12.2 29.7-26 36.8 6.1 5.2 23.1 12.3 30.6 13.1 25.1.3-2.1.8-10.1 1.3-18.9 1-17.3 13.9-31.6 31.1-34.2 7.5-1.1 16-2.5 25.1-4.1 9.4-1.6 17.1-4.4 23.4-7.8 16.4-8.8 17.1-31.6 1.7-42 0 0-15.1 38.9-140.5 25.4.1-.1-6.5 22.6-41.9 21.8z"></path><path fill="#FF8666" d="M379.5 106.4c4.3 2 10.9 3.8 17.8 5.2 7.2-1.1 15.3-2.4 23.9-3.9 9.4-1.6 17.1-4.4 23.4-7.8 16.4-8.8 17.1-31.6 1.7-42 0 0-27.6 29.9-68.1 29.7 5.3 5.2 27.1 5.7 25.6 6.2-10.7 3.2-19.6 4.9-36.3 1.3.2 0-1 5.2 12 11.3z"></path><path fill="#114077" d="M382.8 514.8s115.3 121.6 120.3 124.8c9 5.8-14.2 56.5-27.5 48.3-13.6-8.3-109.4-83.1-135-106.4-23.1-21-109-173.1-112.7-196.8-5.1-33.2-.3-65.7 21.6-110.5 23.8-48.7 97.5 93.1 133.3 240.6z"></path><path fill="#F2A29B" d="m555.8 708.8 24.1.3s7.5-3.1 10.6-3.8c0 0 2.5-5.5 7.7-6.2 5.2-.7 5.7 4 4.6 6-1.1 2-5.8 11.2-6.3 11.6-.5.4-13.1 6.6-15.8 7.3-2.7.7-17.4.5-26.2.9-6.2.2-4.5-16.4 1.3-16.1z"></path><path fill="#F2A29B" d="m568 698.3 28.4 4.5s8.3-3.4 11.8-4.2c0 0 2.8-6.1 8.6-6.9 5.8-.8 6.3 4.5 5.1 6.7-1.2 2.2-6.4 12.4-7 12.9-.6.4-14.6 7.3-17.6 8.1-3 .8-28.7-2.9-35.6-3.4-6.9-.6-.2-18 6.3-17.7z"></path><path fill="#F2A29B" d="m576.7 687.7 26.3 1.9s8.8-3 12.2-3.8c0 0 4.5-6 10.3-6.8 5.8-.8 6.4 5 5.2 7.3-1.2 2.2-8.2 11.8-8.8 12.2-.6.4-14.6 7.3-17.6 8.1-3 .8-27.1-1.9-34-2.4-6.9-.6-.2-16.8 6.4-16.5z"></path><path fill="#FFC5B3" d="m581.6 672.7 23.8 3s6.2-2.6 9.6-3.4c0 0 3.9-4.3 9.7-5.1 5.8-.8 6.4 5 5.2 7.3-1.2 2.2-6.4 8.6-7 9-.6.4-12.2 6.2-15.2 7-3 .8-26.4-.5-33.3-1-6.8-.6.7-17.2 7.2-16.8z"></path><path fill="#FFC5B3" d="m501 642.5 2.8 2.2s28.4 6 44.2 11c15.8 5 33.2 16.2 34.2 17.4 1 1.2-3.9 20.3-7.9 30.5s-10.4 18.9-15.4 20.5c-5 1.7-8.1.2-15.6-4.1-6.7-3.9-40.2-21.2-49.4-26.1-1.4-.7-2.6-1.6-3.7-2.6l-9.2-7.2c-8.5-6.4 8.2-45.2 20-41.6z"></path><path fill="#FFC5B3" d="M610.1 652.7s-17.8-7.9-19.9-8.4c-2.1-.5-30.5-6.7-33.9-7.3-3.4-.5-33.7-1.8-52.5 7.7-18.8 9.5-1.4 33.8 13.8 37 15.2 3.2 41.4-14.6 44.1-20.5l25.3-1s8 5.2 15.8 3.2c7.9-1.9 8.8-7 7.3-10.7z"></path><defs><path id="a" d="m1828.1 689.6-739.3-426.8-298-172c-3.5-2-7.9.5-8 4.6l-.7 259.3c-.1.1-.3.2-.4.3-.2.2-.4.4-.6.5-.4.3-.7.6-1.1.9l-.6.6c-.1.1-.3.2-.4.4l-.4.4c-.4.4-.8.9-1.2 1.3l-.4.4c-.1.1-.2.3-.3.4-.2.3-.5.6-.7.9-.2.2-.3.4-.5.6-.1.2-.2.3-.4.5s-.3.5-.5.7c-.1.2-.2.3-.4.5l-.6.9c-.1.2-.3.4-.4.5l-.2.2c-.3.5-.6 1-1 1.6l-.1.1c-.1.1-.1.2-.2.3-.2.4-.4.8-.6 1.1-.1.2-.2.4-.3.5l-.3.6c-.1.2-.2.3-.3.5-.2.4-.4.9-.6 1.3 0 .1-.1.2-.1.2v.1c-.2.6-.5 1.1-.7 1.7 0 .1-.1.2-.1.3-.1.2-.1.4-.2.6-.1.3-.2.5-.3.8-.1.2-.1.4-.2.7-.1.3-.2.5-.2.8 0 .2-.1.3-.1.5-.1.3-.1.6-.2.9l-.2 1c0 .1-.1.2-.1.3-.1.2-.1.5-.1.7l-.3 1.5c0 .1-.1.3-.1.4-.1.3-.1.6-.1.9 0 .2 0 .4-.1.7-.1.7-.1 1.4-.1 2.1l.2 65.1-1 366.5c-.1 20.8 5.4 43.3 14.8 64.9v11c0 4.5 4.9 12.9 8.9 15.2l7.8 4.5c13.3 20.4 29.9 38.2 48.1 50.5l-.2 62.8c-.2 55.3 38.9 123 87.1 150.8 24.3 14 46.4 15.3 62.3 5.9-.1 0-.1.1-.2.1l134.9-78.4 108.2 62.5c15.1 23.1 34.5 43 55.6 55.2 21.1 12.2 40.6 14.7 55.7 9.1l108.8 62.9c15.1 23.1 34.5 43 55.6 55.2 21.1 12.2 40.6 14.7 55.7 9.1l108.8 62.8c15.1 23.1 34.5 43 55.6 55.2 21.1 12.2 40.6 14.7 55.7 9.1l37.4 21.6c3.5 2 7.9-.5 8-4.6l.1-42.8 2.1-754.1c.5-4.7-4.4-13.1-8.3-15.4z"></path></defs><clipPath id="b"><use overflow="visible" xlink:href="#a"></use></clipPath><g clip-path="url(#b)"><path fill="#E6A029" d="m884.4 924.7 1.8-.9 518.9-301.6-1.8.9-.6.3c-.4.2-.8.4-1.2.5-.3.1-.7.2-1 .3-.2.1-.4.1-.6.2-.4.1-.9.2-1.3.3-.2 0-.3.1-.5.1h-.3c-.7.1-1.4.2-2.2.3-.3 0-.5 0-.8.1-.5 0-1 .1-1.5.1h-2c-.3 0-.6 0-1-.1-.3 0-.7-.1-1-.1-.4 0-.7-.1-1.1-.1-.3 0-.6-.1-.9-.2-.4-.1-.8-.1-1.2-.2-.3-.1-.5-.1-.8-.2-.4-.1-.9-.2-1.3-.3-.3-.1-.5-.1-.8-.2-.5-.1-.9-.3-1.4-.4-.2-.1-.5-.1-.7-.2-.7-.2-1.3-.5-2-.8h-.1l-2.1-.9c-.2-.1-.4-.2-.7-.3-.5-.2-1-.5-1.5-.8-.3-.1-.5-.3-.8-.4-.7-.4-1.4-.7-2-1.1-.8-.4-1.5-.9-2.3-1.4 0 0-.1 0-.1-.1-.7-.5-1.5-1-2.2-1.5-.2-.2-.5-.4-.7-.5-.5-.3-1-.7-1.5-1.1-.3-.2-.6-.4-.9-.7-.4-.3-.9-.7-1.3-1-.3-.3-.6-.5-.9-.8-.4-.3-.8-.7-1.2-1-.3-.3-.6-.6-1-.8-.4-.4-.8-.7-1.2-1.1l-.9-.9-1.2-1.2-.9-.9c-.4-.4-.8-.8-1.2-1.3l-.8-.8c-.5-.5-1-1-1.4-1.6-.2-.2-.3-.4-.5-.6-.6-.7-1.3-1.5-1.9-2.2-.1-.2-.3-.3-.4-.5l-1.5-1.8c-.6-.7-1.1-1.5-1.7-2.2-.1-.1-.2-.2-.3-.4-.9-1.2-1.8-2.5-2.6-3.8-.2-.2-.3-.5-.5-.7-1.1-1.6-2.1-3.3-3.1-5-.1-.2-.3-.4-.4-.6-.7-1.2-1.4-2.4-2-3.6-.2-.4-.5-.9-.7-1.3-.2-.5-.5-.9-.7-1.4-.3-.7-.6-1.3-1-2-.1-.2-.2-.4-.3-.7-.4-.9-.8-1.7-1.2-2.6-.1-.2-.2-.5-.3-.7-.3-.6-.6-1.3-.8-1.9-.1-.3-.2-.6-.4-.9-.2-.6-.5-1.2-.7-1.9-.1-.3-.2-.5-.3-.8-.3-.8-.6-1.6-.8-2.4 0-.1-.1-.2-.1-.3l-.9-2.7c-.1-.3-.2-.6-.2-.9-.2-.6-.4-1.3-.5-1.9-.1-.3-.2-.7-.3-1-.2-.6-.3-1.2-.4-1.7-.1-.3-.2-.7-.2-1-.1-.6-.3-1.2-.4-1.8-.1-.3-.1-.6-.2-1-.1-.7-.3-1.5-.4-2.2 0-.1-.1-.3-.1-.4-.1-.9-.3-1.8-.4-2.6 0-.2-.1-.5-.1-.7-.1-.6-.1-1.3-.2-1.9 0-.3 0-.6-.1-.9 0-.6-.1-1.2-.1-1.8v-.8c0-.8-.1-1.7 0-2.5L806.4 839.9v4.3c0 .3 0 .5.1.8 0 .3 0 .6.1.9v.6c0 .4.1.9.1 1.3 0 .2.1.5.1.7v.2c.1.8.2 1.6.3 2.3v.1c0 .1 0 .3.1.4.1.6.2 1.2.3 1.9 0 .1.1.2.1.4.1.3.1.6.2.9.1.4.1.7.2 1.1 0 .2.1.4.2.7.1.3.2.7.2 1 .1.3.1.5.2.8.1.3.2.6.3 1 .1.3.2.7.3 1 0 .2.1.3.1.5.1.5.3.9.4 1.4.1.3.2.6.2.9 0 .1 0 .1.1.2.2.8.5 1.6.8 2.4 0 .1.1.2.1.3.2.7.5 1.3.7 2 0 .1.1.2.1.4.1.3.2.5.3.8.1.4.3.7.4 1.1.1.3.2.5.3.8.1.3.2.6.4.9l.3.6c.2.4.4.9.6 1.3.1.2.2.5.3.7 0 .1.1.2.1.2.3.8.7 1.5 1 2.3v.1c.1.2.2.5.3.7.3.6.5 1.1.8 1.7 0 .1.1.2.1.3.2.5.5.9.7 1.4.2.4.4.8.6 1.1 0 .1.1.1.1.2.7 1.2 1.3 2.4 2 3.6.1.1.1.2.2.3.1.1.1.2.2.3 1 1.7 2 3.3 3.1 5 .1.1.1.2.2.3.1.1.2.3.3.4.9 1.3 1.7 2.5 2.6 3.8.1.1.2.2.3.4.6.7 1.1 1.5 1.7 2.2l.1.1c.4.6.9 1.1 1.4 1.7.1.2.3.3.4.5l1.8 2.1.1.1c.2.2.3.4.5.6.4.5.8.9 1.2 1.4l.2.2.8.8c.3.3.6.6.9 1l.3.3.9.9.8.8.4.4c.3.3.6.6 1 .9.2.2.5.4.7.6.2.2.3.3.5.4.3.3.6.6 1 .8.2.2.4.4.6.5.2.2.4.3.6.5.3.3.6.5.9.8.2.1.3.3.5.4.3.2.5.4.8.6.3.2.6.4.9.7.1.1.2.2.4.3.4.3.7.5 1.1.8.2.2.5.4.7.5.1 0 .1.1.2.1.7.4 1.3.9 2 1.3 0 0 .1 0 .1.1.6.4 1.2.8 1.9 1.1.2.1.3.2.5.3.5.3 1 .6 1.5.8l.6.3c.3.1.5.3.8.4l.6.3c.3.2.6.3 1 .4.2.1.4.2.7.3.1 0 .2.1.3.1.6.3 1.2.5 1.9.8h.1c.6.2 1.2.5 1.8.7.1 0 .2.1.3.1.2.1.5.1.7.2l.9.3c.2 0 .3.1.5.1.3.1.5.2.8.2.2.1.4.1.6.2.2.1.5.1.7.2.3.1.5.1.8.2.1 0 .3.1.4.1.3.1.5.1.8.1.3.1.6.1.9.2.1 0 .2 0 .3.1.3 0 .5.1.8.1.3 0 .7.1 1 .1h3c.5 0 1 0 1.5-.1h.7c.7-.1 1.5-.2 2.2-.3H879.3c.2 0 .3-.1.5-.1.4-.1.9-.2 1.3-.3.2-.1.4-.1.6-.2.3-.1.6-.2.8-.3.1 0 .1-.1.2-.1.4-.2.8-.3 1.2-.5.1 0 .3-.1.5-.2z"></path><path fill="#FCD688" d="M940.5 917.3c0 1.6 0 3.2-.1 4.8 0 .4-.1.9-.1 1.3-.1 1.1-.1 2.1-.2 3.2-.1.6-.1 1.2-.2 1.8-.1.9-.2 1.8-.3 2.6-.1.6-.2 1.3-.3 1.9-.1.8-.3 1.6-.4 2.4-.1.7-.3 1.4-.4 2.1-.2.7-.3 1.4-.5 2.1l-.6 2.4c-.2.6-.3 1.2-.5 1.8-.3.9-.6 1.8-.9 2.8-.2.6-.4 1.2-.6 1.7-.1.3-.2.6-.3.8-.4 1-.8 1.9-1.2 2.8-.1.2-.1.3-.2.5-.5 1.1-1.1 2.2-1.7 3.3-.1.1-.1.2-.2.3-.5.9-1.1 1.9-1.6 2.8-.1.2-.3.4-.4.6l-1.5 2.1c-.2.3-.4.6-.6.8l-1.5 1.8c-.2.2-.4.5-.6.7-.7.8-1.4 1.6-2.2 2.3l-.3.3c-.6.6-1.3 1.2-2 1.8-.2.2-.5.4-.8.6-.6.5-1.2.9-1.8 1.4-.3.2-.5.4-.8.5-.8.6-1.7 1.1-2.6 1.7L1434 671.7c.9-.5 1.7-1.1 2.6-1.7.3-.2.5-.4.8-.5.6-.4 1.2-.9 1.8-1.4.3-.2.5-.4.8-.6.7-.6 1.3-1.2 2-1.8l.3-.3c.7-.7 1.5-1.5 2.2-2.3.2-.2.4-.5.6-.7l1.5-1.8c.2-.3.4-.6.6-.8l1.5-2.1c.1-.2.3-.4.4-.6 0-.1.1-.1.1-.2.5-.8 1-1.7 1.5-2.6.1-.1.1-.2.2-.3.6-1 1.1-2 1.6-3.1 0-.1.1-.1.1-.2.1-.2.1-.3.2-.5.4-.9.8-1.8 1.2-2.8.1-.3.2-.6.3-.8.1-.2.2-.4.3-.7.1-.4.2-.7.4-1.1.3-.9.6-1.8.9-2.8.1-.3.2-.5.3-.8.1-.3.2-.7.3-1.1l.6-2.4c.1-.3.2-.7.3-1 .1-.4.1-.7.2-1.1.1-.7.3-1.4.4-2.1.1-.4.2-.7.2-1.1.1-.4.1-.9.2-1.3.1-.6.2-1.3.3-1.9 0-.3.1-.7.1-1 .1-.5.1-1.1.2-1.7.1-.6.1-1.2.2-1.8 0-.2.1-.5.1-.7.1-.8.1-1.6.2-2.4 0-.4.1-.9.1-1.3v-.3c.1-1.4.1-2.8.1-4.2v-.3L940.5 917.3z"></path><path fill="#F9CF6A" d="M940.5 917.3c0 1.6 0 3.2-.1 4.8 0 .4-.1.9-.1 1.3-.1 1.1-.1 2.1-.2 3.2-.1.6-.1 1.2-.2 1.8-.1.9-.2 1.8-.3 2.6-.1.6-.2 1.3-.3 1.9-.1.8-.3 1.6-.4 2.4-.1.7-.3 1.4-.4 2.1-.2.7-.3 1.4-.5 2.1l-.6 2.4c-.2.6-.3 1.2-.5 1.8-.3.9-.6 1.8-.9 2.8-.2.6-.4 1.2-.6 1.7-.1.3-.2.6-.3.8-.4 1-.8 1.9-1.2 2.8-.1.2-.1.3-.2.5-.5 1.1-1.1 2.2-1.7 3.3-.1.1-.1.2-.2.3-.5.9-1.1 1.9-1.6 2.8-.1.2-.3.4-.4.6l-1.5 2.1c-.2.3-.4.6-.6.8l-1.5 1.8c-.2.2-.4.5-.6.7-.7.8-1.4 1.6-2.2 2.3l-.3.3c-.6.6-1.3 1.2-2 1.8-.2.2-.5.4-.8.6-.6.5-1.2.9-1.8 1.4-.3.2-.5.4-.8.5-.8.6-1.7 1.1-2.6 1.7L1434 671.7c.9-.5 1.7-1.1 2.6-1.7.3-.2.5-.4.8-.5.6-.4 1.2-.9 1.8-1.4.3-.2.5-.4.8-.6.7-.6 1.3-1.2 2-1.8l.3-.3c.7-.7 1.5-1.5 2.2-2.3.2-.2.4-.5.6-.7l1.5-1.8c.2-.3.4-.6.6-.8l1.5-2.1c.1-.2.3-.4.4-.6 0-.1.1-.1.1-.2.5-.8 1-1.7 1.5-2.6.1-.1.1-.2.2-.3.6-1 1.1-2 1.6-3.1 0-.1.1-.1.1-.2.1-.2.1-.3.2-.5.4-.9.8-1.8 1.2-2.8.1-.3.2-.6.3-.8.1-.2.2-.4.3-.7.1-.4.2-.7.4-1.1.3-.9.6-1.8.9-2.8.1-.3.2-.5.3-.8.1-.3.2-.7.3-1.1l.6-2.4c.1-.3.2-.7.3-1 .1-.4.1-.7.2-1.1.1-.7.3-1.4.4-2.1.1-.4.2-.7.2-1.1.1-.4.1-.9.2-1.3.1-.6.2-1.3.3-1.9 0-.3.1-.7.1-1 .1-.5.1-1.1.2-1.7.1-.6.1-1.2.2-1.8 0-.2.1-.5.1-.7.1-.8.1-1.6.2-2.4 0-.4.1-.9.1-1.3v-.3c.1-1.4.1-2.8.1-4.2v-.3L940.5 917.3z"></path><path fill="#FAB031" d="m766.8 449.9 518.9-301.6 40.6 23.5-518.9 301.6z"></path><path fill="#E6A029" d="m807.4 473.4 518.9-301.6-1 366.5-518.9 301.6z"></path><path fill="#C2D7F2" d="m838.7 491.4-1.1 385.7-20.9-12.1 1.1-385.7z"></path><path fill="#98ADD4" d="m838.7 491.4 518.9-301.6-1.1 385.7-518.9 301.6z"></path><path fill="#E9F0F7" d="m817.8 479.3 518.9-301.5 20.9 12-518.9 301.6z"></path><path fill="#C2D7F2" d="M866.1 507.2 865 892.9l-20.9-12 1.1-385.7z"></path><path fill="#98ADD4" d="M866.1 507.2 1385 205.7l-1.1 385.7L865 892.9z"></path><path fill="#E9F0F7" d="m845.2 495.2 518.9-301.6 20.9 12.1-518.9 301.5z"></path><path fill="#98ADD4" d="m893.5 523 518.9-301.5-1.1 385.7-518.9 301.5z"></path><path fill="#C2D7F2" d="m893.5 523-1.1 385.7-20.9-12 1.1-385.7z"></path><path fill="#E9F0F7" d="m872.6 511 518.9-301.6 20.9 12.1L893.5 523z"></path><path fill="#FBC253" d="M940.5 917.3c-.2 55.3-39.5 77.8-87.6 49.9-48.2-27.8-87.2-95.5-87.1-150.8l1-366.5 40.6 23.4-1 366.5c-.1 29.6 20.8 65.8 46.6 80.7 25.8 14.9 46.8 2.9 46.9-26.7l40.6 23.5z"></path><path fill="#12FF37" d="m921 570.7 106.2-61.7c9.9-5.7 18.2-13.9 24.1-23.7l33.5-55.4c5.8-9.7 14-17.7 23.8-23.4l311.1-180.8-1 366.5-518.9 301.6 1-288c.1-14.5 7.8-27.8 20.2-35.1z"></path><path fill="#FCD688" d="m961.7 594.2 106.2-61.7c9.9-5.7 18.2-13.9 24.1-23.7l33.5-55.4c5.8-9.7 14-17.7 23.8-23.4l311.1-180.8-1 366.5-518.9 301.6 1-288c0-14.5 7.7-27.8 20.2-35.1z"></path><path fill="#FAB031" d="m961.7 594.2 106.2-61.7c9.9-5.7 18.2-13.9 24.1-23.7l33.5-55.4c5.8-9.7 14-17.7 23.8-23.4l311.1-180.8-40.6-23.5-311.1 180.8c-9.8 5.7-18 13.7-23.8 23.4l-33.5 55.4c-5.9 9.8-14.2 17.9-24.1 23.7L921 570.7c-12.5 7.3-20.2 20.6-20.2 35l-1 288 40.6 23.5 1-288c.1-14.4 7.8-27.7 20.3-35z"></path><path fill="#FBC253" d="m1051.4 485.3 33.5-55.4c2-3.4 4.4-6.5 6.9-9.4l40.6 23.5c-2.6 2.9-4.9 6.1-6.9 9.4l-33.5 55.4c-2.8 4.6-6.1 8.8-9.8 12.6l-40.6-23.5c3.7-3.8 7-8 9.8-12.6zM900.8 605.8c0-3.1.4-6.2 1.1-9.2l40.6 23.5c-.7 3-1.1 6.1-1.1 9.2l-1 288-40.6-23.5 1-288zM951.5 303.6c.6-.3 1.1-.6 1.7-.8.1-.1.2-.1.3-.2.6-.3 1.2-.5 1.9-.8.8-.3 1.5-.6 2.3-.9.1 0 .1 0 .2-.1.8-.3 1.6-.5 2.4-.7l1.2-.3c.3-.1.6-.1.8-.2.4-.1.8-.2 1.3-.2.3 0 .5-.1.8-.1.6-.1 1.2-.2 1.9-.2h.5c.5 0 .9-.1 1.4-.1h2.3c.6 0 1.1.1 1.7.1h.2c.5.1 1 .1 1.5.2.1 0 .3.1.4.1.5.1.9.2 1.3.3.1 0 .2 0 .2.1.5.1 1 .3 1.5.5.1 0 .2.1.4.1.4.2.8.3 1.2.5.1 0 .2.1.3.1.5.2 1 .5 1.5.8l-40.6-23.4c-.1 0-.2-.1-.2-.1l-1.2-.6c-.1 0-.2-.1-.3-.1-.2-.1-.4-.2-.7-.3-.2-.1-.4-.1-.5-.2-.1 0-.2-.1-.4-.1-.5-.2-.9-.3-1.4-.5h-.1c-.1 0-.2 0-.2-.1-.4-.1-.9-.2-1.3-.3-.1 0-.3-.1-.4-.1-.1 0-.2-.1-.4-.1-.4-.1-.7-.1-1.1-.2h-.2c-.5-.1-.9-.1-1.4-.1h-2.9c-.4 0-.7 0-1.1.1h-.5c-.6.1-1.2.1-1.8.2h-.1c-.2 0-.5.1-.8.1-.4.1-.8.1-1.3.2-.3.1-.6.1-.9.2-.3.1-.7.1-1 .2-.1 0-.1 0-.2.1-.8.2-1.6.5-2.4.7-.1 0-.1 0-.2.1-.7.3-1.5.5-2.3.9-.1 0-.1.1-.2.1-.5.2-1.1.5-1.6.7-.1 0-.2.1-.3.2-.6.3-1.1.5-1.7.8-.2.1-.4.2-.5.3-.7.3-1.3.7-2 1.1l40.6 23.4c.7-.4 1.3-.7 2-1.1 0-.1.2-.2.4-.3zM807.4 473.4l-40.6-23.5-.2-65.1 40.6 23.5z"></path><path fill="#FAB031" d="m825.9 376-40.7-23.4 123.1-71.1 40.6 23.4zM807.4 405.5c0-.4.1-.9.2-1.3l.3-1.5c.1-.3.1-.7.2-1 .1-.3.2-.6.2-1 .1-.4.2-.9.4-1.3.1-.3.2-.5.2-.8.2-.5.3-1 .5-1.5.1-.2.1-.4.2-.6.3-.7.5-1.4.8-2 0-.1.1-.2.1-.2l.9-1.8.3-.6c.3-.6.6-1.1.9-1.7.1-.1.1-.2.2-.3.4-.6.8-1.3 1.2-1.9.1-.2.2-.4.4-.5.3-.5.6-.9.9-1.3.2-.2.3-.5.5-.7.3-.4.6-.7.8-1.1.2-.3.5-.6.7-.9.2-.3.5-.5.7-.8.4-.5.8-.9 1.2-1.3l.8-.8.6-.6c.3-.3.7-.6 1.1-.9.2-.2.4-.4.6-.5l1.2-.9c.2-.1.4-.3.6-.4.6-.4 1.2-.8 1.8-1.1l-40.6-23.4c-.6.3-1.2.7-1.8 1.1-.2.1-.4.3-.6.4l-1.2.9c-.2.2-.4.3-.6.5-.4.3-.7.6-1.1.9l-.6.6c-.1.1-.3.2-.4.4l-.4.4c-.4.4-.8.9-1.2 1.3l-.4.4c-.1.1-.2.3-.3.4-.2.3-.5.6-.7.9-.2.2-.3.4-.5.6-.1.2-.2.3-.4.5s-.3.5-.5.7c-.1.2-.2.3-.4.5l-.6.9c-.1.2-.2.4-.4.5 0 .1-.1.1-.1.2-.3.5-.7 1-1 1.6 0 0 0 .1-.1.1-.1.1-.1.2-.2.3-.2.4-.4.8-.6 1.1-.1.2-.2.4-.3.5l-.3.6c-.1.2-.2.3-.2.5-.2.4-.4.9-.6 1.3 0 .1-.1.2-.1.2v.1c-.2.6-.5 1.1-.7 1.7 0 .1-.1.2-.1.3-.1.2-.1.4-.2.6-.1.3-.2.6-.3.8-.1.2-.1.4-.2.7-.1.3-.2.5-.2.8 0 .2-.1.3-.1.5-.1.3-.1.6-.2.9-.1.3-.2.6-.2 1 0 .1-.1.2-.1.3 0 .2-.1.5-.1.7l-.3 1.5c0 .1-.1.3-.1.4 0 .3-.1.6-.1.9 0 .2 0 .4-.1.7-.1.7-.1 1.4-.1 2.1l40.6 23.4c0-.7 0-1.4.1-2.1 0-.4.1-.7.1-.9z"></path><path fill="#FCD688" d="M948.9 304.9c17.6-10.1 33.5-7.3 40.5 7.1l21.2 43.2-203.2 118.2-.2-65.1c0-11.9 8.3-26.3 18.6-32.2l123.1-71.2z"></path><path fill="#DB8918" d="m963.9 1133.6 1.8-.9 518.9-301.6-1.8.9-.6.3c-.4.2-.8.4-1.2.5-.3.1-.7.2-1 .3-.2.1-.4.1-.6.2-.4.1-.9.2-1.3.3-.2 0-.3.1-.5.1h-.3c-.7.1-1.4.2-2.2.3-.3 0-.5 0-.8.1-.5 0-1 .1-1.5.1h-2c-.3 0-.6 0-1-.1-.3 0-.7-.1-1-.1-.4 0-.7-.1-1.1-.1-.3 0-.6-.1-.9-.2-.4-.1-.8-.1-1.2-.2-.3-.1-.5-.1-.8-.2-.4-.1-.9-.2-1.3-.3-.3-.1-.5-.1-.8-.2-.5-.1-.9-.3-1.4-.4-.2-.1-.5-.1-.7-.2-.7-.2-1.3-.5-2-.8h-.1l-2.1-.9c-.2-.1-.4-.2-.7-.3-.5-.2-1-.5-1.5-.8-.3-.1-.5-.3-.8-.4-.7-.4-1.4-.7-2-1.1-.8-.4-1.5-.9-2.3-1.4 0 0-.1 0-.1-.1-.7-.5-1.5-1-2.2-1.5-.2-.2-.5-.4-.7-.5-.5-.3-1-.7-1.5-1.1-.3-.2-.6-.4-.9-.7-.4-.3-.9-.7-1.3-1-.3-.3-.6-.5-.9-.8-.4-.3-.8-.7-1.2-1-.3-.3-.6-.6-1-.8-.4-.4-.8-.7-1.2-1.1l-.9-.9-1.2-1.2-.9-.9c-.4-.4-.8-.8-1.2-1.3l-.8-.8c-.5-.5-1-1-1.4-1.6-.2-.2-.3-.4-.5-.6-.6-.7-1.3-1.5-1.9-2.2-.1-.2-.3-.3-.4-.5l-1.5-1.8c-.6-.7-1.1-1.5-1.7-2.2-.1-.1-.2-.2-.3-.4-.9-1.2-1.8-2.5-2.6-3.8-.2-.2-.3-.5-.5-.7-1.1-1.6-2.1-3.3-3.1-5-.1-.2-.3-.4-.4-.6-.7-1.2-1.4-2.4-2-3.6-.2-.4-.5-.9-.7-1.3-.2-.5-.5-.9-.7-1.4-.3-.7-.6-1.3-1-2-.1-.2-.2-.4-.3-.7-.4-.9-.8-1.7-1.2-2.6-.1-.2-.2-.5-.3-.7-.3-.6-.6-1.3-.8-1.9-.1-.3-.2-.6-.4-.9-.2-.6-.5-1.2-.7-1.9-.1-.3-.2-.5-.3-.8-.3-.8-.6-1.6-.8-2.4 0-.1-.1-.2-.1-.3l-.9-2.7c-.1-.3-.2-.6-.2-.9-.2-.6-.4-1.3-.5-1.9-.1-.3-.2-.7-.3-1-.2-.6-.3-1.2-.4-1.7-.1-.3-.2-.7-.2-1-.1-.6-.3-1.2-.4-1.8-.1-.3-.1-.6-.2-1-.1-.7-.3-1.5-.4-2.2 0-.1-.1-.3-.1-.4-.1-.9-.3-1.8-.4-2.6 0-.2-.1-.5-.1-.7-.1-.6-.1-1.3-.2-1.9 0-.3 0-.6-.1-.9 0-.6-.1-1.2-.1-1.8v-3.3l-518.9 301.6v4.3c0 .3 0 .5.1.8 0 .3 0 .6.1.9v.6c0 .4.1.9.1 1.3 0 .2.1.5.1.7v.2c.1.8.2 1.6.3 2.3v.1c0 .1 0 .3.1.4.1.6.2 1.2.3 1.9 0 .1.1.2.1.4.1.3.1.6.2.9.1.4.1.7.2 1.1 0 .2.1.4.2.7.1.3.2.7.2 1 .1.3.1.5.2.8.1.3.2.6.3 1 .1.3.2.7.3 1 0 .2.1.3.1.5.1.5.3.9.4 1.4.1.3.2.6.2.9 0 .1 0 .1.1.2.2.8.5 1.6.8 2.4 0 .1.1.2.1.3.2.7.5 1.3.7 2 0 .1.1.2.1.4.1.3.2.5.3.8.1.4.3.7.4 1.1.1.3.2.5.3.8.1.3.2.6.4.9l.3.6c.2.4.4.9.6 1.3.1.2.2.5.3.7 0 .1.1.2.1.2.3.8.7 1.5 1 2.3v.1c.1.2.2.5.3.7.3.6.5 1.1.8 1.7 0 .1.1.2.1.3.2.5.5.9.7 1.4.2.4.4.8.6 1.1 0 .1.1.1.1.2.7 1.2 1.3 2.4 2 3.6.1.1.1.2.2.3.1.1.1.2.2.3 1 1.7 2 3.3 3.1 5 .1.1.1.2.2.3.1.1.2.3.3.4.9 1.3 1.7 2.5 2.6 3.8.1.1.2.2.3.4.6.7 1.1 1.5 1.7 2.2l.1.1c.4.6.9 1.1 1.4 1.7.1.2.3.3.4.5l1.8 2.1.1.1c.2.2.3.4.5.6.4.5.8.9 1.2 1.4l.2.2.8.8c.3.3.6.6.9 1l.3.3.9.9.8.8.4.4c.3.3.6.6 1 .9.2.2.5.4.7.6.2.2.3.3.5.4.3.3.6.6 1 .8.2.2.4.4.6.5.2.2.4.3.6.5.3.3.6.5.9.8.2.1.3.3.5.4.3.2.5.4.8.6.3.2.6.4.9.7.1.1.2.2.4.3.4.3.7.5 1.1.8.2.2.5.4.7.5.1 0 .1.1.2.1.7.4 1.3.9 2 1.3 0 0 .1 0 .1.1.6.4 1.2.8 1.9 1.1.2.1.3.2.5.3.5.3 1 .6 1.5.8l.6.3c.3.1.5.3.8.4l.6.3c.3.2.6.3 1 .4.2.1.4.2.7.3.1 0 .2.1.3.1.6.3 1.2.5 1.9.8h.1c.6.2 1.2.5 1.8.7.1 0 .2.1.3.1.2.1.5.1.7.2l.9.3c.2 0 .3.1.5.1.3.1.5.2.8.2.2.1.4.1.6.2.2.1.5.1.7.2.3.1.5.1.8.2.1 0 .3.1.4.1.3.1.5.1.8.1.3.1.6.1.9.2.1 0 .2 0 .3.1.3 0 .5.1.8.1.3 0 .7.1 1 .1h3c.5 0 1 0 1.5-.1h.7c.7-.1 1.5-.2 2.2-.3H959c.2 0 .3-.1.5-.1.4-.1.9-.2 1.3-.3.2-.1.4-.1.6-.2.3-.1.6-.2.8-.3.1 0 .1-.1.2-.1.4-.2.8-.3 1.2-.5-.1.1.1 0 .3-.1z"></path><path fill="#FBC977" d="M1019.9 1126.2c0 1.6 0 3.2-.1 4.8 0 .4-.1.9-.1 1.3-.1 1.1-.1 2.1-.2 3.2-.1.6-.1 1.2-.2 1.8-.1.9-.2 1.8-.3 2.6-.1.6-.2 1.3-.3 1.9-.1.8-.3 1.6-.4 2.4-.1.7-.3 1.4-.4 2.1-.2.7-.3 1.4-.5 2.1l-.6 2.4c-.2.6-.3 1.2-.5 1.8-.3.9-.6 1.8-.9 2.8-.2.6-.4 1.2-.6 1.7-.1.3-.2.6-.3.8-.4 1-.8 1.9-1.2 2.8-.1.2-.1.3-.2.5-.5 1.1-1.1 2.2-1.7 3.3-.1.1-.1.2-.2.3-.5.9-1.1 1.9-1.6 2.8-.1.2-.3.4-.4.6l-1.5 2.1c-.2.3-.4.6-.6.8l-1.5 1.8c-.2.2-.4.5-.6.7-.7.8-1.4 1.6-2.2 2.3l-.3.3c-.6.6-1.3 1.2-2 1.8-.2.2-.5.4-.8.6-.6.5-1.2.9-1.8 1.4-.3.2-.5.4-.8.5-.8.6-1.7 1.1-2.6 1.7l518.9-301.6c.9-.5 1.7-1.1 2.6-1.7.3-.2.5-.4.8-.5.6-.4 1.2-.9 1.8-1.4.3-.2.5-.4.8-.6.7-.6 1.3-1.2 2-1.8l.3-.3c.7-.7 1.5-1.5 2.2-2.3.2-.2.4-.5.6-.7l1.5-1.8c.2-.3.4-.6.6-.8l1.5-2.1c.1-.2.3-.4.4-.6 0-.1.1-.1.1-.2.5-.8 1-1.7 1.5-2.6.1-.1.1-.2.2-.3.6-1 1.1-2 1.6-3.1 0-.1.1-.1.1-.2.1-.2.1-.3.2-.5.4-.9.8-1.8 1.2-2.8.1-.3.2-.6.3-.8.1-.2.2-.4.3-.7.1-.3.2-.7.4-1.1.3-.9.6-1.8.9-2.8.1-.3.2-.5.3-.8.1-.3.2-.7.3-1.1l.6-2.4c.1-.3.2-.7.3-1 .1-.4.1-.7.2-1.1.1-.7.3-1.4.4-2.1.1-.4.2-.7.2-1.1.1-.4.1-.9.2-1.3.1-.6.2-1.3.3-1.9 0-.3.1-.7.1-1 .1-.5.1-1.1.2-1.7.1-.6.1-1.2.2-1.8 0-.2.1-.5.1-.7.1-.8.1-1.6.2-2.4 0-.4.1-.9.1-1.3v-.3c.1-1.4.1-2.8.1-4.2v-.3l-519.2 301.8z"></path><path fill="#F7C059" d="M1019.9 1126.2c0 1.6 0 3.2-.1 4.8 0 .4-.1.9-.1 1.3-.1 1.1-.1 2.1-.2 3.2-.1.6-.1 1.2-.2 1.8-.1.9-.2 1.8-.3 2.6-.1.6-.2 1.3-.3 1.9-.1.8-.3 1.6-.4 2.4-.1.7-.3 1.4-.4 2.1-.2.7-.3 1.4-.5 2.1l-.6 2.4c-.2.6-.3 1.2-.5 1.8-.3.9-.6 1.8-.9 2.8-.2.6-.4 1.2-.6 1.7-.1.3-.2.6-.3.8-.4 1-.8 1.9-1.2 2.8-.1.2-.1.3-.2.5-.5 1.1-1.1 2.2-1.7 3.3-.1.1-.1.2-.2.3-.5.9-1.1 1.9-1.6 2.8-.1.2-.3.4-.4.6l-1.5 2.1c-.2.3-.4.6-.6.8l-1.5 1.8c-.2.2-.4.5-.6.7-.7.8-1.4 1.6-2.2 2.3l-.3.3c-.6.6-1.3 1.2-2 1.8-.2.2-.5.4-.8.6-.6.5-1.2.9-1.8 1.4-.3.2-.5.4-.8.5-.8.6-1.7 1.1-2.6 1.7l518.9-301.6c.9-.5 1.7-1.1 2.6-1.7.3-.2.5-.4.8-.5.6-.4 1.2-.9 1.8-1.4.3-.2.5-.4.8-.6.7-.6 1.3-1.2 2-1.8l.3-.3c.7-.7 1.5-1.5 2.2-2.3.2-.2.4-.5.6-.7l1.5-1.8c.2-.3.4-.6.6-.8l1.5-2.1c.1-.2.3-.4.4-.6 0-.1.1-.1.1-.2.5-.8 1-1.7 1.5-2.6.1-.1.1-.2.2-.3.6-1 1.1-2 1.6-3.1 0-.1.1-.1.1-.2.1-.2.1-.3.2-.5.4-.9.8-1.8 1.2-2.8.1-.3.2-.6.3-.8.1-.2.2-.4.3-.7.1-.3.2-.7.4-1.1.3-.9.6-1.8.9-2.8.1-.3.2-.5.3-.8.1-.3.2-.7.3-1.1l.6-2.4c.1-.3.2-.7.3-1 .1-.4.1-.7.2-1.1.1-.7.3-1.4.4-2.1.1-.4.2-.7.2-1.1.1-.4.1-.9.2-1.3.1-.6.2-1.3.3-1.9 0-.3.1-.7.1-1 .1-.5.1-1.1.2-1.7.1-.6.1-1.2.2-1.8 0-.2.1-.5.1-.7.1-.8.1-1.6.2-2.4 0-.4.1-.9.1-1.3v-.3c.1-1.4.1-2.8.1-4.2v-.3l-519.2 301.8z"></path><path fill="#F89D1F" d="m846.2 658.8 519-301.5 40.6 23.4-518.9 301.6z"></path><path fill="#DB8918" d="m886.9 682.3 518.9-301.6-1.1 366.5-518.9 301.6z"></path><path fill="#C2D7F2" d="M918.1 700.3 917 1086l-20.9-12 1.1-385.7z"></path><path fill="#98ADD4" d="M918.1 700.3 1437 398.8l-1.1 385.7L917 1086z"></path><path fill="#E9F0F7" d="m897.2 688.3 518.9-301.6 20.9 12.1-518.9 301.5z"></path><path fill="#C2D7F2" d="m945.5 716.1-1.1 385.7-20.9-12 1.1-385.7z"></path><path fill="#98ADD4" d="m945.5 716.1 518.9-301.5-1.1 385.7-518.9 301.5z"></path><path fill="#E9F0F7" d="m924.6 704.1 518.9-301.6 20.9 12.1-518.9 301.5z"></path><path fill="#98ADD4" d="m972.9 732 518.9-301.6-1.1 385.7-518.9 301.6z"></path><path fill="#C2D7F2" d="m972.9 732-1.1 385.7-20.9-12.1 1.1-385.7z"></path><path fill="#E9F0F7" d="m952 719.9 518.9-301.6 20.9 12.1L972.9 732z"></path><path fill="#F9B142" d="M1019.9 1126.2c-.2 55.3-39.5 77.8-87.6 49.9-48.2-27.8-87.2-95.5-87.1-150.8l1-366.5 40.6 23.4-1 366.5c-.1 29.6 20.8 65.8 46.6 80.7 25.8 14.9 46.8 2.9 46.9-26.7l40.6 23.5z"></path><path fill="#0F0" d="m1000.5 779.6 106.2-61.7c9.9-5.7 18.2-13.9 24.1-23.7l33.5-55.4c5.8-9.7 14-17.7 23.8-23.4l311.1-180.8-1 366.5-518.9 301.6 1-288c0-14.5 7.7-27.8 20.2-35.1z"></path><path fill="#FBC977" d="m1041.1 803.1 106.2-61.7c9.9-5.7 18.2-13.9 24.1-23.7l33.5-55.4c5.8-9.7 14-17.7 23.8-23.4l311.1-180.8-1 366.5-518.9 301.6 1-288c0-14.5 7.7-27.8 20.2-35.1z"></path><path fill="#F89D1F" d="m1041.1 803.1 106.2-61.7c9.9-5.7 18.2-13.9 24.1-23.7l33.5-55.4c5.8-9.7 14-17.7 23.8-23.4l311.1-180.8-40.6-23.5-311.1 180.8c-9.8 5.7-18 13.7-23.8 23.4l-33.5 55.4c-5.9 9.8-14.2 17.9-24.1 23.7l-106.2 61.7c-12.5 7.3-20.2 20.6-20.2 35l-1 288 40.6 23.5 1-288c0-14.4 7.7-27.7 20.2-35z"></path><path fill="#F9B142" d="m1130.8 694.2 33.5-55.4c2-3.4 4.4-6.5 6.9-9.4l40.6 23.5c-2.6 2.9-4.9 6.1-6.9 9.4l-33.5 55.4c-2.8 4.6-6.1 8.8-9.8 12.6l-40.6-23.5c3.7-3.7 7-8 9.8-12.6zM980.2 814.7c0-3.1.4-6.2 1.1-9.2L1022 829c-.7 3-1.1 6.1-1.1 9.2l-1 288-40.6-23.5.9-288zM1030.9 512.5c.6-.3 1.1-.6 1.7-.8.1 0 .2-.1.3-.2.6-.3 1.2-.5 1.9-.8.8-.3 1.5-.6 2.3-.9.1 0 .1 0 .2-.1.8-.3 1.6-.5 2.4-.7l1.2-.3c.3-.1.6-.1.8-.2.4-.1.8-.2 1.3-.2.3 0 .5-.1.8-.1.6-.1 1.2-.2 1.9-.2h.5c.5 0 .9-.1 1.4-.1h2.3c.6 0 1.1.1 1.7.1h.2c.5.1 1 .1 1.5.2.1 0 .3.1.4.1.5.1.9.2 1.3.3.1 0 .2 0 .2.1.5.1 1 .3 1.5.5.1 0 .2.1.4.1.4.2.8.3 1.2.5.1 0 .2.1.3.1.5.2 1 .5 1.5.8l-40.6-23.4c-.1 0-.2-.1-.2-.1l-1.2-.6c-.1 0-.2-.1-.3-.1-.2-.1-.4-.2-.7-.3-.2-.1-.4-.1-.5-.2-.1 0-.2-.1-.4-.1-.5-.2-.9-.3-1.4-.5h-.1c-.1 0-.2 0-.2-.1-.4-.1-.9-.2-1.3-.3-.1 0-.3-.1-.4-.1-.1 0-.2-.1-.4-.1-.4-.1-.7-.1-1.1-.2h-.2c-.5-.1-.9-.1-1.4-.1h-2.9c-.4 0-.7 0-1.1.1h-.5c-.6.1-1.2.1-1.8.2h-.1c-.2 0-.5.1-.8.1-.4.1-.8.1-1.3.2-.3.1-.6.1-.9.2-.3.1-.7.1-1 .2-.1 0-.1 0-.2.1-.8.2-1.6.5-2.4.7-.1 0-.1 0-.2.1-.7.3-1.5.5-2.3.9-.1 0-.1.1-.2.1-.5.2-1.1.5-1.6.7-.1 0-.2.1-.3.2-.6.3-1.1.5-1.7.8-.2.1-.4.2-.5.3-.7.3-1.3.7-2 1.1l40.6 23.4c.7-.4 1.3-.7 2-1.1 0-.1.2-.2.4-.3zM886.9 682.3l-40.7-23.5-.1-65.1 40.6 23.5z"></path><path fill="#F89D1F" d="m905.3 584.9-40.6-23.4 123.1-71.1 40.6 23.4zM886.8 614.4c0-.4.1-.9.2-1.3l.3-1.5c.1-.3.1-.7.2-1 .1-.3.2-.6.2-1 .1-.4.2-.9.4-1.3.1-.3.2-.5.2-.8.2-.5.3-1 .5-1.5.1-.2.1-.4.2-.6.3-.7.5-1.4.8-2 0-.1.1-.2.1-.2l.9-1.8.3-.6c.3-.6.6-1.1.9-1.7.1-.1.1-.2.2-.3.4-.6.8-1.3 1.2-1.9.1-.2.2-.4.4-.5.3-.5.6-.9.9-1.3.2-.2.3-.5.5-.7.3-.4.6-.7.8-1.1.2-.3.5-.6.7-.9.2-.3.5-.5.7-.8.4-.5.8-.9 1.2-1.3l.8-.8.6-.6c.3-.3.7-.6 1.1-.9.2-.2.4-.4.6-.5l1.2-.9c.2-.1.4-.3.6-.4.6-.4 1.2-.8 1.8-1.1l-40.6-23.4c-.6.3-1.2.7-1.8 1.1-.2.1-.4.3-.6.4l-1.2.9c-.2.2-.4.3-.6.5-.4.3-.7.6-1.1.9l-.6.6c-.1.1-.3.2-.4.4l-.4.4c-.4.4-.8.9-1.2 1.3l-.4.4c-.1.1-.2.3-.3.4-.2.3-.5.6-.7.9-.2.2-.3.4-.5.6-.1.2-.2.3-.4.5s-.3.5-.5.7c-.1.2-.2.3-.4.5l-.6.9c-.1.2-.2.4-.4.5 0 .1-.1.1-.1.2-.3.5-.7 1-1 1.6 0 0 0 .1-.1.1-.1.1-.1.2-.2.3-.2.4-.4.8-.6 1.1-.1.2-.2.4-.3.5l-.3.6c-.1.2-.2.3-.2.5-.2.4-.4.9-.6 1.3 0 .1-.1.2-.1.2v.1c-.2.6-.5 1.1-.7 1.7 0 .1-.1.2-.1.3-.1.2-.1.4-.2.6-.1.3-.2.6-.3.8-.1.2-.1.4-.2.7-.1.3-.2.5-.2.8 0 .2-.1.3-.1.5-.1.3-.1.6-.2.9-.1.3-.2.6-.2 1 0 .1-.1.2-.1.3 0 .2-.1.5-.1.7l-.3 1.5c0 .1-.1.3-.1.4 0 .3-.1.6-.1.9 0 .2 0 .4-.1.7-.1.7-.1 1.4-.1 2.1l40.6 23.4c0-.7 0-1.4.1-2.1.1-.4.1-.6.1-.9z"></path><path fill="#FBC977" d="M1028.4 513.8c17.6-10.1 33.5-7.3 40.5 7.1l21.2 43.2-203.2 118.2-.2-65.1c0-11.9 8.3-26.3 18.6-32.2l123.1-71.2z"></path><path fill="#E6A029" d="m1324.8 1178.9 1.8-.9 518.9-301.6-1.8.9-.6.3c-.4.2-.8.4-1.2.5-.3.1-.7.2-1 .3-.2.1-.4.1-.6.2-.4.1-.9.2-1.3.3-.2 0-.3.1-.5.1h-.3c-.7.1-1.4.2-2.2.3-.3 0-.5 0-.8.1-.5 0-1 .1-1.5.1h-2c-.3 0-.6 0-1-.1-.3 0-.7-.1-1-.1-.4 0-.7-.1-1.1-.1-.3 0-.6-.1-.9-.2-.4-.1-.8-.1-1.2-.2-.3-.1-.5-.1-.8-.2-.4-.1-.9-.2-1.3-.3-.3-.1-.5-.1-.8-.2-.5-.1-.9-.3-1.4-.4-.2-.1-.5-.1-.7-.2-.7-.2-1.3-.5-2-.8h-.1l-2.1-.9c-.2-.1-.4-.2-.7-.3-.5-.2-1-.5-1.5-.8-.3-.1-.5-.3-.8-.4-.7-.4-1.4-.7-2-1.1-.8-.4-1.5-.9-2.3-1.4 0 0-.1 0-.1-.1-.7-.5-1.5-1-2.2-1.5-.2-.2-.5-.4-.7-.5-.5-.3-1-.7-1.5-1.1-.3-.2-.6-.4-.9-.7-.4-.3-.9-.7-1.3-1-.3-.3-.6-.5-.9-.8-.4-.3-.8-.7-1.2-1-.3-.3-.6-.6-1-.8-.4-.4-.8-.7-1.2-1.1l-.9-.9-1.2-1.2-.9-.9c-.4-.4-.8-.8-1.2-1.3l-.8-.8c-.5-.5-1-1-1.4-1.6-.2-.2-.3-.4-.5-.6-.6-.7-1.3-1.5-1.9-2.2-.1-.2-.3-.3-.4-.5l-1.5-1.8c-.6-.7-1.1-1.5-1.7-2.2-.1-.1-.2-.2-.3-.4-.9-1.2-1.8-2.5-2.6-3.8-.2-.2-.3-.5-.5-.7-1.1-1.6-2.1-3.3-3.1-5-.1-.2-.3-.4-.4-.6-.7-1.2-1.4-2.4-2-3.6-.2-.4-.5-.9-.7-1.3-.2-.5-.5-.9-.7-1.4-.3-.7-.6-1.3-1-2-.1-.2-.2-.4-.3-.7-.4-.9-.8-1.7-1.2-2.6-.1-.2-.2-.5-.3-.7-.3-.6-.6-1.3-.8-1.9-.1-.3-.2-.6-.4-.9-.2-.6-.5-1.2-.7-1.9-.1-.3-.2-.5-.3-.8-.3-.8-.6-1.6-.8-2.4 0-.1-.1-.2-.1-.3l-.9-2.7c-.1-.3-.2-.6-.2-.9-.2-.6-.4-1.3-.5-1.9-.1-.3-.2-.7-.3-1-.2-.6-.3-1.2-.4-1.7-.1-.3-.2-.7-.2-1-.1-.6-.3-1.2-.4-1.8-.1-.3-.1-.6-.2-1-.1-.7-.3-1.5-.4-2.2 0-.1-.1-.3-.1-.4-.1-.9-.3-1.8-.4-2.6 0-.2-.1-.5-.1-.7-.1-.6-.1-1.3-.2-1.9 0-.3 0-.6-.1-.9 0-.6-.1-1.2-.1-1.8v-.8c0-.8-.1-1.7 0-2.5L1247 1094v4.3c0 .3 0 .5.1.8 0 .3 0 .6.1.9v.6c0 .4.1.9.1 1.3 0 .2.1.5.1.7v.2c.1.8.2 1.6.3 2.3v.1c0 .1 0 .3.1.4.1.6.2 1.2.3 1.9 0 .1.1.2.1.4.1.3.1.6.2.9.1.4.1.7.2 1.1 0 .2.1.4.2.7.1.3.2.7.2 1 .1.3.1.5.2.8.1.3.2.6.3 1 .1.3.2.7.3 1 0 .2.1.3.1.5.1.5.3.9.4 1.4.1.3.2.6.2.9 0 .1 0 .1.1.2.2.8.5 1.6.8 2.4 0 .1.1.2.1.3.2.7.5 1.3.7 2 0 .1.1.2.1.4.1.3.2.5.3.8.1.4.3.7.4 1.1.1.3.2.5.3.8.1.3.2.6.4.9l.3.6c.2.4.4.9.6 1.3.1.2.2.5.3.7 0 .1.1.2.1.2.3.8.7 1.5 1 2.3v.1c.1.2.2.5.3.7.3.6.5 1.1.8 1.7 0 .1.1.2.1.3.2.5.5.9.7 1.4.2.4.4.8.6 1.1 0 .1.1.1.1.2.7 1.2 1.3 2.4 2 3.6.1.1.1.2.2.3.1.1.1.2.2.3 1 1.7 2 3.3 3.1 5 .1.1.1.2.2.3.1.1.2.3.3.4.9 1.3 1.7 2.5 2.6 3.8.1.1.2.2.3.4.6.7 1.1 1.5 1.7 2.2l.1.1c.4.6.9 1.1 1.4 1.7.1.2.3.3.4.5l1.8 2.1.1.1c.2.2.3.4.5.6.4.5.8.9 1.2 1.4l.2.2.8.8c.3.3.6.6.9 1l.3.3.9.9.8.8.4.4c.3.3.6.6 1 .9.2.2.5.4.7.6.2.2.3.3.5.4.3.3.6.6 1 .8.2.2.4.4.6.5.2.2.4.3.6.5.3.3.6.5.9.8.2.1.3.3.5.4.3.2.5.4.8.6.3.2.6.4.9.7.1.1.2.2.4.3.4.3.7.5 1.1.8.2.2.5.4.7.5.1 0 .1.1.2.1.7.4 1.3.9 2 1.3 0 0 .1 0 .1.1.6.4 1.2.8 1.9 1.1.2.1.3.2.5.3.5.3 1 .6 1.5.8l.6.3c.3.1.5.3.8.4l.6.3c.3.2.6.3 1 .4.2.1.4.2.7.3.1 0 .2.1.3.1.6.3 1.2.5 1.9.8h.1c.6.2 1.2.5 1.8.7.1 0 .2.1.3.1.2.1.5.1.7.2l.9.3c.2 0 .3.1.5.1.3.1.5.2.8.2.2.1.4.1.6.2.2.1.5.1.7.2.3.1.5.1.8.2.1 0 .3.1.4.1.3.1.5.1.8.1.3.1.6.1.9.2.1 0 .2 0 .3.1.3 0 .5.1.8.1.3 0 .7.1 1 .1h3c.5 0 1 0 1.5-.1h.7c.7-.1 1.5-.2 2.2-.3H1319.9c.2 0 .3-.1.5-.1.4-.1.9-.2 1.3-.3.2-.1.4-.1.6-.2.3-.1.6-.2.8-.3.1 0 .1-.1.2-.1.4-.2.8-.3 1.2-.5-.1.1.1 0 .3-.1z"></path><path fill="#FCD688" d="M1380.8 1171.5c0 1.6 0 3.2-.1 4.8 0 .4-.1.9-.1 1.3-.1 1.1-.1 2.1-.2 3.2-.1.6-.1 1.2-.2 1.8-.1.9-.2 1.8-.3 2.6-.1.6-.2 1.3-.3 1.9-.1.8-.3 1.6-.4 2.4-.1.7-.3 1.4-.4 2.1-.2.7-.3 1.4-.5 2.1l-.6 2.4c-.2.6-.3 1.2-.5 1.8-.3.9-.6 1.8-.9 2.8-.2.6-.4 1.2-.6 1.7-.1.3-.2.6-.3.8-.4 1-.8 1.9-1.2 2.8-.1.2-.1.3-.2.5-.5 1.1-1.1 2.2-1.7 3.3-.1.1-.1.2-.2.3-.5.9-1.1 1.9-1.6 2.8-.1.2-.3.4-.4.6l-1.5 2.1c-.2.3-.4.6-.6.8l-1.5 1.8c-.2.2-.4.5-.6.7-.7.8-1.4 1.6-2.2 2.3l-.3.3c-.6.6-1.3 1.2-2 1.8-.2.2-.5.4-.8.6-.6.5-1.2.9-1.8 1.4-.3.2-.5.4-.8.5-.8.6-1.7 1.1-2.6 1.7l518.9-301.6c.9-.5 1.7-1.1 2.6-1.7.3-.2.5-.4.8-.5.6-.4 1.2-.9 1.8-1.4.3-.2.5-.4.8-.6.7-.6 1.3-1.2 2-1.8l.3-.3c.7-.7 1.5-1.5 2.2-2.3.2-.2.4-.5.6-.7l1.5-1.8c.2-.3.4-.6.6-.8l1.5-2.1c.1-.2.3-.4.4-.6 0-.1.1-.1.1-.2.5-.8 1-1.7 1.5-2.6.1-.1.1-.2.2-.3.6-1 1.1-2 1.6-3.1 0-.1.1-.1.1-.2.1-.2.1-.3.2-.5.4-.9.8-1.8 1.2-2.8.1-.3.2-.6.3-.8.1-.2.2-.4.3-.7.1-.4.2-.7.4-1.1.3-.9.6-1.8.9-2.8.1-.3.2-.5.3-.8.1-.3.2-.7.3-1.1l.6-2.4c.1-.3.2-.7.3-1 .1-.4.1-.7.2-1.1.1-.7.3-1.4.4-2.1.1-.4.2-.7.2-1.1.1-.4.1-.9.2-1.3.1-.6.2-1.3.3-1.9 0-.3.1-.7.1-1 .1-.5.1-1.1.2-1.7.1-.6.1-1.2.2-1.8 0-.2.1-.5.1-.7.1-.8.1-1.6.2-2.4 0-.4.1-.9.1-1.3v-.3c.1-1.4.1-2.8.1-4.2v-.3l-519.2 301.8z"></path><path fill="#F9CF6A" d="M1380.8 1171.5c0 1.6 0 3.2-.1 4.8 0 .4-.1.9-.1 1.3-.1 1.1-.1 2.1-.2 3.2-.1.6-.1 1.2-.2 1.8-.1.9-.2 1.8-.3 2.6-.1.6-.2 1.3-.3 1.9-.1.8-.3 1.6-.4 2.4-.1.7-.3 1.4-.4 2.1-.2.7-.3 1.4-.5 2.1l-.6 2.4c-.2.6-.3 1.2-.5 1.8-.3.9-.6 1.8-.9 2.8-.2.6-.4 1.2-.6 1.7-.1.3-.2.6-.3.8-.4 1-.8 1.9-1.2 2.8-.1.2-.1.3-.2.5-.5 1.1-1.1 2.2-1.7 3.3-.1.1-.1.2-.2.3-.5.9-1.1 1.9-1.6 2.8-.1.2-.3.4-.4.6l-1.5 2.1c-.2.3-.4.6-.6.8l-1.5 1.8c-.2.2-.4.5-.6.7-.7.8-1.4 1.6-2.2 2.3l-.3.3c-.6.6-1.3 1.2-2 1.8-.2.2-.5.4-.8.6-.6.5-1.2.9-1.8 1.4-.3.2-.5.4-.8.5-.8.6-1.7 1.1-2.6 1.7l518.9-301.6c.9-.5 1.7-1.1 2.6-1.7.3-.2.5-.4.8-.5.6-.4 1.2-.9 1.8-1.4.3-.2.5-.4.8-.6.7-.6 1.3-1.2 2-1.8l.3-.3c.7-.7 1.5-1.5 2.2-2.3.2-.2.4-.5.6-.7l1.5-1.8c.2-.3.4-.6.6-.8l1.5-2.1c.1-.2.3-.4.4-.6 0-.1.1-.1.1-.2.5-.8 1-1.7 1.5-2.6.1-.1.1-.2.2-.3.6-1 1.1-2 1.6-3.1 0-.1.1-.1.1-.2.1-.2.1-.3.2-.5.4-.9.8-1.8 1.2-2.8.1-.3.2-.6.3-.8.1-.2.2-.4.3-.7.1-.4.2-.7.4-1.1.3-.9.6-1.8.9-2.8.1-.3.2-.5.3-.8.1-.3.2-.7.3-1.1l.6-2.4c.1-.3.2-.7.3-1 .1-.4.1-.7.2-1.1.1-.7.3-1.4.4-2.1.1-.4.2-.7.2-1.1.1-.4.1-.9.2-1.3.1-.6.2-1.3.3-1.9 0-.3.1-.7.1-1 .1-.5.1-1.1.2-1.7.1-.6.1-1.2.2-1.8 0-.2.1-.5.1-.7.1-.8.1-1.6.2-2.4 0-.4.1-.9.1-1.3v-.3c.1-1.4.1-2.8.1-4.2v-.3l-519.2 301.8z"></path><path fill="#FAB031" d="m1207.2 704.1 518.9-301.5 40.6 23.4-518.9 301.6z"></path><path fill="#E6A029" d="M1247.8 727.6 1766.7 426l-1.1 366.5-518.9 301.6z"></path><path fill="#C2D7F2" d="m1279 745.6-1.1 385.7-20.9-12 1.1-385.7z"></path><path fill="#98ADD4" d="m1279 745.6 518.9-301.5-1 385.7-519 301.5z"></path><path fill="#E9F0F7" d="m1258.1 733.6 519-301.6 20.8 12.1L1279 745.6z"></path><path fill="#C2D7F2" d="m1306.4 761.5-1.1 385.7-20.9-12.1 1.1-385.7z"></path><path fill="#98ADD4" d="m1306.4 761.5 518.9-301.6-1 385.7-519 301.6z"></path><path fill="#E9F0F7" d="m1285.5 749.4 519-301.6 20.8 12.1-518.9 301.6z"></path><path fill="#98ADD4" d="m1333.8 777.3 518.9-301.6-1 385.7-519 301.6z"></path><path fill="#C2D7F2" d="m1333.8 777.3-1.1 385.7-20.9-12.1 1.1-385.7z"></path><path fill="#E9F0F7" d="m1312.9 765.2 519-301.5 20.8 12-518.9 301.6z"></path><path fill="#FBC253" d="M1380.8 1171.5c-.2 55.3-39.5 77.8-87.6 49.9-48.2-27.8-87.2-95.5-87.1-150.8l1-366.5 40.6 23.4-1 366.5c-.1 29.6 20.8 65.8 46.6 80.7 25.8 14.9 46.8 2.9 46.9-26.7l40.6 23.5z"></path><path fill="#12FF37" d="m1361.4 825 106.2-61.7c9.9-5.7 18.2-13.9 24.1-23.7l33.5-55.4c5.8-9.7 14-17.7 23.8-23.4L1860.1 480l-1 366.5-518.9 301.6 1-288c0-14.5 7.7-27.9 20.2-35.1z"></path><path fill="#FCD688" d="m1402 848.4 106.2-61.7c9.9-5.7 18.2-13.9 24.1-23.7l33.5-55.4c5.8-9.7 14-17.7 23.8-23.4l311.1-180.8-1 366.5-518.9 301.6 1-288c0-14.5 7.7-27.8 20.2-35.1z"></path><path fill="#FAB031" d="m1402 848.4 106.2-61.7c9.9-5.7 18.2-13.9 24.1-23.7l33.5-55.4c5.8-9.7 14-17.7 23.8-23.4l311.1-180.8-40.6-23.5L1549 660.8c-9.8 5.7-18 13.7-23.8 23.4l-33.5 55.4c-5.9 9.8-14.2 17.9-24.1 23.7L1361.4 825c-12.5 7.3-20.2 20.6-20.2 35l-1 288 40.6 23.5 1-288c0-14.5 7.7-27.8 20.2-35.1z"></path><path fill="#FBC253" d="m1491.7 739.6 33.5-55.4c2-3.4 4.4-6.5 6.9-9.4l40.6 23.5c-2.6 2.9-4.9 6.1-6.9 9.4l-33.5 55.4c-2.8 4.6-6.1 8.8-9.8 12.6l-40.6-23.5c3.7-3.8 7-8 9.8-12.6zM1341.1 860c0-3.1.4-6.2 1.1-9.2l40.6 23.5c-.7 3-1.1 6.1-1.1 9.2l-1 288-40.6-23.5 1-288zM1391.8 557.8c.6-.3 1.1-.6 1.7-.8.1 0 .2-.1.3-.2.6-.3 1.2-.5 1.9-.8.8-.3 1.5-.6 2.3-.9.1 0 .1 0 .2-.1.8-.3 1.6-.5 2.4-.7l1.2-.3c.3-.1.6-.1.8-.2.4-.1.8-.2 1.3-.2.3 0 .5-.1.8-.1.6-.1 1.2-.2 1.9-.2h.5c.5 0 .9-.1 1.4-.1h2.3c.6 0 1.1.1 1.7.1h.2c.5.1 1 .1 1.5.2.1 0 .3.1.4.1.5.1.9.2 1.3.3.1 0 .2 0 .2.1.5.1 1 .3 1.5.5.1 0 .2.1.4.1.4.2.8.3 1.2.5.1 0 .2.1.3.1.5.2 1 .5 1.5.8l-40.6-23.4c-.1 0-.2-.1-.2-.1l-1.2-.6c-.1 0-.2-.1-.3-.1-.2-.1-.4-.2-.7-.3-.2-.1-.4-.1-.5-.2-.1 0-.2-.1-.4-.1-.5-.2-.9-.3-1.4-.5h-.1c-.1 0-.2 0-.2-.1-.4-.1-.9-.2-1.3-.3-.1 0-.3-.1-.4-.1-.1 0-.2-.1-.4-.1-.4-.1-.7-.1-1.1-.2h-.2c-.5-.1-.9-.1-1.4-.1h-2.9c-.4 0-.7 0-1.1.1h-.5c-.6.1-1.2.1-1.8.2h-.1c-.2 0-.5.1-.8.1-.4.1-.8.1-1.3.2-.3.1-.6.1-.9.2-.3.1-.7.1-1 .2-.1 0-.1 0-.2.1-.8.2-1.6.5-2.4.7-.1 0-.1 0-.2.1-.7.3-1.5.5-2.3.9-.1 0-.1.1-.2.1-.5.2-1.1.5-1.6.7-.1 0-.2.1-.3.2-.6.3-1.1.5-1.7.8-.2.1-.4.2-.5.3-.7.3-1.3.7-2 1.1l40.6 23.4c.7-.4 1.3-.7 2-1.1.1-.1.2-.2.4-.3zM1247.8 727.6l-40.6-23.5-.2-65.1 40.6 23.5z"></path><path fill="#FAB031" d="m1266.2 630.2-40.6-23.4 123.1-71.1 40.6 23.5zM1247.7 659.8c0-.4.1-.9.2-1.3l.3-1.5c.1-.3.1-.7.2-1 .1-.3.2-.6.2-1 .1-.4.2-.9.4-1.3.1-.3.2-.5.2-.8.2-.5.3-1 .5-1.5.1-.2.1-.4.2-.6.3-.7.5-1.4.8-2 0-.1.1-.2.1-.2l.9-1.8.3-.6c.3-.6.6-1.1.9-1.7.1-.1.1-.2.2-.3.4-.6.8-1.3 1.2-1.9.1-.2.2-.4.4-.5.3-.5.6-.9.9-1.3.2-.2.3-.5.5-.7.3-.4.6-.7.8-1.1.2-.3.5-.6.7-.9.2-.3.5-.5.7-.8.4-.5.8-.9 1.2-1.3l.8-.8.6-.6c.3-.3.7-.6 1.1-.9.2-.2.4-.4.6-.5l1.2-.9c.2-.1.4-.3.6-.4.6-.4 1.2-.8 1.8-1.1l-40.6-23.4c-.6.3-1.2.7-1.8 1.1-.2.1-.4.3-.6.4l-1.2.9c-.2.2-.4.3-.6.5-.4.3-.7.6-1.1.9l-.6.6c-.1.1-.3.2-.4.4l-.4.4c-.4.4-.8.9-1.2 1.3l-.4.4c-.1.1-.2.3-.3.4-.2.3-.5.6-.7.9-.2.2-.3.4-.5.6-.1.2-.2.3-.4.5s-.3.5-.5.7c-.1.2-.2.3-.4.5l-.6.9c-.1.2-.2.4-.4.5 0 .1-.1.1-.1.2-.3.5-.7 1-1 1.6 0 0 0 .1-.1.1-.1.1-.1.2-.2.3-.2.4-.4.8-.6 1.1-.1.2-.2.4-.3.5l-.3.6c-.1.2-.2.3-.2.5-.2.4-.4.9-.6 1.3 0 .1-.1.2-.1.2v.1c-.2.6-.5 1.1-.7 1.7 0 .1-.1.2-.1.3-.1.2-.1.4-.2.6-.1.3-.2.6-.3.8-.1.2-.1.4-.2.7-.1.3-.2.5-.2.8 0 .2-.1.3-.1.5-.1.3-.1.6-.2.9-.1.3-.2.6-.2 1 0 .1-.1.2-.1.3 0 .2-.1.5-.1.7l-.3 1.5c0 .1-.1.3-.1.4 0 .3-.1.6-.1.9 0 .2 0 .4-.1.7-.1.7-.1 1.4-.1 2.1l40.6 23.4c0-.7 0-1.4.1-2.1.1-.5.1-.7.1-.9z"></path><path fill="#FCD688" d="M1389.3 559.2c17.6-10.1 33.5-7.3 40.5 7.1l21.2 43.2-203.2 118.1-.2-65.1c0-11.9 8.3-26.3 18.6-32.2l123.1-71.1z"></path><path fill="#DB8918" d="m1545 1306 1.8-.9 518.9-301.6-1.8.9-.6.3c-.4.2-.8.4-1.2.5-.3.1-.7.2-1 .3-.2.1-.4.1-.6.2-.4.1-.9.2-1.3.3-.2 0-.3.1-.5.1h-.3c-.7.1-1.4.2-2.2.3-.3 0-.5 0-.8.1-.5 0-1 .1-1.5.1h-2c-.3 0-.6 0-1-.1-.3 0-.7-.1-1-.1-.4 0-.7-.1-1.1-.1-.3 0-.6-.1-.9-.2-.4-.1-.8-.1-1.2-.2-.3-.1-.5-.1-.8-.2-.4-.1-.9-.2-1.3-.3-.3-.1-.5-.1-.8-.2-.5-.1-.9-.3-1.4-.4-.2-.1-.5-.1-.7-.2-.7-.2-1.3-.5-2-.8h-.1l-2.1-.9c-.2-.1-.4-.2-.7-.3-.5-.2-1-.5-1.5-.8-.3-.1-.5-.3-.8-.4-.7-.4-1.4-.7-2-1.1-.8-.4-1.5-.9-2.3-1.4 0 0-.1 0-.1-.1-.7-.5-1.5-1-2.2-1.5-.2-.2-.5-.4-.7-.5-.5-.3-1-.7-1.5-1.1-.3-.2-.6-.4-.9-.7-.4-.3-.9-.7-1.3-1-.3-.3-.6-.5-.9-.8-.4-.3-.8-.7-1.2-1-.3-.3-.6-.6-1-.8-.4-.4-.8-.7-1.2-1.1l-.9-.9-1.2-1.2-.9-.9c-.4-.4-.8-.8-1.2-1.3l-.8-.8c-.5-.5-1-1-1.4-1.6-.2-.2-.3-.4-.5-.6-.6-.7-1.3-1.5-1.9-2.2-.1-.2-.3-.3-.4-.5l-1.5-1.8c-.6-.7-1.1-1.5-1.7-2.2-.1-.1-.2-.2-.3-.4-.9-1.2-1.8-2.5-2.6-3.8-.2-.2-.3-.5-.5-.7-1.1-1.6-2.1-3.3-3.1-5-.1-.2-.3-.4-.4-.6-.7-1.2-1.4-2.4-2-3.6-.2-.4-.5-.9-.7-1.3-.2-.5-.5-.9-.7-1.4-.3-.7-.6-1.3-1-2-.1-.2-.2-.4-.3-.7-.4-.9-.8-1.7-1.2-2.6-.1-.2-.2-.5-.3-.7-.3-.6-.6-1.3-.8-1.9-.1-.3-.2-.6-.4-.9-.2-.6-.5-1.2-.7-1.9-.1-.3-.2-.5-.3-.8-.3-.8-.6-1.6-.8-2.4 0-.1-.1-.2-.1-.3l-.9-2.7c-.1-.3-.2-.6-.2-.9-.2-.6-.4-1.3-.5-1.9-.1-.3-.2-.7-.3-1-.2-.6-.3-1.2-.4-1.7-.1-.3-.2-.7-.2-1-.1-.6-.3-1.2-.4-1.8-.1-.3-.1-.6-.2-1-.1-.7-.3-1.5-.4-2.2 0-.1-.1-.3-.1-.4-.1-.9-.3-1.8-.4-2.6 0-.2-.1-.5-.1-.7-.1-.6-.1-1.3-.2-1.9 0-.3 0-.6-.1-.9 0-.6-.1-1.2-.1-1.8v-.8c0-.8-.1-1.7 0-2.5l-518.9 301.6v4.3c0 .3 0 .5.1.8 0 .3 0 .6.1.9v.6c0 .4.1.9.1 1.3 0 .2.1.5.1.7v.2c.1.8.2 1.6.3 2.3v.1c0 .1 0 .3.1.4.1.6.2 1.2.3 1.9 0 .1.1.2.1.4.1.3.1.6.2.9.1.4.1.7.2 1.1 0 .2.1.4.2.7.1.3.2.7.2 1 .1.3.1.5.2.8.1.3.2.6.3 1 .1.3.2.7.3 1 0 .2.1.3.1.5.1.5.3.9.4 1.4.1.3.2.6.2.9 0 .1 0 .1.1.2.2.8.5 1.6.8 2.4 0 .1.1.2.1.3.2.7.5 1.3.7 2 0 .1.1.2.1.4.1.3.2.5.3.8.1.4.3.7.4 1.1.1.3.2.5.3.8.1.3.2.6.4.9l.3.6c.2.4.4.9.6 1.3.1.2.2.5.3.7 0 .1.1.2.1.2.3.8.7 1.5 1 2.3v.1c.1.2.2.5.3.7.3.6.5 1.1.8 1.7 0 .1.1.2.1.3.2.5.5.9.7 1.4.2.4.4.8.6 1.1 0 .1.1.1.1.2.7 1.2 1.3 2.4 2 3.6.1.1.1.2.2.3.1.1.1.2.2.3 1 1.7 2 3.3 3.1 5 .1.1.1.2.2.3.1.1.2.3.3.4.9 1.3 1.7 2.5 2.6 3.8.1.1.2.2.3.4.6.7 1.1 1.5 1.7 2.2l.1.1c.4.6.9 1.1 1.4 1.7.1.2.3.3.4.5l1.8 2.1.1.1c.2.2.3.4.5.6.4.5.8.9 1.2 1.4l.2.2.8.8c.3.3.6.6.9 1l.3.3.9.9.8.8.4.4c.3.3.6.6 1 .9.2.2.5.4.7.6.2.2.3.3.5.4.3.3.6.6 1 .8.2.2.4.4.6.5.2.2.4.3.6.5.3.3.6.5.9.8.2.1.3.3.5.4.3.2.5.4.8.6.3.2.6.4.9.7.1.1.2.2.4.3.4.3.7.5 1.1.8.2.2.5.4.7.5.1 0 .1.1.2.1.7.4 1.3.9 2 1.3 0 0 .1 0 .1.1.6.4 1.2.8 1.9 1.1.2.1.3.2.5.3.5.3 1 .6 1.5.8l.6.3c.3.1.5.3.8.4l.6.3c.3.2.6.3 1 .4.2.1.4.2.7.3.1 0 .2.1.3.1.6.3 1.2.5 1.9.8h.1c.6.2 1.2.5 1.8.7.1 0 .2.1.3.1.2.1.5.1.7.2l.9.3c.2 0 .3.1.5.1.3.1.5.2.8.2.2.1.4.1.6.2.2.1.5.1.7.2.3.1.5.1.8.2.1 0 .3.1.4.1.3.1.5.1.8.1.3.1.6.1.9.2.1 0 .2 0 .3.1.3 0 .5.1.8.1.3 0 .7.1 1 .1h3c.5 0 1 0 1.5-.1h.7c.7-.1 1.5-.2 2.2-.3H1540.1c.2 0 .3-.1.5-.1.4-.1.9-.2 1.3-.3.2-.1.4-.1.6-.2.3-.1.6-.2.8-.3.1 0 .1-.1.2-.1.4-.2.8-.3 1.2-.5-.1.1.1 0 .3-.1z"></path><path fill="#FBC977" d="M1601 1298.6c0 1.6 0 3.2-.1 4.8 0 .4-.1.9-.1 1.3-.1 1.1-.1 2.1-.2 3.2-.1.6-.1 1.2-.2 1.8-.1.9-.2 1.8-.3 2.6-.1.6-.2 1.3-.3 1.9-.1.8-.3 1.6-.4 2.4-.1.7-.3 1.4-.4 2.1-.2.7-.3 1.4-.5 2.1l-.6 2.4c-.2.6-.3 1.2-.5 1.8-.3.9-.6 1.8-.9 2.8-.2.6-.4 1.2-.6 1.7-.1.3-.2.6-.3.8-.4 1-.8 1.9-1.2 2.8-.1.2-.1.3-.2.5-.5 1.1-1.1 2.2-1.7 3.3-.1.1-.1.2-.2.3-.5.9-1.1 1.9-1.6 2.8-.1.2-.3.4-.4.6l-1.5 2.1c-.2.3-.4.6-.6.8l-1.5 1.8c-.2.2-.4.5-.6.7-.7.8-1.4 1.6-2.2 2.3l-.3.3c-.6.6-1.3 1.2-2 1.8-.2.2-.5.4-.8.6-.6.5-1.2.9-1.8 1.4-.3.2-.5.4-.8.5-.8.6-1.7 1.1-2.6 1.7l518.9-301.6c.9-.5 1.7-1.1 2.6-1.7.3-.2.5-.4.8-.5.6-.4 1.2-.9 1.8-1.4.3-.2.5-.4.8-.6.7-.6 1.3-1.2 2-1.8l.3-.3c.7-.7 1.5-1.5 2.2-2.3.2-.2.4-.5.6-.7l1.5-1.8c.2-.3.4-.6.6-.8l1.5-2.1c.1-.2.3-.4.4-.6 0-.1.1-.1.1-.2.5-.8 1-1.7 1.5-2.6.1-.1.1-.2.2-.3.6-1 1.1-2 1.6-3.1 0-.1.1-.1.1-.2.1-.2.1-.3.2-.5.4-.9.8-1.8 1.2-2.8.1-.3.2-.6.3-.8.1-.2.2-.4.3-.7.1-.4.2-.7.4-1.1.3-.9.6-1.8.9-2.8.1-.3.2-.5.3-.8.1-.3.2-.7.3-1.1l.6-2.4c.1-.3.2-.7.3-1 .1-.4.1-.7.2-1.1.1-.7.3-1.4.4-2.1.1-.4.2-.7.2-1.1.1-.4.1-.9.2-1.3.1-.6.2-1.3.3-1.9 0-.3.1-.7.1-1 .1-.5.1-1.1.2-1.7.1-.6.1-1.2.2-1.8 0-.2.1-.5.1-.7.1-.8.1-1.6.2-2.4 0-.4.1-.9.1-1.3v-.3c.1-1.4.1-2.8.1-4.2v-.3L1601 1298.6z"></path><path fill="#F7C059" d="M1601 1298.6c0 1.6 0 3.2-.1 4.8 0 .4-.1.9-.1 1.3-.1 1.1-.1 2.1-.2 3.2-.1.6-.1 1.2-.2 1.8-.1.9-.2 1.8-.3 2.6-.1.6-.2 1.3-.3 1.9-.1.8-.3 1.6-.4 2.4-.1.7-.3 1.4-.4 2.1-.2.7-.3 1.4-.5 2.1l-.6 2.4c-.2.6-.3 1.2-.5 1.8-.3.9-.6 1.8-.9 2.8-.2.6-.4 1.2-.6 1.7-.1.3-.2.6-.3.8-.4 1-.8 1.9-1.2 2.8-.1.2-.1.3-.2.5-.5 1.1-1.1 2.2-1.7 3.3-.1.1-.1.2-.2.3-.5.9-1.1 1.9-1.6 2.8-.1.2-.3.4-.4.6l-1.5 2.1c-.2.3-.4.6-.6.8l-1.5 1.8c-.2.2-.4.5-.6.7-.7.8-1.4 1.6-2.2 2.3l-.3.3c-.6.6-1.3 1.2-2 1.8-.2.2-.5.4-.8.6-.6.5-1.2.9-1.8 1.4-.3.2-.5.4-.8.5-.8.6-1.7 1.1-2.6 1.7l518.9-301.6c.9-.5 1.7-1.1 2.6-1.7.3-.2.5-.4.8-.5.6-.4 1.2-.9 1.8-1.4.3-.2.5-.4.8-.6.7-.6 1.3-1.2 2-1.8l.3-.3c.7-.7 1.5-1.5 2.2-2.3.2-.2.4-.5.6-.7l1.5-1.8c.2-.3.4-.6.6-.8l1.5-2.1c.1-.2.3-.4.4-.6 0-.1.1-.1.1-.2.5-.8 1-1.7 1.5-2.6.1-.1.1-.2.2-.3.6-1 1.1-2 1.6-3.1 0-.1.1-.1.1-.2.1-.2.1-.3.2-.5.4-.9.8-1.8 1.2-2.8.1-.3.2-.6.3-.8.1-.2.2-.4.3-.7.1-.4.2-.7.4-1.1.3-.9.6-1.8.9-2.8.1-.3.2-.5.3-.8.1-.3.2-.7.3-1.1l.6-2.4c.1-.3.2-.7.3-1 .1-.4.1-.7.2-1.1.1-.7.3-1.4.4-2.1.1-.4.2-.7.2-1.1.1-.4.1-.9.2-1.3.1-.6.2-1.3.3-1.9 0-.3.1-.7.1-1 .1-.5.1-1.1.2-1.7.1-.6.1-1.2.2-1.8 0-.2.1-.5.1-.7.1-.8.1-1.6.2-2.4 0-.4.1-.9.1-1.3v-.3c.1-1.4.1-2.8.1-4.2v-.3L1601 1298.6z"></path><path fill="#F89D1F" d="m1427.3 831.3 518.9-301.6 40.7 23.4-519 301.6z"></path><path fill="#DB8918" d="m1467.9 854.7 519-301.6-1.1 366.6-518.9 301.5z"></path><path fill="#C2D7F2" d="m1499.2 872.8-1.1 385.7-20.9-12.1 1.1-385.7z"></path><path fill="#98ADD4" d="m1499.2 872.8 518.9-301.6-1.1 385.7-518.9 301.6z"></path><path fill="#E9F0F7" d="m1478.3 860.7 518.9-301.6 20.9 12.1-518.9 301.6z"></path><path fill="#C2D7F2" d="m1526.6 888.6-1.1 385.7-20.9-12.1 1.1-385.7z"></path><path fill="#98ADD4" d="M1526.6 888.6 2045.5 587l-1.1 385.7-518.9 301.6z"></path><path fill="#E9F0F7" d="M1505.7 876.5 2024.6 575l20.9 12-518.9 301.6z"></path><path fill="#98ADD4" d="m1554 904.4 518.9-301.6-1.1 385.7-518.9 301.6z"></path><path fill="#C2D7F2" d="m1554 904.4-1.1 385.7-20.9-12.1 1.1-385.7z"></path><path fill="#E9F0F7" d="M1533.1 892.3 2052 590.8l20.9 12L1554 904.4z"></path><path fill="#F9B142" d="M1601 1298.6c-.2 55.3-39.5 77.8-87.6 49.9-48.2-27.8-87.2-95.5-87.1-150.8l1-366.5 40.6 23.4-1 366.5c-.1 29.6 20.8 65.8 46.6 80.7 25.8 14.9 46.8 2.9 46.9-26.7l40.6 23.5z"></path><path fill="#0F0" d="m1581.6 952.1 106.2-61.7c9.9-5.7 18.2-13.9 24.1-23.7l33.5-55.4c5.8-9.7 14-17.7 23.8-23.4l311.1-180.8-1 366.5-518.9 301.6 1-288c0-14.5 7.7-27.9 20.2-35.1z"></path><path fill="#FBC977" d="m1622.2 975.5 106.2-61.7c9.9-5.7 18.2-13.9 24.1-23.7l33.5-55.4c5.8-9.7 14-17.7 23.8-23.4l311.1-180.8-1 366.5-518.9 301.6 1-288c0-14.5 7.7-27.8 20.2-35.1z"></path><path fill="#F89D1F" d="m1622.2 975.5 106.2-61.7c9.9-5.7 18.2-13.9 24.1-23.7l33.5-55.4c5.8-9.7 14-17.7 23.8-23.4l311.1-180.8-40.6-23.5-311.1 180.8c-9.8 5.7-18 13.7-23.8 23.4l-33.5 55.4c-5.9 9.8-14.2 17.9-24.1 23.7L1581.6 952c-12.5 7.3-20.2 20.6-20.2 35l-1 288 40.6 23.5 1-288c0-14.4 7.7-27.7 20.2-35z"></path><path fill="#F9B142" d="m1711.9 866.7 33.5-55.4c2-3.4 4.4-6.5 6.9-9.4l40.6 23.5c-2.6 2.9-4.9 6.1-6.9 9.4l-33.5 55.4c-2.8 4.6-6.1 8.8-9.8 12.6l-40.6-23.5c3.7-3.8 7-8 9.8-12.6zM1561.3 987.1c0-3.1.4-6.2 1.1-9.2l40.6 23.5c-.7 3-1.1 6.1-1.1 9.2l-1 288-40.6-23.5 1-288zM1612 684.9c.6-.3 1.1-.6 1.7-.8.1 0 .2-.1.3-.2.6-.3 1.2-.5 1.9-.8.8-.3 1.5-.6 2.3-.9.1 0 .1 0 .2-.1.8-.3 1.6-.5 2.4-.7l1.2-.3c.3-.1.6-.1.8-.2.4-.1.8-.2 1.3-.2.3 0 .5-.1.8-.1.6-.1 1.2-.2 1.9-.2h.5c.5 0 .9-.1 1.4-.1h2.3c.6 0 1.1.1 1.7.1h.2c.5.1 1 .1 1.5.2.1 0 .3.1.4.1.5.1.9.2 1.3.3.1 0 .2 0 .2.1.5.1 1 .3 1.5.5.1 0 .2.1.4.1.4.2.8.3 1.2.5.1 0 .2.1.3.1.5.2 1 .5 1.5.8l-40.6-23.4c-.1 0-.2-.1-.2-.1l-1.2-.6c-.1 0-.2-.1-.3-.1-.2-.1-.4-.2-.7-.3-.2-.1-.4-.1-.5-.2-.1 0-.2-.1-.4-.1-.5-.2-.9-.3-1.4-.5h-.1c-.1 0-.2 0-.2-.1-.4-.1-.9-.2-1.3-.3-.1 0-.3-.1-.4-.1-.1 0-.2-.1-.4-.1-.4-.1-.7-.1-1.1-.2h-.2c-.5-.1-.9-.1-1.4-.1h-2.9c-.4 0-.7 0-1.1.1h-.5c-.6.1-1.2.1-1.8.2h-.1c-.2 0-.5.1-.8.1-.4.1-.8.1-1.3.2-.3.1-.6.1-.9.2-.3.1-.7.1-1 .2-.1 0-.1 0-.2.1-.8.2-1.6.5-2.4.7-.1 0-.1 0-.2.1-.7.3-1.5.5-2.3.9-.1 0-.1.1-.2.1-.5.2-1.1.5-1.6.7-.1 0-.2.1-.3.2-.6.3-1.1.5-1.7.8-.2.1-.4.2-.5.3-.7.3-1.3.7-2 1.1l40.6 23.4c.7-.4 1.3-.7 2-1.1 0-.1.2-.2.4-.3zM1467.9 854.7l-40.6-23.4-.2-65.2 40.7 23.5z"></path><path fill="#F89D1F" d="m1486.4 757.4-40.7-23.5 123.1-71.1 40.7 23.5zM1467.9 786.9c0-.4.1-.9.2-1.3l.3-1.5c.1-.3.1-.7.2-1 .1-.3.2-.6.2-1 .1-.4.2-.9.4-1.3.1-.3.2-.5.2-.8.2-.5.3-1 .5-1.5.1-.2.1-.4.2-.6.3-.7.5-1.4.8-2 0-.1.1-.2.1-.2l.9-1.8.3-.6c.3-.6.6-1.1.9-1.7.1-.1.1-.2.2-.3.4-.6.8-1.3 1.2-1.9.1-.2.2-.4.4-.5.3-.5.6-.9.9-1.3.2-.2.3-.5.5-.7.3-.4.6-.7.8-1.1.2-.3.5-.6.7-.9.2-.3.5-.5.7-.8.4-.5.8-.9 1.2-1.3l.8-.8.6-.6c.3-.3.7-.6 1.1-.9.2-.2.4-.4.6-.5l1.2-.9c.2-.1.4-.3.6-.4.6-.4 1.2-.8 1.8-1.1l-40.6-23.4c-.6.3-1.2.7-1.8 1.1-.2.1-.4.3-.6.4l-1.2.9c-.2.2-.4.3-.6.5-.4.3-.7.6-1.1.9l-.6.6c-.1.1-.3.2-.4.4l-.4.4c-.4.4-.8.9-1.2 1.3l-.4.4c-.1.1-.2.3-.3.4-.2.3-.5.6-.7.9-.2.2-.3.4-.5.6-.1.2-.2.3-.4.5s-.3.5-.5.7c-.1.2-.2.3-.4.5l-.6.9c-.1.2-.2.4-.4.5 0 .1-.1.1-.1.2-.3.5-.7 1-1 1.6 0 0 0 .1-.1.1-.1.1-.1.2-.2.3-.2.4-.4.8-.6 1.1-.1.2-.2.4-.3.5l-.3.6c-.1.2-.2.3-.2.5-.2.4-.4.9-.6 1.3 0 .1-.1.2-.1.2v.1c-.2.6-.5 1.1-.7 1.7 0 .1-.1.2-.1.3-.1.2-.1.4-.2.6-.1.3-.2.6-.3.8-.1.2-.1.4-.2.7-.1.3-.2.5-.2.8 0 .2-.1.3-.1.5-.1.3-.1.6-.2.9-.1.3-.2.6-.2 1 0 .1-.1.2-.1.3 0 .2-.1.5-.1.7l-.3 1.5c0 .1-.1.3-.1.4 0 .3-.1.6-.1.9 0 .2 0 .4-.1.7-.1.7-.1 1.4-.1 2.1l40.6 23.4c0-.7 0-1.4.1-2.1.1-.5.1-.7.1-.9z"></path><path fill="#FBC977" d="M1609.5 686.3c17.6-10.1 33.5-7.3 40.5 7.1l21.2 43.2L1468 854.7l-.2-65.1c0-11.9 8.3-26.3 18.6-32.2l123.1-71.1z"></path><path fill="#E6A029" d="m1765.1 1433.1 1.8-.9 518.9-301.6-1.8.9-.6.3c-.4.2-.8.4-1.2.5-.3.1-.7.2-1 .3-.2.1-.4.1-.6.2-.4.1-.9.2-1.3.3-.2 0-.3.1-.5.1h-.3c-.7.1-1.4.2-2.2.3-.3 0-.5 0-.8.1-.5 0-1 .1-1.5.1h-2c-.3 0-.6 0-1-.1-.3 0-.7-.1-1-.1-.4 0-.7-.1-1.1-.1-.3 0-.6-.1-.9-.2-.4-.1-.8-.1-1.2-.2-.3-.1-.5-.1-.8-.2-.4-.1-.9-.2-1.3-.3-.3-.1-.5-.1-.8-.2-.5-.1-.9-.3-1.4-.4-.2-.1-.5-.1-.7-.2-.7-.2-1.3-.5-2-.8h-.1l-2.1-.9c-.2-.1-.4-.2-.7-.3-.5-.2-1-.5-1.5-.8-.3-.1-.5-.3-.8-.4-.7-.4-1.4-.7-2-1.1-.8-.4-1.5-.9-2.3-1.4 0 0-.1 0-.1-.1-.7-.5-1.5-1-2.2-1.5-.2-.2-.5-.4-.7-.5-.5-.3-1-.7-1.5-1.1-.3-.2-.6-.4-.9-.7-.4-.3-.9-.7-1.3-1-.3-.3-.6-.5-.9-.8-.4-.3-.8-.7-1.2-1-.3-.3-.6-.6-1-.8-.4-.4-.8-.7-1.2-1.1l-.9-.9-1.2-1.2-.9-.9c-.4-.4-.8-.8-1.2-1.3l-.8-.8c-.5-.5-1-1-1.4-1.6-.2-.2-.3-.4-.5-.6-.6-.7-1.3-1.5-1.9-2.2-.1-.2-.3-.3-.4-.5l-1.5-1.8c-.6-.7-1.1-1.5-1.7-2.2-.1-.1-.2-.2-.3-.4-.9-1.2-1.8-2.5-2.6-3.8-.2-.2-.3-.5-.5-.7-1.1-1.6-2.1-3.3-3.1-5-.1-.2-.3-.4-.4-.6-.7-1.2-1.4-2.4-2-3.6-.2-.4-.5-.9-.7-1.3-.2-.5-.5-.9-.7-1.4-.3-.7-.6-1.3-1-2-.1-.2-.2-.4-.3-.7-.4-.9-.8-1.7-1.2-2.6-.1-.2-.2-.5-.3-.7-.3-.6-.6-1.3-.8-1.9-.1-.3-.2-.6-.4-.9-.2-.6-.5-1.2-.7-1.9-.1-.3-.2-.5-.3-.8-.3-.8-.6-1.6-.8-2.4 0-.1-.1-.2-.1-.3l-.9-2.7c-.1-.3-.2-.6-.2-.9-.2-.6-.4-1.3-.5-1.9-.1-.3-.2-.7-.3-1-.2-.6-.3-1.2-.4-1.7-.1-.3-.2-.7-.2-1-.1-.6-.3-1.2-.4-1.8-.1-.3-.1-.6-.2-1-.1-.7-.3-1.5-.4-2.2 0-.1-.1-.3-.1-.4-.1-.9-.3-1.8-.4-2.6 0-.2-.1-.5-.1-.7-.1-.6-.1-1.3-.2-1.9 0-.3 0-.6-.1-.9 0-.6-.1-1.2-.1-1.8v-.8c0-.8-.1-1.7 0-2.5l-518.9 301.6v4.3c0 .3 0 .5.1.8 0 .3 0 .6.1.9v.6c0 .4.1.9.1 1.3 0 .2.1.5.1.7v.2c.1.8.2 1.6.3 2.3v.1c0 .1 0 .3.1.4.1.6.2 1.2.3 1.9 0 .1.1.2.1.4.1.3.1.6.2.9.1.4.1.7.2 1.1 0 .2.1.4.2.7.1.3.2.7.2 1 .1.3.1.5.2.8.1.3.2.6.3 1 .1.3.2.7.3 1 0 .2.1.3.1.5.1.5.3.9.4 1.4.1.3.2.6.2.9 0 .1 0 .1.1.2.2.8.5 1.6.8 2.4 0 .1.1.2.1.3.2.7.5 1.3.7 2 0 .1.1.2.1.4.1.3.2.5.3.8.1.4.3.7.4 1.1.1.3.2.5.3.8.1.3.2.6.4.9l.3.6c.2.4.4.9.6 1.3.1.2.2.5.3.7 0 .1.1.2.1.2.3.8.7 1.5 1 2.3v.1c.1.2.2.5.3.7.3.6.5 1.1.8 1.7 0 .1.1.2.1.3.2.5.5.9.7 1.4.2.4.4.8.6 1.1 0 .1.1.1.1.2.7 1.2 1.3 2.4 2 3.6.1.1.1.2.2.3.1.1.1.2.2.3 1 1.7 2 3.3 3.1 5 .1.1.1.2.2.3.1.1.2.3.3.4.9 1.3 1.7 2.5 2.6 3.8.1.1.2.2.3.4.6.7 1.1 1.5 1.7 2.2l.1.1c.4.6.9 1.1 1.4 1.7.1.2.3.3.4.5l1.8 2.1.1.1c.2.2.3.4.5.6.4.5.8.9 1.2 1.4l.2.2.8.8c.3.3.6.6.9 1l.3.3.9.9.8.8.4.4c.3.3.6.6 1 .9.2.2.5.4.7.6.2.2.3.3.5.4.3.3.6.6 1 .8.2.2.4.4.6.5.2.2.4.3.6.5.3.3.6.5.9.8.2.1.3.3.5.4.3.2.5.4.8.6.3.2.6.4.9.7.1.1.2.2.4.3.4.3.7.5 1.1.8.2.2.5.4.7.5.1 0 .1.1.2.1.7.4 1.3.9 2 1.3 0 0 .1 0 .1.1.6.4 1.2.8 1.9 1.1.2.1.3.2.5.3.5.3 1 .6 1.5.8l.6.3c.3.1.5.3.8.4l.6.3c.3.2.6.3 1 .4.2.1.4.2.7.3.1 0 .2.1.3.1.6.3 1.2.5 1.9.8h.1c.6.2 1.2.5 1.8.7.1 0 .2.1.3.1.2.1.5.1.7.2l.9.3c.2 0 .3.1.5.1.3.1.5.2.8.2.2.1.4.1.6.2.2.1.5.1.7.2.3.1.5.1.8.2.1 0 .3.1.4.1.3.1.5.1.8.1.3.1.6.1.9.2.1 0 .2 0 .3.1.3 0 .5.1.8.1.3 0 .7.1 1 .1h3c.5 0 1 0 1.5-.1h.7c.7-.1 1.5-.2 2.2-.3H1760.2c.2 0 .3-.1.5-.1.4-.1.9-.2 1.3-.3.2-.1.4-.1.6-.2.3-.1.6-.2.8-.3.1 0 .1-.1.2-.1.4-.2.8-.3 1.2-.5-.1.1.1 0 .3-.1z"></path><path fill="#FCD688" d="M1821.1 1425.7c0 1.6 0 3.2-.1 4.8 0 .4-.1.9-.1 1.3-.1 1.1-.1 2.1-.2 3.2-.1.6-.1 1.2-.2 1.8-.1.9-.2 1.8-.3 2.6-.1.6-.2 1.3-.3 1.9-.1.8-.3 1.6-.4 2.4-.1.7-.3 1.4-.4 2.1-.2.7-.3 1.4-.5 2.1l-.6 2.4c-.2.6-.3 1.2-.5 1.8-.3.9-.6 1.8-.9 2.8-.2.6-.4 1.2-.6 1.7-.1.3-.2.6-.3.8-.4 1-.8 1.9-1.2 2.8-.1.2-.1.3-.2.5-.5 1.1-1.1 2.2-1.7 3.3-.1.1-.1.2-.2.3-.5.9-1.1 1.9-1.6 2.8-.1.2-.3.4-.4.6l-1.5 2.1c-.2.3-.4.6-.6.8l-1.5 1.8c-.2.2-.4.5-.6.7-.7.8-1.4 1.6-2.2 2.3l-.3.3c-.6.6-1.3 1.2-2 1.8-.2.2-.5.4-.8.6-.6.5-1.2.9-1.8 1.4-.3.2-.5.4-.8.5-.8.6-1.7 1.1-2.6 1.7l518.9-301.6c.9-.5 1.7-1.1 2.6-1.7.3-.2.5-.4.8-.5.6-.4 1.2-.9 1.8-1.4.3-.2.5-.4.8-.6.7-.6 1.3-1.2 2-1.8l.3-.3c.7-.7 1.5-1.5 2.2-2.3.2-.2.4-.5.6-.7l1.5-1.8c.2-.3.4-.6.6-.8l1.5-2.1c.1-.2.3-.4.4-.6 0-.1.1-.1.1-.2.5-.8 1-1.7 1.5-2.6.1-.1.1-.2.2-.3.6-1 1.1-2 1.6-3.1 0-.1.1-.1.1-.2.1-.2.1-.3.2-.5.4-.9.8-1.8 1.2-2.8.1-.3.2-.6.3-.8l.3-.6c.1-.4.2-.7.4-1.1.3-.9.6-1.8.9-2.8.1-.3.2-.5.3-.8.1-.3.2-.7.3-1.1l.6-2.4c.1-.3.2-.7.3-1 .1-.4.1-.7.2-1.1.1-.7.3-1.4.4-2.1.1-.4.2-.7.2-1.1.1-.4.1-.9.2-1.3.1-.6.2-1.3.3-1.9 0-.3.1-.7.1-1 .1-.5.1-1.1.2-1.7.1-.6.1-1.2.2-1.8 0-.2.1-.5.1-.7.1-.8.1-1.6.2-2.4 0-.4.1-.9.1-1.3v-.3c.1-1.4.1-2.8.1-4.2v-.3l-519.2 301.7z"></path><path fill="#F9CF6A" d="M1821.1 1425.7c0 1.6 0 3.2-.1 4.8 0 .4-.1.9-.1 1.3-.1 1.1-.1 2.1-.2 3.2-.1.6-.1 1.2-.2 1.8-.1.9-.2 1.8-.3 2.6-.1.6-.2 1.3-.3 1.9-.1.8-.3 1.6-.4 2.4-.1.7-.3 1.4-.4 2.1-.2.7-.3 1.4-.5 2.1l-.6 2.4c-.2.6-.3 1.2-.5 1.8-.3.9-.6 1.8-.9 2.8-.2.6-.4 1.2-.6 1.7-.1.3-.2.6-.3.8-.4 1-.8 1.9-1.2 2.8-.1.2-.1.3-.2.5-.5 1.1-1.1 2.2-1.7 3.3-.1.1-.1.2-.2.3-.5.9-1.1 1.9-1.6 2.8-.1.2-.3.4-.4.6l-1.5 2.1c-.2.3-.4.6-.6.8l-1.5 1.8c-.2.2-.4.5-.6.7-.7.8-1.4 1.6-2.2 2.3l-.3.3c-.6.6-1.3 1.2-2 1.8-.2.2-.5.4-.8.6-.6.5-1.2.9-1.8 1.4-.3.2-.5.4-.8.5-.8.6-1.7 1.1-2.6 1.7l518.9-301.6c.9-.5 1.7-1.1 2.6-1.7.3-.2.5-.4.8-.5.6-.4 1.2-.9 1.8-1.4.3-.2.5-.4.8-.6.7-.6 1.3-1.2 2-1.8l.3-.3c.7-.7 1.5-1.5 2.2-2.3.2-.2.4-.5.6-.7l1.5-1.8c.2-.3.4-.6.6-.8l1.5-2.1c.1-.2.3-.4.4-.6 0-.1.1-.1.1-.2.5-.8 1-1.7 1.5-2.6.1-.1.1-.2.2-.3.6-1 1.1-2 1.6-3.1 0-.1.1-.1.1-.2.1-.2.1-.3.2-.5.4-.9.8-1.8 1.2-2.8.1-.3.2-.6.3-.8l.3-.6c.1-.4.2-.7.4-1.1.3-.9.6-1.8.9-2.8.1-.3.2-.5.3-.8.1-.3.2-.7.3-1.1l.6-2.4c.1-.3.2-.7.3-1 .1-.4.1-.7.2-1.1.1-.7.3-1.4.4-2.1.1-.4.2-.7.2-1.1.1-.4.1-.9.2-1.3.1-.6.2-1.3.3-1.9 0-.3.1-.7.1-1 .1-.5.1-1.1.2-1.7.1-.6.1-1.2.2-1.8 0-.2.1-.5.1-.7.1-.8.1-1.6.2-2.4 0-.4.1-.9.1-1.3v-.3c.1-1.4.1-2.8.1-4.2v-.3l-519.2 301.7z"></path><path fill="#FAB031" d="m1647.5 958.4 518.9-301.6 40.6 23.5-518.9 301.5z"></path><path fill="#E6A029" d="M1688.1 981.8 2207 680.3l-1 366.5-518.9 301.5z"></path><path fill="#C2D7F2" d="m1719.4 999.9-1.1 385.7-20.9-12.1 1.1-385.7z"></path><path fill="#98ADD4" d="m1719.4 999.9 518.9-301.6-1.1 385.7-518.9 301.6z"></path><path fill="#E9F0F7" d="m1698.5 987.8 518.9-301.6 20.9 12.1-518.9 301.6z"></path><path fill="#C2D7F2" d="m1746.8 1015.7-1.1 385.7-20.9-12.1 1.1-385.7z"></path><path fill="#98ADD4" d="m1746.8 1015.7 518.9-301.6-1.1 385.7-518.9 301.6z"></path><path fill="#E9F0F7" d="m1725.9 1003.6 518.9-301.5 20.9 12-518.9 301.6z"></path><path fill="#98ADD4" d="m1774.2 1031.5 518.9-301.6-1.1 385.7-518.9 301.6z"></path><path fill="#C2D7F2" d="m1774.2 1031.5-1.1 385.7-20.9-12.1 1.1-385.7z"></path><path fill="#E9F0F7" d="m1753.3 1019.4 518.9-301.5 20.9 12-518.9 301.6z"></path><path fill="#FBC253" d="M1821.1 1425.7c-.2 55.3-39.5 77.8-87.6 49.9-48.2-27.8-87.2-95.5-87.1-150.8l1-366.5 40.6 23.4-1 366.5c-.1 29.6 20.8 65.8 46.6 80.7 25.8 14.9 46.8 2.9 46.9-26.7l40.6 23.5z"></path><path fill="#12FF37" d="m1801.7 1079.2 106.2-61.7c9.9-5.7 18.2-13.9 24.1-23.7l33.5-55.4c5.8-9.7 14-17.7 23.8-23.4l311.1-180.8-1 366.5-518.9 301.6 1-288c0-14.5 7.7-27.8 20.2-35.1z"></path><path fill="#FCD688" d="m1842.4 1102.7 106.2-61.7c9.9-5.7 18.2-13.9 24.1-23.7l33.5-55.4c5.8-9.7 14-17.7 23.8-23.4l311.1-180.8-1 366.5-518.9 301.6 1-288c0-14.5 7.7-27.9 20.2-35.1z"></path><path fill="#FAB031" d="m1842.4 1102.7 106.2-61.7c9.9-5.7 18.2-13.9 24.1-23.7l33.5-55.4c5.8-9.7 14-17.7 23.8-23.4l311.1-180.8-40.6-23.5L1989.4 915c-9.8 5.7-18 13.7-23.8 23.4l-33.5 55.4c-5.9 9.8-14.2 17.9-24.1 23.7l-106.2 61.7c-12.5 7.3-20.2 20.6-20.2 35l-1 288 40.6 23.5 1-288c0-14.4 7.7-27.8 20.2-35z"></path><path fill="#FBC253" d="m1932.1 993.8 33.5-55.4c2-3.4 4.4-6.5 6.9-9.4l40.6 23.5c-2.6 2.9-4.9 6.1-6.9 9.4l-33.5 55.4c-2.8 4.6-6.1 8.8-9.8 12.6l-40.6-23.5c3.7-3.8 7-8 9.8-12.6zM1781.5 1114.2c0-3.1.4-6.2 1.1-9.2l40.6 23.5c-.7 3-1.1 6.1-1.1 9.2l-1 288-40.6-23.5 1-288zM1832.2 812c.6-.3 1.1-.6 1.7-.8.1 0 .2-.1.3-.2.6-.3 1.2-.5 1.9-.8.8-.3 1.5-.6 2.3-.9.1 0 .1 0 .2-.1.8-.3 1.6-.5 2.4-.7l1.2-.3c.3-.1.6-.1.8-.2.4-.1.8-.2 1.3-.2.3 0 .5-.1.8-.1.6-.1 1.2-.2 1.9-.2h.5c.5 0 .9-.1 1.4-.1h2.3c.6 0 1.1.1 1.7.1h.2c.5.1 1 .1 1.5.2.1 0 .3.1.4.1.5.1.9.2 1.3.3.1 0 .2 0 .2.1.5.1 1 .3 1.5.5.1 0 .2.1.4.1.4.2.8.3 1.2.5.1 0 .2.1.3.1.5.2 1 .5 1.5.8l-40.6-23.4c-.1 0-.2-.1-.2-.1l-1.2-.6c-.1 0-.2-.1-.3-.1-.2-.1-.4-.2-.7-.3-.2-.1-.4-.1-.5-.2-.1 0-.2-.1-.4-.1-.5-.2-.9-.3-1.4-.5h-.1c-.1 0-.2 0-.2-.1-.4-.1-.9-.2-1.3-.3-.1 0-.3-.1-.4-.1-.1 0-.2-.1-.4-.1-.4-.1-.7-.1-1.1-.2h-.2c-.5-.1-.9-.1-1.4-.1h-2.9c-.4 0-.7 0-1.1.1h-.5c-.6.1-1.2.1-1.8.2h-.1c-.2 0-.5.1-.8.1-.4.1-.8.1-1.3.2-.3.1-.6.1-.9.2-.3.1-.7.1-1 .2-.1 0-.1 0-.2.1-.8.2-1.6.5-2.4.7-.1 0-.1 0-.2.1-.7.3-1.5.5-2.3.9-.1 0-.1.1-.2.1-.5.2-1.1.5-1.6.7-.1 0-.2.1-.3.2-.6.3-1.1.5-1.7.8-.2.1-.4.2-.5.3-.7.3-1.3.7-2 1.1l40.6 23.4c.7-.4 1.3-.7 2-1.1 0-.1.2-.2.4-.3zM1688.1 981.8l-40.6-23.4-.2-65.1 40.6 23.4z"></path><path fill="#FAB031" d="m1706.5 884.5-40.6-23.5 123.1-71 40.6 23.4zM1688.1 914c0-.4.1-.9.2-1.3l.3-1.5c.1-.3.1-.7.2-1 .1-.3.2-.6.2-1 .1-.4.2-.9.4-1.3.1-.3.2-.5.2-.8.2-.5.3-1 .5-1.5.1-.2.1-.4.2-.6.3-.7.5-1.4.8-2 0-.1.1-.2.1-.2l.9-1.8.3-.6c.3-.6.6-1.1.9-1.7.1-.1.1-.2.2-.3.4-.6.8-1.3 1.2-1.9.1-.2.2-.4.4-.5.3-.5.6-.9.9-1.3.2-.2.3-.5.5-.7.3-.4.6-.7.8-1.1.2-.3.5-.6.7-.9.2-.3.5-.5.7-.8.4-.5.8-.9 1.2-1.3l.8-.8.6-.6c.3-.3.7-.6 1.1-.9.2-.2.4-.4.6-.5l1.2-.9c.2-.1.4-.3.6-.4.6-.4 1.2-.8 1.8-1.1l-40.6-23.4c-.6.3-1.2.7-1.8 1.1-.2.1-.4.3-.6.4l-1.2.9c-.2.2-.4.3-.6.5-.4.3-.7.6-1.1.9l-.6.6c-.1.1-.3.2-.4.4l-.4.4c-.4.4-.8.9-1.2 1.3l-.4.4c-.1.1-.2.3-.3.4-.2.3-.5.6-.7.9-.2.2-.3.4-.5.6-.1.2-.2.3-.4.5s-.3.5-.5.7c-.1.2-.2.3-.4.5l-.6.9c-.1.2-.2.4-.4.5 0 .1-.1.1-.1.2-.3.5-.7 1-1 1.6 0 0 0 .1-.1.1-.1.1-.1.2-.2.3-.2.4-.4.8-.6 1.1-.1.2-.2.4-.3.5l-.3.6c-.1.2-.2.3-.2.5-.2.4-.4.9-.6 1.3 0 .1-.1.2-.1.2v.1c-.2.6-.5 1.1-.7 1.7 0 .1-.1.2-.1.3-.1.2-.1.4-.2.6-.1.3-.2.6-.3.8-.1.2-.1.4-.2.7-.1.3-.2.5-.2.8 0 .2-.1.3-.1.5-.1.3-.1.6-.2.9-.1.3-.2.6-.2 1 0 .1-.1.2-.1.3 0 .2-.1.5-.1.7l-.3 1.5c0 .1-.1.3-.1.4 0 .3-.1.6-.1.9 0 .2 0 .4-.1.7-.1.7-.1 1.4-.1 2.1l40.6 23.4c0-.7 0-1.4.1-2.1 0-.5 0-.7.1-.9z"></path><path fill="#FCD688" d="M1829.6 813.4c17.6-10.1 33.5-7.3 40.5 7.1l21.2 43.2-203.2 118.1-.2-65.1c0-11.9 8.3-26.3 18.6-32.2l123.1-71.1z"></path></g><path fill="#0C3461" d="M1314.4 513.6c-2.3-1.3-4.6-2.7-7-4.2-.1 0-.1-.1-.2-.1-2.3-1.4-4.5-2.9-6.8-4.5-.1-.1-.2-.1-.3-.2-2.2-1.5-4.4-3.1-6.7-4.7-.1-.1-.3-.2-.4-.3-2.2-1.6-4.3-3.3-6.5-5-.1-.1-.2-.2-.4-.3l-.2-.2c-1.5-1.2-3-2.4-4.5-3.7-.4-.3-.7-.6-1.1-.9-1.2-1-2.5-2.1-3.7-3.2-.3-.3-.7-.6-1-.9-1.5-1.3-3-2.7-4.5-4-.3-.3-.6-.6-.9-.8-1.2-1.1-2.5-2.3-3.7-3.5-.2-.2-.5-.4-.7-.6-.2-.2-.4-.4-.6-.5-.8-.8-1.7-1.6-2.5-2.4-.4-.4-.9-.8-1.3-1.3-1.1-1.1-2.2-2.2-3.2-3.3l-.5-.5c-1.2-1.3-2.5-2.6-3.7-3.9-.4-.4-.7-.8-1.1-1.2-.9-.9-1.7-1.9-2.5-2.8l-.5-.5c-.1-.2-.3-.3-.4-.5-2.1-2.3-4.1-4.7-6.1-7.1-.3-.3-.5-.6-.8-.9-2-2.4-4-4.8-5.9-7.3-.1-.2-.3-.3-.4-.5-.1-.2-.3-.4-.4-.5-1.8-2.3-3.6-4.7-5.4-7.1-.3-.4-.5-.7-.8-1.1-1.8-2.4-3.5-4.9-5.3-7.4-.1-.2-.2-.3-.3-.5-.1-.2-.3-.4-.4-.6-1.7-2.5-3.4-5-5.1-7.6-.2-.4-.5-.7-.7-1.1-1.7-2.6-3.3-5.2-5-7.8-.1-.1-.2-.3-.3-.4-.2-.2-.3-.5-.4-.7-1.5-2.4-2.9-4.8-4.3-7.3-1-1.7-2-3.5-2.9-5.2-.3-.6-.6-1.1-.9-1.7-.6-1.2-1.3-2.4-1.9-3.5-.1-.2-.3-.5-.4-.7-.2-.5-.5-.9-.7-1.4-.5-1-1-1.9-1.5-2.9-.4-.7-.7-1.4-1.1-2.2-.5-1-1-1.9-1.5-2.9-.4-.7-.7-1.4-1.1-2.2-.5-1-.9-1.9-1.4-2.9-.3-.7-.7-1.4-1-2.1-.5-1-.9-2-1.4-3-.2-.5-.5-1-.7-1.5-.1-.2-.2-.4-.2-.5-.9-1.9-1.7-3.8-2.5-5.7-.1-.2-.2-.4-.3-.7l-2.1-5.1c-.2-.6-.5-1.2-.7-1.8-.6-1.4-1.1-2.8-1.7-4.2-.2-.5-.4-1.1-.6-1.6l-2.1-5.7v-.2c-1.2-3.2-2.3-6.4-3.3-9.7-.1-.2-.1-.4-.2-.6-1-3.1-1.9-6.1-2.8-9.2l-.3-.9c-.8-3-1.6-5.9-2.4-8.8-.1-.3-.2-.7-.3-1-.7-2.9-1.4-5.8-2-8.6 0-.2-.1-.4-.1-.5-.1-.3-.1-.5-.2-.8-.4-2.1-.9-4.1-1.2-6.2v-.1c-.4-2-.7-4-1-6-.1-.5-.2-1-.2-1.5l-.9-6c0-.2 0-.4-.1-.6-.2-1.8-.5-3.7-.6-5.5 0-.5-.1-.9-.1-1.4-.2-2-.4-3.9-.5-5.8 0-.3 0-.6-.1-.9l-.3-5.1c0-.4 0-.9-.1-1.3-.1-1.9-.1-3.8-.2-5.6v-7.2c0-.8 0-1.7.1-2.5 0-.6 0-1.2.1-1.7 0-.9.1-1.8.1-2.6 0-.5.1-1 .1-1.6.1-1 .1-2 .2-3 0-.4.1-.7.1-1.1.1-1.4.3-2.7.4-4.1 0-.3.1-.6.1-1 .1-1 .2-2 .4-3 .1-.5.1-1 .2-1.5.1-.8.2-1.7.4-2.5.1-.5.2-1.1.3-1.6.1-.8.3-1.5.4-2.3.1-.6.2-1.1.3-1.6.1-.7.3-1.4.5-2.1 0-.2.1-.4.1-.6.1-.3.1-.5.2-.8.3-1.1.5-2.2.8-3.2l.3-1.2 1.2-4.2c0-.1.1-.3.1-.4.4-1.2.8-2.5 1.2-3.7.1-.4.3-.8.4-1.2.4-1 .7-2 1.1-3 .1-.2.2-.5.3-.7 0-.1.1-.2.2-.4.3-.8.7-1.6 1-2.4.1-.3.3-.7.4-1l1.5-3.3c.1-.1.1-.3.2-.4.5-.9.9-1.9 1.4-2.8.2-.4.4-.7.6-1.1.4-.7.8-1.4 1.1-2 .1-.1.1-.3.2-.4l.6-.9.9-1.5c.3-.4.6-.9.9-1.3.3-.5.6-.9.9-1.4.3-.4.6-.9.9-1.3.3-.5.7-.9 1-1.4l.9-1.2c.3-.4.7-.9 1-1.3.1-.2.2-.3.4-.5.2-.3.4-.5.7-.8.3-.4.7-.8 1-1.2.4-.4.7-.8 1.1-1.2.3-.4.7-.7 1-1.1.4-.4.8-.8 1.1-1.2l1.1-1.1c.4-.4.8-.7 1.2-1.1.4-.3.7-.7 1.1-1 .1-.1.2-.2.4-.3.3-.3.6-.5.9-.7.4-.3.8-.6 1.1-1 .4-.3.8-.7 1.3-1l1.2-.9c.4-.3.9-.6 1.3-1l1.2-.9c.5-.3.9-.6 1.4-.9.4-.3.8-.5 1.2-.8.1-.1.2-.1.3-.2.7-.4 1.4-.9 2.1-1.3l40.9-23.8-2.4 1.5c-.4.3-.8.5-1.2.8-.5.3-.9.6-1.4.9l-1.2.9c-.4.3-.9.6-1.3 1l-1.2.9c-.4.3-.8.7-1.3 1-.4.3-.8.6-1.1 1-.4.3-.8.7-1.2 1.1-.4.3-.7.7-1.1 1-.4.4-.8.7-1.2 1.1-.4.3-.7.7-1.1 1.1-.4.4-.8.8-1.1 1.2-.3.4-.7.7-1 1.1-.4.4-.7.8-1.1 1.2-.3.4-.7.8-1 1.2-.3.4-.7.8-1 1.2-.3.4-.7.9-1 1.3l-.9 1.2c-.3.4-.7.9-1 1.4-.3.4-.6.9-.9 1.3-.3.5-.6.9-.9 1.4-.3.4-.6.9-.9 1.3l-.9 1.5c-.3.4-.5.9-.8 1.3-.4.7-.8 1.4-1.1 2-.2.4-.4.7-.6 1.1-.5.9-1 1.8-1.4 2.8-.1.1-.1.3-.2.4l-1.5 3.3c-.2.3-.3.7-.4 1-.3.8-.7 1.6-1 2.4-.1.4-.3.7-.4 1.1-.4 1-.8 2-1.1 3-.1.4-.3.8-.4 1.2-.4 1.2-.8 2.4-1.2 3.7 0 .1-.1.3-.1.4l-1.2 4.2-.3 1.2c-.3 1.1-.5 2.2-.8 3.2-.1.5-.2.9-.3 1.4-.2.7-.3 1.4-.5 2.2-.1.5-.2 1.1-.3 1.6-.1.8-.3 1.5-.4 2.3-.1.5-.2 1-.3 1.6-.1.8-.3 1.7-.4 2.5-.1.5-.2 1-.2 1.4-.1 1-.3 2-.4 3 0 .3-.1.6-.1 1-.2 1.3-.3 2.7-.4 4.1 0 .4-.1.7-.1 1.1-.1 1-.2 2-.2 3 0 .5-.1 1.1-.1 1.6 0 .9-.1 1.7-.1 2.6 0 .6 0 1.2-.1 1.7 0 .8-.1 1.7-.1 2.5v7.2c0 1.9.1 3.7.2 5.6 0 .4 0 .9.1 1.3l.3 5.1c0 .3 0 .6.1.9.1 1.9.3 3.9.5 5.8 0 .5.1.9.1 1.4.2 1.8.4 3.7.6 5.5 0 .2 0 .4.1.6l.9 6c.1.5.2 1 .2 1.5.3 2 .7 4 1 6v.2c.4 2.1.8 4.1 1.2 6.2.1.4.2.9.3 1.3.6 2.9 1.3 5.7 2 8.6.1.4.2.7.3 1.1.7 2.9 1.5 5.9 2.4 8.8l.3.9c.9 3 1.8 6.1 2.8 9.2.1.2.1.4.2.6 1 3.2 2.1 6.4 3.3 9.7 0 .1.1.1.1.2l2.1 5.7c.2.5.4 1.1.6 1.6.5 1.4 1.1 2.8 1.7 4.2.2.6.5 1.2.7 1.8l2.1 5.1c.1.2.2.4.3.7.8 1.9 1.7 3.8 2.5 5.7.3.7.6 1.3.9 2 .5 1 .9 2 1.4 3 .3.7.7 1.4 1 2.2.5 1 .9 1.9 1.4 2.9.4.7.7 1.5 1.1 2.2.5 1 1 1.9 1.4 2.9.4.7.7 1.5 1.1 2.2.5 1 1 1.9 1.5 2.9.4.7.7 1.4 1.1 2.1.6 1.2 1.3 2.3 1.9 3.5.3.6.6 1.1.9 1.7 1 1.7 1.9 3.5 2.9 5.2 1.4 2.5 2.9 4.9 4.3 7.3.2.4.5.8.7 1.1 1.6 2.7 3.3 5.3 5 7.8.2.4.5.7.7 1.1 1.7 2.6 3.4 5.1 5.1 7.6.2.4.5.7.7 1.1 1.7 2.5 3.5 5 5.3 7.4.3.4.5.7.8 1.1 1.8 2.4 3.6 4.8 5.4 7.1.3.3.5.7.8 1 2 2.5 3.9 4.9 5.9 7.3.2.3.5.6.7.9 2 2.4 4.1 4.8 6.1 7.1.3.3.6.7.9 1 .8.9 1.7 1.9 2.6 2.8.4.4.7.8 1.1 1.2 1.2 1.3 2.5 2.6 3.7 3.9.1.2.3.3.4.5 1.1 1.1 2.2 2.3 3.3 3.4l1.3 1.3c.8.8 1.7 1.6 2.5 2.5l1.2 1.2c1.2 1.2 2.4 2.3 3.7 3.5.3.3.6.6.9.8 1.5 1.4 3 2.7 4.5 4 .3.3.7.6 1 .9 1.2 1.1 2.5 2.1 3.7 3.2.4.3.7.6 1.1.9 1.5 1.3 3 2.5 4.5 3.7.2.2.4.3.6.4 2.2 1.7 4.3 3.4 6.5 5 .1.1.3.2.4.3 2.2 1.6 4.4 3.2 6.7 4.7.1.1.2.1.3.2 2.3 1.5 4.5 3 6.8 4.5.1 0 .1.1.2.1 2.3 1.5 4.6 2.9 7 4.2 38.5 22.2 77 27.6 106.5 10.8l-40.9 23.8c-29.7 16.2-68.3 10.9-106.7-11.3z"></path><path fill="#DCE9F5" d="M1323.3 508.4c38.5 22.2 77 27.6 106.5 10.8 58.9-33.6 59.2-143 .7-244.4-29.3-50.7-67.7-89.8-106.2-112s-77-27.6-106.5-10.8c-58.9 33.6-59.2 143-.7 244.4 29.2 50.7 67.7 89.8 106.2 112z" opacity=".5"></path><path fill="#3D75A9" d="M1429.4 539.2c63.7-36.3 64-154.6.7-264.2-31.6-54.8-73.2-97.1-114.8-121.1s-83.3-29.8-115.1-11.7c-63.7 36.3-64 154.6-.7 264.2 31.6 54.8 73.2 97.1 114.8 121.1 41.6 24.1 83.3 29.9 115.1 11.7zm-220.5-382c29.5-16.8 68-11.4 106.5 10.8 38.5 22.2 76.9 61.3 106.2 112 58.5 101.4 58.2 210.8-.7 244.4-29.5 16.8-68 11.4-106.5-10.8-38.5-22.2-76.9-61.3-106.2-112-58.6-101.4-58.3-210.8.7-244.4z"></path><path fill="#DCE9F5" d="M1237.2 398.1c3 1.8 6.1 2.2 8.5 1 2.4-1.3 3.7-4 3.8-7.5.1-3.6-1-7.9-3.4-12.1-14.6-25.9-26-53.8-33-80.6-1.8-6.8-6.5-13.1-11.5-16-1.4-.8-2.7-1.3-4.1-1.5-6.4-1.1-9.7 5-7.5 13.6 8.1 31.2 21.4 63.7 38.4 93.9 2.4 4 5.6 7.3 8.8 9.2zM1278.4 457.5c4.4 2.5 8.7 2.3 10.9-1.3.9-1.4 1.3-3.2 1.4-5.3.2-5.1-2.2-11.6-6.5-16.7-5.6-6.6-11-13.6-16.2-20.7-2.1-2.9-4.6-5.2-7-6.6-3.9-2.2-7.6-2.3-10 .2-3.9 4.1-2.6 13.6 2.9 21.3 6 8.3 12.4 16.5 18.9 24.1 1.7 2.2 3.7 3.9 5.6 5z" opacity=".5"></path><path fill="#0C3461" d="M1432.1 537.7c.5-.3.9-.6 1.3-.9.5-.3 1-.6 1.5-1 .4-.3.9-.6 1.3-.9.5-.3 1-.7 1.4-1 .4-.3.8-.7 1.3-1 .5-.4.9-.7 1.4-1.1.4-.3.8-.7 1.2-1 .4-.4.9-.8 1.3-1.1.4-.4.8-.7 1.2-1.1.4-.4.9-.8 1.3-1.2l1.1-1.1c.4-.4.8-.8 1.2-1.3.4-.4.7-.8 1.1-1.2.4-.4.8-.9 1.2-1.3.4-.4.7-.8 1.1-1.2.4-.4.7-.9 1.1-1.3.4-.5.7-.9 1.1-1.4.3-.4.7-.9 1-1.3.4-.5.7-1 1.1-1.5.3-.5.7-.9 1-1.4.3-.5.7-1 1-1.5.3-.5.6-1 .9-1.4.3-.5.7-1 1-1.6.3-.5.6-1 .9-1.4.4-.7.8-1.5 1.2-2.2l.6-1.2 1.5-3c.1-.2.2-.3.2-.5.6-1.2 1.1-2.4 1.7-3.6.2-.4.3-.7.5-1.1.4-.8.7-1.7 1.1-2.6.2-.4.3-.8.5-1.2.4-1.1.8-2.1 1.2-3.2.2-.4.3-.9.5-1.3.5-1.3.9-2.6 1.3-4 0-.1.1-.3.1-.4.5-1.5.9-3 1.3-4.5.1-.4.2-.9.3-1.3.3-1.2.6-2.3.9-3.5l.3-1.5c.2-.8.3-1.6.5-2.3.1-.6.2-1.2.4-1.8.2-.8.3-1.6.4-2.5.1-.6.2-1.1.3-1.7.1-.9.3-1.8.4-2.7.1-.5.2-1 .2-1.6.2-1.1.3-2.2.4-3.3 0-.3.1-.7.1-1 .2-1.5.3-2.9.4-4.4 0-.4.1-.8.1-1.2l.3-3.3c0-.6.1-1.1.1-1.7.1-.9.1-1.9.1-2.8 0-.6 0-1.3.1-1.9 0-.9.1-1.8.1-2.7V430.7c0-2-.1-4.1-.2-6.1 0-.5 0-.9-.1-1.4-.1-1.8-.2-3.7-.3-5.6 0-.3 0-.6-.1-.9-.2-2.1-.3-4.2-.6-6.3-.1-.5-.1-1-.2-1.5-.2-2-.4-4-.7-6 0-.2 0-.4-.1-.6-.3-2.2-.6-4.3-.9-6.5-.1-.5-.2-1.1-.3-1.6-.4-2.2-.7-4.3-1.1-6.5v-.2c-.4-2.2-.9-4.5-1.3-6.7-.1-.7-.3-1.3-.4-2-.2-.9-.4-1.8-.6-2.8-.2-.8-.4-1.6-.5-2.4-.2-.9-.4-1.9-.7-2.8l-.6-2.4c-.2-.9-.5-1.9-.7-2.8l-.6-2.4c-.3-1-.5-1.9-.8-2.9-.2-.8-.4-1.5-.7-2.3l-.9-3c-.2-.8-.5-1.5-.7-2.3-.3-1-.6-2-1-3.1-.2-.7-.5-1.5-.7-2.2-.4-1.1-.7-2.2-1.1-3.3-.2-.7-.4-1.3-.7-2-.4-1.2-.9-2.5-1.3-3.8-.2-.5-.4-1-.5-1.5-.7-2-1.5-4.1-2.3-6.1-.2-.6-.5-1.2-.7-1.8-.6-1.5-1.2-3-1.8-4.6-.3-.6-.5-1.3-.8-1.9-.7-1.8-1.5-3.6-2.3-5.5-.1-.2-.2-.5-.3-.7-.9-2.1-1.8-4.1-2.7-6.2-.3-.7-.7-1.4-1-2.2-.5-1.1-1-2.1-1.5-3.2-.4-.8-.7-1.5-1.1-2.3-.5-1-1-2.1-1.5-3.1l-1.2-2.4c-.5-1-1-2.1-1.6-3.1-.4-.8-.8-1.6-1.2-2.3-.5-1.1-1.1-2.1-1.6-3.1-.4-.8-.8-1.5-1.2-2.3-.7-1.3-1.4-2.6-2.1-3.8-.3-.6-.7-1.2-1-1.8-1-1.9-2.1-3.7-3.2-5.6-1.5-2.6-3.1-5.3-4.7-7.8-.3-.4-.5-.8-.8-1.2-1.8-2.9-3.5-5.7-5.4-8.5-.3-.4-.5-.8-.8-1.2-1.8-2.8-3.6-5.5-5.5-8.2-.3-.4-.5-.8-.8-1.2-1.9-2.7-3.8-5.4-5.7-8-.3-.4-.6-.8-.8-1.2-1.9-2.6-3.9-5.2-5.8-7.7-.4-.5-.8-1.1-1.2-1.6-.6-.8-1.2-1.6-1.9-2.3-.6-.7-1.1-1.4-1.7-2.1-.6-.8-1.3-1.5-1.9-2.3-.6-.7-1.1-1.4-1.7-2-.6-.8-1.3-1.5-1.9-2.3-.6-.7-1.1-1.3-1.7-2-.6-.7-1.3-1.5-2-2.2-.6-.6-1.1-1.3-1.7-1.9l-2.7-3c-.4-.4-.8-.9-1.2-1.3-1.3-1.4-2.6-2.8-4-4.2l-.5-.5c-1.2-1.2-2.3-2.4-3.5-3.6l-1.4-1.4c-.9-.9-1.8-1.8-2.7-2.6l-1.3-1.3c-1.3-1.3-2.6-2.5-4-3.8-.3-.3-.7-.6-1-.9-1.6-1.5-3.2-2.9-4.8-4.3-.4-.3-.8-.7-1.1-1-1.3-1.2-2.6-2.3-4-3.4-.4-.3-.8-.7-1.2-1-1.6-1.4-3.2-2.7-4.9-4-.7-.5-1.3-1-2-1.6-.6-.5-1.2-.9-1.8-1.4-.7-.5-1.4-1.1-2.1-1.6-.6-.4-1.2-.9-1.7-1.3l-2.1-1.5c-.6-.4-1.1-.8-1.7-1.2-.7-.5-1.4-1-2.2-1.5-.6-.4-1.1-.8-1.7-1.2-.7-.5-1.5-1-2.2-1.5-.5-.4-1.1-.7-1.6-1.1-.8-.5-1.5-1-2.3-1.5-.5-.3-1.1-.7-1.6-1-.8-.5-1.7-1-2.5-1.6-.4-.3-.9-.6-1.3-.8-1.3-.8-2.6-1.5-3.9-2.3-22.1-12.8-44.2-20.4-64.9-22-2.4-.2-4.8-.3-7.2-.3-4.8 0-9.5.2-14 .9-10.3 1.4-20 4.7-29 9.8l40.9-23.8c31.8-18.1 73.5-12.4 115.1 11.7 1.3.7 2.6 1.5 3.9 2.3.4.3.9.6 1.3.8.8.5 1.7 1 2.5 1.6.5.3 1.1.7 1.6 1 .8.5 1.5 1 2.3 1.5.5.4 1.1.7 1.6 1.1.7.5 1.5 1 2.2 1.5.6.4 1.1.8 1.7 1.2.7.5 1.4 1 2.2 1.5.6.4 1.1.8 1.7 1.2l2.1 1.5c.6.4 1.2.9 1.8 1.3.7.5 1.4 1 2.1 1.6.6.5 1.2.9 1.8 1.4.6.5 1.2.9 1.7 1.4l.2.2c1.6 1.3 3.3 2.6 4.9 4 .4.3.8.7 1.2 1 1.3 1.1 2.7 2.3 4 3.4.4.3.8.7 1.1 1 1.6 1.4 3.2 2.9 4.8 4.3.3.3.7.6 1 .9 1.3 1.2 2.7 2.5 4 3.8l.7.7.6.6c.9.9 1.8 1.8 2.7 2.6l1.4 1.4c1.2 1.2 2.4 2.4 3.5 3.6l.5.5c1.3 1.4 2.7 2.8 4 4.2.4.4.8.9 1.2 1.3l2.7 3c.2.2.3.4.5.5.4.4.8.9 1.2 1.3.7.7 1.3 1.5 2 2.2.6.7 1.1 1.3 1.7 2 .6.8 1.3 1.5 1.9 2.3.6.7 1.1 1.3 1.7 2 .6.8 1.3 1.5 1.9 2.3.6.7 1.1 1.4 1.7 2.1.6.8 1.2 1.6 1.9 2.4.3.3.5.7.8 1 .1.2.3.4.4.6 2 2.5 3.9 5.1 5.8 7.7.3.4.6.8.8 1.2 1.9 2.6 3.8 5.3 5.7 8 .1.2.2.3.4.5.1.2.3.4.4.7 1.9 2.7 3.7 5.4 5.5 8.2.3.4.5.8.8 1.2 1.8 2.8 3.6 5.6 5.4 8.5.1.1.2.3.3.4.2.3.3.5.5.8 1.6 2.6 3.1 5.2 4.7 7.8 1.1 1.9 2.1 3.7 3.2 5.6.3.6.7 1.2 1 1.8.7 1.3 1.4 2.6 2.1 3.8.1.3.3.5.4.8.3.5.5 1 .8 1.5.6 1.1 1.1 2.1 1.7 3.2.4.8.8 1.6 1.2 2.3.5 1 1.1 2.1 1.6 3.1.4.8.8 1.6 1.2 2.3.5 1.1 1 2.1 1.5 3.2.4.8.7 1.5 1.1 2.3.5 1.1 1 2.1 1.5 3.2.2.5.5 1.1.7 1.6l.3.6c.9 2.1 1.8 4.1 2.7 6.2.1.2.2.5.3.7.8 1.8 1.5 3.6 2.3 5.5.3.6.5 1.3.8 1.9.6 1.5 1.2 3 1.8 4.6.2.6.5 1.2.7 1.8.8 2 1.5 4.1 2.3 6.1v.1c.2.5.3 1 .5 1.4.4 1.2.9 2.5 1.3 3.7.2.7.4 1.3.7 2 .4 1.1.7 2.2 1.1 3.3.2.7.5 1.5.7 2.2.3 1 .6 2 1 3.1.2.8.5 1.5.7 2.3.3 1 .6 2 .9 2.9.2.8.4 1.5.7 2.3.3 1 .5 1.9.8 2.9.2.8.4 1.6.6 2.3.2.9.5 1.9.7 2.8l.6 2.4c.2.9.5 1.9.7 2.8.2.8.4 1.6.5 2.4.2.9.4 1.8.6 2.8.1.4.2.8.3 1.1.1.3.1.6.2.8.5 2.2.9 4.5 1.3 6.7v.2c.4 2.2.8 4.4 1.1 6.5.1.5.2 1.1.3 1.6.3 2.2.7 4.4.9 6.5 0 .2 0 .4.1.6.3 2 .5 4 .7 6 .1.5.1 1 .2 1.5l.6 6.3c0 .3 0 .6.1.9.1 1.9.2 3.7.3 5.6 0 .5 0 .9.1 1.4.1 2 .1 4.1.2 6.1v7.8c0 .9 0 1.8-.1 2.7 0 .6 0 1.3-.1 1.9 0 .9-.1 1.9-.1 2.8 0 .6-.1 1.1-.1 1.7l-.3 3.3c0 .4-.1.8-.1 1.2-.1 1.5-.3 2.9-.4 4.4 0 .3-.1.7-.1 1-.1 1.1-.3 2.2-.4 3.3-.1.5-.2 1-.2 1.6-.1.9-.3 1.8-.4 2.7-.1.6-.2 1.1-.3 1.7-.1.8-.3 1.6-.4 2.5-.1.6-.2 1.2-.4 1.8-.2.8-.3 1.6-.5 2.3 0 .2-.1.4-.1.6-.1.3-.1.6-.2.8-.3 1.2-.6 2.3-.9 3.5-.1.4-.2.9-.3 1.3-.4 1.5-.8 3-1.3 4.5 0 .1-.1.3-.1.4-.4 1.3-.9 2.7-1.3 4-.1.4-.3.9-.5 1.3l-1.2 3.3c-.1.3-.2.5-.3.8-.1.1-.1.3-.2.4-.3.9-.7 1.7-1.1 2.6-.2.4-.3.7-.5 1.1-.5 1.2-1.1 2.4-1.7 3.6-.1.1-.1.3-.2.4-.5 1-1 2-1.6 3-.2.4-.4.8-.6 1.1-.4.7-.8 1.5-1.2 2.2-.1.1-.2.3-.2.4-.2.3-.4.7-.6 1-.3.5-.6 1.1-1 1.6-.3.5-.6 1-.9 1.4-.3.5-.7 1-1 1.5-.3.5-.6.9-1 1.4-.4.5-.7 1-1.1 1.5-.3.5-.7.9-1 1.3-.4.5-.7.9-1.1 1.4-.1.2-.3.3-.4.5-.2.3-.5.5-.7.8-.4.4-.7.8-1.1 1.2-.4.4-.8.9-1.2 1.3-.4.4-.7.8-1.1 1.2l-1.2 1.2-1.2 1.2c-.4.4-.8.8-1.3 1.2-.4.4-.8.7-1.2 1.1-.1.1-.3.2-.4.4-.3.3-.6.5-.9.8-.4.3-.8.7-1.2 1-.5.4-.9.7-1.4 1.1-.4.3-.8.7-1.3 1-.5.4-.9.7-1.4 1-.4.3-.9.6-1.3.9-.5.3-1 .7-1.5 1-.4.3-.9.6-1.3.9-.1.1-.2.1-.3.2-.8.5-1.5.9-2.3 1.4l-40.9 23.8c.7-.3 1.6-.8 2.5-1.3z"></path><path fill="#AEC7E6" d="m1517.4 534.8-27.1-38.4c-.5-.8-3.9.5-9.6 3.7-1.2.7-2.4 1.4-3.7 2.2 0 0-.1 0-.1.1-.5.3-1.1.7-1.6 1-.4.3-.9.6-1.3.8-.2.1-.3.2-.5.3-.1 0-.1.1-.2.1-.1.1-.3.2-.4.3-.3.2-.7.5-1 .7l-.9.6c-.3.2-.6.4-.8.6-.2.1-.3.2-.5.3h-.1c-.1.1-.2.1-.2.2-.2.2-.4.3-.7.5-.2.1-.4.3-.6.4-.2.1-.4.3-.6.4-.1.1-.3.2-.4.3-.1.1-.3.2-.4.3-.1.1-.3.2-.4.3-.1.1-.3.2-.4.3-.1.1-.2.1-.3.2-.1.1-.2.1-.3.2-.1.1-.2.1-.3.2-.1.1-.2.1-.3.2-.1.1-.2.1-.3.2-.1.1-.2.1-.2.2l-.2.2-.2.2-.2.2-.2.2-.2.2-.2.2-.2.2-.2.2-.2.2-.2.2-.2.2-.2.2c-.1.1-.2.1-.3.2-.1.1-.2.1-.3.2-.1.1-.2.1-.3.2-.1.1-.2.1-.3.2-.1.1-.2.1-.3.2-.3.2-.5.4-.8.6-.1.1-.3.2-.4.3l-.1.1c-.1.1-.3.2-.4.3-.2.2-.5.4-.7.6l-.3.3-.3.3-.3.3c-.1.1-.2.2-.3.2-.1.1-.2.2-.3.2l-.2.2c-.1.1-.2.2-.3.2-.1.1-.2.2-.3.2l-.3.3-.3.3c-.1.1-.2.2-.4.3l-.5.5-.2.2c-.2.2-.3.3-.4.5-.3.3-.6.7-.9 1-.2.3-.4.5-.6.7-.1.1-.2.2-.2.3 0 0 0 .1-.1.1 0 0 0 .1-.1.1-.1.1-.1.3-.2.4 0 .1-.1.2-.1.3v.6l27.1 38.4c-.1-.1-.1-.3 0-.5s.2-.5.4-.8c0 0 0-.1.1-.1.2-.3.5-.6.8-1 .4-.4.8-.9 1.3-1.4.7-.7 1.4-1.4 2.3-2.2.8-.8 1.8-1.5 2.7-2.4l.1-.1c2-1.6 4.2-3.4 6.6-5.1 1.2-.9 2.4-1.7 3.6-2.6l.1-.1c1.2-.8 2.4-1.7 3.6-2.5.1 0 .1-.1.2-.1 1.2-.8 2.4-1.5 3.5-2.3 1.3-.8 2.5-1.5 3.7-2.2 3.5-2 6.2-3.3 7.8-3.7 1.4-.6 2-.6 2.2-.3z"></path><path fill="gray" d="M1507.8 538.5c9.3-5.4 12.4-5.3 7 .2-5.4 5.4-17.2 14.2-26.5 19.5-9.3 5.4-12.4 5.3-7-.2 5.4-5.4 17.2-14.2 26.5-19.5z"></path><path fill="#DCE9F5" d="M1518.8 526.8c-.7-1-4.8.6-11.9 4.6-1.5.9-3 1.8-4.6 2.8 0 0-.1 0-.1.1-.7.4-1.3.8-2 1.3-.5.3-1.1.7-1.6 1-.2.1-.4.3-.7.4-.1 0-.1.1-.2.1-.2.1-.4.2-.5.4-.4.3-.8.6-1.3.9-.4.3-.7.5-1.1.8-.3.2-.7.5-1 .7-.2.1-.4.3-.6.4h-.1c-.1.1-.2.1-.3.2-.3.2-.6.4-.8.6-.2.2-.5.3-.7.5-.2.2-.5.3-.7.5-.2.1-.4.3-.6.4-.2.1-.3.2-.5.3-.2.1-.3.2-.5.3-.2.1-.3.2-.5.3-.1.1-.2.2-.4.3l-.3.3-.3.3-.3.3-.3.3c-.1.1-.2.1-.3.2-.1.1-.2.1-.3.2-.1.1-.2.1-.3.2-.1.1-.2.1-.3.2-.1.1-.2.1-.3.2-.1.1-.2.1-.3.2-.1.1-.2.1-.3.2-.1.1-.2.1-.3.2-.1.1-.2.1-.3.2-.1.1-.2.1-.2.2-.1.1-.2.1-.3.2-.1.1-.2.1-.3.2-.1.1-.2.1-.3.2l-.3.3-.3.3-.3.3-.3.3-.3.3c-.3.3-.6.5-1 .8-.2.1-.3.3-.5.4-.1 0-.1.1-.2.1-.2.1-.3.3-.5.4-.3.2-.6.5-.9.7-.1.1-.3.2-.4.3-.1.1-.2.2-.4.3-.1.1-.2.2-.4.3-.1.1-.2.2-.4.3l-.3.3c-.1.1-.2.2-.3.2l-.3.3-.3.3-.4.4c-.1.1-.3.2-.4.4-.2.1-.3.3-.4.4l-.6.6-.3.3-.6.6c-.4.4-.8.8-1.1 1.2-.3.3-.5.6-.7.9-.1.1-.2.3-.3.4l-.1.1-.1.1c-.1.2-.2.3-.2.5-.1.1-.1.2-.1.3V560.7l9.2 13.1c-.1-.1-.1-.4 0-.6.1-.3.2-.6.5-1l.1-.1c.2-.4.6-.8 1-1.3v-.1c.5-.5 1-1.1 1.6-1.8.8-.8 1.8-1.8 2.9-2.7 1-.9 2.2-1.9 3.4-2.9l.2-.2c1.2-1 2.5-2 3.9-3.1s2.8-2.2 4.3-3.3c1.5-1.1 3-2.2 4.5-3.2 0 0 .1 0 .1-.1 1.5-1 3-2.1 4.5-3.1.1 0 .1-.1.2-.1 1.5-1 2.9-1.9 4.4-2.8 1.6-1 3.1-1.9 4.6-2.8 7-4.1 11.2-5.6 11.9-4.6l-8.9-13.2z"></path><path fill="gray" d="M1516.1 544.6c11.5-6.6 15.4-6.5 8.7.3-6.7 6.8-21.4 17.6-32.9 24.2-11.5 6.6-15.4 6.5-8.7-.2 6.7-6.8 21.4-17.7 32.9-24.3z"></path><path fill="#0C3461" d="M1721.8 815.8 1528 539.9c-.7-1-4.8.6-11.9 4.6-1.5.9-3 1.8-4.6 2.8 0 0-.1 0-.1.1-.7.4-1.3.8-2 1.3-.5.3-1.1.7-1.6 1-.2.1-.4.3-.7.4-.1 0-.1.1-.2.1-.2.1-.4.2-.5.4-.4.3-.8.6-1.3.9-.4.3-.7.5-1.1.8-.3.2-.7.5-1 .7-.2.1-.4.3-.6.4h-.1c-.1.1-.2.1-.3.2-.3.2-.6.4-.8.6-.2.2-.5.3-.7.5-.2.2-.5.3-.7.5-.2.1-.4.3-.6.4-.2.1-.3.2-.5.3-.2.1-.3.2-.5.3-.2.1-.3.2-.5.4-.1.1-.2.2-.4.3l-.3.3-.3.3-.3.3-.3.3c-.1.1-.2.1-.3.2-.1.1-.2.1-.3.2-.1.1-.2.1-.3.2-.1.1-.2.1-.3.2-.1.1-.2.1-.3.2-.1.1-.2.1-.3.2-.1.1-.2.1-.3.2-.1.1-.2.1-.3.2-.1.1-.2.1-.3.2-.1.1-.2.1-.2.2-.1.1-.2.1-.3.2s-.2.1-.3.2c-.1.1-.2.1-.3.2l-.3.3-.3.3-.3.3-.3.3-.3.3c-.3.3-.6.5-1 .8-.2.1-.3.3-.5.4-.1 0-.1.1-.2.1-.2.1-.3.3-.5.4-.3.2-.6.5-.9.7-.1.1-.3.2-.4.3-.1.1-.2.2-.4.3-.1.1-.2.2-.4.3-.1.1-.2.2-.4.3l-.3.3c-.1.1-.2.2-.3.2l-.3.3-.3.3-.4.4c-.1.1-.3.2-.4.4-.2.1-.3.3-.4.4l-.6.6-.3.3-.6.6c-.4.4-.8.8-1.1 1.2-.3.3-.5.6-.7.9-.1.1-.2.3-.3.4l-.1.1-.1.1c-.1.2-.2.3-.2.5-.1.1-.1.2-.1.3V573.9l195.3 277.9v-.1c5.3 7.4 14 12.3 23.9 12.3 16.2 0 29.4-13.1 29.4-29.4.4-7.2-2.2-13.7-6.4-18.8z"></path></svg>