<svg xmlns="http://www.w3.org/2000/svg" enable-background="new 0 0 1640.274 1101" viewBox="0 0 1640.274 1101" id="man-programmer-freelancer-writing-code"><path fill="#32684d" d="M1179.467,567.85c0,0,10.151-2.815,16.611,18.411c6.46,21.225,0.923,44.222,17.534,54.872
			c16.611,10.65,38.008,19.879,35.615,41.104c-2.393,21.225-4.875,36.899,15.746,46.135c20.621,9.236,24.312,59.07,24.312,59.07
			h-32.3c0,0-9.229-37.226-22.61-44.914c-13.381-7.688-34.607,7.078-41.99-16.916s-1.846-54.783-28.608-62.921
			C1137.016,654.551,1179.467,567.85,1179.467,567.85z"></path><path fill="#96bd79" d="M1251.449,537.424c0,0,11.997,27.61,7.383,46.99c-4.614,19.38-13.843,30.254-7.383,47.427
			s25.84,26.929,22.61,41.892c-3.23,14.963-18.918,67.565,0,99.865c18.918,32.3,0,0,0,0l12.458-1.846v-68.291
			c0,0,15.688-17.459,15.688-41.029c0-23.57-16.611-49.455,7.383-70.658C1333.582,570.572,1251.449,537.424,1251.449,537.424z"></path><path fill="#32684d" d="M1274.058,773.598c0,0-7.844-76.596,20.764-86.748s35.991-10.151,38.76-27.685
			c2.768-17.534-2.769-55.886,27.686-59.32c30.454-3.434,32.3-6.203,37.837-22.814c5.537-16.611,35.991-50.756,55.371-35.991
			c19.38,14.766,12.92,35.991-11.997,71.982c0,0-3.691,4.667-5.537,31.865c-1.846,27.198-18.457,53.037-40.605,53.037
			c-22.148,0-30.454,0.765-41.528,21.146c-11.074,20.382-46.142,21.305-52.602,32.379c-6.46,11.074-12.92,35.991-12.92,35.991
			L1274.058,773.598z"></path><polygon fill="#e2e1ec" points="1310.774 843.404 1237.343 843.404 1223.763 762.524 1324.354 762.524"></polygon><rect width="165.367" height="16.672" x="765.034" y="816.351" fill="#f17255"></rect><polygon fill="#f17255" points="1018.335 662.433 940.905 662.433 977.165 833.023 1054.595 833.023"></polygon><polygon fill="#371d14" points="956.37 735.192 1039.61 762.524 1033.8 735.192 956.37 735.192"></polygon><polygon fill="#f17255" points="944.737 824.687 1052.823 824.687 1054.595 833.023 944.737 833.023"></polygon><path fill="#371d14" d="M1031.576,826.298h-56.184c-0.888,0-1.608-0.723-1.608-1.61s0.72-1.61,1.608-1.61h56.184
				c0.888,0,1.608,0.723,1.608,1.61S1032.464,826.298,1031.576,826.298z"></path><path fill="#f1b055" d="M1233.275,410.378l-65.664,263.365H744.188l65.664-263.365
				c2.607-10.456,13.186-18.95,23.642-18.95h385.556C1229.506,391.428,1235.882,399.922,1233.275,410.378z"></path><path fill="#e88d43" d="M1167.611,673.742l-10.596,42.5c-2.607,10.456-13.218,18.95-23.674,18.95H747.784
				c-10.456,0-16.8-8.494-14.193-18.95l10.596-42.5H1167.611z"></path><polygon fill="#fff" points="1210.08 436.18 1150.849 673.742 760.724 673.742 819.955 436.18"></polygon><path fill="#e2e1ec" d="M1214.652,417.842l-4.572,18.338H819.955l4.572-18.338c1.58-6.338,8.011-11.486,14.349-11.486
				h367.186C1212.401,406.356,1216.233,411.504,1214.652,417.842z"></path><path fill="#371d14" d="M846.846,428.656c-0.49,0-0.972-0.223-1.289-0.643l-8.674-11.554
						c-0.533-0.711-0.389-1.721,0.321-2.253c0.711-0.538,1.721-0.389,2.253,0.318l8.674,11.554c0.533,0.711,0.389,1.721-0.321,2.253
						C847.521,428.551,847.181,428.656,846.846,428.656z"></path><path fill="#371d14" d="M835.292,428.656c-0.473,0-0.94-0.207-1.258-0.606c-0.555-0.692-0.443-1.706,0.25-2.259
						l14.434-11.554c0.697-0.553,1.709-0.442,2.262,0.25c0.555,0.692,0.443,1.706-0.25,2.259l-14.434,11.554
						C836,428.539,835.644,428.656,835.292,428.656z"></path><polygon fill="#371d14" points="810.273 654.135 793.282 654.135 794.886 647.7 811.878 647.7"></polygon><polygon fill="#371d14" points="817.493 625.18 800.502 625.18 802.106 618.745 819.097 618.745"></polygon><polygon fill="#371d14" points="824.712 596.224 807.721 596.224 809.325 589.79 826.316 589.79"></polygon><polygon fill="#371d14" points="831.931 567.269 814.94 567.269 816.544 560.834 833.536 560.834"></polygon><polygon fill="#371d14" points="839.151 538.313 822.16 538.313 823.764 531.879 840.755 531.879"></polygon><polygon fill="#371d14" points="846.37 509.358 829.379 509.358 830.983 502.924 847.974 502.924"></polygon><polygon fill="#371d14" points="853.589 480.403 836.598 480.403 838.203 473.968 855.194 473.968"></polygon><polygon fill="#371d14" points="860.809 451.448 843.818 451.448 845.422 445.013 862.413 445.013"></polygon><polygon fill="#515696" points="965.461 451.448 897.933 451.448 899.537 445.013 967.065 445.013"></polygon><polygon fill="#f17255" points="912.347 480.403 890.714 480.403 892.318 473.968 913.951 473.968"></polygon><polygon fill="#515696" points="974.444 480.403 933.98 480.403 935.584 473.968 976.048 473.968"></polygon><polygon fill="#f17255" points="1003.013 480.403 986.422 480.403 988.027 473.968 1004.617 473.968"></polygon><polygon fill="#515696" points="1073.15 480.403 1024.967 480.403 1026.571 473.968 1074.754 473.968"></polygon><polygon fill="#515696" points="926.761 509.358 911.714 509.358 913.319 502.924 928.365 502.924"></polygon><polygon fill="#515696" points="967.225 509.358 941.499 509.358 943.104 502.924 968.829 502.924"></polygon><polygon fill="#515696" points="1040.862 509.358 987.901 509.358 989.505 502.924 1042.466 502.924"></polygon><polygon fill="#32684d" points="900.321 589.79 898.046 589.79 910.881 538.313 913.156 538.313"></polygon><polygon fill="#32684d" points="912.537 536.234 887.611 536.234 888.178 533.959 913.104 533.959"></polygon><polygon fill="#f17255" points="919.541 538.313 904.495 538.313 906.099 531.879 921.146 531.879"></polygon><polygon fill="#f17255" points="912.322 567.269 897.276 567.269 898.88 560.834 913.926 560.834"></polygon><polygon fill="#f17255" points="973.06 567.269 932.554 567.269 934.158 560.834 974.665 560.834"></polygon><polygon fill="#515696" points="1058.434 567.269 989.247 567.269 990.852 560.834 1060.038 560.834"></polygon><polygon fill="#32684d" points="1102.535 567.269 1080.485 567.269 1082.089 560.834 1104.139 560.834"></polygon><polygon fill="#f17255" points="935.063 596.224 890.056 596.224 891.661 589.79 936.668 589.79"></polygon><polygon fill="#f17255" points="877.779 625.18 854.617 625.18 856.221 618.745 879.383 618.745"></polygon><polygon fill="#32684d" points="855.135 623.1 841.899 623.1 878.563 476.048 891.799 476.048 891.232 478.323 880.27 478.323 844.741 620.825 855.703 620.825"></polygon><polygon fill="#32684d" points="880.554 477.186 878.279 477.186 885.782 447.093 899.019 447.093 898.452 449.368 887.49 449.368"></polygon><polygon fill="#32684d" points="890.575 594.144 872.035 594.144 900.394 480.403 902.668 480.403 874.877 591.87 891.142 591.87"></polygon><path fill="#f1b055" d="M1179.31,197.331l-33.474,134.256c-1.195,4.794-6.026,8.686-10.852,8.686H885.55
			c-4.826,0-7.748-3.893-6.553-8.686l33.474-134.256H1179.31z"></path><path fill="#e2e1ec" d="M1184.42,176.837l-5.11,20.494H912.471l5.11-20.494c1.195-4.794,6.059-8.687,10.885-8.687h249.434
			C1182.725,168.15,1185.615,172.043,1184.42,176.837z"></path><polygon fill="#32684d" points="934.591 319.323 924.941 319.323 951.212 213.958 960.57 213.958 960.57 216.369 953.097 216.369 928.028 316.913 934.591 316.913"></polygon><polygon fill="#32684d" points="940.073 318.291 937.731 317.71 950.334 267.161 952.676 267.742"></polygon><polygon fill="#32684d" points="987.728 291.466 985.386 290.885 991.13 267.844 971.566 267.844 971.566 265.434 994.217 265.434"></polygon><polygon fill="#fff" points="911.629 321.334 897.216 321.334 898.82 314.9 913.234 314.9"></polygon><polygon fill="#fff" points="918.047 295.596 903.633 295.596 905.238 289.161 919.651 289.161"></polygon><polygon fill="#fff" points="924.464 269.858 910.051 269.858 911.655 263.423 926.068 263.423"></polygon><polygon fill="#fff" points="930.881 244.12 916.468 244.12 918.072 237.685 932.485 237.685"></polygon><polygon fill="#fff" points="937.298 218.382 922.885 218.382 924.489 211.947 938.903 211.947"></polygon><polygon fill="#515696" points="997.956 218.382 957.12 218.382 958.725 211.947 999.561 211.947"></polygon><polygon fill="#e2e1ec" points="1017.838 218.382 1007.316 218.382 1008.92 211.947 1019.443 211.947"></polygon><rect width="9.301" height="2.41" x="939.319" y="265.434" fill="#32684d"></rect><polygon fill="#e2e1ec" points="1031.772 244.12 1015.947 244.12 1017.551 237.685 1033.377 237.685"></polygon><polygon fill="#515696" points="1084.527 244.12 1044.242 244.12 1045.847 237.685 1086.131 237.685"></polygon><polygon fill="#e2e1ec" points="970.764 269.858 944.286 269.858 945.89 263.423 972.368 263.423"></polygon><polygon fill="#515696" points="999.743 269.858 984 269.858 985.605 263.423 1001.347 263.423"></polygon><polygon fill="#e2e1ec" points="1037.825 269.858 1017.442 269.858 1019.047 263.423 1039.429 263.423"></polygon><polygon fill="#515696" points="1070.854 269.858 1056.137 269.858 1057.742 263.423 1072.458 263.423"></polygon><polygon fill="#e2e1ec" points="951.108 295.596 937.869 295.596 939.473 289.161 952.713 289.161"></polygon><polygon fill="#f17255" points="1021.39 295.596 972.394 295.596 973.999 289.161 1022.994 289.161"></polygon><polygon fill="#f17255" points="1049.72 295.596 1036.005 295.596 1037.609 289.161 1051.325 289.161"></polygon><polygon fill="#f17255" points="957.929 321.334 931.451 321.334 933.056 314.9 959.534 314.9"></polygon><polygon fill="#515696" points="998.448 321.334 972.288 321.334 973.892 314.9 1000.052 314.9"></polygon><rect width="8.72" height="2.41" x="945.736" y="239.696" fill="#32684d"></rect><polygon fill="#515696" points="1006.16 244.12 950.703 244.12 952.307 237.685 1007.764 237.685"></polygon><path fill="#371d14" d="M937.732,189.351c-0.49,0-0.972-0.223-1.289-0.646l-7.504-10
						c-0.533-0.708-0.389-1.718,0.321-2.249c0.714-0.538,1.72-0.393,2.253,0.321l7.504,10c0.533,0.708,0.389,1.718-0.321,2.25
						C938.408,189.246,938.068,189.351,937.732,189.351z"></path><path fill="#371d14" d="M927.734,189.351c-0.473,0-0.939-0.207-1.258-0.606c-0.555-0.692-0.443-1.706,0.25-2.259
						l12.492-10c0.697-0.556,1.709-0.442,2.262,0.25c0.555,0.692,0.443,1.706-0.25,2.259l-12.492,10
						C928.442,189.234,928.087,189.351,927.734,189.351z"></path><g><path fill="#f1b055" d="M1447.295,492.323l-33.474,134.256c-1.195,4.794-6.026,8.687-10.852,8.687h-249.434
				c-4.826,0-7.748-3.893-6.553-8.687l33.474-134.256H1447.295z"></path><path fill="#e2e1ec" d="M1452.404,471.829l-5.11,20.494h-266.839l5.11-20.494c1.195-4.794,6.059-8.687,10.885-8.687
				h249.434C1450.71,463.142,1453.6,467.035,1452.404,471.829z"></path><path fill="#371d14" d="M1205.719,484.341c-0.49,0-0.972-0.223-1.289-0.643l-7.506-9.997
							c-0.533-0.711-0.389-1.721,0.321-2.253c0.714-0.538,1.72-0.389,2.253,0.318l7.506,9.997c0.533,0.711,0.389,1.721-0.321,2.253
							C1206.394,484.236,1206.054,484.341,1205.719,484.341z"></path><path fill="#371d14" d="M1195.719,484.341c-0.473,0-0.939-0.207-1.258-0.605c-0.555-0.692-0.442-1.706,0.25-2.259
							l12.492-9.996c0.695-0.556,1.707-0.442,2.262,0.25c0.555,0.692,0.442,1.706-0.25,2.259l-12.492,9.997
							C1196.427,484.224,1196.071,484.341,1195.719,484.341z"></path><polygon fill="#32684d" points="1227.643 613.516 1214.343 613.516 1240.614 508.154 1256.357 508.154 1256.357 510.564 1242.499 510.564 1217.43 611.105 1227.643 611.105"></polygon><rect width="45.104" height="2.41" x="1235.139" y="533.891" fill="#32684d"></rect><rect width="75.683" height="2.41" x="1228.722" y="559.63" fill="#32684d"></rect><rect width="70.167" height="2.41" x="1222.305" y="585.367" fill="#32684d"></rect><polygon fill="#32684d" points="1233.159 612.601 1230.817 612.02 1237.234 586.282 1239.576 586.863"></polygon><polygon fill="#32684d" points="1247.902 561.125 1245.56 560.544 1251.977 534.806 1254.319 535.387"></polygon><polygon fill="#32684d" points="1342.066 587.778 1304.913 587.778 1311.702 560.544 1314.044 561.125 1308 585.367 1342.066 585.367"></polygon><g><polygon fill="#fff" points="1187.782 615.528 1175.298 615.528 1176.902 609.093 1189.386 609.093"></polygon><polygon fill="#fff" points="1194.199 589.79 1181.715 589.79 1183.319 583.355 1195.804 583.355"></polygon><polygon fill="#fff" points="1200.616 564.052 1188.132 564.052 1189.737 557.617 1202.221 557.617"></polygon><polygon fill="#fff" points="1207.034 538.313 1194.55 538.313 1196.154 531.879 1208.638 531.879"></polygon><polygon fill="#fff" points="1213.451 512.576 1200.967 512.576 1202.571 506.141 1215.055 506.141"></polygon></g><g><polygon fill="#515696" points="1290.736 512.576 1250.195 512.576 1251.799 506.141 1292.34 506.141"></polygon><polygon fill="#f17255" points="1363.193 512.576 1308.825 512.576 1310.429 506.141 1364.798 506.141"></polygon><polygon fill="#e2e1ec" points="1260.915 538.313 1243.778 538.313 1245.382 531.879 1262.519 531.879"></polygon><polygon fill="#515696" points="1314.796 538.313 1276.774 538.313 1278.378 531.879 1316.401 531.879"></polygon><polygon fill="#32684d" points="1379.228 538.313 1329.593 538.313 1331.197 531.879 1380.832 531.879"></polygon><polygon fill="#f17255" points="1285.583 564.052 1237.361 564.052 1238.965 557.617 1287.188 557.617"></polygon><polygon fill="#515696" points="1323.176 564.052 1300.967 564.052 1302.572 557.617 1324.78 557.617"></polygon><polygon fill="#32684d" points="1360.239 564.052 1347.993 564.052 1349.597 557.617 1361.843 557.617"></polygon><polygon fill="#f17255" points="1244.262 589.79 1230.943 589.79 1232.548 583.355 1245.866 583.355"></polygon><polygon fill="#515696" points="1273.442 589.79 1259.456 589.79 1261.06 583.355 1275.046 583.355"></polygon><polygon fill="#515696" points="1314.234 589.79 1289.573 589.79 1291.178 583.355 1315.838 583.355"></polygon><polygon fill="#f17255" points="1391.538 589.79 1337.656 589.79 1339.261 583.355 1393.142 583.355"></polygon><polygon fill="#515696" points="1260.031 615.528 1224.526 615.528 1226.13 609.093 1261.635 609.093"></polygon></g></g><g><path fill="#515696" d="M1384.36,327.877l-25.566,102.539c-0.913,3.661-4.603,6.634-8.288,6.634H1160
				c-3.686,0-5.918-2.973-5.005-6.634l25.566-102.539H1384.36z"></path><path fill="#e2e1ec" d="M1388.263,312.224l-3.903,15.653h-203.8l3.902-15.653c0.913-3.661,4.627-6.634,8.313-6.634
				h190.506C1386.968,305.59,1389.176,308.563,1388.263,312.224z"></path><path fill="#371d14" d="M1199.855,321.783c-0.374,0-0.743-0.17-0.984-0.491l-5.732-7.639
						c-0.408-0.544-0.298-1.313,0.246-1.721c0.544-0.408,1.315-0.297,1.719,0.244l5.732,7.639c0.408,0.544,0.298,1.314-0.246,1.721
						C1200.37,321.703,1200.112,321.783,1199.855,321.783z"></path><path fill="#371d14" d="M1192.218,321.783c-0.361,0-0.719-0.158-0.961-0.464c-0.423-0.529-0.338-1.301,0.192-1.724
						l9.541-7.639c0.53-0.423,1.301-0.343,1.727,0.192c0.423,0.528,0.338,1.301-0.192,1.724l-9.541,7.639
						C1192.757,321.693,1192.487,321.783,1192.218,321.783z"></path><polygon fill="#fff" points="1187.877 414.191 1173.454 414.191 1175.058 407.757 1189.481 407.757"></polygon><polygon fill="#fff" points="1193.492 391.671 1179.069 391.671 1180.673 385.236 1195.096 385.236"></polygon><polygon fill="#fff" points="1199.107 369.15 1184.684 369.15 1186.289 362.715 1200.711 362.715"></polygon><polygon fill="#fff" points="1204.722 346.629 1190.299 346.629 1191.904 340.195 1206.326 340.195"></polygon><polygon fill="#f17255" points="1259.359 346.629 1221.163 346.629 1222.768 340.195 1260.963 340.195"></polygon><polygon fill="#f17255" points="1281.956 369.15 1215.548 369.15 1217.153 362.715 1283.561 362.715"></polygon><polygon fill="#f17255" points="1226.21 391.671 1209.933 391.671 1211.537 385.236 1227.814 385.236"></polygon><polygon fill="#f17255" points="1310.477 414.191 1204.318 414.191 1205.922 407.757 1312.081 407.757"></polygon></g><g><path fill="#f17255" d="M1336.272,232.045l-7.669,30.757c-0.658,2.638-3.343,4.761-5.981,4.761h-199.856
			c-2.638,0-4.264-2.124-3.607-4.761l7.669-30.757H1336.272z"></path><path fill="#e2e1ec" d="M1339.272,220.012l-3,12.033h-209.444l3-12.033c0.658-2.638,3.343-4.762,5.981-4.762h199.856
			C1338.303,215.251,1339.93,217.374,1339.272,220.012z"></path><polygon fill="#fff" points="1256.66 250.067 1197.453 250.067 1199.057 243.633 1258.264 243.633"></polygon></g><g><path fill="#f1b055" d="M884.459,229.954l-11.334,45.46c-0.666,2.67-3.359,4.826-6.029,4.826h-66.082
					c-2.671,0-4.289-2.156-3.623-4.826l11.334-45.46c0.666-2.67,3.359-4.826,6.029-4.826h66.083
					C883.507,225.128,885.125,227.283,884.459,229.954z"></path><path fill="#e2e1ec" d="M884.459,229.954l-1.925,7.721H806.8l1.925-7.721c0.666-2.67,3.359-4.826,6.029-4.826h66.083
					C883.507,225.128,885.125,227.283,884.459,229.954z"></path><polygon fill="#fff" points="850.65 251.415 831.832 251.415 833.436 244.981 852.254 244.981"></polygon><polygon fill="#fff" points="862.113 264.768 813.88 264.768 815.485 258.334 863.717 258.334"></polygon></g><g><path fill="#f17255" d="M876.21,306.299l-11.816,47.391c-0.642,2.574-3.222,4.665-5.796,4.665H698.379
			c-2.574,0-4.111-2.091-3.47-4.665l11.816-47.391c0.642-2.574,3.214-4.633,5.788-4.633h160.219
			C875.306,301.666,876.852,303.725,876.21,306.299z"></path><path fill="#e2e1ec" d="M876.21,306.299l-2.944,11.807H703.781l2.944-11.807c0.642-2.574,3.214-4.633,5.788-4.633h160.219
			C875.306,301.666,876.852,303.725,876.21,306.299z"></path><polygon fill="#fff" points="837.142 338.127 729.922 338.127 731.526 331.693 838.747 331.693"></polygon></g><g><path fill="#96bd79" d="M864.488,398.218l-18.867,75.67c-1.115,4.472-5.617,8.075-10.089,8.075H591.375
			c-4.472,0-7.177-3.603-6.062-8.075l18.867-75.67H864.488z"></path><polygon fill="#32684d" points="648.135 464.462 629.88 464.462 643.314 410.576 663.023 410.576 663.023 412.986 645.2 412.986 632.967 462.052 648.135 462.052"></polygon><rect width="34.599" height="2.41" x="637.973" y="435.782" fill="#32684d"></rect><polygon fill="#32684d" points="647.055 463.547 644.713 462.966 651.262 436.697 653.605 437.278"></polygon><path fill="#e2e1ec" d="M868.98,380.202l-4.492,18.016H604.18l4.492-18.016c1.115-4.472,5.617-8.075,10.089-8.075h244.158
			C867.39,372.126,870.095,375.729,868.98,380.202z"></path><path fill="#371d14" d="M626.173,392.653c-0.49,0-0.972-0.223-1.289-0.643l-7.506-10
					c-0.533-0.711-0.389-1.721,0.322-2.253c0.712-0.538,1.721-0.386,2.253,0.318l7.506,10c0.533,0.711,0.389,1.721-0.321,2.253
					C626.849,392.548,626.509,392.653,626.173,392.653z"></path><path fill="#371d14" d="M616.175,392.653c-0.473,0-0.939-0.207-1.258-0.606c-0.555-0.692-0.443-1.706,0.25-2.259
					l12.492-10c0.698-0.556,1.709-0.442,2.262,0.25c0.555,0.692,0.443,1.706-0.25,2.259l-12.492,10
					C616.883,392.535,616.527,392.653,616.175,392.653z"></path><polygon fill="#fff" points="621.421 466.474 610.346 466.474 611.95 460.039 623.025 460.039"></polygon><polygon fill="#fff" points="627.838 440.736 616.763 440.736 618.367 434.301 629.443 434.301"></polygon><polygon fill="#fff" points="634.256 414.997 623.18 414.997 624.785 408.563 635.86 408.563"></polygon><polygon fill="#515696" points="680.067 414.997 654.393 414.997 655.997 408.563 681.671 408.563"></polygon><polygon fill="#515696" points="719.334 414.997 692.653 414.997 694.257 408.563 720.938 408.563"></polygon><polygon fill="#515696" points="790.077 414.997 738.967 414.997 740.572 408.563 791.682 408.563"></polygon><polygon fill="#e2e1ec" points="815.892 414.997 808.672 414.997 810.277 408.563 817.497 408.563"></polygon><polygon fill="#e2e1ec" points="655.156 440.205 648.108 440.205 649.713 433.77 656.76 433.77"></polygon><polygon fill="#e2e1ec" points="677.307 440.205 666.231 440.205 667.835 433.77 678.911 433.77"></polygon><polygon fill="#515696" points="699.709 440.205 686.368 440.205 687.972 433.77 701.313 433.77"></polygon><polygon fill="#515696" points="732.682 440.205 710.03 440.205 711.634 433.77 734.287 433.77"></polygon><polygon fill="#e2e1ec" points="770.942 440.205 753.827 440.205 755.431 433.77 772.547 433.77"></polygon><polygon fill="#515696" points="822.341 440.205 787.751 440.205 789.355 433.77 823.946 433.77"></polygon><polygon fill="#f17255" points="654.396 466.474 641.559 466.474 643.163 460.039 656.001 460.039"></polygon><polygon fill="#515696" points="670.795 466.474 672.324 460.039 698.58 459.728 697.051 466.163"></polygon><polygon fill="#e2e1ec" points="733.762 466.163 714.884 466.163 716.488 459.728 735.366 459.728"></polygon><polygon fill="#f17255" points="762.456 466.163 742.823 466.163 744.427 459.728 764.06 459.728"></polygon><polygon fill="#515696" points="829.934 466.163 769.594 466.163 771.199 459.728 831.538 459.728"></polygon></g><path fill="#32684d" d="M310.11,1013.075h570.226c0,0-13.206-61.773-53.519-77.225
		c-40.313-15.453-304.144-92.446-304.144-92.446L346.743,960.073L310.11,1013.075z"></path><path fill="#371d14" d="M557.72,864.263c0,0-4.517,24.627,0,37.603c4.517,12.977,56.476,19.096,141.745-6.098
		S557.72,864.263,557.72,864.263L557.72,864.263z"></path><path fill="#bc6842" d="M625.795,498.246l-61.121,84.041l57.648,16.669l32.644-73.623c0,0,13.197,15.975,31.95,7.64
		c18.753-8.335,5.3-46.697,5.3-46.697l8.591-6.09l-17.364-13.891l-15.975-33.339l-34.728,11.807L625.795,498.246z"></path><path fill="#371d14" d="M575.587,455.613c0,0-11.316,6.366-7.78,15.56c3.536,9.195,14.146,16.268,16.268,24.048
		c2.122,7.78,16.18,15.239,20.511,20.736c4.331,5.497,14.853,6.848,20.511,3.311c5.658-3.536,16.268-2.829,15.56-17.682
		c-0.707-14.853-0.707-31.121,9.195-25.462c6,3.429,11.741,7.217,15.333,9.669c1.984,1.355,4.707,0.597,5.721-1.582l0,0
		c0.593-1.274,0.473-2.767-0.317-3.929l-10.73-15.796c-1.708-2.514-2.089-5.701-1.021-8.547l3.055-8.147
		c0.798-2.129,2.745-3.587,5.009-3.799c2.841-0.266,6.693-1.029,9.051-3.151c4.09-3.682,6.545-23.316-2.045-27.816
		c-8.59-4.499-5.318-14.726-16.771-15.544c-11.453-0.818-13.499,5.318-22.498,7.363s-22.498-1.636-27.816,4.5
		c-5.318,6.136-3.272,13.09-13.499,17.18C583.097,430.617,573.803,437.25,575.587,455.613z"></path><path fill="#371d14" d="M675.925 463.293c.333 3.606-.438 6.625-1.721 6.744-1.283.119-2.594-2.709-2.927-6.315-.333-3.606.437-6.625 1.721-6.744C674.282 456.859 675.592 459.687 675.925 463.293zM663.031 453.447c.915-.922 1.833-1.618 2.843-2.295 1.002-.661 2.052-1.255 3.15-1.759 2.192-1.009 4.547-1.705 6.964-2.084 1.043-.166 2.024.545 2.19 1.589.166 1.044-.545 2.024-1.589 2.19-.088.014-.19.022-.276.024-2.104.027-4.221.328-6.271.934-1.026.302-2.027.692-3 1.149-.957.451-1.942 1.016-2.724 1.603l-.067.05c-.411.309-.995.225-1.304-.186C662.666 454.287 662.71 453.77 663.031 453.447z"></path><g><path fill="#bc6842" d="M638.848,486.144c4.335,9.358,12.656,14.718,18.585,11.971c5.93-2.746,7.222-12.559,2.887-21.918
			c-4.335-9.358-12.656-14.718-18.585-11.972C635.805,466.973,634.513,476.786,638.848,486.144z"></path><path fill="#371d14" d="M651.142,490.496c-0.346,0-0.68-0.195-0.841-0.528c-5.394-11.202,1.608-16.668,1.679-16.724
				c0.409-0.309,0.997-0.232,1.307,0.182c0.309,0.411,0.229,0.992-0.179,1.304l0,0c-0.24,0.185-5.833,4.654-1.126,14.428
				c0.224,0.464,0.028,1.023-0.436,1.245C651.417,490.466,651.278,490.496,651.142,490.496z"></path></g><rect width="966.412" height="10.382" x="499.389" y="833.023" fill="#515696"></rect><path fill="#bc6842" d="M767.924,812.418c1.405,0,33.714-2.341,42.611-20.603c8.402-17.247,19.728-39.088,53.7-42.252
		c4.015-0.374,8.071,0.174,11.898,1.446c1.46,0.485,2.966,1.005,4.203,1.472c3.715,1.405,7.461-1.873,20.104,1.873
		c0,0,16.857-1.873,14.516,5.151c-2.341,7.024-25.286,6.087-36.992,21.306c-11.706,15.218-29.032,61.576-86.627,68.131
		C733.741,855.497,767.924,812.418,767.924,812.418z"></path><g><path fill="#371d14" d="M857.172,783.607c-0.307,0-0.62-0.087-0.895-0.272c-0.737-0.495-0.935-1.493-0.44-2.231
			c0.623-0.927,15.571-22.805,44.299-28.331c0.888-0.179,1.717,0.405,1.883,1.276c0.168,0.871-0.403,1.715-1.275,1.882
			c-27.371,5.266-42.089,26.748-42.236,26.965C858.198,783.36,857.69,783.607,857.172,783.607z"></path></g><g><path fill="#371d14" d="M846.695,773.549c-0.345,0-0.691-0.108-0.984-0.337c-0.701-0.544-0.83-1.551-0.286-2.256
			c0.504-0.649,12.588-15.985,34.619-20.058c0.878-0.154,1.714,0.417,1.874,1.289c0.16,0.875-0.416,1.715-1.29,1.876
			c-20.781,3.841-32.544,18.717-32.66,18.865C847.65,773.336,847.175,773.549,846.695,773.549z"></path></g><path fill="#cecdd8" d="M564.674,557.232l16.442-8.028l6.332-11.421c0,0,46.135,13.569,54.277,37.089l-26.234,24.085
		L564.674,557.232z"></path><path fill="#e2e1ec" d="M327.245,935.715c0,0,134.447,5.914,233.509-60.62c0,0,5.914,25.27,42.877,30.377
		c36.963,5.107,172.988-20.028,196.645-45.163c0,0,10.35-50.27-8.871-76.884c0,0-65.055,4.204-118.283,8.016
		c0,0,34.006-136.648,10.35-170.655c-23.657-34.006-104.757-83.535-171.202-68.971c-71.17,15.6-180.689,50.18-208.781,193.383
		C275.397,888.402,327.245,935.715,327.245,935.715z"></path><g><path fill="#371d14" d="M639.526,826.712c-0.411,0-0.822-0.158-1.137-0.473c-0.627-0.627-0.629-1.644-0.002-2.274
			l33.596-33.658c0.626-0.627,1.644-0.634,2.276,0c0.627,0.627,0.629,1.644,0.002,2.274l-33.596,33.658
			C640.351,826.554,639.938,826.712,639.526,826.712z"></path></g><g><path fill="#371d14" d="M560.753,876.705c-0.683,0-1.316-0.439-1.534-1.125c-22.3-70.576-11.829-215.742-11.721-217.201
			c0.067-0.884,0.861-1.533,1.723-1.483c0.887,0.065,1.551,0.837,1.485,1.724c-0.108,1.449-10.533,146.004,11.582,215.99
			c0.267,0.847-0.202,1.752-1.049,2.018C561.076,876.68,560.914,876.705,560.753,876.705z"></path></g><g><polygon fill="#f1b055" points="469.02 1013.075 257.598 1013.075 185.469 673.734 396.891 673.734"></polygon><polygon fill="#f17255" points="458.024 1013.075 246.602 1013.075 174.473 673.734 385.895 673.734"></polygon></g></svg>