<svg xmlns="http://www.w3.org/2000/svg" xmlns:xlink="http://www.w3.org/1999/xlink" viewBox="0 0 800 600" id="messaging-service"><defs><linearGradient id="k" x1="274.38" x2="353.62" y1="436.1" y2="490.02" gradientUnits="userSpaceOnUse"><stop offset="0" stop-color="#58d0d1"></stop><stop offset=".29" stop-color="#56cdcf"></stop><stop offset=".47" stop-color="#51c5c8"></stop><stop offset=".62" stop-color="#49b6bc"></stop><stop offset=".76" stop-color="#3ca2ac"></stop><stop offset=".88" stop-color="#2d8797"></stop><stop offset="1" stop-color="#19677d"></stop><stop offset="1" stop-color="#19667c"></stop></linearGradient><linearGradient id="c" x1="-4803.06" x2="-4757.23" y1="512.63" y2="512.63" gradientTransform="translate(4841.79 -166.34)" gradientUnits="userSpaceOnUse"><stop offset="0" stop-color="#ffcb50"></stop><stop offset="1" stop-color="#ef7518"></stop></linearGradient><linearGradient id="l" x1="363.27" x2="456.75" y1="399.06" y2="479.33" gradientTransform="matrix(-1 0 0 1 960.48 0)" gradientUnits="userSpaceOnUse"><stop offset="0" stop-color="#6e4db9"></stop><stop offset=".45" stop-color="#6b4bb7"></stop><stop offset=".73" stop-color="#6344b0"></stop><stop offset=".96" stop-color="#5438a5"></stop><stop offset="1" stop-color="#5135a2"></stop></linearGradient><linearGradient id="a" x1="-557.35" x2="-596.13" y1="771.43" y2="965.58" gradientTransform="matrix(-1.25 .51 .22 .84 -745.42 -107.26)" gradientUnits="userSpaceOnUse"><stop offset="0" stop-color="#194659"></stop><stop offset="1" stop-color="#35a9a0"></stop></linearGradient><linearGradient id="n" x1="-932.02" x2="-838.3" y1="338.94" y2="317.11" gradientTransform="matrix(-1.02 -.04 .04 1.09 -776.62 -77)" xlink:href="#a"></linearGradient><linearGradient id="o" x1="-859.13" x2="-897.91" y1="345.65" y2="539.8" gradientTransform="matrix(-1 -.04 -.04 1 -651.85 -184.19)" xlink:href="#a"></linearGradient><linearGradient id="p" x1="-888" x2="-869.9" y1="527.55" y2="357.18" gradientTransform="matrix(-1 -.04 -.04 1 -651.85 -184.19)" xlink:href="#a"></linearGradient><linearGradient id="b" x1="2210.61" x2="2338.29" y1="430.79" y2="430.79" gradientTransform="matrix(-1 0 0 1 2472.96 0)" gradientUnits="userSpaceOnUse"><stop offset="0" stop-color="#a1cbd5"></stop><stop offset="1" stop-color="#fff"></stop></linearGradient><linearGradient id="q" x1="2225.03" x2="2225.03" y1="481.17" y2="396.44" xlink:href="#b"></linearGradient><linearGradient id="r" x1="236.98" x2="236.98" y1="428.78" y2="449.29" xlink:href="#c"></linearGradient><linearGradient id="d" x1="237.38" x2="276.38" y1="456.25" y2="456.25" gradientUnits="userSpaceOnUse"><stop offset="0" stop-color="#ef7518"></stop><stop offset=".23" stop-color="#f4902a"></stop><stop offset=".55" stop-color="#fab03e"></stop><stop offset=".82" stop-color="#fec44b"></stop><stop offset="1" stop-color="#ffcb50"></stop></linearGradient><linearGradient id="e" x1="231.01" x2="192.16" y1="456.25" y2="456.25" gradientUnits="userSpaceOnUse"><stop offset="0" stop-color="#ef7518"></stop><stop offset="1" stop-color="#ffcb50"></stop></linearGradient><linearGradient id="t" x1="216.48" x2="216.48" y1="398.76" y2="419.27" xlink:href="#c"></linearGradient><linearGradient id="u" x1="216.88" x2="255.88" y1="426.24" y2="426.24" xlink:href="#d"></linearGradient><linearGradient id="v" x1="210.51" x2="171.66" y1="426.24" y2="426.24" xlink:href="#e"></linearGradient><linearGradient id="x" x1="195.98" x2="195.98" y1="428.78" y2="449.29" xlink:href="#c"></linearGradient><linearGradient id="y" x1="196.38" x2="235.38" y1="456.25" y2="456.25" xlink:href="#d"></linearGradient><linearGradient id="z" x1="190.01" x2="151.16" y1="456.25" y2="456.25" xlink:href="#e"></linearGradient><linearGradient id="B" x1="175.48" x2="175.48" y1="428.78" y2="449.29" xlink:href="#c"></linearGradient><linearGradient id="C" x1="175.88" x2="214.88" y1="456.25" y2="456.25" xlink:href="#d"></linearGradient><linearGradient id="D" x1="169.51" x2="130.66" y1="456.25" y2="456.25" xlink:href="#e"></linearGradient><linearGradient id="f" x1="106.74" x2="155.13" y1="426.24" y2="426.24" gradientTransform="rotate(1.69 130.71 424.97)" gradientUnits="userSpaceOnUse"><stop offset="0" stop-color="#ff7b66"></stop><stop offset="1" stop-color="#b30d00"></stop></linearGradient><linearGradient id="F" x1="3766.09" x2="3728.03" y1="-156.19" y2="34.41" gradientTransform="translate(-3120.24 539.81)" xlink:href="#a"></linearGradient><linearGradient id="G" x1="3737.75" x2="3755.52" y1="22.38" y2="-144.87" gradientTransform="translate(-3120.24 539.81)" xlink:href="#a"></linearGradient><linearGradient id="H" x1="3676.98" x2="3661.67" y1="-31.76" y2="44.88" gradientTransform="matrix(-.97 .22 .22 .97 4166.13 -376.28)" xlink:href="#a"></linearGradient><linearGradient id="I" x1="3665.58" x2="3672.73" y1="40.04" y2="-27.21" gradientTransform="matrix(-.97 .22 .22 .97 4166.13 -376.28)" xlink:href="#a"></linearGradient><linearGradient id="J" x1="603.72" x2="602.51" y1="311.56" y2="384" xlink:href="#f"></linearGradient><linearGradient id="K" x1="958.35" x2="957.99" y1="484.49" y2="600.71" gradientTransform="rotate(90 902.45 329.26)" xlink:href="#f"></linearGradient><linearGradient id="g" x1="627.37" x2="696.53" y1="347.52" y2="347.52" gradientUnits="userSpaceOnUse"><stop offset="0" stop-color="#091c2a"></stop><stop offset="1" stop-color="#2f356b"></stop></linearGradient><linearGradient id="M" x1="680.64" x2="680.64" y1="348.27" y2="360.34" xlink:href="#c"></linearGradient><linearGradient id="N" x1="680.88" x2="703.83" y1="364.44" y2="364.44" xlink:href="#d"></linearGradient><linearGradient id="O" x1="677.13" x2="654.27" y1="364.44" y2="364.44" xlink:href="#e"></linearGradient><linearGradient id="Q" x1="671.63" x2="671.63" y1="348.27" y2="360.34" xlink:href="#c"></linearGradient><linearGradient id="R" x1="671.86" x2="694.81" y1="364.44" y2="364.44" xlink:href="#d"></linearGradient><linearGradient id="S" x1="668.11" x2="645.25" y1="364.44" y2="364.44" xlink:href="#e"></linearGradient><linearGradient id="U" x1="662.61" x2="662.61" y1="335.49" y2="347.56" xlink:href="#c"></linearGradient><linearGradient id="V" x1="662.84" x2="685.79" y1="351.66" y2="351.66" xlink:href="#d"></linearGradient><linearGradient id="W" x1="659.09" x2="636.23" y1="351.66" y2="351.66" xlink:href="#e"></linearGradient><linearGradient id="Y" x1="636.91" x2="636.91" y1="348.27" y2="360.34" xlink:href="#c"></linearGradient><linearGradient id="Z" x1="637.14" x2="660.09" y1="364.44" y2="364.44" xlink:href="#d"></linearGradient><linearGradient id="aa" x1="633.39" x2="610.53" y1="364.44" y2="364.44" xlink:href="#e"></linearGradient><linearGradient id="ac" x1="3711.81" x2="3690.17" y1="-51.83" y2="56.53" gradientTransform="matrix(.86 .5 -.5 .86 -2552.87 -1419.61)" xlink:href="#a"></linearGradient><linearGradient id="ad" x1="3695.7" x2="3705.8" y1="49.7" y2="-45.4" gradientTransform="matrix(.86 .5 -.5 .86 -2552.87 -1419.61)" xlink:href="#a"></linearGradient><linearGradient id="h" x1="383.35" x2="383.35" y1="441.96" y2="475.1" gradientTransform="matrix(1 0 .03 1 -33.97 0)" gradientUnits="userSpaceOnUse"><stop offset="0" stop-color="#d7d9de"></stop><stop offset="1" stop-color="#fff"></stop></linearGradient><linearGradient id="ae" x1="417.54" x2="417.54" y1="214.7" y2="407.63" gradientTransform="matrix(1 0 .03 1 -33.97 0)" xlink:href="#g"></linearGradient><linearGradient id="af" x1="344.06" x2="376.16" y1="251.88" y2="251.88" xlink:href="#f"></linearGradient><linearGradient id="ag" x1="350.09" x2="361.28" y1="390.64" y2="385.83" xlink:href="#f"></linearGradient><linearGradient id="ah" x1="371.42" x2="371.42" y1="370.44" y2="319.81" xlink:href="#f"></linearGradient><linearGradient id="ai" x1="407.32" x2="410.93" y1="408.99" y2="392.36" xlink:href="#f"></linearGradient><linearGradient id="aj" x1="403.77" x2="413.19" y1="238.64" y2="260.68" xlink:href="#f"></linearGradient><linearGradient id="ak" x1="459.05" x2="459.05" y1="255.93" y2="364.19" xlink:href="#f"></linearGradient><linearGradient id="al" x1="337.17" x2="441.94" y1="269.58" y2="374.35" xlink:href="#c"></linearGradient><linearGradient id="am" x1="398.78" x2="391.56" y1="209.04" y2="429.08" gradientUnits="userSpaceOnUse"><stop offset="0"></stop><stop offset="1" stop-color="#20b6f8"></stop></linearGradient><linearGradient id="ao" x1="347.75" x2="348.35" y1="328.78" y2="365.42" xlink:href="#b"></linearGradient><linearGradient id="i" x1="315.79" x2="388.25" y1="328.41" y2="309.85" gradientUnits="userSpaceOnUse"><stop offset="0" stop-color="#20b6f8"></stop><stop offset="1" stop-color="#00588a"></stop></linearGradient><linearGradient id="ap" x1="539.18" x2="539.3" y1="440.08" y2="463.58" xlink:href="#c"></linearGradient><linearGradient id="aq" x1="532.73" x2="532.73" y1="408.76" y2="435.89" xlink:href="#h"></linearGradient><linearGradient id="ar" x1="509.01" x2="553.19" y1="439.43" y2="483.6" xlink:href="#c"></linearGradient><linearGradient id="as" x1="214.45" x2="219.26" y1="168.93" y2="161.72" xlink:href="#b"></linearGradient><linearGradient id="at" x1="222.2" x2="218.17" y1="151.93" y2="155.03" xlink:href="#i"></linearGradient><linearGradient id="au" x1="477.26" x2="477.26" y1="152.14" y2="103.93" xlink:href="#j"></linearGradient><linearGradient id="av" x1="477.25" x2="477.25" y1="152.14" y2="103.93" xlink:href="#j"></linearGradient><linearGradient id="aw" x1="470.65" x2="470.65" y1="152.13" y2="103.93" xlink:href="#j"></linearGradient><linearGradient id="ax" x1="477.26" x2="477.26" y1="152.14" y2="103.93" xlink:href="#j"></linearGradient><linearGradient id="ay" x1="483.59" x2="483.59" y1="152.13" y2="103.93" xlink:href="#j"></linearGradient><linearGradient id="az" x1="332.78" x2="332.78" y1="132.7" y2="157.09" gradientUnits="userSpaceOnUse"><stop offset="0" stop-color="#a5b8ff"></stop><stop offset=".69" stop-color="#e2e8ff"></stop><stop offset="1" stop-color="#fff"></stop></linearGradient><linearGradient id="aA" x1="296.01" x2="368.83" y1="158.26" y2="158.26" xlink:href="#c"></linearGradient><linearGradient id="aB" x1="296.01" x2="368.83" y1="158.26" y2="158.26" xlink:href="#c"></linearGradient><linearGradient id="aC" x1="296.01" x2="368.83" y1="158.26" y2="158.26" xlink:href="#c"></linearGradient><linearGradient id="aD" x1="296.01" x2="368.83" y1="158.26" y2="158.26" xlink:href="#c"></linearGradient><linearGradient id="aE" x1="296.01" x2="368.83" y1="158.26" y2="158.26" xlink:href="#c"></linearGradient><radialGradient id="j" cx="396.27" cy="-1676.95" r="463.21" gradientTransform="matrix(.75 0 0 .76 101.39 1780.25)" gradientUnits="userSpaceOnUse"><stop offset="0" stop-color="#9693cf"></stop><stop offset="1" stop-color="#fff"></stop></radialGradient><radialGradient id="m" cx="395.05" cy="-341.33" r="377.07" gradientTransform="matrix(.75 0 0 .03 101.39 498.87)" xlink:href="#j"></radialGradient><radialGradient id="s" cx="235.95" cy="460.2" r="42.04" xlink:href="#e"></radialGradient><radialGradient id="w" cx="215.45" cy="430.19" r="42.04" xlink:href="#e"></radialGradient><radialGradient id="A" cx="194.95" cy="460.2" r="42.04" xlink:href="#e"></radialGradient><radialGradient id="E" cx="174.45" cy="460.2" r="42.04" xlink:href="#e"></radialGradient><radialGradient id="P" cx="680.04" cy="366.76" r="24.74" xlink:href="#e"></radialGradient><radialGradient id="T" cx="671.02" cy="366.76" r="24.74" xlink:href="#e"></radialGradient><radialGradient id="X" cx="662" cy="353.99" r="24.74" xlink:href="#e"></radialGradient><radialGradient id="ab" cx="636.3" cy="366.76" r="24.74" xlink:href="#e"></radialGradient><clipPath id="L"><path fill="none" d="M711.28 382.1h-83.91v-34.57A34.58 34.58 0 0 1 662 313c19.1 0 49.33 22.47 49.33 22.47Z"></path></clipPath><clipPath id="an"><path fill="none" d="M436.86 333.91a52.81 52.81 0 0 1-14.23 26.46 45.6 45.6 0 0 1-25.08 13.36 46.92 46.92 0 0 1-28.62-12.12C361.2 354.54 206.3 339 206.3 339s117.92-70 183.7-70c12.12 0 26.32 6.81 34.8 16.75 11.2 12.98 15.67 30.59 12.06 48.16Z"></path></clipPath></defs><g data-name="Layer 1"><path d="M744.44 487.33c-8.65-186.72-147.36-335.42-347-335.42s-338.35 148.7-347 335.42Z" style="mix-blend-mode:multiply" fill="url(#j)"></path><path fill="#166177" d="M371.32 485.57v-39.69a10.81 10.81 0 0 0-10.81-10.82H281.1a10.81 10.81 0 0 0-10.81 10.82v39.69Z"></path><path fill="url(#k)" d="M364.22 485.57v-39.69a10.81 10.81 0 0 0-10.81-10.82H274a10.81 10.81 0 0 0-10.81 10.82v39.69Z"></path><path fill="#00dfe0" d="M364.22 450.48c-2.25 0-3.37-1.61-4.37-3s-1.77-2.52-3.4-2.52-2.45 1.14-3.45 2.49-2.12 3-4.37 3-3.37-1.61-4.36-3-1.77-2.52-3.41-2.52-2.45 1.17-3.4 2.52-2.12 3-4.37 3-3.37-1.61-4.37-3-1.76-2.52-3.4-2.52-2.45 1.17-3.4 2.52-2.12 3-4.37 3-3.38-1.61-4.37-3-1.77-2.52-3.4-2.52-2.46 1.17-3.41 2.52-2.11 3-4.36 3-3.38-1.61-4.37-3-1.77-2.52-3.4-2.52-2.46 1.17-3.41 2.52-2.11 3-4.36 3-3.38-1.61-4.37-3-1.77-2.52-3.4-2.52-2.46 1.17-3.41 2.52-2.11 3-4.36 3-3.38-1.61-4.37-3-1.77-2.52-3.4-2.52v-1.18c2.25 0 3.37 1.61 4.37 3s1.76 2.53 3.4 2.53 2.45-1.18 3.4-2.53 2.12-3 4.37-3 3.37 1.61 4.36 3 1.77 2.53 3.41 2.53 2.45-1.18 3.4-2.53 2.12-3 4.37-3 3.37 1.61 4.36 3 1.77 2.53 3.41 2.53 2.45-1.18 3.4-2.53 2.12-3 4.37-3 3.37 1.61 4.37 3 1.76 2.53 3.4 2.53 2.45-1.18 3.4-2.53 2.12-3 4.37-3 3.37 1.61 4.37 3 1.76 2.53 3.4 2.53 2.46-1.18 3.4-2.53 2.12-3 4.37-3 3.38 1.61 4.37 3 1.77 2.53 3.4 2.53 2.46-1.18 3.41-2.53 2.12-3 4.37-3 3.37 1.61 4.37 3 1.77 2.53 3.4 2.53ZM364.22 461c-2.25 0-3.37-1.61-4.37-3s-1.77-2.53-3.4-2.53S354 456.63 353 458s-2.12 3-4.37 3-3.37-1.61-4.36-3-1.77-2.53-3.41-2.53-2.45 1.17-3.4 2.53-2.12 3-4.37 3-3.37-1.61-4.37-3-1.76-2.53-3.4-2.53-2.45 1.17-3.4 2.53-2.12 3-4.37 3-3.38-1.61-4.37-3-1.77-2.53-3.4-2.53-2.46 1.17-3.41 2.53-2.11 3-4.36 3-3.38-1.61-4.37-3-1.77-2.53-3.4-2.53-2.46 1.17-3.41 2.53-2.11 3-4.36 3-3.38-1.61-4.37-3-1.77-2.53-3.4-2.53-2.46 1.17-3.41 2.53-2.11 3-4.36 3-3.38-1.61-4.37-3-1.77-2.53-3.4-2.53v-1.18c2.25 0 3.37 1.61 4.37 3s1.76 2.53 3.4 2.53 2.45-1.17 3.4-2.53 2.12-3 4.37-3 3.37 1.61 4.36 3 1.77 2.53 3.41 2.53 2.45-1.17 3.4-2.53 2.12-3 4.37-3 3.37 1.61 4.36 3 1.77 2.53 3.41 2.53 2.45-1.17 3.4-2.53 2.12-3 4.37-3 3.37 1.61 4.37 3 1.76 2.53 3.4 2.53 2.45-1.17 3.4-2.53 2.12-3 4.37-3 3.37 1.61 4.37 3 1.76 2.53 3.4 2.53 2.46-1.17 3.4-2.53 2.12-3 4.37-3 3.38 1.61 4.37 3 1.77 2.53 3.4 2.53 2.46-1.17 3.41-2.53 2.12-3 4.37-3 3.37 1.61 4.37 3 1.77 2.53 3.4 2.53ZM364.22 471.55c-2.25 0-3.37-1.61-4.37-3s-1.77-2.53-3.4-2.53-2.46 1.17-3.41 2.53-2.12 3-4.37 3-3.37-1.61-4.36-3-1.77-2.55-3.41-2.55-2.45 1.17-3.4 2.53-2.12 3-4.37 3-3.37-1.61-4.37-3-1.76-2.53-3.4-2.53-2.45 1.17-3.4 2.53-2.12 3-4.37 3-3.38-1.61-4.37-3-1.77-2.53-3.4-2.53-2.46 1.17-3.4 2.53-2.12 3-4.37 3-3.38-1.61-4.37-3-1.77-2.53-3.4-2.53-2.46 1.17-3.41 2.53-2.11 3-4.36 3-3.38-1.61-4.37-3-1.77-2.53-3.4-2.53-2.46 1.17-3.41 2.53-2.11 3-4.36 3-3.38-1.61-4.37-3-1.77-2.53-3.4-2.53v-1.17c2.25 0 3.37 1.61 4.37 3s1.76 2.52 3.4 2.52 2.45-1.17 3.4-2.52 2.12-3 4.37-3 3.37 1.61 4.36 3 1.77 2.52 3.41 2.52 2.45-1.17 3.4-2.52 2.12-3 4.37-3 3.37 1.61 4.36 3 1.77 2.52 3.41 2.52 2.45-1.17 3.4-2.52 2.12-3 4.37-3 3.37 1.61 4.37 3 1.76 2.52 3.4 2.52 2.45-1.17 3.4-2.52 2.12-3 4.37-3 3.37 1.61 4.37 3 1.76 2.52 3.4 2.52 2.46-1.17 3.4-2.52 2.12-3 4.37-3 3.38 1.61 4.37 3 1.77 2.52 3.4 2.52 2.46-1.17 3.41-2.52 2.12-3 4.37-3 3.37 1.61 4.37 3 1.77 2.52 3.4 2.52ZM364.22 482.08c-2.25 0-3.37-1.6-4.37-3s-1.77-2.53-3.4-2.53-2.45 1.15-3.45 2.51-2.12 3-4.37 3-3.37-1.6-4.36-3-1.77-2.53-3.41-2.53-2.45 1.17-3.4 2.53-2.12 3-4.37 3-3.37-1.6-4.37-3-1.76-2.53-3.4-2.53-2.45 1.17-3.4 2.53-2.12 3-4.37 3-3.38-1.6-4.37-3-1.77-2.53-3.4-2.53-2.46 1.17-3.41 2.53-2.11 3-4.36 3-3.38-1.6-4.37-3-1.77-2.53-3.4-2.53-2.46 1.17-3.41 2.53-2.11 3-4.36 3-3.38-1.6-4.37-3-1.77-2.53-3.4-2.53-2.46 1.17-3.41 2.53-2.11 3-4.36 3-3.38-1.6-4.37-3-1.77-2.53-3.4-2.53v-1.18c2.25 0 3.37 1.61 4.37 3s1.76 2.53 3.4 2.53 2.45-1.17 3.4-2.53 2.12-3 4.37-3 3.37 1.61 4.36 3 1.77 2.53 3.41 2.53 2.45-1.17 3.4-2.53 2.12-3 4.37-3 3.37 1.61 4.36 3 1.77 2.53 3.41 2.53 2.45-1.17 3.4-2.53 2.12-3 4.37-3 3.37 1.61 4.37 3 1.76 2.53 3.4 2.53 2.45-1.17 3.4-2.53 2.12-3 4.37-3 3.37 1.61 4.37 3 1.76 2.53 3.4 2.53 2.46-1.17 3.4-2.53 2.12-3 4.37-3 3.38 1.61 4.37 3 1.77 2.53 3.4 2.53 2.46-1.17 3.41-2.53 2.12-3 4.37-3 3.37 1.61 4.37 3 1.77 2.53 3.4 2.53Z"></path><path fill="#fff" d="M129.75 256.16a2.83 2.83 0 0 1-.41 0 2.34 2.34 0 0 1-1.84-1.63l-3.16-10.3-9 5.86a2.36 2.36 0 0 1-3.64-2.1l.57-10.75-10.49 2.42a2.35 2.35 0 0 1-2.69-3.21l4.19-9.92-10.68-1.3a2.36 2.36 0 0 1-1.44-3.95l7.35-7.87-9.59-4.89a2.36 2.36 0 0 1 0-4.2l9.59-4.89-7.35-7.87a2.36 2.36 0 0 1 1.44-3.95l10.69-1.31-4.2-9.91a2.35 2.35 0 0 1 2.69-3.21l10.49 2.42-.57-10.75a2.36 2.36 0 0 1 3.64-2.1l9 5.86 3.16-10.3a2.35 2.35 0 0 1 4.13-.73l6.47 8.6 6.48-8.6a2.35 2.35 0 0 1 4.13.73l3.16 10.3 9-5.86a2.35 2.35 0 0 1 3.63 2.1l-.5 10.72 10.49-2.42a2.35 2.35 0 0 1 2.7 3.21l-4.2 9.91 10.69 1.31a2.36 2.36 0 0 1 1.44 3.95l-7.35 7.87 9.59 4.89a2.36 2.36 0 0 1 0 4.2l-9.59 4.89 7.35 7.87a2.36 2.36 0 0 1-1.44 3.95L173 226.5l4.2 9.92a2.35 2.35 0 0 1-2.7 3.21l-10.5-2.42.57 10.75a2.35 2.35 0 0 1-3.63 2.1l-9-5.86-3.16 10.3a2.34 2.34 0 0 1-1.84 1.63 2.38 2.38 0 0 1-2.29-.9l-6.48-8.61-6.47 8.61a2.37 2.37 0 0 1-1.95.93Zm-4.07-18a2.22 2.22 0 0 1 .8.15 2.34 2.34 0 0 1 1.45 1.52l2.72 8.86 5.57-7.41a2.35 2.35 0 0 1 3.76 0l5.58 7.41 2.72-8.86a2.36 2.36 0 0 1 3.53-1.29l7.78 5-.5-9.26a2.41 2.41 0 0 1 .84-1.93 2.38 2.38 0 0 1 2-.49l9 2.09-3.61-8.55a2.33 2.33 0 0 1 .13-2.09 2.36 2.36 0 0 1 1.75-1.16l9.2-1.13-6.33-6.77a2.36 2.36 0 0 1 .65-3.7l8.27-4.22-8.27-4.22a2.36 2.36 0 0 1-.65-3.7l6.33-6.78-9.2-1.12a2.36 2.36 0 0 1-1.88-3.26l3.61-8.54-9 2.09a2.35 2.35 0 0 1-2.88-2.42l.49-9.26-7.78 5a2.35 2.35 0 0 1-3.53-1.28l-2.72-8.86-5.51 7.51a2.37 2.37 0 0 1-3.76 0l-5.57-7.41-2.72 8.86a2.35 2.35 0 0 1-3.53 1.28l-7.78-5 .49 9.26a2.36 2.36 0 0 1-2.88 2.42l-9-2.09 3.62 8.54a2.36 2.36 0 0 1-1.88 3.26l-9.2 1.12 6.32 6.78a2.32 2.32 0 0 1 .6 2 2.36 2.36 0 0 1-1.25 1.69l-8.26 4.22 8.26 4.22a2.35 2.35 0 0 1 .65 3.7l-6.32 6.77 9.2 1.13a2.36 2.36 0 0 1 1.75 1.16 2.33 2.33 0 0 1 .13 2.09l-3.68 8.51 9-2.09a2.32 2.32 0 0 1 2 .49 2.35 2.35 0 0 1 .84 1.93l-.49 9.26 7.78-5a2.34 2.34 0 0 1 1.36-.42Z"></path><path fill="url(#c)" d="M38.73 325.93h45.83v40.72H38.73z" transform="rotate(180 61.645 346.29)"></path><path fill="#5d35a9" d="m145.03 389.49-8.18-8.46-8.18 8.46-8.18-8.46-8.18 8.46-8.18-8.46-8.18 8.46-8.18-8.46-8.18 8.46-8.18-8.46-8.19 8.46-8.18-8.46-7.76 8.02-.84-.82 8.6-8.9 8.18 8.46 8.19-8.46 8.18 8.46 8.18-8.46 8.18 8.46 8.18-8.46 8.18 8.46 8.18-8.46 8.18 8.46 8.18-8.46 8.18 8.46 8.18-8.46 8.6 8.9-.84.82-7.76-8.02-8.18 8.46zM145.03 374.96l-8.18-8.45-8.18 8.45-8.18-8.45-8.18 8.45-8.18-8.45-8.18 8.45-8.18-8.45-8.18 8.45-8.18-8.45-8.19 8.45-8.18-8.45-7.76 8.02-.84-.82 8.6-8.9 8.18 8.46 8.19-8.46 8.18 8.46 8.18-8.46 8.18 8.46 8.18-8.46 8.18 8.46 8.18-8.46 8.18 8.46 8.18-8.46 8.18 8.46 8.18-8.46 8.6 8.9-.84.82-7.76-8.02-8.18 8.45zM145.03 360.45l-8.18-8.46-8.18 8.46-8.18-8.46-8.18 8.46-8.18-8.46-8.18 8.46-8.18-8.46-8.18 8.46-8.18-8.46-8.19 8.46-8.18-8.46-7.76 8.02-.84-.82 8.6-8.89 8.18 8.45 8.19-8.45 8.18 8.45 8.18-8.45 8.18 8.45 8.18-8.45 8.18 8.45 8.18-8.45 8.18 8.45 8.18-8.45 8.18 8.45 8.18-8.45 8.6 8.89-.84.82-7.76-8.02-8.18 8.46zM145.03 345.93l-8.18-8.46-8.18 8.46-8.18-8.46-8.18 8.46-8.18-8.46-8.18 8.46-8.18-8.46-8.18 8.46-8.18-8.46-8.19 8.46-8.18-8.46-7.76 8.02-.84-.82 8.6-8.9 8.18 8.46 8.19-8.46 8.18 8.46 8.18-8.46 8.18 8.46 8.18-8.46 8.18 8.46 8.18-8.46 8.18 8.46 8.18-8.46 8.18 8.46 8.18-8.46 8.6 8.9-.84.82-7.76-8.02-8.18 8.46zM145.03 331.41l-8.18-8.46-8.18 8.46-8.18-8.46-8.18 8.46-8.18-8.46-8.18 8.46-8.18-8.46-8.18 8.46-8.18-8.46-8.19 8.46-8.18-8.46-7.76 8.02-.84-.82 8.6-8.89 8.18 8.45 8.19-8.45 8.18 8.45 8.18-8.45 8.18 8.45 8.18-8.45 8.18 8.45 8.18-8.45 8.18 8.45 8.18-8.45 8.18 8.45 8.18-8.45 8.6 8.89-.84.82-7.76-8.02-8.18 8.46zM145.03 316.89l-8.18-8.46-8.18 8.46-8.18-8.46-8.18 8.46-8.18-8.46-8.18 8.46-8.18-8.46-8.18 8.46-8.18-8.46-8.19 8.46-8.18-8.46-7.76 8.02-.84-.82 8.6-8.89 8.18 8.45 8.19-8.45 8.18 8.45 8.18-8.45 8.18 8.45 8.18-8.45 8.18 8.45 8.18-8.45 8.18 8.45 8.18-8.45 8.18 8.45 8.18-8.45 8.6 8.89-.84.82-7.76-8.02-8.18 8.46zM145.03 302.37l-8.18-8.46-8.18 8.46-8.18-8.46-8.18 8.46-8.18-8.46-8.18 8.46-8.18-8.46-8.18 8.46-8.18-8.46-8.19 8.46-8.18-8.46-7.76 8.02-.84-.82 8.6-8.89 8.18 8.45 8.19-8.45 8.18 8.45 8.18-8.45 8.18 8.45 8.18-8.45 8.18 8.45 8.18-8.45 8.18 8.45 8.18-8.45 8.18 8.45 8.18-8.45 8.6 8.89-.84.82-7.76-8.02-8.18 8.46z"></path><path fill="#45378a" d="M443.3 486.33v-65.67a17.88 17.88 0 0 1 17.88-17.89h131.37a17.89 17.89 0 0 1 17.88 17.89v65.67Z"></path><path fill="url(#l)" d="M455 486.33v-65.67a17.89 17.89 0 0 1 17.89-17.89h131.39a17.89 17.89 0 0 1 17.89 17.89v65.67Z"></path><path fill="#8e59de" d="M609.32 427.9c-3.52 0-5.25-2.47-6.91-4.85s-3-4.35-5.95-4.35-4.38 2.11-5.94 4.35-3.39 4.85-6.91 4.85-5.25-2.47-6.91-4.85-3-4.35-6-4.35-4.38 2.11-5.94 4.35-3.39 4.85-6.91 4.85-5.25-2.47-6.91-4.85-3-4.35-6-4.35-4.38 2.11-5.95 4.35-3.38 4.85-6.91 4.85-5.24-2.47-6.91-4.85-3-4.35-5.94-4.35-4.38 2.11-6 4.35-3.39 4.85-6.91 4.85-5.24-2.47-6.91-4.85-3-4.35-5.95-4.35-4.38 2.11-5.94 4.35-3.39 4.85-6.91 4.85-5.25-2.47-6.91-4.85-3-4.35-6-4.35-4.39 2.11-5.95 4.35-3.39 4.85-6.92 4.85v-1.18c2.91 0 4.39-2.11 6-4.35s3.39-4.85 6.92-4.85 5.24 2.47 6.91 4.85 3 4.35 5.95 4.35 4.38-2.11 5.94-4.35 3.39-4.85 6.91-4.85 5.25 2.47 6.92 4.85 3 4.35 5.94 4.35 4.39-2.11 5.95-4.35 3.39-4.85 6.91-4.85 5.24 2.47 6.91 4.85 3 4.35 5.94 4.35 4.39-2.11 6-4.35 3.39-4.85 6.91-4.85 5.25 2.47 6.91 4.85 3 4.35 5.95 4.35 4.38-2.11 5.94-4.35 3.39-4.85 6.91-4.85 5.25 2.47 6.91 4.85 3 4.35 6 4.35 4.38-2.11 5.94-4.35 3.39-4.85 6.91-4.85 5.25 2.47 6.91 4.85 3 4.35 6 4.35 4.38-2.11 5.94-4.35 3.39-4.85 6.91-4.85v1.18c-2.91 0-4.38 2.11-5.94 4.35s-3.39 4.85-6.91 4.85ZM609.32 445.32c-3.52 0-5.25-2.46-6.91-4.85-1.57-2.23-3-4.34-5.95-4.34s-4.38 2.11-5.94 4.34c-1.67 2.39-3.39 4.85-6.91 4.85s-5.25-2.46-6.91-4.84-3-4.35-6-4.35-4.38 2.11-5.94 4.34c-1.67 2.39-3.39 4.85-6.91 4.85s-5.25-2.46-6.91-4.85c-1.57-2.23-3-4.34-6-4.34s-4.38 2.11-5.95 4.34c-1.66 2.39-3.38 4.85-6.91 4.85s-5.24-2.46-6.91-4.85c-1.56-2.23-3-4.34-5.94-4.34s-4.38 2.11-6 4.34c-1.66 2.39-3.39 4.85-6.91 4.85s-5.24-2.46-6.91-4.85c-1.56-2.23-3-4.34-5.95-4.34s-4.38 2.11-5.94 4.34c-1.67 2.39-3.39 4.85-6.91 4.85s-5.25-2.46-6.91-4.84-3-4.35-6-4.35-4.39 2.11-5.95 4.34c-1.67 2.39-3.39 4.85-6.92 4.85v-1.17c2.91 0 4.39-2.11 6-4.35s3.39-4.85 6.92-4.85 5.24 2.47 6.91 4.85 3 4.35 5.95 4.35 4.38-2.11 5.94-4.35 3.39-4.85 6.91-4.85 5.25 2.47 6.92 4.85 3 4.35 5.94 4.35 4.39-2.11 5.95-4.35 3.39-4.85 6.91-4.85 5.24 2.47 6.91 4.85 3 4.35 5.94 4.35 4.39-2.11 6-4.35 3.49-4.8 6.97-4.8 5.25 2.47 6.91 4.85 3 4.35 5.95 4.35 4.38-2.11 5.94-4.35 3.39-4.85 6.91-4.85 5.25 2.47 6.91 4.85 3 4.35 6 4.35 4.38-2.11 5.94-4.35 3.39-4.85 6.91-4.85 5.25 2.47 6.91 4.85 3 4.35 6 4.35 4.38-2.11 5.94-4.35 3.39-4.85 6.91-4.85v1.18c-2.91 0-4.38 2.11-5.94 4.34-1.73 2.34-3.45 4.8-6.97 4.8ZM609.32 462.75c-3.52 0-5.25-2.46-6.91-4.85-1.57-2.23-3-4.34-5.95-4.34s-4.38 2.11-5.94 4.34c-1.67 2.39-3.39 4.85-6.91 4.85s-5.25-2.46-6.91-4.85c-1.56-2.23-3-4.34-6-4.34s-4.38 2.11-5.94 4.34c-1.67 2.39-3.39 4.85-6.91 4.85s-5.25-2.46-6.91-4.85c-1.57-2.23-3-4.34-6-4.34s-4.38 2.11-5.95 4.34c-1.66 2.39-3.38 4.85-6.91 4.85s-5.24-2.46-6.91-4.85c-1.56-2.23-3-4.34-5.94-4.34s-4.38 2.11-6 4.34c-1.66 2.39-3.39 4.85-6.91 4.85s-5.24-2.46-6.91-4.85c-1.56-2.23-3-4.34-5.95-4.34s-4.38 2.11-5.94 4.34c-1.67 2.39-3.39 4.85-6.91 4.85s-5.25-2.46-6.91-4.85c-1.57-2.23-3-4.34-6-4.34s-4.39 2.11-5.95 4.34c-1.67 2.39-3.39 4.85-6.92 4.85v-1.18c2.91 0 4.39-2.11 6-4.34 1.67-2.39 3.39-4.85 6.92-4.85s5.24 2.46 6.91 4.85c1.56 2.23 3 4.34 5.95 4.34s4.38-2.11 5.94-4.34c1.67-2.39 3.39-4.85 6.91-4.85s5.25 2.46 6.92 4.85c1.56 2.23 3 4.34 5.94 4.34s4.39-2.11 5.95-4.34c1.66-2.39 3.39-4.85 6.91-4.85s5.24 2.46 6.91 4.85c1.56 2.23 3 4.34 5.94 4.34s4.39-2.11 6-4.34c1.67-2.39 3.39-4.85 6.91-4.85s5.25 2.46 6.91 4.85c1.56 2.23 3 4.34 5.95 4.34s4.38-2.11 5.94-4.34c1.67-2.39 3.39-4.85 6.91-4.85s5.25 2.46 6.91 4.85c1.56 2.23 3 4.34 6 4.34s4.38-2.11 5.94-4.34c1.67-2.39 3.39-4.85 6.91-4.85s5.25 2.46 6.91 4.85c1.56 2.23 3 4.34 6 4.34s4.38-2.11 5.94-4.34c1.67-2.39 3.39-4.85 6.91-4.85v1.18c-2.91 0-4.38 2.11-5.94 4.34-1.67 2.39-3.39 4.85-6.91 4.85ZM609.32 480.18c-3.52 0-5.25-2.47-6.91-4.85-1.57-2.23-3-4.35-5.95-4.35s-4.38 2.12-5.94 4.35c-1.67 2.38-3.39 4.85-6.91 4.85s-5.25-2.47-6.91-4.85c-1.56-2.23-3-4.35-6-4.35s-4.38 2.12-5.94 4.35c-1.67 2.38-3.39 4.85-6.91 4.85s-5.25-2.47-6.91-4.85c-1.57-2.23-3-4.35-6-4.35s-4.38 2.12-5.95 4.35c-1.66 2.38-3.38 4.85-6.91 4.85s-5.24-2.47-6.91-4.85c-1.56-2.23-3-4.35-5.94-4.35s-4.38 2.12-6 4.35c-1.66 2.38-3.39 4.85-6.91 4.85s-5.24-2.47-6.91-4.85c-1.56-2.23-3-4.35-5.95-4.35s-4.38 2.12-5.94 4.35c-1.67 2.38-3.39 4.85-6.91 4.85s-5.25-2.47-6.91-4.85c-1.57-2.23-3-4.35-6-4.35s-4.39 2.12-5.95 4.35c-1.67 2.38-3.39 4.85-6.92 4.85V479c2.91 0 4.39-2.11 6-4.34 1.67-2.39 3.39-4.85 6.92-4.85s5.24 2.46 6.91 4.85c1.56 2.23 3 4.34 5.95 4.34s4.38-2.11 5.94-4.34c1.67-2.39 3.39-4.85 6.91-4.85s5.25 2.46 6.92 4.85c1.56 2.23 3 4.34 5.94 4.34s4.39-2.11 5.95-4.34c1.66-2.39 3.39-4.85 6.91-4.85s5.24 2.46 6.91 4.85c1.56 2.23 3 4.34 5.94 4.34s4.39-2.11 6-4.34c1.67-2.39 3.39-4.85 6.91-4.85s5.25 2.46 6.91 4.85c1.56 2.23 3 4.34 5.95 4.34s4.38-2.11 5.94-4.34c1.67-2.39 3.39-4.85 6.91-4.85s5.25 2.46 6.91 4.85c1.56 2.23 3 4.34 6 4.34s4.38-2.11 5.94-4.34c1.67-2.39 3.39-4.85 6.91-4.85s5.25 2.46 6.91 4.85c1.56 2.23 3 4.34 6 4.34s4.38-2.11 5.94-4.34c1.67-2.39 3.39-4.85 6.91-4.85V471c-2.91 0-4.38 2.12-5.94 4.35-1.67 2.36-3.39 4.83-6.91 4.83Z"></path><path fill="#fff" d="m480.61 205.63-.09.09a2 2 0 0 1-2.78-2.78l.09-.09a2 2 0 1 1 2.78 2.78ZM567.38 118.86l-.2.2a2 2 0 0 1-2.78-2.79l.2-.2a2 2 0 0 1 2.78 2.79Zm-14.46 14.46-.2.2a2 2 0 0 1-2.78-2.78l.2-.2a2 2 0 0 1 2.78 2.78Zm-14.46 14.46-.2.2a2 2 0 0 1-2.78-2.78l.2-.2a2 2 0 0 1 2.78 2.78ZM524 162.24l-.2.2a2 2 0 1 1-2.78-2.78l.19-.2a2 2 0 0 1 2.79 2.78Zm-14.46 14.47-.2.19a2 2 0 0 1-2.78-2.78l.19-.2a2 2 0 0 1 2.79 2.79Zm-14.46 14.46-.2.2a2 2 0 0 1-2.79-2.79l.2-.2a2 2 0 1 1 2.79 2.79ZM581.74 104.5l-.09.1a2 2 0 0 1-2.79-2.79l.1-.09a2 2 0 0 1 2.78 2.78ZM495.11 220.13l-.09.09a2 2 0 0 1-2.78-2.78l.09-.1a2 2 0 1 1 2.78 2.79ZM581.88 133.36l-.2.2a2 2 0 1 1-2.78-2.79l.2-.2a2 2 0 0 1 2.78 2.79Zm-14.46 14.46-.2.2a2 2 0 0 1-2.78-2.79l.2-.19a2 2 0 0 1 2.78 2.78ZM553 162.28l-.2.2a2 2 0 0 1-2.78-2.79l.2-.19a2 2 0 0 1 2.78 2.78Zm-14.5 14.46-.2.2a2 2 0 1 1-2.78-2.78l.19-.2a2 2 0 0 1 2.79 2.78ZM524 191.2l-.2.2a2 2 0 1 1-2.79-2.78l.2-.2a2 2 0 0 1 2.79 2.78Zm-14.47 14.47-.19.19a2 2 0 0 1-2.79-2.78l.2-.2a2 2 0 1 1 2.78 2.79ZM596.24 119l-.1.09a2 2 0 0 1-2.78-2.78l.09-.09a2 2 0 0 1 2.79 2.78ZM509.61 234.63l-.09.09a2 2 0 0 1-2.79-2.78l.1-.1a2 2 0 1 1 2.78 2.79ZM596.38 147.86l-.2.19a2 2 0 1 1-2.78-2.78l.2-.2a2 2 0 0 1 2.78 2.79Zm-14.46 14.46-.2.2a2 2 0 0 1-2.78-2.79l.19-.2a2 2 0 0 1 2.79 2.79Zm-14.46 14.46-.2.2a2 2 0 0 1-2.78-2.79l.19-.2a2 2 0 1 1 2.79 2.79ZM553 191.24l-.2.2a2 2 0 1 1-2.79-2.78l.2-.2a2 2 0 0 1 2.79 2.78Zm-14.47 14.46-.19.2a2 2 0 1 1-2.79-2.78l.2-.2a2 2 0 0 1 2.78 2.78Zm-14.46 14.46-.2.2a2 2 0 1 1-2.78-2.78l.2-.2a2 2 0 1 1 2.78 2.78ZM610.74 133.5l-.1.09a2 2 0 0 1-2.78-2.78l.09-.09a2 2 0 0 1 2.79 2.78ZM524.11 249.12l-.09.1a2 2 0 0 1-2.79-2.79l.1-.09a2 2 0 0 1 2.78 2.78ZM610.88 162.35l-.2.2a2 2 0 1 1-2.78-2.78l.2-.2a2 2 0 1 1 2.78 2.78Zm-14.46 14.47-.2.19a2 2 0 0 1-2.79-2.78l.2-.2a2 2 0 0 1 2.79 2.79ZM582 191.28l-.2.2a2 2 0 0 1-2.79-2.79l.2-.2a2 2 0 1 1 2.79 2.79Zm-14.47 14.46-.19.2a2 2 0 1 1-2.79-2.79l.2-.19a2 2 0 0 1 2.78 2.78ZM553 220.2l-.2.2a2 2 0 0 1-2.78-2.79l.2-.19a2 2 0 0 1 2.78 2.78Zm-14.46 14.46-.2.2a2 2 0 1 1-2.78-2.78l.2-.2a2 2 0 1 1 2.78 2.78ZM625.24 148l-.1.09a2 2 0 0 1-2.78-2.78l.09-.1a2 2 0 0 1 2.79 2.79ZM538.61 263.62l-.1.1a2 2 0 1 1-2.78-2.79l.09-.09a2 2 0 0 1 2.79 2.78ZM625.38 176.85l-.2.2a2 2 0 1 1-2.78-2.78l.19-.2a2 2 0 1 1 2.79 2.78Zm-14.46 14.46-.2.2a2 2 0 0 1-2.79-2.78l.2-.2a2 2 0 0 1 2.79 2.78Zm-14.47 14.47-.19.19a2 2 0 0 1-2.79-2.78l.2-.2a2 2 0 0 1 2.78 2.79ZM582 220.24l-.2.2a2 2 0 1 1-2.78-2.79l.2-.2a2 2 0 0 1 2.78 2.79Zm-14.47 14.46-.2.2a2 2 0 0 1-2.78-2.79l.2-.2a2 2 0 0 1 2.78 2.79Zm-14.46 14.46-.2.2a2 2 0 1 1-2.78-2.78l.2-.2a2 2 0 1 1 2.78 2.78ZM639.73 162.5l-.09.09a2 2 0 0 1-2.78-2.78l.09-.1a2 2 0 0 1 2.78 2.79ZM553.11 278.12l-.1.09a2 2 0 0 1-2.78-2.78l.09-.09a2 2 0 0 1 2.79 2.78ZM639.88 191.35l-.2.2a2 2 0 1 1-2.79-2.78l.2-.2a2 2 0 1 1 2.79 2.78Zm-14.47 14.46-.2.2a2 2 0 1 1-2.78-2.78l.2-.2a2 2 0 0 1 2.78 2.78ZM611 220.27l-.2.2a2 2 0 0 1-2.78-2.78l.2-.2a2 2 0 0 1 2.78 2.78Zm-14.46 14.47-.2.19a2 2 0 1 1-2.78-2.78l.2-.2a2 2 0 0 1 2.78 2.79ZM582 249.2l-.2.19a2 2 0 0 1-2.78-2.78l.19-.2a2 2 0 0 1 2.79 2.79Zm-14.46 14.46-.2.2a2 2 0 1 1-2.78-2.79l.19-.19a2 2 0 0 1 2.79 2.78ZM654.23 177l-.09.1a2 2 0 0 1-2.79-2.79l.1-.09a2 2 0 0 1 2.78 2.78ZM567.6 292.62l-.09.09a2 2 0 0 1-2.78-2.78l.09-.1a2 2 0 0 1 2.78 2.79ZM654.37 205.85l-.19.2a2 2 0 0 1-2.79-2.79l.2-.19a2 2 0 1 1 2.78 2.78Zm-14.46 14.46-.2.2a2 2 0 1 1-2.78-2.79l.2-.19a2 2 0 0 1 2.78 2.78Zm-14.46 14.46-.2.2a2 2 0 0 1-2.78-2.78l.2-.2a2 2 0 0 1 2.78 2.78ZM611 249.23l-.2.2a2 2 0 1 1-2.78-2.78l.2-.2a2 2 0 1 1 2.78 2.78Zm-14.47 14.47-.2.19a2 2 0 1 1-2.79-2.78l.2-.2a2 2 0 0 1 2.79 2.79Zm-14.46 14.46-.2.2a2 2 0 1 1-2.79-2.79l.2-.2a2 2 0 0 1 2.79 2.79ZM668.73 191.49l-.09.1a2 2 0 0 1-2.79-2.79l.1-.09a2 2 0 0 1 2.78 2.78ZM582 307l-.09.09a2 2 0 0 1-2.79-2.79l.1-.09A2 2 0 0 1 582 307ZM668.73 220.21l-.2.19a2 2 0 0 1-2.78-2.78l.2-.2a2 2 0 0 1 2.78 2.79Zm-14.46 14.46-.2.2a2 2 0 0 1-2.78-2.79l.19-.2a2 2 0 1 1 2.79 2.79Zm-14.46 14.46-.2.2a2 2 0 0 1-2.78-2.79l.19-.19a2 2 0 0 1 2.79 2.78Zm-14.46 14.46-.2.2a2 2 0 0 1-2.79-2.79l.2-.19a2 2 0 0 1 2.79 2.78Zm-14.47 14.46-.19.2a2 2 0 0 1-2.79-2.78l.2-.2a2 2 0 1 1 2.78 2.78Zm-14.46 14.46-.2.2a2 2 0 0 1-2.78-2.78l.2-.2a2 2 0 0 1 2.78 2.78ZM683.09 205.85l-.1.09a2 2 0 1 1-2.78-2.78l.09-.09a2 2 0 0 1 2.79 2.78Z"></path><path d="M670.65 489.44c0 5.2-122.73 9.42-274.13 9.42s-274.12-4.22-274.12-9.42S245.13 480 396.52 480s274.13 4.24 274.13 9.44Z" style="mix-blend-mode:multiply" fill="url(#m)"></path><path fill="url(#a)" d="M202 402.55s43.68-47.94 26.94-59.91-43.33-2.93-31.15-26.27 16.43-36-23.24-33-.8-30.95-35.2-39-58 30.69-47.14 42.46 32.87 11.19 28 25.24-16.06 21.89-7.18 31.88c10.49 11.8 33.1-1.18 28.1 18.42s-6.33 45.05 60.87 40.18Z"></path><path fill="url(#n)" d="M203.28 400.59s42.93-47.13 26.48-58.89-42.6-2.89-30.62-25.83 16.15-35.39-22.85-32.46-.78-30.44-34.6-38.4-57.62 28.6-46.95 40.17 32.92 12.57 28.12 26.39-15.79 21.52-7.06 31.34c10.31 11.59 32.53-1.16 27.63 18.1s-6.19 44.37 59.85 39.58Z"></path><path fill="#53a29b" d="M127 268.47q10.46 16 20.39 32.35t19.43 32.89q9.48 16.56 18 33.58c1.37 2.85 2.81 5.67 4.13 8.54l3.86 8.61 3.46 8.7c1 2.91 1.9 5.84 2.86 8.74l.1.28a4.41 4.41 0 0 0 8.37-2.78v-.08c-4.46-12.61-10.57-23.92-16.9-35.11s-13.07-22.06-20-32.77-14.07-21.32-21.35-31.8-14.81-20.88-22.35-31.15Z"></path><path fill="url(#o)" d="M214.12 395.84s42.05-30.38 33.11-51-29.78-23.71-15.69-42.84 20.07-30.57-8.53-46.2 6.76-33.36-15.51-58.29-48 5.23-43.19 22.9S184.78 248 178 260.6s-16.47 15.71-12.59 30.56C170 308.7 189 305.59 180.83 324.1s-15.1 45.09 33.29 71.74Z"></path><path fill="url(#p)" d="M215.5 394.37s41.33-29.86 32.54-50.19-29.27-23.26-15.42-42 19.73-30.05-8.38-45.42S230.88 224 209 199.45s-47.28 3.16-42.51 20.54 20.17 29 13.53 41.44-16.19 15.44-12.38 30c4.51 17.24 23.15 14.18 15.14 32.37s-14.85 44.38 32.72 70.57Z"></path><path fill="#53a29b" d="M193.09 217.46q3.42 22.06 6.4 44.17t5.59 44.25q2.59 22.14 4.4 44.32c1.16 14.75 2.09 29.61 1.61 44.1v.08a4.41 4.41 0 0 0 8.82.29 1.62 1.62 0 0 0 0-.22c-.25-15.27-2-30.11-3.85-44.93s-4.15-29.56-6.62-44.25-5-29.36-7.77-44-5.58-29.27-8.58-43.81Z"></path><path fill="url(#b)" d="M151.66 485.9h93.7l16.99-110.22H134.66l17 110.22z"></path><path style="mix-blend-mode:multiply" fill="url(#q)" d="M240.72 375.68h21.63L245.36 485.9h-11.85l7.21-110.22z"></path><path fill="#ffd032" d="m281.53 426.24-45.14 31.32-43.96-31.32h89.1z"></path><path fill="url(#r)" d="m281.53 426.24-45.14 27.01-43.96-27.01h89.1z"></path><path fill="url(#d)" d="M281.53 426.24v55.17a4.87 4.87 0 0 1-4.86 4.85h-79.38c-3.07 0 84.24-60.02 84.24-60.02Z"></path><path fill="#d34139" d="M276.67 486.26h-79.38c-1.49 0 18.32-14.14 39.1-28.7Z"></path><path fill="url(#e)" d="M192.43 426.24v55.17a4.87 4.87 0 0 0 4.86 4.85h79.38Z"></path><path fill="url(#s)" d="M276.67 486.26h-79.38l39.1-28.7 40.28 28.7z"></path><path fill="#ffd032" d="m261.03 396.22-45.14 31.32-43.96-31.32h89.1z"></path><path fill="url(#t)" d="m261.03 396.22-45.14 27.01-43.96-27.01h89.1z"></path><path fill="url(#u)" d="M261 396.22v55.18a4.87 4.87 0 0 1-4.86 4.85h-79.35c-3.07 0 84.21-60.03 84.21-60.03Z"></path><path fill="#d34139" d="M256.17 456.25h-79.38c-1.49 0 18.32-14.14 39.1-28.71Z"></path><path fill="url(#v)" d="M171.93 396.22v55.18a4.87 4.87 0 0 0 4.86 4.85h79.38Z"></path><path fill="url(#w)" d="M256.17 456.25h-79.38l39.1-28.71 40.28 28.71z"></path><path fill="#ffd032" d="m240.53 426.24-45.14 31.32-43.96-31.32h89.1z"></path><path fill="url(#x)" d="m240.53 426.24-45.14 27.01-43.96-27.01h89.1z"></path><path fill="url(#y)" d="M240.53 426.24v55.17a4.87 4.87 0 0 1-4.86 4.85h-79.38c-3.07 0 84.24-60.02 84.24-60.02Z"></path><path fill="#d34139" d="M235.67 486.26h-79.38c-1.49 0 18.32-14.14 39.1-28.7Z"></path><path fill="url(#z)" d="M151.43 426.24v55.17a4.87 4.87 0 0 0 4.86 4.85h79.38Z"></path><path fill="url(#A)" d="M235.67 486.26h-79.38l39.1-28.7 40.28 28.7z"></path><path fill="#ffd032" d="m220.03 426.24-45.14 31.32-43.96-31.32h89.1z"></path><path fill="url(#B)" d="m220.03 426.24-45.14 27.01-43.96-27.01h89.1z"></path><path fill="url(#C)" d="M220 426.24v55.17a4.87 4.87 0 0 1-4.86 4.85h-79.35c-3.07 0 84.21-60.02 84.21-60.02Z"></path><path fill="#d34139" d="M215.17 486.26h-79.38c-1.49 0 18.32-14.14 39.1-28.7Z"></path><path fill="url(#D)" d="M130.93 426.24v55.17a4.87 4.87 0 0 0 4.86 4.85h79.38Z"></path><path fill="url(#E)" d="M215.17 486.26h-79.38l39.1-28.7 40.28 28.7z"></path><circle cx="130.93" cy="426.24" r="24.19" fill="url(#f)" transform="rotate(-1.69 130.717 425.097)"></circle><path fill="#fff" d="M143.19 420a11 11 0 0 0-2.28-3.5 11.49 11.49 0 0 0-4.14-2.76 14.09 14.09 0 0 0-5.28-.95 13.67 13.67 0 0 0-4.69.83 12.94 12.94 0 0 0-4.08 2.36 13.37 13.37 0 0 0-3.55 4.72 13.71 13.71 0 0 0-.41 10.64 13.43 13.43 0 0 0 2.47 4.17q3.78 4.28 10.31 4.27a30.67 30.67 0 0 0 4.6-.32 16.12 16.12 0 0 0 3.54-.88l-.76-2.08a22 22 0 0 1-6.92 1.13 14.4 14.4 0 0 1-5.35-.87 10 10 0 0 1-3.84-2.82 10.67 10.67 0 0 1-2-3.41 11.26 11.26 0 0 1-.7-4 12.2 12.2 0 0 1 2.79-7.66 10.82 10.82 0 0 1 3.93-2.94 12 12 0 0 1 5-1 11.27 11.27 0 0 1 4.35.82 9 9 0 0 1 3.35 2.33 8.46 8.46 0 0 1 1.68 2.76 8.79 8.79 0 0 1 .6 3.18 8.48 8.48 0 0 1-.65 3.27 5.23 5.23 0 0 1-1.63 2.27 6.61 6.61 0 0 1-3.28.89.65.65 0 0 1-.6-.79 9.58 9.58 0 0 1 .18-1l2-8.91h-3.82a.68.68 0 0 0-.47.22.82.82 0 0 0-.11.21 5.2 5.2 0 0 0-1.79-.43 5.49 5.49 0 0 0-2.4.51 6.59 6.59 0 0 0-2 1.59 10.29 10.29 0 0 0-1.94 3.35 11.39 11.39 0 0 0-.73 3.93 4.4 4.4 0 0 0 .4 1.85 3.56 3.56 0 0 0 1.07 1.4 3.14 3.14 0 0 0 2 .67 4.6 4.6 0 0 0 1.15-.15 13.67 13.67 0 0 0 2.24-1.15A2.44 2.44 0 0 0 134 433a10.83 10.83 0 0 0 1.77-.16 17 17 0 0 0 3.63-.84 7 7 0 0 0 1.65-1 7.88 7.88 0 0 0 2.19-3 9.9 9.9 0 0 0 .79-4 10.77 10.77 0 0 0-.84-4Zm-14 10.49a1.88 1.88 0 0 1-.19-.95 2.61 2.61 0 0 1 .06-.59l.31-1.18.74-3.42a7.89 7.89 0 0 1 .57-1.53c.34-.79 1.65-1.16 2.34-1.37l-1.8 8.09a6.29 6.29 0 0 0-.17 1.15c-.48.05-1.08.14-1.24.13a.76.76 0 0 1-.62-.38Z"></path><path fill="#030003" d="M142.82 437.65v-1.57a8.27 8.27 0 0 0 3.09-.72 3.57 3.57 0 0 0 1.3-2.39h1.62v16.2h-2.19v-11.52Z"></path><path fill="url(#F)" d="M614.53 486.93s-40.64-30.67-31.45-50.78 29.7-22.62 16.26-41.64-19.08-30.4 9.31-45.17-6-32.87 16.4-56.88 47 6.1 41.92 23.35-20.64 26.56-14.26 39.12 15.84 15.75 11.73 30.25c-4.85 17.12-23.4 13.68-15.78 32s13.9 44.57-34.13 69.75Z"></path><path fill="url(#G)" d="M613.21 485.45s-40-30.15-30.92-49.91 29.2-22.24 16-40.93-18.75-29.89 9.15-44.4-5.86-32.32 16.12-55.92 46.33 4.06 41.3 21-20.38 28.05-14.11 40.4 15.57 15.48 11.53 29.73c-4.77 16.83-23 13.45-15.51 31.47s13.66 43.82-33.56 68.56Z"></path><path fill="#53a29b" d="M638.79 312.29q-4 21.54-7.51 43.16t-6.71 43.26q-3.17 21.66-5.55 43.39c-1.55 14.46-2.88 29-2.81 43.36v.06a3 3 0 0 1-6 0v-.11c.44-14.86 2.3-29.39 4.35-43.9s4.44-28.92 7-43.3 5.31-28.74 8.19-43.06 5.91-28.59 9.04-42.86Z"></path><path fill="url(#H)" d="M604.49 487s12.8-16 7.22-22.91-13.81-5.87-10.46-14.62 4.42-13.73-8.11-16.67-.94-13.41-12-20.55-17.73 7-14 13.26 10.68 8.3 9.44 13.83-4.67 7.66-1.58 12.92c3.59 6.19 10.48 3 9.32 10.91s-1.05 18.75 20.17 23.83Z"></path><path fill="url(#I)" d="M604.85 486.26s12.59-15.71 7.11-22.52-13.58-5.77-10.29-14.36 4.34-13.51-8-16.4-.92-13.17-11.82-20.19-17.66 6.17-14 12.28 10.73 8.91 9.51 14.34-4.54 7.58-1.55 12.74c3.53 6.08 10.3 3 9.17 10.72s-.98 18.43 19.87 23.39Z"></path><path fill="#53a29b" d="M577.72 421.31c2.46 5.34 4.85 10.7 7.21 16.08s4.65 10.77 6.9 16.19 4.41 10.88 6.46 16.36a157.75 157.75 0 0 1 5.4 16.62A1.21 1.21 0 1 0 606 486a159.87 159.87 0 0 0-6-16.68q-3.37-8.16-7-16.18t-7.46-16c-2.61-5.3-5.18-10.58-7.82-15.83Z"></path><path fill="url(#J)" d="M662 310h-80.81a37.56 37.56 0 0 0-37.52 37.52V385H662Z"></path><path fill="#910500" d="M624.43 385v-37.47a37.52 37.52 0 1 1 75 0V385Z"></path><path fill="url(#K)" d="M761.27 382.1v-.1h-133.9v3a3 3 0 0 0 3 3h124.9a6 6 0 0 0 6-5.9Z"></path><path fill="url(#g)" d="M696.53 382.1h-69.16v-34.57A34.58 34.58 0 0 1 662 313a34.58 34.58 0 0 1 34.58 34.58Z"></path><path fill="#fff" d="M606.77 346.68a15.81 15.81 0 0 0-3.32-5.1 16.73 16.73 0 0 0-6-4 20.94 20.94 0 0 0-7.68-1.37 19.65 19.65 0 0 0-6.82 1.21 18.72 18.72 0 0 0-5.93 3.43 19.51 19.51 0 0 0-5.16 6.86 20.08 20.08 0 0 0-1.87 8.47 19.83 19.83 0 0 0 1.27 7 19.42 19.42 0 0 0 3.59 6.06q5.5 6.22 15 6.22a44.42 44.42 0 0 0 6.68-.47 23.06 23.06 0 0 0 5.16-1.28l-1.12-3a31.67 31.67 0 0 1-10 1.64 21 21 0 0 1-7.78-1.26 14.45 14.45 0 0 1-5.59-4.1 15.61 15.61 0 0 1-2.93-5 16.62 16.62 0 0 1-1-5.73 17.6 17.6 0 0 1 4.06-11.14 15.49 15.49 0 0 1 5.7-4.28 17.65 17.65 0 0 1 7.24-1.5 16.39 16.39 0 0 1 6.32 1.19 13.3 13.3 0 0 1 4.88 3.39 13.08 13.08 0 0 1 3.3 8.64 12.27 12.27 0 0 1-.94 4.75 7.58 7.58 0 0 1-2.36 3.31 9.69 9.69 0 0 1-4.78 1.29 1 1 0 0 1-.86-1.15 11.67 11.67 0 0 1 .25-1.48l2.86-12.94h-5.56a.9.9 0 0 0-.68.32 1.6 1.6 0 0 0-.17.3 7.31 7.31 0 0 0-2.59-.62 8.06 8.06 0 0 0-3.5.73 9.63 9.63 0 0 0-3 2.32 15 15 0 0 0-2.82 4.87 16.6 16.6 0 0 0-1.12 5.74 6.45 6.45 0 0 0 .59 2.68 5.32 5.32 0 0 0 1.55 2 4.63 4.63 0 0 0 2.92 1 6.46 6.46 0 0 0 1.68-.22 17.63 17.63 0 0 0 3.25-1.67 3.9 3.9 0 0 0 .54.78 4.22 4.22 0 0 0 3.31 1.11 17.17 17.17 0 0 0 2.58-.23 25.89 25.89 0 0 0 5.27-1.23 11 11 0 0 0 2.4-1.49 11.55 11.55 0 0 0 3.18-4.36 14.34 14.34 0 0 0 1.16-5.75 15.59 15.59 0 0 0-1.16-5.94Zm-20.35 15.25a2.69 2.69 0 0 1-.28-1.38 3.6 3.6 0 0 1 .09-.86l.44-1.72 1.09-5a12.07 12.07 0 0 1 .82-2.23c.5-1.14 2.4-1.68 3.41-2l-2.62 11.77a10 10 0 0 0-.25 1.67c-.69.07-1.58.2-1.81.19a1.08 1.08 0 0 1-.89-.44ZM605.25 385.04h9.32v101.07h-9.32z"></path><g clip-path="url(#L)"><path fill="#ffd032" d="m706.86 346.77-26.57 18.44-25.86-18.44h52.43z"></path><path fill="url(#M)" d="m706.86 346.77-26.57 15.9-25.86-15.9h52.43z"></path><path fill="url(#N)" d="M706.86 346.77v32.47a2.87 2.87 0 0 1-2.86 2.86h-46.72c-1.8 0 49.58-35.33 49.58-35.33Z"></path><path fill="#d34139" d="M704 382.1h-46.72c-.87 0 10.79-8.32 23-16.89Z"></path><path fill="url(#O)" d="M654.43 346.77v32.47a2.86 2.86 0 0 0 2.85 2.86H704Z"></path><path fill="url(#P)" d="M704 382.1h-46.72l23.01-16.89L704 382.1z"></path><path fill="#ffd032" d="m697.84 346.77-26.56 18.44-25.87-18.44h52.43z"></path><path fill="url(#Q)" d="m697.84 346.77-26.56 15.9-25.87-15.9h52.43z"></path><path fill="url(#R)" d="M697.84 346.77v32.47a2.86 2.86 0 0 1-2.84 2.86h-46.73c-1.81 0 49.57-35.33 49.57-35.33Z"></path><path fill="#d34139" d="M695 382.1h-46.73c-.88 0 10.78-8.32 23-16.89Z"></path><path fill="url(#S)" d="M645.41 346.77v32.47a2.87 2.87 0 0 0 2.86 2.86H695Z"></path><path fill="url(#T)" d="M694.99 382.1h-46.72l23.01-16.89 23.71 16.89z"></path><path fill="#ffd032" d="m688.82 334-26.56 18.43L636.39 334h52.43z"></path><path fill="url(#U)" d="m688.82 334-26.56 15.89L636.39 334h52.43z"></path><path fill="url(#V)" d="M688.82 334v32.47a2.86 2.86 0 0 1-2.85 2.85h-46.72c-1.8 0 49.57-35.32 49.57-35.32Z"></path><path fill="#d34139" d="M686 369.32h-46.75c-.88 0 10.78-8.32 23-16.89Z"></path><path fill="url(#W)" d="M636.39 334v32.47a2.86 2.86 0 0 0 2.86 2.85H686Z"></path><path fill="url(#X)" d="M685.97 369.32h-46.72l23.01-16.89 23.71 16.89z"></path><path fill="#ffd032" d="m663.12 346.77-26.56 18.44-25.87-18.44h52.43z"></path><path fill="url(#Y)" d="m663.12 346.77-26.56 15.9-25.87-15.9h52.43z"></path><path fill="url(#Z)" d="M663.12 346.77v32.47a2.86 2.86 0 0 1-2.85 2.86h-46.72c-1.8 0 49.57-35.33 49.57-35.33Z"></path><path fill="#d34139" d="M660.27 382.1h-46.72c-.88 0 10.78-8.32 23-16.89Z"></path><path fill="url(#aa)" d="M610.69 346.77v32.47a2.87 2.87 0 0 0 2.86 2.86h46.72Z"></path><path fill="url(#ab)" d="M660.27 382.1h-46.72l23.01-16.89 23.71 16.89z"></path></g><path fill="url(#ac)" d="M611.21 487.65s-10.57-26.95-.13-34 21.11-2.12 20.26-15.33-.19-20.4 17.95-19.11 6.89-17.7 24.87-22.69 21 16.95 13.36 23.79-17.9 6.73-18.55 14.71 3 12.34-3.31 18.14c-7.44 6.85-15.41-.33-17.17 10.82s-6.49 25.76-37.28 23.67Z"></path><path fill="url(#ad)" d="M611 486.55s-10.39-26.5-.13-33.39 20.76-2.08 19.92-15.07-.19-20.06 17.64-18.79 6.78-17.4 24.45-22.3 21.24 15.75 13.76 22.47-18.22 7.53-18.86 15.38 2.94 12.13-3.26 17.83c-7.31 6.74-15.14-.32-16.87 10.63s-6.4 25.29-36.65 23.24Z"></path><path fill="#53a29b" d="M674.91 410.26q-8.32 9.25-16.47 18.67t-16.12 19q-8 9.56-15.6 19.37a223.18 223.18 0 0 0-14.26 20.17 1.7 1.7 0 1 1-2.91-1.77v-.05a224.93 224.93 0 0 1 15.17-20q8-9.6 16.3-18.89t16.78-18.42q8.49-9.11 17.11-18.08Z"></path><path fill="#add4dc" d="M443.09 455.37c.49-3.93 3.38-32.84 3.05-32.84H440l-68.34 62.66h109.05c.81 0 .83-1.72 0-1.7-43.55 1.27-38.47-21.29-37.62-28.12Z"></path><path fill="url(#h)" d="M438.44 460.62c.24-1.66 3.28-36.63 3.39-38.09l-87 .3s-1.12 27.4-2.2 33.19-4.38 14.8-16.13 18.71c-14 4.67-46.7 8.51-47.16 8.83-1.41 1-.57 2 0 2l82.24-.39s45.44-4 45.62-4c10.96-1.55 19.57-8.91 21.24-20.55Z"></path><path fill="#add4dc" d="M577.4 202.48H234.65c-5.68 0-13 5.12-13.45 11.28l-15 215.61c-.43 6.16 3.24 12.7 9.56 12.7h344.81c6.52 0 10.58-6.54 11-12.7l15.33-215.75c.44-6.15-3.82-11.14-9.5-11.14Z"></path><path fill="#030003" d="M574.21 202.48h-342c-5.63 0-10.54 4.91-11 11l-14.88 214.15c-.42 6.05 3.8 11 9.43 11h342c5.63 0 10.53-4.92 11-11l14.95-214.18c.35-6.06-3.87-10.97-9.5-10.97Z"></path><path fill="url(#ae)" d="M560.24 431.36H213.97l15.36-220.05h346.28l-15.37 220.05z"></path><path fill="url(#af)" d="M345.83 247.78c3.19.17 15 7.88 18.29 8.72 0 .2 11.69-.49 12-.46-2.9 0-14.5-7.54-17.47-8.39-1.81-1-12.4.07-14.63 0a11.55 11.55 0 0 1 1.81.13Z"></path><path fill="url(#ag)" d="M359 384.76c-2.61.92-14.81 7.07-17.36 6.92 17.94.2 17.32-3.78 30-7.75-2.43.26-10.44.16-12.64.83Z"></path><path fill="url(#ah)" d="M402.88 373.83c-49 8.32-69.27-32.08-61.19-65.3 4.62-19 18.5-35.63 41.59-39.48a65.22 65.22 0 0 1 14.19-.75c-1.53.17-3 .39-4.48.65-59.12 10.81-52.25 100.42 4.56 104.78 1 .08 2.05.12 3.09.15a13.94 13.94 0 0 0 2.24-.05Z"></path><path fill="url(#ai)" d="M413.48 386.61c-4.59.18-5.11 6.62-8.38 14-2.08 5.19-3.05 9.88-10.69 10.86 10.51-.91 16.52 1.53 21.2-9.63 3.56-8.5 3.1-14.58 9.05-15.77Z"></path><path fill="url(#aj)" d="M422.56 249.07c-6-18.76-5.19-18.49-38.59-17.38 20.45 1.28 20.34 1.62 28.32 23.86 2.45 6.84 8.12 4.21 16.68 2.7a21.89 21.89 0 0 1-6.41-9.18Z"></path><path fill="url(#ak)" d="M483.55 316.28c-.13-8.72-5.73-9.78-15.85-14.45-4.6-2.68-6.29-3.06-7.22-5.67-2.15-6 9.06-17.1 7.91-24 .49-4-10.78-16.42-14.85-19.74-3-2.57-13-.82-16.74-.93 6 0 7.81 3.34 13.13 9.47 5.39 6.62 8.54 7.88 6.83 16.43-.3 1.28-3.23 7.28-5.67 12.86-1.31 3.56-4.31 6 0 9.43 14.75 11.68 20.7 3.54 20.9 30.24.09 12.43-9.62 13.54-21.82 18.29-6 3.23.19 11.36 2.81 19.87 2.47 5 2.66 11.26-7.5 19.77-5.51 5-4.61 6.52-11.22 7.59 13.4-1.14 12.65 2.64 25-10.67 11.58-9.32 4.31-17.19-.36-31.35a5.3 5.3 0 0 1 .45-3.66c1.45-2.55 3.31-2.39 7.52-4.11 19.6-5.95 16.97-9.25 16.68-29.37Z"></path><path fill="url(#al)" d="m466 306.71-14-6.46a4.49 4.49 0 0 1-.78-.47l-.39-.31a5.19 5.19 0 0 1-1.34-2.06 5.37 5.37 0 0 1 .16-3.93l.57-1.26.87-1.93 2.48-5.52.08-.18 2.57-5.69v-.07a10.58 10.58 0 0 0 .51-1.39 12.14 12.14 0 0 0 .46-4.63 11.86 11.86 0 0 0-1.63-5 10.31 10.31 0 0 0-1.18-1.62l-4.38-5.12-.56-.65-4.44-5.18-.14-.15a10.06 10.06 0 0 0-3.36-2.6l-.41-.19-.48-.19-.34-.11a9.7 9.7 0 0 0-2.59-.48h-.85a9.61 9.61 0 0 0-3.42.81l-7.19 3.09-6.81 2.93a4 4 0 0 1-1.91.41 4.23 4.23 0 0 1-1.78-.5 4.8 4.8 0 0 1-2.46-2.9l-4.94-15.46a10.74 10.74 0 0 0-9.55-7.64l-13.91-.57a5.34 5.34 0 0 0-.8 0 10.43 10.43 0 0 0-9.18 6.83l-5.63 14.59-.16.42a4.55 4.55 0 0 1-2.69 2.69 3.56 3.56 0 0 1-1.08.3 2.77 2.77 0 0 1-.64 0h-.5a4.47 4.47 0 0 1-1.4-.48l-.44-.24-5.58-2.93-.41-.22-6.54-3.44-.64-.34a9.34 9.34 0 0 0-2.5-.93h-.09q-.33-.08-.66-.12-.3 0-.6-.06a.65.65 0 0 0-.19 0h-.62a10 10 0 0 0-7 3l-10.18 10.29a12 12 0 0 0-2.49 12.45l5.74 15.17a5.44 5.44 0 0 1-.06 3.93 4.68 4.68 0 0 1-2.73 2.63l-14.27 5.29a11.16 11.16 0 0 0-7 10.2l-.52 15a11.51 11.51 0 0 0 6.4 10.76l13.92 6.44a4.94 4.94 0 0 1 2.58 2.86 5.44 5.44 0 0 1-.17 3.93l-6.6 14.65a12.17 12.17 0 0 0 1.79 12.64l9.57 11.07a10.41 10.41 0 0 0 7.34 3.6 8.83 8.83 0 0 0 1.36 0h.05a9 9 0 0 0 2.79-.76l1.12-.49.11-.05 8.17-3.56 4.58-2a4.64 4.64 0 0 1 1.87-.32 4.06 4.06 0 0 1 1.75.48 4.45 4.45 0 0 1 2 1.71 4.55 4.55 0 0 1 .56 1.2l4.93 15.44a10.71 10.71 0 0 0 9.56 7.66l13.91.57h1.3a9.59 9.59 0 0 0 3.65-1.09 10.66 10.66 0 0 0 3.55-3.08 11.46 11.46 0 0 0 1.43-2.6l.63-1.63.92-2.38v-.05l1.88-4.83 2.26-5.83.1-.28a4.62 4.62 0 0 1 2.41-2.6 3.45 3.45 0 0 1 .34-.14 4.19 4.19 0 0 1 .46-.16 6 6 0 0 1 .61-.12H413.79a4.43 4.43 0 0 1 1.83.49l4.4 2.35 9.15 4.9a9.91 9.91 0 0 0 4.2 1.13 8.61 8.61 0 0 0 .88 0h.47a9.7 9.7 0 0 0 3.18-.86 9.93 9.93 0 0 0 2.93-2.06l1.13-1.13 3.42-3.45 5.41-5.46.14-.14a11.68 11.68 0 0 0 3.3-7.8 12.1 12.1 0 0 0-.75-4.63l-.63-1.67v-.05l-2.18-5.75L448 355l-.15-.39a5.33 5.33 0 0 1 .06-3.93 4.89 4.89 0 0 1 1.43-1.91l.24-.17a1.35 1.35 0 0 1 .22-.14 2.08 2.08 0 0 1 .38-.22l.38-.17 11.2-4.12 3.12-1.15a11.17 11.17 0 0 0 7-10.21v-2.45l.36-12.62a11.49 11.49 0 0 0-6.24-10.81Zm-29.11 27.2a52.81 52.81 0 0 1-14.23 26.46 45.6 45.6 0 0 1-25.08 13.36h-.23a48.85 48.85 0 0 1-9.76.59c-12.95-.53-25-6.39-34-16.84-11.27-13-15.59-30.67-12-48.31.05-.23.09-.45.14-.67 4.43-20 20.54-36.1 39.39-39.19.74-.11 1.47-.21 2.2-.29a49.47 49.47 0 0 1 7.48-.24c.75 0 1.49.08 2.23.14a47 47 0 0 1 31.78 16.75c11.19 13.06 15.66 30.67 12.05 48.24Z"></path><path d="m229.3 222.58-.05.81-.86 12.18v.81l-.85 12.18-.06.8-.85 12.18-.06.81-.85 12.17-.06.81-.85 12.18v.81l-.86 12.17v.81l-.95 12.18-.06.81-.94 12.17-.06.81-.85 12.18-.06.81-.85 12.17-.05.81-.86 12.17-.05.82-.85 12.17-.06.81-.85 12.18-.06.81-.85 12.17-.06.81-.85 12.18-.05.8-.86 12.18-.05.81v.21h.8v-.21h12v.21h.8v-.21h12v.21h.79v-.21h12v.21h.8v-.21h12v.21h.79v-.21h12v.21h.8v-.21h12v.21h.8v-.21h12v.21h.8v-.21h12v.21h.8v-.21h12v.21h.79v-.21h11.6v.21h.88v-.21H355v.21h.8v-.21h12v.21h.8v-.21h12v.21h.8v-.21h12v.21h.8v-.21h12v.21h.8v-.21h12v.21h.79v-.21h12v.21h.8v-.21h12v.21h.8v-.21h12v.21h.79v-.21h12v.21h.79v-.21h12v.21h.79v-.21h12v.21h.8v-.21h12v.21h.8v-.21h12v.21h.8v-.21h12v.21h.79v-.21h12v.21h.8v-.21h12v.21h.25l15.5-221.72-345.39.77Zm.75.81h12l-.85 12.18h-12Zm54.9 129 .85-12.17h12l-.85 12.17Zm11.93.81-.88 12.21h-12l.85-12.17ZM326 314.29h12l-.85 12.17h-12Zm-1.65 12.17h-12l.86-12.17h12Zm14.43-12.17h11.61l-.86 12.17h-11.6Zm11.58 13h11.91l-.85 12.18h-11.94Zm12.71 0h12l-.85 12.18h-12Zm12.78 0h12l-.85 12.16h-12Zm12.78 0h12l-.85 12.18h-12Zm12.79 0h12l-.85 12.18h-12Zm12.78 0h12l-.85 12.18h-12Zm12.79 0h12l-.85 12.18h-12Zm12.79 0h12l-.85 12.18h-12Zm12.05-.81h-12l.85-12.17h12Zm1.64-12.17h12l-.85 12.17h-12Zm-.9 13h12l-.85 12.18h-12Zm12.78 0h12l-.85 12.18h-12Zm.06-.81.85-12.17h12l-.86 12.17Zm.91-13 .85-12.18h12l-.85 12.18Zm-.8 0h-12l.85-12.18h12Zm-12.79 0h-12l.85-12.18h12Zm-12.78 0h-12l.86-12.18h12Zm-.06.81-.89 12.15h-12l.85-12.17Zm-13.64 12.17h-12l.85-12.17h12Zm-12.78 0h-12l.86-12.17h12Zm-12.79 0h-12l.85-12.17h12Zm-12.78 0h-12l.85-12.17h12Zm-12.79 0h-12l.85-12.17h12Zm-12.79 0h-11.93l.85-12.17h11.91Zm-11.88-13h-11.6l.85-12.18h11.6Zm-12.4 0H326l.85-12.18h12Zm-12.78 0h-12l.85-12.18h12Zm-12.79 0h-12l.85-12.18h12Zm-.06.81-.85 12.17h-12l.85-12.17Zm-.91 13-.85 12.18h-12l.85-12.18Zm.8 0h12l-.85 12.18h-12Zm12.79 0h12l-.85 12.18h-12Zm12.78 0h11.61l-.85 12.18H337Zm11.58 13h11.91l-.85 12.17h-11.93Zm12.71 0h12l-.85 12.17h-12Zm12.78 0h12l-.85 12.17h-12Zm12.79 0h12l-.85 12.17h-12Zm12.78 0h12l-.85 12.17h-12Zm12.79 0h12l-.86 12.17h-12Zm12.78 0h12l-.85 12.17h-12Zm12.79 0h12l-.87 12.14h-12Zm12.79 0h12l-.86 12.17h-12Zm12.78 0h12l-.85 12.17h-12Zm12.79 0h12l-.85 12.17h-12Zm.05-.81.85-12.18h12l-.85 12.18Zm.91-13 .85-12.17h12l-.86 12.17Zm.91-13 .85-12.18h12l-.85 12.18Zm.91-13 .85-12.17h12l-.86 12.18Zm-.8 0h-12l.86-12.17h12Zm-12.78 0h-12l.85-12.17h12Zm-12.79 0h-12l.86-12.17h12Zm-12.79 0h-12l.85-12.17h12Zm-12.78 0h-12l.85-12.17h12Zm-.06.81-.85 12.18h-12l.84-12.17Zm-13.63 12.18h-12l.85-12.18h12Zm-12.8 0h-12l.85-12.18h12Zm-12.78 0h-12l.86-12.18h12Zm-12.78 0H364l.85-12.18h12Zm-12.79 0H351.3l.85-12.18h11.91Zm-11.88-13h-11.6l.85-12.17h11.6Zm-12.4 0h-12l.85-12.17h12Zm-12.78 0h-12l.85-12.17h12Zm-12.79 0h-12l.85-12.17h12Zm-12.79 0h-12l.85-12.17h12Zm-.05.81-.86 12.18h-12l.85-12.18Zm-.91 13-.85 12.17h-12l.85-12.17Zm-.91 13-.85 12.18h-12l.86-12.18Zm-.11 13h12l-.85 12.17h-12Zm12.78 0h12l-.85 12.17h-12Zm12.79 0h12l-.86 12.17h-12Zm12.78 0h11.61l-.85 12.17h-11.63Zm11.58 13h11.91l-.85 12.17h-11.93Zm12.71 0h12l-.85 12.17h-12Zm12.78 0h12l-.85 12.17h-12Zm12.79 0h12l-.85 12.17H386Zm12.78 0h12l-.85 12.17h-12Zm12.79 0h12l-.85 12.17h-12Zm12.78 0h12l-.85 12.17h-12Zm12.8 0h12l-.85 12.17h-12Zm12.78 0h12l-.85 12.17h-12Zm12.78 0h12l-.85 12.17h-12Zm12.79 0h12l-.85 12.17h-12Zm12.78 0h12l-.85 12.17h-12Zm.06-.81.85-12.17h12l-.85 12.17Zm.91-13 .85-12.18h12l-.92 12.16Zm.91-13 .85-12.17h12l-.83 12.16Zm.91-13 .85-12.18h12l-.85 12.18Zm.9-13 .85-12.17h12l-.85 12.17Zm.91-13 .85-12.18h12l-.85 12.18Zm-.79 0h-12l.86-12.18h12Zm-12.79 0h-12l.85-12.18h12Zm-12.79 0h-12l.85-12.18h12Zm-12.78 0h-12l.85-12.18h12Zm-12.79 0h-12l.85-12.18h12Zm-12.79 0H417l.86-12.18h12Zm-12.78 0h-12l.85-12.18h12Zm-.05.81-.86 12.17h-12l.85-12.17Zm-13.65 12.17h-12l.85-12.17h12Zm-12.78 0h-12l.85-12.17h12Zm-12.78 0h-12l.85-12.17h12Zm-12.79 0h-11.93l.85-12.17H365Zm-11.88-13h-11.63l.86-12.18h11.6Zm-12.41 0h-12l.85-12.18h12Zm-12.78 0h-12l.85-12.18h12Zm-12.79 0h-12l.86-12.18h12Zm-12.78 0h-12l.85-12.18h12Zm-12.79 0h-12l.85-12.18h12Zm-.06.81-.85 12.17h-12l.85-12.17Zm-.9 13-.86 12.18h-12l.85-12.18Zm-.91 13-.84 12.2h-12l.85-12.17Zm-.91 13-.85 12.18h-12l.85-12.18Zm-.91 13-.85 12.17h-12l.85-12.17Zm-.91 13-.85 12.17h-12l.85-12.17Zm-.9 13-.86 12.17h-12l.85-12.17Zm.79 0h12l-.86 12.17h-12Zm12.79 0h12l-.85 12.17h-12Zm.06-.82.85-12.17h12l-.85 12.17Zm13.63-12.17h12l-.85 12.17h-12Zm12.79 0h12l-.85 12.17h-12Zm12.79 0h11.6l-.85 12.17h-11.6Zm11.57 13h11.91l-.85 12.17h-11.93Zm12.71 0h12l-.85 12.17h-12Zm12.79 0h12l-.86 12.17h-12Zm12.78 0h12L397 378.4h-12Zm12.78 0h12l-.85 12.17h-12Zm12.79 0h12l-.85 12.17h-12Zm12.79 0h12l-.85 12.17h-12Zm12.79 0h12l-.85 12.17h-12Zm12.78 0h12L461 378.4h-12Zm12.79 0h12l-.86 12.17h-12Zm12.78 0h12l-.85 12.17h-12Zm12.79 0h12l-.86 12.17h-12Zm12.78 0h12l-.86 12.17h-12Zm.06-.82.85-12.17h12l-.89 12.13Zm.91-13 .85-12.17h12l-.85 12.17Zm.9-13 .86-12.18h12l-.85 12.18Zm.91-13 .85-12.17h12l-.85 12.17Zm.91-13 .85-12.18h12l-.86 12.18Zm.91-13 .85-12.17h12l-.85 12.17Zm.91-13 .85-12.18h12l-.85 12.18Zm.91-13 .85-12.17h12l-.85 12.17Zm-.8 0h-12l.85-12.17h12Zm-12.78 0h-12l.85-12.17h12Zm-12.79 0H469l.85-12.17h12Zm-12.79 0h-12l.85-12.17h12Zm-12.78 0h-12l.85-12.17h12Zm-12.79 0h-12l.85-12.17h12Zm-12.79 0h-12l.85-12.17h12Zm-12.78 0h-12l.85-12.17h12Zm-12.79 0h-12l.85-12.17h12Zm-.06.81-.85 12.18h-12l.85-12.18Zm-13.65 12.25h-12l.85-12.18h12Zm-12.79 0h-12l.85-12.18h12Zm-12.78 0h-11.91l.85-12.18h11.91Zm-11.88-13h-11.61l.85-12.17H354Zm-12.41 0h-12l.85-12.17h12Zm-12.78 0H316l.85-12.17h12Zm-12.79 0h-12l.85-12.17h12Zm-12.78 0h-12l.86-12.17h12Zm-12.79 0h-12l.85-12.17h12Zm-12.78 0h-12l.85-12.17h12Zm-.06.81-.85 12.18h-12l.86-12.18Zm-.91 13-.85 12.17h-12l.85-12.17Zm-.91 13-.85 12.18h-12l.91-12.2Zm-.9 13-.86 12.17h-12l.85-12.17Zm-.91 13-.85 12.18h-12l.85-12.18Zm-.91 13-.85 12.17h-12l.86-12.17Zm-.91 13-.85 12.17h-12l.85-12.17Zm-.91 13-.85 12.17h-12l.85-12.17Zm-.9 13-.86 12.18h-12l.85-12.18Zm.79 0h12l-.85 12.18h-12Zm12.78 0h12l-.85 12.18h-12Zm12.79 0h12l-.86 12.07h-12Zm12.79 0h12l-.85 12.18h-12Zm.05-.81.85-12.17h12l-.85 12.17Zm13.64-12.17h12l-.85 12.17h-12Zm12.79 0h11.6l-.85 12.17h-11.6Zm11.57 13h11.91l-.85 12.18h-11.91Zm12.71 0h12l-.85 12.18h-12Zm12.79 0h12l-.85 12.18h-12Zm12.78 0h12l-.85 12.18h-12Zm12.79 0h12l-.85 12.18h-12Zm12.78 0h12l-.85 12.18h-12Zm12.79 0h12l-.85 12.18h-12Zm12.79 0h12l-.86 12.18h-12Zm12.79 0h12l-.85 12.18h-12Zm12.78 0h12l-.86 12.18h-12Zm12.78 0h12l-.86 12.18h-12Zm12.79 0h12l-.85 12.18h-12Zm12.78 0h12l-.85 12.18h-12Zm12.79 0h12l-.84 12.05h-12Zm.06-.81.85-12.17h12l-.85 12.17Zm.91-13 .85-12.17h12l-.85 12.17Zm.91-13 .85-12.17h12l-.85 12.17Zm.9-13 .85-12.18h12l-.85 12.18Zm.91-13 .85-12.17h12l-.85 12.17Zm.91-13 .85-12.18h12l-.85 12.18Zm.91-13 .85-12.17h12l-.85 12.17Zm.9-13 .86-12.18h12l-.85 12.18Zm.91-13 .85-12.17h12l-.85 12.17Zm.91-13 .85-12.18h12l-.85 12.18Zm-.79 0h-12l.85-12.18h12Zm-12.79 0h-12l.85-12.18h12Zm-12.79 0h-12l.85-12.18h12Zm-12.78 0h-12l.85-12.18h12Zm-12.79 0h-12l.86-12.18h12Zm-12.79 0h-12l.85-12.18h12Zm-12.78 0h-12l.85-12.18h12Zm-12.79 0h-12l.85-12.18h12Zm-12.78 0H406l.86-12.18h12Zm-12.79 0h-12l.85-12.18h12Zm-12.78 0h-12l.85-12.18h12Zm-.06.81-.85 12.17h-12l.85-12.17Zm-13.64 12.17h-12l.86-12.17h12Zm-12.78 0H354l.86-12.17h11.91Zm-11.89-13h-11.6l.85-12.18h11.61Zm-12.4 0h-12l.86-12.18h12Zm-12.78 0h-12l.86-12.18h12Zm-12.79 0h-12l.85-12.18h12Zm-12.78 0h-12l.85-12.18h12Zm-12.79 0h-12l.85-12.18h12Zm-12.79 0h-12l.85-12.18h12Zm-12.79 0H253l.85-12.18h12Zm-.05.81-.88 12.2h-12l.85-12.17Zm-.91 13-.85 12.18h-12l.85-12.18Zm-.91 13-.85 12.17h-12l.86-12.17Zm-.91 13-.85 12.18h-12l.85-12.18Zm-.9 13-.85 12.17h-12l.85-12.17Zm-.91 13-.85 12.18h-12l.85-12.18Zm-.91 13-.85 12.17h-12l.85-12.17Zm-.91 13-.85 12.17h-12l.86-12.17Zm-.91 13-.85 12.17h-12l.85-12.17Zm-.9 13-.85 12.18h-12l.85-12.18Zm-.91 13-.8 12.05h-12l.85-12.17Zm.79 0h12l-.85 12.17h-12Zm12.79 0h12l-.85 12.17h-12Zm12.79 0h12l-.85 12.17h-12Zm12.78 0h12l-.85 12.17h-12Zm12.79 0h12l-.85 12.17h-12Zm12.79 0h12l-.85 12.17h-12Zm.05-.81.86-12.18h12l-.85 12.18Zm13.64-12.18h11.61l-.83 12.06h-11.6Zm11.58 13h11.91l-.85 12.17h-11.92Zm12.7 0h12l-.85 12.17h-12Zm12.79 0h12l-.85 12.17h-12Zm12.78 0h12l-.85 12.17h-12Zm12.79 0h12l-.86 12.04h-12Zm12.78 0h12l-.85 12.17h-12Zm12.79 0h12l-.85 12.17h-12Zm12.79 0h12l-.85 12.17h-12Zm12.79 0h12l-.85 12.17h-12Zm12.78 0h12l-.85 12.17h-12Zm12.78 0h12l-.85 12.17h-12Zm12.79 0h12l-.85 12.17h-12Zm12.79 0h12l-.85 12.17h-12Zm12.78 0h12l-.85 12.17h-12Zm12.79 0h12l-.85 12.17h-12Zm0-.81.86-12.18h12l-.85 12.18Zm.91-13 .85-12.17h12l-.85 12.17Zm.91-13 .85-12.17h12l-.85 12.17Zm.91-13 .85-12.17h12l-.86 12.17Zm.91-13 .85-12.18h12l-.85 12.18Zm.9-13 .86-12.17h12l-.85 12.17Zm.91-13 .85-12.18h12l-.85 12.18Zm.91-13 .85-12.17h12l-.85 12.17Zm.91-13 .85-12.18h12l-.84 12.17Zm.91-13 .85-12.17h12l-.85 12.17Zm.91-13 .85-12.18h12l-.85 12.18Zm.9-13 .85-12.18h12l-.85 12.18Zm-.79 0H522l.85-12.18h12Zm-12.79 0h-12l.85-12.18h12Zm-12.79 0h-12l.86-12.18h12Zm-12.78 0h-12l.85-12.18h12Zm-12.79 0h-12l.85-12.18h12Zm-12.78 0h-12l.85-12.18h12Zm-12.79 0h-12l.85-12.18h12Zm-12.78 0h-12l.86-12.18h12Zm-12.79 0h-12l.85-12.18h12Zm-12.78 0h-12l.85-12.18h12Zm-12.8 0h-12l.85-12.18h12Zm-12.78 0h-12l.86-12.18h12Zm-12.78 0h-12l.85-12.18h12Zm-.06.8-.85 12.18h-12l.85-12.18Zm-13.64 12.18h-11.86l.85-12.18h11.91Zm-11.88-13h-11.6l.85-12.18h11.6Zm-12.4 0h-12l.85-12.18h12Zm-12.78 0h-12l.85-12.18h12Zm-12.79 0H305l.85-12.18h12Zm-12.79 0h-12l.85-12.18h12Zm-12.79 0h-12l.85-12.18h12Zm-12.78 0h-12l.85-12.18h12Zm-12.79 0h-12l.85-12.18h12Zm-12.78 0h-12l.85-12.18h12Zm-.06.8-.85 12.18h-12l.86-12.18Zm-.91 13-.85 12.17h-12l.85-12.17Zm-.9 13-.86 12.18h-12l.85-12.18Zm-.91 13-.85 12.17h-12l.85-12.17Zm-.91 13-.85 12.18h-12l.85-12.18Zm-.91 13-.85 12.17h-12l.86-12.17Zm-.91 13-.85 12.18h-12l.85-12.18Zm-.9 13-.85 12.17h-12l.85-12.17Zm-.91 13-.85 12.17h-12l.85-12.17Zm-.91 13-.78 12.1h-12l.85-12.17Zm-.91 13-.85 12.18h-12l.86-12.18Zm-.91 13-.85 12.17h-12l.89-12.27Zm-.9 13-.86 12.18h-12l.85-12.18Zm.79 0h12l-.85 12.06h-12Zm12.79 0h12l-.85 12.18h-12Zm12.78 0h12l-.85 12.18h-12Zm12.79 0h12l-.85 12.18h-12Zm12.79 0h12l-.85 12.18h-12Zm12.78 0h12l-.78 12.06h-12Zm12.79 0h12l-.86 12.18h-12Zm12.79 0H344l-.85 12.18h-11.6Zm0-.81.85-12.17h11.61l-.85 12.17Zm12.43.81h12.01l-.8 12.06h-12Zm12.71 0h12l-.85 12.18h-12Zm12.78 0h12l-.85 12.18h-12Zm12.79 0h12l-.85 12.18h-12Zm12.78 0h12l-.85 12.18h-12Zm12.79 0h12l-.86 12.18h-12Zm12.78 0h12l-.85 12.18h-12Zm12.79 0h12l-.85 12.18h-12Zm12.79 0h12l-.86 12.18h-12Zm12.78 0h12l-.78 12.06h-12Zm12.79 0h12l-.85 12.18h-12Zm12.78 0h12l-.85 12.18h-12Zm12.79 0h12l-.85 12.18h-12Zm12.79 0h12l-.86 12.18h-12Zm12.78 0h12l-.71 12.06h-12Zm12.79 0h12l-.86 12.18h-12Zm.06-.81.85-12.17h12l-.85 12.17Zm.9-13 .86-12.18h12l-.85 12.18Zm.91-13 .85-12.17h12l-.85 12.17Zm.91-13 .85-12.17h12l-.85 12.17Zm.91-13 .85-12.17h12l-.86 12.17Zm.91-13 .85-12.18h12l-.85 12.18Zm.9-13 .86-12.17h12l-.85 12.17Zm.91-13 .85-12.18h12l-.76 12.17Zm.91-13 .85-12.17h12l-.85 12.17Zm.91-13 .85-12.18h12l-.86 12.18Zm.91-13 .85-12.17h12l-.85 12.17Zm.9-13 .86-12.18h12l-.85 12.18Zm.91-13 .85-12.18h12l-.85 12.18Zm.91-13 .85-12.18h12l-.85 12.18Zm-.79 0h-12l.85-12.18h12Zm-12.79 0h-12l.85-12.18h12Zm-12.79 0h-12l.85-12.18h12Zm-12.79 0h-12l.86-12.18h12Zm-12.78 0h-12l.85-12.18h12Zm-12.79 0h-12l.86-12.18h12Zm-12.78 0H459l.85-12.18h12Zm-12.79 0h-12l.86-12.18h12Zm-12.79 0h-12l.85-12.18h12Zm-12.78 0h-12l.85-12.18h12Zm-12.79 0h-12l.85-12.18h12Zm-12.79 0H395l.85-12.18h12Zm-12.78 0h-12l.85-12.18h12Zm-12.79 0h-12l.85-12.18h12Zm-12.78 0h-11.81l.85-12.18h11.91Zm-.06.81-.85 12.18h-11.81l.85-12.18Zm-12.73-.81h-11.6l.85-12.18h11.6Zm-12.4 0h-12l.85-12.18h12Zm-12.78 0h-12l.85-12.18h12Zm-12.8 0h-12l.85-12.18h12Zm-12.78 0h-12l.85-12.18h12Zm-12.79 0h-12l.85-12.18h12Zm-12.78 0h-12l.85-12.18h12Zm-12.79 0h-12l.86-12.18h12Zm-12.78 0H242l.85-12.18h12Zm-24.83.81h12l-.85 12.18h-12Zm-.91 13h12l-.86 12.18h-12Zm-.91 13h12l-.85 12.17h-12Zm-.91 13h12l-.85 12.18h-12Zm-.9 13h12l-.85 12.17h-12Zm-.91 13h12l-.85 12.18h-12Zm-.91 13h12l-.86 12.17h-12Zm-.91 13h12l-.85 12.18h-12Zm-.91 13h12l-.77 12.13h-12Zm-.9 13h12l-.85 12.17h-12Zm-.91 13h12l-.85 12.17h-12Zm-.91 13h12l-.86 12.18h-12Zm-.91 13h12l-.85 12.17h-12Zm-.91 13h12l-.85 12.18h-12Zm10.23 25.16h-12l.86-12.18h12Zm12.79 0h-12l.85-12.18h12Zm12.78 0h-12l.86-12.18h12Zm12.79 0h-12l.85-12.18h12Zm12.78 0h-12l.86-12.18h12Zm12.79 0h-12l.85-12.18h12Zm12.79 0h-12l.85-12.18h12Zm12.79 0h-12l.85-12.18h12Zm12.78 0h-12l.85-12.18h12Zm12.4 0h-11.6l.85-12.18H343Zm12.79 0h-11.81l.85-12.18h11.91Zm12.79 0h-12l.85-12.18h12Zm12.78 0h-12l.85-12.18h12Zm12.78 0h-12l.85-12.18h12Zm12.79 0h-12l.85-12.18h12Zm12.79 0H407l.85-12.18h12Zm12.78 0h-12l.85-12.18h12Zm12.79 0h-12l.86-12.18h12Zm12.79 0h-12l.85-12.18h12Zm12.78 0h-12l.86-12.18h12Zm12.79 0h-12l.85-12.18h12Zm12.78 0h-12l.86-12.18h12Zm12.79 0h-12l.85-12.18h12Zm12.79 0h-12l.85-12.18h12Zm12.79 0h-12l.85-12.18h12Zm12.78 0h-12l.85-12.18h12Zm12.79 0h-12l.85-12.18h12Zm.91-13h-12l.86-12.18h12Zm.9-13h-12l.85-12.17h12Zm.91-13h-12l.85-12.18h12Zm.91-13h-12l.85-12.17h12Zm.91-13h-12l.85-12.17h12Zm.91-13h-12l.86-12.17h12Zm.9-13H554l.85-12.18h12Zm.91-13h-12l.85-12.17h12Zm.91-13h-12l.85-12.18h12Zm.91-13h-12l.85-12.17h12Zm.91-13h-12l.85-12.18h12Zm.9-13h-12l.85-12.17h12Zm.91-13h-12l.85-12.18h12Zm.91-13h-12l.85-12.18h12Zm.91-13h-12l.85-12.18h12Zm1.86-25.05-.85 12.17h-12l.85-12.17Zm-12.79 0-.86 12.17h-12l.85-12.17Zm-12.79 0-.85 12.17h-12l.85-12.17Zm-12.79 0-.85 12.17h-12l.86-12.17Zm-12.78 0-.85 12.17h-12l.85-12.17Zm-12.79 0-.85 12.17h-12l.85-12.17Zm-12.78 0-.85 12.17h-12l.86-12.17Zm-12.79 0-.85 12.17h-12l.85-12.17Zm-12.78 0-.86 12.17h-12l.85-12.17Zm-12.79 0-.85 12.17h-12l.85-12.17Zm-12.79 0-.85 12.17h-12l.85-12.17Zm-12.78 0-.86 12.17h-12l.86-12.17Zm-12.79 0-.85 12.17h-12l.85-12.17Zm-12.79 0-.85 12.17h-12l.86-12.17Zm-12.78 0-.85 12.17h-12l.85-12.17Zm-12.79 0-.85 12.17h-12l.85-12.17Zm-24.69 0h11.91l-.85 12.17h-11.91Zm-.88 0-.85 12.17h-11.61l.85-12.17Zm-12.4 0-.86 12.17h-12l.85-12.17Zm-12.79 0-.85 12.17h-12l.85-12.17Zm-12.79 0-.85 12.17h-12l.86-12.17Zm-12.78 0-.87 12.17h-12l.85-12.17Zm-12.79 0-.85 12.17h-12l.85-12.17Zm-12.78 0-.85 12.17h-12l.86-12.17Zm-12.79 0-.85 12.17h-12l.85-12.17Zm-12.78 0-.86 12.17h-12l.85-12.17Zm-12.79 0-.85 12.17h-12l.85-12.17Z" style="mix-blend-mode:screen" fill="url(#am)"></path><g clip-path="url(#an)"><path fill="url(#ao)" d="m410.16 365.03 30.33-47.28-185.6 15.16 155.27 32.12z"></path><path fill="url(#i)" d="M394.97 320.48v-24.71l-116.84 30.26 116.84-5.55z"></path><path fill="#fff" d="m278.13 326.03 116.84-30.26-35.7-10.28-113.38 48.73 226.48-17.24-54.06-13.36-140.18 22.41z"></path></g><path fill="url(#ap)" d="M574.1 437.16h-64.86a6.32 6.32 0 0 0-6.26 5.51l-4.76 36.63a6.31 6.31 0 0 0 6.26 7.13h64.86a6.31 6.31 0 0 0 6.26-5.5l4.76-36.64a6.31 6.31 0 0 0-6.26-7.13Z"></path><path fill="#add4dc" d="M552.89 436.18v23.26h10.86a6.19 6.19 0 0 0 6.19-6.19v-17.07a4.76 4.76 0 0 1 4.76-4.75h-17.05a4.76 4.76 0 0 0-4.76 4.75Z"></path><path fill="url(#aq)" d="M559 454.69v-41.78a6.68 6.68 0 0 0-6.67-6.68h-50.58a6.68 6.68 0 0 1 6.67 6.68v41.78a4.76 4.76 0 0 0 4.76 4.75h50.54a4.76 4.76 0 0 1-4.72-4.75Z"></path><path fill="#add4dc" d="M547.76 414.47h7.35v.55h-7.35zM512.47 414.47h14.47v.55h-14.47zM529.19 414.47h2.12v.55h-2.12zM534.26 414.47h12.58v.55h-12.58zM512.47 416.91h7.35v.55h-7.35zM540.64 416.91h14.47v.55h-14.47zM536.27 416.91h2.12v.55h-2.12zM520.75 416.91h12.58v.55h-12.58zM547.76 419.46h7.35v.55h-7.35zM512.47 419.46h14.47v.55h-14.47zM529.19 419.46h2.12v.55h-2.12zM534.26 419.46h12.58v.55h-12.58zM512.47 421.9h7.35v.55h-7.35zM540.64 421.9h14.47v.55h-14.47zM536.27 421.9h2.12v.55h-2.12zM520.75 421.9h12.58v.55h-12.58zM547.76 424.44h7.35v.55h-7.35zM512.47 424.44h14.47v.55h-14.47zM529.19 424.44h2.12v.55h-2.12zM534.26 424.44h12.58v.55h-12.58zM512.47 426.88h7.35v.55h-7.35zM540.64 426.88h14.47v.55h-14.47zM536.27 426.88h2.12v.55h-2.12zM520.75 426.88h12.58v.55h-12.58zM547.76 429.42h7.35v.55h-7.35zM512.47 429.42h14.47v.55h-14.47zM529.19 429.42h2.12v.55h-2.12zM534.26 429.42h12.58v.55h-12.58zM512.47 431.86h7.35v.55h-7.35zM540.64 431.86h14.47v.55h-14.47zM536.27 431.86h2.12v.55h-2.12zM520.75 431.86h12.58v.55h-12.58zM547.76 434.41h7.35v.55h-7.35zM512.47 434.41h14.47v.55h-14.47zM529.19 434.41h2.12v.55h-2.12zM534.26 434.41h12.58v.55h-12.58zM512.47 436.85h7.35v.55h-7.35zM540.64 436.85h14.47v.55h-14.47zM536.27 436.85h2.12v.55h-2.12zM520.75 436.85h12.58v.55h-12.58zM547.76 439.39h7.35v.55h-7.35zM512.47 439.39h14.47v.55h-14.47zM529.19 439.39h2.12v.55h-2.12zM534.26 439.39h12.58v.55h-12.58zM512.47 441.83h7.35v.55h-7.35zM540.64 441.83h14.47v.55h-14.47zM536.27 441.83h2.12v.55h-2.12zM520.75 441.83h12.58v.55h-12.58z"></path><path fill="url(#ar)" d="M571.9 450.05a6.31 6.31 0 0 0-6.26-5.5h-64.85a6.31 6.31 0 0 0-6.26 7.13l3.72 29.25a6.31 6.31 0 0 0 6.26 5.5h64.86a6.31 6.31 0 0 0 6.26-7.13Z"></path><path fill="#fff" d="M498.67 410h49.21c0-3.59 4.41-3.73 4.41-3.73h-48.93a4.48 4.48 0 0 0-4.69 3.73Z"></path><path fill="#8e59de" d="M193.29 463.38c-1.21-1.74-2.59-3.7-5.31-3.7s-4.1 2-5.31 3.7-2.24 3.2-4.35 3.2-3.14-1.48-4.34-3.2-2.59-3.7-5.31-3.7-4.1 2-5.31 3.7-2.24 3.2-4.35 3.2-3.14-1.48-4.34-3.2-2.59-3.7-5.31-3.7-4.09 2-5.31 3.7-2.24 3.2-4.34 3.2-3.15-1.48-4.35-3.2-2.59-3.7-5.31-3.7-4.09 2-5.3 3.7-2.24 3.2-4.35 3.2-3.14-1.48-4.34-3.2-2.59-3.7-5.31-3.7-4.1 2-5.31 3.7-2.24 3.2-4.34 3.2-3.15-1.48-4.35-3.2-2.59-3.7-5.31-3.7-4.09 2-5.3 3.7-2.24 3.2-4.35 3.2-3.14-1.48-4.34-3.2-2.59-3.7-5.31-3.7v1.17c2.11 0 3.15 1.49 4.35 3.2s2.58 3.71 5.3 3.71 4.1-2 5.31-3.71 2.24-3.2 4.34-3.2 3.15 1.49 4.35 3.2 2.59 3.71 5.31 3.71 4.09-2 5.31-3.71 2.23-3.2 4.34-3.2 3.14 1.49 4.34 3.2 2.59 3.71 5.31 3.71 4.1-2 5.31-3.71 2.24-3.2 4.34-3.2 3.15 1.49 4.35 3.2 2.59 3.71 5.31 3.71 4.09-2 5.31-3.71 2.23-3.2 4.34-3.2 3.14 1.49 4.34 3.2 2.59 3.71 5.31 3.71 4.1-2 5.31-3.71 2.24-3.2 4.35-3.2 3.14 1.49 4.34 3.2 2.59 3.71 5.31 3.71 4.1-2 5.31-3.71 2.24-3.2 4.35-3.2 3.14 1.49 4.34 3.2 2.6 3.71 5.32 3.71v-1.18c-2.11 0-3.15-1.48-4.35-3.2ZM163.24 471.82c-1.2 1.72-2.24 3.2-4.35 3.2s-3.14-1.48-4.34-3.2-2.59-3.7-5.31-3.7-4.09 2-5.31 3.7-2.24 3.2-4.34 3.2-3.15-1.48-4.35-3.2-2.58-3.7-5.3-3.7-4.1 2-5.31 3.7-2.24 3.2-4.35 3.2-3.14-1.48-4.34-3.2-2.59-3.7-5.31-3.7-4.1 2-5.31 3.7S103.08 475 101 475v1.18c2.72 0 4.09-2 5.3-3.71s2.24-3.2 4.35-3.2 3.14 1.49 4.34 3.2 2.59 3.71 5.31 3.71 4.1-2 5.31-3.71 2.24-3.2 4.35-3.2 3.14 1.49 4.34 3.2 2.59 3.71 5.31 3.71 4.09-2 5.31-3.71 2.23-3.2 4.34-3.2 3.14 1.49 4.35 3.2 2.58 3.71 5.3 3.71 4.1-2 5.31-3.71 2.24-3.2 4.35-3.2v-1.17c-2.74.02-4.12 1.98-5.33 3.72Z"></path><path fill="url(#as)" d="m215.35 171.45 13.55-5.05 17.27-3.67-35.13-30.07 4.31 38.79z"></path><path fill="url(#at)" d="m228.9 166.4.42 7.92 6.85-9.47-25.13-32.19 17.86 33.74z"></path><path fill="#fff" d="m225.05 167.83 4.27 6.49-.42-7.92-3.85 1.43z"></path><path fill="#def0f4" d="m231.75 177.34-.57-.88c-.19-.29-.38-.57-.6-.87a1 1 0 0 0-1.65 1.21c.18.24.37.52.56.8l.54.83c.36.56.71 1.12 1.05 1.7a1 1 0 0 0 1.37.36 1 1 0 0 0 .36-1.37c-.33-.6-.69-1.19-1.06-1.78ZM235.08 183.4a1 1 0 1 0-1.8.79v.07l1.6 3.66v.08a1 1 0 0 0 1.78-.77ZM238.19 191.85a.95.95 0 1 0-1.83.49 34.4 34.4 0 0 1 .8 3.89.93.93 0 0 0 1.84-.23 37.79 37.79 0 0 0-.81-4.15ZM238.37 199.91a.93.93 0 0 0-.94.89 21.18 21.18 0 0 1-.45 3.89.9.9 0 0 0 .69 1.06.89.89 0 0 0 1.07-.69 22.86 22.86 0 0 0 .52-4.2.92.92 0 0 0-.89-.95ZM236.71 208.57a.88.88 0 0 0-1.17.41 18.49 18.49 0 0 1-2 3.32.87.87 0 0 0 1.37 1.06 20.38 20.38 0 0 0 2.25-3.61.87.87 0 0 0-.45-1.18ZM230.35 215.62a27.41 27.41 0 0 1-3.18 2.34.83.83 0 1 0 .88 1.4 28.75 28.75 0 0 0 3.4-2.46.84.84 0 1 0-1.1-1.28ZM223.14 220.13h-.07l-3.71 1.5h-.06a.79.79 0 1 0 .59 1.47l3.85-1.52a.81.81 0 1 0-.61-1.5ZM214.88 223a32.42 32.42 0 0 1-3.92.67.76.76 0 0 0 .15 1.51 33.65 33.65 0 0 0 4.12-.66.78.78 0 1 0-.36-1.52ZM206.35 223.7a20.06 20.06 0 0 1-3.86-.72.72.72 0 0 0-.9.48.73.73 0 0 0 .48.91 21.66 21.66 0 0 0 4.14.81.74.74 0 0 0 .8-.68.73.73 0 0 0-.66-.8ZM198.34 221.11a15.53 15.53 0 0 1-3-2.48.7.7 0 0 0-1 0 .69.69 0 0 0 0 1 17 17 0 0 0 3.25 2.73.7.7 0 0 0 .75-1.19ZM191.36 211.23a.66.66 0 0 0-.79-.48.65.65 0 0 0-.48.79 18.11 18.11 0 0 0 1.43 4 .67.67 0 1 0 1.19-.61 17 17 0 0 1-1.35-3.7ZM191 202a.62.62 0 0 0-.76.44 17.3 17.3 0 0 0-.62 4.17.64.64 0 1 0 1.27 0 16.44 16.44 0 0 1 .55-3.88.62.62 0 0 0-.44-.73ZM195 194.81a14.44 14.44 0 0 0-2.82 3.17.61.61 0 0 0 .18.84.6.6 0 0 0 .83-.19 13.46 13.46 0 0 1 2.56-2.92.59.59 0 1 0-.75-.9ZM203.45 191.49a16.76 16.76 0 0 0-4.12.89.58.58 0 0 0-.34.73.57.57 0 0 0 .73.34 15.64 15.64 0 0 1 3.83-.86.56.56 0 0 0 .5-.6.56.56 0 0 0-.6-.5ZM212.38 192.5a29.32 29.32 0 0 0-4.06-.87.53.53 0 0 0-.6.46.54.54 0 0 0 .46.6 29.29 29.29 0 0 1 3.92.8.51.51 0 0 0 .63-.35.52.52 0 0 0-.35-.64ZM220.57 196.1a29.71 29.71 0 0 0-3.65-1.95.5.5 0 0 0-.4.92 30 30 0 0 1 3.55 1.86.49.49 0 0 0 .66-.16.47.47 0 0 0-.16-.67ZM224.48 198.91a.46.46 0 1 0-.62.69l3 2.69a.45.45 0 0 0 .63 0 .45.45 0 0 0 0-.63ZM230.77 205.22a.43.43 0 1 0-.66.54l2.54 3.16a.42.42 0 0 0 .58.06.4.4 0 0 0 .06-.58Z"></path><path fill="#def0f4" d="M236.08 212.33a.39.39 0 0 0-.55-.12.4.4 0 0 0-.11.55l2.24 3.39a.38.38 0 0 0 .52.11.38.38 0 0 0 .11-.53ZM240.81 219.81a.36.36 0 0 0-.62.37l2.11 3.49a.35.35 0 0 0 .47.12.34.34 0 0 0 .12-.47ZM245.29 227.43a.32.32 0 0 0-.44-.11.32.32 0 0 0-.11.45l2.09 3.5a.31.31 0 0 0 .42.1.3.3 0 0 0 .11-.42ZM252 238.47l-2.19-3.47a.28.28 0 0 0-.4-.09.3.3 0 0 0-.09.4l2.19 3.44a.28.28 0 1 0 .47-.29ZM256.94 245.74l-2.35-3.31a.25.25 0 1 0-.41.3l2.39 3.31a.24.24 0 0 0 .39-.28ZM262.51 252.57l-2.66-3.08a.22.22 0 1 0-.33.29l2.7 3.07a.19.19 0 0 0 .28 0 .2.2 0 0 0 0-.28ZM268.85 258.68l-3-2.71a.19.19 0 0 0-.27 0 .19.19 0 0 0 0 .26l3.07 2.7a.17.17 0 1 0 .22-.25ZM276 263.75l-3.43-2.19a.15.15 0 0 0-.21 0 .16.16 0 0 0 .05.21l3.49 2.23a.14.14 0 0 0 .15-.23ZM284 267.5l-3.75-1.5a.14.14 0 0 0-.16.07.12.12 0 0 0 .07.15l3.79 1.52a.1.1 0 1 0 .08-.18ZM292.52 269.78l-4-.88a.08.08 0 1 0 0 .16l4 .85a.08.08 0 0 0 .07-.05.06.06 0 0 0-.07-.08ZM297.23 270.42l-.05.05a.05.05 0 0 0 .05 0l4.07.22ZM306.05 270.67l3.12-.2-3.12.17Z"></path><g style="mix-blend-mode:multiply"><path fill="url(#au)" d="M466.9 107.65a21.81 21.81 0 0 0-5 3.64 22.15 22.15 0 0 0-4.42 6.15 21.9 21.9 0 0 0-2.15 8.56 14.26 14.26 0 0 0 0 2.39 16.27 16.27 0 0 0 .28 2.46 21.89 21.89 0 0 0 1.49 4.91 22.18 22.18 0 0 0 6.51 8.41l-2.41 10.74 10.8-6.66.83.19a22.1 22.1 0 0 0 4.47.46 20.24 20.24 0 0 0 3.24-.26 21.17 21.17 0 0 0 7.12-2.34 21.88 21.88 0 0 0 9.58-10.18 20.89 20.89 0 0 0 1.83-6.34C501.12 112 483 99.45 466.9 107.65Zm31.43 22a20.32 20.32 0 0 1-1.78 6.13 21.19 21.19 0 0 1-9.29 9.84 20.18 20.18 0 0 1-6.89 2.25 18.68 18.68 0 0 1-3.12.26 21.42 21.42 0 0 1-4.32-.45l-.95-.22h-.16l-9.47 5.91 2.12-9.49-.18-.14a21.45 21.45 0 0 1-6.5-8.26 21.91 21.91 0 0 1-1.45-4.75 16.66 16.66 0 0 1-.28-2.37 16.91 16.91 0 0 1 0-2.33 21.28 21.28 0 0 1 2.05-8.31 21.29 21.29 0 0 1 9.08-9.59 23.56 23.56 0 0 1 7.84-2.51c13.4-1.43 25.26 10.62 23.3 24.07Z"></path><path fill="url(#av)" d="M488.05 118.43h-21.59a.38.38 0 0 0-.35.24.39.39 0 0 0 .1.42l10.65 9.31a.35.35 0 0 0 .25.1.38.38 0 0 0 .25-.09l10.93-9.32a.37.37 0 0 0-.24-.66Zm-10.93 9.19-9.65-8.44H487Z"></path><path fill="url(#aw)" d="m474.27 125.79-7.74 6.77a.38.38 0 0 0 0 .53.34.34 0 0 0 .28.13.38.38 0 0 0 .25-.09l7.74-6.77a.38.38 0 0 0 0-.53.37.37 0 0 0-.53-.04Z"></path><path fill="url(#ax)" d="M488.05 118.43a.37.37 0 0 0-.38.37v13.37a.8.8 0 0 1-.8.8h-19.05a1 1 0 0 1-1-1V118.8a.37.37 0 0 0-.38-.37.36.36 0 0 0-.37.37V132a1.72 1.72 0 0 0 1.73 1.73h19.05a1.54 1.54 0 0 0 1.55-1.55V118.8a.36.36 0 0 0-.35-.37Z"></path><path fill="url(#ay)" d="M480.07 125.72a.38.38 0 0 0-.53 0 .39.39 0 0 0 0 .54l7.56 6.84a.35.35 0 0 0 .25.1.39.39 0 0 0 .28-.12.37.37 0 0 0 0-.53Z"></path></g><path fill="#eb5f47" d="M709.67 242.14a3.23 3.23 0 0 0-3.47.46l-27.93 23.62a3.24 3.24 0 0 0 0 4.91l27.49 24.14a3.21 3.21 0 0 0 2.14.8 3.26 3.26 0 0 0 1.32-.28 3.23 3.23 0 0 0 1.91-2.92l.45-47.77a3.26 3.26 0 0 0-1.91-2.96Zm-5 43.6-19.35-17L705 252.11Z"></path><path fill="#ffd032" d="M422.54 161.19A12.81 12.81 0 1 0 435.35 174a12.82 12.82 0 0 0-12.81-12.81Zm0 19.14a6.34 6.34 0 1 1 6.34-6.33 6.34 6.34 0 0 1-6.34 6.33Z"></path><path fill="url(#az)" d="M375.45 141.11h-84.19a8.53 8.53 0 0 0-8.53 8.52v17.51a10 10 0 0 0 2.51 6.63l-2.51 11.45 14.45-8H375a7.8 7.8 0 0 0 7.79-7.8V148.5a7.38 7.38 0 0 0-7.34-7.39Z"></path><path fill="url(#aA)" d="m300.34 156.11-2.04-4.14-2.04 4.14-4.57.66 3.31 3.22-.78 4.55 4.08-2.14 4.09 2.14-.78-4.55 3.3-3.22-4.57-.66z"></path><path fill="url(#aB)" d="m317.57 156.11-2.04-4.14-2.04 4.14-4.57.66 3.3 3.22-.78 4.55 4.09-2.14 4.08 2.14-.78-4.55 3.31-3.22-4.57-.66z"></path><path fill="url(#aC)" d="m334.8 156.11-2.04-4.14-2.05 4.14-4.56.66 3.3 3.22-.78 4.55 4.09-2.14 4.08 2.14-.78-4.55 3.31-3.22-4.57-.66z"></path><path fill="url(#aD)" d="m352.02 156.11-2.04-4.14-2.04 4.14-4.56.66 3.3 3.22-.78 4.55 4.08-2.14 4.09 2.14-.78-4.55 3.3-3.22-4.57-.66z"></path><path fill="url(#aE)" d="m369.25 156.11-2.04-4.14-2.04 4.14-4.57.66 3.31 3.22-.78 4.55 4.08-2.14 4.09 2.14-.79-4.55 3.31-3.22-4.57-.66z"></path><path fill="#35375a" d="m663.83 486.88-38.19-.39q-38.17-.32-76.37-.52c-25.46-.16-50.91-.19-76.37-.29l-76.38-.1-76.37.1c-25.46.09-50.91.13-76.37.29s-50.92.31-76.37.51l-38.19.4-19.09.2-19.1.27 19.1.27 19.09.2 38.19.39q38.18.32 76.37.52c25.46.16 50.91.19 76.37.29l76.37.09 76.38-.11c25.46-.1 50.91-.14 76.37-.3s50.92-.31 76.37-.51l38.19-.4 19.09-.2 19.1-.26-19.1-.27Z"></path><path fill="#fff" d="M706.63 434.31a12.81 12.81 0 1 0 12.81 12.81 12.82 12.82 0 0 0-12.81-12.81Zm0 19.14a6.34 6.34 0 1 1 6.33-6.33 6.35 6.35 0 0 1-6.33 6.33ZM72.14 413.43A12.81 12.81 0 1 0 85 426.24a12.82 12.82 0 0 0-12.86-12.81Zm0 19.14a6.34 6.34 0 1 1 6.34-6.33 6.34 6.34 0 0 1-6.34 6.33Z"></path></g></svg>