<svg xmlns="http://www.w3.org/2000/svg" xmlns:xlink="http://www.w3.org/1999/xlink" viewBox="0 0 1489.138 1130.006" id="blockchain-and-cryptocurrency-mining-software-development"><defs><linearGradient id="a" x1="970.437" x2="1138.636" y1="1119.347" y2="1119.347" gradientUnits="userSpaceOnUse"><stop offset="0" stop-color="#c4c9e5"></stop><stop offset="1" stop-color="#fff"></stop></linearGradient><linearGradient id="k" x1="459.855" x2="628.054" y1="824.562" y2="824.562" xlink:href="#a"></linearGradient><linearGradient id="l" x1="1303.948" x2="1472.148" y1="926.796" y2="926.796" xlink:href="#a"></linearGradient><linearGradient id="m" x1="894.898" x2="946.877" y1="681.806" y2="681.806" xlink:href="#a"></linearGradient><linearGradient id="n" x1="874.149" x2="940.815" y1="680.17" y2="680.17" gradientUnits="userSpaceOnUse"><stop offset=".264" stop-color="#6a69e0"></stop><stop offset=".342" stop-color="#5f5ed0"></stop><stop offset=".493" stop-color="#4141a7"></stop><stop offset=".494" stop-color="#4141a7"></stop></linearGradient><linearGradient id="d" x1="523.619" x2="669.376" y1="460.195" y2="460.195" gradientUnits="userSpaceOnUse"><stop offset="0" stop-color="#c6cbe7"></stop><stop offset="1" stop-color="#fff"></stop></linearGradient><linearGradient id="o" x1="726.905" x2="867.886" y1="340.553" y2="340.553" gradientUnits="userSpaceOnUse"><stop offset="0" stop-color="#c6cbe7"></stop><stop offset=".056" stop-color="#cacee9"></stop><stop offset=".675" stop-color="#f0f2f9"></stop><stop offset="1" stop-color="#fff"></stop></linearGradient><linearGradient id="p" x1="632.177" x2="683.781" y1="425.296" y2="335.915" gradientUnits="userSpaceOnUse"><stop offset=".38" stop-color="#6a6ae2"></stop><stop offset=".586" stop-color="#4141aa"></stop></linearGradient><linearGradient id="q" x1="574.298" x2="639.995" y1="410.069" y2="296.279" gradientUnits="userSpaceOnUse"><stop offset=".414" stop-color="#d0d4f6"></stop><stop offset=".62" stop-color="#f7f7fc"></stop></linearGradient><linearGradient id="b" x1="613.701" x2="648.775" y1="288.2" y2="348.949" gradientUnits="userSpaceOnUse"><stop offset="0" stop-color="#d3d8f2"></stop><stop offset=".51" stop-color="#e3e6f7"></stop><stop offset="1" stop-color="#f7f7fc"></stop></linearGradient><linearGradient id="r" x1="684.825" x2="798.579" y1="252.957" y2="252.957" xlink:href="#b"></linearGradient><linearGradient id="c" x1="656.933" x2="796.78" y1="219.445" y2="219.445" gradientUnits="userSpaceOnUse"><stop offset=".396" stop-color="#d0d4f6"></stop><stop offset=".552" stop-color="#c0c4e7"></stop><stop offset=".574" stop-color="#bdc1e4"></stop></linearGradient><linearGradient id="s" x1="-928.869" x2="-863.172" y1="467.592" y2="353.801" gradientTransform="translate(1403.658)" gradientUnits="userSpaceOnUse"><stop offset=".414" stop-color="#d0d4f6"></stop><stop offset=".601" stop-color="#f7f7fc"></stop></linearGradient><linearGradient id="t" x1="480.486" x2="590.487" y1="374.149" y2="374.149" xlink:href="#b"></linearGradient><linearGradient id="u" x1="-438.915" x2="-373.218" y1="318.593" y2="204.802" gradientTransform="matrix(-1 0 0 1 229.414 0)" gradientUnits="userSpaceOnUse"><stop offset=".414" stop-color="#b2b8db"></stop><stop offset=".62" stop-color="#f7f7fc"></stop></linearGradient><linearGradient id="v" x1="613.45" x2="679.148" y1="198.556" y2="312.348" gradientUnits="userSpaceOnUse"><stop offset=".238" stop-color="#dce1f4"></stop><stop offset=".426" stop-color="#eceff9"></stop><stop offset=".597" stop-color="#fff"></stop></linearGradient><linearGradient id="w" x1="551.39" x2="691.239" y1="189.614" y2="189.614" xlink:href="#c"></linearGradient><linearGradient id="x" x1="593.886" x2="648.743" y1="128.161" y2="128.161" gradientUnits="userSpaceOnUse"><stop offset="0" stop-color="#a5aace"></stop><stop offset="1" stop-color="#bdc1e4"></stop></linearGradient><linearGradient id="g" x1="767.271" x2="836.999" y1="436.792" y2="436.792" gradientUnits="userSpaceOnUse"><stop offset="0" stop-color="#d1d6f0"></stop><stop offset=".26" stop-color="#e1e4f5"></stop><stop offset=".711" stop-color="#f7f8fc"></stop><stop offset="1" stop-color="#fff"></stop></linearGradient><linearGradient id="y" x1="645.026" x2="403.862" y1="280.013" y2="205.86" gradientTransform="matrix(-1 0 0 1 1603.682 0)" gradientUnits="userSpaceOnUse"><stop offset="0" stop-color="#338"></stop><stop offset="1" stop-color="#696cd9"></stop></linearGradient><linearGradient id="z" x1="501.929" x2="501.929" y1="299.005" y2="139.416" gradientTransform="matrix(-.866 -.5 0 1.1547 1512.648 256.238)" gradientUnits="userSpaceOnUse"><stop offset="0"></stop><stop offset=".182" stop-color="#2c180e"></stop><stop offset=".583" stop-color="#874b2d"></stop><stop offset=".865" stop-color="#c06b40"></stop><stop offset="1" stop-color="#d67747"></stop></linearGradient><linearGradient id="A" x1="376.974" x2="580.277" y1="392.201" y2="40.07" gradientTransform="matrix(-1 0 0 1 1603.682 0)" gradientUnits="userSpaceOnUse"><stop offset=".396" stop-color="#338"></stop><stop offset=".479" stop-color="#6a6ae2"></stop></linearGradient><linearGradient id="B" x1="959.349" x2="1119.722" y1="283.589" y2="283.589" gradientUnits="userSpaceOnUse"><stop offset="0" stop-color="#d3d8f2"></stop><stop offset=".533" stop-color="#dde1f4"></stop><stop offset="1" stop-color="#eaedf7"></stop></linearGradient><linearGradient id="C" x1="915.661" x2="1218.343" y1="506.971" y2="506.971" gradientUnits="userSpaceOnUse"><stop offset="0" stop-color="#c4c9e5"></stop><stop offset=".396" stop-color="#e2e5f2"></stop><stop offset=".76" stop-color="#f7f8fc"></stop><stop offset="1" stop-color="#fff"></stop></linearGradient><linearGradient id="D" x1="328.915" x2="543.729" y1="527.044" y2="527.044" gradientTransform="matrix(-1 0 0 1 1380.951 0)" gradientUnits="userSpaceOnUse"><stop offset=".242" stop-color="#4141a7"></stop><stop offset=".305" stop-color="#4343a9"></stop><stop offset=".338" stop-color="#4848b1"></stop><stop offset=".364" stop-color="#5252bf"></stop><stop offset=".386" stop-color="#605fd2"></stop><stop offset=".399" stop-color="#6a69e0"></stop></linearGradient><linearGradient id="E" x1="913.53" x2="1049.175" y1="502.452" y2="502.452" gradientUnits="userSpaceOnUse"><stop offset="0" stop-color="#dce1f4"></stop><stop offset=".331" stop-color="#e2e7f6"></stop><stop offset=".794" stop-color="#f5f6fc"></stop><stop offset="1" stop-color="#fff"></stop></linearGradient><linearGradient id="F" x1="540.777" x2="273.219" y1="27.493" y2="490.918" gradientTransform="matrix(-1 0 0 1 1380.951 0)" gradientUnits="userSpaceOnUse"><stop offset=".635" stop-color="#6a6ae2"></stop><stop offset=".697" stop-color="#1e1c6b"></stop></linearGradient><linearGradient id="G" x1="874.456" x2="1015.768" y1="215.703" y2="460.461" gradientUnits="userSpaceOnUse"><stop offset=".551" stop-color="#f3b378"></stop><stop offset=".582" stop-color="#d08051"></stop><stop offset=".6" stop-color="#ba6038"></stop></linearGradient><linearGradient id="H" x1="881.784" x2="962.542" y1="616.563" y2="616.563" gradientTransform="translate(13.375)" xlink:href="#a"></linearGradient><linearGradient id="I" x1="362.905" x2="584.31" y1="593.036" y2="593.036" gradientTransform="matrix(-1 0 0 1 1330.791 0)" gradientUnits="userSpaceOnUse"><stop offset=".264" stop-color="#4141aa"></stop><stop offset=".289" stop-color="#4c4cba"></stop><stop offset=".337" stop-color="#6a6ae2"></stop></linearGradient><linearGradient id="J" x1="738.332" x2="765.162" y1="616.634" y2="552.241" xlink:href="#a"></linearGradient><linearGradient id="K" x1="780.264" x2="830.008" y1="699.283" y2="579.899" xlink:href="#a"></linearGradient><linearGradient id="L" x1="855.458" x2="977.855" y1="939.526" y2="939.526" xlink:href="#a"></linearGradient><linearGradient id="M" x1="785.7" x2="908.097" y1="893.627" y2="893.627" xlink:href="#a"></linearGradient><linearGradient id="O" x1="637.931" x2="760.327" y1="1105.6" y2="1105.6" xlink:href="#d"></linearGradient><linearGradient id="P" x1="795.73" x2="918.128" y1="1014.494" y2="1014.494" xlink:href="#d"></linearGradient><linearGradient id="Q" x1="500.694" x2="623.091" y1="1026.365" y2="1026.365" xlink:href="#d"></linearGradient><linearGradient id="R" x1="658.493" x2="780.89" y1="935.26" y2="935.26" xlink:href="#d"></linearGradient><linearGradient id="S" x1="807.74" x2="485.516" y1="843.158" y2="843.158" gradientUnits="userSpaceOnUse"><stop offset=".356" stop-color="#a7acca"></stop><stop offset=".669" stop-color="#b8bdda"></stop><stop offset="1" stop-color="#c6cbe7"></stop></linearGradient><linearGradient id="T" x1="-167.819" x2="-80.519" y1="931.164" y2="931.164" gradientTransform="matrix(-1 0 0 1 747.87 0)" gradientUnits="userSpaceOnUse"><stop offset="0" stop-color="#5555c6"></stop><stop offset=".655" stop-color="#3d3b9e"></stop><stop offset="1" stop-color="#34318f"></stop></linearGradient><linearGradient id="U" x1="-135.18" x2="202.57" y1="811.641" y2="811.641" gradientTransform="matrix(-1 0 0 1 747.87 0)" gradientUnits="userSpaceOnUse"><stop offset="0" stop-color="#5555c6"></stop><stop offset=".082" stop-color="#4d4cb9"></stop><stop offset=".261" stop-color="#3f3da2"></stop><stop offset=".43" stop-color="#373494"></stop><stop offset=".576" stop-color="#34318f"></stop></linearGradient><linearGradient id="e" x1="738.23" x2="528.897" y1="599.279" y2="551.279" gradientUnits="userSpaceOnUse"><stop offset="0" stop-color="#d67747"></stop><stop offset=".12" stop-color="#da804e"></stop><stop offset=".696" stop-color="#eca56c"></stop><stop offset="1" stop-color="#f3b378"></stop></linearGradient><linearGradient id="V" x1="744.577" x2="535.238" y1="571.625" y2="523.624" gradientUnits="userSpaceOnUse"><stop offset="0" stop-color="#ed995a"></stop><stop offset=".444" stop-color="#e28851"></stop><stop offset="1" stop-color="#d67747"></stop></linearGradient><linearGradient id="W" x1="23.034" x2="202.57" y1="654.683" y2="654.683" gradientTransform="matrix(-1 0 0 1 747.87 0)" gradientUnits="userSpaceOnUse"><stop offset="0" stop-color="#d67747"></stop><stop offset=".3" stop-color="#dd8552"></stop><stop offset=".862" stop-color="#eea970"></stop><stop offset="1" stop-color="#f3b378"></stop></linearGradient><linearGradient id="X" x1="828.397" x2="635.064" y1="627.505" y2="572.838" xlink:href="#e"></linearGradient><linearGradient id="Y" x1="807.739" x2="485.517" y1="786.028" y2="786.028" gradientUnits="userSpaceOnUse"><stop offset=".356" stop-color="#bdc1e4"></stop><stop offset=".43" stop-color="#c5c8e7"></stop><stop offset=".802" stop-color="#e9eaf6"></stop><stop offset="1" stop-color="#f7f7fc"></stop></linearGradient><linearGradient id="Z" x1="1022.71" x2="1068.733" y1="614.754" y2="614.754" gradientUnits="userSpaceOnUse"><stop offset="0" stop-color="#c4c8e1"></stop><stop offset=".064" stop-color="#cccfe5"></stop><stop offset=".33" stop-color="#e8e9f3"></stop><stop offset=".563" stop-color="#f9f9fc"></stop><stop offset=".736" stop-color="#fff"></stop></linearGradient><linearGradient id="f" x1="1126.4" x2="1312.577" y1="682.849" y2="682.849" gradientUnits="userSpaceOnUse"><stop offset="0" stop-color="#c6cbe7"></stop><stop offset=".969" stop-color="#fff"></stop></linearGradient><linearGradient id="aa" x1="1373.567" x2="1230.722" y1="627.896" y2="627.896" gradientUnits="userSpaceOnUse"><stop offset="0" stop-color="#eaedf7"></stop><stop offset="1" stop-color="#dce1f4"></stop></linearGradient><linearGradient id="ab" x1="1230.722" x2="1300.517" y1="591.174" y2="591.174" xlink:href="#d"></linearGradient><linearGradient id="ac" x1="1166.634" x2="1294.808" y1="592.822" y2="592.822" gradientUnits="userSpaceOnUse"><stop offset=".396" stop-color="#7f7ff4"></stop><stop offset=".445" stop-color="#7171e4"></stop><stop offset=".542" stop-color="#4e4eb9"></stop><stop offset=".574" stop-color="#4141aa"></stop></linearGradient><linearGradient id="ad" x1="1160.929" x2="1300.517" y1="631.59" y2="631.59" xlink:href="#c"></linearGradient><linearGradient id="ae" x1="1160.929" x2="1300.517" y1="586.451" y2="586.451" xlink:href="#c"></linearGradient><linearGradient id="af" x1="1192.253" x2="1300.517" y1="544.666" y2="544.666" gradientUnits="userSpaceOnUse"><stop offset="0" stop-color="#dce1f4"></stop><stop offset=".651" stop-color="#eceef9"></stop><stop offset="1" stop-color="#f7f7fc"></stop></linearGradient><linearGradient id="ag" x1="-958.992" x2="-886.872" y1="697.479" y2="572.564" gradientTransform="matrix(-1 0 0 1 229.414 0)" gradientUnits="userSpaceOnUse"><stop offset=".414" stop-color="#bdc1e4"></stop><stop offset=".62" stop-color="#f7f7fc"></stop></linearGradient><linearGradient id="ah" x1="1160.778" x2="1300.626" y1="517.214" y2="517.214" xlink:href="#c"></linearGradient><linearGradient id="ai" x1="1230.698" x2="1274.795" y1="462.445" y2="462.445" xlink:href="#f"></linearGradient><linearGradient id="aj" x1="457.718" x2="585.892" y1="339.706" y2="339.706" gradientUnits="userSpaceOnUse"><stop offset=".396" stop-color="#5555c6"></stop><stop offset=".459" stop-color="#4b4ab6"></stop><stop offset=".574" stop-color="#34318f"></stop></linearGradient><linearGradient id="ak" x1="486.868" x2="556.743" y1="372.337" y2="372.337" xlink:href="#c"></linearGradient><linearGradient id="al" x1="479.614" x2="563.997" y1="279.516" y2="279.516" gradientUnits="userSpaceOnUse"><stop offset="0" stop-color="#7f7ff4"></stop><stop offset=".416" stop-color="#7070e4"></stop><stop offset="1" stop-color="#5555c6"></stop></linearGradient><linearGradient id="am" x1="486.868" x2="556.743" y1="327.198" y2="327.198" xlink:href="#c"></linearGradient><linearGradient id="an" x1="751.177" x2="844.248" y1="478.754" y2="478.754" xlink:href="#g"></linearGradient><linearGradient id="ao" x1="498.29" x2="540.564" y1="455.163" y2="455.163" gradientTransform="matrix(-1 0 0 1 1325.955 0)" gradientUnits="userSpaceOnUse"><stop offset="0" stop-color="#bdc1e4"></stop><stop offset="1" stop-color="#d0d4f6"></stop></linearGradient><linearGradient id="ap" x1="491.042" x2="547.812" y1="464.006" y2="464.006" gradientTransform="matrix(-1 0 0 1 1325.955 0)" gradientUnits="userSpaceOnUse"><stop offset="0" stop-color="#d0d4f6"></stop><stop offset=".771" stop-color="#bdc1e4"></stop></linearGradient><linearGradient id="aq" x1="545.233" x2="573.613" y1="449.914" y2="499.07" gradientTransform="matrix(-1 0 0 1 1325.955 0)" gradientUnits="userSpaceOnUse"><stop offset=".492" stop-color="#f3b378"></stop><stop offset="1" stop-color="#d67747"></stop></linearGradient><linearGradient id="h" x1="1053.764" x2="1098.427" y1="748.532" y2="748.532" gradientUnits="userSpaceOnUse"><stop offset="0" stop-color="#c6cbe7"></stop><stop offset=".81" stop-color="#f4f5fa"></stop><stop offset="1" stop-color="#fff"></stop></linearGradient><linearGradient id="i" x1="1056.374" x2="1083.048" y1="741.123" y2="741.123" gradientUnits="userSpaceOnUse"><stop offset=".595" stop-color="#bdc1e4"></stop><stop offset=".623" stop-color="#c0c4e7"></stop><stop offset=".821" stop-color="#d0d4f6"></stop></linearGradient><linearGradient id="j" x1="1047.378" x2="1092.04" y1="749.931" y2="749.931" gradientUnits="userSpaceOnUse"><stop offset=".179" stop-color="#d0d4f6"></stop><stop offset=".511" stop-color="#c0c4e7"></stop><stop offset=".558" stop-color="#bdc1e4"></stop></linearGradient><linearGradient id="ar" x1="1004.239" x2="1048.903" y1="777.124" y2="777.124" xlink:href="#h"></linearGradient><linearGradient id="as" x1="1006.849" x2="1033.525" y1="769.717" y2="769.717" xlink:href="#i"></linearGradient><linearGradient id="at" x1="997.853" x2="1042.517" y1="778.525" y2="778.525" xlink:href="#j"></linearGradient><linearGradient id="au" x1="964.304" x2="1008.966" y1="754.403" y2="754.403" xlink:href="#h"></linearGradient><linearGradient id="av" x1="966.913" x2="993.587" y1="746.994" y2="746.994" xlink:href="#i"></linearGradient><linearGradient id="aw" x1="957.917" x2="1002.581" y1="755.802" y2="755.802" xlink:href="#j"></linearGradient><linearGradient id="ax" x1="1013.683" x2="1059.153" y1="724.79" y2="724.79" xlink:href="#h"></linearGradient><clipPath id="N"><path fill="none" d="M1022.739 846.443 511.8 551.455v12.69l.742-.297-52.687 271.373 510.582 294.785 52.72-271.522-.775.448.357-12.489z"></path></clipPath></defs><g style="isolation:isolate"><g data-name="Thin line blocks"><path fill="#dce1f4" d="M94.725 944.598a.993.993 0 0 1-.5-.135l-89.91-51.908a.999.999 0 0 1 0-1.73l89.91-51.91a.995.995 0 0 1 1 0l89.909 51.91a.999.999 0 0 1 0 1.73l-89.91 51.908a.993.993 0 0 1-.5.135Zm-87.91-52.909 87.91 50.754 87.909-50.754-87.91-50.755Z"></path><path fill="#dce1f4" d="M94.725 1048.416a.993.993 0 0 1-.5-.135l-89.91-51.91a.997.997 0 0 1-.5-.865V891.689a1 1 0 0 1 2 0v103.239l88.91 51.334 88.909-51.334V891.689a1 1 0 0 1 2 0v103.817a.997.997 0 0 1-.5.865l-89.91 51.91a.993.993 0 0 1-.5.135Z"></path><path fill="#dce1f4" d="M94.725 1048.416a1 1 0 0 1-1-1V943.598a1 1 0 0 1 2 0v103.818a1 1 0 0 1-1 1Z"></path><circle cx="94.724" cy="839.78" r="4.816" fill="#dce1f4"></circle><circle cx="4.816" cy="891.689" r="4.816" fill="#dce1f4"></circle><circle cx="4.816" cy="995.506" r="4.816" fill="#dce1f4"></circle><circle cx="94.725" cy="1047.415" r="4.816" fill="#dce1f4"></circle><circle cx="94.725" cy="943.598" r="4.816" fill="#dce1f4"></circle><circle cx="184.634" cy="891.689" r="4.816" fill="#dce1f4"></circle><circle cx="184.634" cy="995.506" r="4.816" fill="#dce1f4"></circle><path fill="#dce1f4" d="M1421.085 349.138a1.004 1.004 0 0 1-.5-.134l-63.238-36.51a1 1 0 0 1 0-1.732l63.238-36.51a1.004 1.004 0 0 1 1 0l63.236 36.51a1 1 0 0 1 0 1.732l-63.236 36.51a1.005 1.005 0 0 1-.5.134Zm-61.238-37.51 61.238 35.355 61.236-35.355-61.236-35.356Z"></path><path fill="#dce1f4" d="M1421.085 422.157a1.005 1.005 0 0 1-.5-.134l-63.238-36.51a1.002 1.002 0 0 1-.5-.866v-73.02a1 1 0 0 1 2 0v72.443l62.238 35.933 62.236-35.933v-72.442a1 1 0 0 1 2 0v73.02a1.002 1.002 0 0 1-.5.866l-63.236 36.51a1.006 1.006 0 0 1-.5.133Z"></path><path fill="#dce1f4" d="M1421.085 422.157a1 1 0 0 1-1-1v-73.02a1 1 0 0 1 2 0v73.02a1 1 0 0 1-1 1Z"></path><circle cx="1421.084" cy="275.118" r="4.816" fill="#dce1f4"></circle><circle cx="1357.848" cy="311.628" r="4.816" fill="#dce1f4"></circle><circle cx="1357.848" cy="384.647" r="4.816" fill="#dce1f4"></circle><circle cx="1421.085" cy="421.157" r="4.816" fill="#dce1f4"></circle><circle cx="1421.085" cy="348.138" r="4.816" fill="#dce1f4"></circle><path fill="#dce1f4" d="M1479.506 311.628a4.816 4.816 0 1 1 4.816 4.816 4.816 4.816 0 0 1-4.816-4.816ZM1479.506 384.647a4.816 4.816 0 1 1 4.816 4.816 4.816 4.816 0 0 1-4.816-4.816ZM268.763 129.161a1.003 1.003 0 0 1-.5-.134l-53.226-30.73a1 1 0 0 1 0-1.733l53.226-30.729a1.004 1.004 0 0 1 1 0l53.225 30.73a1 1 0 0 1 0 1.732l-53.225 30.73a1.003 1.003 0 0 1-.5.134Zm-51.226-31.73 51.226 29.576 51.225-29.576-51.225-29.575Z"></path><path fill="#dce1f4" d="M268.763 190.621a1.002 1.002 0 0 1-.5-.134l-53.226-30.73a1 1 0 0 1-.5-.866V97.43a1 1 0 0 1 2 0v60.883l52.226 30.153 52.225-30.154V97.431a1 1 0 0 1 2 0v61.46a1 1 0 0 1-.5.866l-53.225 30.73a1.002 1.002 0 0 1-.5.134Z"></path><path fill="#dce1f4" d="M268.763 190.621a1 1 0 0 1-1-1v-61.46a1 1 0 0 1 2 0v61.46a1 1 0 0 1-1 1ZM263.947 66.701a4.816 4.816 0 1 1 4.815 4.816 4.816 4.816 0 0 1-4.815-4.816ZM210.721 97.431a4.816 4.816 0 1 1 4.816 4.816 4.816 4.816 0 0 1-4.816-4.816ZM210.721 158.89a4.816 4.816 0 1 1 4.816 4.817 4.816 4.816 0 0 1-4.816-4.816Z"></path><path fill="#dce1f4" d="M263.947 189.62a4.816 4.816 0 1 1 4.816 4.817 4.816 4.816 0 0 1-4.816-4.816ZM263.947 128.161a4.816 4.816 0 1 1 4.816 4.816 4.816 4.816 0 0 1-4.816-4.816ZM317.173 97.431a4.816 4.816 0 1 1 4.815 4.816 4.816 4.816 0 0 1-4.815-4.816ZM317.173 158.89a4.816 4.816 0 1 1 4.816 4.817 4.816 4.816 0 0 1-4.816-4.816Z"></path></g><path fill="url(#a)" d="M970.437 1108.688h168.199v21.318H970.437z"></path><path fill="url(#k)" d="M459.855 813.902h168.199v21.318H459.855z"></path><path fill="url(#l)" d="M1303.948 916.137h168.199v21.318h-168.199z"></path><path fill="#4141aa" d="m1303.948 937.455-56.961-224.871 17.321-10 56.961 224.871-17.321 10zM987.757 1120.006l56.963-290.641-17.322 10-56.961 290.641 17.32-10z"></path><path fill="#6a6ae2" d="m970.437 1130.006-17.321-10 56.961-290.641 17.321 10-56.961 290.641zM1303.948 937.455l-17.32-10-56.961-224.871 17.32 10 56.961 224.871z"></path><path fill="#4141aa" d="M1022.382 802.932v56l275.816-159.243v-56l-275.816 159.243z"></path><path fill="#6a6ae2" d="M976.196 776.264v56l46.186 26.668v-56l-46.186-26.668z"></path><path fill="#4141a7" d="m793.366 608.908-56.961-191.11 17.321-10 56.961 191.11-17.321 10z"></path><path fill="#4141aa" d="m477.175 825.221 56.963-290.645-17.322 10-56.961 290.645 17.32-10z"></path><path fill="#6a6ae2" d="m459.855 835.221-17.321-10 56.961-290.645 17.321 10-56.961 290.645z"></path><path fill="#6a69e0" d="m793.366 608.908-17.32-10-56.961-191.11 17.32 10 56.961 191.11z"></path><path fill="#4141a7" d="M511.8 508.143v56.002l275.816-159.242v-56L511.8 508.143z"></path><path fill="#6a6ae2" d="M465.614 481.477v55.998l46.186 26.67v-56.002l-46.186-26.666z"></path><path fill="#ced2f4" d="M1022.739 846.443 390.245 481.277v-16.004l632.494 365.174v15.996z"></path><path fill="#bbbfe2" d="m1022.739 830.447 350.834-202.554-.002 16-350.832 202.554v-16z"></path><path fill="#f0f0f4" d="m390.243 465.277 350.834-202.552 632.49 365.172-350.828 202.55-632.496-365.17z"></path><g><path d="M940.814 668.107s-1.346 4.977-4.147 6.596l-26.434 15.26-1.335-.912s-6.25 3.25-14 6.453c14.875 0 17.082-1.025 19.898-2.426 16.488-7.348 23.758-11.31 31.797-18.162 1.832-1.668-5.78-6.809-5.78-6.809Z" style="mix-blend-mode:multiply" fill="url(#m)"></path><path fill="#fff" d="M936.646 660.289c2.623 1.514 4.123 3.092 4.168 4.547.052 1.615-1.631 3.076-4.518 4.135-11.867 4.64-18.73 8.838-31.459 18.357-5.53 4.373-14.582 6.137-20.12 2.944l-6.446-3.723a7.629 7.629 0 0 1-4.114-6.551 9.286 9.286 0 0 1 3.895-7.473c12.125-9.828 20.271-14.308 31.681-18.63 5.481-1.985 14.928-.526 20.467 2.673 2.578 1.487 3.866 2.233 6.446 3.721Z"></path><path fill="url(#n)" d="M936.296 668.97c-11.867 4.641-18.73 8.839-31.459 18.358-5.53 4.373-14.582 6.137-20.12 2.944l-6.446-3.723a7.629 7.629 0 0 1-4.114-6.551v3.303a4.821 4.821 0 0 0 0 .584v.105h.008c.166 1.961 1.53 3.897 4.121 5.393l6.447 3.722c5.54 3.196 14.516 3.2 20.057 0l31.873-18.404c2.805-1.617 4.182-3.748 4.149-5.871h.002v-3.994c.052 1.615-1.631 3.076-4.518 4.135Z"></path><path fill="#bbbfe2" d="M915.927 665.117c-1.264-.722-1.303-1.785-.051-2.213a6.654 6.654 0 0 1 4.604.735c1.138.638 1.214 1.44-.04 1.869a6.356 6.356 0 0 1-4.513-.39Z"></path></g><g data-name="Back blocks"><path d="M669.376 428.096c-2.816-1.627-7.652-3.1-13.191-4.164a95.565 95.565 0 0 0-17.418-1.725H536.235c-5.636 0-9.595.658-11.439 1.725-1.848 1.064-1.582 2.537 1.236 4.164v64.199c-2.818 1.625-3.084 3.098-1.236 4.164 1.844 1.066 5.803 1.725 11.44 1.725h102.53a95.565 95.565 0 0 0 17.419-1.725c5.539-1.066 10.375-2.539 13.191-4.164Z" style="mix-blend-mode:multiply" fill="url(#d)"></path><path style="mix-blend-mode:multiply" fill="url(#o)" d="M726.905 297.958h140.98v85.189h-140.98z"></path><path fill="#f7f7fc" d="m726.905 300.39-71.673-41.381 71.673-41.383 71.674 41.383-71.674 41.381z"></path><path fill="#d0d4f6" d="m726.905 383.147-71.673-41.38v-82.758l71.673 41.381v82.757z"></path><path fill="#bdc1e4" d="m726.905 383.147 71.676-41.38v-82.758l-71.676 41.381v82.757z"></path><path fill="#dce1f4" d="m726.905 231.489-5.73-3.308 5.73-3.309 5.733 3.309-5.733 3.308zM740.255 239.196l-5.73-3.308 5.73-3.309 5.732 3.309-5.732 3.308zM753.607 246.903l-5.735-3.308 5.735-3.311 5.726 3.311-5.726 3.308zM766.952 254.61l-5.73-3.31 5.73-3.309 5.733 3.309-5.733 3.31zM780.302 262.315l-5.733-3.306 5.733-3.309 5.732 3.309-5.732 3.306zM713.556 239.196l-5.731-3.308 5.731-3.309 5.732 3.309-5.732 3.308zM726.905 246.903l-5.73-3.308 5.73-3.311 5.733 3.311-5.733 3.308zM740.255 254.61l-5.73-3.31 5.73-3.309 5.732 3.309-5.732 3.31zM753.607 262.315l-5.735-3.306 5.735-3.309 5.726 3.309-5.726 3.306zM766.952 270.022l-5.73-3.308 5.73-3.309 5.733 3.309-5.733 3.308zM700.21 246.903l-5.732-3.308 5.732-3.311 5.732 3.311-5.732 3.308zM713.556 254.61l-5.731-3.31 5.731-3.309 5.732 3.309-5.732 3.31zM726.905 262.315l-5.73-3.306 5.73-3.309 5.733 3.309-5.733 3.306zM740.255 270.022l-5.73-3.308 5.73-3.309 5.732 3.309-5.732 3.308zM753.607 277.728l-5.735-3.307 5.735-3.309 5.726 3.309-5.726 3.307zM686.86 254.61l-5.732-3.31 5.732-3.309 5.733 3.309-5.733 3.31zM700.21 262.315l-5.732-3.306 5.732-3.309 5.732 3.309-5.732 3.306zM713.556 270.022l-5.731-3.308 5.731-3.309 5.732 3.309-5.732 3.308zM726.905 277.728l-5.73-3.307 5.73-3.309 5.733 3.309-5.733 3.307zM740.255 285.438l-5.73-3.31 5.73-3.309 5.732 3.309-5.732 3.31zM673.511 262.315l-5.731-3.306 5.731-3.309 5.732 3.309-5.732 3.306zM686.86 270.022l-5.732-3.308 5.732-3.309 5.733 3.309-5.733 3.308zM700.21 277.728l-5.732-3.307 5.732-3.309 5.732 3.309-5.732 3.307zM713.556 285.438l-5.731-3.31 5.731-3.309 5.732 3.309-5.732 3.31zM726.905 293.144l-5.73-3.307 5.73-3.311 5.733 3.311-5.733 3.307zM667.239 279.8l-5.732-3.309v-6.617l5.732 3.309v6.617zM680.585 287.505l-5.728-3.307v-6.619l5.728 3.311v6.615zM693.935 295.214l-5.731-3.311v-6.615l5.731 3.307v6.619zM707.284 302.921l-5.73-3.311v-6.615l5.73 3.309v6.617zM720.634 310.628l-5.731-3.311V300.7l5.731 3.309v6.619zM667.239 295.212l-5.732-3.309v-6.615l5.732 3.307v6.617zM680.585 302.919l-5.728-3.309v-6.615l5.728 3.309v6.615zM693.935 310.628l-5.731-3.311V300.7l5.731 3.309v6.619zM707.284 318.335l-5.73-3.311v-6.615l5.73 3.307v6.619zM720.634 326.042l-5.731-3.309v-6.619l5.731 3.311v6.617zM667.239 310.626l-5.732-3.309V300.7l5.732 3.309v6.617zM680.585 318.335l-5.728-3.311v-6.615l5.728 3.307v6.619zM693.935 326.042l-5.731-3.309v-6.619l5.731 3.311v6.617zM707.284 333.749l-5.73-3.311v-6.615l5.73 3.309v6.617zM720.634 341.456l-5.731-3.31v-6.618l5.731 3.309v6.619zM667.239 326.04l-5.732-3.307v-6.619l5.732 3.311v6.615zM680.585 333.749l-5.728-3.311v-6.615l5.728 3.309v6.617zM693.935 341.456l-5.731-3.31v-6.618l5.731 3.309v6.619zM707.284 349.165l-5.73-3.312v-6.618l5.73 3.309v6.621zM720.634 356.868l-5.731-3.308v-6.62l5.731 3.311v6.617zM667.239 341.456l-5.732-3.31v-6.618l5.732 3.309v6.619zM680.585 349.165l-5.728-3.312v-6.618l5.728 3.309v6.621zM693.935 356.868l-5.731-3.308v-6.62l5.731 3.311v6.617zM707.284 364.575l-5.73-3.308v-6.62l5.73 3.311v6.617zM720.634 372.282l-5.731-3.308v-6.618l5.731 3.311v6.615zM786.575 279.8l5.731-3.309v-6.617l-5.731 3.309v6.617zM773.228 287.505l5.73-3.307v-6.619l-5.73 3.311v6.615zM759.878 295.214l5.73-3.311v-6.615l-5.73 3.307v6.619zM746.528 302.921l5.731-3.311v-6.615l-5.731 3.309v6.617zM733.179 310.628l5.732-3.311V300.7l-5.732 3.309v6.619zM786.575 295.212l5.731-3.309v-6.615l-5.731 3.307v6.617zM773.228 302.919l5.73-3.309v-6.615l-5.73 3.309v6.615zM759.878 310.628l5.73-3.311V300.7l-5.73 3.309v6.619zM746.528 318.335l5.731-3.311v-6.615l-5.731 3.307v6.619zM733.179 326.042l5.732-3.309v-6.619l-5.732 3.311v6.617zM786.575 310.626l5.731-3.309V300.7l-5.731 3.309v6.617zM773.228 318.335l5.73-3.311v-6.615l-5.73 3.307v6.619zM759.878 326.042l5.73-3.309v-6.619l-5.73 3.311v6.617zM746.528 333.749l5.731-3.311v-6.615l-5.731 3.309v6.617zM733.179 341.456l5.732-3.31v-6.618l-5.732 3.309v6.619zM786.575 326.04l5.731-3.307v-6.619l-5.731 3.311v6.615zM773.228 333.749l5.73-3.311v-6.615l-5.73 3.309v6.617zM759.878 341.456l5.73-3.31v-6.618l-5.73 3.309v6.619zM746.528 349.165l5.731-3.312v-6.618l-5.731 3.309v6.621zM733.179 356.868l5.732-3.308v-6.62l-5.732 3.311v6.617zM786.575 341.456l5.731-3.31v-6.618l-5.731 3.309v6.619zM773.228 349.165l5.73-3.312v-6.618l-5.73 3.309v6.621zM759.878 356.868l5.73-3.308v-6.62l-5.73 3.311v6.617zM746.528 364.575l5.731-3.308v-6.62l-5.731 3.311v6.617zM733.179 372.282l5.732-3.308v-6.618l-5.732 3.311v6.615z"></path><path fill="#bdc1e4" d="m682.784 408.625-51.267 29.596c-2.817 1.627-5.37 1.783-7.213.717-1.848-1.067-2.99-3.354-2.99-6.606v-59.201a22.563 22.563 0 0 1 10.203-17.668l51.267-29.602c2.819-1.627 5.37-1.779 7.215-.713 1.846 1.067 2.988 3.352 2.988 6.604v59.197a22.562 22.562 0 0 1-10.203 17.676Z"></path><path fill="url(#p)" d="m677.93 403.59-41.56 23.996c-2.283 1.32-4.351 1.445-5.85.58s-2.423-2.719-2.423-5.352V374.82a18.276 18.276 0 0 1 8.273-14.326l41.56-24c2.286-1.316 4.352-1.44 5.848-.576 1.5.863 2.424 2.717 2.424 5.355v47.995a18.282 18.282 0 0 1-8.271 14.322Z"></path><path fill="url(#q)" d="M621.314 432.332v-59.201a22.563 22.563 0 0 1 10.203-17.668l51.267-29.602c2.819-1.627 5.37-1.779 7.215-.713l-67.158-38.773c-1.846-1.066-4.397-.914-7.213.713l-51.268 29.6a22.536 22.536 0 0 0-10.205 17.671v59.198c0 3.256 1.143 5.54 2.987 6.607l67.162 38.774c-1.848-1.067-2.99-3.354-2.99-6.606Z"></path><path d="M682.784 325.861c2.819-1.627 5.37-1.779 7.215-.713l-67.158-38.773c-1.846-1.066-4.397-.914-7.213.713l-43.151 24.914 67.158 38.774Z" style="mix-blend-mode:multiply" fill="url(#b)"></path><path fill="#f7f7fc" d="m715.997 195.767-54.566-31.508c-3-1.729-4.498-3.998-4.498-6.268s1.498-4.539 4.498-6.27l54.566-31.505a23.998 23.998 0 0 1 21.719 0l54.566 31.506c3 1.73 4.498 4 4.498 6.27s-1.498 4.538-4.498 6.267l-54.566 31.508a24.013 24.013 0 0 1-21.719 0Z"></path><path d="m728.566 218.585-39.243 22.658c-3 1.73-4.498 4-4.498 6.27s1.498 4.539 4.498 6.267l54.567 31.508a19.245 19.245 0 0 0 5.637 2.041l49.052-28.32Z" style="mix-blend-mode:multiply" fill="url(#r)"></path><path fill="url(#c)" d="m792.282 164.259-54.566 31.508a24.013 24.013 0 0 1-21.719 0l-54.566-31.508c-3-1.729-4.498-3.998-4.498-6.268v82.535c0 2.272 1.498 4.541 4.498 6.272l54.566 31.506a24.014 24.014 0 0 0 21.719 0l54.566-31.506c3-1.73 4.498-4 4.498-6.27v-82.537c0 2.27-1.498 4.54-4.498 6.268Z"></path><path fill="#dce1f4" d="m726.855 150.206 13.486 7.785-13.486 7.783-13.483-7.783 13.483-7.785zM748.651 162.79l13.483 7.783-13.483 7.785-13.482-7.785 13.482-7.783zM770.446 150.206l13.485 7.785-13.485 7.783-13.482-7.783 13.482-7.785zM726.855 175.372l13.486 7.783-13.486 7.787-13.483-7.787 13.483-7.783zM705.06 137.624l13.482 7.781-13.482 7.785-13.483-7.785 13.483-7.781zM748.651 137.624l13.483 7.781-13.483 7.785-13.482-7.785 13.482-7.781zM726.855 125.04l13.486 7.785-13.486 7.783-13.483-7.783 13.483-7.785zM683.267 150.206l13.484 7.785-13.484 7.783-13.483-7.783 13.483-7.785zM705.06 162.79l13.482 7.783-13.482 7.785-13.483-7.785 13.483-7.783z"></path><path fill="#bdc1e4" d="m583.276 466.147-51.267 29.597c-2.818 1.629-5.37 1.781-7.215.715-1.848-1.064-2.988-3.348-2.988-6.604v-59.199a22.547 22.547 0 0 1 10.203-17.672l51.267-29.6c2.819-1.624 5.37-1.78 7.211-.712 1.85 1.066 2.993 3.351 2.993 6.605v59.2a22.584 22.584 0 0 1-10.204 17.67Z"></path><path fill="url(#s)" d="M521.806 489.855v-59.199a22.547 22.547 0 0 1 10.203-17.672l51.267-29.6c2.819-1.624 5.37-1.78 7.211-.712l-67.156-38.775c-1.846-1.065-4.396-.91-7.213.714l-51.267 29.602a22.543 22.543 0 0 0-10.205 17.67v59.199c0 3.252 1.144 5.54 2.988 6.606l67.16 38.771c-1.848-1.064-2.988-3.348-2.988-6.604Z"></path><path d="m518.88 343.467 1.783 1.029-6.267 3.618-2.172-1.254-31.735 18.323-.003.033c0 2.264 1.496 4.529 4.489 6.256l24.1 13.915 5.318-3.071 6.267 3.618-5.318 3.071 24.098 13.914a19.563 19.563 0 0 0 6.278 2.15l37.558-21.684c2.819-1.625 5.37-1.781 7.211-.713l-67.156-38.775a5.873 5.873 0 0 0-4.451-.43Z" style="mix-blend-mode:multiply" fill="url(#t)"></path><path d="m529.45 431.906.002 48.616 23.254-37.63Zm56.383 17.016-.004-50.05-23.937 38.74Zm-5.209-51.203-46.432 26.808 23.116 10.92Zm-46.445 84.734 46.023-26.57-22.914-10.826Z" style="mix-blend-mode:multiply" fill="#dce1f4"></path><path fill="#d0d4f6" d="m559.843 317.15 51.27 29.595c2.816 1.627 5.365 1.78 7.214.713 1.848-1.064 2.987-3.348 2.987-6.602v-59.2a22.54 22.54 0 0 0-10.202-17.67l-51.27-29.602c-2.814-1.625-5.366-1.781-7.214-.711-1.846 1.062-2.986 3.351-2.986 6.603v59.198a22.562 22.562 0 0 0 10.2 17.675Z"></path><path fill="url(#u)" d="M621.314 340.856v-59.2a22.54 22.54 0 0 0-10.202-17.67l-51.27-29.602c-2.814-1.625-5.366-1.781-7.214-.711l67.162-38.777c1.844-1.065 4.395-.91 7.213.714l51.268 29.602a22.54 22.54 0 0 1 10.2 17.67v59.199c0 3.254-1.142 5.54-2.986 6.607l-67.158 38.77c1.848-1.064 2.987-3.348 2.987-6.602Z"></path><path d="m678.27 225.212-51.267-29.602c-2.818-1.625-5.37-1.779-7.213-.714l-42.596 24.593a9.05 9.05 0 0 0 1.022 1.074l-3.232 1.865c1.84-1.065 4.379-.912 7.178.693l51.306 29.62a22.541 22.541 0 0 1 10.202 17.67v59.201a10.274 10.274 0 0 1-.579 3.55l42.394-24.474c1.844-1.068 2.987-3.353 2.987-6.607v-59.2a22.54 22.54 0 0 0-10.201-17.669Z" style="mix-blend-mode:multiply" fill="url(#v)"></path><path fill="#bdc1e4" d="m557.286 295.245 56.385 32.555v8.383l-56.385-32.553v-8.385zM557.286 278.733l56.385 32.553v8.387l-56.385-32.555v-8.385zM557.286 262.224l56.385 32.552v8.387l-56.385-32.553v-8.386zM557.286 245.712l56.385 32.555v8.382l-56.385-32.554v-8.383z"></path><path fill="#f7f7fc" d="m610.456 165.935-54.568-31.504c-2.996-1.73-4.498-4.002-4.498-6.27 0-2.27 1.5-4.537 4.498-6.27l54.568-31.503a23.992 23.992 0 0 1 21.717 0l54.568 31.504c2.998 1.732 4.498 4 4.498 6.27 0 2.267-1.5 4.538-4.498 6.269l-54.568 31.504a23.994 23.994 0 0 1-21.717 0Z"></path><path fill="url(#w)" d="m686.741 134.43-54.568 31.505a23.994 23.994 0 0 1-21.717 0l-54.568-31.504c-2.996-1.73-4.498-4.002-4.498-6.27v82.54c0 2.263 1.502 4.534 4.498 6.267l54.568 31.504a24.009 24.009 0 0 0 21.717 0l54.568-31.504c2.998-1.733 4.498-4.004 4.498-6.268v-82.539c0 2.268-1.5 4.54-4.498 6.27Z"></path><path fill="url(#x)" d="M601.919 116.962c10.713-6.182 28.08-6.182 38.789 0 10.713 6.187 10.713 16.21 0 22.396-10.709 6.184-28.076 6.184-38.789 0-10.711-6.185-10.711-16.209 0-22.396Z"></path><path style="mix-blend-mode:multiply" fill="url(#g)" d="M809.925 421.158h-42.654l27.074 15.637-27.074 15.631h42.654l27.074-15.631-27.074-15.637z"></path><path fill="#bbbfe2" d="m767.271 452.426 27.074-15.631v-31.743l-27.074 15.628v31.746z"></path><path fill="#ced2f4" d="m767.271 452.426-27.077-15.631v-31.743l27.077 15.628v31.746z"></path><path fill="#f7f7fc" d="m767.271 420.68-27.077-15.628 27.077-15.626 27.074 15.626-27.074 15.628z"></path></g><g data-name="Back window"><path fill="url(#y)" d="M1196.607 220.64c0-8.82-6.249-19.641-13.887-24.05L973.232 75.642c-7.635-4.408-13.883-.802-13.883 8.017v182.349c0 8.82 6.248 19.64 13.883 24.05l209.488 120.948c7.638 4.41 13.887.802 13.887-8.015Z"></path><path d="M1182.72 411.006 973.232 290.058c-7.635-4.41-13.883-15.23-13.883-24.05V97.765c18.76 10.83 10.66 46.367 24.931 54.606 10.03 5.79 12.342-20.407 26.998-11.944 15.43 8.906 21.598 66.282 38.955 76.302 13.885 8.017 15.813-14.949 29.633-6.97 18.512 10.69 18.194 60.945 36.32 71.412 18.899 10.913 33.557-65.338 51.333-55.075 9.994 5.77 21.562 42.743 29.088 62.995v113.9c0 8.817-6.249 12.425-13.887 8.015Z" style="mix-blend-mode:screen" fill="url(#z)"></path><path fill="#fff" d="M1086.362 213.51a14.36 14.36 0 0 0-6.494-11.253c-3.59-2.07-6.498-.392-6.498 3.75a14.356 14.356 0 0 0 6.498 11.254c3.588 2.073 6.494.392 6.494-3.75Z"></path><path fill="url(#A)" d="M1196.607 402.991V220.64c0-8.82-6.249-19.641-13.887-24.05L973.232 75.642c-3.772-2.177-7.202-2.393-9.713-.995l4.953-2.86.01.015c2.535-1.627 6.107-1.51 10.062.773l209.486 120.948c7.639 4.41 13.887 15.231 13.887 24.05v182.349c0 4.616-1.72 7.784-4.445 9.143l-4.612 2.662c2.315-1.53 3.747-4.533 3.747-8.736Z"></path><path d="m1108.929 278.903-149.58-86.358v73.463c0 8.82 6.248 19.64 13.883 24.05l146.489 84.575v-77.036c-.001-6.856-4.857-15.266-10.792-18.694Z" style="mix-blend-mode:multiply" fill="url(#B)"></path></g><g><path d="M1054.911 538.275h163.432l-165.7-95.666-132.53 76.11c-5.936 3.426-5.936 9.033 0 12.46 0 0 63.308 36.532 63.599 36.676l-9.666 3.477h15.521a29.48 29.48 0 0 0 14.881-3.922Z" style="mix-blend-mode:multiply" fill="url(#C)"></path><path fill="#f7f7fc" d="M904.411 440.023c5.938-3.425 15.649-3.425 21.586 0l121.592 70.204c5.936 3.427 5.936 9.033 0 12.462l-62.75 36.233c-5.938 3.422-15.65 3.422-21.586 0l-121.596-70.207c-5.937-3.426-5.937-9.031 0-12.461Z"></path><path fill="url(#D)" d="m841.657 488.715 121.596 70.207c5.936 3.422 15.648 3.422 21.586 0l62.75-36.233c2.852-1.644 4.318-3.796 4.43-5.964.017 0 .017 9.562.017 9.562.004 2.262-1.472 4.524-4.447 6.242l-62.75 36.233c-5.938 3.43-15.65 3.43-21.586 0l-121.596-70.205c-3.084-1.782-4.55-4.147-4.427-6.494v-9.309c.109 2.168 1.578 4.316 4.427 5.96Z"></path><path d="m970.73 476.484-1.059-.011h-56.14c.253 2.039 1.71 4.035 4.396 5.586l66.994 38.677-.479 1.04-11.535 6.656h64.735l11.533-6.657Z" style="mix-blend-mode:multiply" fill="url(#E)"></path><path fill="#d0d4f6" d="M903.14 464.129a103.689 103.689 0 0 0 4.892-32.99l8.635-4.984c0 2.207-.006 5.569-.291 9.803l70.102 40.472c0 7.398-.01 29.592-13.57 52.002l-78.448-45.287Z"></path><path fill="#c4b6bc" d="m908.032 431.138 78.446 45.292 8.632-4.985-78.443-45.29-8.635 4.983z"></path><path fill="#bdc1e4" d="M972.907 528.432c13.56-22.41 13.57-44.604 13.57-52.002l8.633-4.985a115.807 115.807 0 0 1-10.668 50.33Z"></path><path d="m982.153 507.635 9.274-5.356a115.1 115.1 0 0 0 3.01-16.693l-8.725 5.043a99.598 99.598 0 0 1-3.559 17.006Z" style="mix-blend-mode:multiply" fill="#dadff2"></path><path fill="#4141aa" d="M778.148 123.981c.003-6.855 4.857-9.657 10.79-6.23l290.823 167.904c5.935 3.428 10.79 11.838 10.793 18.694l-.002 194.932-312.4-180.362Z"></path><path fill="url(#F)" d="m800.642 110.997 290.822 167.906c5.936 3.426 10.793 11.836 10.793 18.692V492.53l-11.705 6.75.002-194.932c-.002-6.856-4.858-15.266-10.793-18.694L788.939 117.751c-2.422-1.397-4.65-1.744-6.463-1.216l9.361-5.327c1.959-2.061 5.178-2.306 8.805-.211Z"></path><path fill="#d9defb" d="m1090.552 499.281.002 39.412c-.002 6.856-4.858 9.657-10.793 6.23L788.939 377.02c-5.934-3.426-10.791-11.838-10.791-18.692l.003-39.408Z"></path><path fill="#bdc1e4" d="m1090.554 538.693-.002-39.412 11.705-6.75v39.408c0 3.446-1.232 5.87-3.209 6.985l-11.219 6.433c1.688-1.23 2.725-3.511 2.725-6.664Z"></path><path fill="#fff" d="m788.941 325.149 290.82 167.906V298.118L788.939 130.212l.002 194.937z"></path></g><g data-name="Shapes on screen"><path fill="#6a6ae2" d="m824.067 213.819-3.514-3.508 14.07-36.474 3.514 3.508-14.07 36.474zM817.314 202.93l-14.491-24.168 14.491-7.435 2.569 4.624-11.613 5.956 11.613 19.365-2.569 1.658zM841.873 217.109l-2.567-4.623 11.613-5.956-11.613-19.365 2.567-1.659 14.494 24.17-14.494 7.433zM1064.804 378.008 872.331 266.884v-5.359l192.473 111.125v5.358zM1057.09 401.547 872.331 294.876v-5.358l184.759 106.67v5.359zM1064.804 447.989 872.331 336.864v-5.358l192.473 111.125v5.358zM1049.175 452.962 872.331 350.861v-5.359l176.844 102.101v5.359zM1035.304 411.603 872.331 317.51v5.358l162.973 94.093v-5.358zM1042.054 415.5v5.358l22.75 13.135v-5.358l-22.75-13.135zM1018.804 388.08l-146.473-84.566v5.358l146.473 84.566v-5.358zM1026.304 392.41v5.358l38.5 22.228v-5.358l-38.5-22.228zM1037.554 370.913l-165.223-95.391v5.358l165.223 95.391v-5.358zM1042.054 373.511v5.358l22.75 13.135v-5.358l-22.75-13.135zM897.925 206.321l-25.594-14.776v5.358l25.594 14.776v-5.358zM905.003 210.408v5.358l159.801 92.261v-5.358l-159.801-92.261zM897.925 234.314l-25.594-14.777v5.358l25.594 14.777v-5.358zM905.003 238.4v5.358l159.801 92.261v-5.358L905.003 238.4zM892.091 244.942l-19.76-11.409v5.358l19.76 11.409v-5.358zM905.003 252.396v5.359l159.801 92.261v-5.359l-159.801-92.261zM899.17 263.025v5.358l165.634 95.629v-5.358L899.17 263.025zM892.091 258.938l-19.76-11.409v5.358l19.76 11.409v-5.358zM922.336 234.412v5.358l142.468 82.253v-5.358l-142.468-82.253zM915.258 230.325l-42.927-24.784v5.358l42.927 24.784v-5.358z"></path><path d="M1013.78 483.617c0 4.149-2.94 5.846-6.533 3.771l-156.466-90.335a14.494 14.494 0 0 1-6.533-11.316V261.361c0-4.149 2.94-5.846 6.533-3.771l156.466 90.335a14.494 14.494 0 0 1 6.533 11.316Z" style="mix-blend-mode:multiply" fill="#eaedf7"></path></g><g data-name="Front window"><path fill="#f7f7fc" d="M997.907 467.674c0 4.149-2.94 5.846-6.533 3.771L834.908 381.11a14.494 14.494 0 0 1-6.533-11.316V245.418c0-4.149 2.94-5.846 6.533-3.771l156.466 90.335a14.494 14.494 0 0 1 6.533 11.316Z"></path><path fill="url(#G)" d="m996.818 328.839-156.466-90.336c-1.78-1.027-3.398-1.127-4.58-.464l-.015.007-.037.022-5.393 3.113v.001c1.182-.663 2.8-.563 4.58.465l156.466 90.335a14.493 14.493 0 0 1 6.534 11.316v124.376a4.673 4.673 0 0 1-1.773 4.118l5.048-2.914-.005-.007c1.33-.616 2.174-2.124 2.174-4.34V340.153a14.493 14.493 0 0 0-6.533-11.315Z"></path><path fill="#6a6ae2" d="M890.89 318.421q-4.093-2.362-4.092 1.982v16.535q0 5.334-4.356 3.734a10.474 10.474 0 0 1 4.356 8.687v17.907a5.452 5.452 0 0 0 .957 3.295 12.047 12.047 0 0 0 3.662 2.876v7.087l-2.243-1.295q-8.976-5.182-8.975-15.24v-16.46a8.547 8.547 0 0 0-.792-4 6.32 6.32 0 0 0-2.508-2.477l-1.583-.914v-7.086l1.583.914q1.715.99 2.508.381.792-.608.792-3.2v-15.85q0-10.058 8.975-4.877l2.243 1.296v7.086a2.75 2.75 0 0 0-.528-.38ZM936.687 406.66l-2.245-1.295v-7.087q2.705 1.562 3.662 1.353.957-.21.957-2.191v-17.907q0-5.333 4.356-3.658a10.677 10.677 0 0 1-4.356-8.763v-16.535a7.16 7.16 0 0 0-1.088-4.02 6.98 6.98 0 0 0-2.145-2.267l-.198-.114-1.188-.533v-7.087l2.245 1.296q8.972 5.18 8.974 15.24v15.85a8.977 8.977 0 0 0 .792 4.114 6.222 6.222 0 0 0 2.507 2.515l1.584.914v7.086l-1.584-.914q-1.716-.991-2.507-.418-.792.57-.792 3.085v16.46q0 10.058-8.974 4.877Z"></path><path fill="#5555c6" d="m904.114 366.03-7.19-4.151v-8.301l7.19 4.15v8.302zM916.735 373.318l-7.189-4.151v-8.302l7.189 4.151v8.302zM929.357 380.605l-7.189-4.151v-8.302l7.189 4.151v8.302z"></path><path fill="#dce1f4" d="m871.931 381.48-22.361-12.91v-11.757l22.361 12.91v11.757zM981.863 367.319l-27.928-16.124v-14.684l27.928 16.125v14.683z"></path></g><g><path d="m973.503 598.047-8.309-4.797c3.217 1.857 3.217 4.898 0 6.754l-58.334 33.682a12.982 12.982 0 0 1-11.7 0l8.142 4.699-2.582 1.49h8.31a12.282 12.282 0 0 0 6.141-1.393l58.332-33.68c3.219-1.857 3.219-4.896 0-6.755Z" style="mix-blend-mode:multiply" fill="url(#H)"></path><path fill="url(#I)" d="m748.894 549.572 145.685 84.114a12.982 12.982 0 0 0 11.701 0l59.194-34.176a4.21 4.21 0 0 0 2.396-3.178c.016 0 .016 4.598.016 4.598 0 1.224-.805 2.449-2.412 3.379l-59.194 34.173a12.982 12.982 0 0 1-11.7 0l-145.686-84.11c-1.746-1.009-2.536-2.364-2.389-3.688-.023 0-.023-4.487-.023-4.487 0 1.223.802 2.448 2.412 3.375Z"></path><path fill="#3366a1" d="M746.49 546.084c-.003.039-.008.074-.008.113a.553.553 0 0 1 .007-.113Z"></path><path fill="#fff" d="M906.28 633.686a12.982 12.982 0 0 1-11.7 0l-145.686-84.114c-3.217-1.855-3.217-4.896 0-6.754l59.193-34.177a12.995 12.995 0 0 1 11.701 0l145.686 84.113c3.217 1.86 3.217 4.898 0 6.756Z"></path><path fill="#f0f0f4" d="m815.103 521.074-7.42-4.281 7.42-4.285 7.42 4.285-7.42 4.281zM827.597 528.293l-7.42-4.285 7.42-4.285 7.42 4.285-7.42 4.285zM840.095 535.506l-7.42-4.283 7.42-4.285 7.42 4.285-7.42 4.283zM852.591 542.721l-7.42-4.282 7.42-4.287 7.418 4.287-7.418 4.282zM865.087 549.936l-7.42-4.284 7.42-4.283 7.418 4.283-7.418 4.284zM877.583 557.15l-7.42-4.283 7.42-4.283 7.418 4.283-7.418 4.283zM890.079 564.367l-7.42-4.285 7.42-4.285 7.418 4.285-7.418 4.285zM902.575 571.58l-7.42-4.283 7.42-4.283 7.418 4.283-7.418 4.283zM915.071 578.795l-7.42-4.283 7.42-4.285 7.418 4.285-7.418 4.283zM927.567 586.008l-7.419-4.281 7.419-4.286 7.418 4.286-7.418 4.281zM940.062 593.225l-7.418-4.284 7.418-4.285 7.42 4.285-7.42 4.284zM952.56 600.439l-7.42-4.285 7.42-4.283 7.418 4.283-7.418 4.285zM808.526 531.707l-13.339-7.699 7.418-4.285 13.341 7.703-7.42 4.281zM801.624 541.557l-18.414-10.635 7.42-4.285 18.414 10.635-7.42 4.285zM794.206 551.701l-23.492-13.562 7.42-4.287 23.49 13.566-7.418 4.283zM768.931 554.57l-13.338-7.701 10.045-5.801 13.34 7.704-10.047 5.798zM787.347 565.203l-13.338-7.703 10.043-5.799 13.34 7.701-10.045 5.801zM805.763 575.834l-13.34-7.701 10.045-5.801 13.34 7.703-10.045 5.799zM869.259 612.494l-13.338-7.701 10.045-5.801 13.338 7.703-10.045 5.799zM900.468 630.512l-26.164-15.104 10.045-5.801 26.164 15.106-10.045 5.799zM850.874 601.879l-40.035-23.113 10.047-5.801 40.035 23.115-10.047 5.799zM824.519 540.943l-10.916-6.302 7.418-4.286 10.918 6.305-7.42 4.283zM817.618 550.789l-10.916-6.303 7.42-4.283 10.916 6.303-7.42 4.283zM810.54 560.738l-10.916-6.304 7.42-4.284 10.916 6.303-7.42 4.285zM826.534 569.971l-10.918-6.303 7.42-4.283 10.918 6.303-7.42 4.283zM842.526 579.203l-10.916-6.301 7.418-4.285 10.916 6.305-7.418 4.281zM858.519 588.438l-10.916-6.303 7.42-4.283 10.916 6.302-7.42 4.284zM874.511 597.67l-10.916-6.301 7.42-4.283 10.916 6.301-7.42 4.283zM890.505 606.904l-10.916-6.302 7.42-4.284 10.916 6.303-7.42 4.283zM915.933 621.584l-20.352-11.748 7.42-4.283 20.35 11.748-7.418 4.283zM833.61 560.023l-10.916-6.302 7.42-4.283 10.916 6.3-7.42 4.285zM849.605 569.256l-10.918-6.303 7.42-4.283 10.916 6.303-7.418 4.283zM865.597 578.49l-10.916-6.302 7.42-4.286 10.916 6.303-7.42 4.285zM881.589 587.723l-10.916-6.301 7.42-4.285 10.916 6.302-7.42 4.284zM897.583 596.957l-10.916-6.303 7.42-4.285 10.916 6.305-7.42 4.283zM928.085 614.566l-25.426-14.679 7.418-4.283 25.428 14.679-7.42 4.283zM840.513 550.178l-10.918-6.305 7.42-4.281 10.916 6.301-7.418 4.285zM856.503 559.41l-10.916-6.303 7.42-4.283 10.916 6.303-7.42 4.283zM872.497 568.645l-10.916-6.303 7.42-4.285 10.916 6.302-7.42 4.286zM888.489 577.879l-10.916-6.305 7.42-4.283 10.916 6.303-7.42 4.285zM904.483 587.109l-10.917-6.3 7.419-4.284 10.916 6.301-7.418 4.283zM920.476 596.344l-10.916-6.301 7.418-4.285 10.918 6.303-7.42 4.283zM940.064 607.652l-14.512-8.377 7.42-4.283 14.51 8.377-7.418 4.283z"></path></g><g><path d="M729.218 594.287c5.54-4.742 11.287-9.682 17.535-14.502a11.879 11.879 0 0 0 .605-3.59 11.867 11.867 0 0 1 3.825-1.14 32.08 32.08 0 0 0 11.45-.953v.003c10.153-2.595 22.134-10.7 25.577-13.546a7.804 7.804 0 0 0-9.824-.84c-1.68 1.047 6.34-8.916 12.342-13.727-21.573-1.25-30.686 23.93-34.885 25.004v-.004a32.082 32.082 0 0 1-11.451.953 11.854 11.854 0 0 0-3.825 1.141 11.94 11.94 0 0 1-.605 3.59c-6.248 4.82-11.996 9.76-17.537 14.502 0 9.35 6.047 4.232 6.793 3.11Z" style="mix-blend-mode:multiply" fill="url(#J)"></path><path d="M899.978 578.701a98.567 98.567 0 0 0-10.649-5.404 13.55 13.55 0 0 0-1.262-.518c1.69.838 3.502 1.8 5.12 2.813 6.584 4.135 1.32 9.629-5.575 9.629-6.896 0-8.308 2.172-14.468 8.355-6.15 6.174-11.59 19.873-31.899 18.627a11.938 11.938 0 0 1-.553 2.854c-28.5 21.986-46.585 46.468-82.224 43.345a104.92 104.92 0 0 1-32.21-8.341c13.464 6.634 26.249 10.332 39 11.45 35.64 3.124 53.725-21.359 82.225-43.345a11.97 11.97 0 0 0 .555-2.853c20.309 1.246 25.748-12.454 31.897-18.627 6.16-6.184 7.572-8.356 14.468-8.356 6.895 0 12.159-5.494 5.575-9.629Z" style="mix-blend-mode:multiply" fill="url(#K)"></path><path fill="url(#L)" d="M855.458 917.826h122.397v43.4H855.458z"></path><path fill="url(#M)" d="M785.7 871.928h122.397v43.398H785.7z"></path><g clip-path="url(#N)"><path fill="#34318f" d="M761.144 901.914c0-34.201 21.668-35.174 21.668-35.174s11.734 0 30.802-7.924c18.805-7.812 45.317-4.796 30.496 22.538a5.888 5.888 0 0 1-.5 1.005 13.348 13.348 0 0 1-4.8 4.225l-47.356 27.775c-7.217 4.121-30.15-5.408-30.31-12.445Z"></path><path fill="#1e1c6b" d="M761.26 898.85v-.018c.42 7.047 23.034 16.387 30.194 12.299l47.356-27.781a43.212 43.212 0 0 0 6.67-4.862c-.444.95-.813 1.85-1.37 2.866a5.888 5.888 0 0 1-.5 1.005 13.348 13.348 0 0 1-4.8 4.225l-47.356 27.775c-6.758 3.862-27.299-4.255-30.013-11.082a7.577 7.577 0 0 1-.213-1.386 25.407 25.407 0 0 1 .033-3.041Z"></path><path fill="#fff" d="M769.956 862.242c5.569 0 25.223 4.988 25.223 4.988a10.887 10.887 0 0 0 1.752 5.08c.203.221.363.444.54.67l.016-.01c3.87 2.71 7.811 6.971-1.382 12.735-7.534 4.734-13.66 1.733-16.559-1.17a15.13 15.13 0 0 0-5.344-6.056c-2.49-1.44-4.029-2.086-5.115-2.17a2.926 2.926 0 0 0-.062-.47s-1.42-13.597.931-13.597Z"></path><path fill="#1e1c6b" d="M585.333 811.895c8.79-31.78 12.693-65.41 21.293-102.731 20.541-4.082 184.498-83.713 206.631-40.861a10.418 10.418 0 0 1 1.07 5.066h.006c7.858 39.903-18.424 195.91-18.424 195.91h-.027a7.24 7.24 0 0 1-3.658 4.201c-5.164 2.975-13.504 2.97-18.658-.003-2.34-1.35-4.276-3.088-4.493-4.854h-.048s-11.413-92.803-7.92-133.861c-56.352 43.715-141.758 88.474-175.772 77.133Z"></path></g><path fill="url(#O)" d="M637.931 1097.262h122.396v16.676H637.931z"></path><path fill="url(#P)" d="M795.73 1006.156h122.398v16.676H795.73z"></path><path fill="url(#Q)" d="M500.694 1018.027h122.397v16.676H500.694z"></path><path fill="url(#R)" d="M658.493 926.922H780.89v16.676H658.493z"></path><path fill="#5555c4" d="m671.054 936.346-12.561 7.252-22.842-165.17 12.561-7.252 22.842 165.17z"></path><path fill="#7f7ff2" d="m658.493 943.598-12.56-7.252-22.842-165.17 12.56 7.252 22.842 165.17z"></path><path fill="#5555c6" d="m637.931 1113.938 12.562-7.252 22.84-191.545-12.56 7.252-22.842 191.545z"></path><path fill="#7f7ff4" d="m625.37 1106.686 12.561 7.252 22.842-191.545-12.561-7.252-22.842 191.545z"></path><path fill="#5555c6" d="m808.292 1015.58-12.562 7.252-22.84-165.17 12.56-7.252 22.842 165.17z"></path><path fill="#7f7ff4" d="m795.73 1022.832-12.561-7.252-22.842-165.17 12.563 7.252 22.84 165.17zM488.132 1027.451l12.562 7.252 22.84-191.545-12.56-7.252-22.842 191.545z"></path><path fill="#5555c6" d="m500.694 1034.703 12.561-7.252 22.842-191.545-12.563 7.252-22.84 191.545z"></path><path fill="url(#S)" d="M800.11 853.836c10.172-5.873 10.172-15.482.002-21.356L666.706 755.46c-10.172-5.873-26.816-5.873-36.988 0L496.314 832.48c-10.172 5.874-10.172 15.483 0 21.356l133.404 77.021c10.172 5.873 26.816 5.873 36.988 0Z"></path><g clip-path="url(#N)"><path fill="url(#T)" d="M828.388 947.863c0-34.197 21.674-35.183 21.674-35.183s11.734 0 30.798-7.91c18.809-7.817 45.32-4.797 30.504 22.533a6.907 6.907 0 0 1-.507 1.01 13.334 13.334 0 0 1-4.807 4.214l-47.35 27.778c-7.217 4.125-30.142-5.405-30.312-12.442Z"></path><path fill="#1e1c6b" d="M828.517 944.799v-.018c.41 7.041 23.023 16.383 30.183 12.295l47.35-27.773a43.287 43.287 0 0 0 6.68-4.865c-.44.943-.817 1.845-1.366 2.865a6.907 6.907 0 0 1-.507 1.01 13.334 13.334 0 0 1-4.807 4.214l-47.35 27.778c-6.754 3.861-27.3-4.248-30.01-11.082a7.596 7.596 0 0 1-.212-1.389 22.104 22.104 0 0 1 .039-3.035Z"></path><path fill="#fff" d="M837.2 908.186c5.575 0 25.225 4.99 25.225 4.99a11.073 11.073 0 0 0 1.75 5.088c.2.216.369.44.547.666 0-.01.01-.01.015-.01 3.866 2.705 7.807 6.967-1.388 12.738-7.528 4.73-13.65 1.729-16.557-1.174a15.14 15.14 0 0 0-5.338-6.066c-2.492-1.434-4.027-2.086-5.123-2.16a2.575 2.575 0 0 0-.05-.469s-1.423-13.603.92-13.603Z"></path><path fill="url(#U)" d="M673.876 755.113c20.545-4.082 184.498-83.709 206.631-40.861a10.41 10.41 0 0 1 1.07 5.064h.006c7.858 39.909-18.428 195.913-18.428 195.913h-.023a7.26 7.26 0 0 1-3.662 4.195c-5.154 2.978-13.5 2.97-18.654-.004-2.34-1.346-4.276-3.082-4.499-4.848h-.037s-11.418-92.802-7.925-133.863c-56.356 43.717-141.764 88.477-175.776 77.135-55.082-18.38-82.797-32.889-100.322-70.348-5.764-12.299-6.957-46.746-6.957-61.48 60.92-30.18 108.535-2.985 128.576 29.097Z"></path></g><path fill="#f4d1ad" d="M789.87 538.328a98.3 98.3 0 0 0-10.648-5.406c-6.893-3.281-17.885-.652-20.934 1.467-3.05 2.119-21.994 13.75-25.597 21.258 0 0-7.108 3.677-9.877 5.1l10.406 15.911s9.129-4.847 11.275-4.71a32.087 32.087 0 0 0 11.451-.954v.004c10.153-2.596 22.133-10.701 25.577-13.547-5.059-4.572-10.66.494-14.456 2.52a19.254 19.254 0 0 1 2.76-3.658c6.16-6.186 7.573-8.356 14.467-8.356 6.897 0 12.16-5.496 5.576-9.629Z"></path><path fill="url(#e)" d="M740.066 576.678c3.652-10.889-9.286-20.473-16.93-19.75-35.74 15.578-53.076 24.847-65.293 21.238-51.397-24.021-30.451 39.19 0 41.857 35.639 3.125 53.723-21.359 82.223-43.345Z"></path><path fill="url(#V)" d="M591.269 496.33c-25.848 5.654-58.244 22.178-36.692 67.24 14.711 30.758 36.692-67.24 36.692-67.24Z"></path><path fill="url(#W)" d="M595.978 797.3c50.627 28.409 119.38 18.036 128.857-21.89-34.469-115.652-42.23-192.539-41.41-239.568-22.332-17.244-41.361-32.576-57.719-36.238-17.09-3.827-39.695-6.784-49.664 2.769-31.076 41.914-22.97 114.399-30.742 223.643 5.348 34.968 25.746 57.304 50.678 71.285Z"></path><path fill="#f4d1ad" d="M602.097 498.383c8.623-8.129 11.238-21.266 12.674-36.145a73.008 73.008 0 0 1 1.867-25.815c8.064-31.895 34.83-52.621 59.8-46.305 24.962 6.31 38.67 37.274 30.61 69.155-7.47 29.547-33.404 45.872-56.66 48.291-1.162 2.518 3.213 6.143 7.277 8.766-19.076 5.06-36.76-4.937-46.146-10.045-4.856-2.64-8.295-5.185-9.422-7.902Z"></path><path fill="#1e1c6b" d="M617.921 392.22c9.254-8.922 20.018-.367 25.402-3.155.922-.445 1.891-.908 2.905-1.4.01.002.01-.004.021-.014 7.037-4.203 3.664-7.298 10.182-11.175 6.445-3.846 12.697 1.49 16.885.095l-.02.026c9.914-3.106 18.865-4.397 22.775-.764a27.876 27.876 0 0 1 5.094 6.703l-.002-.014c3.336 5.59 14.885-1.59 14.164 10.479-.668 11.336-4.91 15.111-6.703 32.457a65.593 65.593 0 0 1-.264 2.992c-.013.197-.039.375-.048.57-.016-.007-.012-.017-.022-.039-1.351 11.222-4.816 21.25-10.658 26.82-1.66 1.582-3.451 3.09-5.27 4.57 1.512-6.105-7.873-23.469-14.722 3.629-.735 2.906 1.293 4.031-1.598 7.402-2.898 3.371-17.65 9.989-27.83 16.043-14.197 8.473-18.287-3.379-37.525-6.07 2.027-8.027.976-12.594-.606-18.328-.994-3.633-2.777-17.73.102-32.796.004-.031-.035-.016-.024-.055 3.774-14.924-1.287-29.238 7.762-37.976Z"></path><path fill="#f4d1ad" d="M824.876 596.969c2.77-1.424 7.29-3.787 7.29-3.787.075-1.61 5.72-19.504 20.97-23.99 3.137 4.753-2.258 8.609-6.662 13.058 5.293-4.234 12.185-8.475 15.234-10.594 3.05-2.12 14.041-4.748 20.934-1.467a98.562 98.562 0 0 1 10.648 5.405c6.584 4.135 1.32 9.629-5.574 9.629-6.897 0-8.309 2.172-14.469 8.355-6.16 6.186-11.603 19.928-32.002 18.625-2.146-.137-4.605 1.723-4.605 1.723Z"></path><path fill="url(#X)" d="M840.796 615.059c3.652-10.889-9.287-20.475-16.93-19.75-35.74 15.578-53.078 24.845-65.295 21.238-51.396-24.022-62.394-68.904-75.146-80.705-28.68-20.408-63.203 24.75-25.594 65.44 39.688 37.17 70.29 54.452 100.74 57.122 35.639 3.123 53.725-21.359 82.225-43.345Z"></path><path fill="url(#Y)" d="M488.132 843.158c-3.395-26.144-19.606-145.582-22.352-165.814-3.613-26.625 24.694-45.512 65.516-22.403s83.197 52.817 124.432 113.206c21.226 31.09 72.365 20.355 93.937 6.703 30.21-19.116 58.074 2.888 58.074 68.308-16.644 11.967-130.476 74.905-144.922 81.28-14.445 6.375-26.224 3.753-57.472-16.252-31.248-20.004-117.213-65.028-117.213-65.028Z"></path></g><g><path fill="#fff" d="m1022.71 578.387 23.865 13.779-23.865 13.777-23.859-13.777 23.859-13.779z"></path><path fill="#d0d4f6" d="M1022.71 605.943v15.7l-23.859-29.477 23.859 13.777z"></path><path fill="#bdc1e4" d="m1022.71 621.643 23.865-29.477-23.865 13.777v15.7z"></path><path style="mix-blend-mode:multiply" fill="url(#Z)" d="m1022.71 621.643 46.023-13.778-23.861 13.778h-22.162z"></path></g><g data-name="Front blocks"><path d="M1312.577 641.848c-3.597-2.078-9.773-3.96-16.847-5.32a122.128 122.128 0 0 0-22.248-2.204h-130.967c-7.2 0-12.256.842-14.614 2.203-2.357 1.362-2.017 3.243 1.582 5.32v82c-3.6 2.079-3.939 3.96-1.582 5.321s7.415 2.205 14.614 2.205h51.826l118.236-68.264Z" style="mix-blend-mode:multiply" fill="url(#f)"></path><path style="mix-blend-mode:multiply" fill="url(#aa)" d="M1230.722 670.359h69.298l73.547-42.462-73.547-42.463h-69.298v84.925z"></path><path fill="#f7f7fc" d="m1219.882 630.522-54.465-31.442c-2.992-1.728-4.488-3.996-4.488-6.26 0-2.265 1.496-4.529 4.488-6.257l54.465-31.448a23.98 23.98 0 0 1 21.68 0l54.464 31.45c2.993 1.726 4.49 3.99 4.49 6.255 0 2.264-1.497 4.532-4.49 6.26l-54.464 31.442a23.933 23.933 0 0 1-21.68 0Z"></path><path d="m1242.778 629.822 53.248-30.742c2.993-1.728 4.49-3.996 4.49-6.26 0-2.265-1.497-4.529-4.49-6.256l-54.464-31.449a18.526 18.526 0 0 0-4.756-1.855l-6.084-.735v77.297Z" style="mix-blend-mode:multiply" fill="url(#ab)"></path><path fill="url(#ac)" d="m1276.07 578.637-35.397-20.436a22.002 22.002 0 0 0-19.902 0l-35.397 20.436h-18.74v14.183c0 2.078 1.379 4.159 4.127 5.746l50.01 28.875a21.987 21.987 0 0 0 19.902 0l50.012-28.875c2.748-1.584 4.123-3.668 4.123-5.746v-14.183Z"></path><path fill="url(#ad)" d="m1296.026 599.08-54.464 31.442a23.933 23.933 0 0 1-21.68 0l-54.465-31.442c-2.992-1.728-4.488-3.996-4.488-6.26v37.244c0 2.266 1.496 4.53 4.488 6.258l54.465 31.446a23.964 23.964 0 0 0 21.68 0l54.464-31.446c2.993-1.724 4.49-3.992 4.49-6.258V592.82c0 2.264-1.497 4.532-4.49 6.26Z"></path><path fill="#f7f7fc" d="m1219.882 585.385-54.465-31.447c-2.992-1.727-4.488-3.993-4.488-6.256 0-2.266 1.496-4.53 4.488-6.26l54.465-31.447a23.997 23.997 0 0 1 21.68 0l54.464 31.447c2.993 1.73 4.49 3.994 4.49 6.26 0 2.263-1.497 4.529-4.49 6.256l-54.464 31.447a23.964 23.964 0 0 1-21.68 0Z"></path><path fill="url(#ae)" d="m1296.026 553.938-54.464 31.447a23.964 23.964 0 0 1-21.68 0l-54.465-31.447c-2.992-1.727-4.488-3.993-4.488-6.256v37.244c0 2.265 1.496 4.529 4.488 6.256l54.465 31.447a23.964 23.964 0 0 0 21.68 0l54.464-31.447c2.993-1.727 4.49-3.99 4.49-6.256v-37.244c0 2.263-1.497 4.529-4.49 6.256Z"></path><path fill="url(#af)" d="m1296.026 541.422-54.464-31.447c-.131-.076-.287-.126-.422-.199l-44.399 25.636c-2.992 1.73-4.488 3.994-4.488 6.26 0 2.264 1.496 4.53 4.488 6.256l54.465 31.447c.119.069.26.114.382.18.122-.066.263-.111.382-.18l44.056-25.437c2.993-1.727 4.49-3.993 4.49-6.256 0-2.266-1.497-4.53-4.49-6.26Z"></path><path fill="#d0d4f6" d="m1069.314 695.893 56.28 32.494c3.095 1.783 5.895 1.953 7.92.781 2.028-1.168 3.282-3.678 3.282-7.248v-64.986a24.763 24.763 0 0 0-11.201-19.399l-56.281-32.492c-3.092-1.787-5.891-1.955-7.918-.787-2.028 1.172-3.282 3.68-3.282 7.252v64.984a24.76 24.76 0 0 0 11.2 19.4Z"></path><path fill="url(#ag)" d="M1136.796 721.92v-64.986a24.763 24.763 0 0 0-11.201-19.399l-56.281-32.492c-3.092-1.787-5.891-1.955-7.918-.787l73.722-42.565c2.026-1.168 4.828-1 7.92.786l56.28 32.494a24.754 24.754 0 0 1 11.2 19.398v64.986c0 3.573-1.253 6.083-3.28 7.252l-73.723 42.561c2.027-1.168 3.281-3.678 3.281-7.248Z"></path><g style="mix-blend-mode:multiply"><path fill="#dce1f4" d="M1145.161 639.17a22.918 22.918 0 0 0-7.918-8.36l-56.283-32.494c-3.092-1.785-5.89-1.955-7.918-.783l-3.531 2.041c2.025-1.172 4.826-1.002 7.918.783l56.279 32.493a24.74 24.74 0 0 1 11.2 19.4v64.986c0 3.57-1.253 6.078-3.278 7.25l3.531-2.039c2.028-1.172 3.281-3.681 3.281-7.254V650.21a22.89 22.89 0 0 0-3.28-11.039Z"></path><path fill="#dce1f4" d="M1154.624 633.707a22.877 22.877 0 0 0-7.92-8.36l-56.28-32.493c-3.091-1.786-5.892-1.956-7.919-.786l-3.531 2.041c2.025-1.17 4.824-1 7.918.784l56.279 32.496a24.735 24.735 0 0 1 11.201 19.396v64.987c0 3.57-1.254 6.082-3.28 7.251l3.532-2.039c2.027-1.171 3.281-3.68 3.281-7.254v-64.986a22.886 22.886 0 0 0-3.28-11.037Z"></path><path fill="#dce1f4" d="M1164.087 628.244a22.898 22.898 0 0 0-7.92-8.361l-56.28-32.492c-3.093-1.786-5.894-1.955-7.92-.786l-3.532 2.04c2.027-1.17 4.828-1 7.918.785l56.283 32.492a24.768 24.768 0 0 1 11.199 19.4v64.987c0 3.57-1.254 6.082-3.281 7.25l3.533-2.041c2.027-1.168 3.281-3.678 3.281-7.248v-64.987a22.885 22.885 0 0 0-3.281-11.039Z"></path><path fill="#dce1f4" d="M1173.552 622.781a22.9 22.9 0 0 0-7.922-8.361l-56.28-32.494c-3.091-1.785-5.892-1.953-7.92-.783l-3.532 2.039c2.027-1.17 4.828-1.002 7.92.785l56.28 32.494a24.77 24.77 0 0 1 11.202 19.398v64.985c0 3.572-1.256 6.08-3.283 7.252l3.535-2.041c2.027-1.17 3.277-3.678 3.277-7.25v-64.987a22.873 22.873 0 0 0-3.277-11.037Z"></path><path fill="#dce1f4" d="M1183.013 617.314a22.913 22.913 0 0 0-7.918-8.357l-56.281-32.494c-3.092-1.785-5.893-1.955-7.92-.785l-3.534 2.04c2.028-1.17 4.827-1 7.922.784l56.28 32.494a24.768 24.768 0 0 1 11.199 19.399v64.988c0 3.57-1.254 6.078-3.281 7.25l3.533-2.04c2.029-1.171 3.279-3.68 3.279-7.251v-64.988a22.881 22.881 0 0 0-3.28-11.04Z"></path><path fill="#dce1f4" d="M1192.478 611.854a22.92 22.92 0 0 0-7.92-8.36L1128.276 571c-3.091-1.785-5.892-1.955-7.918-.785l-3.535 2.04c2.028-1.171 4.828-1.001 7.92.786l56.28 32.492a24.742 24.742 0 0 1 11.2 19.399v64.986c0 3.572-1.253 6.082-3.279 7.25l3.534-2.039c2.025-1.17 3.277-3.678 3.277-7.25v-64.988a22.9 22.9 0 0 0-3.277-11.037Z"></path><path fill="#dce1f4" d="M1201.939 606.39a22.862 22.862 0 0 0-7.92-8.359l-56.28-32.494c-3.093-1.785-5.892-1.955-7.918-.785l-3.533 2.039c2.028-1.17 4.826-1 7.916.785l56.281 32.492a24.749 24.749 0 0 1 11.202 19.4v64.987c0 3.57-1.254 6.08-3.28 7.25l3.532-2.041c2.029-1.168 3.28-3.68 3.28-7.25V617.43a22.86 22.86 0 0 0-3.28-11.04Z"></path></g><path fill="#f7f7fc" d="m1219.843 500.223-54.567-31.508c-3-1.729-4.498-3.998-4.498-6.268 0-2.27 1.498-4.539 4.498-6.27l54.567-31.505a23.998 23.998 0 0 1 21.719 0l54.566 31.506c3 1.73 4.498 4 4.498 6.27 0 2.269-1.498 4.538-4.498 6.267l-54.566 31.508a24.013 24.013 0 0 1-21.72 0Z"></path><path fill="url(#ah)" d="m1296.128 468.715-54.566 31.508a24.013 24.013 0 0 1-21.72 0l-54.566-31.508c-3-1.729-4.498-3.998-4.498-6.268v69.16c0 2.272 1.498 4.541 4.498 6.272l54.567 31.506a24.014 24.014 0 0 0 21.719 0l54.566-31.506c3-1.73 4.498-4 4.498-6.27v-69.162c0 2.27-1.498 4.54-4.498 6.268Z"></path><path style="mix-blend-mode:multiply" fill="url(#ai)" d="m1274.79 462.445.005-.003h-.01l-20.92-12.084h-23.167l20.935 12.085v.003l-20.935 12.085h23.167l20.92-12.083h.01l-.005-.003z"></path><path fill="#ed995a" d="m1209.767 449.072 20.939 12.087-.008 13.372-20.931-12.084v-13.375z"></path><path fill="#d67747" d="m1230.698 461.156 20.94-12.084-.008 13.372-20.932 12.087v-13.375z"></path><path fill="#f3b378" d="m1230.698 436.985 20.94 12.087-20.94 12.084-20.931-12.084 20.931-12.087z"></path></g><g data-name="Blocks in the air"><path fill="#5555c6" d="m1313.696 581.676 25.864-14.93v-30.32l-25.864 14.924v30.326z"></path><path fill="#7f7ff4" d="m1313.696 581.676-25.863-14.93v-30.32l25.863 14.924v30.326z"></path><path fill="#f3b378" d="m1313.696 551.35-25.863-14.924 25.863-14.932 25.864 14.932-25.864 14.924z"></path><path fill="#5555c6" d="m833.972 60.181 25.863-14.929v-30.32l-25.863 14.923v30.326z"></path><path fill="#7f7ff4" d="m833.972 60.181-25.864-14.929v-30.32l25.864 14.923v30.326z"></path><path fill="#f3b378" d="m833.972 29.855-25.864-14.923L833.972 0l25.863 14.932-25.863 14.923z"></path></g><g data-name="Divided block"><path fill="url(#aj)" d="m559.896 298.504-3.15 1.817c-2.747-1.586-67.13-1.584-69.878.002l-3.15-1.819-26 8.985v14.183c0 2.079 1.379 4.159 4.127 5.747l21.873 12.63v37.243l6.264 3.617v-37.244l21.873 12.629a21.987 21.987 0 0 0 19.902 0l21.875-12.631v37.244l6.26-3.615v-37.243l21.877-12.63c2.748-1.584 4.123-3.668 4.123-5.747V307.49Z"></path><path fill="#f7f7fc" d="m553.632 343.663-21.875 12.63a21.987 21.987 0 0 1-19.902 0l-21.873-12.628-3.114 1.797 24.098 13.912a23.932 23.932 0 0 0 21.68 0l24.097-13.912Z"></path><path fill="url(#ak)" d="M532.646 359.374a23.932 23.932 0 0 1-21.68 0l-24.098-13.912v37.244l24.098 13.914a23.964 23.964 0 0 0 21.68 0l24.097-13.912v-37.246Z"></path><path fill="#dce1f4" d="m556.743 345.462-3.111-1.8-21.875 12.632a20.365 20.365 0 0 1-9.951 2.38h12.051Z"></path><path fill="#f7f7fc" d="M457.718 321.672v-6.96l-1.217.703c-2.992 1.728-4.488 3.992-4.488 6.257 0 2.264 1.496 4.532 4.488 6.26l24.102 13.914 3.115-1.799-21.873-12.628c-2.748-1.588-4.127-3.668-4.127-5.747Z"></path><path fill="#d0d4f6" d="M452.013 321.672v37.245c0 2.265 1.496 4.529 4.488 6.257l24.102 13.917v-37.245L456.5 327.932c-2.992-1.728-4.488-3.996-4.488-6.26Z"></path><path fill="#bdc1e4" d="m483.718 377.292-3.115 1.799v-37.245l3.115-1.799v37.245z"></path><path fill="#dce1f4" d="m581.767 327.419-21.875 12.628 3.115 1.8 24.103-13.915c2.993-1.728 4.489-3.996 4.489-6.26 0-2.265-1.496-4.529-4.489-6.257l-1.216-.703v6.96c0 2.079-1.38 4.159-4.127 5.747Z"></path><path fill="#bdc1e4" d="m587.11 327.932-24.103 13.914v37.245l24.103-13.917c2.993-1.728 4.489-3.992 4.489-6.257v-37.245c0 2.264-1.496 4.532-4.489 6.26Z"></path><path fill="#d0d4f6" d="m559.892 377.292 3.115 1.799v-37.245l-3.115-1.799v37.245z"></path><path fill="url(#al)" d="m563.997 260.528-7.253-4.187-34.938 20.172-34.939-20.172-7.253 4.188 34.939 20.172-30.835 17.803 7.253 4.188 30.835-17.804 30.837 17.804 7.253-4.188-30.837-17.803 34.938-20.173z"></path><path fill="#f7f7fc" d="m556.743 300.323-34.937-20.172-34.938 20.172 24.098 13.914a23.964 23.964 0 0 0 21.68 0l24.132-13.934Z"></path><path fill="url(#am)" d="m556.743 300.323-24.097 13.914a23.964 23.964 0 0 1-21.68 0l-24.098-13.914v37.244l24.098 13.914a23.964 23.964 0 0 0 21.68 0l24.097-13.913Z"></path><path fill="#f7f7fc" d="M515.539 276.532 480.6 256.36l-24.099 13.915c-2.992 1.73-4.488 3.994-4.488 6.26 0 2.264 1.496 4.53 4.488 6.256l24.1 13.915Z"></path><path fill="#d0d4f6" d="M480.603 296.706 456.5 282.79c-2.992-1.727-4.488-3.992-4.488-6.256v37.244c0 2.266 1.496 4.53 4.488 6.256l24.102 13.916Z"></path><path fill="#bdc1e4" d="m483.718 294.907-3.115 1.798v37.245l3.115-1.799v-33.647l31.821-18.372v-3.6l-31.821 18.375z"></path><path fill="#f7f7fc" d="m587.11 270.274-24.099-13.915-34.939 20.173 34.938 20.173 24.1-13.915c2.993-1.727 4.49-3.992 4.49-6.256 0-2.266-1.497-4.53-4.49-6.26Z"></path><path fill="#bdc1e4" d="m563.01 296.706 24.102-13.916c2.993-1.727 4.489-3.992 4.489-6.256v37.244c0 2.266-1.496 4.53-4.489 6.256l-24.101 13.916Z"></path><path fill="#d0d4f6" d="m559.896 294.907-31.824-18.375v3.6l31.824 18.372v33.647l3.115 1.799v-37.245l-3.115-1.798z"></path><path fill="#f7f7fc" d="m521.806 272.914 34.938-20.173-24.098-13.914a23.997 23.997 0 0 0-21.68 0l-24.099 13.914Z"></path><path fill="#bdc1e4" d="M521.806 276.512v-3.598l34.938-20.173v3.6l-34.938 20.171z"></path><path fill="#d0d4f6" d="M521.806 276.512v-3.598l-34.939-20.173v3.6l34.939 20.171z"></path></g><g><path d="M839.464 454.854c-4.115-2.377-9.893-3.211-15.19-2.52-5.296-.691-11.074.143-15.189 2.52l-24.068 13.896c-4.801 2.772-5.987 6.852-3.56 10.27a24.894 24.894 0 0 0-3.495 1.615L753.89 494.53c-3.362 1.942-3.483 3.686-1.004 4.908l-.026.004 6.998 3.961c.053.034.114.067.17.098l.118.066.011-.005c2.176 1.14 6.553 1.845 12.725 1.845 12.756 0 28.322-2.994 34.7-6.678l24.07-13.896c3.349-1.934 3.482-3.672 1.03-4.893l.026-.003-6.289-3.42-.008.011a3.386 3.386 0 0 0-.568-.455l13.623-7.865c6.377-3.682 6.377-9.674-.002-13.355Zm-49.557 39.677c-3.242 1.873-10.75 3.422-17.44 3.68l23.155-13.37a97.696 97.696 0 0 1 11.32-.144Zm37.188-29.281-15.102 8.719a95.36 95.36 0 0 0-4.043.133 16.91 16.91 0 0 0-1.46.076c-3.262.295-7.895.789-11.757 1.386-.062-1.392.819-2.794 2.653-3.853l24.07-13.898a4.178 4.178 0 0 1 5.637 0c3.553 2.05 3.553 5.386.002 7.437Z" style="mix-blend-mode:multiply" fill="url(#an)"></path><path fill="#f7f7fc" d="M782.927 469.938c-6.377-3.682-6.377-9.674 0-13.356l24.07-13.896c6.379-3.684 16.756-3.684 23.135 0 6.377 3.683 6.377 9.673 0 13.355l-24.07 13.897c-6.38 3.683-16.756 3.683-23.135 0Zm5.125-10.397c-3.551 2.05-3.551 5.387 0 7.438a14.257 14.257 0 0 0 12.883 0l24.07-13.897c3.553-2.05 3.553-5.387 0-7.437a14.253 14.253 0 0 0-12.88 0Z"></path><path fill="#d6952d" d="M834.91 449.293h.003v.039c0-.014-.004-.027-.004-.039Z"></path><path fill="url(#ao)" d="m788.052 459.541 24.072-13.896a14.253 14.253 0 0 1 12.881 0c3.143 1.814 3.498 4.632 1.084 6.677a7.256 7.256 0 0 0-1.084-.76 14.253 14.253 0 0 0-12.88 0l-24.073 13.897a7.404 7.404 0 0 0-1.084.76c-2.414-2.047-2.057-4.865 1.084-6.678Z"></path><path fill="url(#ap)" d="M782.927 469.938c6.379 3.683 16.758 3.683 23.135 0l24.07-13.897c3.174-1.832 4.766-4.238 4.781-6.646v5.693h-.015c.09 2.482-1.493 4.98-4.766 6.871l-24.07 13.898c-6.377 3.682-16.756 3.682-23.135-.002-3.258-1.88-4.842-4.365-4.77-6.835h-.013v-5.76c0 2.418 1.593 4.836 4.783 6.678Z"></path><path fill="url(#aq)" d="m756.189 469.06 24.07-13.898c3.25-1.875 6.185-2.01 8.289-.723l.006-.003 4.666 2.703-.016.011c-2.06-1.002-4.803-.771-7.82.971l-24.07 13.899c-6.377 3.681-11.567 12.668-11.567 20.033 0 3.592 1.24 6.133 3.244 7.377l-.002.013-4.88-2.818v-.006c-2.149-1.185-3.487-3.79-3.487-7.525 0-7.365 5.19-16.352 11.567-20.033Z"></path><path fill="#ed995a" d="M786.628 465.898a6.912 6.912 0 0 0 1.424 1.08 11.647 11.647 0 0 0 3.754 1.28c.008-.166.021-.334.021-.498 0-3.63-2.263-5.346-5.242-4.278a7.3 7.3 0 0 1 .115 1.319 9.606 9.606 0 0 1-.072 1.097Zm-31.639 24.51c.563 3.117 3.182 4.219 6.325 2.405l16.347-9.438 7.723-4.459a10.421 10.421 0 0 0 1.762-1.307 19.055 19.055 0 0 1-4.22-1.754 13.05 13.05 0 0 1-1.3-.859 10.08 10.08 0 0 1-1.367.961l-24.07 13.897a7.326 7.326 0 0 1-1.2.554Z"></path><path fill="#ba6038" d="m761.314 472.02 24.07-13.899c6.379-3.682 11.566-.685 11.566 6.68a18.399 18.399 0 0 1-.38 3.562 15.51 15.51 0 0 1-4.764-.105c.008-.166.021-.334.021-.498 0-4.102-2.89-5.77-6.443-3.719l-24.07 13.897a14.257 14.257 0 0 0-6.44 11.156c0 4.1 2.889 5.77 6.44 3.719l24.07-13.897a10.421 10.421 0 0 0 1.762-1.307 25.67 25.67 0 0 0 4.92.895 22.133 22.133 0 0 1-6.682 6.33l-24.07 13.896c-6.377 3.684-11.567.688-11.567-6.677s5.19-16.352 11.567-20.033Z"></path></g><g><path d="M1058.661 758.598c-6.529-3.772-6.529-9.907 0-13.676l11.18-6.455c6.531-3.772 17.158-3.772 23.687 0 6.532 3.77 6.532 9.904 0 13.674l-11.181 6.457c-6.528 3.77-17.155 3.77-23.686 0Zm28.504-16.457a12.119 12.119 0 0 0-10.959 0l-11.183 6.455c-3.02 1.744-3.02 4.582 0 6.328a12.15 12.15 0 0 0 10.962 0l11.18-6.457c3.022-1.744 3.022-4.582 0-6.326Z" style="mix-blend-mode:multiply" fill="url(#h)"></path><path fill="#fff" d="M1052.276 751.719c-6.53-3.772-6.53-9.905 0-13.676l11.182-6.455c6.531-3.772 17.156-3.77 23.688 0 6.53 3.77 6.53 9.904 0 13.676l-11.182 6.455c-6.531 3.771-17.158 3.77-23.688 0Zm28.504-16.457a12.126 12.126 0 0 0-10.957 0l-11.183 6.455c-3.022 1.746-3.022 4.584 0 6.328a12.119 12.119 0 0 0 10.959 0l11.181-6.455c3.024-1.744 3.024-4.582 0-6.328Z"></path><path fill="url(#i)" d="M1080.78 735.262a12.126 12.126 0 0 0-10.957 0l-11.183 6.455c-3.022 1.746-3.022 4.584 0 6.328.164.094.351.164.527.248l10.656-6.152a12.2 12.2 0 0 1 10.432-.248l.525-.303c3.024-1.744 3.024-4.582 0-6.328Z"></path><path fill="url(#j)" d="m1087.146 745.264-11.182 6.455c-6.531 3.771-17.158 3.77-23.688 0-3.228-1.864-4.855-4.307-4.89-6.756l-.008 6.691.008-.007c-.049 2.513 1.576 5.037 4.89 6.95 6.53 3.77 17.157 3.77 23.688 0l11.182-6.454c3.254-1.88 4.882-4.346 4.894-6.813v-6.892c-.002 2.472-1.635 4.943-4.894 6.826Z"></path><path d="M1009.138 787.191c-6.531-3.771-6.531-9.906 0-13.677l11.18-6.455c6.529-3.772 17.156-3.772 23.687 0 6.531 3.77 6.531 9.906 0 13.675l-11.184 6.457c-6.527 3.77-17.154 3.77-23.683 0Zm28.502-16.459a12.126 12.126 0 0 0-10.957 0l-11.184 6.457c-3.02 1.745-3.02 4.583 0 6.327a12.134 12.134 0 0 0 10.961 0l11.18-6.455c3.023-1.745 3.023-4.582 0-6.329Z" style="mix-blend-mode:multiply" fill="url(#ar)"></path><path fill="#fff" d="M1002.751 780.313c-6.531-3.772-6.531-9.905 0-13.676l11.184-6.455c6.529-3.772 17.156-3.77 23.687 0 6.53 3.77 6.53 9.904 0 13.675l-11.183 6.456c-6.532 3.771-17.157 3.769-23.688 0Zm28.506-16.458a12.131 12.131 0 0 0-10.959 0l-11.182 6.456c-3.023 1.744-3.023 4.582 0 6.328a12.126 12.126 0 0 0 10.957 0l11.184-6.455c3.023-1.746 3.023-4.584 0-6.329Z"></path><path fill="url(#as)" d="M1031.257 763.855a12.131 12.131 0 0 0-10.959 0l-11.182 6.456c-3.023 1.744-3.023 4.582 0 6.328.162.093.35.162.526.248l10.656-6.155a12.205 12.205 0 0 1 10.434-.246l.525-.302c3.023-1.746 3.023-4.584 0-6.329Z"></path><path fill="url(#at)" d="m1037.622 773.857-11.183 6.456c-6.532 3.771-17.157 3.769-23.688 0-3.228-1.866-4.855-4.307-4.889-6.756l-.01 6.691.01-.008c-.048 2.514 1.575 5.037 4.889 6.951 6.531 3.77 17.156 3.77 23.688 0l11.183-6.455c3.252-1.879 4.883-4.345 4.895-6.812v-6.893c-.004 2.473-1.637 4.944-4.895 6.826Z"></path><path d="M969.202 764.469c-6.531-3.772-6.531-9.905 0-13.676l11.18-6.455c6.53-3.772 17.156-3.772 23.687 0 6.53 3.77 6.53 9.904 0 13.674l-11.183 6.457c-6.528 3.77-17.154 3.77-23.684 0Zm28.502-16.457a12.118 12.118 0 0 0-10.959 0l-11.181 6.455c-3.02 1.744-3.02 4.582 0 6.328a12.147 12.147 0 0 0 10.96 0l11.18-6.457c3.022-1.744 3.022-4.582 0-6.326Z" style="mix-blend-mode:multiply" fill="url(#au)"></path><path fill="#fff" d="M962.816 757.59c-6.532-3.77-6.532-9.904 0-13.676l11.181-6.455c6.531-3.771 17.158-3.77 23.69 0 6.529 3.77 6.529 9.904 0 13.676l-11.184 6.455c-6.531 3.771-17.156 3.77-23.687 0Zm28.505-16.457a12.13 12.13 0 0 0-10.959 0l-11.181 6.455c-3.024 1.746-3.024 4.584 0 6.328a12.114 12.114 0 0 0 10.957 0l11.183-6.455c3.022-1.744 3.022-4.582 0-6.328Z"></path><path fill="url(#av)" d="M991.321 741.133a12.13 12.13 0 0 0-10.959 0l-11.181 6.455c-3.024 1.746-3.024 4.584 0 6.328.162.094.35.164.525.248l10.656-6.152a12.205 12.205 0 0 1 10.434-.248l.525-.303c3.022-1.744 3.022-4.582 0-6.328Z"></path><path fill="url(#aw)" d="m997.687 751.135-11.184 6.455c-6.531 3.771-17.156 3.77-23.687 0-3.229-1.863-4.856-4.307-4.89-6.756l-.009 6.691.01-.007c-.049 2.513 1.574 5.037 4.889 6.95 6.53 3.77 17.156 3.77 23.687 0l11.184-6.454c3.252-1.88 4.88-4.346 4.894-6.813v-6.892c-.004 2.472-1.637 4.943-4.894 6.826Z"></path><path style="mix-blend-mode:multiply" fill="url(#ax)" d="M1052.788 713.266h-11.912l6.365 3.673-33.558 19.375h11.912l33.558-19.375-6.365-3.673z"></path><path fill="#fff" d="m1013.683 729.438-6.364-3.674 27.192-15.701-4.596-2.655 6.365-3.674 10.961 6.329-33.558 19.375z"></path><path fill="#d0d4f6" d="m1013.683 736.314-6.364-3.673v-6.877l6.364 3.674v6.876zM1029.915 712.717v-5.309l4.596 2.655-4.596 2.654z"></path><path fill="#bdc1e4" d="m1047.241 716.939-33.558 19.375v-6.876l33.558-19.375v6.876z"></path></g></g></svg>